<?xml version="1.0" encoding="UTF-8" standalone="no"?>
<svg
   xmlns:dc="http://purl.org/dc/elements/1.1/"
   xmlns:cc="http://creativecommons.org/ns#"
   xmlns:rdf="http://www.w3.org/1999/02/22-rdf-syntax-ns#"
   xmlns:svg="http://www.w3.org/2000/svg"
   xmlns="http://www.w3.org/2000/svg"
   xmlns:sodipodi="http://sodipodi.sourceforge.net/DTD/sodipodi-0.dtd"
   xmlns:inkscape="http://www.inkscape.org/namespaces/inkscape"
   width="354.33069"
   height="354.33069"
   id="svg2"
   version="1.1"
   inkscape:version="0.48.5 r10040"
   sodipodi:docname="20141019_feet.dxf">
  <metadata
     id="metadata350">
    <rdf:RDF>
      <cc:Work
         rdf:about="">
        <dc:format>image/svg+xml</dc:format>
        <dc:type
           rdf:resource="http://purl.org/dc/dcmitype/StillImage" />
        <dc:title></dc:title>
      </cc:Work>
    </rdf:RDF>
  </metadata>
  <sodipodi:namedview
     pagecolor="#ffffff"
     bordercolor="#666666"
     borderopacity="1"
     objecttolerance="10"
     gridtolerance="10"
     guidetolerance="10"
     inkscape:pageopacity="0"
     inkscape:pageshadow="2"
     inkscape:window-width="1920"
     inkscape:window-height="1018"
     id="namedview348"
     showgrid="true"
     inkscape:document-units="mm"
     units="mm"
     inkscape:zoom="2.5371828"
     inkscape:cx="72.942029"
     inkscape:cy="91.820741"
     inkscape:window-x="-8"
     inkscape:window-y="-8"
     inkscape:window-maximized="1"
     inkscape:current-layer="layer1"
     showguides="true"
     inkscape:guide-bbox="true">
    <inkscape:grid
       type="xygrid"
       id="grid3327"
       empspacing="5"
       visible="true"
       enabled="true"
       snapvisiblegridlinesonly="true"
       units="mm"
       spacingx="1mm"
       spacingy="1mm" />
  </sodipodi:namedview>
  <desc
     id="desc4">C:\Users\Frank2014\Desktop\PROJECTS\20141009_OpenSampler_v3\20141019_frontplate.dxf - scale = 1.000000</desc>
  <defs
     id="defs6">
    <marker
       refY="0"
       refX="0"
       style="overflow:visible"
       id="DistanceX"
       orient="auto">
      <path
         style="stroke:#000000;stroke-width:0.5"
         d="M 3,-3 -3,3 M 0,-5 0,5"
         id="path9"
         inkscape:connector-curvature="0" />
    </marker>
    <pattern
       height="8"
       width="8"
       patternUnits="userSpaceOnUse"
       y="0"
       x="0"
       id="Hatch">
      <path
         linecap="square"
         stroke="#000000"
         stroke-width="0.25"
         d="M8 4 l-4,4"
         id="path12" />
      <path
         linecap="square"
         stroke="#000000"
         stroke-width="0.25"
         d="M6 2 l-4,4"
         id="path14" />
      <path
         linecap="square"
         stroke="#000000"
         stroke-width="0.25"
         d="M4 0 l-4,4"
         id="path16" />
    </pattern>
  </defs>
  <g
     inkscape:groupmode="layer"
     id="layer1"
     inkscape:label="Layer"
     transform="translate(0,-698.03148)">
    <path
       sodipodi:type="arc"
       style="fill:#000000;stroke:none;stroke-width:3.54330707000000000;stroke-linecap:square;stroke-miterlimit:4;stroke-opacity:1;stroke-dasharray:none;fill-opacity:0.27314815"
       id="path3038"
       sodipodi:cx="35.433071"
       sodipodi:cy="318.89761"
       sodipodi:rx="35.433071"
       sodipodi:ry="35.433071"
       d="m 70.866142,318.89761 a 35.433071,35.433071 0 1 1 -70.866142,0 35.433071,35.433071 0 1 1 70.866142,0 z"
       transform="translate(0,698.03148)" />
    <path
       sodipodi:type="arc"
       style="fill:#000000;fill-opacity:0.27314812;stroke:none"
       id="path3814"
       sodipodi:cx="8.8582678"
       sodipodi:cy="345.47241"
       sodipodi:rx="8.8582678"
       sodipodi:ry="8.8582678"
       d="m 17.716536,345.47241 a 8.8582678,8.8582678 0 1 1 -17.716536,0 8.8582678,8.8582678 0 1 1 17.716536,0 z"
       transform="translate(26.574803,671.45669)" />
    <path
       sodipodi:type="arc"
       style="fill:#000000;fill-opacity:0.27314812;stroke:none"
       id="path3818"
       sodipodi:cx="17.716536"
       sodipodi:cy="336.61417"
       sodipodi:rx="17.716536"
       sodipodi:ry="17.716536"
       d="m 35.433071,336.61417 a 17.716536,17.716536 0 1 1 -35.433071,0 17.716536,17.716536 0 1 1 35.433071,0 z"
       transform="translate(17.716535,680.31493)" />
    <path
       transform="translate(0,612.99211)"
       d="m 70.866142,318.89761 a 35.433071,35.433071 0 1 1 -70.866142,0 35.433071,35.433071 0 1 1 70.866142,0 z"
       sodipodi:ry="35.433071"
       sodipodi:rx="35.433071"
       sodipodi:cy="318.89761"
       sodipodi:cx="35.433071"
       id="path3838"
       style="fill:#000000;fill-opacity:0.27314812;stroke:none"
       sodipodi:type="arc" />
    <path
       transform="translate(26.574803,586.41732)"
       d="m 17.716536,345.47241 a 8.8582678,8.8582678 0 1 1 -17.716536,0 8.8582678,8.8582678 0 1 1 17.716536,0 z"
       sodipodi:ry="8.8582678"
       sodipodi:rx="8.8582678"
       sodipodi:cy="345.47241"
       sodipodi:cx="8.8582678"
       id="path3840"
       style="fill:#000000;fill-opacity:0.27314812;stroke:none"
       sodipodi:type="arc" />
    <path
       transform="translate(17.716535,595.27556)"
       d="m 35.433071,336.61417 a 17.716536,17.716536 0 1 1 -35.433071,0 17.716536,17.716536 0 1 1 35.433071,0 z"
       sodipodi:ry="17.716536"
       sodipodi:rx="17.716536"
       sodipodi:cy="336.61417"
       sodipodi:cx="17.716536"
       id="path3842"
       style="fill:#000000;fill-opacity:0.27314812;stroke:none"
       sodipodi:type="arc" />
    <path
       transform="translate(85.039368,698.03148)"
       d="m 70.866142,318.89761 a 35.433071,35.433071 0 1 1 -70.866142,0 35.433071,35.433071 0 1 1 70.866142,0 z"
       sodipodi:ry="35.433071"
       sodipodi:rx="35.433071"
       sodipodi:cy="318.89761"
       sodipodi:cx="35.433071"
       id="path3844"
       style="fill:#000000;fill-opacity:0.27314812;stroke:none"
       sodipodi:type="arc" />
    <path
       transform="translate(111.61417,671.45669)"
       d="m 17.716536,345.47241 a 8.8582678,8.8582678 0 1 1 -17.716536,0 8.8582678,8.8582678 0 1 1 17.716536,0 z"
       sodipodi:ry="8.8582678"
       sodipodi:rx="8.8582678"
       sodipodi:cy="345.47241"
       sodipodi:cx="8.8582678"
       id="path3846"
       style="fill:#000000;fill-opacity:0.27314812;stroke:none"
       sodipodi:type="arc" />
    <path
       transform="translate(102.7559,680.31493)"
       d="m 35.433071,336.61417 a 17.716536,17.716536 0 1 1 -35.433071,0 17.716536,17.716536 0 1 1 35.433071,0 z"
       sodipodi:ry="17.716536"
       sodipodi:rx="17.716536"
       sodipodi:cy="336.61417"
       sodipodi:cx="17.716536"
       id="path3848"
       style="fill:#000000;fill-opacity:0.27314812;stroke:none"
       sodipodi:type="arc" />
    <path
       sodipodi:type="arc"
       style="fill:#000000;fill-opacity:0.27314812;stroke:none"
       id="path3850"
       sodipodi:cx="35.433071"
       sodipodi:cy="318.89761"
       sodipodi:rx="35.433071"
       sodipodi:ry="35.433071"
       d="m 70.866142,318.89761 a 35.433071,35.433071 0 1 1 -70.866142,0 35.433071,35.433071 0 1 1 70.866142,0 z"
       transform="translate(85.039368,612.99211)" />
    <path
       sodipodi:type="arc"
       style="fill:#000000;fill-opacity:0.27314812;stroke:none"
       id="path3852"
       sodipodi:cx="8.8582678"
       sodipodi:cy="345.47241"
       sodipodi:rx="8.8582678"
       sodipodi:ry="8.8582678"
       d="m 17.716536,345.47241 a 8.8582678,8.8582678 0 1 1 -17.716536,0 8.8582678,8.8582678 0 1 1 17.716536,0 z"
       transform="translate(111.61417,586.41732)" />
    <path
       sodipodi:type="arc"
       style="fill:#000000;fill-opacity:0.27314812;stroke:none"
       id="path3854"
       sodipodi:cx="17.716536"
       sodipodi:cy="336.61417"
       sodipodi:rx="17.716536"
       sodipodi:ry="17.716536"
       d="m 35.433071,336.61417 a 17.716536,17.716536 0 1 1 -35.433071,0 17.716536,17.716536 0 1 1 35.433071,0 z"
       transform="translate(102.7559,595.27556)" />
  </g>
</svg>
