  0
SECTION
  2
BLOCKS
  0
ENDSEC
  0
SECTION
  2
ENTITIES
  0
LINE
  8
0
 10
0
 11
0
 20
7.05
 21
56.95
  0
LINE
  8
0
 10
0
 11
1.191
 20
56.95
 21
57.889
  0
LINE
  8
0
 10
1.191
 11
3.28
 20
57.889
 21
59.284
  0
LINE
  8
0
 10
3.28
 11
5.472
 20
59.284
 21
60.512
  0
LINE
  8
0
 10
5.472
 11
7.754
 20
60.512
 21
61.564
  0
LINE
  8
0
 10
7.754
 11
10.111
 20
61.564
 21
62.434
  0
LINE
  8
0
 10
10.111
 11
12.53
 20
62.434
 21
63.116
  0
LINE
  8
0
 10
12.53
 11
14.994
 20
63.116
 21
63.606
  0
LINE
  8
0
 10
14.994
 11
17.489
 20
63.606
 21
63.901
  0
LINE
  8
0
 10
17.489
 11
20
 20
63.901
 21
64
  0
LINE
  8
0
 10
20
 11
22.511
 20
64
 21
63.901
  0
LINE
  8
0
 10
22.511
 11
25.006
 20
63.901
 21
63.606
  0
LINE
  8
0
 10
25.006
 11
27.47
 20
63.606
 21
63.116
  0
LINE
  8
0
 10
27.47
 11
29.889
 20
63.116
 21
62.434
  0
LINE
  8
0
 10
29.889
 11
32.246
 20
62.434
 21
61.564
  0
LINE
  8
0
 10
32.246
 11
34.528
 20
61.564
 21
60.512
  0
LINE
  8
0
 10
34.528
 11
36.72
 20
60.512
 21
59.284
  0
LINE
  8
0
 10
36.72
 11
38.809
 20
59.284
 21
57.889
  0
LINE
  8
0
 10
38.809
 11
40.782
 20
57.889
 21
56.333
  0
LINE
  8
0
 10
40.782
 11
42.627
 20
56.333
 21
54.627
  0
LINE
  8
0
 10
42.627
 11
44.333
 20
54.627
 21
52.782
  0
LINE
  8
0
 10
44.333
 11
45.889
 20
52.782
 21
50.809
  0
LINE
  8
0
 10
45.889
 11
47.284
 20
50.809
 21
48.72
  0
LINE
  8
0
 10
47.284
 11
48.512
 20
48.72
 21
46.528
  0
LINE
  8
0
 10
48.512
 11
49.564
 20
46.528
 21
44.246
  0
LINE
  8
0
 10
49.564
 11
50.434
 20
44.246
 21
41.889
  0
LINE
  8
0
 10
50.434
 11
51.116
 20
41.889
 21
39.47
  0
LINE
  8
0
 10
51.116
 11
51.606
 20
39.47
 21
37.006
  0
LINE
  8
0
 10
51.606
 11
51.901
 20
37.006
 21
34.511
  0
LINE
  8
0
 10
51.901
 11
52
 20
34.511
 21
32
  0
LINE
  8
0
 10
52
 11
52
 20
32
 21
0
  0
LINE
  8
0
 10
52
 11
20
 20
0
 21
0
  0
LINE
  8
0
 10
20
 11
17.489
 20
0
 21
0.099
  0
LINE
  8
0
 10
17.489
 11
14.994
 20
0.099
 21
0.394
  0
LINE
  8
0
 10
14.994
 11
12.53
 20
0.394
 21
0.884
  0
LINE
  8
0
 10
12.53
 11
10.111
 20
0.884
 21
1.566
  0
LINE
  8
0
 10
10.111
 11
7.754
 20
1.566
 21
2.436
  0
LINE
  8
0
 10
7.754
 11
5.472
 20
2.436
 21
3.488
  0
LINE
  8
0
 10
5.472
 11
3.28
 20
3.488
 21
4.716
  0
LINE
  8
0
 10
3.28
 11
1.191
 20
4.716
 21
6.111
  0
LINE
  8
0
 10
1.191
 11
0
 20
6.111
 21
7.05
  0
LINE
  8
0
 10
3.5
 11
3.506
 20
16.5
 21
16.657
  0
LINE
  8
0
 10
3.506
 11
3.525
 20
16.657
 21
16.813
  0
LINE
  8
0
 10
3.525
 11
3.555
 20
16.813
 21
16.967
  0
LINE
  8
0
 10
3.555
 11
3.598
 20
16.967
 21
17.118
  0
LINE
  8
0
 10
3.598
 11
3.652
 20
17.118
 21
17.265
  0
LINE
  8
0
 10
3.652
 11
3.718
 20
17.265
 21
17.408
  0
LINE
  8
0
 10
3.718
 11
3.795
 20
17.408
 21
17.545
  0
LINE
  8
0
 10
3.795
 11
3.882
 20
17.545
 21
17.676
  0
LINE
  8
0
 10
3.882
 11
3.979
 20
17.676
 21
17.799
  0
LINE
  8
0
 10
3.979
 11
4.086
 20
17.799
 21
17.914
  0
LINE
  8
0
 10
4.086
 11
4.201
 20
17.914
 21
18.021
  0
LINE
  8
0
 10
4.201
 11
4.324
 20
18.021
 21
18.118
  0
LINE
  8
0
 10
4.324
 11
4.455
 20
18.118
 21
18.205
  0
LINE
  8
0
 10
4.455
 11
4.592
 20
18.205
 21
18.282
  0
LINE
  8
0
 10
4.592
 11
4.735
 20
18.282
 21
18.348
  0
LINE
  8
0
 10
4.735
 11
4.882
 20
18.348
 21
18.402
  0
LINE
  8
0
 10
4.882
 11
5.033
 20
18.402
 21
18.445
  0
LINE
  8
0
 10
5.033
 11
5.187
 20
18.445
 21
18.475
  0
LINE
  8
0
 10
5.187
 11
5.343
 20
18.475
 21
18.494
  0
LINE
  8
0
 10
5.343
 11
5.5
 20
18.494
 21
18.5
  0
LINE
  8
0
 10
5.5
 11
5.657
 20
18.5
 21
18.494
  0
LINE
  8
0
 10
5.657
 11
5.813
 20
18.494
 21
18.475
  0
LINE
  8
0
 10
5.813
 11
5.967
 20
18.475
 21
18.445
  0
LINE
  8
0
 10
5.967
 11
6.118
 20
18.445
 21
18.402
  0
LINE
  8
0
 10
6.118
 11
6.265
 20
18.402
 21
18.348
  0
LINE
  8
0
 10
6.265
 11
6.408
 20
18.348
 21
18.282
  0
LINE
  8
0
 10
6.408
 11
6.545
 20
18.282
 21
18.205
  0
LINE
  8
0
 10
6.545
 11
6.676
 20
18.205
 21
18.118
  0
LINE
  8
0
 10
6.676
 11
6.799
 20
18.118
 21
18.021
  0
LINE
  8
0
 10
6.799
 11
6.914
 20
18.021
 21
17.914
  0
LINE
  8
0
 10
6.914
 11
7.021
 20
17.914
 21
17.799
  0
LINE
  8
0
 10
7.021
 11
7.118
 20
17.799
 21
17.676
  0
LINE
  8
0
 10
7.118
 11
7.205
 20
17.676
 21
17.545
  0
LINE
  8
0
 10
7.205
 11
7.282
 20
17.545
 21
17.408
  0
LINE
  8
0
 10
7.282
 11
7.348
 20
17.408
 21
17.265
  0
LINE
  8
0
 10
7.348
 11
7.402
 20
17.265
 21
17.118
  0
LINE
  8
0
 10
7.402
 11
7.445
 20
17.118
 21
16.967
  0
LINE
  8
0
 10
7.445
 11
7.475
 20
16.967
 21
16.813
  0
LINE
  8
0
 10
7.475
 11
7.494
 20
16.813
 21
16.657
  0
LINE
  8
0
 10
7.494
 11
7.5
 20
16.657
 21
16.5
  0
LINE
  8
0
 10
7.5
 11
7.494
 20
16.5
 21
16.343
  0
LINE
  8
0
 10
7.494
 11
7.475
 20
16.343
 21
16.187
  0
LINE
  8
0
 10
7.475
 11
7.445
 20
16.187
 21
16.033
  0
LINE
  8
0
 10
7.445
 11
7.402
 20
16.033
 21
15.882
  0
LINE
  8
0
 10
7.402
 11
7.348
 20
15.882
 21
15.735
  0
LINE
  8
0
 10
7.348
 11
7.282
 20
15.735
 21
15.592
  0
LINE
  8
0
 10
7.282
 11
7.205
 20
15.592
 21
15.455
  0
LINE
  8
0
 10
7.205
 11
7.118
 20
15.455
 21
15.324
  0
LINE
  8
0
 10
7.118
 11
7.021
 20
15.324
 21
15.201
  0
LINE
  8
0
 10
7.021
 11
6.914
 20
15.201
 21
15.086
  0
LINE
  8
0
 10
6.914
 11
6.799
 20
15.086
 21
14.979
  0
LINE
  8
0
 10
6.799
 11
6.676
 20
14.979
 21
14.882
  0
LINE
  8
0
 10
6.676
 11
6.545
 20
14.882
 21
14.795
  0
LINE
  8
0
 10
6.545
 11
6.408
 20
14.795
 21
14.718
  0
LINE
  8
0
 10
6.408
 11
6.265
 20
14.718
 21
14.652
  0
LINE
  8
0
 10
6.265
 11
6.118
 20
14.652
 21
14.598
  0
LINE
  8
0
 10
6.118
 11
5.967
 20
14.598
 21
14.555
  0
LINE
  8
0
 10
5.967
 11
5.813
 20
14.555
 21
14.525
  0
LINE
  8
0
 10
5.813
 11
5.657
 20
14.525
 21
14.506
  0
LINE
  8
0
 10
5.657
 11
5.5
 20
14.506
 21
14.5
  0
LINE
  8
0
 10
5.5
 11
5.343
 20
14.5
 21
14.506
  0
LINE
  8
0
 10
5.343
 11
5.187
 20
14.506
 21
14.525
  0
LINE
  8
0
 10
5.187
 11
5.033
 20
14.525
 21
14.555
  0
LINE
  8
0
 10
5.033
 11
4.882
 20
14.555
 21
14.598
  0
LINE
  8
0
 10
4.882
 11
4.735
 20
14.598
 21
14.652
  0
LINE
  8
0
 10
4.735
 11
4.592
 20
14.652
 21
14.718
  0
LINE
  8
0
 10
4.592
 11
4.455
 20
14.718
 21
14.795
  0
LINE
  8
0
 10
4.455
 11
4.324
 20
14.795
 21
14.882
  0
LINE
  8
0
 10
4.324
 11
4.201
 20
14.882
 21
14.979
  0
LINE
  8
0
 10
4.201
 11
4.086
 20
14.979
 21
15.086
  0
LINE
  8
0
 10
4.086
 11
3.979
 20
15.086
 21
15.201
  0
LINE
  8
0
 10
3.979
 11
3.882
 20
15.201
 21
15.324
  0
LINE
  8
0
 10
3.882
 11
3.795
 20
15.324
 21
15.455
  0
LINE
  8
0
 10
3.795
 11
3.718
 20
15.455
 21
15.592
  0
LINE
  8
0
 10
3.718
 11
3.652
 20
15.592
 21
15.735
  0
LINE
  8
0
 10
3.652
 11
3.598
 20
15.735
 21
15.882
  0
LINE
  8
0
 10
3.598
 11
3.555
 20
15.882
 21
16.033
  0
LINE
  8
0
 10
3.555
 11
3.525
 20
16.033
 21
16.187
  0
LINE
  8
0
 10
3.525
 11
3.506
 20
16.187
 21
16.343
  0
LINE
  8
0
 10
3.506
 11
3.5
 20
16.343
 21
16.5
  0
LINE
  8
0
 10
3.5
 11
3.506
 20
47.5
 21
47.657
  0
LINE
  8
0
 10
3.506
 11
3.525
 20
47.657
 21
47.813
  0
LINE
  8
0
 10
3.525
 11
3.555
 20
47.813
 21
47.967
  0
LINE
  8
0
 10
3.555
 11
3.598
 20
47.967
 21
48.118
  0
LINE
  8
0
 10
3.598
 11
3.652
 20
48.118
 21
48.265
  0
LINE
  8
0
 10
3.652
 11
3.718
 20
48.265
 21
48.408
  0
LINE
  8
0
 10
3.718
 11
3.795
 20
48.408
 21
48.545
  0
LINE
  8
0
 10
3.795
 11
3.882
 20
48.545
 21
48.676
  0
LINE
  8
0
 10
3.882
 11
3.979
 20
48.676
 21
48.799
  0
LINE
  8
0
 10
3.979
 11
4.086
 20
48.799
 21
48.914
  0
LINE
  8
0
 10
4.086
 11
4.201
 20
48.914
 21
49.021
  0
LINE
  8
0
 10
4.201
 11
4.324
 20
49.021
 21
49.118
  0
LINE
  8
0
 10
4.324
 11
4.455
 20
49.118
 21
49.205
  0
LINE
  8
0
 10
4.455
 11
4.592
 20
49.205
 21
49.282
  0
LINE
  8
0
 10
4.592
 11
4.735
 20
49.282
 21
49.348
  0
LINE
  8
0
 10
4.735
 11
4.882
 20
49.348
 21
49.402
  0
LINE
  8
0
 10
4.882
 11
5.033
 20
49.402
 21
49.445
  0
LINE
  8
0
 10
5.033
 11
5.187
 20
49.445
 21
49.475
  0
LINE
  8
0
 10
5.187
 11
5.343
 20
49.475
 21
49.494
  0
LINE
  8
0
 10
5.343
 11
5.5
 20
49.494
 21
49.5
  0
LINE
  8
0
 10
5.5
 11
5.657
 20
49.5
 21
49.494
  0
LINE
  8
0
 10
5.657
 11
5.813
 20
49.494
 21
49.475
  0
LINE
  8
0
 10
5.813
 11
5.967
 20
49.475
 21
49.445
  0
LINE
  8
0
 10
5.967
 11
6.118
 20
49.445
 21
49.402
  0
LINE
  8
0
 10
6.118
 11
6.265
 20
49.402
 21
49.348
  0
LINE
  8
0
 10
6.265
 11
6.408
 20
49.348
 21
49.282
  0
LINE
  8
0
 10
6.408
 11
6.545
 20
49.282
 21
49.205
  0
LINE
  8
0
 10
6.545
 11
6.676
 20
49.205
 21
49.118
  0
LINE
  8
0
 10
6.676
 11
6.799
 20
49.118
 21
49.021
  0
LINE
  8
0
 10
6.799
 11
6.914
 20
49.021
 21
48.914
  0
LINE
  8
0
 10
6.914
 11
7.021
 20
48.914
 21
48.799
  0
LINE
  8
0
 10
7.021
 11
7.118
 20
48.799
 21
48.676
  0
LINE
  8
0
 10
7.118
 11
7.205
 20
48.676
 21
48.545
  0
LINE
  8
0
 10
7.205
 11
7.282
 20
48.545
 21
48.408
  0
LINE
  8
0
 10
7.282
 11
7.348
 20
48.408
 21
48.265
  0
LINE
  8
0
 10
7.348
 11
7.402
 20
48.265
 21
48.118
  0
LINE
  8
0
 10
7.402
 11
7.445
 20
48.118
 21
47.967
  0
LINE
  8
0
 10
7.445
 11
7.475
 20
47.967
 21
47.813
  0
LINE
  8
0
 10
7.475
 11
7.494
 20
47.813
 21
47.657
  0
LINE
  8
0
 10
7.494
 11
7.5
 20
47.657
 21
47.5
  0
LINE
  8
0
 10
7.5
 11
7.494
 20
47.5
 21
47.343
  0
LINE
  8
0
 10
7.494
 11
7.475
 20
47.343
 21
47.187
  0
LINE
  8
0
 10
7.475
 11
7.445
 20
47.187
 21
47.033
  0
LINE
  8
0
 10
7.445
 11
7.402
 20
47.033
 21
46.882
  0
LINE
  8
0
 10
7.402
 11
7.348
 20
46.882
 21
46.735
  0
LINE
  8
0
 10
7.348
 11
7.282
 20
46.735
 21
46.592
  0
LINE
  8
0
 10
7.282
 11
7.205
 20
46.592
 21
46.455
  0
LINE
  8
0
 10
7.205
 11
7.118
 20
46.455
 21
46.324
  0
LINE
  8
0
 10
7.118
 11
7.021
 20
46.324
 21
46.201
  0
LINE
  8
0
 10
7.021
 11
6.914
 20
46.201
 21
46.086
  0
LINE
  8
0
 10
6.914
 11
6.799
 20
46.086
 21
45.979
  0
LINE
  8
0
 10
6.799
 11
6.676
 20
45.979
 21
45.882
  0
LINE
  8
0
 10
6.676
 11
6.545
 20
45.882
 21
45.795
  0
LINE
  8
0
 10
6.545
 11
6.408
 20
45.795
 21
45.718
  0
LINE
  8
0
 10
6.408
 11
6.265
 20
45.718
 21
45.652
  0
LINE
  8
0
 10
6.265
 11
6.118
 20
45.652
 21
45.598
  0
LINE
  8
0
 10
6.118
 11
5.967
 20
45.598
 21
45.555
  0
LINE
  8
0
 10
5.967
 11
5.813
 20
45.555
 21
45.525
  0
LINE
  8
0
 10
5.813
 11
5.657
 20
45.525
 21
45.506
  0
LINE
  8
0
 10
5.657
 11
5.5
 20
45.506
 21
45.5
  0
LINE
  8
0
 10
5.5
 11
5.343
 20
45.5
 21
45.506
  0
LINE
  8
0
 10
5.343
 11
5.187
 20
45.506
 21
45.525
  0
LINE
  8
0
 10
5.187
 11
5.033
 20
45.525
 21
45.555
  0
LINE
  8
0
 10
5.033
 11
4.882
 20
45.555
 21
45.598
  0
LINE
  8
0
 10
4.882
 11
4.735
 20
45.598
 21
45.652
  0
LINE
  8
0
 10
4.735
 11
4.592
 20
45.652
 21
45.718
  0
LINE
  8
0
 10
4.592
 11
4.455
 20
45.718
 21
45.795
  0
LINE
  8
0
 10
4.455
 11
4.324
 20
45.795
 21
45.882
  0
LINE
  8
0
 10
4.324
 11
4.201
 20
45.882
 21
45.979
  0
LINE
  8
0
 10
4.201
 11
4.086
 20
45.979
 21
46.086
  0
LINE
  8
0
 10
4.086
 11
3.979
 20
46.086
 21
46.201
  0
LINE
  8
0
 10
3.979
 11
3.882
 20
46.201
 21
46.324
  0
LINE
  8
0
 10
3.882
 11
3.795
 20
46.324
 21
46.455
  0
LINE
  8
0
 10
3.795
 11
3.718
 20
46.455
 21
46.592
  0
LINE
  8
0
 10
3.718
 11
3.652
 20
46.592
 21
46.735
  0
LINE
  8
0
 10
3.652
 11
3.598
 20
46.735
 21
46.882
  0
LINE
  8
0
 10
3.598
 11
3.555
 20
46.882
 21
47.033
  0
LINE
  8
0
 10
3.555
 11
3.525
 20
47.033
 21
47.187
  0
LINE
  8
0
 10
3.525
 11
3.506
 20
47.187
 21
47.343
  0
LINE
  8
0
 10
3.506
 11
3.5
 20
47.343
 21
47.5
  0
LINE
  8
0
 10
7
 11
7.043
 20
32
 21
33.098
  0
LINE
  8
0
 10
7.043
 11
7.172
 20
33.098
 21
34.19
  0
LINE
  8
0
 10
7.172
 11
7.387
 20
34.19
 21
35.268
  0
LINE
  8
0
 10
7.387
 11
7.685
 20
35.268
 21
36.326
  0
LINE
  8
0
 10
7.685
 11
8.066
 20
36.326
 21
37.358
  0
LINE
  8
0
 10
8.066
 11
8.526
 20
37.358
 21
38.356
  0
LINE
  8
0
 10
8.526
 11
9.063
 20
38.356
 21
39.315
  0
LINE
  8
0
 10
9.063
 11
9.674
 20
39.315
 21
40.229
  0
LINE
  8
0
 10
9.674
 11
10.354
 20
40.229
 21
41.092
  0
LINE
  8
0
 10
10.354
 11
11.101
 20
41.092
 21
41.899
  0
LINE
  8
0
 10
11.101
 11
11.908
 20
41.899
 21
42.646
  0
LINE
  8
0
 10
11.908
 11
12.771
 20
42.646
 21
43.326
  0
LINE
  8
0
 10
12.771
 11
13.685
 20
43.326
 21
43.937
  0
LINE
  8
0
 10
13.685
 11
14.644
 20
43.937
 21
44.474
  0
LINE
  8
0
 10
14.644
 11
15.642
 20
44.474
 21
44.934
  0
LINE
  8
0
 10
15.642
 11
16.674
 20
44.934
 21
45.315
  0
LINE
  8
0
 10
16.674
 11
17.732
 20
45.315
 21
45.613
  0
LINE
  8
0
 10
17.732
 11
18.81
 20
45.613
 21
45.828
  0
LINE
  8
0
 10
18.81
 11
19.902
 20
45.828
 21
45.957
  0
LINE
  8
0
 10
19.902
 11
21
 20
45.957
 21
46
  0
LINE
  8
0
 10
21
 11
22.098
 20
46
 21
45.957
  0
LINE
  8
0
 10
22.098
 11
23.19
 20
45.957
 21
45.828
  0
LINE
  8
0
 10
23.19
 11
24.268
 20
45.828
 21
45.613
  0
LINE
  8
0
 10
24.268
 11
25.326
 20
45.613
 21
45.315
  0
LINE
  8
0
 10
25.326
 11
26.358
 20
45.315
 21
44.934
  0
LINE
  8
0
 10
26.358
 11
27.356
 20
44.934
 21
44.474
  0
LINE
  8
0
 10
27.356
 11
28.315
 20
44.474
 21
43.937
  0
LINE
  8
0
 10
28.315
 11
29.229
 20
43.937
 21
43.326
  0
LINE
  8
0
 10
29.229
 11
30.092
 20
43.326
 21
42.646
  0
LINE
  8
0
 10
30.092
 11
30.899
 20
42.646
 21
41.899
  0
LINE
  8
0
 10
30.899
 11
31.646
 20
41.899
 21
41.092
  0
LINE
  8
0
 10
31.646
 11
32.326
 20
41.092
 21
40.229
  0
LINE
  8
0
 10
32.326
 11
32.937
 20
40.229
 21
39.315
  0
LINE
  8
0
 10
32.937
 11
33.474
 20
39.315
 21
38.356
  0
LINE
  8
0
 10
33.474
 11
33.934
 20
38.356
 21
37.358
  0
LINE
  8
0
 10
33.934
 11
34.315
 20
37.358
 21
36.326
  0
LINE
  8
0
 10
34.315
 11
34.613
 20
36.326
 21
35.268
  0
LINE
  8
0
 10
34.613
 11
34.828
 20
35.268
 21
34.19
  0
LINE
  8
0
 10
34.828
 11
34.957
 20
34.19
 21
33.098
  0
LINE
  8
0
 10
34.957
 11
35
 20
33.098
 21
32
  0
LINE
  8
0
 10
35
 11
34.957
 20
32
 21
30.902
  0
LINE
  8
0
 10
34.957
 11
34.828
 20
30.902
 21
29.81
  0
LINE
  8
0
 10
34.828
 11
34.613
 20
29.81
 21
28.732
  0
LINE
  8
0
 10
34.613
 11
34.315
 20
28.732
 21
27.674
  0
LINE
  8
0
 10
34.315
 11
33.934
 20
27.674
 21
26.642
  0
LINE
  8
0
 10
33.934
 11
33.474
 20
26.642
 21
25.644
  0
LINE
  8
0
 10
33.474
 11
32.937
 20
25.644
 21
24.685
  0
LINE
  8
0
 10
32.937
 11
32.326
 20
24.685
 21
23.771
  0
LINE
  8
0
 10
32.326
 11
31.646
 20
23.771
 21
22.908
  0
LINE
  8
0
 10
31.646
 11
30.899
 20
22.908
 21
22.101
  0
LINE
  8
0
 10
30.899
 11
30.092
 20
22.101
 21
21.354
  0
LINE
  8
0
 10
30.092
 11
29.229
 20
21.354
 21
20.674
  0
LINE
  8
0
 10
29.229
 11
28.315
 20
20.674
 21
20.063
  0
LINE
  8
0
 10
28.315
 11
27.356
 20
20.063
 21
19.526
  0
LINE
  8
0
 10
27.356
 11
26.358
 20
19.526
 21
19.066
  0
LINE
  8
0
 10
26.358
 11
25.326
 20
19.066
 21
18.685
  0
LINE
  8
0
 10
25.326
 11
24.268
 20
18.685
 21
18.387
  0
LINE
  8
0
 10
24.268
 11
23.19
 20
18.387
 21
18.172
  0
LINE
  8
0
 10
23.19
 11
22.098
 20
18.172
 21
18.043
  0
LINE
  8
0
 10
22.098
 11
21
 20
18.043
 21
18
  0
LINE
  8
0
 10
21
 11
19.902
 20
18
 21
18.043
  0
LINE
  8
0
 10
19.902
 11
18.81
 20
18.043
 21
18.172
  0
LINE
  8
0
 10
18.81
 11
17.732
 20
18.172
 21
18.387
  0
LINE
  8
0
 10
17.732
 11
16.674
 20
18.387
 21
18.685
  0
LINE
  8
0
 10
16.674
 11
15.642
 20
18.685
 21
19.066
  0
LINE
  8
0
 10
15.642
 11
14.644
 20
19.066
 21
19.526
  0
LINE
  8
0
 10
14.644
 11
13.685
 20
19.526
 21
20.063
  0
LINE
  8
0
 10
13.685
 11
12.771
 20
20.063
 21
20.674
  0
LINE
  8
0
 10
12.771
 11
11.908
 20
20.674
 21
21.354
  0
LINE
  8
0
 10
11.908
 11
11.101
 20
21.354
 21
22.101
  0
LINE
  8
0
 10
11.101
 11
10.354
 20
22.101
 21
22.908
  0
LINE
  8
0
 10
10.354
 11
9.674
 20
22.908
 21
23.771
  0
LINE
  8
0
 10
9.674
 11
9.063
 20
23.771
 21
24.685
  0
LINE
  8
0
 10
9.063
 11
8.526
 20
24.685
 21
25.644
  0
LINE
  8
0
 10
8.526
 11
8.066
 20
25.644
 21
26.642
  0
LINE
  8
0
 10
8.066
 11
7.685
 20
26.642
 21
27.674
  0
LINE
  8
0
 10
7.685
 11
7.387
 20
27.674
 21
28.732
  0
LINE
  8
0
 10
7.387
 11
7.172
 20
28.732
 21
29.81
  0
LINE
  8
0
 10
7.172
 11
7.043
 20
29.81
 21
30.902
  0
LINE
  8
0
 10
7.043
 11
7
 20
30.902
 21
32
  0
LINE
  8
0
 10
13
 11
13.006
 20
6
 21
6.157
  0
LINE
  8
0
 10
13.006
 11
13.025
 20
6.157
 21
6.313
  0
LINE
  8
0
 10
13.025
 11
13.055
 20
6.313
 21
6.467
  0
LINE
  8
0
 10
13.055
 11
13.098
 20
6.467
 21
6.618
  0
LINE
  8
0
 10
13.098
 11
13.152
 20
6.618
 21
6.765
  0
LINE
  8
0
 10
13.152
 11
13.218
 20
6.765
 21
6.908
  0
LINE
  8
0
 10
13.218
 11
13.295
 20
6.908
 21
7.045
  0
LINE
  8
0
 10
13.295
 11
13.382
 20
7.045
 21
7.176
  0
LINE
  8
0
 10
13.382
 11
13.479
 20
7.176
 21
7.299
  0
LINE
  8
0
 10
13.479
 11
13.586
 20
7.299
 21
7.414
  0
LINE
  8
0
 10
13.586
 11
13.701
 20
7.414
 21
7.521
  0
LINE
  8
0
 10
13.701
 11
13.824
 20
7.521
 21
7.618
  0
LINE
  8
0
 10
13.824
 11
13.955
 20
7.618
 21
7.705
  0
LINE
  8
0
 10
13.955
 11
14.092
 20
7.705
 21
7.782
  0
LINE
  8
0
 10
14.092
 11
14.235
 20
7.782
 21
7.848
  0
LINE
  8
0
 10
14.235
 11
14.382
 20
7.848
 21
7.902
  0
LINE
  8
0
 10
14.382
 11
14.533
 20
7.902
 21
7.945
  0
LINE
  8
0
 10
14.533
 11
14.687
 20
7.945
 21
7.975
  0
LINE
  8
0
 10
14.687
 11
14.843
 20
7.975
 21
7.994
  0
LINE
  8
0
 10
14.843
 11
15
 20
7.994
 21
8
  0
LINE
  8
0
 10
15
 11
15.157
 20
8
 21
7.994
  0
LINE
  8
0
 10
15.157
 11
15.313
 20
7.994
 21
7.975
  0
LINE
  8
0
 10
15.313
 11
15.467
 20
7.975
 21
7.945
  0
LINE
  8
0
 10
15.467
 11
15.618
 20
7.945
 21
7.902
  0
LINE
  8
0
 10
15.618
 11
15.765
 20
7.902
 21
7.848
  0
LINE
  8
0
 10
15.765
 11
15.908
 20
7.848
 21
7.782
  0
LINE
  8
0
 10
15.908
 11
16.045
 20
7.782
 21
7.705
  0
LINE
  8
0
 10
16.045
 11
16.176
 20
7.705
 21
7.618
  0
LINE
  8
0
 10
16.176
 11
16.299
 20
7.618
 21
7.521
  0
LINE
  8
0
 10
16.299
 11
16.414
 20
7.521
 21
7.414
  0
LINE
  8
0
 10
16.414
 11
16.521
 20
7.414
 21
7.299
  0
LINE
  8
0
 10
16.521
 11
16.618
 20
7.299
 21
7.176
  0
LINE
  8
0
 10
16.618
 11
16.705
 20
7.176
 21
7.045
  0
LINE
  8
0
 10
16.705
 11
16.782
 20
7.045
 21
6.908
  0
LINE
  8
0
 10
16.782
 11
16.848
 20
6.908
 21
6.765
  0
LINE
  8
0
 10
16.848
 11
16.902
 20
6.765
 21
6.618
  0
LINE
  8
0
 10
16.902
 11
16.945
 20
6.618
 21
6.467
  0
LINE
  8
0
 10
16.945
 11
16.975
 20
6.467
 21
6.313
  0
LINE
  8
0
 10
16.975
 11
16.994
 20
6.313
 21
6.157
  0
LINE
  8
0
 10
16.994
 11
17
 20
6.157
 21
6
  0
LINE
  8
0
 10
17
 11
16.994
 20
6
 21
5.843
  0
LINE
  8
0
 10
16.994
 11
16.975
 20
5.843
 21
5.687
  0
LINE
  8
0
 10
16.975
 11
16.945
 20
5.687
 21
5.533
  0
LINE
  8
0
 10
16.945
 11
16.902
 20
5.533
 21
5.382
  0
LINE
  8
0
 10
16.902
 11
16.848
 20
5.382
 21
5.235
  0
LINE
  8
0
 10
16.848
 11
16.782
 20
5.235
 21
5.092
  0
LINE
  8
0
 10
16.782
 11
16.705
 20
5.092
 21
4.955
  0
LINE
  8
0
 10
16.705
 11
16.618
 20
4.955
 21
4.824
  0
LINE
  8
0
 10
16.618
 11
16.521
 20
4.824
 21
4.701
  0
LINE
  8
0
 10
16.521
 11
16.414
 20
4.701
 21
4.586
  0
LINE
  8
0
 10
16.414
 11
16.299
 20
4.586
 21
4.479
  0
LINE
  8
0
 10
16.299
 11
16.176
 20
4.479
 21
4.382
  0
LINE
  8
0
 10
16.176
 11
16.045
 20
4.382
 21
4.295
  0
LINE
  8
0
 10
16.045
 11
15.908
 20
4.295
 21
4.218
  0
LINE
  8
0
 10
15.908
 11
15.765
 20
4.218
 21
4.152
  0
LINE
  8
0
 10
15.765
 11
15.618
 20
4.152
 21
4.098
  0
LINE
  8
0
 10
15.618
 11
15.467
 20
4.098
 21
4.055
  0
LINE
  8
0
 10
15.467
 11
15.313
 20
4.055
 21
4.025
  0
LINE
  8
0
 10
15.313
 11
15.157
 20
4.025
 21
4.006
  0
LINE
  8
0
 10
15.157
 11
15
 20
4.006
 21
4
  0
LINE
  8
0
 10
15
 11
14.843
 20
4
 21
4.006
  0
LINE
  8
0
 10
14.843
 11
14.687
 20
4.006
 21
4.025
  0
LINE
  8
0
 10
14.687
 11
14.533
 20
4.025
 21
4.055
  0
LINE
  8
0
 10
14.533
 11
14.382
 20
4.055
 21
4.098
  0
LINE
  8
0
 10
14.382
 11
14.235
 20
4.098
 21
4.152
  0
LINE
  8
0
 10
14.235
 11
14.092
 20
4.152
 21
4.218
  0
LINE
  8
0
 10
14.092
 11
13.955
 20
4.218
 21
4.295
  0
LINE
  8
0
 10
13.955
 11
13.824
 20
4.295
 21
4.382
  0
LINE
  8
0
 10
13.824
 11
13.701
 20
4.382
 21
4.479
  0
LINE
  8
0
 10
13.701
 11
13.586
 20
4.479
 21
4.586
  0
LINE
  8
0
 10
13.586
 11
13.479
 20
4.586
 21
4.701
  0
LINE
  8
0
 10
13.479
 11
13.382
 20
4.701
 21
4.824
  0
LINE
  8
0
 10
13.382
 11
13.295
 20
4.824
 21
4.955
  0
LINE
  8
0
 10
13.295
 11
13.218
 20
4.955
 21
5.092
  0
LINE
  8
0
 10
13.218
 11
13.152
 20
5.092
 21
5.235
  0
LINE
  8
0
 10
13.152
 11
13.098
 20
5.235
 21
5.382
  0
LINE
  8
0
 10
13.098
 11
13.055
 20
5.382
 21
5.533
  0
LINE
  8
0
 10
13.055
 11
13.025
 20
5.533
 21
5.687
  0
LINE
  8
0
 10
13.025
 11
13.006
 20
5.687
 21
5.843
  0
LINE
  8
0
 10
13.006
 11
13
 20
5.843
 21
6
  0
LINE
  8
0
 10
13
 11
13.006
 20
58
 21
58.157
  0
LINE
  8
0
 10
13.006
 11
13.025
 20
58.157
 21
58.313
  0
LINE
  8
0
 10
13.025
 11
13.055
 20
58.313
 21
58.467
  0
LINE
  8
0
 10
13.055
 11
13.098
 20
58.467
 21
58.618
  0
LINE
  8
0
 10
13.098
 11
13.152
 20
58.618
 21
58.765
  0
LINE
  8
0
 10
13.152
 11
13.218
 20
58.765
 21
58.908
  0
LINE
  8
0
 10
13.218
 11
13.295
 20
58.908
 21
59.045
  0
LINE
  8
0
 10
13.295
 11
13.382
 20
59.045
 21
59.176
  0
LINE
  8
0
 10
13.382
 11
13.479
 20
59.176
 21
59.299
  0
LINE
  8
0
 10
13.479
 11
13.586
 20
59.299
 21
59.414
  0
LINE
  8
0
 10
13.586
 11
13.701
 20
59.414
 21
59.521
  0
LINE
  8
0
 10
13.701
 11
13.824
 20
59.521
 21
59.618
  0
LINE
  8
0
 10
13.824
 11
13.955
 20
59.618
 21
59.705
  0
LINE
  8
0
 10
13.955
 11
14.092
 20
59.705
 21
59.782
  0
LINE
  8
0
 10
14.092
 11
14.235
 20
59.782
 21
59.848
  0
LINE
  8
0
 10
14.235
 11
14.382
 20
59.848
 21
59.902
  0
LINE
  8
0
 10
14.382
 11
14.533
 20
59.902
 21
59.945
  0
LINE
  8
0
 10
14.533
 11
14.687
 20
59.945
 21
59.975
  0
LINE
  8
0
 10
14.687
 11
14.843
 20
59.975
 21
59.994
  0
LINE
  8
0
 10
14.843
 11
15
 20
59.994
 21
60
  0
LINE
  8
0
 10
15
 11
15.157
 20
60
 21
59.994
  0
LINE
  8
0
 10
15.157
 11
15.313
 20
59.994
 21
59.975
  0
LINE
  8
0
 10
15.313
 11
15.467
 20
59.975
 21
59.945
  0
LINE
  8
0
 10
15.467
 11
15.618
 20
59.945
 21
59.902
  0
LINE
  8
0
 10
15.618
 11
15.765
 20
59.902
 21
59.848
  0
LINE
  8
0
 10
15.765
 11
15.908
 20
59.848
 21
59.782
  0
LINE
  8
0
 10
15.908
 11
16.045
 20
59.782
 21
59.705
  0
LINE
  8
0
 10
16.045
 11
16.176
 20
59.705
 21
59.618
  0
LINE
  8
0
 10
16.176
 11
16.299
 20
59.618
 21
59.521
  0
LINE
  8
0
 10
16.299
 11
16.414
 20
59.521
 21
59.414
  0
LINE
  8
0
 10
16.414
 11
16.521
 20
59.414
 21
59.299
  0
LINE
  8
0
 10
16.521
 11
16.618
 20
59.299
 21
59.176
  0
LINE
  8
0
 10
16.618
 11
16.705
 20
59.176
 21
59.045
  0
LINE
  8
0
 10
16.705
 11
16.782
 20
59.045
 21
58.908
  0
LINE
  8
0
 10
16.782
 11
16.848
 20
58.908
 21
58.765
  0
LINE
  8
0
 10
16.848
 11
16.902
 20
58.765
 21
58.618
  0
LINE
  8
0
 10
16.902
 11
16.945
 20
58.618
 21
58.467
  0
LINE
  8
0
 10
16.945
 11
16.975
 20
58.467
 21
58.313
  0
LINE
  8
0
 10
16.975
 11
16.994
 20
58.313
 21
58.157
  0
LINE
  8
0
 10
16.994
 11
17
 20
58.157
 21
58
  0
LINE
  8
0
 10
17
 11
16.994
 20
58
 21
57.843
  0
LINE
  8
0
 10
16.994
 11
16.975
 20
57.843
 21
57.687
  0
LINE
  8
0
 10
16.975
 11
16.945
 20
57.687
 21
57.533
  0
LINE
  8
0
 10
16.945
 11
16.902
 20
57.533
 21
57.382
  0
LINE
  8
0
 10
16.902
 11
16.848
 20
57.382
 21
57.235
  0
LINE
  8
0
 10
16.848
 11
16.782
 20
57.235
 21
57.092
  0
LINE
  8
0
 10
16.782
 11
16.705
 20
57.092
 21
56.955
  0
LINE
  8
0
 10
16.705
 11
16.618
 20
56.955
 21
56.824
  0
LINE
  8
0
 10
16.618
 11
16.521
 20
56.824
 21
56.701
  0
LINE
  8
0
 10
16.521
 11
16.414
 20
56.701
 21
56.586
  0
LINE
  8
0
 10
16.414
 11
16.299
 20
56.586
 21
56.479
  0
LINE
  8
0
 10
16.299
 11
16.176
 20
56.479
 21
56.382
  0
LINE
  8
0
 10
16.176
 11
16.045
 20
56.382
 21
56.295
  0
LINE
  8
0
 10
16.045
 11
15.908
 20
56.295
 21
56.218
  0
LINE
  8
0
 10
15.908
 11
15.765
 20
56.218
 21
56.152
  0
LINE
  8
0
 10
15.765
 11
15.618
 20
56.152
 21
56.098
  0
LINE
  8
0
 10
15.618
 11
15.467
 20
56.098
 21
56.055
  0
LINE
  8
0
 10
15.467
 11
15.313
 20
56.055
 21
56.025
  0
LINE
  8
0
 10
15.313
 11
15.157
 20
56.025
 21
56.006
  0
LINE
  8
0
 10
15.157
 11
15
 20
56.006
 21
56
  0
LINE
  8
0
 10
15
 11
14.843
 20
56
 21
56.006
  0
LINE
  8
0
 10
14.843
 11
14.687
 20
56.006
 21
56.025
  0
LINE
  8
0
 10
14.687
 11
14.533
 20
56.025
 21
56.055
  0
LINE
  8
0
 10
14.533
 11
14.382
 20
56.055
 21
56.098
  0
LINE
  8
0
 10
14.382
 11
14.235
 20
56.098
 21
56.152
  0
LINE
  8
0
 10
14.235
 11
14.092
 20
56.152
 21
56.218
  0
LINE
  8
0
 10
14.092
 11
13.955
 20
56.218
 21
56.295
  0
LINE
  8
0
 10
13.955
 11
13.824
 20
56.295
 21
56.382
  0
LINE
  8
0
 10
13.824
 11
13.701
 20
56.382
 21
56.479
  0
LINE
  8
0
 10
13.701
 11
13.586
 20
56.479
 21
56.586
  0
LINE
  8
0
 10
13.586
 11
13.479
 20
56.586
 21
56.701
  0
LINE
  8
0
 10
13.479
 11
13.382
 20
56.701
 21
56.824
  0
LINE
  8
0
 10
13.382
 11
13.295
 20
56.824
 21
56.955
  0
LINE
  8
0
 10
13.295
 11
13.218
 20
56.955
 21
57.092
  0
LINE
  8
0
 10
13.218
 11
13.152
 20
57.092
 21
57.235
  0
LINE
  8
0
 10
13.152
 11
13.098
 20
57.235
 21
57.382
  0
LINE
  8
0
 10
13.098
 11
13.055
 20
57.382
 21
57.533
  0
LINE
  8
0
 10
13.055
 11
13.025
 20
57.533
 21
57.687
  0
LINE
  8
0
 10
13.025
 11
13.006
 20
57.687
 21
57.843
  0
LINE
  8
0
 10
13.006
 11
13
 20
57.843
 21
58
  0
LINE
  8
0
 10
34.5
 11
34.506
 20
16.5
 21
16.657
  0
LINE
  8
0
 10
34.506
 11
34.525
 20
16.657
 21
16.813
  0
LINE
  8
0
 10
34.525
 11
34.555
 20
16.813
 21
16.967
  0
LINE
  8
0
 10
34.555
 11
34.598
 20
16.967
 21
17.118
  0
LINE
  8
0
 10
34.598
 11
34.652
 20
17.118
 21
17.265
  0
LINE
  8
0
 10
34.652
 11
34.718
 20
17.265
 21
17.408
  0
LINE
  8
0
 10
34.718
 11
34.795
 20
17.408
 21
17.545
  0
LINE
  8
0
 10
34.795
 11
34.882
 20
17.545
 21
17.676
  0
LINE
  8
0
 10
34.882
 11
34.979
 20
17.676
 21
17.799
  0
LINE
  8
0
 10
34.979
 11
35.086
 20
17.799
 21
17.914
  0
LINE
  8
0
 10
35.086
 11
35.201
 20
17.914
 21
18.021
  0
LINE
  8
0
 10
35.201
 11
35.324
 20
18.021
 21
18.118
  0
LINE
  8
0
 10
35.324
 11
35.455
 20
18.118
 21
18.205
  0
LINE
  8
0
 10
35.455
 11
35.592
 20
18.205
 21
18.282
  0
LINE
  8
0
 10
35.592
 11
35.735
 20
18.282
 21
18.348
  0
LINE
  8
0
 10
35.735
 11
35.882
 20
18.348
 21
18.402
  0
LINE
  8
0
 10
35.882
 11
36.033
 20
18.402
 21
18.445
  0
LINE
  8
0
 10
36.033
 11
36.187
 20
18.445
 21
18.475
  0
LINE
  8
0
 10
36.187
 11
36.343
 20
18.475
 21
18.494
  0
LINE
  8
0
 10
36.343
 11
36.5
 20
18.494
 21
18.5
  0
LINE
  8
0
 10
36.5
 11
36.657
 20
18.5
 21
18.494
  0
LINE
  8
0
 10
36.657
 11
36.813
 20
18.494
 21
18.475
  0
LINE
  8
0
 10
36.813
 11
36.967
 20
18.475
 21
18.445
  0
LINE
  8
0
 10
36.967
 11
37.118
 20
18.445
 21
18.402
  0
LINE
  8
0
 10
37.118
 11
37.265
 20
18.402
 21
18.348
  0
LINE
  8
0
 10
37.265
 11
37.408
 20
18.348
 21
18.282
  0
LINE
  8
0
 10
37.408
 11
37.545
 20
18.282
 21
18.205
  0
LINE
  8
0
 10
37.545
 11
37.676
 20
18.205
 21
18.118
  0
LINE
  8
0
 10
37.676
 11
37.799
 20
18.118
 21
18.021
  0
LINE
  8
0
 10
37.799
 11
37.914
 20
18.021
 21
17.914
  0
LINE
  8
0
 10
37.914
 11
38.021
 20
17.914
 21
17.799
  0
LINE
  8
0
 10
38.021
 11
38.118
 20
17.799
 21
17.676
  0
LINE
  8
0
 10
38.118
 11
38.205
 20
17.676
 21
17.545
  0
LINE
  8
0
 10
38.205
 11
38.282
 20
17.545
 21
17.408
  0
LINE
  8
0
 10
38.282
 11
38.348
 20
17.408
 21
17.265
  0
LINE
  8
0
 10
38.348
 11
38.402
 20
17.265
 21
17.118
  0
LINE
  8
0
 10
38.402
 11
38.445
 20
17.118
 21
16.967
  0
LINE
  8
0
 10
38.445
 11
38.475
 20
16.967
 21
16.813
  0
LINE
  8
0
 10
38.475
 11
38.494
 20
16.813
 21
16.657
  0
LINE
  8
0
 10
38.494
 11
38.5
 20
16.657
 21
16.5
  0
LINE
  8
0
 10
38.5
 11
38.494
 20
16.5
 21
16.343
  0
LINE
  8
0
 10
38.494
 11
38.475
 20
16.343
 21
16.187
  0
LINE
  8
0
 10
38.475
 11
38.445
 20
16.187
 21
16.033
  0
LINE
  8
0
 10
38.445
 11
38.402
 20
16.033
 21
15.882
  0
LINE
  8
0
 10
38.402
 11
38.348
 20
15.882
 21
15.735
  0
LINE
  8
0
 10
38.348
 11
38.282
 20
15.735
 21
15.592
  0
LINE
  8
0
 10
38.282
 11
38.205
 20
15.592
 21
15.455
  0
LINE
  8
0
 10
38.205
 11
38.118
 20
15.455
 21
15.324
  0
LINE
  8
0
 10
38.118
 11
38.021
 20
15.324
 21
15.201
  0
LINE
  8
0
 10
38.021
 11
37.914
 20
15.201
 21
15.086
  0
LINE
  8
0
 10
37.914
 11
37.799
 20
15.086
 21
14.979
  0
LINE
  8
0
 10
37.799
 11
37.676
 20
14.979
 21
14.882
  0
LINE
  8
0
 10
37.676
 11
37.545
 20
14.882
 21
14.795
  0
LINE
  8
0
 10
37.545
 11
37.408
 20
14.795
 21
14.718
  0
LINE
  8
0
 10
37.408
 11
37.265
 20
14.718
 21
14.652
  0
LINE
  8
0
 10
37.265
 11
37.118
 20
14.652
 21
14.598
  0
LINE
  8
0
 10
37.118
 11
36.967
 20
14.598
 21
14.555
  0
LINE
  8
0
 10
36.967
 11
36.813
 20
14.555
 21
14.525
  0
LINE
  8
0
 10
36.813
 11
36.657
 20
14.525
 21
14.506
  0
LINE
  8
0
 10
36.657
 11
36.5
 20
14.506
 21
14.5
  0
LINE
  8
0
 10
36.5
 11
36.343
 20
14.5
 21
14.506
  0
LINE
  8
0
 10
36.343
 11
36.187
 20
14.506
 21
14.525
  0
LINE
  8
0
 10
36.187
 11
36.033
 20
14.525
 21
14.555
  0
LINE
  8
0
 10
36.033
 11
35.882
 20
14.555
 21
14.598
  0
LINE
  8
0
 10
35.882
 11
35.735
 20
14.598
 21
14.652
  0
LINE
  8
0
 10
35.735
 11
35.592
 20
14.652
 21
14.718
  0
LINE
  8
0
 10
35.592
 11
35.455
 20
14.718
 21
14.795
  0
LINE
  8
0
 10
35.455
 11
35.324
 20
14.795
 21
14.882
  0
LINE
  8
0
 10
35.324
 11
35.201
 20
14.882
 21
14.979
  0
LINE
  8
0
 10
35.201
 11
35.086
 20
14.979
 21
15.086
  0
LINE
  8
0
 10
35.086
 11
34.979
 20
15.086
 21
15.201
  0
LINE
  8
0
 10
34.979
 11
34.882
 20
15.201
 21
15.324
  0
LINE
  8
0
 10
34.882
 11
34.795
 20
15.324
 21
15.455
  0
LINE
  8
0
 10
34.795
 11
34.718
 20
15.455
 21
15.592
  0
LINE
  8
0
 10
34.718
 11
34.652
 20
15.592
 21
15.735
  0
LINE
  8
0
 10
34.652
 11
34.598
 20
15.735
 21
15.882
  0
LINE
  8
0
 10
34.598
 11
34.555
 20
15.882
 21
16.033
  0
LINE
  8
0
 10
34.555
 11
34.525
 20
16.033
 21
16.187
  0
LINE
  8
0
 10
34.525
 11
34.506
 20
16.187
 21
16.343
  0
LINE
  8
0
 10
34.506
 11
34.5
 20
16.343
 21
16.5
  0
LINE
  8
0
 10
34.5
 11
34.506
 20
47.5
 21
47.657
  0
LINE
  8
0
 10
34.506
 11
34.525
 20
47.657
 21
47.813
  0
LINE
  8
0
 10
34.525
 11
34.555
 20
47.813
 21
47.967
  0
LINE
  8
0
 10
34.555
 11
34.598
 20
47.967
 21
48.118
  0
LINE
  8
0
 10
34.598
 11
34.652
 20
48.118
 21
48.265
  0
LINE
  8
0
 10
34.652
 11
34.718
 20
48.265
 21
48.408
  0
LINE
  8
0
 10
34.718
 11
34.795
 20
48.408
 21
48.545
  0
LINE
  8
0
 10
34.795
 11
34.882
 20
48.545
 21
48.676
  0
LINE
  8
0
 10
34.882
 11
34.979
 20
48.676
 21
48.799
  0
LINE
  8
0
 10
34.979
 11
35.086
 20
48.799
 21
48.914
  0
LINE
  8
0
 10
35.086
 11
35.201
 20
48.914
 21
49.021
  0
LINE
  8
0
 10
35.201
 11
35.324
 20
49.021
 21
49.118
  0
LINE
  8
0
 10
35.324
 11
35.455
 20
49.118
 21
49.205
  0
LINE
  8
0
 10
35.455
 11
35.592
 20
49.205
 21
49.282
  0
LINE
  8
0
 10
35.592
 11
35.735
 20
49.282
 21
49.348
  0
LINE
  8
0
 10
35.735
 11
35.882
 20
49.348
 21
49.402
  0
LINE
  8
0
 10
35.882
 11
36.033
 20
49.402
 21
49.445
  0
LINE
  8
0
 10
36.033
 11
36.187
 20
49.445
 21
49.475
  0
LINE
  8
0
 10
36.187
 11
36.343
 20
49.475
 21
49.494
  0
LINE
  8
0
 10
36.343
 11
36.5
 20
49.494
 21
49.5
  0
LINE
  8
0
 10
36.5
 11
36.657
 20
49.5
 21
49.494
  0
LINE
  8
0
 10
36.657
 11
36.813
 20
49.494
 21
49.475
  0
LINE
  8
0
 10
36.813
 11
36.967
 20
49.475
 21
49.445
  0
LINE
  8
0
 10
36.967
 11
37.118
 20
49.445
 21
49.402
  0
LINE
  8
0
 10
37.118
 11
37.265
 20
49.402
 21
49.348
  0
LINE
  8
0
 10
37.265
 11
37.408
 20
49.348
 21
49.282
  0
LINE
  8
0
 10
37.408
 11
37.545
 20
49.282
 21
49.205
  0
LINE
  8
0
 10
37.545
 11
37.676
 20
49.205
 21
49.118
  0
LINE
  8
0
 10
37.676
 11
37.799
 20
49.118
 21
49.021
  0
LINE
  8
0
 10
37.799
 11
37.914
 20
49.021
 21
48.914
  0
LINE
  8
0
 10
37.914
 11
38.021
 20
48.914
 21
48.799
  0
LINE
  8
0
 10
38.021
 11
38.118
 20
48.799
 21
48.676
  0
LINE
  8
0
 10
38.118
 11
38.205
 20
48.676
 21
48.545
  0
LINE
  8
0
 10
38.205
 11
38.282
 20
48.545
 21
48.408
  0
LINE
  8
0
 10
38.282
 11
38.348
 20
48.408
 21
48.265
  0
LINE
  8
0
 10
38.348
 11
38.402
 20
48.265
 21
48.118
  0
LINE
  8
0
 10
38.402
 11
38.445
 20
48.118
 21
47.967
  0
LINE
  8
0
 10
38.445
 11
38.475
 20
47.967
 21
47.813
  0
LINE
  8
0
 10
38.475
 11
38.494
 20
47.813
 21
47.657
  0
LINE
  8
0
 10
38.494
 11
38.5
 20
47.657
 21
47.5
  0
LINE
  8
0
 10
38.5
 11
38.494
 20
47.5
 21
47.343
  0
LINE
  8
0
 10
38.494
 11
38.475
 20
47.343
 21
47.187
  0
LINE
  8
0
 10
38.475
 11
38.445
 20
47.187
 21
47.033
  0
LINE
  8
0
 10
38.445
 11
38.402
 20
47.033
 21
46.882
  0
LINE
  8
0
 10
38.402
 11
38.348
 20
46.882
 21
46.735
  0
LINE
  8
0
 10
38.348
 11
38.282
 20
46.735
 21
46.592
  0
LINE
  8
0
 10
38.282
 11
38.205
 20
46.592
 21
46.455
  0
LINE
  8
0
 10
38.205
 11
38.118
 20
46.455
 21
46.324
  0
LINE
  8
0
 10
38.118
 11
38.021
 20
46.324
 21
46.201
  0
LINE
  8
0
 10
38.021
 11
37.914
 20
46.201
 21
46.086
  0
LINE
  8
0
 10
37.914
 11
37.799
 20
46.086
 21
45.979
  0
LINE
  8
0
 10
37.799
 11
37.676
 20
45.979
 21
45.882
  0
LINE
  8
0
 10
37.676
 11
37.545
 20
45.882
 21
45.795
  0
LINE
  8
0
 10
37.545
 11
37.408
 20
45.795
 21
45.718
  0
LINE
  8
0
 10
37.408
 11
37.265
 20
45.718
 21
45.652
  0
LINE
  8
0
 10
37.265
 11
37.118
 20
45.652
 21
45.598
  0
LINE
  8
0
 10
37.118
 11
36.967
 20
45.598
 21
45.555
  0
LINE
  8
0
 10
36.967
 11
36.813
 20
45.555
 21
45.525
  0
LINE
  8
0
 10
36.813
 11
36.657
 20
45.525
 21
45.506
  0
LINE
  8
0
 10
36.657
 11
36.5
 20
45.506
 21
45.5
  0
LINE
  8
0
 10
36.5
 11
36.343
 20
45.5
 21
45.506
  0
LINE
  8
0
 10
36.343
 11
36.187
 20
45.506
 21
45.525
  0
LINE
  8
0
 10
36.187
 11
36.033
 20
45.525
 21
45.555
  0
LINE
  8
0
 10
36.033
 11
35.882
 20
45.555
 21
45.598
  0
LINE
  8
0
 10
35.882
 11
35.735
 20
45.598
 21
45.652
  0
LINE
  8
0
 10
35.735
 11
35.592
 20
45.652
 21
45.718
  0
LINE
  8
0
 10
35.592
 11
35.455
 20
45.718
 21
45.795
  0
LINE
  8
0
 10
35.455
 11
35.324
 20
45.795
 21
45.882
  0
LINE
  8
0
 10
35.324
 11
35.201
 20
45.882
 21
45.979
  0
LINE
  8
0
 10
35.201
 11
35.086
 20
45.979
 21
46.086
  0
LINE
  8
0
 10
35.086
 11
34.979
 20
46.086
 21
46.201
  0
LINE
  8
0
 10
34.979
 11
34.882
 20
46.201
 21
46.324
  0
LINE
  8
0
 10
34.882
 11
34.795
 20
46.324
 21
46.455
  0
LINE
  8
0
 10
34.795
 11
34.718
 20
46.455
 21
46.592
  0
LINE
  8
0
 10
34.718
 11
34.652
 20
46.592
 21
46.735
  0
LINE
  8
0
 10
34.652
 11
34.598
 20
46.735
 21
46.882
  0
LINE
  8
0
 10
34.598
 11
34.555
 20
46.882
 21
47.033
  0
LINE
  8
0
 10
34.555
 11
34.525
 20
47.033
 21
47.187
  0
LINE
  8
0
 10
34.525
 11
34.506
 20
47.187
 21
47.343
  0
LINE
  8
0
 10
34.506
 11
34.5
 20
47.343
 21
47.5
  0
LINE
  8
0
 10
43
 11
43.006
 20
32
 21
32.157
  0
LINE
  8
0
 10
43.006
 11
43.025
 20
32.157
 21
32.313
  0
LINE
  8
0
 10
43.025
 11
43.055
 20
32.313
 21
32.467
  0
LINE
  8
0
 10
43.055
 11
43.098
 20
32.467
 21
32.618
  0
LINE
  8
0
 10
43.098
 11
43.152
 20
32.618
 21
32.765
  0
LINE
  8
0
 10
43.152
 11
43.218
 20
32.765
 21
32.908
  0
LINE
  8
0
 10
43.218
 11
43.295
 20
32.908
 21
33.045
  0
LINE
  8
0
 10
43.295
 11
43.382
 20
33.045
 21
33.176
  0
LINE
  8
0
 10
43.382
 11
43.479
 20
33.176
 21
33.299
  0
LINE
  8
0
 10
43.479
 11
43.586
 20
33.299
 21
33.414
  0
LINE
  8
0
 10
43.586
 11
43.701
 20
33.414
 21
33.521
  0
LINE
  8
0
 10
43.701
 11
43.824
 20
33.521
 21
33.618
  0
LINE
  8
0
 10
43.824
 11
43.955
 20
33.618
 21
33.705
  0
LINE
  8
0
 10
43.955
 11
44.092
 20
33.705
 21
33.782
  0
LINE
  8
0
 10
44.092
 11
44.235
 20
33.782
 21
33.848
  0
LINE
  8
0
 10
44.235
 11
44.382
 20
33.848
 21
33.902
  0
LINE
  8
0
 10
44.382
 11
44.533
 20
33.902
 21
33.945
  0
LINE
  8
0
 10
44.533
 11
44.687
 20
33.945
 21
33.975
  0
LINE
  8
0
 10
44.687
 11
44.843
 20
33.975
 21
33.994
  0
LINE
  8
0
 10
44.843
 11
45
 20
33.994
 21
34
  0
LINE
  8
0
 10
45
 11
45.157
 20
34
 21
33.994
  0
LINE
  8
0
 10
45.157
 11
45.313
 20
33.994
 21
33.975
  0
LINE
  8
0
 10
45.313
 11
45.467
 20
33.975
 21
33.945
  0
LINE
  8
0
 10
45.467
 11
45.618
 20
33.945
 21
33.902
  0
LINE
  8
0
 10
45.618
 11
45.765
 20
33.902
 21
33.848
  0
LINE
  8
0
 10
45.765
 11
45.908
 20
33.848
 21
33.782
  0
LINE
  8
0
 10
45.908
 11
46.045
 20
33.782
 21
33.705
  0
LINE
  8
0
 10
46.045
 11
46.176
 20
33.705
 21
33.618
  0
LINE
  8
0
 10
46.176
 11
46.299
 20
33.618
 21
33.521
  0
LINE
  8
0
 10
46.299
 11
46.414
 20
33.521
 21
33.414
  0
LINE
  8
0
 10
46.414
 11
46.521
 20
33.414
 21
33.299
  0
LINE
  8
0
 10
46.521
 11
46.618
 20
33.299
 21
33.176
  0
LINE
  8
0
 10
46.618
 11
46.705
 20
33.176
 21
33.045
  0
LINE
  8
0
 10
46.705
 11
46.782
 20
33.045
 21
32.908
  0
LINE
  8
0
 10
46.782
 11
46.848
 20
32.908
 21
32.765
  0
LINE
  8
0
 10
46.848
 11
46.902
 20
32.765
 21
32.618
  0
LINE
  8
0
 10
46.902
 11
46.945
 20
32.618
 21
32.467
  0
LINE
  8
0
 10
46.945
 11
46.975
 20
32.467
 21
32.313
  0
LINE
  8
0
 10
46.975
 11
46.994
 20
32.313
 21
32.157
  0
LINE
  8
0
 10
46.994
 11
47
 20
32.157
 21
32
  0
LINE
  8
0
 10
47
 11
46.994
 20
32
 21
31.843
  0
LINE
  8
0
 10
46.994
 11
46.975
 20
31.843
 21
31.687
  0
LINE
  8
0
 10
46.975
 11
46.945
 20
31.687
 21
31.533
  0
LINE
  8
0
 10
46.945
 11
46.902
 20
31.533
 21
31.382
  0
LINE
  8
0
 10
46.902
 11
46.848
 20
31.382
 21
31.235
  0
LINE
  8
0
 10
46.848
 11
46.782
 20
31.235
 21
31.092
  0
LINE
  8
0
 10
46.782
 11
46.705
 20
31.092
 21
30.955
  0
LINE
  8
0
 10
46.705
 11
46.618
 20
30.955
 21
30.824
  0
LINE
  8
0
 10
46.618
 11
46.521
 20
30.824
 21
30.701
  0
LINE
  8
0
 10
46.521
 11
46.414
 20
30.701
 21
30.586
  0
LINE
  8
0
 10
46.414
 11
46.299
 20
30.586
 21
30.479
  0
LINE
  8
0
 10
46.299
 11
46.176
 20
30.479
 21
30.382
  0
LINE
  8
0
 10
46.176
 11
46.045
 20
30.382
 21
30.295
  0
LINE
  8
0
 10
46.045
 11
45.908
 20
30.295
 21
30.218
  0
LINE
  8
0
 10
45.908
 11
45.765
 20
30.218
 21
30.152
  0
LINE
  8
0
 10
45.765
 11
45.618
 20
30.152
 21
30.098
  0
LINE
  8
0
 10
45.618
 11
45.467
 20
30.098
 21
30.055
  0
LINE
  8
0
 10
45.467
 11
45.313
 20
30.055
 21
30.025
  0
LINE
  8
0
 10
45.313
 11
45.157
 20
30.025
 21
30.006
  0
LINE
  8
0
 10
45.157
 11
45
 20
30.006
 21
30
  0
LINE
  8
0
 10
45
 11
44.843
 20
30
 21
30.006
  0
LINE
  8
0
 10
44.843
 11
44.687
 20
30.006
 21
30.025
  0
LINE
  8
0
 10
44.687
 11
44.533
 20
30.025
 21
30.055
  0
LINE
  8
0
 10
44.533
 11
44.382
 20
30.055
 21
30.098
  0
LINE
  8
0
 10
44.382
 11
44.235
 20
30.098
 21
30.152
  0
LINE
  8
0
 10
44.235
 11
44.092
 20
30.152
 21
30.218
  0
LINE
  8
0
 10
44.092
 11
43.955
 20
30.218
 21
30.295
  0
LINE
  8
0
 10
43.955
 11
43.824
 20
30.295
 21
30.382
  0
LINE
  8
0
 10
43.824
 11
43.701
 20
30.382
 21
30.479
  0
LINE
  8
0
 10
43.701
 11
43.586
 20
30.479
 21
30.586
  0
LINE
  8
0
 10
43.586
 11
43.479
 20
30.586
 21
30.701
  0
LINE
  8
0
 10
43.479
 11
43.382
 20
30.701
 21
30.824
  0
LINE
  8
0
 10
43.382
 11
43.295
 20
30.824
 21
30.955
  0
LINE
  8
0
 10
43.295
 11
43.218
 20
30.955
 21
31.092
  0
LINE
  8
0
 10
43.218
 11
43.152
 20
31.092
 21
31.235
  0
LINE
  8
0
 10
43.152
 11
43.098
 20
31.235
 21
31.382
  0
LINE
  8
0
 10
43.098
 11
43.055
 20
31.382
 21
31.533
  0
LINE
  8
0
 10
43.055
 11
43.025
 20
31.533
 21
31.687
  0
LINE
  8
0
 10
43.025
 11
43.006
 20
31.687
 21
31.843
  0
LINE
  8
0
 10
43.006
 11
43
 20
31.843
 21
32
  0
ENDSEC
  0
SECTION
  2
OBJECTS
  0
DICTIONARY
  0
ENDSEC
  0
EOF
