  0
SECTION
  2
BLOCKS
  0
ENDSEC
  0
SECTION
  2
ENTITIES
  0
LINE
  8
0
 10
0
 20
0
 11
169
 21
0
  0
LINE
  8
0
 10
169
 20
0
 11
169
 21
64
  0
LINE
  8
0
 10
169
 20
64
 11
0
 21
64
  0
LINE
  8
0
 10
0
 20
64
 11
0
 21
0
  0
LINE
  8
0
 10
2.43
 20
12
 11
2.47395
 21
12.5585
  0
LINE
  8
0
 10
2.47395
 20
12.5585
 11
2.60473
 21
13.1032
  0
LINE
  8
0
 10
2.60473
 20
13.1032
 11
2.81911
 21
13.6207
  0
LINE
  8
0
 10
2.81911
 20
13.6207
 11
3.11181
 21
14.0984
  0
LINE
  8
0
 10
3.11181
 20
14.0984
 11
3.47563
 21
14.5244
  0
LINE
  8
0
 10
3.47563
 20
14.5244
 11
3.90161
 21
14.8882
  0
LINE
  8
0
 10
3.90161
 20
14.8882
 11
4.37925
 21
15.1809
  0
LINE
  8
0
 10
4.37925
 20
15.1809
 11
4.89681
 21
15.3953
  0
LINE
  8
0
 10
4.89681
 20
15.3953
 11
5.44153
 21
15.526
  0
LINE
  8
0
 10
5.44153
 20
15.526
 11
6
 21
15.57
  0
LINE
  8
0
 10
6
 20
15.57
 11
6.55847
 21
15.526
  0
LINE
  8
0
 10
6.55847
 20
15.526
 11
7.10319
 21
15.3953
  0
LINE
  8
0
 10
7.10319
 20
15.3953
 11
7.62075
 21
15.1809
  0
LINE
  8
0
 10
7.62075
 20
15.1809
 11
8.09839
 21
14.8882
  0
LINE
  8
0
 10
8.09839
 20
14.8882
 11
8.52437
 21
14.5244
  0
LINE
  8
0
 10
8.52437
 20
14.5244
 11
8.88819
 21
14.0984
  0
LINE
  8
0
 10
8.88819
 20
14.0984
 11
9.18089
 21
13.6207
  0
LINE
  8
0
 10
9.18089
 20
13.6207
 11
9.39527
 21
13.1032
  0
LINE
  8
0
 10
9.39527
 20
13.1032
 11
9.52605
 21
12.5585
  0
LINE
  8
0
 10
9.52605
 20
12.5585
 11
9.57
 21
12
  0
LINE
  8
0
 10
9.57
 20
12
 11
9.52605
 21
11.4415
  0
LINE
  8
0
 10
9.52605
 20
11.4415
 11
9.39527
 21
10.8968
  0
LINE
  8
0
 10
9.39527
 20
10.8968
 11
9.18089
 21
10.3793
  0
LINE
  8
0
 10
9.18089
 20
10.3793
 11
8.88819
 21
9.90161
  0
LINE
  8
0
 10
8.88819
 20
9.90161
 11
8.52437
 21
9.47563
  0
LINE
  8
0
 10
8.52437
 20
9.47563
 11
8.09839
 21
9.11181
  0
LINE
  8
0
 10
8.09839
 20
9.11181
 11
7.62075
 21
8.81911
  0
LINE
  8
0
 10
7.62075
 20
8.81911
 11
7.10319
 21
8.60473
  0
LINE
  8
0
 10
7.10319
 20
8.60473
 11
6.55847
 21
8.47395
  0
LINE
  8
0
 10
6.55847
 20
8.47395
 11
6
 21
8.43
  0
LINE
  8
0
 10
6
 20
8.43
 11
5.44153
 21
8.47395
  0
LINE
  8
0
 10
5.44153
 20
8.47395
 11
4.89681
 21
8.60473
  0
LINE
  8
0
 10
4.89681
 20
8.60473
 11
4.37925
 21
8.81911
  0
LINE
  8
0
 10
4.37925
 20
8.81911
 11
3.90161
 21
9.11181
  0
LINE
  8
0
 10
3.90161
 20
9.11181
 11
3.47563
 21
9.47563
  0
LINE
  8
0
 10
3.47563
 20
9.47563
 11
3.11181
 21
9.90161
  0
LINE
  8
0
 10
3.11181
 20
9.90161
 11
2.81911
 21
10.3793
  0
LINE
  8
0
 10
2.81911
 20
10.3793
 11
2.60473
 21
10.8968
  0
LINE
  8
0
 10
2.60473
 20
10.8968
 11
2.47395
 21
11.4415
  0
LINE
  8
0
 10
2.47395
 20
11.4415
 11
2.43
 21
12
  0
LINE
  8
0
 10
2.43
 20
58
 11
2.47395
 21
58.5585
  0
LINE
  8
0
 10
2.47395
 20
58.5585
 11
2.60473
 21
59.1032
  0
LINE
  8
0
 10
2.60473
 20
59.1032
 11
2.81911
 21
59.6207
  0
LINE
  8
0
 10
2.81911
 20
59.6207
 11
3.11181
 21
60.0984
  0
LINE
  8
0
 10
3.11181
 20
60.0984
 11
3.47563
 21
60.5244
  0
LINE
  8
0
 10
3.47563
 20
60.5244
 11
3.90161
 21
60.8882
  0
LINE
  8
0
 10
3.90161
 20
60.8882
 11
4.37925
 21
61.1809
  0
LINE
  8
0
 10
4.37925
 20
61.1809
 11
4.89681
 21
61.3953
  0
LINE
  8
0
 10
4.89681
 20
61.3953
 11
5.44153
 21
61.526
  0
LINE
  8
0
 10
5.44153
 20
61.526
 11
6
 21
61.57
  0
LINE
  8
0
 10
6
 20
61.57
 11
6.55847
 21
61.526
  0
LINE
  8
0
 10
6.55847
 20
61.526
 11
7.10319
 21
61.3953
  0
LINE
  8
0
 10
7.10319
 20
61.3953
 11
7.62075
 21
61.1809
  0
LINE
  8
0
 10
7.62075
 20
61.1809
 11
8.09839
 21
60.8882
  0
LINE
  8
0
 10
8.09839
 20
60.8882
 11
8.52437
 21
60.5244
  0
LINE
  8
0
 10
8.52437
 20
60.5244
 11
8.88819
 21
60.0984
  0
LINE
  8
0
 10
8.88819
 20
60.0984
 11
9.18089
 21
59.6207
  0
LINE
  8
0
 10
9.18089
 20
59.6207
 11
9.39527
 21
59.1032
  0
LINE
  8
0
 10
9.39527
 20
59.1032
 11
9.52605
 21
58.5585
  0
LINE
  8
0
 10
9.52605
 20
58.5585
 11
9.57
 21
58
  0
LINE
  8
0
 10
9.57
 20
58
 11
9.52605
 21
57.4415
  0
LINE
  8
0
 10
9.52605
 20
57.4415
 11
9.39527
 21
56.8968
  0
LINE
  8
0
 10
9.39527
 20
56.8968
 11
9.18089
 21
56.3793
  0
LINE
  8
0
 10
9.18089
 20
56.3793
 11
8.88819
 21
55.9016
  0
LINE
  8
0
 10
8.88819
 20
55.9016
 11
8.52437
 21
55.4756
  0
LINE
  8
0
 10
8.52437
 20
55.4756
 11
8.09839
 21
55.1118
  0
LINE
  8
0
 10
8.09839
 20
55.1118
 11
7.62075
 21
54.8191
  0
LINE
  8
0
 10
7.62075
 20
54.8191
 11
7.10319
 21
54.6047
  0
LINE
  8
0
 10
7.10319
 20
54.6047
 11
6.55847
 21
54.474
  0
LINE
  8
0
 10
6.55847
 20
54.474
 11
6
 21
54.43
  0
LINE
  8
0
 10
6
 20
54.43
 11
5.44153
 21
54.474
  0
LINE
  8
0
 10
5.44153
 20
54.474
 11
4.89681
 21
54.6047
  0
LINE
  8
0
 10
4.89681
 20
54.6047
 11
4.37925
 21
54.8191
  0
LINE
  8
0
 10
4.37925
 20
54.8191
 11
3.90161
 21
55.1118
  0
LINE
  8
0
 10
3.90161
 20
55.1118
 11
3.47563
 21
55.4756
  0
LINE
  8
0
 10
3.47563
 20
55.4756
 11
3.11181
 21
55.9016
  0
LINE
  8
0
 10
3.11181
 20
55.9016
 11
2.81911
 21
56.3793
  0
LINE
  8
0
 10
2.81911
 20
56.3793
 11
2.60473
 21
56.8968
  0
LINE
  8
0
 10
2.60473
 20
56.8968
 11
2.47395
 21
57.4415
  0
LINE
  8
0
 10
2.47395
 20
57.4415
 11
2.43
 21
58
  0
LINE
  8
0
 10
16.43
 20
57.7
 11
16.474
 21
58.2585
  0
LINE
  8
0
 10
16.474
 20
58.2585
 11
16.6047
 21
58.8032
  0
LINE
  8
0
 10
16.6047
 20
58.8032
 11
16.8191
 21
59.3207
  0
LINE
  8
0
 10
16.8191
 20
59.3207
 11
17.1118
 21
59.7984
  0
LINE
  8
0
 10
17.1118
 20
59.7984
 11
17.4756
 21
60.2244
  0
LINE
  8
0
 10
17.4756
 20
60.2244
 11
17.9016
 21
60.5882
  0
LINE
  8
0
 10
17.9016
 20
60.5882
 11
18.3793
 21
60.8809
  0
LINE
  8
0
 10
18.3793
 20
60.8809
 11
18.8968
 21
61.0953
  0
LINE
  8
0
 10
18.8968
 20
61.0953
 11
19.4415
 21
61.226
  0
LINE
  8
0
 10
19.4415
 20
61.226
 11
20
 21
61.27
  0
LINE
  8
0
 10
20
 20
61.27
 11
20.5585
 21
61.226
  0
LINE
  8
0
 10
20.5585
 20
61.226
 11
21.1032
 21
61.0953
  0
LINE
  8
0
 10
21.1032
 20
61.0953
 11
21.6207
 21
60.8809
  0
LINE
  8
0
 10
21.6207
 20
60.8809
 11
22.0984
 21
60.5882
  0
LINE
  8
0
 10
22.0984
 20
60.5882
 11
22.5244
 21
60.2244
  0
LINE
  8
0
 10
22.5244
 20
60.2244
 11
22.8882
 21
59.7984
  0
LINE
  8
0
 10
22.8882
 20
59.7984
 11
23.1809
 21
59.3207
  0
LINE
  8
0
 10
23.1809
 20
59.3207
 11
23.3953
 21
58.8032
  0
LINE
  8
0
 10
23.3953
 20
58.8032
 11
23.526
 21
58.2585
  0
LINE
  8
0
 10
23.526
 20
58.2585
 11
23.57
 21
57.7
  0
LINE
  8
0
 10
23.57
 20
57.7
 11
23.526
 21
57.1415
  0
LINE
  8
0
 10
23.526
 20
57.1415
 11
23.3953
 21
56.5968
  0
LINE
  8
0
 10
23.3953
 20
56.5968
 11
23.1809
 21
56.0793
  0
LINE
  8
0
 10
23.1809
 20
56.0793
 11
22.8882
 21
55.6016
  0
LINE
  8
0
 10
22.8882
 20
55.6016
 11
22.5244
 21
55.1756
  0
LINE
  8
0
 10
22.5244
 20
55.1756
 11
22.0984
 21
54.8118
  0
LINE
  8
0
 10
22.0984
 20
54.8118
 11
21.6207
 21
54.5191
  0
LINE
  8
0
 10
21.6207
 20
54.5191
 11
21.1032
 21
54.3047
  0
LINE
  8
0
 10
21.1032
 20
54.3047
 11
20.5585
 21
54.174
  0
LINE
  8
0
 10
20.5585
 20
54.174
 11
20
 21
54.13
  0
LINE
  8
0
 10
20
 20
54.13
 11
19.4415
 21
54.174
  0
LINE
  8
0
 10
19.4415
 20
54.174
 11
18.8968
 21
54.3047
  0
LINE
  8
0
 10
18.8968
 20
54.3047
 11
18.3793
 21
54.5191
  0
LINE
  8
0
 10
18.3793
 20
54.5191
 11
17.9016
 21
54.8118
  0
LINE
  8
0
 10
17.9016
 20
54.8118
 11
17.4756
 21
55.1756
  0
LINE
  8
0
 10
17.4756
 20
55.1756
 11
17.1118
 21
55.6016
  0
LINE
  8
0
 10
17.1118
 20
55.6016
 11
16.8191
 21
56.0793
  0
LINE
  8
0
 10
16.8191
 20
56.0793
 11
16.6047
 21
56.5968
  0
LINE
  8
0
 10
16.6047
 20
56.5968
 11
16.474
 21
57.1415
  0
LINE
  8
0
 10
16.474
 20
57.1415
 11
16.43
 21
57.7
  0
LINE
  8
0
 10
17.5
 20
6.3
 11
17.5308
 21
6.69109
  0
LINE
  8
0
 10
17.5308
 20
6.69109
 11
17.6224
 21
7.07254
  0
LINE
  8
0
 10
17.6224
 20
7.07254
 11
17.7725
 21
7.43498
  0
LINE
  8
0
 10
17.7725
 20
7.43498
 11
17.9775
 21
7.76946
  0
LINE
  8
0
 10
17.9775
 20
7.76946
 11
18.2322
 21
8.06777
  0
LINE
  8
0
 10
18.2322
 20
8.06777
 11
18.5305
 21
8.32254
  0
LINE
  8
0
 10
18.5305
 20
8.32254
 11
18.865
 21
8.52752
  0
LINE
  8
0
 10
18.865
 20
8.52752
 11
19.2275
 21
8.67764
  0
LINE
  8
0
 10
19.2275
 20
8.67764
 11
19.6089
 21
8.76922
  0
LINE
  8
0
 10
19.6089
 20
8.76922
 11
20
 21
8.8
  0
LINE
  8
0
 10
20
 20
8.8
 11
20.3911
 21
8.76922
  0
LINE
  8
0
 10
20.3911
 20
8.76922
 11
20.7725
 21
8.67764
  0
LINE
  8
0
 10
20.7725
 20
8.67764
 11
21.135
 21
8.52752
  0
LINE
  8
0
 10
21.135
 20
8.52752
 11
21.4695
 21
8.32254
  0
LINE
  8
0
 10
21.4695
 20
8.32254
 11
21.7678
 21
8.06777
  0
LINE
  8
0
 10
21.7678
 20
8.06777
 11
22.0225
 21
7.76946
  0
LINE
  8
0
 10
22.0225
 20
7.76946
 11
22.2275
 21
7.43498
  0
LINE
  8
0
 10
22.2275
 20
7.43498
 11
22.3776
 21
7.07254
  0
LINE
  8
0
 10
22.3776
 20
7.07254
 11
22.4692
 21
6.69109
  0
LINE
  8
0
 10
22.4692
 20
6.69109
 11
22.5
 21
6.3
  0
LINE
  8
0
 10
22.5
 20
6.3
 11
22.4692
 21
5.90891
  0
LINE
  8
0
 10
22.4692
 20
5.90891
 11
22.3776
 21
5.52746
  0
LINE
  8
0
 10
22.3776
 20
5.52746
 11
22.2275
 21
5.16502
  0
LINE
  8
0
 10
22.2275
 20
5.16502
 11
22.0225
 21
4.83054
  0
LINE
  8
0
 10
22.0225
 20
4.83054
 11
21.7678
 21
4.53223
  0
LINE
  8
0
 10
21.7678
 20
4.53223
 11
21.4695
 21
4.27746
  0
LINE
  8
0
 10
21.4695
 20
4.27746
 11
21.135
 21
4.07248
  0
LINE
  8
0
 10
21.135
 20
4.07248
 11
20.7725
 21
3.92236
  0
LINE
  8
0
 10
20.7725
 20
3.92236
 11
20.3911
 21
3.83078
  0
LINE
  8
0
 10
20.3911
 20
3.83078
 11
20
 21
3.8
  0
LINE
  8
0
 10
20
 20
3.8
 11
19.6089
 21
3.83078
  0
LINE
  8
0
 10
19.6089
 20
3.83078
 11
19.2275
 21
3.92236
  0
LINE
  8
0
 10
19.2275
 20
3.92236
 11
18.865
 21
4.07248
  0
LINE
  8
0
 10
18.865
 20
4.07248
 11
18.5305
 21
4.27746
  0
LINE
  8
0
 10
18.5305
 20
4.27746
 11
18.2322
 21
4.53223
  0
LINE
  8
0
 10
18.2322
 20
4.53223
 11
17.9775
 21
4.83054
  0
LINE
  8
0
 10
17.9775
 20
4.83054
 11
17.7725
 21
5.16502
  0
LINE
  8
0
 10
17.7725
 20
5.16502
 11
17.6224
 21
5.52746
  0
LINE
  8
0
 10
17.6224
 20
5.52746
 11
17.5308
 21
5.90891
  0
LINE
  8
0
 10
17.5308
 20
5.90891
 11
17.5
 21
6.3
  0
LINE
  8
0
 10
49.43
 20
57.7
 11
49.474
 21
58.2585
  0
LINE
  8
0
 10
49.474
 20
58.2585
 11
49.6047
 21
58.8032
  0
LINE
  8
0
 10
49.6047
 20
58.8032
 11
49.8191
 21
59.3207
  0
LINE
  8
0
 10
49.8191
 20
59.3207
 11
50.1118
 21
59.7984
  0
LINE
  8
0
 10
50.1118
 20
59.7984
 11
50.4756
 21
60.2244
  0
LINE
  8
0
 10
50.4756
 20
60.2244
 11
50.9016
 21
60.5882
  0
LINE
  8
0
 10
50.9016
 20
60.5882
 11
51.3793
 21
60.8809
  0
LINE
  8
0
 10
51.3793
 20
60.8809
 11
51.8968
 21
61.0953
  0
LINE
  8
0
 10
51.8968
 20
61.0953
 11
52.4415
 21
61.226
  0
LINE
  8
0
 10
52.4415
 20
61.226
 11
53
 21
61.27
  0
LINE
  8
0
 10
53
 20
61.27
 11
53.5585
 21
61.226
  0
LINE
  8
0
 10
53.5585
 20
61.226
 11
54.1032
 21
61.0953
  0
LINE
  8
0
 10
54.1032
 20
61.0953
 11
54.6207
 21
60.8809
  0
LINE
  8
0
 10
54.6207
 20
60.8809
 11
55.0984
 21
60.5882
  0
LINE
  8
0
 10
55.0984
 20
60.5882
 11
55.5244
 21
60.2244
  0
LINE
  8
0
 10
55.5244
 20
60.2244
 11
55.8882
 21
59.7984
  0
LINE
  8
0
 10
55.8882
 20
59.7984
 11
56.1809
 21
59.3207
  0
LINE
  8
0
 10
56.1809
 20
59.3207
 11
56.3953
 21
58.8032
  0
LINE
  8
0
 10
56.3953
 20
58.8032
 11
56.526
 21
58.2585
  0
LINE
  8
0
 10
56.526
 20
58.2585
 11
56.57
 21
57.7
  0
LINE
  8
0
 10
56.57
 20
57.7
 11
56.526
 21
57.1415
  0
LINE
  8
0
 10
56.526
 20
57.1415
 11
56.3953
 21
56.5968
  0
LINE
  8
0
 10
56.3953
 20
56.5968
 11
56.1809
 21
56.0793
  0
LINE
  8
0
 10
56.1809
 20
56.0793
 11
55.8882
 21
55.6016
  0
LINE
  8
0
 10
55.8882
 20
55.6016
 11
55.5244
 21
55.1756
  0
LINE
  8
0
 10
55.5244
 20
55.1756
 11
55.0984
 21
54.8118
  0
LINE
  8
0
 10
55.0984
 20
54.8118
 11
54.6207
 21
54.5191
  0
LINE
  8
0
 10
54.6207
 20
54.5191
 11
54.1032
 21
54.3047
  0
LINE
  8
0
 10
54.1032
 20
54.3047
 11
53.5585
 21
54.174
  0
LINE
  8
0
 10
53.5585
 20
54.174
 11
53
 21
54.13
  0
LINE
  8
0
 10
53
 20
54.13
 11
52.4415
 21
54.174
  0
LINE
  8
0
 10
52.4415
 20
54.174
 11
51.8968
 21
54.3047
  0
LINE
  8
0
 10
51.8968
 20
54.3047
 11
51.3793
 21
54.5191
  0
LINE
  8
0
 10
51.3793
 20
54.5191
 11
50.9016
 21
54.8118
  0
LINE
  8
0
 10
50.9016
 20
54.8118
 11
50.4756
 21
55.1756
  0
LINE
  8
0
 10
50.4756
 20
55.1756
 11
50.1118
 21
55.6016
  0
LINE
  8
0
 10
50.1118
 20
55.6016
 11
49.8191
 21
56.0793
  0
LINE
  8
0
 10
49.8191
 20
56.0793
 11
49.6047
 21
56.5968
  0
LINE
  8
0
 10
49.6047
 20
56.5968
 11
49.474
 21
57.1415
  0
LINE
  8
0
 10
49.474
 20
57.1415
 11
49.43
 21
57.7
  0
LINE
  8
0
 10
50.5
 20
6.3
 11
50.5308
 21
6.69109
  0
LINE
  8
0
 10
50.5308
 20
6.69109
 11
50.6224
 21
7.07254
  0
LINE
  8
0
 10
50.6224
 20
7.07254
 11
50.7725
 21
7.43498
  0
LINE
  8
0
 10
50.7725
 20
7.43498
 11
50.9775
 21
7.76946
  0
LINE
  8
0
 10
50.9775
 20
7.76946
 11
51.2322
 21
8.06777
  0
LINE
  8
0
 10
51.2322
 20
8.06777
 11
51.5305
 21
8.32254
  0
LINE
  8
0
 10
51.5305
 20
8.32254
 11
51.865
 21
8.52752
  0
LINE
  8
0
 10
51.865
 20
8.52752
 11
52.2275
 21
8.67764
  0
LINE
  8
0
 10
52.2275
 20
8.67764
 11
52.6089
 21
8.76922
  0
LINE
  8
0
 10
52.6089
 20
8.76922
 11
53
 21
8.8
  0
LINE
  8
0
 10
53
 20
8.8
 11
53.3911
 21
8.76922
  0
LINE
  8
0
 10
53.3911
 20
8.76922
 11
53.7725
 21
8.67764
  0
LINE
  8
0
 10
53.7725
 20
8.67764
 11
54.135
 21
8.52752
  0
LINE
  8
0
 10
54.135
 20
8.52752
 11
54.4695
 21
8.32254
  0
LINE
  8
0
 10
54.4695
 20
8.32254
 11
54.7678
 21
8.06777
  0
LINE
  8
0
 10
54.7678
 20
8.06777
 11
55.0225
 21
7.76946
  0
LINE
  8
0
 10
55.0225
 20
7.76946
 11
55.2275
 21
7.43498
  0
LINE
  8
0
 10
55.2275
 20
7.43498
 11
55.3776
 21
7.07254
  0
LINE
  8
0
 10
55.3776
 20
7.07254
 11
55.4692
 21
6.69109
  0
LINE
  8
0
 10
55.4692
 20
6.69109
 11
55.5
 21
6.3
  0
LINE
  8
0
 10
55.5
 20
6.3
 11
55.4692
 21
5.90891
  0
LINE
  8
0
 10
55.4692
 20
5.90891
 11
55.3776
 21
5.52746
  0
LINE
  8
0
 10
55.3776
 20
5.52746
 11
55.2275
 21
5.16502
  0
LINE
  8
0
 10
55.2275
 20
5.16502
 11
55.0225
 21
4.83054
  0
LINE
  8
0
 10
55.0225
 20
4.83054
 11
54.7678
 21
4.53223
  0
LINE
  8
0
 10
54.7678
 20
4.53223
 11
54.4695
 21
4.27746
  0
LINE
  8
0
 10
54.4695
 20
4.27746
 11
54.135
 21
4.07248
  0
LINE
  8
0
 10
54.135
 20
4.07248
 11
53.7725
 21
3.92236
  0
LINE
  8
0
 10
53.7725
 20
3.92236
 11
53.3911
 21
3.83078
  0
LINE
  8
0
 10
53.3911
 20
3.83078
 11
53
 21
3.8
  0
LINE
  8
0
 10
53
 20
3.8
 11
52.6089
 21
3.83078
  0
LINE
  8
0
 10
52.6089
 20
3.83078
 11
52.2275
 21
3.92236
  0
LINE
  8
0
 10
52.2275
 20
3.92236
 11
51.865
 21
4.07248
  0
LINE
  8
0
 10
51.865
 20
4.07248
 11
51.5305
 21
4.27746
  0
LINE
  8
0
 10
51.5305
 20
4.27746
 11
51.2322
 21
4.53223
  0
LINE
  8
0
 10
51.2322
 20
4.53223
 11
50.9775
 21
4.83054
  0
LINE
  8
0
 10
50.9775
 20
4.83054
 11
50.7725
 21
5.16502
  0
LINE
  8
0
 10
50.7725
 20
5.16502
 11
50.6224
 21
5.52746
  0
LINE
  8
0
 10
50.6224
 20
5.52746
 11
50.5308
 21
5.90891
  0
LINE
  8
0
 10
50.5308
 20
5.90891
 11
50.5
 21
6.3
  0
LINE
  8
0
 10
63.5
 20
6
 11
63.5308
 21
6.39109
  0
LINE
  8
0
 10
63.5308
 20
6.39109
 11
63.6224
 21
6.77254
  0
LINE
  8
0
 10
63.6224
 20
6.77254
 11
63.7725
 21
7.13498
  0
LINE
  8
0
 10
63.7725
 20
7.13498
 11
63.9775
 21
7.46946
  0
LINE
  8
0
 10
63.9775
 20
7.46946
 11
64.2322
 21
7.76777
  0
LINE
  8
0
 10
64.2322
 20
7.76777
 11
64.5305
 21
8.02254
  0
LINE
  8
0
 10
64.5305
 20
8.02254
 11
64.865
 21
8.22752
  0
LINE
  8
0
 10
64.865
 20
8.22752
 11
65.2275
 21
8.37764
  0
LINE
  8
0
 10
65.2275
 20
8.37764
 11
65.6089
 21
8.46922
  0
LINE
  8
0
 10
65.6089
 20
8.46922
 11
66
 21
8.5
  0
LINE
  8
0
 10
66
 20
8.5
 11
66.3911
 21
8.46922
  0
LINE
  8
0
 10
66.3911
 20
8.46922
 11
66.7725
 21
8.37764
  0
LINE
  8
0
 10
66.7725
 20
8.37764
 11
67.135
 21
8.22752
  0
LINE
  8
0
 10
67.135
 20
8.22752
 11
67.4695
 21
8.02254
  0
LINE
  8
0
 10
67.4695
 20
8.02254
 11
67.7678
 21
7.76777
  0
LINE
  8
0
 10
67.7678
 20
7.76777
 11
68.0225
 21
7.46946
  0
LINE
  8
0
 10
68.0225
 20
7.46946
 11
68.2275
 21
7.13498
  0
LINE
  8
0
 10
68.2275
 20
7.13498
 11
68.3776
 21
6.77254
  0
LINE
  8
0
 10
68.3776
 20
6.77254
 11
68.4692
 21
6.39109
  0
LINE
  8
0
 10
68.4692
 20
6.39109
 11
68.5
 21
6
  0
LINE
  8
0
 10
68.5
 20
6
 11
68.4692
 21
5.60891
  0
LINE
  8
0
 10
68.4692
 20
5.60891
 11
68.3776
 21
5.22746
  0
LINE
  8
0
 10
68.3776
 20
5.22746
 11
68.2275
 21
4.86502
  0
LINE
  8
0
 10
68.2275
 20
4.86502
 11
68.0225
 21
4.53054
  0
LINE
  8
0
 10
68.0225
 20
4.53054
 11
67.7678
 21
4.23223
  0
LINE
  8
0
 10
67.7678
 20
4.23223
 11
67.4695
 21
3.97746
  0
LINE
  8
0
 10
67.4695
 20
3.97746
 11
67.135
 21
3.77248
  0
LINE
  8
0
 10
67.135
 20
3.77248
 11
66.7725
 21
3.62236
  0
LINE
  8
0
 10
66.7725
 20
3.62236
 11
66.3911
 21
3.53078
  0
LINE
  8
0
 10
66.3911
 20
3.53078
 11
66
 21
3.5
  0
LINE
  8
0
 10
66
 20
3.5
 11
65.6089
 21
3.53078
  0
LINE
  8
0
 10
65.6089
 20
3.53078
 11
65.2275
 21
3.62236
  0
LINE
  8
0
 10
65.2275
 20
3.62236
 11
64.865
 21
3.77248
  0
LINE
  8
0
 10
64.865
 20
3.77248
 11
64.5305
 21
3.97746
  0
LINE
  8
0
 10
64.5305
 20
3.97746
 11
64.2322
 21
4.23223
  0
LINE
  8
0
 10
64.2322
 20
4.23223
 11
63.9775
 21
4.53054
  0
LINE
  8
0
 10
63.9775
 20
4.53054
 11
63.7725
 21
4.86502
  0
LINE
  8
0
 10
63.7725
 20
4.86502
 11
63.6224
 21
5.22746
  0
LINE
  8
0
 10
63.6224
 20
5.22746
 11
63.5308
 21
5.60891
  0
LINE
  8
0
 10
63.5308
 20
5.60891
 11
63.5
 21
6
  0
LINE
  8
0
 10
63.5
 20
58
 11
63.5308
 21
58.3911
  0
LINE
  8
0
 10
63.5308
 20
58.3911
 11
63.6224
 21
58.7725
  0
LINE
  8
0
 10
63.6224
 20
58.7725
 11
63.7725
 21
59.135
  0
LINE
  8
0
 10
63.7725
 20
59.135
 11
63.9775
 21
59.4695
  0
LINE
  8
0
 10
63.9775
 20
59.4695
 11
64.2322
 21
59.7678
  0
LINE
  8
0
 10
64.2322
 20
59.7678
 11
64.5305
 21
60.0225
  0
LINE
  8
0
 10
64.5305
 20
60.0225
 11
64.865
 21
60.2275
  0
LINE
  8
0
 10
64.865
 20
60.2275
 11
65.2275
 21
60.3776
  0
LINE
  8
0
 10
65.2275
 20
60.3776
 11
65.6089
 21
60.4692
  0
LINE
  8
0
 10
65.6089
 20
60.4692
 11
66
 21
60.5
  0
LINE
  8
0
 10
66
 20
60.5
 11
66.3911
 21
60.4692
  0
LINE
  8
0
 10
66.3911
 20
60.4692
 11
66.7725
 21
60.3776
  0
LINE
  8
0
 10
66.7725
 20
60.3776
 11
67.135
 21
60.2275
  0
LINE
  8
0
 10
67.135
 20
60.2275
 11
67.4695
 21
60.0225
  0
LINE
  8
0
 10
67.4695
 20
60.0225
 11
67.7678
 21
59.7678
  0
LINE
  8
0
 10
67.7678
 20
59.7678
 11
68.0225
 21
59.4695
  0
LINE
  8
0
 10
68.0225
 20
59.4695
 11
68.2275
 21
59.135
  0
LINE
  8
0
 10
68.2275
 20
59.135
 11
68.3776
 21
58.7725
  0
LINE
  8
0
 10
68.3776
 20
58.7725
 11
68.4692
 21
58.3911
  0
LINE
  8
0
 10
68.4692
 20
58.3911
 11
68.5
 21
58
  0
LINE
  8
0
 10
68.5
 20
58
 11
68.4692
 21
57.6089
  0
LINE
  8
0
 10
68.4692
 20
57.6089
 11
68.3776
 21
57.2275
  0
LINE
  8
0
 10
68.3776
 20
57.2275
 11
68.2275
 21
56.865
  0
LINE
  8
0
 10
68.2275
 20
56.865
 11
68.0225
 21
56.5305
  0
LINE
  8
0
 10
68.0225
 20
56.5305
 11
67.7678
 21
56.2322
  0
LINE
  8
0
 10
67.7678
 20
56.2322
 11
67.4695
 21
55.9775
  0
LINE
  8
0
 10
67.4695
 20
55.9775
 11
67.135
 21
55.7725
  0
LINE
  8
0
 10
67.135
 20
55.7725
 11
66.7725
 21
55.6224
  0
LINE
  8
0
 10
66.7725
 20
55.6224
 11
66.3911
 21
55.5308
  0
LINE
  8
0
 10
66.3911
 20
55.5308
 11
66
 21
55.5
  0
LINE
  8
0
 10
66
 20
55.5
 11
65.6089
 21
55.5308
  0
LINE
  8
0
 10
65.6089
 20
55.5308
 11
65.2275
 21
55.6224
  0
LINE
  8
0
 10
65.2275
 20
55.6224
 11
64.865
 21
55.7725
  0
LINE
  8
0
 10
64.865
 20
55.7725
 11
64.5305
 21
55.9775
  0
LINE
  8
0
 10
64.5305
 20
55.9775
 11
64.2322
 21
56.2322
  0
LINE
  8
0
 10
64.2322
 20
56.2322
 11
63.9775
 21
56.5305
  0
LINE
  8
0
 10
63.9775
 20
56.5305
 11
63.7725
 21
56.865
  0
LINE
  8
0
 10
63.7725
 20
56.865
 11
63.6224
 21
57.2275
  0
LINE
  8
0
 10
63.6224
 20
57.2275
 11
63.5308
 21
57.6089
  0
LINE
  8
0
 10
63.5308
 20
57.6089
 11
63.5
 21
58
  0
LINE
  8
0
 10
82.43
 20
57.7
 11
82.474
 21
58.2585
  0
LINE
  8
0
 10
82.474
 20
58.2585
 11
82.6047
 21
58.8032
  0
LINE
  8
0
 10
82.6047
 20
58.8032
 11
82.8191
 21
59.3207
  0
LINE
  8
0
 10
82.8191
 20
59.3207
 11
83.1118
 21
59.7984
  0
LINE
  8
0
 10
83.1118
 20
59.7984
 11
83.4756
 21
60.2244
  0
LINE
  8
0
 10
83.4756
 20
60.2244
 11
83.9016
 21
60.5882
  0
LINE
  8
0
 10
83.9016
 20
60.5882
 11
84.3793
 21
60.8809
  0
LINE
  8
0
 10
84.3793
 20
60.8809
 11
84.8968
 21
61.0953
  0
LINE
  8
0
 10
84.8968
 20
61.0953
 11
85.4415
 21
61.226
  0
LINE
  8
0
 10
85.4415
 20
61.226
 11
86
 21
61.27
  0
LINE
  8
0
 10
86
 20
61.27
 11
86.5585
 21
61.226
  0
LINE
  8
0
 10
86.5585
 20
61.226
 11
87.1032
 21
61.0953
  0
LINE
  8
0
 10
87.1032
 20
61.0953
 11
87.6207
 21
60.8809
  0
LINE
  8
0
 10
87.6207
 20
60.8809
 11
88.0984
 21
60.5882
  0
LINE
  8
0
 10
88.0984
 20
60.5882
 11
88.5244
 21
60.2244
  0
LINE
  8
0
 10
88.5244
 20
60.2244
 11
88.8882
 21
59.7984
  0
LINE
  8
0
 10
88.8882
 20
59.7984
 11
89.1809
 21
59.3207
  0
LINE
  8
0
 10
89.1809
 20
59.3207
 11
89.3953
 21
58.8032
  0
LINE
  8
0
 10
89.3953
 20
58.8032
 11
89.526
 21
58.2585
  0
LINE
  8
0
 10
89.526
 20
58.2585
 11
89.57
 21
57.7
  0
LINE
  8
0
 10
89.57
 20
57.7
 11
89.526
 21
57.1415
  0
LINE
  8
0
 10
89.526
 20
57.1415
 11
89.3953
 21
56.5968
  0
LINE
  8
0
 10
89.3953
 20
56.5968
 11
89.1809
 21
56.0793
  0
LINE
  8
0
 10
89.1809
 20
56.0793
 11
88.8882
 21
55.6016
  0
LINE
  8
0
 10
88.8882
 20
55.6016
 11
88.5244
 21
55.1756
  0
LINE
  8
0
 10
88.5244
 20
55.1756
 11
88.0984
 21
54.8118
  0
LINE
  8
0
 10
88.0984
 20
54.8118
 11
87.6207
 21
54.5191
  0
LINE
  8
0
 10
87.6207
 20
54.5191
 11
87.1032
 21
54.3047
  0
LINE
  8
0
 10
87.1032
 20
54.3047
 11
86.5585
 21
54.174
  0
LINE
  8
0
 10
86.5585
 20
54.174
 11
86
 21
54.13
  0
LINE
  8
0
 10
86
 20
54.13
 11
85.4415
 21
54.174
  0
LINE
  8
0
 10
85.4415
 20
54.174
 11
84.8968
 21
54.3047
  0
LINE
  8
0
 10
84.8968
 20
54.3047
 11
84.3793
 21
54.5191
  0
LINE
  8
0
 10
84.3793
 20
54.5191
 11
83.9016
 21
54.8118
  0
LINE
  8
0
 10
83.9016
 20
54.8118
 11
83.4756
 21
55.1756
  0
LINE
  8
0
 10
83.4756
 20
55.1756
 11
83.1118
 21
55.6016
  0
LINE
  8
0
 10
83.1118
 20
55.6016
 11
82.8191
 21
56.0793
  0
LINE
  8
0
 10
82.8191
 20
56.0793
 11
82.6047
 21
56.5968
  0
LINE
  8
0
 10
82.6047
 20
56.5968
 11
82.474
 21
57.1415
  0
LINE
  8
0
 10
82.474
 20
57.1415
 11
82.43
 21
57.7
  0
LINE
  8
0
 10
83.5
 20
6.3
 11
83.5308
 21
6.69109
  0
LINE
  8
0
 10
83.5308
 20
6.69109
 11
83.6224
 21
7.07254
  0
LINE
  8
0
 10
83.6224
 20
7.07254
 11
83.7725
 21
7.43498
  0
LINE
  8
0
 10
83.7725
 20
7.43498
 11
83.9775
 21
7.76946
  0
LINE
  8
0
 10
83.9775
 20
7.76946
 11
84.2322
 21
8.06777
  0
LINE
  8
0
 10
84.2322
 20
8.06777
 11
84.5305
 21
8.32254
  0
LINE
  8
0
 10
84.5305
 20
8.32254
 11
84.865
 21
8.52752
  0
LINE
  8
0
 10
84.865
 20
8.52752
 11
85.2275
 21
8.67764
  0
LINE
  8
0
 10
85.2275
 20
8.67764
 11
85.6089
 21
8.76922
  0
LINE
  8
0
 10
85.6089
 20
8.76922
 11
86
 21
8.8
  0
LINE
  8
0
 10
86
 20
8.8
 11
86.3911
 21
8.76922
  0
LINE
  8
0
 10
86.3911
 20
8.76922
 11
86.7725
 21
8.67764
  0
LINE
  8
0
 10
86.7725
 20
8.67764
 11
87.135
 21
8.52752
  0
LINE
  8
0
 10
87.135
 20
8.52752
 11
87.4695
 21
8.32254
  0
LINE
  8
0
 10
87.4695
 20
8.32254
 11
87.7678
 21
8.06777
  0
LINE
  8
0
 10
87.7678
 20
8.06777
 11
88.0225
 21
7.76946
  0
LINE
  8
0
 10
88.0225
 20
7.76946
 11
88.2275
 21
7.43498
  0
LINE
  8
0
 10
88.2275
 20
7.43498
 11
88.3776
 21
7.07254
  0
LINE
  8
0
 10
88.3776
 20
7.07254
 11
88.4692
 21
6.69109
  0
LINE
  8
0
 10
88.4692
 20
6.69109
 11
88.5
 21
6.3
  0
LINE
  8
0
 10
88.5
 20
6.3
 11
88.4692
 21
5.90891
  0
LINE
  8
0
 10
88.4692
 20
5.90891
 11
88.3776
 21
5.52746
  0
LINE
  8
0
 10
88.3776
 20
5.52746
 11
88.2275
 21
5.16502
  0
LINE
  8
0
 10
88.2275
 20
5.16502
 11
88.0225
 21
4.83054
  0
LINE
  8
0
 10
88.0225
 20
4.83054
 11
87.7678
 21
4.53223
  0
LINE
  8
0
 10
87.7678
 20
4.53223
 11
87.4695
 21
4.27746
  0
LINE
  8
0
 10
87.4695
 20
4.27746
 11
87.135
 21
4.07248
  0
LINE
  8
0
 10
87.135
 20
4.07248
 11
86.7725
 21
3.92236
  0
LINE
  8
0
 10
86.7725
 20
3.92236
 11
86.3911
 21
3.83078
  0
LINE
  8
0
 10
86.3911
 20
3.83078
 11
86
 21
3.8
  0
LINE
  8
0
 10
86
 20
3.8
 11
85.6089
 21
3.83078
  0
LINE
  8
0
 10
85.6089
 20
3.83078
 11
85.2275
 21
3.92236
  0
LINE
  8
0
 10
85.2275
 20
3.92236
 11
84.865
 21
4.07248
  0
LINE
  8
0
 10
84.865
 20
4.07248
 11
84.5305
 21
4.27746
  0
LINE
  8
0
 10
84.5305
 20
4.27746
 11
84.2322
 21
4.53223
  0
LINE
  8
0
 10
84.2322
 20
4.53223
 11
83.9775
 21
4.83054
  0
LINE
  8
0
 10
83.9775
 20
4.83054
 11
83.7725
 21
5.16502
  0
LINE
  8
0
 10
83.7725
 20
5.16502
 11
83.6224
 21
5.52746
  0
LINE
  8
0
 10
83.6224
 20
5.52746
 11
83.5308
 21
5.90891
  0
LINE
  8
0
 10
83.5308
 20
5.90891
 11
83.5
 21
6.3
  0
LINE
  8
0
 10
93.5
 20
32
 11
93.5308
 21
32.3911
  0
LINE
  8
0
 10
93.5308
 20
32.3911
 11
93.6224
 21
32.7725
  0
LINE
  8
0
 10
93.6224
 20
32.7725
 11
93.7725
 21
33.135
  0
LINE
  8
0
 10
93.7725
 20
33.135
 11
93.9775
 21
33.4695
  0
LINE
  8
0
 10
93.9775
 20
33.4695
 11
94.2322
 21
33.7678
  0
LINE
  8
0
 10
94.2322
 20
33.7678
 11
94.5305
 21
34.0225
  0
LINE
  8
0
 10
94.5305
 20
34.0225
 11
94.865
 21
34.2275
  0
LINE
  8
0
 10
94.865
 20
34.2275
 11
95.2275
 21
34.3776
  0
LINE
  8
0
 10
95.2275
 20
34.3776
 11
95.6089
 21
34.4692
  0
LINE
  8
0
 10
95.6089
 20
34.4692
 11
96
 21
34.5
  0
LINE
  8
0
 10
96
 20
34.5
 11
96.3911
 21
34.4692
  0
LINE
  8
0
 10
96.3911
 20
34.4692
 11
96.7725
 21
34.3776
  0
LINE
  8
0
 10
96.7725
 20
34.3776
 11
97.135
 21
34.2275
  0
LINE
  8
0
 10
97.135
 20
34.2275
 11
97.4695
 21
34.0225
  0
LINE
  8
0
 10
97.4695
 20
34.0225
 11
97.7678
 21
33.7678
  0
LINE
  8
0
 10
97.7678
 20
33.7678
 11
98.0225
 21
33.4695
  0
LINE
  8
0
 10
98.0225
 20
33.4695
 11
98.2275
 21
33.135
  0
LINE
  8
0
 10
98.2275
 20
33.135
 11
98.3776
 21
32.7725
  0
LINE
  8
0
 10
98.3776
 20
32.7725
 11
98.4692
 21
32.3911
  0
LINE
  8
0
 10
98.4692
 20
32.3911
 11
98.5
 21
32
  0
LINE
  8
0
 10
98.5
 20
32
 11
98.4692
 21
31.6089
  0
LINE
  8
0
 10
98.4692
 20
31.6089
 11
98.3776
 21
31.2275
  0
LINE
  8
0
 10
98.3776
 20
31.2275
 11
98.2275
 21
30.865
  0
LINE
  8
0
 10
98.2275
 20
30.865
 11
98.0225
 21
30.5305
  0
LINE
  8
0
 10
98.0225
 20
30.5305
 11
97.7678
 21
30.2322
  0
LINE
  8
0
 10
97.7678
 20
30.2322
 11
97.4695
 21
29.9775
  0
LINE
  8
0
 10
97.4695
 20
29.9775
 11
97.135
 21
29.7725
  0
LINE
  8
0
 10
97.135
 20
29.7725
 11
96.7725
 21
29.6224
  0
LINE
  8
0
 10
96.7725
 20
29.6224
 11
96.3911
 21
29.5308
  0
LINE
  8
0
 10
96.3911
 20
29.5308
 11
96
 21
29.5
  0
LINE
  8
0
 10
96
 20
29.5
 11
95.6089
 21
29.5308
  0
LINE
  8
0
 10
95.6089
 20
29.5308
 11
95.2275
 21
29.6224
  0
LINE
  8
0
 10
95.2275
 20
29.6224
 11
94.865
 21
29.7725
  0
LINE
  8
0
 10
94.865
 20
29.7725
 11
94.5305
 21
29.9775
  0
LINE
  8
0
 10
94.5305
 20
29.9775
 11
94.2322
 21
30.2322
  0
LINE
  8
0
 10
94.2322
 20
30.2322
 11
93.9775
 21
30.5305
  0
LINE
  8
0
 10
93.9775
 20
30.5305
 11
93.7725
 21
30.865
  0
LINE
  8
0
 10
93.7725
 20
30.865
 11
93.6224
 21
31.2275
  0
LINE
  8
0
 10
93.6224
 20
31.2275
 11
93.5308
 21
31.6089
  0
LINE
  8
0
 10
93.5308
 20
31.6089
 11
93.5
 21
32
  0
LINE
  8
0
 10
151.9
 20
17
 11
151.926
 21
17.3285
  0
LINE
  8
0
 10
151.926
 20
17.3285
 11
152.003
 21
17.6489
  0
LINE
  8
0
 10
152.003
 20
17.6489
 11
152.129
 21
17.9534
  0
LINE
  8
0
 10
152.129
 20
17.9534
 11
152.301
 21
18.2343
  0
LINE
  8
0
 10
152.301
 20
18.2343
 11
152.515
 21
18.4849
  0
LINE
  8
0
 10
152.515
 20
18.4849
 11
152.766
 21
18.6989
  0
LINE
  8
0
 10
152.766
 20
18.6989
 11
153.047
 21
18.8711
  0
LINE
  8
0
 10
153.047
 20
18.8711
 11
153.351
 21
18.9972
  0
LINE
  8
0
 10
153.351
 20
18.9972
 11
153.671
 21
19.0741
  0
LINE
  8
0
 10
153.671
 20
19.0741
 11
154
 21
19.1
  0
LINE
  8
0
 10
154
 20
19.1
 11
154.329
 21
19.0741
  0
LINE
  8
0
 10
154.329
 20
19.0741
 11
154.649
 21
18.9972
  0
LINE
  8
0
 10
154.649
 20
18.9972
 11
154.953
 21
18.8711
  0
LINE
  8
0
 10
154.953
 20
18.8711
 11
155.234
 21
18.6989
  0
LINE
  8
0
 10
155.234
 20
18.6989
 11
155.485
 21
18.4849
  0
LINE
  8
0
 10
155.485
 20
18.4849
 11
155.699
 21
18.2343
  0
LINE
  8
0
 10
155.699
 20
18.2343
 11
155.871
 21
17.9534
  0
LINE
  8
0
 10
155.871
 20
17.9534
 11
155.997
 21
17.6489
  0
LINE
  8
0
 10
155.997
 20
17.6489
 11
156.074
 21
17.3285
  0
LINE
  8
0
 10
156.074
 20
17.3285
 11
156.1
 21
17
  0
LINE
  8
0
 10
156.1
 20
17
 11
156.074
 21
16.6715
  0
LINE
  8
0
 10
156.074
 20
16.6715
 11
155.997
 21
16.3511
  0
LINE
  8
0
 10
155.997
 20
16.3511
 11
155.871
 21
16.0466
  0
LINE
  8
0
 10
155.871
 20
16.0466
 11
155.699
 21
15.7657
  0
LINE
  8
0
 10
155.699
 20
15.7657
 11
155.485
 21
15.5151
  0
LINE
  8
0
 10
155.485
 20
15.5151
 11
155.234
 21
15.3011
  0
LINE
  8
0
 10
155.234
 20
15.3011
 11
154.953
 21
15.1289
  0
LINE
  8
0
 10
154.953
 20
15.1289
 11
154.649
 21
15.0028
  0
LINE
  8
0
 10
154.649
 20
15.0028
 11
154.329
 21
14.9259
  0
LINE
  8
0
 10
154.329
 20
14.9259
 11
154
 21
14.9
  0
LINE
  8
0
 10
154
 20
14.9
 11
153.671
 21
14.9259
  0
LINE
  8
0
 10
153.671
 20
14.9259
 11
153.351
 21
15.0028
  0
LINE
  8
0
 10
153.351
 20
15.0028
 11
153.047
 21
15.1289
  0
LINE
  8
0
 10
153.047
 20
15.1289
 11
152.766
 21
15.3011
  0
LINE
  8
0
 10
152.766
 20
15.3011
 11
152.515
 21
15.5151
  0
LINE
  8
0
 10
152.515
 20
15.5151
 11
152.301
 21
15.7657
  0
LINE
  8
0
 10
152.301
 20
15.7657
 11
152.129
 21
16.0466
  0
LINE
  8
0
 10
152.129
 20
16.0466
 11
152.003
 21
16.3511
  0
LINE
  8
0
 10
152.003
 20
16.3511
 11
151.926
 21
16.6715
  0
LINE
  8
0
 10
151.926
 20
16.6715
 11
151.9
 21
17
  0
LINE
  8
0
 10
151.9
 20
47
 11
151.926
 21
47.3285
  0
LINE
  8
0
 10
151.926
 20
47.3285
 11
152.003
 21
47.6489
  0
LINE
  8
0
 10
152.003
 20
47.6489
 11
152.129
 21
47.9534
  0
LINE
  8
0
 10
152.129
 20
47.9534
 11
152.301
 21
48.2343
  0
LINE
  8
0
 10
152.301
 20
48.2343
 11
152.515
 21
48.4849
  0
LINE
  8
0
 10
152.515
 20
48.4849
 11
152.766
 21
48.6989
  0
LINE
  8
0
 10
152.766
 20
48.6989
 11
153.047
 21
48.8711
  0
LINE
  8
0
 10
153.047
 20
48.8711
 11
153.351
 21
48.9972
  0
LINE
  8
0
 10
153.351
 20
48.9972
 11
153.671
 21
49.0741
  0
LINE
  8
0
 10
153.671
 20
49.0741
 11
154
 21
49.1
  0
LINE
  8
0
 10
154
 20
49.1
 11
154.329
 21
49.0741
  0
LINE
  8
0
 10
154.329
 20
49.0741
 11
154.649
 21
48.9972
  0
LINE
  8
0
 10
154.649
 20
48.9972
 11
154.953
 21
48.8711
  0
LINE
  8
0
 10
154.953
 20
48.8711
 11
155.234
 21
48.6989
  0
LINE
  8
0
 10
155.234
 20
48.6989
 11
155.485
 21
48.4849
  0
LINE
  8
0
 10
155.485
 20
48.4849
 11
155.699
 21
48.2343
  0
LINE
  8
0
 10
155.699
 20
48.2343
 11
155.871
 21
47.9534
  0
LINE
  8
0
 10
155.871
 20
47.9534
 11
155.997
 21
47.6489
  0
LINE
  8
0
 10
155.997
 20
47.6489
 11
156.074
 21
47.3285
  0
LINE
  8
0
 10
156.074
 20
47.3285
 11
156.1
 21
47
  0
LINE
  8
0
 10
156.1
 20
47
 11
156.074
 21
46.6715
  0
LINE
  8
0
 10
156.074
 20
46.6715
 11
155.997
 21
46.3511
  0
LINE
  8
0
 10
155.997
 20
46.3511
 11
155.871
 21
46.0466
  0
LINE
  8
0
 10
155.871
 20
46.0466
 11
155.699
 21
45.7657
  0
LINE
  8
0
 10
155.699
 20
45.7657
 11
155.485
 21
45.5151
  0
LINE
  8
0
 10
155.485
 20
45.5151
 11
155.234
 21
45.3011
  0
LINE
  8
0
 10
155.234
 20
45.3011
 11
154.953
 21
45.1289
  0
LINE
  8
0
 10
154.953
 20
45.1289
 11
154.649
 21
45.0028
  0
LINE
  8
0
 10
154.649
 20
45.0028
 11
154.329
 21
44.9259
  0
LINE
  8
0
 10
154.329
 20
44.9259
 11
154
 21
44.9
  0
LINE
  8
0
 10
154
 20
44.9
 11
153.671
 21
44.9259
  0
LINE
  8
0
 10
153.671
 20
44.9259
 11
153.351
 21
45.0028
  0
LINE
  8
0
 10
153.351
 20
45.0028
 11
153.047
 21
45.1289
  0
LINE
  8
0
 10
153.047
 20
45.1289
 11
152.766
 21
45.3011
  0
LINE
  8
0
 10
152.766
 20
45.3011
 11
152.515
 21
45.5151
  0
LINE
  8
0
 10
152.515
 20
45.5151
 11
152.301
 21
45.7657
  0
LINE
  8
0
 10
152.301
 20
45.7657
 11
152.129
 21
46.0466
  0
LINE
  8
0
 10
152.129
 20
46.0466
 11
152.003
 21
46.3511
  0
LINE
  8
0
 10
152.003
 20
46.3511
 11
151.926
 21
46.6715
  0
LINE
  8
0
 10
151.926
 20
46.6715
 11
151.9
 21
47
  0
LINE
  8
0
 10
153.05
 20
2
 11
153.065
 21
2.18772
  0
LINE
  8
0
 10
153.065
 20
2.18772
 11
153.109
 21
2.37082
  0
LINE
  8
0
 10
153.109
 20
2.37082
 11
153.181
 21
2.54479
  0
LINE
  8
0
 10
153.181
 20
2.54479
 11
153.279
 21
2.70534
  0
LINE
  8
0
 10
153.279
 20
2.70534
 11
153.401
 21
2.84853
  0
LINE
  8
0
 10
153.401
 20
2.84853
 11
153.545
 21
2.97082
  0
LINE
  8
0
 10
153.545
 20
2.97082
 11
153.705
 21
3.06921
  0
LINE
  8
0
 10
153.705
 20
3.06921
 11
153.879
 21
3.14127
  0
LINE
  8
0
 10
153.879
 20
3.14127
 11
154.062
 21
3.18523
  0
LINE
  8
0
 10
154.062
 20
3.18523
 11
154.25
 21
3.2
  0
LINE
  8
0
 10
154.25
 20
3.2
 11
154.438
 21
3.18523
  0
LINE
  8
0
 10
154.438
 20
3.18523
 11
154.621
 21
3.14127
  0
LINE
  8
0
 10
154.621
 20
3.14127
 11
154.795
 21
3.06921
  0
LINE
  8
0
 10
154.795
 20
3.06921
 11
154.955
 21
2.97082
  0
LINE
  8
0
 10
154.955
 20
2.97082
 11
155.099
 21
2.84853
  0
LINE
  8
0
 10
155.099
 20
2.84853
 11
155.221
 21
2.70534
  0
LINE
  8
0
 10
155.221
 20
2.70534
 11
155.319
 21
2.54479
  0
LINE
  8
0
 10
155.319
 20
2.54479
 11
155.391
 21
2.37082
  0
LINE
  8
0
 10
155.391
 20
2.37082
 11
155.435
 21
2.18772
  0
LINE
  8
0
 10
155.435
 20
2.18772
 11
155.45
 21
2
  0
LINE
  8
0
 10
155.45
 20
2
 11
155.435
 21
1.81228
  0
LINE
  8
0
 10
155.435
 20
1.81228
 11
155.391
 21
1.62918
  0
LINE
  8
0
 10
155.391
 20
1.62918
 11
155.319
 21
1.45521
  0
LINE
  8
0
 10
155.319
 20
1.45521
 11
155.221
 21
1.29466
  0
LINE
  8
0
 10
155.221
 20
1.29466
 11
155.099
 21
1.15147
  0
LINE
  8
0
 10
155.099
 20
1.15147
 11
154.955
 21
1.02918
  0
LINE
  8
0
 10
154.955
 20
1.02918
 11
154.795
 21
0.930793
  0
LINE
  8
0
 10
154.795
 20
0.930793
 11
154.621
 21
0.858732
  0
LINE
  8
0
 10
154.621
 20
0.858732
 11
154.438
 21
0.814775
  0
LINE
  8
0
 10
154.438
 20
0.814775
 11
154.25
 21
0.8
  0
LINE
  8
0
 10
154.25
 20
0.8
 11
154.062
 21
0.814775
  0
LINE
  8
0
 10
154.062
 20
0.814775
 11
153.879
 21
0.858732
  0
LINE
  8
0
 10
153.879
 20
0.858732
 11
153.705
 21
0.930793
  0
LINE
  8
0
 10
153.705
 20
0.930793
 11
153.545
 21
1.02918
  0
LINE
  8
0
 10
153.545
 20
1.02918
 11
153.401
 21
1.15147
  0
LINE
  8
0
 10
153.401
 20
1.15147
 11
153.279
 21
1.29466
  0
LINE
  8
0
 10
153.279
 20
1.29466
 11
153.181
 21
1.45521
  0
LINE
  8
0
 10
153.181
 20
1.45521
 11
153.109
 21
1.62918
  0
LINE
  8
0
 10
153.109
 20
1.62918
 11
153.065
 21
1.81228
  0
LINE
  8
0
 10
153.065
 20
1.81228
 11
153.05
 21
2
  0
LINE
  8
0
 10
162.55
 20
2
 11
162.565
 21
2.18772
  0
LINE
  8
0
 10
162.565
 20
2.18772
 11
162.609
 21
2.37082
  0
LINE
  8
0
 10
162.609
 20
2.37082
 11
162.681
 21
2.54479
  0
LINE
  8
0
 10
162.681
 20
2.54479
 11
162.779
 21
2.70534
  0
LINE
  8
0
 10
162.779
 20
2.70534
 11
162.901
 21
2.84853
  0
LINE
  8
0
 10
162.901
 20
2.84853
 11
163.045
 21
2.97082
  0
LINE
  8
0
 10
163.045
 20
2.97082
 11
163.205
 21
3.06921
  0
LINE
  8
0
 10
163.205
 20
3.06921
 11
163.379
 21
3.14127
  0
LINE
  8
0
 10
163.379
 20
3.14127
 11
163.562
 21
3.18523
  0
LINE
  8
0
 10
163.562
 20
3.18523
 11
163.75
 21
3.2
  0
LINE
  8
0
 10
163.75
 20
3.2
 11
163.938
 21
3.18523
  0
LINE
  8
0
 10
163.938
 20
3.18523
 11
164.121
 21
3.14127
  0
LINE
  8
0
 10
164.121
 20
3.14127
 11
164.295
 21
3.06921
  0
LINE
  8
0
 10
164.295
 20
3.06921
 11
164.455
 21
2.97082
  0
LINE
  8
0
 10
164.455
 20
2.97082
 11
164.599
 21
2.84853
  0
LINE
  8
0
 10
164.599
 20
2.84853
 11
164.721
 21
2.70534
  0
LINE
  8
0
 10
164.721
 20
2.70534
 11
164.819
 21
2.54479
  0
LINE
  8
0
 10
164.819
 20
2.54479
 11
164.891
 21
2.37082
  0
LINE
  8
0
 10
164.891
 20
2.37082
 11
164.935
 21
2.18772
  0
LINE
  8
0
 10
164.935
 20
2.18772
 11
164.95
 21
2
  0
LINE
  8
0
 10
164.95
 20
2
 11
164.935
 21
1.81228
  0
LINE
  8
0
 10
164.935
 20
1.81228
 11
164.891
 21
1.62918
  0
LINE
  8
0
 10
164.891
 20
1.62918
 11
164.819
 21
1.45521
  0
LINE
  8
0
 10
164.819
 20
1.45521
 11
164.721
 21
1.29466
  0
LINE
  8
0
 10
164.721
 20
1.29466
 11
164.599
 21
1.15147
  0
LINE
  8
0
 10
164.599
 20
1.15147
 11
164.455
 21
1.02918
  0
LINE
  8
0
 10
164.455
 20
1.02918
 11
164.295
 21
0.930793
  0
LINE
  8
0
 10
164.295
 20
0.930793
 11
164.121
 21
0.858732
  0
LINE
  8
0
 10
164.121
 20
0.858732
 11
163.938
 21
0.814775
  0
LINE
  8
0
 10
163.938
 20
0.814775
 11
163.75
 21
0.8
  0
LINE
  8
0
 10
163.75
 20
0.8
 11
163.562
 21
0.814775
  0
LINE
  8
0
 10
163.562
 20
0.814775
 11
163.379
 21
0.858732
  0
LINE
  8
0
 10
163.379
 20
0.858732
 11
163.205
 21
0.930793
  0
LINE
  8
0
 10
163.205
 20
0.930793
 11
163.045
 21
1.02918
  0
LINE
  8
0
 10
163.045
 20
1.02918
 11
162.901
 21
1.15147
  0
LINE
  8
0
 10
162.901
 20
1.15147
 11
162.779
 21
1.29466
  0
LINE
  8
0
 10
162.779
 20
1.29466
 11
162.681
 21
1.45521
  0
LINE
  8
0
 10
162.681
 20
1.45521
 11
162.609
 21
1.62918
  0
LINE
  8
0
 10
162.609
 20
1.62918
 11
162.565
 21
1.81228
  0
LINE
  8
0
 10
162.565
 20
1.81228
 11
162.55
 21
2
  0
ENDSEC
  0
SECTION
  2
OBJECTS
  0
DICTIONARY
  0
ENDSEC
  0
EOF
