  0
SECTION
  2
BLOCKS
  0
ENDSEC
  0
SECTION
  2
ENTITIES
  0
LINE
  8
0
 10
0
 20
3.8147e-007
 11
64
 21
3.8147e-007
  0
LINE
  8
0
 10
64
 20
3.8147e-007
 11
64
 21
18.4
  0
LINE
  8
0
 10
64
 20
18.4
 11
63.9615
 21
19.9702
  0
LINE
  8
0
 10
63.9615
 20
19.9702
 11
63.8459
 21
21.5365
  0
LINE
  8
0
 10
63.8459
 20
21.5365
 11
63.6536
 21
23.0954
  0
LINE
  8
0
 10
63.6536
 20
23.0954
 11
63.3851
 21
24.6429
  0
LINE
  8
0
 10
63.3851
 20
24.6429
 11
63.041
 21
26.1754
  0
LINE
  8
0
 10
63.041
 20
26.1754
 11
62.6221
 21
27.6891
  0
LINE
  8
0
 10
62.6221
 20
27.6891
 11
62.1294
 21
29.1805
  0
LINE
  8
0
 10
62.1294
 20
29.1805
 11
61.5641
 21
30.6459
  0
LINE
  8
0
 10
61.5641
 20
30.6459
 11
60.9277
 21
32.0818
  0
LINE
  8
0
 10
60.9277
 20
32.0818
 11
60.2215
 21
33.4847
  0
LINE
  8
0
 10
60.2215
 20
33.4847
 11
59.4473
 21
34.8513
  0
LINE
  8
0
 10
59.4473
 20
34.8513
 11
58.607
 21
36.1782
  0
LINE
  8
0
 10
58.607
 20
36.1782
 11
57.7026
 21
37.4624
  0
LINE
  8
0
 10
57.7026
 20
37.4624
 11
56.7363
 21
38.7006
  0
LINE
  8
0
 10
56.7363
 20
38.7006
 11
55.7104
 21
39.8899
  0
LINE
  8
0
 10
55.7104
 20
39.8899
 11
54.6274
 21
41.0274
  0
LINE
  8
0
 10
54.6274
 20
41.0274
 11
53.4899
 21
42.1104
  0
LINE
  8
0
 10
53.4899
 20
42.1104
 11
52.3006
 21
43.1363
  0
LINE
  8
0
 10
52.3006
 20
43.1363
 11
51.0624
 21
44.1026
  0
LINE
  8
0
 10
51.0624
 20
44.1026
 11
49.7782
 21
45.007
  0
LINE
  8
0
 10
49.7782
 20
45.007
 11
48.4513
 21
45.8473
  0
LINE
  8
0
 10
48.4513
 20
45.8473
 11
47.0847
 21
46.6215
  0
LINE
  8
0
 10
47.0847
 20
46.6215
 11
45.6818
 21
47.3277
  0
LINE
  8
0
 10
45.6818
 20
47.3277
 11
44.2459
 21
47.9641
  0
LINE
  8
0
 10
44.2459
 20
47.9641
 11
42.7805
 21
48.5294
  0
LINE
  8
0
 10
42.7805
 20
48.5294
 11
41.2891
 21
49.0221
  0
LINE
  8
0
 10
41.2891
 20
49.0221
 11
39.7754
 21
49.441
  0
LINE
  8
0
 10
39.7754
 20
49.441
 11
38.2429
 21
49.7851
  0
LINE
  8
0
 10
38.2429
 20
49.7851
 11
36.6954
 21
50.0536
  0
LINE
  8
0
 10
36.6954
 20
50.0536
 11
35.1365
 21
50.2459
  0
LINE
  8
0
 10
35.1365
 20
50.2459
 11
33.5702
 21
50.3615
  0
LINE
  8
0
 10
33.5702
 20
50.3615
 11
32
 21
50.4
  0
LINE
  8
0
 10
32
 20
50.4
 11
30.4298
 21
50.3615
  0
LINE
  8
0
 10
30.4298
 20
50.3615
 11
28.8635
 21
50.2459
  0
LINE
  8
0
 10
28.8635
 20
50.2459
 11
27.3046
 21
50.0536
  0
LINE
  8
0
 10
27.3046
 20
50.0536
 11
25.7571
 21
49.7851
  0
LINE
  8
0
 10
25.7571
 20
49.7851
 11
24.2246
 21
49.441
  0
LINE
  8
0
 10
24.2246
 20
49.441
 11
22.7109
 21
49.0221
  0
LINE
  8
0
 10
22.7109
 20
49.0221
 11
21.2195
 21
48.5294
  0
LINE
  8
0
 10
21.2195
 20
48.5294
 11
19.7541
 21
47.9641
  0
LINE
  8
0
 10
19.7541
 20
47.9641
 11
18.3182
 21
47.3277
  0
LINE
  8
0
 10
18.3182
 20
47.3277
 11
16.9153
 21
46.6215
  0
LINE
  8
0
 10
16.9153
 20
46.6215
 11
15.5487
 21
45.8473
  0
LINE
  8
0
 10
15.5487
 20
45.8473
 11
14.2218
 21
45.007
  0
LINE
  8
0
 10
14.2218
 20
45.007
 11
12.9376
 21
44.1026
  0
LINE
  8
0
 10
12.9376
 20
44.1026
 11
11.6994
 21
43.1363
  0
LINE
  8
0
 10
11.6994
 20
43.1363
 11
10.5101
 21
42.1104
  0
LINE
  8
0
 10
10.5101
 20
42.1104
 11
9.37258
 21
41.0274
  0
LINE
  8
0
 10
9.37258
 20
41.0274
 11
8.28956
 21
39.8899
  0
LINE
  8
0
 10
8.28956
 20
39.8899
 11
7.26367
 21
38.7006
  0
LINE
  8
0
 10
7.26367
 20
38.7006
 11
6.29736
 21
37.4624
  0
LINE
  8
0
 10
6.29736
 20
37.4624
 11
5.39297
 21
36.1782
  0
LINE
  8
0
 10
5.39297
 20
36.1782
 11
4.55268
 21
34.8513
  0
LINE
  8
0
 10
4.55268
 20
34.8513
 11
3.77852
 21
33.4847
  0
LINE
  8
0
 10
3.77852
 20
33.4847
 11
3.07234
 21
32.0818
  0
LINE
  8
0
 10
3.07234
 20
32.0818
 11
2.43586
 21
30.6459
  0
LINE
  8
0
 10
2.43586
 20
30.6459
 11
1.87059
 21
29.1805
  0
LINE
  8
0
 10
1.87059
 20
29.1805
 11
1.37791
 21
27.6891
  0
LINE
  8
0
 10
1.37791
 20
27.6891
 11
0.959001
 21
26.1754
  0
LINE
  8
0
 10
0.959001
 20
26.1754
 11
0.614872
 21
24.6429
  0
LINE
  8
0
 10
0.614872
 20
24.6429
 11
0.346353
 21
23.0954
  0
LINE
  8
0
 10
0.346353
 20
23.0954
 11
0.154089
 21
21.5365
  0
LINE
  8
0
 10
0.154089
 20
21.5365
 11
0.0385456
 21
19.9702
  0
LINE
  8
0
 10
0.0385456
 20
19.9702
 11
0
 21
18.4
  0
LINE
  8
0
 10
0
 20
18.4
 11
0
 21
3.8147e-007
  0
LINE
  8
0
 10
8.28
 20
18.4
 11
8.28217
 21
18.4883
  0
LINE
  8
0
 10
8.28217
 20
18.4883
 11
8.28867
 21
18.5764
  0
LINE
  8
0
 10
8.28867
 20
18.5764
 11
8.29948
 21
18.6641
  0
LINE
  8
0
 10
8.29948
 20
18.6641
 11
8.31459
 21
18.7512
  0
LINE
  8
0
 10
8.31459
 20
18.7512
 11
8.33394
 21
18.8374
  0
LINE
  8
0
 10
8.33394
 20
18.8374
 11
8.35751
 21
18.9225
  0
LINE
  8
0
 10
8.35751
 20
18.9225
 11
8.38522
 21
19.0064
  0
LINE
  8
0
 10
8.38522
 20
19.0064
 11
8.41702
 21
19.0888
  0
LINE
  8
0
 10
8.41702
 20
19.0888
 11
8.45282
 21
19.1696
  0
LINE
  8
0
 10
8.45282
 20
19.1696
 11
8.49254
 21
19.2485
  0
LINE
  8
0
 10
8.49254
 20
19.2485
 11
8.53609
 21
19.3254
  0
LINE
  8
0
 10
8.53609
 20
19.3254
 11
8.58335
 21
19.4
  0
LINE
  8
0
 10
8.58335
 20
19.4
 11
8.63423
 21
19.4723
  0
LINE
  8
0
 10
8.63423
 20
19.4723
 11
8.68858
 21
19.5419
  0
LINE
  8
0
 10
8.68858
 20
19.5419
 11
8.74629
 21
19.6088
  0
LINE
  8
0
 10
8.74629
 20
19.6088
 11
8.80721
 21
19.6728
  0
LINE
  8
0
 10
8.80721
 20
19.6728
 11
8.87119
 21
19.7337
  0
LINE
  8
0
 10
8.87119
 20
19.7337
 11
8.93809
 21
19.7914
  0
LINE
  8
0
 10
8.93809
 20
19.7914
 11
9.00774
 21
19.8458
  0
LINE
  8
0
 10
9.00774
 20
19.8458
 11
9.07997
 21
19.8966
  0
LINE
  8
0
 10
9.07997
 20
19.8966
 11
9.15462
 21
19.9439
  0
LINE
  8
0
 10
9.15462
 20
19.9439
 11
9.23149
 21
19.9875
  0
LINE
  8
0
 10
9.23149
 20
19.9875
 11
9.3104
 21
20.0272
  0
LINE
  8
0
 10
9.3104
 20
20.0272
 11
9.39117
 21
20.063
  0
LINE
  8
0
 10
9.39117
 20
20.063
 11
9.4736
 21
20.0948
  0
LINE
  8
0
 10
9.4736
 20
20.0948
 11
9.55749
 21
20.1225
  0
LINE
  8
0
 10
9.55749
 20
20.1225
 11
9.64264
 21
20.1461
  0
LINE
  8
0
 10
9.64264
 20
20.1461
 11
9.72884
 21
20.1654
  0
LINE
  8
0
 10
9.72884
 20
20.1654
 11
9.81589
 21
20.1805
  0
LINE
  8
0
 10
9.81589
 20
20.1805
 11
9.90357
 21
20.1913
  0
LINE
  8
0
 10
9.90357
 20
20.1913
 11
9.99168
 21
20.1978
  0
LINE
  8
0
 10
9.99168
 20
20.1978
 11
10.08
 21
20.2
  0
LINE
  8
0
 10
10.08
 20
20.2
 11
10.1683
 21
20.1978
  0
LINE
  8
0
 10
10.1683
 20
20.1978
 11
10.2564
 21
20.1913
  0
LINE
  8
0
 10
10.2564
 20
20.1913
 11
10.3441
 21
20.1805
  0
LINE
  8
0
 10
10.3441
 20
20.1805
 11
10.4312
 21
20.1654
  0
LINE
  8
0
 10
10.4312
 20
20.1654
 11
10.5174
 21
20.1461
  0
LINE
  8
0
 10
10.5174
 20
20.1461
 11
10.6025
 21
20.1225
  0
LINE
  8
0
 10
10.6025
 20
20.1225
 11
10.6864
 21
20.0948
  0
LINE
  8
0
 10
10.6864
 20
20.0948
 11
10.7688
 21
20.063
  0
LINE
  8
0
 10
10.7688
 20
20.063
 11
10.8496
 21
20.0272
  0
LINE
  8
0
 10
10.8496
 20
20.0272
 11
10.9285
 21
19.9875
  0
LINE
  8
0
 10
10.9285
 20
19.9875
 11
11.0054
 21
19.9439
  0
LINE
  8
0
 10
11.0054
 20
19.9439
 11
11.08
 21
19.8966
  0
LINE
  8
0
 10
11.08
 20
19.8966
 11
11.1523
 21
19.8458
  0
LINE
  8
0
 10
11.1523
 20
19.8458
 11
11.2219
 21
19.7914
  0
LINE
  8
0
 10
11.2219
 20
19.7914
 11
11.2888
 21
19.7337
  0
LINE
  8
0
 10
11.2888
 20
19.7337
 11
11.3528
 21
19.6728
  0
LINE
  8
0
 10
11.3528
 20
19.6728
 11
11.4137
 21
19.6088
  0
LINE
  8
0
 10
11.4137
 20
19.6088
 11
11.4714
 21
19.5419
  0
LINE
  8
0
 10
11.4714
 20
19.5419
 11
11.5258
 21
19.4723
  0
LINE
  8
0
 10
11.5258
 20
19.4723
 11
11.5766
 21
19.4
  0
LINE
  8
0
 10
11.5766
 20
19.4
 11
11.6239
 21
19.3254
  0
LINE
  8
0
 10
11.6239
 20
19.3254
 11
11.6675
 21
19.2485
  0
LINE
  8
0
 10
11.6675
 20
19.2485
 11
11.7072
 21
19.1696
  0
LINE
  8
0
 10
11.7072
 20
19.1696
 11
11.743
 21
19.0888
  0
LINE
  8
0
 10
11.743
 20
19.0888
 11
11.7748
 21
19.0064
  0
LINE
  8
0
 10
11.7748
 20
19.0064
 11
11.8025
 21
18.9225
  0
LINE
  8
0
 10
11.8025
 20
18.9225
 11
11.8261
 21
18.8374
  0
LINE
  8
0
 10
11.8261
 20
18.8374
 11
11.8454
 21
18.7512
  0
LINE
  8
0
 10
11.8454
 20
18.7512
 11
11.8605
 21
18.6641
  0
LINE
  8
0
 10
11.8605
 20
18.6641
 11
11.8713
 21
18.5764
  0
LINE
  8
0
 10
11.8713
 20
18.5764
 11
11.8778
 21
18.4883
  0
LINE
  8
0
 10
11.8778
 20
18.4883
 11
11.88
 21
18.4
  0
LINE
  8
0
 10
11.88
 20
18.4
 11
11.8778
 21
18.3117
  0
LINE
  8
0
 10
11.8778
 20
18.3117
 11
11.8713
 21
18.2236
  0
LINE
  8
0
 10
11.8713
 20
18.2236
 11
11.8605
 21
18.1359
  0
LINE
  8
0
 10
11.8605
 20
18.1359
 11
11.8454
 21
18.0488
  0
LINE
  8
0
 10
11.8454
 20
18.0488
 11
11.8261
 21
17.9626
  0
LINE
  8
0
 10
11.8261
 20
17.9626
 11
11.8025
 21
17.8775
  0
LINE
  8
0
 10
11.8025
 20
17.8775
 11
11.7748
 21
17.7936
  0
LINE
  8
0
 10
11.7748
 20
17.7936
 11
11.743
 21
17.7112
  0
LINE
  8
0
 10
11.743
 20
17.7112
 11
11.7072
 21
17.6304
  0
LINE
  8
0
 10
11.7072
 20
17.6304
 11
11.6675
 21
17.5515
  0
LINE
  8
0
 10
11.6675
 20
17.5515
 11
11.6239
 21
17.4746
  0
LINE
  8
0
 10
11.6239
 20
17.4746
 11
11.5766
 21
17.4
  0
LINE
  8
0
 10
11.5766
 20
17.4
 11
11.5258
 21
17.3277
  0
LINE
  8
0
 10
11.5258
 20
17.3277
 11
11.4714
 21
17.2581
  0
LINE
  8
0
 10
11.4714
 20
17.2581
 11
11.4137
 21
17.1912
  0
LINE
  8
0
 10
11.4137
 20
17.1912
 11
11.3528
 21
17.1272
  0
LINE
  8
0
 10
11.3528
 20
17.1272
 11
11.2888
 21
17.0663
  0
LINE
  8
0
 10
11.2888
 20
17.0663
 11
11.2219
 21
17.0086
  0
LINE
  8
0
 10
11.2219
 20
17.0086
 11
11.1523
 21
16.9542
  0
LINE
  8
0
 10
11.1523
 20
16.9542
 11
11.08
 21
16.9034
  0
LINE
  8
0
 10
11.08
 20
16.9034
 11
11.0054
 21
16.8561
  0
LINE
  8
0
 10
11.0054
 20
16.8561
 11
10.9285
 21
16.8125
  0
LINE
  8
0
 10
10.9285
 20
16.8125
 11
10.8496
 21
16.7728
  0
LINE
  8
0
 10
10.8496
 20
16.7728
 11
10.7688
 21
16.737
  0
LINE
  8
0
 10
10.7688
 20
16.737
 11
10.6864
 21
16.7052
  0
LINE
  8
0
 10
10.6864
 20
16.7052
 11
10.6025
 21
16.6775
  0
LINE
  8
0
 10
10.6025
 20
16.6775
 11
10.5174
 21
16.6539
  0
LINE
  8
0
 10
10.5174
 20
16.6539
 11
10.4312
 21
16.6346
  0
LINE
  8
0
 10
10.4312
 20
16.6346
 11
10.3441
 21
16.6195
  0
LINE
  8
0
 10
10.3441
 20
16.6195
 11
10.2564
 21
16.6087
  0
LINE
  8
0
 10
10.2564
 20
16.6087
 11
10.1683
 21
16.6022
  0
LINE
  8
0
 10
10.1683
 20
16.6022
 11
10.08
 21
16.6
  0
LINE
  8
0
 10
10.08
 20
16.6
 11
9.99168
 21
16.6022
  0
LINE
  8
0
 10
9.99168
 20
16.6022
 11
9.90357
 21
16.6087
  0
LINE
  8
0
 10
9.90357
 20
16.6087
 11
9.81589
 21
16.6195
  0
LINE
  8
0
 10
9.81589
 20
16.6195
 11
9.72884
 21
16.6346
  0
LINE
  8
0
 10
9.72884
 20
16.6346
 11
9.64264
 21
16.6539
  0
LINE
  8
0
 10
9.64264
 20
16.6539
 11
9.55749
 21
16.6775
  0
LINE
  8
0
 10
9.55749
 20
16.6775
 11
9.4736
 21
16.7052
  0
LINE
  8
0
 10
9.4736
 20
16.7052
 11
9.39117
 21
16.737
  0
LINE
  8
0
 10
9.39117
 20
16.737
 11
9.3104
 21
16.7728
  0
LINE
  8
0
 10
9.3104
 20
16.7728
 11
9.23149
 21
16.8125
  0
LINE
  8
0
 10
9.23149
 20
16.8125
 11
9.15462
 21
16.8561
  0
LINE
  8
0
 10
9.15462
 20
16.8561
 11
9.07997
 21
16.9034
  0
LINE
  8
0
 10
9.07997
 20
16.9034
 11
9.00774
 21
16.9542
  0
LINE
  8
0
 10
9.00774
 20
16.9542
 11
8.93809
 21
17.0086
  0
LINE
  8
0
 10
8.93809
 20
17.0086
 11
8.87119
 21
17.0663
  0
LINE
  8
0
 10
8.87119
 20
17.0663
 11
8.80721
 21
17.1272
  0
LINE
  8
0
 10
8.80721
 20
17.1272
 11
8.74629
 21
17.1912
  0
LINE
  8
0
 10
8.74629
 20
17.1912
 11
8.68858
 21
17.2581
  0
LINE
  8
0
 10
8.68858
 20
17.2581
 11
8.63423
 21
17.3277
  0
LINE
  8
0
 10
8.63423
 20
17.3277
 11
8.58335
 21
17.4
  0
LINE
  8
0
 10
8.58335
 20
17.4
 11
8.53609
 21
17.4746
  0
LINE
  8
0
 10
8.53609
 20
17.4746
 11
8.49254
 21
17.5515
  0
LINE
  8
0
 10
8.49254
 20
17.5515
 11
8.45282
 21
17.6304
  0
LINE
  8
0
 10
8.45282
 20
17.6304
 11
8.41702
 21
17.7112
  0
LINE
  8
0
 10
8.41702
 20
17.7112
 11
8.38522
 21
17.7936
  0
LINE
  8
0
 10
8.38522
 20
17.7936
 11
8.35751
 21
17.8775
  0
LINE
  8
0
 10
8.35751
 20
17.8775
 11
8.33394
 21
17.9626
  0
LINE
  8
0
 10
8.33394
 20
17.9626
 11
8.31459
 21
18.0488
  0
LINE
  8
0
 10
8.31459
 20
18.0488
 11
8.29948
 21
18.1359
  0
LINE
  8
0
 10
8.29948
 20
18.1359
 11
8.28867
 21
18.2236
  0
LINE
  8
0
 10
8.28867
 20
18.2236
 11
8.28217
 21
18.3117
  0
LINE
  8
0
 10
8.28217
 20
18.3117
 11
8.28
 21
18.4
  0
LINE
  8
0
 10
14.7
 20
33.9
 11
14.7022
 21
33.9883
  0
LINE
  8
0
 10
14.7022
 20
33.9883
 11
14.7087
 21
34.0764
  0
LINE
  8
0
 10
14.7087
 20
34.0764
 11
14.7195
 21
34.1641
  0
LINE
  8
0
 10
14.7195
 20
34.1641
 11
14.7346
 21
34.2512
  0
LINE
  8
0
 10
14.7346
 20
34.2512
 11
14.7539
 21
34.3374
  0
LINE
  8
0
 10
14.7539
 20
34.3374
 11
14.7775
 21
34.4225
  0
LINE
  8
0
 10
14.7775
 20
34.4225
 11
14.8052
 21
34.5064
  0
LINE
  8
0
 10
14.8052
 20
34.5064
 11
14.837
 21
34.5888
  0
LINE
  8
0
 10
14.837
 20
34.5888
 11
14.8728
 21
34.6696
  0
LINE
  8
0
 10
14.8728
 20
34.6696
 11
14.9125
 21
34.7485
  0
LINE
  8
0
 10
14.9125
 20
34.7485
 11
14.9561
 21
34.8254
  0
LINE
  8
0
 10
14.9561
 20
34.8254
 11
15.0034
 21
34.9
  0
LINE
  8
0
 10
15.0034
 20
34.9
 11
15.0542
 21
34.9723
  0
LINE
  8
0
 10
15.0542
 20
34.9723
 11
15.1086
 21
35.0419
  0
LINE
  8
0
 10
15.1086
 20
35.0419
 11
15.1663
 21
35.1088
  0
LINE
  8
0
 10
15.1663
 20
35.1088
 11
15.2272
 21
35.1728
  0
LINE
  8
0
 10
15.2272
 20
35.1728
 11
15.2912
 21
35.2337
  0
LINE
  8
0
 10
15.2912
 20
35.2337
 11
15.3581
 21
35.2914
  0
LINE
  8
0
 10
15.3581
 20
35.2914
 11
15.4277
 21
35.3458
  0
LINE
  8
0
 10
15.4277
 20
35.3458
 11
15.5
 21
35.3966
  0
LINE
  8
0
 10
15.5
 20
35.3966
 11
15.5746
 21
35.4439
  0
LINE
  8
0
 10
15.5746
 20
35.4439
 11
15.6515
 21
35.4875
  0
LINE
  8
0
 10
15.6515
 20
35.4875
 11
15.7304
 21
35.5272
  0
LINE
  8
0
 10
15.7304
 20
35.5272
 11
15.8112
 21
35.563
  0
LINE
  8
0
 10
15.8112
 20
35.563
 11
15.8936
 21
35.5948
  0
LINE
  8
0
 10
15.8936
 20
35.5948
 11
15.9775
 21
35.6225
  0
LINE
  8
0
 10
15.9775
 20
35.6225
 11
16.0626
 21
35.6461
  0
LINE
  8
0
 10
16.0626
 20
35.6461
 11
16.1488
 21
35.6654
  0
LINE
  8
0
 10
16.1488
 20
35.6654
 11
16.2359
 21
35.6805
  0
LINE
  8
0
 10
16.2359
 20
35.6805
 11
16.3236
 21
35.6913
  0
LINE
  8
0
 10
16.3236
 20
35.6913
 11
16.4117
 21
35.6978
  0
LINE
  8
0
 10
16.4117
 20
35.6978
 11
16.5
 21
35.7
  0
LINE
  8
0
 10
16.5
 20
35.7
 11
16.5883
 21
35.6978
  0
LINE
  8
0
 10
16.5883
 20
35.6978
 11
16.6764
 21
35.6913
  0
LINE
  8
0
 10
16.6764
 20
35.6913
 11
16.7641
 21
35.6805
  0
LINE
  8
0
 10
16.7641
 20
35.6805
 11
16.8512
 21
35.6654
  0
LINE
  8
0
 10
16.8512
 20
35.6654
 11
16.9374
 21
35.6461
  0
LINE
  8
0
 10
16.9374
 20
35.6461
 11
17.0225
 21
35.6225
  0
LINE
  8
0
 10
17.0225
 20
35.6225
 11
17.1064
 21
35.5948
  0
LINE
  8
0
 10
17.1064
 20
35.5948
 11
17.1888
 21
35.563
  0
LINE
  8
0
 10
17.1888
 20
35.563
 11
17.2696
 21
35.5272
  0
LINE
  8
0
 10
17.2696
 20
35.5272
 11
17.3485
 21
35.4875
  0
LINE
  8
0
 10
17.3485
 20
35.4875
 11
17.4254
 21
35.4439
  0
LINE
  8
0
 10
17.4254
 20
35.4439
 11
17.5
 21
35.3966
  0
LINE
  8
0
 10
17.5
 20
35.3966
 11
17.5723
 21
35.3458
  0
LINE
  8
0
 10
17.5723
 20
35.3458
 11
17.6419
 21
35.2914
  0
LINE
  8
0
 10
17.6419
 20
35.2914
 11
17.7088
 21
35.2337
  0
LINE
  8
0
 10
17.7088
 20
35.2337
 11
17.7728
 21
35.1728
  0
LINE
  8
0
 10
17.7728
 20
35.1728
 11
17.8337
 21
35.1088
  0
LINE
  8
0
 10
17.8337
 20
35.1088
 11
17.8914
 21
35.0419
  0
LINE
  8
0
 10
17.8914
 20
35.0419
 11
17.9458
 21
34.9723
  0
LINE
  8
0
 10
17.9458
 20
34.9723
 11
17.9966
 21
34.9
  0
LINE
  8
0
 10
17.9966
 20
34.9
 11
18.0439
 21
34.8254
  0
LINE
  8
0
 10
18.0439
 20
34.8254
 11
18.0875
 21
34.7485
  0
LINE
  8
0
 10
18.0875
 20
34.7485
 11
18.1272
 21
34.6696
  0
LINE
  8
0
 10
18.1272
 20
34.6696
 11
18.163
 21
34.5888
  0
LINE
  8
0
 10
18.163
 20
34.5888
 11
18.1948
 21
34.5064
  0
LINE
  8
0
 10
18.1948
 20
34.5064
 11
18.2225
 21
34.4225
  0
LINE
  8
0
 10
18.2225
 20
34.4225
 11
18.2461
 21
34.3374
  0
LINE
  8
0
 10
18.2461
 20
34.3374
 11
18.2654
 21
34.2512
  0
LINE
  8
0
 10
18.2654
 20
34.2512
 11
18.2805
 21
34.1641
  0
LINE
  8
0
 10
18.2805
 20
34.1641
 11
18.2913
 21
34.0764
  0
LINE
  8
0
 10
18.2913
 20
34.0764
 11
18.2978
 21
33.9883
  0
LINE
  8
0
 10
18.2978
 20
33.9883
 11
18.3
 21
33.9
  0
LINE
  8
0
 10
18.3
 20
33.9
 11
18.2978
 21
33.8117
  0
LINE
  8
0
 10
18.2978
 20
33.8117
 11
18.2913
 21
33.7236
  0
LINE
  8
0
 10
18.2913
 20
33.7236
 11
18.2805
 21
33.6359
  0
LINE
  8
0
 10
18.2805
 20
33.6359
 11
18.2654
 21
33.5488
  0
LINE
  8
0
 10
18.2654
 20
33.5488
 11
18.2461
 21
33.4626
  0
LINE
  8
0
 10
18.2461
 20
33.4626
 11
18.2225
 21
33.3775
  0
LINE
  8
0
 10
18.2225
 20
33.3775
 11
18.1948
 21
33.2936
  0
LINE
  8
0
 10
18.1948
 20
33.2936
 11
18.163
 21
33.2112
  0
LINE
  8
0
 10
18.163
 20
33.2112
 11
18.1272
 21
33.1304
  0
LINE
  8
0
 10
18.1272
 20
33.1304
 11
18.0875
 21
33.0515
  0
LINE
  8
0
 10
18.0875
 20
33.0515
 11
18.0439
 21
32.9746
  0
LINE
  8
0
 10
18.0439
 20
32.9746
 11
17.9966
 21
32.9
  0
LINE
  8
0
 10
17.9966
 20
32.9
 11
17.9458
 21
32.8277
  0
LINE
  8
0
 10
17.9458
 20
32.8277
 11
17.8914
 21
32.7581
  0
LINE
  8
0
 10
17.8914
 20
32.7581
 11
17.8337
 21
32.6912
  0
LINE
  8
0
 10
17.8337
 20
32.6912
 11
17.7728
 21
32.6272
  0
LINE
  8
0
 10
17.7728
 20
32.6272
 11
17.7088
 21
32.5663
  0
LINE
  8
0
 10
17.7088
 20
32.5663
 11
17.6419
 21
32.5086
  0
LINE
  8
0
 10
17.6419
 20
32.5086
 11
17.5723
 21
32.4542
  0
LINE
  8
0
 10
17.5723
 20
32.4542
 11
17.5
 21
32.4034
  0
LINE
  8
0
 10
17.5
 20
32.4034
 11
17.4254
 21
32.3561
  0
LINE
  8
0
 10
17.4254
 20
32.3561
 11
17.3485
 21
32.3125
  0
LINE
  8
0
 10
17.3485
 20
32.3125
 11
17.2696
 21
32.2728
  0
LINE
  8
0
 10
17.2696
 20
32.2728
 11
17.1888
 21
32.237
  0
LINE
  8
0
 10
17.1888
 20
32.237
 11
17.1064
 21
32.2052
  0
LINE
  8
0
 10
17.1064
 20
32.2052
 11
17.0225
 21
32.1775
  0
LINE
  8
0
 10
17.0225
 20
32.1775
 11
16.9374
 21
32.1539
  0
LINE
  8
0
 10
16.9374
 20
32.1539
 11
16.8512
 21
32.1346
  0
LINE
  8
0
 10
16.8512
 20
32.1346
 11
16.7641
 21
32.1195
  0
LINE
  8
0
 10
16.7641
 20
32.1195
 11
16.6764
 21
32.1087
  0
LINE
  8
0
 10
16.6764
 20
32.1087
 11
16.5883
 21
32.1022
  0
LINE
  8
0
 10
16.5883
 20
32.1022
 11
16.5
 21
32.1
  0
LINE
  8
0
 10
16.5
 20
32.1
 11
16.4117
 21
32.1022
  0
LINE
  8
0
 10
16.4117
 20
32.1022
 11
16.3236
 21
32.1087
  0
LINE
  8
0
 10
16.3236
 20
32.1087
 11
16.2359
 21
32.1195
  0
LINE
  8
0
 10
16.2359
 20
32.1195
 11
16.1488
 21
32.1346
  0
LINE
  8
0
 10
16.1488
 20
32.1346
 11
16.0626
 21
32.1539
  0
LINE
  8
0
 10
16.0626
 20
32.1539
 11
15.9775
 21
32.1775
  0
LINE
  8
0
 10
15.9775
 20
32.1775
 11
15.8936
 21
32.2052
  0
LINE
  8
0
 10
15.8936
 20
32.2052
 11
15.8112
 21
32.237
  0
LINE
  8
0
 10
15.8112
 20
32.237
 11
15.7304
 21
32.2728
  0
LINE
  8
0
 10
15.7304
 20
32.2728
 11
15.6515
 21
32.3125
  0
LINE
  8
0
 10
15.6515
 20
32.3125
 11
15.5746
 21
32.3561
  0
LINE
  8
0
 10
15.5746
 20
32.3561
 11
15.5
 21
32.4034
  0
LINE
  8
0
 10
15.5
 20
32.4034
 11
15.4277
 21
32.4542
  0
LINE
  8
0
 10
15.4277
 20
32.4542
 11
15.3581
 21
32.5086
  0
LINE
  8
0
 10
15.3581
 20
32.5086
 11
15.2912
 21
32.5663
  0
LINE
  8
0
 10
15.2912
 20
32.5663
 11
15.2272
 21
32.6272
  0
LINE
  8
0
 10
15.2272
 20
32.6272
 11
15.1663
 21
32.6912
  0
LINE
  8
0
 10
15.1663
 20
32.6912
 11
15.1086
 21
32.7581
  0
LINE
  8
0
 10
15.1086
 20
32.7581
 11
15.0542
 21
32.8277
  0
LINE
  8
0
 10
15.0542
 20
32.8277
 11
15.0034
 21
32.9
  0
LINE
  8
0
 10
15.0034
 20
32.9
 11
14.9561
 21
32.9746
  0
LINE
  8
0
 10
14.9561
 20
32.9746
 11
14.9125
 21
33.0515
  0
LINE
  8
0
 10
14.9125
 20
33.0515
 11
14.8728
 21
33.1304
  0
LINE
  8
0
 10
14.8728
 20
33.1304
 11
14.837
 21
33.2112
  0
LINE
  8
0
 10
14.837
 20
33.2112
 11
14.8052
 21
33.2936
  0
LINE
  8
0
 10
14.8052
 20
33.2936
 11
14.7775
 21
33.3775
  0
LINE
  8
0
 10
14.7775
 20
33.3775
 11
14.7539
 21
33.4626
  0
LINE
  8
0
 10
14.7539
 20
33.4626
 11
14.7346
 21
33.5488
  0
LINE
  8
0
 10
14.7346
 20
33.5488
 11
14.7195
 21
33.6359
  0
LINE
  8
0
 10
14.7195
 20
33.6359
 11
14.7087
 21
33.7236
  0
LINE
  8
0
 10
14.7087
 20
33.7236
 11
14.7022
 21
33.8117
  0
LINE
  8
0
 10
14.7022
 20
33.8117
 11
14.7
 21
33.9
  0
LINE
  8
0
 10
23.975
 20
18.4
 11
23.9847
 21
18.7938
  0
LINE
  8
0
 10
23.9847
 20
18.7938
 11
24.0136
 21
19.1866
  0
LINE
  8
0
 10
24.0136
 20
19.1866
 11
24.0619
 21
19.5775
  0
LINE
  8
0
 10
24.0619
 20
19.5775
 11
24.1292
 21
19.9656
  0
LINE
  8
0
 10
24.1292
 20
19.9656
 11
24.2155
 21
20.3499
  0
LINE
  8
0
 10
24.2155
 20
20.3499
 11
24.3206
 21
20.7295
  0
LINE
  8
0
 10
24.3206
 20
20.7295
 11
24.4441
 21
21.1035
  0
LINE
  8
0
 10
24.4441
 20
21.1035
 11
24.5859
 21
21.471
  0
LINE
  8
0
 10
24.5859
 20
21.471
 11
24.7455
 21
21.8311
  0
LINE
  8
0
 10
24.7455
 20
21.8311
 11
24.9226
 21
22.183
  0
LINE
  8
0
 10
24.9226
 20
22.183
 11
25.1167
 21
22.5257
  0
LINE
  8
0
 10
25.1167
 20
22.5257
 11
25.3275
 21
22.8585
  0
LINE
  8
0
 10
25.3275
 20
22.8585
 11
25.5543
 21
23.1805
  0
LINE
  8
0
 10
25.5543
 20
23.1805
 11
25.7966
 21
23.491
  0
LINE
  8
0
 10
25.7966
 20
23.491
 11
26.0539
 21
23.7893
  0
LINE
  8
0
 10
26.0539
 20
23.7893
 11
26.3255
 21
24.0745
  0
LINE
  8
0
 10
26.3255
 20
24.0745
 11
26.6107
 21
24.3461
  0
LINE
  8
0
 10
26.6107
 20
24.3461
 11
26.909
 21
24.6034
  0
LINE
  8
0
 10
26.909
 20
24.6034
 11
27.2195
 21
24.8457
  0
LINE
  8
0
 10
27.2195
 20
24.8457
 11
27.5415
 21
25.0725
  0
LINE
  8
0
 10
27.5415
 20
25.0725
 11
27.8743
 21
25.2833
  0
LINE
  8
0
 10
27.8743
 20
25.2833
 11
28.217
 21
25.4774
  0
LINE
  8
0
 10
28.217
 20
25.4774
 11
28.5689
 21
25.6545
  0
LINE
  8
0
 10
28.5689
 20
25.6545
 11
28.929
 21
25.8141
  0
LINE
  8
0
 10
28.929
 20
25.8141
 11
29.2965
 21
25.9559
  0
LINE
  8
0
 10
29.2965
 20
25.9559
 11
29.6705
 21
26.0794
  0
LINE
  8
0
 10
29.6705
 20
26.0794
 11
30.0501
 21
26.1845
  0
LINE
  8
0
 10
30.0501
 20
26.1845
 11
30.4344
 21
26.2708
  0
LINE
  8
0
 10
30.4344
 20
26.2708
 11
30.8225
 21
26.3381
  0
LINE
  8
0
 10
30.8225
 20
26.3381
 11
31.2134
 21
26.3864
  0
LINE
  8
0
 10
31.2134
 20
26.3864
 11
31.6062
 21
26.4153
  0
LINE
  8
0
 10
31.6062
 20
26.4153
 11
32
 21
26.425
  0
LINE
  8
0
 10
32
 20
26.425
 11
32.3938
 21
26.4153
  0
LINE
  8
0
 10
32.3938
 20
26.4153
 11
32.7866
 21
26.3864
  0
LINE
  8
0
 10
32.7866
 20
26.3864
 11
33.1775
 21
26.3381
  0
LINE
  8
0
 10
33.1775
 20
26.3381
 11
33.5656
 21
26.2708
  0
LINE
  8
0
 10
33.5656
 20
26.2708
 11
33.9499
 21
26.1845
  0
LINE
  8
0
 10
33.9499
 20
26.1845
 11
34.3295
 21
26.0794
  0
LINE
  8
0
 10
34.3295
 20
26.0794
 11
34.7035
 21
25.9559
  0
LINE
  8
0
 10
34.7035
 20
25.9559
 11
35.071
 21
25.8141
  0
LINE
  8
0
 10
35.071
 20
25.8141
 11
35.4311
 21
25.6545
  0
LINE
  8
0
 10
35.4311
 20
25.6545
 11
35.783
 21
25.4774
  0
LINE
  8
0
 10
35.783
 20
25.4774
 11
36.1257
 21
25.2833
  0
LINE
  8
0
 10
36.1257
 20
25.2833
 11
36.4585
 21
25.0725
  0
LINE
  8
0
 10
36.4585
 20
25.0725
 11
36.7805
 21
24.8457
  0
LINE
  8
0
 10
36.7805
 20
24.8457
 11
37.091
 21
24.6034
  0
LINE
  8
0
 10
37.091
 20
24.6034
 11
37.3893
 21
24.3461
  0
LINE
  8
0
 10
37.3893
 20
24.3461
 11
37.6745
 21
24.0745
  0
LINE
  8
0
 10
37.6745
 20
24.0745
 11
37.9461
 21
23.7893
  0
LINE
  8
0
 10
37.9461
 20
23.7893
 11
38.2034
 21
23.491
  0
LINE
  8
0
 10
38.2034
 20
23.491
 11
38.4457
 21
23.1805
  0
LINE
  8
0
 10
38.4457
 20
23.1805
 11
38.6725
 21
22.8585
  0
LINE
  8
0
 10
38.6725
 20
22.8585
 11
38.8833
 21
22.5257
  0
LINE
  8
0
 10
38.8833
 20
22.5257
 11
39.0774
 21
22.183
  0
LINE
  8
0
 10
39.0774
 20
22.183
 11
39.2545
 21
21.8311
  0
LINE
  8
0
 10
39.2545
 20
21.8311
 11
39.4141
 21
21.471
  0
LINE
  8
0
 10
39.4141
 20
21.471
 11
39.5559
 21
21.1035
  0
LINE
  8
0
 10
39.5559
 20
21.1035
 11
39.6794
 21
20.7295
  0
LINE
  8
0
 10
39.6794
 20
20.7295
 11
39.7845
 21
20.3499
  0
LINE
  8
0
 10
39.7845
 20
20.3499
 11
39.8708
 21
19.9656
  0
LINE
  8
0
 10
39.8708
 20
19.9656
 11
39.9381
 21
19.5775
  0
LINE
  8
0
 10
39.9381
 20
19.5775
 11
39.9864
 21
19.1866
  0
LINE
  8
0
 10
39.9864
 20
19.1866
 11
40.0153
 21
18.7938
  0
LINE
  8
0
 10
40.0153
 20
18.7938
 11
40.025
 21
18.4
  0
LINE
  8
0
 10
40.025
 20
18.4
 11
40.0153
 21
18.0062
  0
LINE
  8
0
 10
40.0153
 20
18.0062
 11
39.9864
 21
17.6134
  0
LINE
  8
0
 10
39.9864
 20
17.6134
 11
39.9381
 21
17.2225
  0
LINE
  8
0
 10
39.9381
 20
17.2225
 11
39.8708
 21
16.8344
  0
LINE
  8
0
 10
39.8708
 20
16.8344
 11
39.7845
 21
16.4501
  0
LINE
  8
0
 10
39.7845
 20
16.4501
 11
39.6794
 21
16.0705
  0
LINE
  8
0
 10
39.6794
 20
16.0705
 11
39.5559
 21
15.6965
  0
LINE
  8
0
 10
39.5559
 20
15.6965
 11
39.4141
 21
15.329
  0
LINE
  8
0
 10
39.4141
 20
15.329
 11
39.2545
 21
14.9689
  0
LINE
  8
0
 10
39.2545
 20
14.9689
 11
39.0774
 21
14.617
  0
LINE
  8
0
 10
39.0774
 20
14.617
 11
38.8833
 21
14.2743
  0
LINE
  8
0
 10
38.8833
 20
14.2743
 11
38.6725
 21
13.9415
  0
LINE
  8
0
 10
38.6725
 20
13.9415
 11
38.4457
 21
13.6195
  0
LINE
  8
0
 10
38.4457
 20
13.6195
 11
38.2034
 21
13.309
  0
LINE
  8
0
 10
38.2034
 20
13.309
 11
37.9461
 21
13.0107
  0
LINE
  8
0
 10
37.9461
 20
13.0107
 11
37.6745
 21
12.7255
  0
LINE
  8
0
 10
37.6745
 20
12.7255
 11
37.3893
 21
12.4539
  0
LINE
  8
0
 10
37.3893
 20
12.4539
 11
37.091
 21
12.1966
  0
LINE
  8
0
 10
37.091
 20
12.1966
 11
36.7805
 21
11.9543
  0
LINE
  8
0
 10
36.7805
 20
11.9543
 11
36.4585
 21
11.7275
  0
LINE
  8
0
 10
36.4585
 20
11.7275
 11
36.1257
 21
11.5167
  0
LINE
  8
0
 10
36.1257
 20
11.5167
 11
35.783
 21
11.3226
  0
LINE
  8
0
 10
35.783
 20
11.3226
 11
35.4311
 21
11.1455
  0
LINE
  8
0
 10
35.4311
 20
11.1455
 11
35.071
 21
10.9859
  0
LINE
  8
0
 10
35.071
 20
10.9859
 11
34.7035
 21
10.8441
  0
LINE
  8
0
 10
34.7035
 20
10.8441
 11
34.3295
 21
10.7206
  0
LINE
  8
0
 10
34.3295
 20
10.7206
 11
33.9499
 21
10.6155
  0
LINE
  8
0
 10
33.9499
 20
10.6155
 11
33.5656
 21
10.5292
  0
LINE
  8
0
 10
33.5656
 20
10.5292
 11
33.1775
 21
10.4619
  0
LINE
  8
0
 10
33.1775
 20
10.4619
 11
32.7866
 21
10.4136
  0
LINE
  8
0
 10
32.7866
 20
10.4136
 11
32.3938
 21
10.3847
  0
LINE
  8
0
 10
32.3938
 20
10.3847
 11
32
 21
10.375
  0
LINE
  8
0
 10
32
 20
10.375
 11
31.6062
 21
10.3847
  0
LINE
  8
0
 10
31.6062
 20
10.3847
 11
31.2134
 21
10.4136
  0
LINE
  8
0
 10
31.2134
 20
10.4136
 11
30.8225
 21
10.4619
  0
LINE
  8
0
 10
30.8225
 20
10.4619
 11
30.4344
 21
10.5292
  0
LINE
  8
0
 10
30.4344
 20
10.5292
 11
30.0501
 21
10.6155
  0
LINE
  8
0
 10
30.0501
 20
10.6155
 11
29.6705
 21
10.7206
  0
LINE
  8
0
 10
29.6705
 20
10.7206
 11
29.2965
 21
10.8441
  0
LINE
  8
0
 10
29.2965
 20
10.8441
 11
28.929
 21
10.9859
  0
LINE
  8
0
 10
28.929
 20
10.9859
 11
28.5689
 21
11.1455
  0
LINE
  8
0
 10
28.5689
 20
11.1455
 11
28.217
 21
11.3226
  0
LINE
  8
0
 10
28.217
 20
11.3226
 11
27.8743
 21
11.5167
  0
LINE
  8
0
 10
27.8743
 20
11.5167
 11
27.5415
 21
11.7275
  0
LINE
  8
0
 10
27.5415
 20
11.7275
 11
27.2195
 21
11.9543
  0
LINE
  8
0
 10
27.2195
 20
11.9543
 11
26.909
 21
12.1966
  0
LINE
  8
0
 10
26.909
 20
12.1966
 11
26.6107
 21
12.4539
  0
LINE
  8
0
 10
26.6107
 20
12.4539
 11
26.3255
 21
12.7255
  0
LINE
  8
0
 10
26.3255
 20
12.7255
 11
26.0539
 21
13.0107
  0
LINE
  8
0
 10
26.0539
 20
13.0107
 11
25.7966
 21
13.309
  0
LINE
  8
0
 10
25.7966
 20
13.309
 11
25.5543
 21
13.6195
  0
LINE
  8
0
 10
25.5543
 20
13.6195
 11
25.3275
 21
13.9415
  0
LINE
  8
0
 10
25.3275
 20
13.9415
 11
25.1167
 21
14.2743
  0
LINE
  8
0
 10
25.1167
 20
14.2743
 11
24.9226
 21
14.617
  0
LINE
  8
0
 10
24.9226
 20
14.617
 11
24.7455
 21
14.9689
  0
LINE
  8
0
 10
24.7455
 20
14.9689
 11
24.5859
 21
15.329
  0
LINE
  8
0
 10
24.5859
 20
15.329
 11
24.4441
 21
15.6965
  0
LINE
  8
0
 10
24.4441
 20
15.6965
 11
24.3206
 21
16.0705
  0
LINE
  8
0
 10
24.3206
 20
16.0705
 11
24.2155
 21
16.4501
  0
LINE
  8
0
 10
24.2155
 20
16.4501
 11
24.1292
 21
16.8344
  0
LINE
  8
0
 10
24.1292
 20
16.8344
 11
24.0619
 21
17.2225
  0
LINE
  8
0
 10
24.0619
 20
17.2225
 11
24.0136
 21
17.6134
  0
LINE
  8
0
 10
24.0136
 20
17.6134
 11
23.9847
 21
18.0062
  0
LINE
  8
0
 10
23.9847
 20
18.0062
 11
23.975
 21
18.4
  0
LINE
  8
0
 10
30.2
 20
40.32
 11
30.2022
 21
40.4083
  0
LINE
  8
0
 10
30.2022
 20
40.4083
 11
30.2087
 21
40.4964
  0
LINE
  8
0
 10
30.2087
 20
40.4964
 11
30.2195
 21
40.5841
  0
LINE
  8
0
 10
30.2195
 20
40.5841
 11
30.2346
 21
40.6712
  0
LINE
  8
0
 10
30.2346
 20
40.6712
 11
30.2539
 21
40.7574
  0
LINE
  8
0
 10
30.2539
 20
40.7574
 11
30.2775
 21
40.8425
  0
LINE
  8
0
 10
30.2775
 20
40.8425
 11
30.3052
 21
40.9264
  0
LINE
  8
0
 10
30.3052
 20
40.9264
 11
30.337
 21
41.0088
  0
LINE
  8
0
 10
30.337
 20
41.0088
 11
30.3728
 21
41.0896
  0
LINE
  8
0
 10
30.3728
 20
41.0896
 11
30.4125
 21
41.1685
  0
LINE
  8
0
 10
30.4125
 20
41.1685
 11
30.4561
 21
41.2454
  0
LINE
  8
0
 10
30.4561
 20
41.2454
 11
30.5034
 21
41.32
  0
LINE
  8
0
 10
30.5034
 20
41.32
 11
30.5542
 21
41.3923
  0
LINE
  8
0
 10
30.5542
 20
41.3923
 11
30.6086
 21
41.4619
  0
LINE
  8
0
 10
30.6086
 20
41.4619
 11
30.6663
 21
41.5288
  0
LINE
  8
0
 10
30.6663
 20
41.5288
 11
30.7272
 21
41.5928
  0
LINE
  8
0
 10
30.7272
 20
41.5928
 11
30.7912
 21
41.6537
  0
LINE
  8
0
 10
30.7912
 20
41.6537
 11
30.8581
 21
41.7114
  0
LINE
  8
0
 10
30.8581
 20
41.7114
 11
30.9277
 21
41.7658
  0
LINE
  8
0
 10
30.9277
 20
41.7658
 11
31
 21
41.8166
  0
LINE
  8
0
 10
31
 20
41.8166
 11
31.0746
 21
41.8639
  0
LINE
  8
0
 10
31.0746
 20
41.8639
 11
31.1515
 21
41.9075
  0
LINE
  8
0
 10
31.1515
 20
41.9075
 11
31.2304
 21
41.9472
  0
LINE
  8
0
 10
31.2304
 20
41.9472
 11
31.3112
 21
41.983
  0
LINE
  8
0
 10
31.3112
 20
41.983
 11
31.3936
 21
42.0148
  0
LINE
  8
0
 10
31.3936
 20
42.0148
 11
31.4775
 21
42.0425
  0
LINE
  8
0
 10
31.4775
 20
42.0425
 11
31.5626
 21
42.0661
  0
LINE
  8
0
 10
31.5626
 20
42.0661
 11
31.6488
 21
42.0854
  0
LINE
  8
0
 10
31.6488
 20
42.0854
 11
31.7359
 21
42.1005
  0
LINE
  8
0
 10
31.7359
 20
42.1005
 11
31.8236
 21
42.1113
  0
LINE
  8
0
 10
31.8236
 20
42.1113
 11
31.9117
 21
42.1178
  0
LINE
  8
0
 10
31.9117
 20
42.1178
 11
32
 21
42.12
  0
LINE
  8
0
 10
32
 20
42.12
 11
32.0883
 21
42.1178
  0
LINE
  8
0
 10
32.0883
 20
42.1178
 11
32.1764
 21
42.1113
  0
LINE
  8
0
 10
32.1764
 20
42.1113
 11
32.2641
 21
42.1005
  0
LINE
  8
0
 10
32.2641
 20
42.1005
 11
32.3512
 21
42.0854
  0
LINE
  8
0
 10
32.3512
 20
42.0854
 11
32.4374
 21
42.0661
  0
LINE
  8
0
 10
32.4374
 20
42.0661
 11
32.5225
 21
42.0425
  0
LINE
  8
0
 10
32.5225
 20
42.0425
 11
32.6064
 21
42.0148
  0
LINE
  8
0
 10
32.6064
 20
42.0148
 11
32.6888
 21
41.983
  0
LINE
  8
0
 10
32.6888
 20
41.983
 11
32.7696
 21
41.9472
  0
LINE
  8
0
 10
32.7696
 20
41.9472
 11
32.8485
 21
41.9075
  0
LINE
  8
0
 10
32.8485
 20
41.9075
 11
32.9254
 21
41.8639
  0
LINE
  8
0
 10
32.9254
 20
41.8639
 11
33
 21
41.8166
  0
LINE
  8
0
 10
33
 20
41.8166
 11
33.0723
 21
41.7658
  0
LINE
  8
0
 10
33.0723
 20
41.7658
 11
33.1419
 21
41.7114
  0
LINE
  8
0
 10
33.1419
 20
41.7114
 11
33.2088
 21
41.6537
  0
LINE
  8
0
 10
33.2088
 20
41.6537
 11
33.2728
 21
41.5928
  0
LINE
  8
0
 10
33.2728
 20
41.5928
 11
33.3337
 21
41.5288
  0
LINE
  8
0
 10
33.3337
 20
41.5288
 11
33.3914
 21
41.4619
  0
LINE
  8
0
 10
33.3914
 20
41.4619
 11
33.4458
 21
41.3923
  0
LINE
  8
0
 10
33.4458
 20
41.3923
 11
33.4966
 21
41.32
  0
LINE
  8
0
 10
33.4966
 20
41.32
 11
33.5439
 21
41.2454
  0
LINE
  8
0
 10
33.5439
 20
41.2454
 11
33.5875
 21
41.1685
  0
LINE
  8
0
 10
33.5875
 20
41.1685
 11
33.6272
 21
41.0896
  0
LINE
  8
0
 10
33.6272
 20
41.0896
 11
33.663
 21
41.0088
  0
LINE
  8
0
 10
33.663
 20
41.0088
 11
33.6948
 21
40.9264
  0
LINE
  8
0
 10
33.6948
 20
40.9264
 11
33.7225
 21
40.8425
  0
LINE
  8
0
 10
33.7225
 20
40.8425
 11
33.7461
 21
40.7574
  0
LINE
  8
0
 10
33.7461
 20
40.7574
 11
33.7654
 21
40.6712
  0
LINE
  8
0
 10
33.7654
 20
40.6712
 11
33.7805
 21
40.5841
  0
LINE
  8
0
 10
33.7805
 20
40.5841
 11
33.7913
 21
40.4964
  0
LINE
  8
0
 10
33.7913
 20
40.4964
 11
33.7978
 21
40.4083
  0
LINE
  8
0
 10
33.7978
 20
40.4083
 11
33.8
 21
40.32
  0
LINE
  8
0
 10
33.8
 20
40.32
 11
33.7978
 21
40.2317
  0
LINE
  8
0
 10
33.7978
 20
40.2317
 11
33.7913
 21
40.1436
  0
LINE
  8
0
 10
33.7913
 20
40.1436
 11
33.7805
 21
40.0559
  0
LINE
  8
0
 10
33.7805
 20
40.0559
 11
33.7654
 21
39.9688
  0
LINE
  8
0
 10
33.7654
 20
39.9688
 11
33.7461
 21
39.8826
  0
LINE
  8
0
 10
33.7461
 20
39.8826
 11
33.7225
 21
39.7975
  0
LINE
  8
0
 10
33.7225
 20
39.7975
 11
33.6948
 21
39.7136
  0
LINE
  8
0
 10
33.6948
 20
39.7136
 11
33.663
 21
39.6312
  0
LINE
  8
0
 10
33.663
 20
39.6312
 11
33.6272
 21
39.5504
  0
LINE
  8
0
 10
33.6272
 20
39.5504
 11
33.5875
 21
39.4715
  0
LINE
  8
0
 10
33.5875
 20
39.4715
 11
33.5439
 21
39.3946
  0
LINE
  8
0
 10
33.5439
 20
39.3946
 11
33.4966
 21
39.32
  0
LINE
  8
0
 10
33.4966
 20
39.32
 11
33.4458
 21
39.2477
  0
LINE
  8
0
 10
33.4458
 20
39.2477
 11
33.3914
 21
39.1781
  0
LINE
  8
0
 10
33.3914
 20
39.1781
 11
33.3337
 21
39.1112
  0
LINE
  8
0
 10
33.3337
 20
39.1112
 11
33.2728
 21
39.0472
  0
LINE
  8
0
 10
33.2728
 20
39.0472
 11
33.2088
 21
38.9863
  0
LINE
  8
0
 10
33.2088
 20
38.9863
 11
33.1419
 21
38.9286
  0
LINE
  8
0
 10
33.1419
 20
38.9286
 11
33.0723
 21
38.8742
  0
LINE
  8
0
 10
33.0723
 20
38.8742
 11
33
 21
38.8234
  0
LINE
  8
0
 10
33
 20
38.8234
 11
32.9254
 21
38.7761
  0
LINE
  8
0
 10
32.9254
 20
38.7761
 11
32.8485
 21
38.7325
  0
LINE
  8
0
 10
32.8485
 20
38.7325
 11
32.7696
 21
38.6928
  0
LINE
  8
0
 10
32.7696
 20
38.6928
 11
32.6888
 21
38.657
  0
LINE
  8
0
 10
32.6888
 20
38.657
 11
32.6064
 21
38.6252
  0
LINE
  8
0
 10
32.6064
 20
38.6252
 11
32.5225
 21
38.5975
  0
LINE
  8
0
 10
32.5225
 20
38.5975
 11
32.4374
 21
38.5739
  0
LINE
  8
0
 10
32.4374
 20
38.5739
 11
32.3512
 21
38.5546
  0
LINE
  8
0
 10
32.3512
 20
38.5546
 11
32.2641
 21
38.5395
  0
LINE
  8
0
 10
32.2641
 20
38.5395
 11
32.1764
 21
38.5287
  0
LINE
  8
0
 10
32.1764
 20
38.5287
 11
32.0883
 21
38.5222
  0
LINE
  8
0
 10
32.0883
 20
38.5222
 11
32
 21
38.52
  0
LINE
  8
0
 10
32
 20
38.52
 11
31.9117
 21
38.5222
  0
LINE
  8
0
 10
31.9117
 20
38.5222
 11
31.8236
 21
38.5287
  0
LINE
  8
0
 10
31.8236
 20
38.5287
 11
31.7359
 21
38.5395
  0
LINE
  8
0
 10
31.7359
 20
38.5395
 11
31.6488
 21
38.5546
  0
LINE
  8
0
 10
31.6488
 20
38.5546
 11
31.5626
 21
38.5739
  0
LINE
  8
0
 10
31.5626
 20
38.5739
 11
31.4775
 21
38.5975
  0
LINE
  8
0
 10
31.4775
 20
38.5975
 11
31.3936
 21
38.6252
  0
LINE
  8
0
 10
31.3936
 20
38.6252
 11
31.3112
 21
38.657
  0
LINE
  8
0
 10
31.3112
 20
38.657
 11
31.2304
 21
38.6928
  0
LINE
  8
0
 10
31.2304
 20
38.6928
 11
31.1515
 21
38.7325
  0
LINE
  8
0
 10
31.1515
 20
38.7325
 11
31.0746
 21
38.7761
  0
LINE
  8
0
 10
31.0746
 20
38.7761
 11
31
 21
38.8234
  0
LINE
  8
0
 10
31
 20
38.8234
 11
30.9277
 21
38.8742
  0
LINE
  8
0
 10
30.9277
 20
38.8742
 11
30.8581
 21
38.9286
  0
LINE
  8
0
 10
30.8581
 20
38.9286
 11
30.7912
 21
38.9863
  0
LINE
  8
0
 10
30.7912
 20
38.9863
 11
30.7272
 21
39.0472
  0
LINE
  8
0
 10
30.7272
 20
39.0472
 11
30.6663
 21
39.1112
  0
LINE
  8
0
 10
30.6663
 20
39.1112
 11
30.6086
 21
39.1781
  0
LINE
  8
0
 10
30.6086
 20
39.1781
 11
30.5542
 21
39.2477
  0
LINE
  8
0
 10
30.5542
 20
39.2477
 11
30.5034
 21
39.32
  0
LINE
  8
0
 10
30.5034
 20
39.32
 11
30.4561
 21
39.3946
  0
LINE
  8
0
 10
30.4561
 20
39.3946
 11
30.4125
 21
39.4715
  0
LINE
  8
0
 10
30.4125
 20
39.4715
 11
30.3728
 21
39.5504
  0
LINE
  8
0
 10
30.3728
 20
39.5504
 11
30.337
 21
39.6312
  0
LINE
  8
0
 10
30.337
 20
39.6312
 11
30.3052
 21
39.7136
  0
LINE
  8
0
 10
30.3052
 20
39.7136
 11
30.2775
 21
39.7975
  0
LINE
  8
0
 10
30.2775
 20
39.7975
 11
30.2539
 21
39.8826
  0
LINE
  8
0
 10
30.2539
 20
39.8826
 11
30.2346
 21
39.9688
  0
LINE
  8
0
 10
30.2346
 20
39.9688
 11
30.2195
 21
40.0559
  0
LINE
  8
0
 10
30.2195
 20
40.0559
 11
30.2087
 21
40.1436
  0
LINE
  8
0
 10
30.2087
 20
40.1436
 11
30.2022
 21
40.2317
  0
LINE
  8
0
 10
30.2022
 20
40.2317
 11
30.2
 21
40.32
  0
LINE
  8
0
 10
45.7
 20
33.9
 11
45.7022
 21
33.9883
  0
LINE
  8
0
 10
45.7022
 20
33.9883
 11
45.7087
 21
34.0764
  0
LINE
  8
0
 10
45.7087
 20
34.0764
 11
45.7195
 21
34.1641
  0
LINE
  8
0
 10
45.7195
 20
34.1641
 11
45.7346
 21
34.2512
  0
LINE
  8
0
 10
45.7346
 20
34.2512
 11
45.7539
 21
34.3374
  0
LINE
  8
0
 10
45.7539
 20
34.3374
 11
45.7775
 21
34.4225
  0
LINE
  8
0
 10
45.7775
 20
34.4225
 11
45.8052
 21
34.5064
  0
LINE
  8
0
 10
45.8052
 20
34.5064
 11
45.837
 21
34.5888
  0
LINE
  8
0
 10
45.837
 20
34.5888
 11
45.8728
 21
34.6696
  0
LINE
  8
0
 10
45.8728
 20
34.6696
 11
45.9125
 21
34.7485
  0
LINE
  8
0
 10
45.9125
 20
34.7485
 11
45.9561
 21
34.8254
  0
LINE
  8
0
 10
45.9561
 20
34.8254
 11
46.0034
 21
34.9
  0
LINE
  8
0
 10
46.0034
 20
34.9
 11
46.0542
 21
34.9723
  0
LINE
  8
0
 10
46.0542
 20
34.9723
 11
46.1086
 21
35.0419
  0
LINE
  8
0
 10
46.1086
 20
35.0419
 11
46.1663
 21
35.1088
  0
LINE
  8
0
 10
46.1663
 20
35.1088
 11
46.2272
 21
35.1728
  0
LINE
  8
0
 10
46.2272
 20
35.1728
 11
46.2912
 21
35.2337
  0
LINE
  8
0
 10
46.2912
 20
35.2337
 11
46.3581
 21
35.2914
  0
LINE
  8
0
 10
46.3581
 20
35.2914
 11
46.4277
 21
35.3458
  0
LINE
  8
0
 10
46.4277
 20
35.3458
 11
46.5
 21
35.3966
  0
LINE
  8
0
 10
46.5
 20
35.3966
 11
46.5746
 21
35.4439
  0
LINE
  8
0
 10
46.5746
 20
35.4439
 11
46.6515
 21
35.4875
  0
LINE
  8
0
 10
46.6515
 20
35.4875
 11
46.7304
 21
35.5272
  0
LINE
  8
0
 10
46.7304
 20
35.5272
 11
46.8112
 21
35.563
  0
LINE
  8
0
 10
46.8112
 20
35.563
 11
46.8936
 21
35.5948
  0
LINE
  8
0
 10
46.8936
 20
35.5948
 11
46.9775
 21
35.6225
  0
LINE
  8
0
 10
46.9775
 20
35.6225
 11
47.0626
 21
35.6461
  0
LINE
  8
0
 10
47.0626
 20
35.6461
 11
47.1488
 21
35.6654
  0
LINE
  8
0
 10
47.1488
 20
35.6654
 11
47.2359
 21
35.6805
  0
LINE
  8
0
 10
47.2359
 20
35.6805
 11
47.3236
 21
35.6913
  0
LINE
  8
0
 10
47.3236
 20
35.6913
 11
47.4117
 21
35.6978
  0
LINE
  8
0
 10
47.4117
 20
35.6978
 11
47.5
 21
35.7
  0
LINE
  8
0
 10
47.5
 20
35.7
 11
47.5883
 21
35.6978
  0
LINE
  8
0
 10
47.5883
 20
35.6978
 11
47.6764
 21
35.6913
  0
LINE
  8
0
 10
47.6764
 20
35.6913
 11
47.7641
 21
35.6805
  0
LINE
  8
0
 10
47.7641
 20
35.6805
 11
47.8512
 21
35.6654
  0
LINE
  8
0
 10
47.8512
 20
35.6654
 11
47.9374
 21
35.6461
  0
LINE
  8
0
 10
47.9374
 20
35.6461
 11
48.0225
 21
35.6225
  0
LINE
  8
0
 10
48.0225
 20
35.6225
 11
48.1064
 21
35.5948
  0
LINE
  8
0
 10
48.1064
 20
35.5948
 11
48.1888
 21
35.563
  0
LINE
  8
0
 10
48.1888
 20
35.563
 11
48.2696
 21
35.5272
  0
LINE
  8
0
 10
48.2696
 20
35.5272
 11
48.3485
 21
35.4875
  0
LINE
  8
0
 10
48.3485
 20
35.4875
 11
48.4254
 21
35.4439
  0
LINE
  8
0
 10
48.4254
 20
35.4439
 11
48.5
 21
35.3966
  0
LINE
  8
0
 10
48.5
 20
35.3966
 11
48.5723
 21
35.3458
  0
LINE
  8
0
 10
48.5723
 20
35.3458
 11
48.6419
 21
35.2914
  0
LINE
  8
0
 10
48.6419
 20
35.2914
 11
48.7088
 21
35.2337
  0
LINE
  8
0
 10
48.7088
 20
35.2337
 11
48.7728
 21
35.1728
  0
LINE
  8
0
 10
48.7728
 20
35.1728
 11
48.8337
 21
35.1088
  0
LINE
  8
0
 10
48.8337
 20
35.1088
 11
48.8914
 21
35.0419
  0
LINE
  8
0
 10
48.8914
 20
35.0419
 11
48.9458
 21
34.9723
  0
LINE
  8
0
 10
48.9458
 20
34.9723
 11
48.9966
 21
34.9
  0
LINE
  8
0
 10
48.9966
 20
34.9
 11
49.0439
 21
34.8254
  0
LINE
  8
0
 10
49.0439
 20
34.8254
 11
49.0875
 21
34.7485
  0
LINE
  8
0
 10
49.0875
 20
34.7485
 11
49.1272
 21
34.6696
  0
LINE
  8
0
 10
49.1272
 20
34.6696
 11
49.163
 21
34.5888
  0
LINE
  8
0
 10
49.163
 20
34.5888
 11
49.1948
 21
34.5064
  0
LINE
  8
0
 10
49.1948
 20
34.5064
 11
49.2225
 21
34.4225
  0
LINE
  8
0
 10
49.2225
 20
34.4225
 11
49.2461
 21
34.3374
  0
LINE
  8
0
 10
49.2461
 20
34.3374
 11
49.2654
 21
34.2512
  0
LINE
  8
0
 10
49.2654
 20
34.2512
 11
49.2805
 21
34.1641
  0
LINE
  8
0
 10
49.2805
 20
34.1641
 11
49.2913
 21
34.0764
  0
LINE
  8
0
 10
49.2913
 20
34.0764
 11
49.2978
 21
33.9883
  0
LINE
  8
0
 10
49.2978
 20
33.9883
 11
49.3
 21
33.9
  0
LINE
  8
0
 10
49.3
 20
33.9
 11
49.2978
 21
33.8117
  0
LINE
  8
0
 10
49.2978
 20
33.8117
 11
49.2913
 21
33.7236
  0
LINE
  8
0
 10
49.2913
 20
33.7236
 11
49.2805
 21
33.6359
  0
LINE
  8
0
 10
49.2805
 20
33.6359
 11
49.2654
 21
33.5488
  0
LINE
  8
0
 10
49.2654
 20
33.5488
 11
49.2461
 21
33.4626
  0
LINE
  8
0
 10
49.2461
 20
33.4626
 11
49.2225
 21
33.3775
  0
LINE
  8
0
 10
49.2225
 20
33.3775
 11
49.1948
 21
33.2936
  0
LINE
  8
0
 10
49.1948
 20
33.2936
 11
49.163
 21
33.2112
  0
LINE
  8
0
 10
49.163
 20
33.2112
 11
49.1272
 21
33.1304
  0
LINE
  8
0
 10
49.1272
 20
33.1304
 11
49.0875
 21
33.0515
  0
LINE
  8
0
 10
49.0875
 20
33.0515
 11
49.0439
 21
32.9746
  0
LINE
  8
0
 10
49.0439
 20
32.9746
 11
48.9966
 21
32.9
  0
LINE
  8
0
 10
48.9966
 20
32.9
 11
48.9458
 21
32.8277
  0
LINE
  8
0
 10
48.9458
 20
32.8277
 11
48.8914
 21
32.7581
  0
LINE
  8
0
 10
48.8914
 20
32.7581
 11
48.8337
 21
32.6912
  0
LINE
  8
0
 10
48.8337
 20
32.6912
 11
48.7728
 21
32.6272
  0
LINE
  8
0
 10
48.7728
 20
32.6272
 11
48.7088
 21
32.5663
  0
LINE
  8
0
 10
48.7088
 20
32.5663
 11
48.6419
 21
32.5086
  0
LINE
  8
0
 10
48.6419
 20
32.5086
 11
48.5723
 21
32.4542
  0
LINE
  8
0
 10
48.5723
 20
32.4542
 11
48.5
 21
32.4034
  0
LINE
  8
0
 10
48.5
 20
32.4034
 11
48.4254
 21
32.3561
  0
LINE
  8
0
 10
48.4254
 20
32.3561
 11
48.3485
 21
32.3125
  0
LINE
  8
0
 10
48.3485
 20
32.3125
 11
48.2696
 21
32.2728
  0
LINE
  8
0
 10
48.2696
 20
32.2728
 11
48.1888
 21
32.237
  0
LINE
  8
0
 10
48.1888
 20
32.237
 11
48.1064
 21
32.2052
  0
LINE
  8
0
 10
48.1064
 20
32.2052
 11
48.0225
 21
32.1775
  0
LINE
  8
0
 10
48.0225
 20
32.1775
 11
47.9374
 21
32.1539
  0
LINE
  8
0
 10
47.9374
 20
32.1539
 11
47.8512
 21
32.1346
  0
LINE
  8
0
 10
47.8512
 20
32.1346
 11
47.7641
 21
32.1195
  0
LINE
  8
0
 10
47.7641
 20
32.1195
 11
47.6764
 21
32.1087
  0
LINE
  8
0
 10
47.6764
 20
32.1087
 11
47.5883
 21
32.1022
  0
LINE
  8
0
 10
47.5883
 20
32.1022
 11
47.5
 21
32.1
  0
LINE
  8
0
 10
47.5
 20
32.1
 11
47.4117
 21
32.1022
  0
LINE
  8
0
 10
47.4117
 20
32.1022
 11
47.3236
 21
32.1087
  0
LINE
  8
0
 10
47.3236
 20
32.1087
 11
47.2359
 21
32.1195
  0
LINE
  8
0
 10
47.2359
 20
32.1195
 11
47.1488
 21
32.1346
  0
LINE
  8
0
 10
47.1488
 20
32.1346
 11
47.0626
 21
32.1539
  0
LINE
  8
0
 10
47.0626
 20
32.1539
 11
46.9775
 21
32.1775
  0
LINE
  8
0
 10
46.9775
 20
32.1775
 11
46.8936
 21
32.2052
  0
LINE
  8
0
 10
46.8936
 20
32.2052
 11
46.8112
 21
32.237
  0
LINE
  8
0
 10
46.8112
 20
32.237
 11
46.7304
 21
32.2728
  0
LINE
  8
0
 10
46.7304
 20
32.2728
 11
46.6515
 21
32.3125
  0
LINE
  8
0
 10
46.6515
 20
32.3125
 11
46.5746
 21
32.3561
  0
LINE
  8
0
 10
46.5746
 20
32.3561
 11
46.5
 21
32.4034
  0
LINE
  8
0
 10
46.5
 20
32.4034
 11
46.4277
 21
32.4542
  0
LINE
  8
0
 10
46.4277
 20
32.4542
 11
46.3581
 21
32.5086
  0
LINE
  8
0
 10
46.3581
 20
32.5086
 11
46.2912
 21
32.5663
  0
LINE
  8
0
 10
46.2912
 20
32.5663
 11
46.2272
 21
32.6272
  0
LINE
  8
0
 10
46.2272
 20
32.6272
 11
46.1663
 21
32.6912
  0
LINE
  8
0
 10
46.1663
 20
32.6912
 11
46.1086
 21
32.7581
  0
LINE
  8
0
 10
46.1086
 20
32.7581
 11
46.0542
 21
32.8277
  0
LINE
  8
0
 10
46.0542
 20
32.8277
 11
46.0034
 21
32.9
  0
LINE
  8
0
 10
46.0034
 20
32.9
 11
45.9561
 21
32.9746
  0
LINE
  8
0
 10
45.9561
 20
32.9746
 11
45.9125
 21
33.0515
  0
LINE
  8
0
 10
45.9125
 20
33.0515
 11
45.8728
 21
33.1304
  0
LINE
  8
0
 10
45.8728
 20
33.1304
 11
45.837
 21
33.2112
  0
LINE
  8
0
 10
45.837
 20
33.2112
 11
45.8052
 21
33.2936
  0
LINE
  8
0
 10
45.8052
 20
33.2936
 11
45.7775
 21
33.3775
  0
LINE
  8
0
 10
45.7775
 20
33.3775
 11
45.7539
 21
33.4626
  0
LINE
  8
0
 10
45.7539
 20
33.4626
 11
45.7346
 21
33.5488
  0
LINE
  8
0
 10
45.7346
 20
33.5488
 11
45.7195
 21
33.6359
  0
LINE
  8
0
 10
45.7195
 20
33.6359
 11
45.7087
 21
33.7236
  0
LINE
  8
0
 10
45.7087
 20
33.7236
 11
45.7022
 21
33.8117
  0
LINE
  8
0
 10
45.7022
 20
33.8117
 11
45.7
 21
33.9
  0
LINE
  8
0
 10
52.12
 20
18.4
 11
52.1222
 21
18.4883
  0
LINE
  8
0
 10
52.1222
 20
18.4883
 11
52.1287
 21
18.5764
  0
LINE
  8
0
 10
52.1287
 20
18.5764
 11
52.1395
 21
18.6641
  0
LINE
  8
0
 10
52.1395
 20
18.6641
 11
52.1546
 21
18.7512
  0
LINE
  8
0
 10
52.1546
 20
18.7512
 11
52.1739
 21
18.8374
  0
LINE
  8
0
 10
52.1739
 20
18.8374
 11
52.1975
 21
18.9225
  0
LINE
  8
0
 10
52.1975
 20
18.9225
 11
52.2252
 21
19.0064
  0
LINE
  8
0
 10
52.2252
 20
19.0064
 11
52.257
 21
19.0888
  0
LINE
  8
0
 10
52.257
 20
19.0888
 11
52.2928
 21
19.1696
  0
LINE
  8
0
 10
52.2928
 20
19.1696
 11
52.3325
 21
19.2485
  0
LINE
  8
0
 10
52.3325
 20
19.2485
 11
52.3761
 21
19.3254
  0
LINE
  8
0
 10
52.3761
 20
19.3254
 11
52.4234
 21
19.4
  0
LINE
  8
0
 10
52.4234
 20
19.4
 11
52.4742
 21
19.4723
  0
LINE
  8
0
 10
52.4742
 20
19.4723
 11
52.5286
 21
19.5419
  0
LINE
  8
0
 10
52.5286
 20
19.5419
 11
52.5863
 21
19.6088
  0
LINE
  8
0
 10
52.5863
 20
19.6088
 11
52.6472
 21
19.6728
  0
LINE
  8
0
 10
52.6472
 20
19.6728
 11
52.7112
 21
19.7337
  0
LINE
  8
0
 10
52.7112
 20
19.7337
 11
52.7781
 21
19.7914
  0
LINE
  8
0
 10
52.7781
 20
19.7914
 11
52.8477
 21
19.8458
  0
LINE
  8
0
 10
52.8477
 20
19.8458
 11
52.92
 21
19.8966
  0
LINE
  8
0
 10
52.92
 20
19.8966
 11
52.9946
 21
19.9439
  0
LINE
  8
0
 10
52.9946
 20
19.9439
 11
53.0715
 21
19.9875
  0
LINE
  8
0
 10
53.0715
 20
19.9875
 11
53.1504
 21
20.0272
  0
LINE
  8
0
 10
53.1504
 20
20.0272
 11
53.2312
 21
20.063
  0
LINE
  8
0
 10
53.2312
 20
20.063
 11
53.3136
 21
20.0948
  0
LINE
  8
0
 10
53.3136
 20
20.0948
 11
53.3975
 21
20.1225
  0
LINE
  8
0
 10
53.3975
 20
20.1225
 11
53.4826
 21
20.1461
  0
LINE
  8
0
 10
53.4826
 20
20.1461
 11
53.5688
 21
20.1654
  0
LINE
  8
0
 10
53.5688
 20
20.1654
 11
53.6559
 21
20.1805
  0
LINE
  8
0
 10
53.6559
 20
20.1805
 11
53.7436
 21
20.1913
  0
LINE
  8
0
 10
53.7436
 20
20.1913
 11
53.8317
 21
20.1978
  0
LINE
  8
0
 10
53.8317
 20
20.1978
 11
53.92
 21
20.2
  0
LINE
  8
0
 10
53.92
 20
20.2
 11
54.0083
 21
20.1978
  0
LINE
  8
0
 10
54.0083
 20
20.1978
 11
54.0964
 21
20.1913
  0
LINE
  8
0
 10
54.0964
 20
20.1913
 11
54.1841
 21
20.1805
  0
LINE
  8
0
 10
54.1841
 20
20.1805
 11
54.2712
 21
20.1654
  0
LINE
  8
0
 10
54.2712
 20
20.1654
 11
54.3574
 21
20.1461
  0
LINE
  8
0
 10
54.3574
 20
20.1461
 11
54.4425
 21
20.1225
  0
LINE
  8
0
 10
54.4425
 20
20.1225
 11
54.5264
 21
20.0948
  0
LINE
  8
0
 10
54.5264
 20
20.0948
 11
54.6088
 21
20.063
  0
LINE
  8
0
 10
54.6088
 20
20.063
 11
54.6896
 21
20.0272
  0
LINE
  8
0
 10
54.6896
 20
20.0272
 11
54.7685
 21
19.9875
  0
LINE
  8
0
 10
54.7685
 20
19.9875
 11
54.8454
 21
19.9439
  0
LINE
  8
0
 10
54.8454
 20
19.9439
 11
54.92
 21
19.8966
  0
LINE
  8
0
 10
54.92
 20
19.8966
 11
54.9923
 21
19.8458
  0
LINE
  8
0
 10
54.9923
 20
19.8458
 11
55.0619
 21
19.7914
  0
LINE
  8
0
 10
55.0619
 20
19.7914
 11
55.1288
 21
19.7337
  0
LINE
  8
0
 10
55.1288
 20
19.7337
 11
55.1928
 21
19.6728
  0
LINE
  8
0
 10
55.1928
 20
19.6728
 11
55.2537
 21
19.6088
  0
LINE
  8
0
 10
55.2537
 20
19.6088
 11
55.3114
 21
19.5419
  0
LINE
  8
0
 10
55.3114
 20
19.5419
 11
55.3658
 21
19.4723
  0
LINE
  8
0
 10
55.3658
 20
19.4723
 11
55.4166
 21
19.4
  0
LINE
  8
0
 10
55.4166
 20
19.4
 11
55.4639
 21
19.3254
  0
LINE
  8
0
 10
55.4639
 20
19.3254
 11
55.5075
 21
19.2485
  0
LINE
  8
0
 10
55.5075
 20
19.2485
 11
55.5472
 21
19.1696
  0
LINE
  8
0
 10
55.5472
 20
19.1696
 11
55.583
 21
19.0888
  0
LINE
  8
0
 10
55.583
 20
19.0888
 11
55.6148
 21
19.0064
  0
LINE
  8
0
 10
55.6148
 20
19.0064
 11
55.6425
 21
18.9225
  0
LINE
  8
0
 10
55.6425
 20
18.9225
 11
55.6661
 21
18.8374
  0
LINE
  8
0
 10
55.6661
 20
18.8374
 11
55.6854
 21
18.7512
  0
LINE
  8
0
 10
55.6854
 20
18.7512
 11
55.7005
 21
18.6641
  0
LINE
  8
0
 10
55.7005
 20
18.6641
 11
55.7113
 21
18.5764
  0
LINE
  8
0
 10
55.7113
 20
18.5764
 11
55.7178
 21
18.4883
  0
LINE
  8
0
 10
55.7178
 20
18.4883
 11
55.72
 21
18.4
  0
LINE
  8
0
 10
55.72
 20
18.4
 11
55.7178
 21
18.3117
  0
LINE
  8
0
 10
55.7178
 20
18.3117
 11
55.7113
 21
18.2236
  0
LINE
  8
0
 10
55.7113
 20
18.2236
 11
55.7005
 21
18.1359
  0
LINE
  8
0
 10
55.7005
 20
18.1359
 11
55.6854
 21
18.0488
  0
LINE
  8
0
 10
55.6854
 20
18.0488
 11
55.6661
 21
17.9626
  0
LINE
  8
0
 10
55.6661
 20
17.9626
 11
55.6425
 21
17.8775
  0
LINE
  8
0
 10
55.6425
 20
17.8775
 11
55.6148
 21
17.7936
  0
LINE
  8
0
 10
55.6148
 20
17.7936
 11
55.583
 21
17.7112
  0
LINE
  8
0
 10
55.583
 20
17.7112
 11
55.5472
 21
17.6304
  0
LINE
  8
0
 10
55.5472
 20
17.6304
 11
55.5075
 21
17.5515
  0
LINE
  8
0
 10
55.5075
 20
17.5515
 11
55.4639
 21
17.4746
  0
LINE
  8
0
 10
55.4639
 20
17.4746
 11
55.4166
 21
17.4
  0
LINE
  8
0
 10
55.4166
 20
17.4
 11
55.3658
 21
17.3277
  0
LINE
  8
0
 10
55.3658
 20
17.3277
 11
55.3114
 21
17.2581
  0
LINE
  8
0
 10
55.3114
 20
17.2581
 11
55.2537
 21
17.1912
  0
LINE
  8
0
 10
55.2537
 20
17.1912
 11
55.1928
 21
17.1272
  0
LINE
  8
0
 10
55.1928
 20
17.1272
 11
55.1288
 21
17.0663
  0
LINE
  8
0
 10
55.1288
 20
17.0663
 11
55.0619
 21
17.0086
  0
LINE
  8
0
 10
55.0619
 20
17.0086
 11
54.9923
 21
16.9542
  0
LINE
  8
0
 10
54.9923
 20
16.9542
 11
54.92
 21
16.9034
  0
LINE
  8
0
 10
54.92
 20
16.9034
 11
54.8454
 21
16.8561
  0
LINE
  8
0
 10
54.8454
 20
16.8561
 11
54.7685
 21
16.8125
  0
LINE
  8
0
 10
54.7685
 20
16.8125
 11
54.6896
 21
16.7728
  0
LINE
  8
0
 10
54.6896
 20
16.7728
 11
54.6088
 21
16.737
  0
LINE
  8
0
 10
54.6088
 20
16.737
 11
54.5264
 21
16.7052
  0
LINE
  8
0
 10
54.5264
 20
16.7052
 11
54.4425
 21
16.6775
  0
LINE
  8
0
 10
54.4425
 20
16.6775
 11
54.3574
 21
16.6539
  0
LINE
  8
0
 10
54.3574
 20
16.6539
 11
54.2712
 21
16.6346
  0
LINE
  8
0
 10
54.2712
 20
16.6346
 11
54.1841
 21
16.6195
  0
LINE
  8
0
 10
54.1841
 20
16.6195
 11
54.0964
 21
16.6087
  0
LINE
  8
0
 10
54.0964
 20
16.6087
 11
54.0083
 21
16.6022
  0
LINE
  8
0
 10
54.0083
 20
16.6022
 11
53.92
 21
16.6
  0
LINE
  8
0
 10
53.92
 20
16.6
 11
53.8317
 21
16.6022
  0
LINE
  8
0
 10
53.8317
 20
16.6022
 11
53.7436
 21
16.6087
  0
LINE
  8
0
 10
53.7436
 20
16.6087
 11
53.6559
 21
16.6195
  0
LINE
  8
0
 10
53.6559
 20
16.6195
 11
53.5688
 21
16.6346
  0
LINE
  8
0
 10
53.5688
 20
16.6346
 11
53.4826
 21
16.6539
  0
LINE
  8
0
 10
53.4826
 20
16.6539
 11
53.3975
 21
16.6775
  0
LINE
  8
0
 10
53.3975
 20
16.6775
 11
53.3136
 21
16.7052
  0
LINE
  8
0
 10
53.3136
 20
16.7052
 11
53.2312
 21
16.737
  0
LINE
  8
0
 10
53.2312
 20
16.737
 11
53.1504
 21
16.7728
  0
LINE
  8
0
 10
53.1504
 20
16.7728
 11
53.0715
 21
16.8125
  0
LINE
  8
0
 10
53.0715
 20
16.8125
 11
52.9946
 21
16.8561
  0
LINE
  8
0
 10
52.9946
 20
16.8561
 11
52.92
 21
16.9034
  0
LINE
  8
0
 10
52.92
 20
16.9034
 11
52.8477
 21
16.9542
  0
LINE
  8
0
 10
52.8477
 20
16.9542
 11
52.7781
 21
17.0086
  0
LINE
  8
0
 10
52.7781
 20
17.0086
 11
52.7112
 21
17.0663
  0
LINE
  8
0
 10
52.7112
 20
17.0663
 11
52.6472
 21
17.1272
  0
LINE
  8
0
 10
52.6472
 20
17.1272
 11
52.5863
 21
17.1912
  0
LINE
  8
0
 10
52.5863
 20
17.1912
 11
52.5286
 21
17.2581
  0
LINE
  8
0
 10
52.5286
 20
17.2581
 11
52.4742
 21
17.3277
  0
LINE
  8
0
 10
52.4742
 20
17.3277
 11
52.4234
 21
17.4
  0
LINE
  8
0
 10
52.4234
 20
17.4
 11
52.3761
 21
17.4746
  0
LINE
  8
0
 10
52.3761
 20
17.4746
 11
52.3325
 21
17.5515
  0
LINE
  8
0
 10
52.3325
 20
17.5515
 11
52.2928
 21
17.6304
  0
LINE
  8
0
 10
52.2928
 20
17.6304
 11
52.257
 21
17.7112
  0
LINE
  8
0
 10
52.257
 20
17.7112
 11
52.2252
 21
17.7936
  0
LINE
  8
0
 10
52.2252
 20
17.7936
 11
52.1975
 21
17.8775
  0
LINE
  8
0
 10
52.1975
 20
17.8775
 11
52.1739
 21
17.9626
  0
LINE
  8
0
 10
52.1739
 20
17.9626
 11
52.1546
 21
18.0488
  0
LINE
  8
0
 10
52.1546
 20
18.0488
 11
52.1395
 21
18.1359
  0
LINE
  8
0
 10
52.1395
 20
18.1359
 11
52.1287
 21
18.2236
  0
LINE
  8
0
 10
52.1287
 20
18.2236
 11
52.1222
 21
18.3117
  0
LINE
  8
0
 10
52.1222
 20
18.3117
 11
52.12
 21
18.4
  0
ENDSEC
  0
SECTION
  2
OBJECTS
  0
DICTIONARY
  0
ENDSEC
  0
EOF
