  0
SECTION
  2
HEADER
  9
$ACADVER
  1
AC1014
  9
$HANDSEED
  5
FFFF
  9
$MEASUREMENT
 70
     1
  0
ENDSEC
  0
SECTION
  2
TABLES
  0
TABLE
  2
VPORT
  5
8
330
0
100
AcDbSymbolTable
 70
     4
  0
VPORT
  5
2E
330
8
100
AcDbSymbolTableRecord
100
AcDbViewportTableRecord
  2
*ACTIVE
 70
     0
 10
0.0
 20
0.0
 11
1.0
 21
1.0
 12
210.0
 22
148.5
 13
0.0
 23
0.0
 14
10.0
 24
10.0
 15
10.0
 25
10.0
 16
0.0
 26
0.0
 36
1.0
 17
0.0
 27
0.0
 37
0.0
 40
341.0
 41
1.24
 42
50.0
 43
0.0
 44
0.0
 50
0.0
 51
0.0
 71
     0
 72
   100
 73
     1
 74
     3
 75
     0
 76
     0
 77
     0
 78
     0
  0
ENDTAB
  0
TABLE
  2
LTYPE
  5
5
330
0
100
AcDbSymbolTable
 70
     1
  0
LTYPE
  5
14
330
5
100
AcDbSymbolTableRecord
100
AcDbLinetypeTableRecord
  2
BYBLOCK
 70
     0
  3

 72
    65
 73
     0
 40
0.0
  0
LTYPE
  5
15
330
5
100
AcDbSymbolTableRecord
100
AcDbLinetypeTableRecord
  2
BYLAYER
 70
     0
  3

 72
    65
 73
     0
 40
0.0
  0
LTYPE
  5
16
330
5
100
AcDbSymbolTableRecord
100
AcDbLinetypeTableRecord
  2
CONTINUOUS
 70
     0
  3
Solid line
 72
    65
 73
     0
 40
0.0
  0
ENDTAB
  0
TABLE
  2
LAYER
  5
2
100
AcDbSymbolTable
 70
2
  0
LAYER
  5
50
100
AcDbSymbolTableRecord
100
AcDbLayerTableRecord
  2
0
 70
0
  6
CONTINUOUS
  0
LAYER
  5
51
100
AcDbSymbolTableRecord
100
AcDbLayerTableRecord
  2
oshw_logo
 70
0
  6
CONTINUOUS
  0
ENDTAB
  0
TABLE
  2
STYLE
  5
3
330
0
100
AcDbSymbolTable
 70
     1
  0
STYLE
  5
11
330
3
100
AcDbSymbolTableRecord
100
AcDbTextStyleTableRecord
  2
STANDARD
 70
     0
 40
0.0
 41
1.0
 50
0.0
 71
     0
 42
2.5
  3
txt
  4

  0
ENDTAB
  0
TABLE
  2
VIEW
  5
6
330
0
100
AcDbSymbolTable
 70
     0
  0
ENDTAB
  0
TABLE
  2
UCS
  5
7
330
0
100
AcDbSymbolTable
 70
     0
  0
ENDTAB
  0
TABLE
  2
APPID
  5
9
330
0
100
AcDbSymbolTable
 70
     2
  0
APPID
  5
12
330
9
100
AcDbSymbolTableRecord
100
AcDbRegAppTableRecord
  2
ACAD
 70
     0
  0
ENDTAB
  0
TABLE
  2
DIMSTYLE
  5
A
330
0
100
AcDbSymbolTable
 70
     1
  0
DIMSTYLE
105
27
330
A
100
AcDbSymbolTableRecord
100
AcDbDimStyleTableRecord
  2
ISO-25
 70
     0
  3

  4

  5

  6

  7

 40
1.0
 41
2.5
 42
0.625
 43
3.75
 44
1.25
 45
0.0
 46
0.0
 47
0.0
 48
0.0
140
2.5
141
2.5
142
0.0
143
0.03937007874016
144
1.0
145
0.0
146
1.0
147
0.625
 71
     0
 72
     0
 73
     0
 74
     0
 75
     0
 76
     0
 77
     1
 78
     8
170
     0
171
     3
172
     1
173
     0
174
     0
175
     0
176
     0
177
     0
178
     0
270
     2
271
     2
272
     2
273
     2
274
     3
340
11
275
     0
280
     0
281
     0
282
     0
283
     0
284
     8
285
     0
286
     0
287
     3
288
     0
  0
ENDTAB
  0
TABLE
  2
BLOCK_RECORD
  5
1
330
0
100
AcDbSymbolTable
 70
     1
  0
BLOCK_RECORD
  5
1F
330
1
100
AcDbSymbolTableRecord
100
AcDbBlockTableRecord
  2
*MODEL_SPACE
  0
BLOCK_RECORD
  5
1B
330
1
100
AcDbSymbolTableRecord
100
AcDbBlockTableRecord
  2
*PAPER_SPACE
  0
ENDTAB
  0
ENDSEC
  0
SECTION
  2
BLOCKS
  0
BLOCK
  5
20
330
1F
100
AcDbEntity
  8
0
100
AcDbBlockBegin
  2
*MODEL_SPACE
 70
     0
 10
0.0
 20
0.0
 30
0.0
  3
*MODEL_SPACE
  1

  0
ENDBLK
  5
21
330
1F
100
AcDbEntity
  8
0
100
AcDbBlockEnd
  0
BLOCK
  5
1C
330
1B
100
AcDbEntity
 67
     1
  8
0
100
AcDbBlockBegin
  2
*PAPER_SPACE
  1

  0
ENDBLK
  5
1D
330
1B
100
AcDbEntity
 67
     1
  8
0
100
AcDbBlockEnd
  0
ENDSEC
  0
SECTION
  2
ENTITIES
  0
LINE
  5
100
100
AcDbEntity
  8
0
 62
7
100
AcDbLine
 10
0.000000
 20
190.000003
 30
0.0
 11
439.999995
 21
190.000003
 31
0.0
  0
LINE
  5
101
100
AcDbEntity
  8
0
 62
7
100
AcDbLine
 10
439.999995
 20
190.000003
 30
0.0
 11
439.999995
 21
0.000002
 31
0.0
  0
LINE
  5
102
100
AcDbEntity
  8
0
 62
7
100
AcDbLine
 10
439.999995
 20
0.000002
 30
0.0
 11
0.000000
 21
0.000002
 31
0.0
  0
LINE
  5
103
100
AcDbEntity
  8
0
 62
7
100
AcDbLine
 10
0.000000
 20
0.000002
 30
0.0
 11
0.000000
 21
190.000003
 31
0.0
  0
SPLINE
  5
104
100
AcDbEntity
  8
0
 62
7
100
AcDbSpline
 70
8
 71
3
 72
8
 73
4
 74
0
 40
0
 40
0
 40
0
 40
0
 40
1
 40
1
 40
1
 40
1
 10
12.500000
 20
25.000008
 30
0.0
 10
12.500212
 20
24.106703
 30
0.0
 10
12.023761
 20
23.281164
 30
0.0
 10
11.250171
 20
22.834450
 30
0.0
  0
SPLINE
  5
105
100
AcDbEntity
  8
0
 62
7
100
AcDbSpline
 70
8
 71
3
 72
8
 73
4
 74
0
 40
0
 40
0
 40
0
 40
0
 40
1
 40
1
 40
1
 40
1
 10
11.250171
 20
22.834450
 30
0.0
 10
10.476582
 20
22.387736
 30
0.0
 10
9.523418
 20
22.387736
 30
0.0
 10
8.749828
 20
22.834450
 30
0.0
  0
SPLINE
  5
106
100
AcDbEntity
  8
0
 62
7
100
AcDbSpline
 70
8
 71
3
 72
8
 73
4
 74
0
 40
0
 40
0
 40
0
 40
0
 40
1
 40
1
 40
1
 40
1
 10
8.749828
 20
22.834450
 30
0.0
 10
7.976239
 20
23.281164
 30
0.0
 10
7.499788
 20
24.106703
 30
0.0
 10
7.500000
 20
25.000008
 30
0.0
  0
SPLINE
  5
107
100
AcDbEntity
  8
0
 62
7
100
AcDbSpline
 70
8
 71
3
 72
8
 73
4
 74
0
 40
0
 40
0
 40
0
 40
0
 40
1
 40
1
 40
1
 40
1
 10
7.500000
 20
25.000008
 30
0.0
 10
7.499788
 20
25.893314
 30
0.0
 10
7.976239
 20
26.718853
 30
0.0
 10
8.749828
 20
27.165567
 30
0.0
  0
SPLINE
  5
108
100
AcDbEntity
  8
0
 62
7
100
AcDbSpline
 70
8
 71
3
 72
8
 73
4
 74
0
 40
0
 40
0
 40
0
 40
0
 40
1
 40
1
 40
1
 40
1
 10
8.749828
 20
27.165567
 30
0.0
 10
9.523418
 20
27.612281
 30
0.0
 10
10.476582
 20
27.612281
 30
0.0
 10
11.250171
 20
27.165567
 30
0.0
  0
SPLINE
  5
109
100
AcDbEntity
  8
0
 62
7
100
AcDbSpline
 70
8
 71
3
 72
8
 73
4
 74
0
 40
0
 40
0
 40
0
 40
0
 40
1
 40
1
 40
1
 40
1
 10
11.250171
 20
27.165567
 30
0.0
 10
12.023761
 20
26.718853
 30
0.0
 10
12.500212
 20
25.893314
 30
0.0
 10
12.500000
 20
25.000008
 30
0.0
  0
LINE
  5
10a
100
AcDbEntity
  8
0
 62
7
100
AcDbLine
 10
12.500000
 20
25.000008
 30
0.0
 11
12.500000
 21
25.000008
 31
0.0
  0
SPLINE
  5
10b
100
AcDbEntity
  8
0
 62
7
100
AcDbSpline
 70
8
 71
3
 72
8
 73
4
 74
0
 40
0
 40
0
 40
0
 40
0
 40
1
 40
1
 40
1
 40
1
 10
12.500000
 20
165.000005
 30
0.0
 10
12.500212
 20
164.106699
 30
0.0
 10
12.023761
 20
163.281160
 30
0.0
 10
11.250171
 20
162.834446
 30
0.0
  0
SPLINE
  5
10c
100
AcDbEntity
  8
0
 62
7
100
AcDbSpline
 70
8
 71
3
 72
8
 73
4
 74
0
 40
0
 40
0
 40
0
 40
0
 40
1
 40
1
 40
1
 40
1
 10
11.250171
 20
162.834446
 30
0.0
 10
10.476582
 20
162.387732
 30
0.0
 10
9.523418
 20
162.387732
 30
0.0
 10
8.749828
 20
162.834446
 30
0.0
  0
SPLINE
  5
10d
100
AcDbEntity
  8
0
 62
7
100
AcDbSpline
 70
8
 71
3
 72
8
 73
4
 74
0
 40
0
 40
0
 40
0
 40
0
 40
1
 40
1
 40
1
 40
1
 10
8.749828
 20
162.834446
 30
0.0
 10
7.976239
 20
163.281160
 30
0.0
 10
7.499788
 20
164.106699
 30
0.0
 10
7.500000
 20
165.000005
 30
0.0
  0
SPLINE
  5
10e
100
AcDbEntity
  8
0
 62
7
100
AcDbSpline
 70
8
 71
3
 72
8
 73
4
 74
0
 40
0
 40
0
 40
0
 40
0
 40
1
 40
1
 40
1
 40
1
 10
7.500000
 20
165.000005
 30
0.0
 10
7.499788
 20
165.893310
 30
0.0
 10
7.976239
 20
166.718849
 30
0.0
 10
8.749828
 20
167.165563
 30
0.0
  0
SPLINE
  5
10f
100
AcDbEntity
  8
0
 62
7
100
AcDbSpline
 70
8
 71
3
 72
8
 73
4
 74
0
 40
0
 40
0
 40
0
 40
0
 40
1
 40
1
 40
1
 40
1
 10
8.749828
 20
167.165563
 30
0.0
 10
9.523418
 20
167.612277
 30
0.0
 10
10.476582
 20
167.612277
 30
0.0
 10
11.250171
 20
167.165563
 30
0.0
  0
SPLINE
  5
110
100
AcDbEntity
  8
0
 62
7
100
AcDbSpline
 70
8
 71
3
 72
8
 73
4
 74
0
 40
0
 40
0
 40
0
 40
0
 40
1
 40
1
 40
1
 40
1
 10
11.250171
 20
167.165563
 30
0.0
 10
12.023761
 20
166.718849
 30
0.0
 10
12.500212
 20
165.893310
 30
0.0
 10
12.500000
 20
165.000005
 30
0.0
  0
LINE
  5
111
100
AcDbEntity
  8
0
 62
7
100
AcDbLine
 10
12.500000
 20
165.000005
 30
0.0
 11
12.500000
 21
165.000005
 31
0.0
  0
SPLINE
  5
112
100
AcDbEntity
  8
0
 62
7
100
AcDbSpline
 70
8
 71
3
 72
8
 73
4
 74
0
 40
0
 40
0
 40
0
 40
0
 40
1
 40
1
 40
1
 40
1
 10
432.499978
 20
25.000008
 30
0.0
 10
432.500190
 20
24.106703
 30
0.0
 10
432.023739
 20
23.281164
 30
0.0
 10
431.250149
 20
22.834450
 30
0.0
  0
SPLINE
  5
113
100
AcDbEntity
  8
0
 62
7
100
AcDbSpline
 70
8
 71
3
 72
8
 73
4
 74
0
 40
0
 40
0
 40
0
 40
0
 40
1
 40
1
 40
1
 40
1
 10
431.250149
 20
22.834450
 30
0.0
 10
430.476559
 20
22.387736
 30
0.0
 10
429.523396
 20
22.387736
 30
0.0
 10
428.749806
 20
22.834450
 30
0.0
  0
SPLINE
  5
114
100
AcDbEntity
  8
0
 62
7
100
AcDbSpline
 70
8
 71
3
 72
8
 73
4
 74
0
 40
0
 40
0
 40
0
 40
0
 40
1
 40
1
 40
1
 40
1
 10
428.749806
 20
22.834450
 30
0.0
 10
427.976216
 20
23.281164
 30
0.0
 10
427.499765
 20
24.106703
 30
0.0
 10
427.499978
 20
25.000008
 30
0.0
  0
SPLINE
  5
115
100
AcDbEntity
  8
0
 62
7
100
AcDbSpline
 70
8
 71
3
 72
8
 73
4
 74
0
 40
0
 40
0
 40
0
 40
0
 40
1
 40
1
 40
1
 40
1
 10
427.499978
 20
25.000008
 30
0.0
 10
427.499765
 20
25.893314
 30
0.0
 10
427.976216
 20
26.718853
 30
0.0
 10
428.749806
 20
27.165567
 30
0.0
  0
SPLINE
  5
116
100
AcDbEntity
  8
0
 62
7
100
AcDbSpline
 70
8
 71
3
 72
8
 73
4
 74
0
 40
0
 40
0
 40
0
 40
0
 40
1
 40
1
 40
1
 40
1
 10
428.749806
 20
27.165567
 30
0.0
 10
429.523396
 20
27.612281
 30
0.0
 10
430.476559
 20
27.612281
 30
0.0
 10
431.250149
 20
27.165567
 30
0.0
  0
SPLINE
  5
117
100
AcDbEntity
  8
0
 62
7
100
AcDbSpline
 70
8
 71
3
 72
8
 73
4
 74
0
 40
0
 40
0
 40
0
 40
0
 40
1
 40
1
 40
1
 40
1
 10
431.250149
 20
27.165567
 30
0.0
 10
432.023739
 20
26.718853
 30
0.0
 10
432.500190
 20
25.893314
 30
0.0
 10
432.499978
 20
25.000008
 30
0.0
  0
LINE
  5
118
100
AcDbEntity
  8
0
 62
7
100
AcDbLine
 10
432.499978
 20
25.000008
 30
0.0
 11
432.499978
 21
25.000008
 31
0.0
  0
SPLINE
  5
119
100
AcDbEntity
  8
0
 62
7
100
AcDbSpline
 70
8
 71
3
 72
8
 73
4
 74
0
 40
0
 40
0
 40
0
 40
0
 40
1
 40
1
 40
1
 40
1
 10
432.499978
 20
165.000005
 30
0.0
 10
432.500190
 20
164.106699
 30
0.0
 10
432.023739
 20
163.281160
 30
0.0
 10
431.250149
 20
162.834446
 30
0.0
  0
SPLINE
  5
11a
100
AcDbEntity
  8
0
 62
7
100
AcDbSpline
 70
8
 71
3
 72
8
 73
4
 74
0
 40
0
 40
0
 40
0
 40
0
 40
1
 40
1
 40
1
 40
1
 10
431.250149
 20
162.834446
 30
0.0
 10
430.476559
 20
162.387732
 30
0.0
 10
429.523396
 20
162.387732
 30
0.0
 10
428.749806
 20
162.834446
 30
0.0
  0
SPLINE
  5
11b
100
AcDbEntity
  8
0
 62
7
100
AcDbSpline
 70
8
 71
3
 72
8
 73
4
 74
0
 40
0
 40
0
 40
0
 40
0
 40
1
 40
1
 40
1
 40
1
 10
428.749806
 20
162.834446
 30
0.0
 10
427.976216
 20
163.281160
 30
0.0
 10
427.499765
 20
164.106699
 30
0.0
 10
427.499978
 20
165.000005
 30
0.0
  0
SPLINE
  5
11c
100
AcDbEntity
  8
0
 62
7
100
AcDbSpline
 70
8
 71
3
 72
8
 73
4
 74
0
 40
0
 40
0
 40
0
 40
0
 40
1
 40
1
 40
1
 40
1
 10
427.499978
 20
165.000005
 30
0.0
 10
427.499765
 20
165.893310
 30
0.0
 10
427.976216
 20
166.718849
 30
0.0
 10
428.749806
 20
167.165563
 30
0.0
  0
SPLINE
  5
11d
100
AcDbEntity
  8
0
 62
7
100
AcDbSpline
 70
8
 71
3
 72
8
 73
4
 74
0
 40
0
 40
0
 40
0
 40
0
 40
1
 40
1
 40
1
 40
1
 10
428.749806
 20
167.165563
 30
0.0
 10
429.523396
 20
167.612277
 30
0.0
 10
430.476559
 20
167.612277
 30
0.0
 10
431.250149
 20
167.165563
 30
0.0
  0
SPLINE
  5
11e
100
AcDbEntity
  8
0
 62
7
100
AcDbSpline
 70
8
 71
3
 72
8
 73
4
 74
0
 40
0
 40
0
 40
0
 40
0
 40
1
 40
1
 40
1
 40
1
 10
431.250149
 20
167.165563
 30
0.0
 10
432.023739
 20
166.718849
 30
0.0
 10
432.500190
 20
165.893310
 30
0.0
 10
432.499978
 20
165.000005
 30
0.0
  0
LINE
  5
11f
100
AcDbEntity
  8
0
 62
7
100
AcDbLine
 10
432.499978
 20
165.000005
 30
0.0
 11
432.499978
 21
165.000005
 31
0.0
  0
SPLINE
  5
120
100
AcDbEntity
  8
oshw_logo
 62
7
100
AcDbSpline
 70
8
 71
3
 72
8
 73
4
 74
0
 40
0
 40
0
 40
0
 40
0
 40
1
 40
1
 40
1
 40
1
 10
36.081163
 20
75.698483
 30
0.0
 10
36.354283
 20
75.212473
 30
0.0
 10
36.721675
 20
74.817591
 30
0.0
 10
37.183387
 20
74.513841
 30
0.0
  0
SPLINE
  5
121
100
AcDbEntity
  8
oshw_logo
 62
7
100
AcDbSpline
 70
8
 71
3
 72
8
 73
4
 74
0
 40
0
 40
0
 40
0
 40
0
 40
1
 40
1
 40
1
 40
1
 10
37.183387
 20
74.513841
 30
0.0
 10
37.645072
 20
74.210085
 30
0.0
 10
38.158536
 20
74.058207
 30
0.0
 10
38.723728
 20
74.058207
 30
0.0
  0
SPLINE
  5
122
100
AcDbEntity
  8
oshw_logo
 62
7
100
AcDbSpline
 70
8
 71
3
 72
8
 73
4
 74
0
 40
0
 40
0
 40
0
 40
0
 40
1
 40
1
 40
1
 40
1
 10
38.723728
 20
74.058207
 30
0.0
 10
39.147462
 20
74.058207
 30
0.0
 10
39.543039
 20
74.144626
 30
0.0
 10
39.910453
 20
74.317468
 30
0.0
  0
SPLINE
  5
123
100
AcDbEntity
  8
oshw_logo
 62
7
100
AcDbSpline
 70
8
 71
3
 72
8
 73
4
 74
0
 40
0
 40
0
 40
0
 40
0
 40
1
 40
1
 40
1
 40
1
 10
39.910453
 20
74.317468
 30
0.0
 10
40.277844
 20
74.490309
 30
0.0
 10
40.598175
 20
74.723972
 30
0.0
 10
40.871448
 20
75.018457
 30
0.0
  0
SPLINE
  5
124
100
AcDbEntity
  8
oshw_logo
 62
7
100
AcDbSpline
 70
8
 71
3
 72
8
 73
4
 74
0
 40
0
 40
0
 40
0
 40
0
 40
1
 40
1
 40
1
 40
1
 10
40.871448
 20
75.018457
 30
0.0
 10
41.144695
 20
75.312942
 30
0.0
 10
41.361394
 20
75.658766
 30
0.0
 10
41.521499
 20
76.055928
 30
0.0
  0
SPLINE
  5
125
100
AcDbEntity
  8
oshw_logo
 62
7
100
AcDbSpline
 70
8
 71
3
 72
8
 73
4
 74
0
 40
0
 40
0
 40
0
 40
0
 40
1
 40
1
 40
1
 40
1
 10
41.521499
 20
76.055928
 30
0.0
 10
41.681651
 20
76.453091
 30
0.0
 10
41.761715
 20
76.875993
 30
0.0
 10
41.761715
 20
77.324639
 30
0.0
  0
SPLINE
  5
126
100
AcDbEntity
  8
oshw_logo
 62
7
100
AcDbSpline
 70
8
 71
3
 72
8
 73
4
 74
0
 40
0
 40
0
 40
0
 40
0
 40
1
 40
1
 40
1
 40
1
 10
41.761715
 20
77.324639
 30
0.0
 10
41.761715
 20
77.773282
 30
0.0
 10
41.681651
 20
78.193829
 30
0.0
 10
41.521499
 20
78.586293
 30
0.0
  0
SPLINE
  5
127
100
AcDbEntity
  8
oshw_logo
 62
7
100
AcDbSpline
 70
8
 71
3
 72
8
 73
4
 74
0
 40
0
 40
0
 40
0
 40
0
 40
1
 40
1
 40
1
 40
1
 10
41.521499
 20
78.586293
 30
0.0
 10
41.361394
 20
78.978746
 30
0.0
 10
41.144695
 20
79.322216
 30
0.0
 10
40.871448
 20
79.616706
 30
0.0
  0
SPLINE
  5
128
100
AcDbEntity
  8
oshw_logo
 62
7
100
AcDbSpline
 70
8
 71
3
 72
8
 73
4
 74
0
 40
0
 40
0
 40
0
 40
0
 40
1
 40
1
 40
1
 40
1
 10
40.871448
 20
79.616706
 30
0.0
 10
40.598175
 20
79.911186
 30
0.0
 10
40.277844
 20
80.142498
 30
0.0
 10
39.910453
 20
80.310637
 30
0.0
  0
SPLINE
  5
129
100
AcDbEntity
  8
oshw_logo
 62
7
100
AcDbSpline
 70
8
 71
3
 72
8
 73
4
 74
0
 40
0
 40
0
 40
0
 40
0
 40
1
 40
1
 40
1
 40
1
 10
39.910453
 20
80.310637
 30
0.0
 10
39.543039
 20
80.478765
 30
0.0
 10
39.147462
 20
80.562831
 30
0.0
 10
38.723728
 20
80.562839
 30
0.0
  0
SPLINE
  5
12a
100
AcDbEntity
  8
oshw_logo
 62
7
100
AcDbSpline
 70
8
 71
3
 72
8
 73
4
 74
0
 40
0
 40
0
 40
0
 40
0
 40
1
 40
1
 40
1
 40
1
 10
38.723728
 20
80.562839
 30
0.0
 10
38.318663
 20
80.562831
 30
0.0
 10
37.934719
 20
80.481046
 30
0.0
 10
37.571923
 20
80.317484
 30
0.0
  0
SPLINE
  5
12b
100
AcDbEntity
  8
oshw_logo
 62
7
100
AcDbSpline
 70
8
 71
3
 72
8
 73
4
 74
0
 40
0
 40
0
 40
0
 40
0
 40
1
 40
1
 40
1
 40
1
 10
37.571923
 20
80.317484
 30
0.0
 10
37.209123
 20
80.153905
 30
0.0
 10
36.891163
 20
79.931935
 30
0.0
 10
36.618043
 20
79.651575
 30
0.0
  0
SPLINE
  5
12c
100
AcDbEntity
  8
oshw_logo
 62
7
100
AcDbSpline
 70
8
 71
3
 72
8
 73
4
 74
0
 40
0
 40
0
 40
0
 40
0
 40
1
 40
1
 40
1
 40
1
 10
36.618043
 20
79.651575
 30
0.0
 10
36.344947
 20
79.371201
 30
0.0
 10
36.125952
 20
79.041777
 30
0.0
 10
35.961055
 20
78.663303
 30
0.0
  0
SPLINE
  5
12d
100
AcDbEntity
  8
oshw_logo
 62
7
100
AcDbSpline
 70
8
 71
3
 72
8
 73
4
 74
0
 40
0
 40
0
 40
0
 40
0
 40
1
 40
1
 40
1
 40
1
 10
35.961055
 20
78.663303
 30
0.0
 10
35.796209
 20
78.284815
 30
0.0
 10
35.709030
 20
77.875960
 30
0.0
 10
35.699517
 20
77.436732
 30
0.0
  0
LINE
  5
12e
100
AcDbEntity
  8
oshw_logo
 62
7
100
AcDbLine
 10
35.699517
 20
77.436732
 30
0.0
 11
41.747482
 21
77.436732
 31
0.0
  0
SPLINE
  5
12f
100
AcDbEntity
  8
oshw_logo
 62
7
100
AcDbSpline
 70
8
 71
3
 72
8
 73
4
 74
0
 40
0
 40
0
 40
0
 40
0
 40
1
 40
1
 40
1
 40
1
 10
46.742356
 20
78.081463
 30
0.0
 10
46.742356
 20
78.212371
 30
0.0
 10
46.709451
 20
78.411025
 30
0.0
 10
46.643617
 20
78.677417
 30
0.0
  0
SPLINE
  5
130
100
AcDbEntity
  8
oshw_logo
 62
7
100
AcDbSpline
 70
8
 71
3
 72
8
 73
4
 74
0
 40
0
 40
0
 40
0
 40
0
 40
1
 40
1
 40
1
 40
1
 10
46.643617
 20
78.677417
 30
0.0
 10
46.577786
 20
78.943807
 30
0.0
 10
46.457678
 20
79.210199
 30
0.0
 10
46.283318
 20
79.476594
 30
0.0
  0
SPLINE
  5
131
100
AcDbEntity
  8
oshw_logo
 62
7
100
AcDbSpline
 70
8
 71
3
 72
8
 73
4
 74
0
 40
0
 40
0
 40
0
 40
0
 40
1
 40
1
 40
1
 40
1
 10
46.283318
 20
79.476594
 30
0.0
 10
46.108959
 20
79.742978
 30
0.0
 10
45.866394
 20
79.969583
 30
0.0
 10
45.555628
 20
80.156406
 30
0.0
  0
SPLINE
  5
132
100
AcDbEntity
  8
oshw_logo
 62
7
100
AcDbSpline
 70
8
 71
3
 72
8
 73
4
 74
0
 40
0
 40
0
 40
0
 40
0
 40
1
 40
1
 40
1
 40
1
 10
45.555628
 20
80.156406
 30
0.0
 10
45.244859
 20
80.343214
 30
0.0
 10
44.849133
 20
80.427353
 30
0.0
 10
44.368472
 20
80.408822
 30
0.0
  0
LINE
  5
133
100
AcDbEntity
  8
oshw_logo
 62
7
100
AcDbLine
 10
46.742356
 20
80.408822
 30
0.0
 11
46.742356
 21
74.058207
 31
0.0
  0
SPLINE
  5
134
100
AcDbEntity
  8
oshw_logo
 62
7
100
AcDbSpline
 70
8
 71
3
 72
8
 73
4
 74
0
 40
0
 40
0
 40
0
 40
0
 40
1
 40
1
 40
1
 40
1
 10
54.775238
 20
74.058207
 30
0.0
 10
55.180303
 20
74.058207
 30
0.0
 10
55.559427
 20
74.144626
 30
0.0
 10
55.912585
 20
74.317468
 30
0.0
  0
SPLINE
  5
135
100
AcDbEntity
  8
oshw_logo
 62
7
100
AcDbSpline
 70
8
 71
3
 72
8
 73
4
 74
0
 40
0
 40
0
 40
0
 40
0
 40
1
 40
1
 40
1
 40
1
 10
55.912585
 20
74.317468
 30
0.0
 10
56.265770
 20
74.490309
 30
0.0
 10
56.574241
 20
74.723972
 30
0.0
 10
56.838001
 20
75.018457
 30
0.0
  0
SPLINE
  5
136
100
AcDbEntity
  8
oshw_logo
 62
7
100
AcDbSpline
 70
8
 71
3
 72
8
 73
4
 74
0
 40
0
 40
0
 40
0
 40
0
 40
1
 40
1
 40
1
 40
1
 10
56.838001
 20
75.018457
 30
0.0
 10
57.101760
 20
75.312942
 30
0.0
 10
57.309049
 20
75.656412
 30
0.0
 10
57.459840
 20
76.048870
 30
0.0
  0
SPLINE
  5
137
100
AcDbEntity
  8
oshw_logo
 62
7
100
AcDbSpline
 70
8
 71
3
 72
8
 73
4
 74
0
 40
0
 40
0
 40
0
 40
0
 40
1
 40
1
 40
1
 40
1
 10
57.459840
 20
76.048870
 30
0.0
 10
57.610606
 20
76.441325
 30
0.0
 10
57.686002
 20
76.861876
 30
0.0
 10
57.686002
 20
77.310522
 30
0.0
  0
SPLINE
  5
138
100
AcDbEntity
  8
oshw_logo
 62
7
100
AcDbSpline
 70
8
 71
3
 72
8
 73
4
 74
0
 40
0
 40
0
 40
0
 40
0
 40
1
 40
1
 40
1
 40
1
 10
57.686002
 20
77.310522
 30
0.0
 10
57.686002
 20
77.759165
 30
0.0
 10
57.610606
 20
78.182066
 30
0.0
 10
57.459840
 20
78.579232
 30
0.0
  0
SPLINE
  5
139
100
AcDbEntity
  8
oshw_logo
 62
7
100
AcDbSpline
 70
8
 71
3
 72
8
 73
4
 74
0
 40
0
 40
0
 40
0
 40
0
 40
1
 40
1
 40
1
 40
1
 10
57.459840
 20
78.579232
 30
0.0
 10
57.309049
 20
78.976392
 30
0.0
 10
57.101760
 20
79.322216
 30
0.0
 10
56.838001
 20
79.616706
 30
0.0
  0
SPLINE
  5
13a
100
AcDbEntity
  8
oshw_logo
 62
7
100
AcDbSpline
 70
8
 71
3
 72
8
 73
4
 74
0
 40
0
 40
0
 40
0
 40
0
 40
1
 40
1
 40
1
 40
1
 10
56.838001
 20
79.616706
 30
0.0
 10
56.574241
 20
79.911186
 30
0.0
 10
56.265770
 20
80.144849
 30
0.0
 10
55.912585
 20
80.317696
 30
0.0
  0
SPLINE
  5
13b
100
AcDbEntity
  8
oshw_logo
 62
7
100
AcDbSpline
 70
8
 71
3
 72
8
 73
4
 74
0
 40
0
 40
0
 40
0
 40
0
 40
1
 40
1
 40
1
 40
1
 10
55.912585
 20
80.317696
 30
0.0
 10
55.559427
 20
80.490528
 30
0.0
 10
55.180303
 20
80.576951
 30
0.0
 10
54.775238
 20
80.576956
 30
0.0
  0
SPLINE
  5
13c
100
AcDbEntity
  8
oshw_logo
 62
7
100
AcDbSpline
 70
8
 71
3
 72
8
 73
4
 74
0
 40
0
 40
0
 40
0
 40
0
 40
1
 40
1
 40
1
 40
1
 10
54.775238
 20
80.576956
 30
0.0
 10
54.379385
 20
80.576951
 30
0.0
 10
54.004853
 20
80.490528
 30
0.0
 10
53.651669
 20
80.317696
 30
0.0
  0
SPLINE
  5
13d
100
AcDbEntity
  8
oshw_logo
 62
7
100
AcDbSpline
 70
8
 71
3
 72
8
 73
4
 74
0
 40
0
 40
0
 40
0
 40
0
 40
1
 40
1
 40
1
 40
1
 10
53.651669
 20
80.317696
 30
0.0
 10
53.298511
 20
80.144849
 30
0.0
 10
52.990039
 20
79.911186
 30
0.0
 10
52.726254
 20
79.616706
 30
0.0
  0
SPLINE
  5
13e
100
AcDbEntity
  8
oshw_logo
 62
7
100
AcDbSpline
 70
8
 71
3
 72
8
 73
4
 74
0
 40
0
 40
0
 40
0
 40
0
 40
1
 40
1
 40
1
 40
1
 10
52.726254
 20
79.616706
 30
0.0
 10
52.462495
 20
79.322216
 30
0.0
 10
52.252860
 20
78.976392
 30
0.0
 10
52.097325
 20
78.579232
 30
0.0
  0
SPLINE
  5
13f
100
AcDbEntity
  8
oshw_logo
 62
7
100
AcDbSpline
 70
8
 71
3
 72
8
 73
4
 74
0
 40
0
 40
0
 40
0
 40
0
 40
1
 40
1
 40
1
 40
1
 10
52.097325
 20
78.579232
 30
0.0
 10
51.941789
 20
78.182066
 30
0.0
 10
51.864048
 20
77.759165
 30
0.0
 10
51.864023
 20
77.310522
 30
0.0
  0
SPLINE
  5
140
100
AcDbEntity
  8
oshw_logo
 62
7
100
AcDbSpline
 70
8
 71
3
 72
8
 73
4
 74
0
 40
0
 40
0
 40
0
 40
0
 40
1
 40
1
 40
1
 40
1
 10
51.864023
 20
77.310522
 30
0.0
 10
51.864048
 20
76.861876
 30
0.0
 10
51.941789
 20
76.441325
 30
0.0
 10
52.097325
 20
76.048870
 30
0.0
  0
SPLINE
  5
141
100
AcDbEntity
  8
oshw_logo
 62
7
100
AcDbSpline
 70
8
 71
3
 72
8
 73
4
 74
0
 40
0
 40
0
 40
0
 40
0
 40
1
 40
1
 40
1
 40
1
 10
52.097325
 20
76.048870
 30
0.0
 10
52.252860
 20
75.656412
 30
0.0
 10
52.462495
 20
75.312942
 30
0.0
 10
52.726254
 20
75.018457
 30
0.0
  0
SPLINE
  5
142
100
AcDbEntity
  8
oshw_logo
 62
7
100
AcDbSpline
 70
8
 71
3
 72
8
 73
4
 74
0
 40
0
 40
0
 40
0
 40
0
 40
1
 40
1
 40
1
 40
1
 10
52.726254
 20
75.018457
 30
0.0
 10
52.990039
 20
74.723972
 30
0.0
 10
53.298511
 20
74.490309
 30
0.0
 10
53.651669
 20
74.317468
 30
0.0
  0
SPLINE
  5
143
100
AcDbEntity
  8
oshw_logo
 62
7
100
AcDbSpline
 70
8
 71
3
 72
8
 73
4
 74
0
 40
0
 40
0
 40
0
 40
0
 40
1
 40
1
 40
1
 40
1
 10
53.651669
 20
74.317468
 30
0.0
 10
54.004853
 20
74.144626
 30
0.0
 10
54.379385
 20
74.058207
 30
0.0
 10
54.775238
 20
74.058207
 30
0.0
  0
LINE
  5
144
100
AcDbEntity
  8
oshw_logo
 62
7
100
AcDbLine
 10
54.775238
 20
74.058207
 30
0.0
 11
54.775238
 21
74.058207
 31
0.0
  0
LINE
  5
145
100
AcDbEntity
  8
oshw_logo
 62
7
100
AcDbLine
 10
51.864023
 20
74.128370
 30
0.0
 11
51.864023
 21
80.493102
 31
0.0
  0
LINE
  5
146
100
AcDbEntity
  8
oshw_logo
 62
7
100
AcDbLine
 10
60.603680
 20
80.493102
 30
0.0
 11
63.034085
 21
74.058207
 31
0.0
  0
LINE
  5
147
100
AcDbEntity
  8
oshw_logo
 62
7
100
AcDbLine
 10
63.034085
 20
74.058207
 30
0.0
 11
65.478694
 21
80.562839
 31
0.0
  0
LINE
  5
148
100
AcDbEntity
  8
oshw_logo
 62
7
100
AcDbLine
 10
65.478694
 20
80.562839
 30
0.0
 11
67.923306
 21
74.058207
 31
0.0
  0
LINE
  5
149
100
AcDbEntity
  8
oshw_logo
 62
7
100
AcDbLine
 10
67.923306
 20
74.058207
 30
0.0
 11
70.353710
 21
80.493102
 31
0.0
  0
SPLINE
  5
14a
100
AcDbEntity
  8
oshw_logo
 62
7
100
AcDbSpline
 70
8
 71
3
 72
8
 73
4
 74
0
 40
0
 40
0
 40
0
 40
0
 40
1
 40
1
 40
1
 40
1
 10
77.185181
 20
74.058207
 30
0.0
 10
77.590246
 20
74.058207
 30
0.0
 10
77.969370
 20
74.144626
 30
0.0
 10
78.322528
 20
74.317468
 30
0.0
  0
SPLINE
  5
14b
100
AcDbEntity
  8
oshw_logo
 62
7
100
AcDbSpline
 70
8
 71
3
 72
8
 73
4
 74
0
 40
0
 40
0
 40
0
 40
0
 40
1
 40
1
 40
1
 40
1
 10
78.322528
 20
74.317468
 30
0.0
 10
78.675713
 20
74.490309
 30
0.0
 10
78.984184
 20
74.723972
 30
0.0
 10
79.247944
 20
75.018457
 30
0.0
  0
SPLINE
  5
14c
100
AcDbEntity
  8
oshw_logo
 62
7
100
AcDbSpline
 70
8
 71
3
 72
8
 73
4
 74
0
 40
0
 40
0
 40
0
 40
0
 40
1
 40
1
 40
1
 40
1
 10
79.247944
 20
75.018457
 30
0.0
 10
79.511703
 20
75.312942
 30
0.0
 10
79.718992
 20
75.656412
 30
0.0
 10
79.869784
 20
76.048870
 30
0.0
  0
SPLINE
  5
14d
100
AcDbEntity
  8
oshw_logo
 62
7
100
AcDbSpline
 70
8
 71
3
 72
8
 73
4
 74
0
 40
0
 40
0
 40
0
 40
0
 40
1
 40
1
 40
1
 40
1
 10
79.869784
 20
76.048870
 30
0.0
 10
80.020549
 20
76.441325
 30
0.0
 10
80.095945
 20
76.861876
 30
0.0
 10
80.095945
 20
77.310522
 30
0.0
  0
SPLINE
  5
14e
100
AcDbEntity
  8
oshw_logo
 62
7
100
AcDbSpline
 70
8
 71
3
 72
8
 73
4
 74
0
 40
0
 40
0
 40
0
 40
0
 40
1
 40
1
 40
1
 40
1
 10
80.095945
 20
77.310522
 30
0.0
 10
80.095945
 20
77.759165
 30
0.0
 10
80.020549
 20
78.182066
 30
0.0
 10
79.869784
 20
78.579232
 30
0.0
  0
SPLINE
  5
14f
100
AcDbEntity
  8
oshw_logo
 62
7
100
AcDbSpline
 70
8
 71
3
 72
8
 73
4
 74
0
 40
0
 40
0
 40
0
 40
0
 40
1
 40
1
 40
1
 40
1
 10
79.869784
 20
78.579232
 30
0.0
 10
79.718992
 20
78.976392
 30
0.0
 10
79.511703
 20
79.322216
 30
0.0
 10
79.247944
 20
79.616706
 30
0.0
  0
SPLINE
  5
150
100
AcDbEntity
  8
oshw_logo
 62
7
100
AcDbSpline
 70
8
 71
3
 72
8
 73
4
 74
0
 40
0
 40
0
 40
0
 40
0
 40
1
 40
1
 40
1
 40
1
 10
79.247944
 20
79.616706
 30
0.0
 10
78.984184
 20
79.911186
 30
0.0
 10
78.675713
 20
80.144849
 30
0.0
 10
78.322528
 20
80.317696
 30
0.0
  0
SPLINE
  5
151
100
AcDbEntity
  8
oshw_logo
 62
7
100
AcDbSpline
 70
8
 71
3
 72
8
 73
4
 74
0
 40
0
 40
0
 40
0
 40
0
 40
1
 40
1
 40
1
 40
1
 10
78.322528
 20
80.317696
 30
0.0
 10
77.969370
 20
80.490528
 30
0.0
 10
77.590246
 20
80.576951
 30
0.0
 10
77.185181
 20
80.576956
 30
0.0
  0
SPLINE
  5
152
100
AcDbEntity
  8
oshw_logo
 62
7
100
AcDbSpline
 70
8
 71
3
 72
8
 73
4
 74
0
 40
0
 40
0
 40
0
 40
0
 40
1
 40
1
 40
1
 40
1
 10
77.185181
 20
80.576956
 30
0.0
 10
76.789328
 20
80.576951
 30
0.0
 10
76.414797
 20
80.490528
 30
0.0
 10
76.061612
 20
80.317696
 30
0.0
  0
SPLINE
  5
153
100
AcDbEntity
  8
oshw_logo
 62
7
100
AcDbSpline
 70
8
 71
3
 72
8
 73
4
 74
0
 40
0
 40
0
 40
0
 40
0
 40
1
 40
1
 40
1
 40
1
 10
76.061612
 20
80.317696
 30
0.0
 10
75.708454
 20
80.144849
 30
0.0
 10
75.399982
 20
79.911186
 30
0.0
 10
75.136197
 20
79.616706
 30
0.0
  0
SPLINE
  5
154
100
AcDbEntity
  8
oshw_logo
 62
7
100
AcDbSpline
 70
8
 71
3
 72
8
 73
4
 74
0
 40
0
 40
0
 40
0
 40
0
 40
1
 40
1
 40
1
 40
1
 10
75.136197
 20
79.616706
 30
0.0
 10
74.872438
 20
79.322216
 30
0.0
 10
74.662803
 20
78.976392
 30
0.0
 10
74.507268
 20
78.579232
 30
0.0
  0
SPLINE
  5
155
100
AcDbEntity
  8
oshw_logo
 62
7
100
AcDbSpline
 70
8
 71
3
 72
8
 73
4
 74
0
 40
0
 40
0
 40
0
 40
0
 40
1
 40
1
 40
1
 40
1
 10
74.507268
 20
78.579232
 30
0.0
 10
74.351732
 20
78.182066
 30
0.0
 10
74.273991
 20
77.759165
 30
0.0
 10
74.273966
 20
77.310522
 30
0.0
  0
SPLINE
  5
156
100
AcDbEntity
  8
oshw_logo
 62
7
100
AcDbSpline
 70
8
 71
3
 72
8
 73
4
 74
0
 40
0
 40
0
 40
0
 40
0
 40
1
 40
1
 40
1
 40
1
 10
74.273966
 20
77.310522
 30
0.0
 10
74.273991
 20
76.861876
 30
0.0
 10
74.351732
 20
76.441325
 30
0.0
 10
74.507268
 20
76.048870
 30
0.0
  0
SPLINE
  5
157
100
AcDbEntity
  8
oshw_logo
 62
7
100
AcDbSpline
 70
8
 71
3
 72
8
 73
4
 74
0
 40
0
 40
0
 40
0
 40
0
 40
1
 40
1
 40
1
 40
1
 10
74.507268
 20
76.048870
 30
0.0
 10
74.662803
 20
75.656412
 30
0.0
 10
74.872438
 20
75.312942
 30
0.0
 10
75.136197
 20
75.018457
 30
0.0
  0
SPLINE
  5
158
100
AcDbEntity
  8
oshw_logo
 62
7
100
AcDbSpline
 70
8
 71
3
 72
8
 73
4
 74
0
 40
0
 40
0
 40
0
 40
0
 40
1
 40
1
 40
1
 40
1
 10
75.136197
 20
75.018457
 30
0.0
 10
75.399982
 20
74.723972
 30
0.0
 10
75.708454
 20
74.490309
 30
0.0
 10
76.061612
 20
74.317468
 30
0.0
  0
SPLINE
  5
159
100
AcDbEntity
  8
oshw_logo
 62
7
100
AcDbSpline
 70
8
 71
3
 72
8
 73
4
 74
0
 40
0
 40
0
 40
0
 40
0
 40
1
 40
1
 40
1
 40
1
 10
76.061612
 20
74.317468
 30
0.0
 10
76.414797
 20
74.144626
 30
0.0
 10
76.789328
 20
74.058207
 30
0.0
 10
77.185181
 20
74.058207
 30
0.0
  0
LINE
  5
15a
100
AcDbEntity
  8
oshw_logo
 62
7
100
AcDbLine
 10
77.185181
 20
74.058207
 30
0.0
 11
77.185181
 21
74.058207
 31
0.0
  0
LINE
  5
15b
100
AcDbEntity
  8
oshw_logo
 62
7
100
AcDbLine
 10
74.273966
 20
85.875980
 30
0.0
 11
74.273966
 21
74.128370
 31
0.0
  0
SPLINE
  5
15c
100
AcDbEntity
  8
oshw_logo
 62
7
100
AcDbSpline
 70
8
 71
3
 72
8
 73
4
 74
0
 40
0
 40
0
 40
0
 40
0
 40
1
 40
1
 40
1
 40
1
 10
85.076611
 20
78.081463
 30
0.0
 10
85.076611
 20
78.212371
 30
0.0
 10
85.043707
 20
78.411025
 30
0.0
 10
84.977851
 20
78.677417
 30
0.0
  0
SPLINE
  5
15d
100
AcDbEntity
  8
oshw_logo
 62
7
100
AcDbSpline
 70
8
 71
3
 72
8
 73
4
 74
0
 40
0
 40
0
 40
0
 40
0
 40
1
 40
1
 40
1
 40
1
 10
84.977851
 20
78.677417
 30
0.0
 10
84.912017
 20
78.943807
 30
0.0
 10
84.791934
 20
79.210199
 30
0.0
 10
84.617574
 20
79.476594
 30
0.0
  0
SPLINE
  5
15e
100
AcDbEntity
  8
oshw_logo
 62
7
100
AcDbSpline
 70
8
 71
3
 72
8
 73
4
 74
0
 40
0
 40
0
 40
0
 40
0
 40
1
 40
1
 40
1
 40
1
 10
84.617574
 20
79.476594
 30
0.0
 10
84.443217
 20
79.742978
 30
0.0
 10
84.200653
 20
79.969583
 30
0.0
 10
83.889884
 20
80.156406
 30
0.0
  0
SPLINE
  5
15f
100
AcDbEntity
  8
oshw_logo
 62
7
100
AcDbSpline
 70
8
 71
3
 72
8
 73
4
 74
0
 40
0
 40
0
 40
0
 40
0
 40
1
 40
1
 40
1
 40
1
 10
83.889884
 20
80.156406
 30
0.0
 10
83.579118
 20
80.343214
 30
0.0
 10
83.183389
 20
80.427353
 30
0.0
 10
82.702702
 20
80.408822
 30
0.0
  0
LINE
  5
160
100
AcDbEntity
  8
oshw_logo
 62
7
100
AcDbLine
 10
85.076611
 20
74.058207
 30
0.0
 11
85.076611
 21
80.408822
 31
0.0
  0
SPLINE
  5
161
100
AcDbEntity
  8
oshw_logo
 62
7
100
AcDbSpline
 70
8
 71
3
 72
8
 73
4
 74
0
 40
0
 40
0
 40
0
 40
0
 40
1
 40
1
 40
1
 40
1
 10
93.109497
 20
74.058207
 30
0.0
 10
93.514559
 20
74.058207
 30
0.0
 10
93.893682
 20
74.144626
 30
0.0
 10
94.246841
 20
74.317468
 30
0.0
  0
SPLINE
  5
162
100
AcDbEntity
  8
oshw_logo
 62
7
100
AcDbSpline
 70
8
 71
3
 72
8
 73
4
 74
0
 40
0
 40
0
 40
0
 40
0
 40
1
 40
1
 40
1
 40
1
 10
94.246841
 20
74.317468
 30
0.0
 10
94.600028
 20
74.490309
 30
0.0
 10
94.908500
 20
74.723972
 30
0.0
 10
95.172259
 20
75.018457
 30
0.0
  0
SPLINE
  5
163
100
AcDbEntity
  8
oshw_logo
 62
7
100
AcDbSpline
 70
8
 71
3
 72
8
 73
4
 74
0
 40
0
 40
0
 40
0
 40
0
 40
1
 40
1
 40
1
 40
1
 10
95.172259
 20
75.018457
 30
0.0
 10
95.436018
 20
75.312942
 30
0.0
 10
95.643305
 20
75.656412
 30
0.0
 10
95.794071
 20
76.048870
 30
0.0
  0
SPLINE
  5
164
100
AcDbEntity
  8
oshw_logo
 62
7
100
AcDbSpline
 70
8
 71
3
 72
8
 73
4
 74
0
 40
0
 40
0
 40
0
 40
0
 40
1
 40
1
 40
1
 40
1
 10
95.794071
 20
76.048870
 30
0.0
 10
95.944862
 20
76.441325
 30
0.0
 10
96.020258
 20
76.861876
 30
0.0
 10
96.020258
 20
77.310522
 30
0.0
  0
SPLINE
  5
165
100
AcDbEntity
  8
oshw_logo
 62
7
100
AcDbSpline
 70
8
 71
3
 72
8
 73
4
 74
0
 40
0
 40
0
 40
0
 40
0
 40
1
 40
1
 40
1
 40
1
 10
96.020258
 20
77.310522
 30
0.0
 10
96.020258
 20
77.759165
 30
0.0
 10
95.944862
 20
78.182066
 30
0.0
 10
95.794071
 20
78.579232
 30
0.0
  0
SPLINE
  5
166
100
AcDbEntity
  8
oshw_logo
 62
7
100
AcDbSpline
 70
8
 71
3
 72
8
 73
4
 74
0
 40
0
 40
0
 40
0
 40
0
 40
1
 40
1
 40
1
 40
1
 10
95.794071
 20
78.579232
 30
0.0
 10
95.643305
 20
78.976392
 30
0.0
 10
95.436018
 20
79.322216
 30
0.0
 10
95.172259
 20
79.616706
 30
0.0
  0
SPLINE
  5
167
100
AcDbEntity
  8
oshw_logo
 62
7
100
AcDbSpline
 70
8
 71
3
 72
8
 73
4
 74
0
 40
0
 40
0
 40
0
 40
0
 40
1
 40
1
 40
1
 40
1
 10
95.172259
 20
79.616706
 30
0.0
 10
94.908500
 20
79.911186
 30
0.0
 10
94.600028
 20
80.144849
 30
0.0
 10
94.246841
 20
80.317696
 30
0.0
  0
SPLINE
  5
168
100
AcDbEntity
  8
oshw_logo
 62
7
100
AcDbSpline
 70
8
 71
3
 72
8
 73
4
 74
0
 40
0
 40
0
 40
0
 40
0
 40
1
 40
1
 40
1
 40
1
 10
94.246841
 20
80.317696
 30
0.0
 10
93.893682
 20
80.490528
 30
0.0
 10
93.514559
 20
80.576951
 30
0.0
 10
93.109497
 20
80.576956
 30
0.0
  0
SPLINE
  5
169
100
AcDbEntity
  8
oshw_logo
 62
7
100
AcDbSpline
 70
8
 71
3
 72
8
 73
4
 74
0
 40
0
 40
0
 40
0
 40
0
 40
1
 40
1
 40
1
 40
1
 10
93.109497
 20
80.576956
 30
0.0
 10
92.713618
 20
80.576951
 30
0.0
 10
92.339112
 20
80.490528
 30
0.0
 10
91.985928
 20
80.317696
 30
0.0
  0
SPLINE
  5
16a
100
AcDbEntity
  8
oshw_logo
 62
7
100
AcDbSpline
 70
8
 71
3
 72
8
 73
4
 74
0
 40
0
 40
0
 40
0
 40
0
 40
1
 40
1
 40
1
 40
1
 10
91.985928
 20
80.317696
 30
0.0
 10
91.632766
 20
80.144849
 30
0.0
 10
91.324295
 20
79.911186
 30
0.0
 10
91.060510
 20
79.616706
 30
0.0
  0
SPLINE
  5
16b
100
AcDbEntity
  8
oshw_logo
 62
7
100
AcDbSpline
 70
8
 71
3
 72
8
 73
4
 74
0
 40
0
 40
0
 40
0
 40
0
 40
1
 40
1
 40
1
 40
1
 10
91.060510
 20
79.616706
 30
0.0
 10
90.796751
 20
79.322216
 30
0.0
 10
90.587116
 20
78.976392
 30
0.0
 10
90.431580
 20
78.579232
 30
0.0
  0
SPLINE
  5
16c
100
AcDbEntity
  8
oshw_logo
 62
7
100
AcDbSpline
 70
8
 71
3
 72
8
 73
4
 74
0
 40
0
 40
0
 40
0
 40
0
 40
1
 40
1
 40
1
 40
1
 10
90.431580
 20
78.579232
 30
0.0
 10
90.276048
 20
78.182066
 30
0.0
 10
90.198279
 20
77.759165
 30
0.0
 10
90.198279
 20
77.310522
 30
0.0
  0
SPLINE
  5
16d
100
AcDbEntity
  8
oshw_logo
 62
7
100
AcDbSpline
 70
8
 71
3
 72
8
 73
4
 74
0
 40
0
 40
0
 40
0
 40
0
 40
1
 40
1
 40
1
 40
1
 10
90.198279
 20
77.310522
 30
0.0
 10
90.198279
 20
76.861876
 30
0.0
 10
90.276048
 20
76.441325
 30
0.0
 10
90.431580
 20
76.048870
 30
0.0
  0
SPLINE
  5
16e
100
AcDbEntity
  8
oshw_logo
 62
7
100
AcDbSpline
 70
8
 71
3
 72
8
 73
4
 74
0
 40
0
 40
0
 40
0
 40
0
 40
1
 40
1
 40
1
 40
1
 10
90.431580
 20
76.048870
 30
0.0
 10
90.587116
 20
75.656412
 30
0.0
 10
90.796751
 20
75.312942
 30
0.0
 10
91.060510
 20
75.018457
 30
0.0
  0
SPLINE
  5
16f
100
AcDbEntity
  8
oshw_logo
 62
7
100
AcDbSpline
 70
8
 71
3
 72
8
 73
4
 74
0
 40
0
 40
0
 40
0
 40
0
 40
1
 40
1
 40
1
 40
1
 10
91.060510
 20
75.018457
 30
0.0
 10
91.324295
 20
74.723972
 30
0.0
 10
91.632766
 20
74.490309
 30
0.0
 10
91.985928
 20
74.317468
 30
0.0
  0
SPLINE
  5
170
100
AcDbEntity
  8
oshw_logo
 62
7
100
AcDbSpline
 70
8
 71
3
 72
8
 73
4
 74
0
 40
0
 40
0
 40
0
 40
0
 40
1
 40
1
 40
1
 40
1
 10
91.985928
 20
74.317468
 30
0.0
 10
92.339112
 20
74.144626
 30
0.0
 10
92.713618
 20
74.058207
 30
0.0
 10
93.109497
 20
74.058207
 30
0.0
  0
LINE
  5
171
100
AcDbEntity
  8
oshw_logo
 62
7
100
AcDbLine
 10
93.109497
 20
74.058207
 30
0.0
 11
93.109497
 21
74.058207
 31
0.0
  0
LINE
  5
172
100
AcDbEntity
  8
oshw_logo
 62
7
100
AcDbLine
 10
90.198279
 20
80.493102
 30
0.0
 11
90.198279
 21
74.128370
 31
0.0
  0
SPLINE
  5
173
100
AcDbEntity
  8
oshw_logo
 62
7
100
AcDbSpline
 70
8
 71
3
 72
8
 73
4
 74
0
 40
0
 40
0
 40
0
 40
0
 40
1
 40
1
 40
1
 40
1
 10
103.484773
 20
78.165743
 30
0.0
 10
103.484773
 20
78.530241
 30
0.0
 10
103.423559
 20
78.857388
 30
0.0
 10
103.301078
 20
79.147170
 30
0.0
  0
SPLINE
  5
174
100
AcDbEntity
  8
oshw_logo
 62
7
100
AcDbSpline
 70
8
 71
3
 72
8
 73
4
 74
0
 40
0
 40
0
 40
0
 40
0
 40
1
 40
1
 40
1
 40
1
 10
103.301078
 20
79.147170
 30
0.0
 10
103.178621
 20
79.436945
 30
0.0
 10
103.018494
 20
79.682300
 30
0.0
 10
102.820696
 20
79.883243
 30
0.0
  0
SPLINE
  5
175
100
AcDbEntity
  8
oshw_logo
 62
7
100
AcDbSpline
 70
8
 71
3
 72
8
 73
4
 74
0
 40
0
 40
0
 40
0
 40
0
 40
1
 40
1
 40
1
 40
1
 10
102.820696
 20
79.883243
 30
0.0
 10
102.622895
 20
80.084168
 30
0.0
 10
102.401551
 20
80.238329
 30
0.0
 10
102.156590
 20
80.345717
 30
0.0
  0
SPLINE
  5
176
100
AcDbEntity
  8
oshw_logo
 62
7
100
AcDbSpline
 70
8
 71
3
 72
8
 73
4
 74
0
 40
0
 40
0
 40
0
 40
0
 40
1
 40
1
 40
1
 40
1
 10
102.156590
 20
80.345717
 30
0.0
 10
101.911681
 20
80.453095
 30
0.0
 10
101.666746
 20
80.506784
 30
0.0
 10
101.421785
 20
80.506793
 30
0.0
  0
SPLINE
  5
177
100
AcDbEntity
  8
oshw_logo
 62
7
100
AcDbSpline
 70
8
 71
3
 72
8
 73
4
 74
0
 40
0
 40
0
 40
0
 40
0
 40
1
 40
1
 40
1
 40
1
 10
101.421785
 20
80.506793
 30
0.0
 10
101.167664
 20
80.506784
 30
0.0
 10
100.915764
 20
80.476412
 30
0.0
 10
100.666059
 20
80.415669
 30
0.0
  0
SPLINE
  5
178
100
AcDbEntity
  8
oshw_logo
 62
7
100
AcDbSpline
 70
8
 71
3
 72
8
 73
4
 74
0
 40
0
 40
0
 40
0
 40
0
 40
1
 40
1
 40
1
 40
1
 10
100.666059
 20
80.415669
 30
0.0
 10
100.416405
 20
80.354909
 30
0.0
 10
100.192665
 20
80.235761
 30
0.0
 10
99.994864
 20
80.058220
 30
0.0
  0
SPLINE
  5
179
100
AcDbEntity
  8
oshw_logo
 62
7
100
AcDbSpline
 70
8
 71
3
 72
8
 73
4
 74
0
 40
0
 40
0
 40
0
 40
0
 40
1
 40
1
 40
1
 40
1
 10
99.994864
 20
80.058220
 30
0.0
 10
99.797091
 20
79.880669
 30
0.0
 10
99.636961
 20
79.633027
 30
0.0
 10
99.514482
 20
79.315304
 30
0.0
  0
SPLINE
  5
17a
100
AcDbEntity
  8
oshw_logo
 62
7
100
AcDbSpline
 70
8
 71
3
 72
8
 73
4
 74
0
 40
0
 40
0
 40
0
 40
0
 40
1
 40
1
 40
1
 40
1
 10
99.514482
 20
79.315304
 30
0.0
 10
99.392026
 20
78.997567
 30
0.0
 10
99.330787
 20
78.581724
 30
0.0
 10
99.330787
 20
78.067769
 30
0.0
  0
LINE
  5
17b
100
AcDbEntity
  8
oshw_logo
 62
7
100
AcDbLine
 10
99.330787
 20
78.067769
 30
0.0
 11
99.330787
 21
74.058207
 31
0.0
  0
LINE
  5
17c
100
AcDbEntity
  8
oshw_logo
 62
7
100
AcDbLine
 10
103.484773
 20
74.058207
 30
0.0
 11
103.484773
 21
85.792127
 31
0.0
  0
SPLINE
  5
17d
100
AcDbEntity
  8
oshw_logo
 62
7
100
AcDbSpline
 70
8
 71
3
 72
8
 73
4
 74
0
 40
0
 40
0
 40
0
 40
0
 40
1
 40
1
 40
1
 40
1
 10
25.317355
 20
91.163546
 30
0.0
 10
25.590476
 20
90.677537
 30
0.0
 10
25.957892
 20
90.282657
 30
0.0
 10
26.419577
 20
89.978902
 30
0.0
  0
SPLINE
  5
17e
100
AcDbEntity
  8
oshw_logo
 62
7
100
AcDbSpline
 70
8
 71
3
 72
8
 73
4
 74
0
 40
0
 40
0
 40
0
 40
0
 40
1
 40
1
 40
1
 40
1
 10
26.419577
 20
89.978902
 30
0.0
 10
26.881288
 20
89.675146
 30
0.0
 10
27.394727
 20
89.523268
 30
0.0
 10
27.959919
 20
89.523268
 30
0.0
  0
SPLINE
  5
17f
100
AcDbEntity
  8
oshw_logo
 62
7
100
AcDbSpline
 70
8
 71
3
 72
8
 73
4
 74
0
 40
0
 40
0
 40
0
 40
0
 40
1
 40
1
 40
1
 40
1
 10
27.959919
 20
89.523268
 30
0.0
 10
28.383679
 20
89.523268
 30
0.0
 10
28.779256
 20
89.609690
 30
0.0
 10
29.146647
 20
89.782531
 30
0.0
  0
SPLINE
  5
180
100
AcDbEntity
  8
oshw_logo
 62
7
100
AcDbSpline
 70
8
 71
3
 72
8
 73
4
 74
0
 40
0
 40
0
 40
0
 40
0
 40
1
 40
1
 40
1
 40
1
 10
29.146647
 20
89.782531
 30
0.0
 10
29.514061
 20
89.955370
 30
0.0
 10
29.834391
 20
90.189033
 30
0.0
 10
30.107639
 20
90.483521
 30
0.0
  0
SPLINE
  5
181
100
AcDbEntity
  8
oshw_logo
 62
7
100
AcDbSpline
 70
8
 71
3
 72
8
 73
4
 74
0
 40
0
 40
0
 40
0
 40
0
 40
1
 40
1
 40
1
 40
1
 10
30.107639
 20
90.483521
 30
0.0
 10
30.380886
 20
90.778003
 30
0.0
 10
30.597585
 20
91.123826
 30
0.0
 10
30.757715
 20
91.520995
 30
0.0
  0
SPLINE
  5
182
100
AcDbEntity
  8
oshw_logo
 62
7
100
AcDbSpline
 70
8
 71
3
 72
8
 73
4
 74
0
 40
0
 40
0
 40
0
 40
0
 40
1
 40
1
 40
1
 40
1
 10
30.757715
 20
91.520995
 30
0.0
 10
30.917842
 20
91.918152
 30
0.0
 10
30.997903
 20
92.341057
 30
0.0
 10
30.997903
 20
92.789705
 30
0.0
  0
SPLINE
  5
183
100
AcDbEntity
  8
oshw_logo
 62
7
100
AcDbSpline
 70
8
 71
3
 72
8
 73
4
 74
0
 40
0
 40
0
 40
0
 40
0
 40
1
 40
1
 40
1
 40
1
 10
30.997903
 20
92.789705
 30
0.0
 10
30.997903
 20
93.238345
 30
0.0
 10
30.917842
 20
93.658896
 30
0.0
 10
30.757715
 20
94.051354
 30
0.0
  0
SPLINE
  5
184
100
AcDbEntity
  8
oshw_logo
 62
7
100
AcDbSpline
 70
8
 71
3
 72
8
 73
4
 74
0
 40
0
 40
0
 40
0
 40
0
 40
1
 40
1
 40
1
 40
1
 10
30.757715
 20
94.051354
 30
0.0
 10
30.597585
 20
94.443807
 30
0.0
 10
30.380886
 20
94.787280
 30
0.0
 10
30.107639
 20
95.081770
 30
0.0
  0
SPLINE
  5
185
100
AcDbEntity
  8
oshw_logo
 62
7
100
AcDbSpline
 70
8
 71
3
 72
8
 73
4
 74
0
 40
0
 40
0
 40
0
 40
0
 40
1
 40
1
 40
1
 40
1
 10
30.107639
 20
95.081770
 30
0.0
 10
29.834391
 20
95.376249
 30
0.0
 10
29.514061
 20
95.607559
 30
0.0
 10
29.146647
 20
95.775698
 30
0.0
  0
SPLINE
  5
186
100
AcDbEntity
  8
oshw_logo
 62
7
100
AcDbSpline
 70
8
 71
3
 72
8
 73
4
 74
0
 40
0
 40
0
 40
0
 40
0
 40
1
 40
1
 40
1
 40
1
 10
29.146647
 20
95.775698
 30
0.0
 10
28.779256
 20
95.943829
 30
0.0
 10
28.383679
 20
96.027895
 30
0.0
 10
27.959919
 20
96.027900
 30
0.0
  0
SPLINE
  5
187
100
AcDbEntity
  8
oshw_logo
 62
7
100
AcDbSpline
 70
8
 71
3
 72
8
 73
4
 74
0
 40
0
 40
0
 40
0
 40
0
 40
1
 40
1
 40
1
 40
1
 10
27.959919
 20
96.027900
 30
0.0
 10
27.554854
 20
96.027895
 30
0.0
 10
27.170910
 20
95.946110
 30
0.0
 10
26.808114
 20
95.782545
 30
0.0
  0
SPLINE
  5
188
100
AcDbEntity
  8
oshw_logo
 62
7
100
AcDbSpline
 70
8
 71
3
 72
8
 73
4
 74
0
 40
0
 40
0
 40
0
 40
0
 40
1
 40
1
 40
1
 40
1
 10
26.808114
 20
95.782545
 30
0.0
 10
26.445315
 20
95.618966
 30
0.0
 10
26.127356
 20
95.396998
 30
0.0
 10
25.854235
 20
95.116636
 30
0.0
  0
SPLINE
  5
189
100
AcDbEntity
  8
oshw_logo
 62
7
100
AcDbSpline
 70
8
 71
3
 72
8
 73
4
 74
0
 40
0
 40
0
 40
0
 40
0
 40
1
 40
1
 40
1
 40
1
 10
25.854235
 20
95.116636
 30
0.0
 10
25.581140
 20
94.836265
 30
0.0
 10
25.362144
 20
94.506841
 30
0.0
 10
25.197272
 20
94.128364
 30
0.0
  0
SPLINE
  5
18a
100
AcDbEntity
  8
oshw_logo
 62
7
100
AcDbSpline
 70
8
 71
3
 72
8
 73
4
 74
0
 40
0
 40
0
 40
0
 40
0
 40
1
 40
1
 40
1
 40
1
 10
25.197272
 20
94.128364
 30
0.0
 10
25.032400
 20
93.749879
 30
0.0
 10
24.945221
 20
93.341021
 30
0.0
 10
24.935733
 20
92.901793
 30
0.0
  0
LINE
  5
18b
100
AcDbEntity
  8
oshw_logo
 62
7
100
AcDbLine
 10
24.935733
 20
92.901793
 30
0.0
 11
30.983674
 21
92.901793
 31
0.0
  0
SPLINE
  5
18c
100
AcDbEntity
  8
oshw_logo
 62
7
100
AcDbSpline
 70
8
 71
3
 72
8
 73
4
 74
0
 40
0
 40
0
 40
0
 40
0
 40
1
 40
1
 40
1
 40
1
 10
33.699966
 20
90.588550
 30
0.0
 10
33.982573
 20
90.261409
 30
0.0
 10
34.321651
 20
90.002075
 30
0.0
 10
34.717225
 20
89.810553
 30
0.0
  0
SPLINE
  5
18d
100
AcDbEntity
  8
oshw_logo
 62
7
100
AcDbSpline
 70
8
 71
3
 72
8
 73
4
 74
0
 40
0
 40
0
 40
0
 40
0
 40
1
 40
1
 40
1
 40
1
 10
34.717225
 20
89.810553
 30
0.0
 10
35.112802
 20
89.619032
 30
0.0
 10
35.536688
 20
89.523268
 30
0.0
 10
35.988913
 20
89.523268
 30
0.0
  0
SPLINE
  5
18e
100
AcDbEntity
  8
oshw_logo
 62
7
100
AcDbSpline
 70
8
 71
3
 72
8
 73
4
 74
0
 40
0
 40
0
 40
0
 40
0
 40
1
 40
1
 40
1
 40
1
 10
35.988913
 20
89.523268
 30
0.0
 10
36.422161
 20
89.523268
 30
0.0
 10
36.827226
 20
89.609690
 30
0.0
 10
37.204102
 20
89.782531
 30
0.0
  0
SPLINE
  5
18f
100
AcDbEntity
  8
oshw_logo
 62
7
100
AcDbSpline
 70
8
 71
3
 72
8
 73
4
 74
0
 40
0
 40
0
 40
0
 40
0
 40
1
 40
1
 40
1
 40
1
 10
37.204102
 20
89.782531
 30
0.0
 10
37.581005
 20
89.955370
 30
0.0
 10
37.910750
 20
90.189033
 30
0.0
 10
38.193331
 20
90.483521
 30
0.0
  0
SPLINE
  5
190
100
AcDbEntity
  8
oshw_logo
 62
7
100
AcDbSpline
 70
8
 71
3
 72
8
 73
4
 74
0
 40
0
 40
0
 40
0
 40
0
 40
1
 40
1
 40
1
 40
1
 10
38.193331
 20
90.483521
 30
0.0
 10
38.475940
 20
90.778003
 30
0.0
 10
38.699654
 20
91.121476
 30
0.0
 10
38.864526
 20
91.513934
 30
0.0
  0
SPLINE
  5
191
100
AcDbEntity
  8
oshw_logo
 62
7
100
AcDbSpline
 70
8
 71
3
 72
8
 73
4
 74
0
 40
0
 40
0
 40
0
 40
0
 40
1
 40
1
 40
1
 40
1
 10
38.864526
 20
91.513934
 30
0.0
 10
39.029397
 20
91.906389
 30
0.0
 10
39.111834
 20
92.326940
 30
0.0
 10
39.111834
 20
92.775586
 30
0.0
  0
SPLINE
  5
192
100
AcDbEntity
  8
oshw_logo
 62
7
100
AcDbSpline
 70
8
 71
3
 72
8
 73
4
 74
0
 40
0
 40
0
 40
0
 40
0
 40
1
 40
1
 40
1
 40
1
 10
39.111834
 20
92.775586
 30
0.0
 10
39.111834
 20
93.224226
 30
0.0
 10
39.029397
 20
93.644850
 30
0.0
 10
38.864526
 20
94.037452
 30
0.0
  0
SPLINE
  5
193
100
AcDbEntity
  8
oshw_logo
 62
7
100
AcDbSpline
 70
8
 71
3
 72
8
 73
4
 74
0
 40
0
 40
0
 40
0
 40
0
 40
1
 40
1
 40
1
 40
1
 10
38.864526
 20
94.037452
 30
0.0
 10
38.699654
 20
94.430046
 30
0.0
 10
38.475940
 20
94.773519
 30
0.0
 10
38.193331
 20
95.067865
 30
0.0
  0
SPLINE
  5
194
100
AcDbEntity
  8
oshw_logo
 62
7
100
AcDbSpline
 70
8
 71
3
 72
8
 73
4
 74
0
 40
0
 40
0
 40
0
 40
0
 40
1
 40
1
 40
1
 40
1
 10
38.193331
 20
95.067865
 30
0.0
 10
37.910750
 20
95.362203
 30
0.0
 10
37.581005
 20
95.595793
 30
0.0
 10
37.204102
 20
95.768643
 30
0.0
  0
SPLINE
  5
195
100
AcDbEntity
  8
oshw_logo
 62
7
100
AcDbSpline
 70
8
 71
3
 72
8
 73
4
 74
0
 40
0
 40
0
 40
0
 40
0
 40
1
 40
1
 40
1
 40
1
 10
37.204102
 20
95.768643
 30
0.0
 10
36.827226
 20
95.941475
 30
0.0
 10
36.422161
 20
96.027895
 30
0.0
 10
35.988913
 20
96.027900
 30
0.0
  0
SPLINE
  5
196
100
AcDbEntity
  8
oshw_logo
 62
7
100
AcDbSpline
 70
8
 71
3
 72
8
 73
4
 74
0
 40
0
 40
0
 40
0
 40
0
 40
1
 40
1
 40
1
 40
1
 10
35.988913
 20
96.027900
 30
0.0
 10
35.536688
 20
96.027895
 30
0.0
 10
35.112802
 20
95.932134
 30
0.0
 10
34.717225
 20
95.740618
 30
0.0
  0
SPLINE
  5
197
100
AcDbEntity
  8
oshw_logo
 62
7
100
AcDbSpline
 70
8
 71
3
 72
8
 73
4
 74
0
 40
0
 40
0
 40
0
 40
0
 40
1
 40
1
 40
1
 40
1
 10
34.717225
 20
95.740618
 30
0.0
 10
34.321651
 20
95.549091
 30
0.0
 10
33.982573
 20
95.289757
 30
0.0
 10
33.699966
 20
94.962622
 30
0.0
  0
SPLINE
  5
198
100
AcDbEntity
  8
oshw_logo
 62
7
100
AcDbSpline
 70
8
 71
3
 72
8
 73
4
 74
0
 40
0
 40
0
 40
0
 40
0
 40
1
 40
1
 40
1
 40
1
 10
44.092501
 20
93.546524
 30
0.0
 10
44.092501
 20
93.677432
 30
0.0
 10
44.059596
 20
93.876086
 30
0.0
 10
43.993762
 20
94.142484
 30
0.0
  0
SPLINE
  5
199
100
AcDbEntity
  8
oshw_logo
 62
7
100
AcDbSpline
 70
8
 71
3
 72
8
 73
4
 74
0
 40
0
 40
0
 40
0
 40
0
 40
1
 40
1
 40
1
 40
1
 10
43.993762
 20
94.142484
 30
0.0
 10
43.927931
 20
94.408868
 30
0.0
 10
43.807823
 20
94.675260
 30
0.0
 10
43.633463
 20
94.941658
 30
0.0
  0
SPLINE
  5
19a
100
AcDbEntity
  8
oshw_logo
 62
7
100
AcDbSpline
 70
8
 71
3
 72
8
 73
4
 74
0
 40
0
 40
0
 40
0
 40
0
 40
1
 40
1
 40
1
 40
1
 10
43.633463
 20
94.941658
 30
0.0
 10
43.459104
 20
95.208042
 30
0.0
 10
43.216539
 20
95.434647
 30
0.0
 10
42.905773
 20
95.621469
 30
0.0
  0
SPLINE
  5
19b
100
AcDbEntity
  8
oshw_logo
 62
7
100
AcDbSpline
 70
8
 71
3
 72
8
 73
4
 74
0
 40
0
 40
0
 40
0
 40
0
 40
1
 40
1
 40
1
 40
1
 10
42.905773
 20
95.621469
 30
0.0
 10
42.595004
 20
95.808281
 30
0.0
 10
42.199278
 20
95.892420
 30
0.0
 10
41.718617
 20
95.873886
 30
0.0
  0
LINE
  5
19c
100
AcDbEntity
  8
oshw_logo
 62
7
100
AcDbLine
 10
44.092501
 20
95.873886
 30
0.0
 11
44.092501
 21
89.523268
 31
0.0
  0
LINE
  5
19d
100
AcDbEntity
  8
oshw_logo
 62
7
100
AcDbLine
 10
44.092501
 20
89.523268
 30
0.0
 11
44.092501
 21
95.873886
 31
0.0
  0
LINE
  5
19e
100
AcDbEntity
  8
oshw_logo
 62
7
100
AcDbLine
 10
52.662263
 20
95.944049
 30
0.0
 11
52.662263
 21
91.499814
 31
0.0
  0
SPLINE
  5
19f
100
AcDbEntity
  8
oshw_logo
 62
7
100
AcDbSpline
 70
8
 71
3
 72
8
 73
4
 74
0
 40
0
 40
0
 40
0
 40
0
 40
1
 40
1
 40
1
 40
1
 10
52.662263
 20
91.499814
 30
0.0
 10
52.633801
 20
91.135307
 30
0.0
 10
52.544249
 20
90.808310
 30
0.0
 10
52.393610
 20
90.518815
 30
0.0
  0
SPLINE
  5
1a0
100
AcDbEntity
  8
oshw_logo
 62
7
100
AcDbSpline
 70
8
 71
3
 72
8
 73
4
 74
0
 40
0
 40
0
 40
0
 40
0
 40
1
 40
1
 40
1
 40
1
 10
52.393610
 20
90.518815
 30
0.0
 10
52.271128
 20
90.275811
 30
0.0
 10
52.070982
 20
90.049136
 30
0.0
 10
51.793117
 20
89.838790
 30
0.0
  0
SPLINE
  5
1a1
100
AcDbEntity
  8
oshw_logo
 62
7
100
AcDbSpline
 70
8
 71
3
 72
8
 73
4
 74
0
 40
0
 40
0
 40
0
 40
0
 40
1
 40
1
 40
1
 40
1
 10
51.793117
 20
89.838790
 30
0.0
 10
51.515278
 20
89.628444
 30
0.0
 10
51.126667
 20
89.523268
 30
0.0
 10
50.627308
 20
89.523268
 30
0.0
  0
SPLINE
  5
1a2
100
AcDbEntity
  8
oshw_logo
 62
7
100
AcDbSpline
 70
8
 71
3
 72
8
 73
4
 74
0
 40
0
 40
0
 40
0
 40
0
 40
1
 40
1
 40
1
 40
1
 10
50.627308
 20
89.523268
 30
0.0
 10
50.127950
 20
89.513870
 30
0.0
 10
49.736968
 20
89.611970
 30
0.0
 10
49.454359
 20
89.817612
 30
0.0
  0
SPLINE
  5
1a3
100
AcDbEntity
  8
oshw_logo
 62
7
100
AcDbSpline
 70
8
 71
3
 72
8
 73
4
 74
0
 40
0
 40
0
 40
0
 40
0
 40
1
 40
1
 40
1
 40
1
 10
49.454359
 20
89.817612
 30
0.0
 10
49.171775
 20
90.023253
 30
0.0
 10
48.964638
 20
90.252282
 30
0.0
 10
48.832973
 20
90.504696
 30
0.0
  0
SPLINE
  5
1a4
100
AcDbEntity
  8
oshw_logo
 62
7
100
AcDbSpline
 70
8
 71
3
 72
8
 73
4
 74
0
 40
0
 40
0
 40
0
 40
0
 40
1
 40
1
 40
1
 40
1
 10
48.832973
 20
90.504696
 30
0.0
 10
48.672846
 20
90.794476
 30
0.0
 10
48.583294
 20
91.126180
 30
0.0
 10
48.564320
 20
91.499814
 30
0.0
  0
LINE
  5
1a5
100
AcDbEntity
  8
oshw_logo
 62
7
100
AcDbLine
 10
48.564320
 20
91.499814
 30
0.0
 11
48.564320
 21
95.944049
 31
0.0
  0
SPLINE
  5
1a6
100
AcDbEntity
  8
oshw_logo
 62
7
100
AcDbSpline
 70
8
 71
3
 72
8
 73
4
 74
0
 40
0
 40
0
 40
0
 40
0
 40
1
 40
1
 40
1
 40
1
 10
59.333305
 20
89.523268
 30
0.0
 10
59.785529
 20
89.523268
 30
0.0
 10
60.211787
 20
89.609690
 30
0.0
 10
60.612107
 20
89.782531
 30
0.0
  0
SPLINE
  5
1a7
100
AcDbEntity
  8
oshw_logo
 62
7
100
AcDbSpline
 70
8
 71
3
 72
8
 73
4
 74
0
 40
0
 40
0
 40
0
 40
0
 40
1
 40
1
 40
1
 40
1
 10
60.612107
 20
89.782531
 30
0.0
 10
61.012451
 20
89.955370
 30
0.0
 10
61.360942
 20
90.189033
 30
0.0
 10
61.657631
 20
90.483521
 30
0.0
  0
SPLINE
  5
1a8
100
AcDbEntity
  8
oshw_logo
 62
7
100
AcDbSpline
 70
8
 71
3
 72
8
 73
4
 74
0
 40
0
 40
0
 40
0
 40
0
 40
1
 40
1
 40
1
 40
1
 10
61.657631
 20
90.483521
 30
0.0
 10
61.954320
 20
90.778003
 30
0.0
 10
62.189843
 20
91.121476
 30
0.0
 10
62.364177
 20
91.513934
 30
0.0
  0
SPLINE
  5
1a9
100
AcDbEntity
  8
oshw_logo
 62
7
100
AcDbSpline
 70
8
 71
3
 72
8
 73
4
 74
0
 40
0
 40
0
 40
0
 40
0
 40
1
 40
1
 40
1
 40
1
 10
62.364177
 20
91.513934
 30
0.0
 10
62.538537
 20
91.906389
 30
0.0
 10
62.625715
 20
92.326940
 30
0.0
 10
62.625715
 20
92.775586
 30
0.0
  0
SPLINE
  5
1aa
100
AcDbEntity
  8
oshw_logo
 62
7
100
AcDbSpline
 70
8
 71
3
 72
8
 73
4
 74
0
 40
0
 40
0
 40
0
 40
0
 40
1
 40
1
 40
1
 40
1
 10
62.625715
 20
92.775586
 30
0.0
 10
62.625715
 20
93.224226
 30
0.0
 10
62.538537
 20
93.644850
 30
0.0
 10
62.364177
 20
94.037452
 30
0.0
  0
SPLINE
  5
1ab
100
AcDbEntity
  8
oshw_logo
 62
7
100
AcDbSpline
 70
8
 71
3
 72
8
 73
4
 74
0
 40
0
 40
0
 40
0
 40
0
 40
1
 40
1
 40
1
 40
1
 10
62.364177
 20
94.037452
 30
0.0
 10
62.189843
 20
94.430046
 30
0.0
 10
61.954320
 20
94.773519
 30
0.0
 10
61.657631
 20
95.067865
 30
0.0
  0
SPLINE
  5
1ac
100
AcDbEntity
  8
oshw_logo
 62
7
100
AcDbSpline
 70
8
 71
3
 72
8
 73
4
 74
0
 40
0
 40
0
 40
0
 40
0
 40
1
 40
1
 40
1
 40
1
 10
61.657631
 20
95.067865
 30
0.0
 10
61.360942
 20
95.362203
 30
0.0
 10
61.012451
 20
95.595793
 30
0.0
 10
60.612107
 20
95.768643
 30
0.0
  0
SPLINE
  5
1ad
100
AcDbEntity
  8
oshw_logo
 62
7
100
AcDbSpline
 70
8
 71
3
 72
8
 73
4
 74
0
 40
0
 40
0
 40
0
 40
0
 40
1
 40
1
 40
1
 40
1
 10
60.612107
 20
95.768643
 30
0.0
 10
60.211787
 20
95.941475
 30
0.0
 10
59.785529
 20
96.027895
 30
0.0
 10
59.333305
 20
96.027900
 30
0.0
  0
SPLINE
  5
1ae
100
AcDbEntity
  8
oshw_logo
 62
7
100
AcDbSpline
 70
8
 71
3
 72
8
 73
4
 74
0
 40
0
 40
0
 40
0
 40
0
 40
1
 40
1
 40
1
 40
1
 10
59.333305
 20
96.027900
 30
0.0
 10
58.881106
 20
96.027895
 30
0.0
 10
58.454849
 20
95.941475
 30
0.0
 10
58.054528
 20
95.768643
 30
0.0
  0
SPLINE
  5
1af
100
AcDbEntity
  8
oshw_logo
 62
7
100
AcDbSpline
 70
8
 71
3
 72
8
 73
4
 74
0
 40
0
 40
0
 40
0
 40
0
 40
1
 40
1
 40
1
 40
1
 10
58.054528
 20
95.768643
 30
0.0
 10
57.654210
 20
95.595793
 30
0.0
 10
57.305617
 20
95.362203
 30
0.0
 10
57.008801
 20
95.067865
 30
0.0
  0
SPLINE
  5
1b0
100
AcDbEntity
  8
oshw_logo
 62
7
100
AcDbSpline
 70
8
 71
3
 72
8
 73
4
 74
0
 40
0
 40
0
 40
0
 40
0
 40
1
 40
1
 40
1
 40
1
 10
57.008801
 20
95.067865
 30
0.0
 10
56.711963
 20
94.773519
 30
0.0
 10
56.476465
 20
94.430046
 30
0.0
 10
56.302233
 20
94.037452
 30
0.0
  0
SPLINE
  5
1b1
100
AcDbEntity
  8
oshw_logo
 62
7
100
AcDbSpline
 70
8
 71
3
 72
8
 73
4
 74
0
 40
0
 40
0
 40
0
 40
0
 40
1
 40
1
 40
1
 40
1
 10
56.302233
 20
94.037452
 30
0.0
 10
56.128023
 20
93.644850
 30
0.0
 10
56.040920
 20
93.224226
 30
0.0
 10
56.040920
 20
92.775586
 30
0.0
  0
SPLINE
  5
1b2
100
AcDbEntity
  8
oshw_logo
 62
7
100
AcDbSpline
 70
8
 71
3
 72
8
 73
4
 74
0
 40
0
 40
0
 40
0
 40
0
 40
1
 40
1
 40
1
 40
1
 10
56.040920
 20
92.775586
 30
0.0
 10
56.040920
 20
92.326940
 30
0.0
 10
56.128023
 20
91.906389
 30
0.0
 10
56.302233
 20
91.513934
 30
0.0
  0
SPLINE
  5
1b3
100
AcDbEntity
  8
oshw_logo
 62
7
100
AcDbSpline
 70
8
 71
3
 72
8
 73
4
 74
0
 40
0
 40
0
 40
0
 40
0
 40
1
 40
1
 40
1
 40
1
 10
56.302233
 20
91.513934
 30
0.0
 10
56.476465
 20
91.121476
 30
0.0
 10
56.711963
 20
90.778003
 30
0.0
 10
57.008801
 20
90.483521
 30
0.0
  0
SPLINE
  5
1b4
100
AcDbEntity
  8
oshw_logo
 62
7
100
AcDbSpline
 70
8
 71
3
 72
8
 73
4
 74
0
 40
0
 40
0
 40
0
 40
0
 40
1
 40
1
 40
1
 40
1
 10
57.008801
 20
90.483521
 30
0.0
 10
57.305617
 20
90.189033
 30
0.0
 10
57.654210
 20
89.955370
 30
0.0
 10
58.054528
 20
89.782531
 30
0.0
  0
SPLINE
  5
1b5
100
AcDbEntity
  8
oshw_logo
 62
7
100
AcDbSpline
 70
8
 71
3
 72
8
 73
4
 74
0
 40
0
 40
0
 40
0
 40
0
 40
1
 40
1
 40
1
 40
1
 10
58.054528
 20
89.782531
 30
0.0
 10
58.454849
 20
89.609690
 30
0.0
 10
58.881106
 20
89.523268
 30
0.0
 10
59.333305
 20
89.523268
 30
0.0
  0
LINE
  5
1b6
100
AcDbEntity
  8
oshw_logo
 62
7
100
AcDbLine
 10
59.333305
 20
89.523268
 30
0.0
 11
59.333305
 21
89.523268
 31
0.0
  0
SPLINE
  5
1b7
100
AcDbEntity
  8
oshw_logo
 62
7
100
AcDbSpline
 70
8
 71
3
 72
8
 73
4
 74
0
 40
0
 40
0
 40
0
 40
0
 40
1
 40
1
 40
1
 40
1
 10
69.718095
 20
90.995413
 30
0.0
 10
69.642776
 20
90.827132
 30
0.0
 10
69.550926
 20
90.656503
 30
0.0
 10
69.442553
 20
90.483521
 30
0.0
  0
SPLINE
  5
1b8
100
AcDbEntity
  8
oshw_logo
 62
7
100
AcDbSpline
 70
8
 71
3
 72
8
 73
4
 74
0
 40
0
 40
0
 40
0
 40
0
 40
1
 40
1
 40
1
 40
1
 10
69.442553
 20
90.483521
 30
0.0
 10
69.334177
 20
90.310538
 30
0.0
 10
69.202286
 20
90.153953
 30
0.0
 10
69.046900
 20
90.013770
 30
0.0
  0
SPLINE
  5
1b9
100
AcDbEntity
  8
oshw_logo
 62
7
100
AcDbSpline
 70
8
 71
3
 72
8
 73
4
 74
0
 40
0
 40
0
 40
0
 40
0
 40
1
 40
1
 40
1
 40
1
 10
69.046900
 20
90.013770
 30
0.0
 10
68.891517
 20
89.873585
 30
0.0
 10
68.707821
 20
89.756790
 30
0.0
 10
68.495791
 20
89.663380
 30
0.0
  0
SPLINE
  5
1ba
100
AcDbEntity
  8
oshw_logo
 62
7
100
AcDbSpline
 70
8
 71
3
 72
8
 73
4
 74
0
 40
0
 40
0
 40
0
 40
0
 40
1
 40
1
 40
1
 40
1
 10
68.495791
 20
89.663380
 30
0.0
 10
68.283782
 20
89.569976
 30
0.0
 10
68.036477
 20
89.523268
 30
0.0
 10
67.753868
 20
89.523268
 30
0.0
  0
SPLINE
  5
1bb
100
AcDbEntity
  8
oshw_logo
 62
7
100
AcDbSpline
 70
8
 71
3
 72
8
 73
4
 74
0
 40
0
 40
0
 40
0
 40
0
 40
1
 40
1
 40
1
 40
1
 10
67.753868
 20
89.523268
 30
0.0
 10
67.471259
 20
89.523268
 30
0.0
 10
67.216912
 20
89.572327
 30
0.0
 10
66.990801
 20
89.670441
 30
0.0
  0
SPLINE
  5
1bc
100
AcDbEntity
  8
oshw_logo
 62
7
100
AcDbSpline
 70
8
 71
3
 72
8
 73
4
 74
0
 40
0
 40
0
 40
0
 40
0
 40
1
 40
1
 40
1
 40
1
 10
66.990801
 20
89.670441
 30
0.0
 10
66.764713
 20
89.768556
 30
0.0
 10
66.569209
 20
89.901751
 30
0.0
 10
66.404338
 20
90.070028
 30
0.0
  0
SPLINE
  5
1bd
100
AcDbEntity
  8
oshw_logo
 62
7
100
AcDbSpline
 70
8
 71
3
 72
8
 73
4
 74
0
 40
0
 40
0
 40
0
 40
0
 40
1
 40
1
 40
1
 40
1
 10
66.404338
 20
90.070028
 30
0.0
 10
66.239466
 20
90.238303
 30
0.0
 10
66.114639
 20
90.429898
 30
0.0
 10
66.029832
 20
90.644811
 30
0.0
  0
SPLINE
  5
1be
100
AcDbEntity
  8
oshw_logo
 62
7
100
AcDbSpline
 70
8
 71
3
 72
8
 73
4
 74
0
 40
0
 40
0
 40
0
 40
0
 40
1
 40
1
 40
1
 40
1
 10
66.029832
 20
90.644811
 30
0.0
 10
65.945024
 20
90.859720
 30
0.0
 10
65.902609
 20
91.088676
 30
0.0
 10
65.902609
 20
91.331680
 30
0.0
  0
SPLINE
  5
1bf
100
AcDbEntity
  8
oshw_logo
 62
7
100
AcDbSpline
 70
8
 71
3
 72
8
 73
4
 74
0
 40
0
 40
0
 40
0
 40
0
 40
1
 40
1
 40
1
 40
1
 10
65.902609
 20
91.331680
 30
0.0
 10
65.902609
 20
91.565270
 30
0.0
 10
65.933241
 20
91.759219
 30
0.0
 10
65.994455
 20
91.913521
 30
0.0
  0
SPLINE
  5
1c0
100
AcDbEntity
  8
oshw_logo
 62
7
100
AcDbSpline
 70
8
 71
3
 72
8
 73
4
 74
0
 40
0
 40
0
 40
0
 40
0
 40
1
 40
1
 40
1
 40
1
 10
65.994455
 20
91.913521
 30
0.0
 10
66.055694
 20
92.067820
 30
0.0
 10
66.131090
 20
92.194027
 30
0.0
 10
66.220642
 20
92.292145
 30
0.0
  0
SPLINE
  5
1c1
100
AcDbEntity
  8
oshw_logo
 62
7
100
AcDbSpline
 70
8
 71
3
 72
8
 73
4
 74
0
 40
0
 40
0
 40
0
 40
0
 40
1
 40
1
 40
1
 40
1
 10
66.220642
 20
92.292145
 30
0.0
 10
66.310194
 20
92.390256
 30
0.0
 10
66.404414
 20
92.467337
 30
0.0
 10
66.503302
 20
92.523386
 30
0.0
  0
SPLINE
  5
1c2
100
AcDbEntity
  8
oshw_logo
 62
7
100
AcDbSpline
 70
8
 71
3
 72
8
 73
4
 74
0
 40
0
 40
0
 40
0
 40
0
 40
1
 40
1
 40
1
 40
1
 10
66.503302
 20
92.523386
 30
0.0
 10
66.602215
 20
92.579424
 30
0.0
 10
66.694061
 20
92.626129
 30
0.0
 10
66.778869
 20
92.663495
 30
0.0
  0
LINE
  5
1c3
100
AcDbEntity
  8
oshw_logo
 62
7
100
AcDbLine
 10
66.778869
 20
92.663495
 30
0.0
 11
68.149292
 21
93.308226
 31
0.0
  0
SPLINE
  5
1c4
100
AcDbEntity
  8
oshw_logo
 62
7
100
AcDbSpline
 70
8
 71
3
 72
8
 73
4
 74
0
 40
0
 40
0
 40
0
 40
0
 40
1
 40
1
 40
1
 40
1
 10
68.149292
 20
93.308226
 30
0.0
 10
68.253074
 20
93.364411
 30
0.0
 10
68.361475
 20
93.422879
 30
0.0
 10
68.474443
 20
93.483633
 30
0.0
  0
SPLINE
  5
1c5
100
AcDbEntity
  8
oshw_logo
 62
7
100
AcDbSpline
 70
8
 71
3
 72
8
 73
4
 74
0
 40
0
 40
0
 40
0
 40
0
 40
1
 40
1
 40
1
 40
1
 10
68.474443
 20
93.483633
 30
0.0
 10
68.587437
 20
93.544382
 30
0.0
 10
68.695734
 20
93.619179
 30
0.0
 10
68.799366
 20
93.708028
 30
0.0
  0
SPLINE
  5
1c6
100
AcDbEntity
  8
oshw_logo
 62
7
100
AcDbSpline
 70
8
 71
3
 72
8
 73
4
 74
0
 40
0
 40
0
 40
0
 40
0
 40
1
 40
1
 40
1
 40
1
 10
68.799366
 20
93.708028
 30
0.0
 10
68.903023
 20
93.796869
 30
0.0
 10
68.990202
 20
93.911380
 30
0.0
 10
69.060904
 20
94.051572
 30
0.0
  0
SPLINE
  5
1c7
100
AcDbEntity
  8
oshw_logo
 62
7
100
AcDbSpline
 70
8
 71
3
 72
8
 73
4
 74
0
 40
0
 40
0
 40
0
 40
0
 40
1
 40
1
 40
1
 40
1
 10
69.060904
 20
94.051572
 30
0.0
 10
69.131632
 20
94.191749
 30
0.0
 10
69.166983
 20
94.364519
 30
0.0
 10
69.166983
 20
94.569878
 30
0.0
  0
SPLINE
  5
1c8
100
AcDbEntity
  8
oshw_logo
 62
7
100
AcDbSpline
 70
8
 71
3
 72
8
 73
4
 74
0
 40
0
 40
0
 40
0
 40
0
 40
1
 40
1
 40
1
 40
1
 10
69.166983
 20
94.569878
 30
0.0
 10
69.166983
 20
94.990567
 30
0.0
 10
69.042156
 20
95.336462
 30
0.0
 10
68.792477
 20
95.607564
 30
0.0
  0
SPLINE
  5
1c9
100
AcDbEntity
  8
oshw_logo
 62
7
100
AcDbSpline
 70
8
 71
3
 72
8
 73
4
 74
0
 40
0
 40
0
 40
0
 40
0
 40
1
 40
1
 40
1
 40
1
 10
68.792477
 20
95.607564
 30
0.0
 10
68.542797
 20
95.878656
 30
0.0
 10
68.205940
 20
96.014204
 30
0.0
 10
67.781901
 20
96.014210
 30
0.0
  0
SPLINE
  5
1ca
100
AcDbEntity
  8
oshw_logo
 62
7
100
AcDbSpline
 70
8
 71
3
 72
8
 73
4
 74
0
 40
0
 40
0
 40
0
 40
0
 40
1
 40
1
 40
1
 40
1
 10
67.781901
 20
96.014210
 30
0.0
 10
67.367627
 20
96.014204
 30
0.0
 10
67.019212
 20
95.920724
 30
0.0
 10
66.736603
 20
95.733771
 30
0.0
  0
SPLINE
  5
1cb
100
AcDbEntity
  8
oshw_logo
 62
7
100
AcDbSpline
 70
8
 71
3
 72
8
 73
4
 74
0
 40
0
 40
0
 40
0
 40
0
 40
1
 40
1
 40
1
 40
1
 10
66.736603
 20
95.733771
 30
0.0
 10
66.454020
 20
95.546807
 30
0.0
 10
66.289149
 20
95.355212
 30
0.0
 10
66.241989
 20
95.158992
 30
0.0
  0
LINE
  5
1cc
100
AcDbEntity
  8
oshw_logo
 62
7
100
AcDbLine
 10
84.827816
 20
95.873886
 30
0.0
 11
84.827816
 21
89.523268
 31
0.0
  0
LINE
  5
1cd
100
AcDbEntity
  8
oshw_logo
 62
7
100
AcDbLine
 10
84.827816
 20
89.523268
 30
0.0
 11
84.827816
 21
95.873886
 31
0.0
  0
SPLINE
  5
1ce
100
AcDbEntity
  8
oshw_logo
 62
7
100
AcDbSpline
 70
8
 71
3
 72
8
 73
4
 74
0
 40
0
 40
0
 40
0
 40
0
 40
1
 40
1
 40
1
 40
1
 10
84.827816
 20
93.728777
 30
0.0
 10
84.818728
 20
93.971776
 30
0.0
 10
84.759840
 20
94.224122
 30
0.0
 10
84.651438
 20
94.485813
 30
0.0
  0
SPLINE
  5
1cf
100
AcDbEntity
  8
oshw_logo
 62
7
100
AcDbSpline
 70
8
 71
3
 72
8
 73
4
 74
0
 40
0
 40
0
 40
0
 40
0
 40
1
 40
1
 40
1
 40
1
 10
84.651438
 20
94.485813
 30
0.0
 10
84.543062
 20
94.747489
 30
0.0
 10
84.392347
 20
94.988143
 30
0.0
 10
84.199315
 20
95.207765
 30
0.0
  0
SPLINE
  5
1d0
100
AcDbEntity
  8
oshw_logo
 62
7
100
AcDbSpline
 70
8
 71
3
 72
8
 73
4
 74
0
 40
0
 40
0
 40
0
 40
0
 40
1
 40
1
 40
1
 40
1
 10
84.199315
 20
95.207765
 30
0.0
 10
84.006258
 20
95.427374
 30
0.0
 10
83.777850
 20
95.609627
 30
0.0
 10
83.514091
 20
95.754523
 30
0.0
  0
SPLINE
  5
1d1
100
AcDbEntity
  8
oshw_logo
 62
7
100
AcDbSpline
 70
8
 71
3
 72
8
 73
4
 74
0
 40
0
 40
0
 40
0
 40
0
 40
1
 40
1
 40
1
 40
1
 10
83.514091
 20
95.754523
 30
0.0
 10
83.250332
 20
95.899405
 30
0.0
 10
82.962905
 20
95.971851
 30
0.0
 10
82.651860
 20
95.971857
 30
0.0
  0
SPLINE
  5
1d2
100
AcDbEntity
  8
oshw_logo
 62
7
100
AcDbSpline
 70
8
 71
3
 72
8
 73
4
 74
0
 40
0
 40
0
 40
0
 40
0
 40
1
 40
1
 40
1
 40
1
 10
82.651860
 20
95.971857
 30
0.0
 10
82.030020
 20
95.971851
 30
0.0
 10
81.551958
 20
95.798936
 30
0.0
 10
81.217598
 20
95.453121
 30
0.0
  0
SPLINE
  5
1d3
100
AcDbEntity
  8
oshw_logo
 62
7
100
AcDbSpline
 70
8
 71
3
 72
8
 73
4
 74
0
 40
0
 40
0
 40
0
 40
0
 40
1
 40
1
 40
1
 40
1
 10
81.217598
 20
95.453121
 30
0.0
 10
80.883260
 20
95.107292
 30
0.0
 10
80.716095
 20
94.626060
 30
0.0
 10
80.716069
 20
94.009427
 30
0.0
  0
LINE
  5
1d4
100
AcDbEntity
  8
oshw_logo
 62
7
100
AcDbLine
 10
80.716069
 20
94.009427
 30
0.0
 11
80.716069
 21
89.523268
 31
0.0
  0
SPLINE
  5
1d5
100
AcDbEntity
  8
oshw_logo
 62
7
100
AcDbSpline
 70
8
 71
3
 72
8
 73
4
 74
0
 40
0
 40
0
 40
0
 40
0
 40
1
 40
1
 40
1
 40
1
 10
89.152578
 20
91.163546
 30
0.0
 10
89.425698
 20
90.677537
 30
0.0
 10
89.793115
 20
90.282657
 30
0.0
 10
90.254799
 20
89.978902
 30
0.0
  0
SPLINE
  5
1d6
100
AcDbEntity
  8
oshw_logo
 62
7
100
AcDbSpline
 70
8
 71
3
 72
8
 73
4
 74
0
 40
0
 40
0
 40
0
 40
0
 40
1
 40
1
 40
1
 40
1
 10
90.254799
 20
89.978902
 30
0.0
 10
90.716512
 20
89.675146
 30
0.0
 10
91.229950
 20
89.523268
 30
0.0
 10
91.795140
 20
89.523268
 30
0.0
  0
SPLINE
  5
1d7
100
AcDbEntity
  8
oshw_logo
 62
7
100
AcDbSpline
 70
8
 71
3
 72
8
 73
4
 74
0
 40
0
 40
0
 40
0
 40
0
 40
1
 40
1
 40
1
 40
1
 10
91.795140
 20
89.523268
 30
0.0
 10
92.218877
 20
89.523268
 30
0.0
 10
92.614476
 20
89.609690
 30
0.0
 10
92.981867
 20
89.782531
 30
0.0
  0
SPLINE
  5
1d8
100
AcDbEntity
  8
oshw_logo
 62
7
100
AcDbSpline
 70
8
 71
3
 72
8
 73
4
 74
0
 40
0
 40
0
 40
0
 40
0
 40
1
 40
1
 40
1
 40
1
 10
92.981867
 20
89.782531
 30
0.0
 10
93.349284
 20
89.955370
 30
0.0
 10
93.669615
 20
90.189033
 30
0.0
 10
93.942862
 20
90.483521
 30
0.0
  0
SPLINE
  5
1d9
100
AcDbEntity
  8
oshw_logo
 62
7
100
AcDbSpline
 70
8
 71
3
 72
8
 73
4
 74
0
 40
0
 40
0
 40
0
 40
0
 40
1
 40
1
 40
1
 40
1
 10
93.942862
 20
90.483521
 30
0.0
 10
94.216110
 20
90.778003
 30
0.0
 10
94.432809
 20
91.123826
 30
0.0
 10
94.592936
 20
91.520995
 30
0.0
  0
SPLINE
  5
1da
100
AcDbEntity
  8
oshw_logo
 62
7
100
AcDbSpline
 70
8
 71
3
 72
8
 73
4
 74
0
 40
0
 40
0
 40
0
 40
0
 40
1
 40
1
 40
1
 40
1
 10
94.592936
 20
91.520995
 30
0.0
 10
94.753063
 20
91.918152
 30
0.0
 10
94.833130
 20
92.341057
 30
0.0
 10
94.833130
 20
92.789705
 30
0.0
  0
SPLINE
  5
1db
100
AcDbEntity
  8
oshw_logo
 62
7
100
AcDbSpline
 70
8
 71
3
 72
8
 73
4
 74
0
 40
0
 40
0
 40
0
 40
0
 40
1
 40
1
 40
1
 40
1
 10
94.833130
 20
92.789705
 30
0.0
 10
94.833130
 20
93.238345
 30
0.0
 10
94.753063
 20
93.658896
 30
0.0
 10
94.592936
 20
94.051354
 30
0.0
  0
SPLINE
  5
1dc
100
AcDbEntity
  8
oshw_logo
 62
7
100
AcDbSpline
 70
8
 71
3
 72
8
 73
4
 74
0
 40
0
 40
0
 40
0
 40
0
 40
1
 40
1
 40
1
 40
1
 10
94.592936
 20
94.051354
 30
0.0
 10
94.432809
 20
94.443807
 30
0.0
 10
94.216110
 20
94.787280
 30
0.0
 10
93.942862
 20
95.081770
 30
0.0
  0
SPLINE
  5
1dd
100
AcDbEntity
  8
oshw_logo
 62
7
100
AcDbSpline
 70
8
 71
3
 72
8
 73
4
 74
0
 40
0
 40
0
 40
0
 40
0
 40
1
 40
1
 40
1
 40
1
 10
93.942862
 20
95.081770
 30
0.0
 10
93.669615
 20
95.376249
 30
0.0
 10
93.349284
 20
95.607559
 30
0.0
 10
92.981867
 20
95.775698
 30
0.0
  0
SPLINE
  5
1de
100
AcDbEntity
  8
oshw_logo
 62
7
100
AcDbSpline
 70
8
 71
3
 72
8
 73
4
 74
0
 40
0
 40
0
 40
0
 40
0
 40
1
 40
1
 40
1
 40
1
 10
92.981867
 20
95.775698
 30
0.0
 10
92.614476
 20
95.943829
 30
0.0
 10
92.218877
 20
96.027895
 30
0.0
 10
91.795140
 20
96.027900
 30
0.0
  0
SPLINE
  5
1df
100
AcDbEntity
  8
oshw_logo
 62
7
100
AcDbSpline
 70
8
 71
3
 72
8
 73
4
 74
0
 40
0
 40
0
 40
0
 40
0
 40
1
 40
1
 40
1
 40
1
 10
91.795140
 20
96.027900
 30
0.0
 10
91.390078
 20
96.027895
 30
0.0
 10
91.006134
 20
95.946110
 30
0.0
 10
90.643337
 20
95.782545
 30
0.0
  0
SPLINE
  5
1e0
100
AcDbEntity
  8
oshw_logo
 62
7
100
AcDbSpline
 70
8
 71
3
 72
8
 73
4
 74
0
 40
0
 40
0
 40
0
 40
0
 40
1
 40
1
 40
1
 40
1
 10
90.643337
 20
95.782545
 30
0.0
 10
90.280538
 20
95.618966
 30
0.0
 10
89.962578
 20
95.396998
 30
0.0
 10
89.689457
 20
95.116636
 30
0.0
  0
SPLINE
  5
1e1
100
AcDbEntity
  8
oshw_logo
 62
7
100
AcDbSpline
 70
8
 71
3
 72
8
 73
4
 74
0
 40
0
 40
0
 40
0
 40
0
 40
1
 40
1
 40
1
 40
1
 10
89.689457
 20
95.116636
 30
0.0
 10
89.416362
 20
94.836265
 30
0.0
 10
89.197366
 20
94.506841
 30
0.0
 10
89.032495
 20
94.128364
 30
0.0
  0
SPLINE
  5
1e2
100
AcDbEntity
  8
oshw_logo
 62
7
100
AcDbSpline
 70
8
 71
3
 72
8
 73
4
 74
0
 40
0
 40
0
 40
0
 40
0
 40
1
 40
1
 40
1
 40
1
 10
89.032495
 20
94.128364
 30
0.0
 10
88.867623
 20
93.749879
 30
0.0
 10
88.780445
 20
93.341021
 30
0.0
 10
88.770957
 20
92.901793
 30
0.0
  0
LINE
  5
1e3
100
AcDbEntity
  8
oshw_logo
 62
7
100
AcDbLine
 10
88.770957
 20
92.901793
 30
0.0
 11
94.818897
 21
92.901793
 31
0.0
  0
SPLINE
  5
1e4
100
AcDbEntity
  8
oshw_logo
 62
7
100
AcDbSpline
 70
8
 71
3
 72
8
 73
4
 74
0
 40
0
 40
0
 40
0
 40
0
 40
1
 40
1
 40
1
 40
1
 10
100.545573
 20
95.831959
 30
0.0
 10
100.140510
 20
95.831951
 30
0.0
 10
99.761311
 20
95.745461
 30
0.0
 10
99.408000
 20
95.572484
 30
0.0
  0
SPLINE
  5
1e5
100
AcDbEntity
  8
oshw_logo
 62
7
100
AcDbSpline
 70
8
 71
3
 72
8
 73
4
 74
0
 40
0
 40
0
 40
0
 40
0
 40
1
 40
1
 40
1
 40
1
 10
99.408000
 20
95.572484
 30
0.0
 10
99.054689
 20
95.399493
 30
0.0
 10
98.746141
 20
95.165830
 30
0.0
 10
98.482356
 20
94.871495
 30
0.0
  0
SPLINE
  5
1e6
100
AcDbEntity
  8
oshw_logo
 62
7
100
AcDbSpline
 70
8
 71
3
 72
8
 73
4
 74
0
 40
0
 40
0
 40
0
 40
0
 40
1
 40
1
 40
1
 40
1
 10
98.482356
 20
94.871495
 30
0.0
 10
98.218597
 20
94.577146
 30
0.0
 10
98.011336
 20
94.231392
 30
0.0
 10
97.860541
 20
93.834235
 30
0.0
  0
SPLINE
  5
1e7
100
AcDbEntity
  8
oshw_logo
 62
7
100
AcDbSpline
 70
8
 71
3
 72
8
 73
4
 74
0
 40
0
 40
0
 40
0
 40
0
 40
1
 40
1
 40
1
 40
1
 10
97.860541
 20
93.834235
 30
0.0
 10
97.709776
 20
93.437069
 30
0.0
 10
97.634380
 20
93.014165
 30
0.0
 10
97.634354
 20
92.565525
 30
0.0
  0
SPLINE
  5
1e8
100
AcDbEntity
  8
oshw_logo
 62
7
100
AcDbSpline
 70
8
 71
3
 72
8
 73
4
 74
0
 40
0
 40
0
 40
0
 40
0
 40
1
 40
1
 40
1
 40
1
 10
97.634354
 20
92.565525
 30
0.0
 10
97.634380
 20
92.116879
 30
0.0
 10
97.709776
 20
91.693975
 30
0.0
 10
97.860541
 20
91.296815
 30
0.0
  0
SPLINE
  5
1e9
100
AcDbEntity
  8
oshw_logo
 62
7
100
AcDbSpline
 70
8
 71
3
 72
8
 73
4
 74
0
 40
0
 40
0
 40
0
 40
0
 40
1
 40
1
 40
1
 40
1
 10
97.860541
 20
91.296815
 30
0.0
 10
98.011336
 20
90.899649
 30
0.0
 10
98.218597
 20
90.553825
 30
0.0
 10
98.482356
 20
90.259340
 30
0.0
  0
SPLINE
  5
1ea
100
AcDbEntity
  8
oshw_logo
 62
7
100
AcDbSpline
 70
8
 71
3
 72
8
 73
4
 74
0
 40
0
 40
0
 40
0
 40
0
 40
1
 40
1
 40
1
 40
1
 10
98.482356
 20
90.259340
 30
0.0
 10
98.746141
 20
89.964855
 30
0.0
 10
99.054689
 20
89.733473
 30
0.0
 10
99.408000
 20
89.565195
 30
0.0
  0
SPLINE
  5
1eb
100
AcDbEntity
  8
oshw_logo
 62
7
100
AcDbSpline
 70
8
 71
3
 72
8
 73
4
 74
0
 40
0
 40
0
 40
0
 40
0
 40
1
 40
1
 40
1
 40
1
 10
99.408000
 20
89.565195
 30
0.0
 10
99.761311
 20
89.396920
 30
0.0
 10
100.140510
 20
89.312781
 30
0.0
 10
100.545573
 20
89.312781
 30
0.0
  0
SPLINE
  5
1ec
100
AcDbEntity
  8
oshw_logo
 62
7
100
AcDbSpline
 70
8
 71
3
 72
8
 73
4
 74
0
 40
0
 40
0
 40
0
 40
0
 40
1
 40
1
 40
1
 40
1
 10
100.545573
 20
89.312781
 30
0.0
 10
100.950635
 20
89.312781
 30
0.0
 10
101.329761
 20
89.396920
 30
0.0
 10
101.682920
 20
89.565195
 30
0.0
  0
SPLINE
  5
1ed
100
AcDbEntity
  8
oshw_logo
 62
7
100
AcDbSpline
 70
8
 71
3
 72
8
 73
4
 74
0
 40
0
 40
0
 40
0
 40
0
 40
1
 40
1
 40
1
 40
1
 10
101.682920
 20
89.565195
 30
0.0
 10
102.036104
 20
89.733473
 30
0.0
 10
102.344576
 20
89.964855
 30
0.0
 10
102.608335
 20
90.259340
 30
0.0
  0
SPLINE
  5
1ee
100
AcDbEntity
  8
oshw_logo
 62
7
100
AcDbSpline
 70
8
 71
3
 72
8
 73
4
 74
0
 40
0
 40
0
 40
0
 40
0
 40
1
 40
1
 40
1
 40
1
 10
102.608335
 20
90.259340
 30
0.0
 10
102.872119
 20
90.553825
 30
0.0
 10
103.081754
 20
90.899649
 30
0.0
 10
103.237290
 20
91.296815
 30
0.0
  0
SPLINE
  5
1ef
100
AcDbEntity
  8
oshw_logo
 62
7
100
AcDbSpline
 70
8
 71
3
 72
8
 73
4
 74
0
 40
0
 40
0
 40
0
 40
0
 40
1
 40
1
 40
1
 40
1
 10
103.237290
 20
91.296815
 30
0.0
 10
103.392800
 20
91.693975
 30
0.0
 10
103.470566
 20
92.116879
 30
0.0
 10
103.470566
 20
92.565525
 30
0.0
  0
SPLINE
  5
1f0
100
AcDbEntity
  8
oshw_logo
 62
7
100
AcDbSpline
 70
8
 71
3
 72
8
 73
4
 74
0
 40
0
 40
0
 40
0
 40
0
 40
1
 40
1
 40
1
 40
1
 10
103.470566
 20
92.565525
 30
0.0
 10
103.470566
 20
93.014165
 30
0.0
 10
103.392800
 20
93.437069
 30
0.0
 10
103.237290
 20
93.834235
 30
0.0
  0
SPLINE
  5
1f1
100
AcDbEntity
  8
oshw_logo
 62
7
100
AcDbSpline
 70
8
 71
3
 72
8
 73
4
 74
0
 40
0
 40
0
 40
0
 40
0
 40
1
 40
1
 40
1
 40
1
 10
103.237290
 20
93.834235
 30
0.0
 10
103.081754
 20
94.231392
 30
0.0
 10
102.872119
 20
94.577146
 30
0.0
 10
102.608335
 20
94.871495
 30
0.0
  0
SPLINE
  5
1f2
100
AcDbEntity
  8
oshw_logo
 62
7
100
AcDbSpline
 70
8
 71
3
 72
8
 73
4
 74
0
 40
0
 40
0
 40
0
 40
0
 40
1
 40
1
 40
1
 40
1
 10
102.608335
 20
94.871495
 30
0.0
 10
102.344576
 20
95.165830
 30
0.0
 10
102.036104
 20
95.399493
 30
0.0
 10
101.682920
 20
95.572484
 30
0.0
  0
SPLINE
  5
1f3
100
AcDbEntity
  8
oshw_logo
 62
7
100
AcDbSpline
 70
8
 71
3
 72
8
 73
4
 74
0
 40
0
 40
0
 40
0
 40
0
 40
1
 40
1
 40
1
 40
1
 10
101.682920
 20
95.572484
 30
0.0
 10
101.329761
 20
95.745461
 30
0.0
 10
100.950635
 20
95.831951
 30
0.0
 10
100.545573
 20
95.831959
 30
0.0
  0
LINE
  5
1f4
100
AcDbEntity
  8
oshw_logo
 62
7
100
AcDbLine
 10
100.545573
 20
95.831959
 30
0.0
 11
100.545573
 21
95.831959
 31
0.0
  0
LINE
  5
1f5
100
AcDbEntity
  8
oshw_logo
 62
7
100
AcDbLine
 10
103.484370
 20
95.747679
 30
0.0
 11
103.484370
 21
85.569752
 31
0.0
  0
SPLINE
  5
1f6
100
AcDbEntity
  8
oshw_logo
 62
7
100
AcDbSpline
 70
8
 71
3
 72
8
 73
4
 74
0
 40
0
 40
0
 40
0
 40
0
 40
1
 40
1
 40
1
 40
1
 10
110.749241
 20
89.523268
 30
0.0
 10
111.201440
 20
89.523268
 30
0.0
 10
111.627722
 20
89.609690
 30
0.0
 10
112.028043
 20
89.782531
 30
0.0
  0
SPLINE
  5
1f7
100
AcDbEntity
  8
oshw_logo
 62
7
100
AcDbSpline
 70
8
 71
3
 72
8
 73
4
 74
0
 40
0
 40
0
 40
0
 40
0
 40
1
 40
1
 40
1
 40
1
 10
112.028043
 20
89.782531
 30
0.0
 10
112.428361
 20
89.955370
 30
0.0
 10
112.776852
 20
90.189033
 30
0.0
 10
113.073541
 20
90.483521
 30
0.0
  0
SPLINE
  5
1f8
100
AcDbEntity
  8
oshw_logo
 62
7
100
AcDbSpline
 70
8
 71
3
 72
8
 73
4
 74
0
 40
0
 40
0
 40
0
 40
0
 40
1
 40
1
 40
1
 40
1
 10
113.073541
 20
90.483521
 30
0.0
 10
113.370230
 20
90.778003
 30
0.0
 10
113.605753
 20
91.121476
 30
0.0
 10
113.780113
 20
91.513934
 30
0.0
  0
SPLINE
  5
1f9
100
AcDbEntity
  8
oshw_logo
 62
7
100
AcDbSpline
 70
8
 71
3
 72
8
 73
4
 74
0
 40
0
 40
0
 40
0
 40
0
 40
1
 40
1
 40
1
 40
1
 10
113.780113
 20
91.513934
 30
0.0
 10
113.954473
 20
91.906389
 30
0.0
 10
114.041651
 20
92.326940
 30
0.0
 10
114.041651
 20
92.775586
 30
0.0
  0
SPLINE
  5
1fa
100
AcDbEntity
  8
oshw_logo
 62
7
100
AcDbSpline
 70
8
 71
3
 72
8
 73
4
 74
0
 40
0
 40
0
 40
0
 40
0
 40
1
 40
1
 40
1
 40
1
 10
114.041651
 20
92.775586
 30
0.0
 10
114.041651
 20
93.224226
 30
0.0
 10
113.954473
 20
93.644850
 30
0.0
 10
113.780113
 20
94.037452
 30
0.0
  0
SPLINE
  5
1fb
100
AcDbEntity
  8
oshw_logo
 62
7
100
AcDbSpline
 70
8
 71
3
 72
8
 73
4
 74
0
 40
0
 40
0
 40
0
 40
0
 40
1
 40
1
 40
1
 40
1
 10
113.780113
 20
94.037452
 30
0.0
 10
113.605753
 20
94.430046
 30
0.0
 10
113.370230
 20
94.773519
 30
0.0
 10
113.073541
 20
95.067865
 30
0.0
  0
SPLINE
  5
1fc
100
AcDbEntity
  8
oshw_logo
 62
7
100
AcDbSpline
 70
8
 71
3
 72
8
 73
4
 74
0
 40
0
 40
0
 40
0
 40
0
 40
1
 40
1
 40
1
 40
1
 10
113.073541
 20
95.067865
 30
0.0
 10
112.776852
 20
95.362203
 30
0.0
 10
112.428361
 20
95.595793
 30
0.0
 10
112.028043
 20
95.768643
 30
0.0
  0
SPLINE
  5
1fd
100
AcDbEntity
  8
oshw_logo
 62
7
100
AcDbSpline
 70
8
 71
3
 72
8
 73
4
 74
0
 40
0
 40
0
 40
0
 40
0
 40
1
 40
1
 40
1
 40
1
 10
112.028043
 20
95.768643
 30
0.0
 10
111.627722
 20
95.941475
 30
0.0
 10
111.201440
 20
96.027895
 30
0.0
 10
110.749241
 20
96.027900
 30
0.0
  0
SPLINE
  5
1fe
100
AcDbEntity
  8
oshw_logo
 62
7
100
AcDbSpline
 70
8
 71
3
 72
8
 73
4
 74
0
 40
0
 40
0
 40
0
 40
0
 40
1
 40
1
 40
1
 40
1
 10
110.749241
 20
96.027900
 30
0.0
 10
110.297016
 20
96.027895
 30
0.0
 10
109.870759
 20
95.941475
 30
0.0
 10
109.470438
 20
95.768643
 30
0.0
  0
SPLINE
  5
1ff
100
AcDbEntity
  8
oshw_logo
 62
7
100
AcDbSpline
 70
8
 71
3
 72
8
 73
4
 74
0
 40
0
 40
0
 40
0
 40
0
 40
1
 40
1
 40
1
 40
1
 10
109.470438
 20
95.768643
 30
0.0
 10
109.070120
 20
95.595793
 30
0.0
 10
108.721553
 20
95.362203
 30
0.0
 10
108.424712
 20
95.067865
 30
0.0
  0
SPLINE
  5
200
100
AcDbEntity
  8
oshw_logo
 62
7
100
AcDbSpline
 70
8
 71
3
 72
8
 73
4
 74
0
 40
0
 40
0
 40
0
 40
0
 40
1
 40
1
 40
1
 40
1
 10
108.424712
 20
95.067865
 30
0.0
 10
108.127899
 20
94.773519
 30
0.0
 10
107.892376
 20
94.430046
 30
0.0
 10
107.718143
 20
94.037452
 30
0.0
  0
SPLINE
  5
201
100
AcDbEntity
  8
oshw_logo
 62
7
100
AcDbSpline
 70
8
 71
3
 72
8
 73
4
 74
0
 40
0
 40
0
 40
0
 40
0
 40
1
 40
1
 40
1
 40
1
 10
107.718143
 20
94.037452
 30
0.0
 10
107.543936
 20
93.644850
 30
0.0
 10
107.456831
 20
93.224226
 30
0.0
 10
107.456831
 20
92.775586
 30
0.0
  0
SPLINE
  5
202
100
AcDbEntity
  8
oshw_logo
 62
7
100
AcDbSpline
 70
8
 71
3
 72
8
 73
4
 74
0
 40
0
 40
0
 40
0
 40
0
 40
1
 40
1
 40
1
 40
1
 10
107.456831
 20
92.775586
 30
0.0
 10
107.456831
 20
92.326940
 30
0.0
 10
107.543936
 20
91.906389
 30
0.0
 10
107.718143
 20
91.513934
 30
0.0
  0
SPLINE
  5
203
100
AcDbEntity
  8
oshw_logo
 62
7
100
AcDbSpline
 70
8
 71
3
 72
8
 73
4
 74
0
 40
0
 40
0
 40
0
 40
0
 40
1
 40
1
 40
1
 40
1
 10
107.718143
 20
91.513934
 30
0.0
 10
107.892376
 20
91.121476
 30
0.0
 10
108.127899
 20
90.778003
 30
0.0
 10
108.424712
 20
90.483521
 30
0.0
  0
SPLINE
  5
204
100
AcDbEntity
  8
oshw_logo
 62
7
100
AcDbSpline
 70
8
 71
3
 72
8
 73
4
 74
0
 40
0
 40
0
 40
0
 40
0
 40
1
 40
1
 40
1
 40
1
 10
108.424712
 20
90.483521
 30
0.0
 10
108.721553
 20
90.189033
 30
0.0
 10
109.070120
 20
89.955370
 30
0.0
 10
109.470438
 20
89.782531
 30
0.0
  0
SPLINE
  5
205
100
AcDbEntity
  8
oshw_logo
 62
7
100
AcDbSpline
 70
8
 71
3
 72
8
 73
4
 74
0
 40
0
 40
0
 40
0
 40
0
 40
1
 40
1
 40
1
 40
1
 10
109.470438
 20
89.782531
 30
0.0
 10
109.870759
 20
89.609690
 30
0.0
 10
110.297016
 20
89.523268
 30
0.0
 10
110.749241
 20
89.523268
 30
0.0
  0
LINE
  5
206
100
AcDbEntity
  8
oshw_logo
 62
7
100
AcDbLine
 10
110.749241
 20
89.523268
 30
0.0
 11
110.749241
 21
89.523268
 31
0.0
  0
LINE
  5
207
100
AcDbEntity
  8
oshw_logo
 62
7
100
AcDbLine
 10
64.650349
 20
173.118639
 30
0.0
 11
73.990146
 21
173.004889
 31
0.0
  0
LINE
  5
208
100
AcDbEntity
  8
oshw_logo
 62
7
100
AcDbLine
 10
73.990146
 20
173.004889
 30
0.0
 11
76.106805
 21
162.688803
 31
0.0
  0
LINE
  5
209
100
AcDbEntity
  8
oshw_logo
 62
7
100
AcDbLine
 10
76.106805
 20
162.688803
 30
0.0
 11
84.785146
 21
159.048859
 31
0.0
  0
LINE
  5
20a
100
AcDbEntity
  8
oshw_logo
 62
7
100
AcDbLine
 10
84.785146
 20
159.048859
 30
0.0
 11
94.010285
 21
165.060015
 31
0.0
  0
LINE
  5
20b
100
AcDbEntity
  8
oshw_logo
 62
7
100
AcDbLine
 10
94.010285
 20
165.060015
 30
0.0
 11
100.580771
 21
158.383867
 31
0.0
  0
LINE
  5
20c
100
AcDbEntity
  8
oshw_logo
 62
7
100
AcDbLine
 10
100.580771
 20
158.383867
 30
0.0
 11
94.733483
 21
149.502757
 31
0.0
  0
LINE
  5
20d
100
AcDbEntity
  8
oshw_logo
 62
7
100
AcDbLine
 10
94.733483
 20
149.502757
 30
0.0
 11
98.905083
 21
140.455396
 31
0.0
  0
LINE
  5
20e
100
AcDbEntity
  8
oshw_logo
 62
7
100
AcDbLine
 10
98.905083
 20
140.455396
 30
0.0
 11
109.020966
 21
138.434177
 31
0.0
  0
LINE
  5
20f
100
AcDbEntity
  8
oshw_logo
 62
7
100
AcDbLine
 10
109.020966
 20
138.434177
 30
0.0
 11
108.941608
 21
129.299321
 31
0.0
  0
LINE
  5
210
100
AcDbEntity
  8
oshw_logo
 62
7
100
AcDbLine
 10
108.941608
 20
129.299321
 30
0.0
 11
98.631660
 21
127.155603
 31
0.0
  0
LINE
  5
211
100
AcDbEntity
  8
oshw_logo
 62
7
100
AcDbLine
 10
98.631660
 20
127.155603
 30
0.0
 11
94.901055
 21
117.880748
 31
0.0
  0
LINE
  5
212
100
AcDbEntity
  8
oshw_logo
 62
7
100
AcDbLine
 10
94.901055
 20
117.880748
 30
0.0
 11
100.580771
 21
109.437128
 31
0.0
  0
LINE
  5
213
100
AcDbEntity
  8
oshw_logo
 62
7
100
AcDbLine
 10
100.580771
 20
109.437128
 30
0.0
 11
94.072030
 21
102.822228
 31
0.0
  0
LINE
  5
214
100
AcDbEntity
  8
oshw_logo
 62
7
100
AcDbLine
 10
94.072030
 20
102.822228
 30
0.0
 11
85.561260
 21
108.282147
 31
0.0
  0
LINE
  5
215
100
AcDbEntity
  8
oshw_logo
 62
7
100
AcDbLine
 10
85.561260
 20
108.282147
 30
0.0
 11
81.777716
 21
106.575922
 31
0.0
  0
LINE
  5
216
100
AcDbEntity
  8
oshw_logo
 62
7
100
AcDbLine
 10
81.777716
 20
106.575922
 30
0.0
 11
74.933830
 21
122.946919
 31
0.0
  0
SPLINE
  5
217
100
AcDbEntity
  8
oshw_logo
 62
7
100
AcDbSpline
 70
8
 71
3
 72
8
 73
4
 74
0
 40
0
 40
0
 40
0
 40
0
 40
1
 40
1
 40
1
 40
1
 10
74.933830
 20
122.946919
 30
0.0
 10
78.903037
 20
124.988777
 30
0.0
 10
81.618977
 20
129.098421
 30
0.0
 10
81.618977
 20
133.840499
 30
0.0
  0
SPLINE
  5
218
100
AcDbEntity
  8
oshw_logo
 62
7
100
AcDbSpline
 70
8
 71
3
 72
8
 73
4
 74
0
 40
0
 40
0
 40
0
 40
0
 40
1
 40
1
 40
1
 40
1
 10
81.618977
 20
133.840499
 30
0.0
 10
81.618977
 20
140.615718
 30
0.0
 10
76.083214
 20
146.107808
 30
0.0
 10
69.254113
 20
146.107808
 30
0.0
  0
SPLINE
  5
219
100
AcDbEntity
  8
oshw_logo
 62
7
100
AcDbSpline
 70
8
 71
3
 72
8
 73
4
 74
0
 40
0
 40
0
 40
0
 40
0
 40
1
 40
1
 40
1
 40
1
 10
69.254113
 20
146.107808
 30
0.0
 10
62.425013
 20
146.107808
 30
0.0
 10
56.889249
 20
140.615718
 30
0.0
 10
56.889249
 20
133.840499
 30
0.0
  0
SPLINE
  5
21a
100
AcDbEntity
  8
oshw_logo
 62
7
100
AcDbSpline
 70
8
 71
3
 72
8
 73
4
 74
0
 40
0
 40
0
 40
0
 40
0
 40
1
 40
1
 40
1
 40
1
 10
56.889249
 20
133.840499
 30
0.0
 10
56.889249
 20
129.073168
 30
0.0
 10
59.632365
 20
124.942428
 30
0.0
 10
63.636116
 20
122.911918
 30
0.0
  0
LINE
  5
21b
100
AcDbEntity
  8
oshw_logo
 62
7
100
AcDbLine
 10
63.636116
 20
122.911918
 30
0.0
 11
56.748147
 21
106.514671
 31
0.0
  0
LINE
  5
21c
100
AcDbEntity
  8
oshw_logo
 62
7
100
AcDbLine
 10
56.748147
 20
106.514671
 30
0.0
 11
52.964580
 21
108.282147
 31
0.0
  0
LINE
  5
21d
100
AcDbEntity
  8
oshw_logo
 62
7
100
AcDbLine
 10
52.964580
 20
108.282147
 30
0.0
 11
44.515555
 21
102.822228
 31
0.0
  0
LINE
  5
21e
100
AcDbEntity
  8
oshw_logo
 62
7
100
AcDbLine
 10
44.515555
 20
102.822228
 30
0.0
 11
37.786327
 21
109.332130
 31
0.0
  0
LINE
  5
21f
100
AcDbEntity
  8
oshw_logo
 62
7
100
AcDbLine
 10
37.786327
 20
109.332130
 30
0.0
 11
43.677721
 21
117.828246
 31
0.0
  0
LINE
  5
220
100
AcDbEntity
  8
oshw_logo
 62
7
100
AcDbLine
 10
43.677721
 20
117.828246
 30
0.0
 11
39.673694
 21
127.321849
 31
0.0
  0
LINE
  5
221
100
AcDbEntity
  8
oshw_logo
 62
7
100
AcDbLine
 10
39.673694
 20
127.321849
 30
0.0
 11
29.610702
 21
129.194320
 31
0.0
  0
LINE
  5
222
100
AcDbEntity
  8
oshw_logo
 62
7
100
AcDbLine
 10
29.610702
 20
129.194320
 30
0.0
 11
29.778274
 21
138.626675
 31
0.0
  0
LINE
  5
223
100
AcDbEntity
  8
oshw_logo
 62
7
100
AcDbLine
 10
29.778274
 20
138.626675
 30
0.0
 11
40.123471
 21
140.726643
 31
0.0
  0
LINE
  5
224
100
AcDbEntity
  8
oshw_logo
 62
7
100
AcDbLine
 10
40.123471
 20
140.726643
 30
0.0
 11
43.792354
 21
149.441507
 31
0.0
  0
LINE
  5
225
100
AcDbEntity
  8
oshw_logo
 62
7
100
AcDbLine
 10
43.792354
 20
149.441507
 30
0.0
 11
37.953896
 21
158.436369
 31
0.0
  0
LINE
  5
226
100
AcDbEntity
  8
oshw_logo
 62
7
100
AcDbLine
 10
37.953896
 20
158.436369
 30
0.0
 11
44.630213
 21
164.946268
 31
0.0
  0
LINE
  5
227
100
AcDbEntity
  8
oshw_logo
 62
7
100
AcDbLine
 10
44.630213
 20
164.946268
 30
0.0
 11
53.917094
 21
159.048859
 31
0.0
  0
LINE
  5
228
100
AcDbEntity
  8
oshw_logo
 62
7
100
AcDbLine
 10
53.917094
 20
159.048859
 30
0.0
 11
62.586605
 21
162.907548
 31
0.0
  0
LINE
  5
229
100
AcDbEntity
  8
oshw_logo
 62
7
100
AcDbLine
 10
62.586605
 20
162.907548
 30
0.0
 11
64.650349
 21
173.118639
 31
0.0
  0
LINE
  5
22a
100
AcDbEntity
  8
oshw_logo
 62
7
100
AcDbLine
 10
87.495557
 20
173.847678
 30
0.0
 11
88.336739
 21
178.496698
 31
0.0
  0
SPLINE
  5
22b
100
AcDbEntity
  8
oshw_logo
 62
7
100
AcDbSpline
 70
8
 71
3
 72
8
 73
4
 74
0
 40
0
 40
0
 40
0
 40
0
 40
1
 40
1
 40
1
 40
1
 10
88.336739
 20
178.496698
 30
0.0
 10
88.504124
 20
179.399686
 30
0.0
 10
88.556215
 20
180.194472
 30
0.0
 10
88.483925
 20
180.876875
 30
0.0
  0
SPLINE
  5
22c
100
AcDbEntity
  8
oshw_logo
 62
7
100
AcDbSpline
 70
8
 71
3
 72
8
 73
4
 74
0
 40
0
 40
0
 40
0
 40
0
 40
1
 40
1
 40
1
 40
1
 10
88.483925
 20
180.876875
 30
0.0
 10
88.420717
 20
181.563464
 30
0.0
 10
88.251295
 20
182.146041
 30
0.0
 10
88.007091
 20
182.628085
 30
0.0
  0
SPLINE
  5
22d
100
AcDbEntity
  8
oshw_logo
 62
7
100
AcDbSpline
 70
8
 71
3
 72
8
 73
4
 74
0
 40
0
 40
0
 40
0
 40
0
 40
1
 40
1
 40
1
 40
1
 10
88.007091
 20
182.628085
 30
0.0
 10
87.753803
 20
183.105939
 30
0.0
 10
87.421547
 20
183.492340
 30
0.0
 10
87.019405
 20
183.791473
 30
0.0
  0
SPLINE
  5
22e
100
AcDbEntity
  8
oshw_logo
 62
7
100
AcDbSpline
 70
8
 71
3
 72
8
 73
4
 74
0
 40
0
 40
0
 40
0
 40
0
 40
1
 40
1
 40
1
 40
1
 10
87.019405
 20
183.791473
 30
0.0
 10
86.608178
 20
184.086421
 30
0.0
 10
86.163394
 20
184.310844
 30
0.0
 10
85.658512
 20
184.474535
 30
0.0
  0
LINE
  5
22f
100
AcDbEntity
  8
oshw_logo
 62
7
100
AcDbLine
 10
89.266122
 20
183.527719
 30
0.0
 11
87.495557
 21
173.847678
 31
0.0
  0
SPLINE
  5
230
100
AcDbEntity
  8
oshw_logo
 62
7
100
AcDbSpline
 70
8
 71
3
 72
8
 73
4
 74
0
 40
0
 40
0
 40
0
 40
0
 40
1
 40
1
 40
1
 40
1
 10
92.281773
 20
176.340031
 30
0.0
 10
92.408261
 20
175.110031
 30
0.0
 10
92.842179
 20
174.120832
 30
0.0
 10
93.587718
 20
173.363354
 30
0.0
  0
SPLINE
  5
231
100
AcDbEntity
  8
oshw_logo
 62
7
100
AcDbSpline
 70
8
 71
3
 72
8
 73
4
 74
0
 40
0
 40
0
 40
0
 40
0
 40
1
 40
1
 40
1
 40
1
 10
93.587718
 20
173.363354
 30
0.0
 10
94.324173
 20
172.601689
 30
0.0
 10
95.284269
 20
172.119283
 30
0.0
 10
96.463110
 20
171.902867
 30
0.0
  0
SPLINE
  5
232
100
AcDbEntity
  8
oshw_logo
 62
7
100
AcDbSpline
 70
8
 71
3
 72
8
 73
4
 74
0
 40
0
 40
0
 40
0
 40
0
 40
1
 40
1
 40
1
 40
1
 10
96.463110
 20
171.902867
 30
0.0
 10
97.197091
 20
171.767698
 30
0.0
 10
97.890631
 20
171.768042
 30
0.0
 10
98.543735
 20
171.903903
 30
0.0
  0
SPLINE
  5
233
100
AcDbEntity
  8
oshw_logo
 62
7
100
AcDbSpline
 70
8
 71
3
 72
8
 73
4
 74
0
 40
0
 40
0
 40
0
 40
0
 40
1
 40
1
 40
1
 40
1
 10
98.543735
 20
171.903903
 30
0.0
 10
99.210104
 20
172.034868
 30
0.0
 10
99.808784
 20
172.288802
 30
0.0
 10
100.330704
 20
172.661488
 30
0.0
  0
SPLINE
  5
234
100
AcDbEntity
  8
oshw_logo
 62
7
100
AcDbSpline
 70
8
 71
3
 72
8
 73
4
 74
0
 40
0
 40
0
 40
0
 40
0
 40
1
 40
1
 40
1
 40
1
 10
100.330704
 20
172.661488
 30
0.0
 10
100.865889
 20
173.029288
 30
0.0
 10
101.315225
 20
173.511675
 30
0.0
 10
101.682902
 20
174.099565
 30
0.0
  0
SPLINE
  5
235
100
AcDbEntity
  8
oshw_logo
 62
7
100
AcDbSpline
 70
8
 71
3
 72
8
 73
4
 74
0
 40
0
 40
0
 40
0
 40
0
 40
1
 40
1
 40
1
 40
1
 10
101.682902
 20
174.099565
 30
0.0
 10
102.050575
 20
174.687457
 30
0.0
 10
102.304445
 20
175.355026
 30
0.0
 10
102.449409
 20
176.115544
 30
0.0
  0
SPLINE
  5
236
100
AcDbEntity
  8
oshw_logo
 62
7
100
AcDbSpline
 70
8
 71
3
 72
8
 73
4
 74
0
 40
0
 40
0
 40
0
 40
0
 40
1
 40
1
 40
1
 40
1
 10
102.449409
 20
176.115544
 30
0.0
 10
102.585288
 20
176.871875
 30
0.0
 10
102.585653
 20
177.587765
 30
0.0
 10
102.446316
 20
178.272298
 30
0.0
  0
SPLINE
  5
237
100
AcDbEntity
  8
oshw_logo
 62
7
100
AcDbSpline
 70
8
 71
3
 72
8
 73
4
 74
0
 40
0
 40
0
 40
0
 40
0
 40
1
 40
1
 40
1
 40
1
 10
102.446316
 20
178.272298
 30
0.0
 10
102.311165
 20
178.947748
 30
0.0
 10
102.062138
 20
179.559700
 30
0.0
 10
101.694336
 20
180.094885
 30
0.0
  0
SPLINE
  5
238
100
AcDbEntity
  8
oshw_logo
 62
7
100
AcDbSpline
 70
8
 71
3
 72
8
 73
4
 74
0
 40
0
 40
0
 40
0
 40
0
 40
1
 40
1
 40
1
 40
1
 10
101.694336
 20
180.094885
 30
0.0
 10
101.339805
 20
180.625174
 30
0.0
 10
100.866498
 20
181.078699
 30
0.0
 10
100.296061
 20
181.432395
 30
0.0
  0
SPLINE
  5
239
100
AcDbEntity
  8
oshw_logo
 62
7
100
AcDbSpline
 70
8
 71
3
 72
8
 73
4
 74
0
 40
0
 40
0
 40
0
 40
0
 40
1
 40
1
 40
1
 40
1
 10
100.296061
 20
181.432395
 30
0.0
 10
99.721440
 20
181.795173
 30
0.0
 10
99.080404
 20
182.039251
 30
0.0
 10
98.346422
 20
182.174423
 30
0.0
  0
SPLINE
  5
23a
100
AcDbEntity
  8
oshw_logo
 62
7
100
AcDbSpline
 70
8
 71
3
 72
8
 73
4
 74
0
 40
0
 40
0
 40
0
 40
0
 40
1
 40
1
 40
1
 40
1
 10
98.346422
 20
182.174423
 30
0.0
 10
97.381284
 20
182.357206
 30
0.0
 10
96.466306
 20
182.287830
 30
0.0
 10
95.602196
 20
181.988641
 30
0.0
  0
SPLINE
  5
23b
100
AcDbEntity
  8
oshw_logo
 62
7
100
AcDbSpline
 70
8
 71
3
 72
8
 73
4
 74
0
 40
0
 40
0
 40
0
 40
0
 40
1
 40
1
 40
1
 40
1
 10
95.602196
 20
181.988641
 30
0.0
 10
94.738086
 20
181.689452
 30
0.0
 10
94.095976
 20
181.195293
 30
0.0
 10
93.675868
 20
180.506158
 30
0.0
  0
LINE
  5
23c
100
AcDbEntity
  8
oshw_logo
 62
7
100
AcDbLine
 10
93.675868
 20
180.506158
 30
0.0
 11
99.052935
 21
176.102609
 31
0.0
  0
LINE
  5
23d
100
AcDbEntity
  8
oshw_logo
 62
7
100
AcDbLine
 10
106.170540
 20
170.431219
 30
0.0
 11
108.941231
 21
185.538253
 31
0.0
  0
SPLINE
  5
23e
100
AcDbEntity
  8
oshw_logo
 62
7
100
AcDbSpline
 70
8
 71
3
 72
8
 73
4
 74
0
 40
0
 40
0
 40
0
 40
0
 40
1
 40
1
 40
1
 40
1
 10
117.560913
 20
168.413932
 30
0.0
 10
116.903626
 20
168.287154
 30
0.0
 10
116.187736
 20
168.287519
 30
0.0
 10
115.395786
 20
168.429006
 30
0.0
  0
SPLINE
  5
23f
100
AcDbEntity
  8
oshw_logo
 62
7
100
AcDbSpline
 70
8
 71
3
 72
8
 73
4
 74
0
 40
0
 40
0
 40
0
 40
0
 40
1
 40
1
 40
1
 40
1
 10
115.395786
 20
168.429006
 30
0.0
 10
114.755389
 20
168.552255
 30
0.0
 10
114.163238
 20
168.785834
 30
0.0
 10
113.619337
 20
169.129739
 30
0.0
  0
SPLINE
  5
240
100
AcDbEntity
  8
oshw_logo
 62
7
100
AcDbSpline
 70
8
 71
3
 72
8
 73
4
 74
0
 40
0
 40
0
 40
0
 40
0
 40
1
 40
1
 40
1
 40
1
 10
113.619337
 20
169.129739
 30
0.0
 10
113.075435
 20
169.473643
 30
0.0
 10
112.627956
 20
169.895024
 30
0.0
 10
112.268529
 20
170.412045
 30
0.0
  0
SPLINE
  5
241
100
AcDbEntity
  8
oshw_logo
 62
7
100
AcDbSpline
 70
8
 71
3
 72
8
 73
4
 74
0
 40
0
 40
0
 40
0
 40
0
 40
1
 40
1
 40
1
 40
1
 10
112.268529
 20
170.412045
 30
0.0
 10
111.913285
 20
170.919987
 30
0.0
 10
111.667734
 20
171.500507
 30
0.0
 10
111.523501
 20
172.171772
 30
0.0
  0
SPLINE
  5
242
100
AcDbEntity
  8
oshw_logo
 62
7
100
AcDbSpline
 70
8
 71
3
 72
8
 73
4
 74
0
 40
0
 40
0
 40
0
 40
0
 40
1
 40
1
 40
1
 40
1
 10
111.523501
 20
172.171772
 30
0.0
 10
111.383454
 20
172.833957
 30
0.0
 10
111.374738
 20
173.545661
 30
0.0
 10
111.510617
 20
174.301992
 30
0.0
  0
SPLINE
  5
243
100
AcDbEntity
  8
oshw_logo
 62
7
100
AcDbSpline
 70
8
 71
3
 72
8
 73
4
 74
0
 40
0
 40
0
 40
0
 40
0
 40
1
 40
1
 40
1
 40
1
 10
111.510617
 20
174.301992
 30
0.0
 10
111.675873
 20
175.137929
 30
0.0
 10
111.936058
 20
175.863466
 30
0.0
 10
112.326792
 20
176.472995
 30
0.0
  0
SPLINE
  5
244
100
AcDbEntity
  8
oshw_logo
 62
7
100
AcDbSpline
 70
8
 71
3
 72
8
 73
4
 74
0
 40
0
 40
0
 40
0
 40
0
 40
1
 40
1
 40
1
 40
1
 10
112.326792
 20
176.472995
 30
0.0
 10
112.704257
 20
177.087420
 30
0.0
 10
113.162675
 20
177.573994
 30
0.0
 10
113.706942
 20
177.945980
 30
0.0
  0
SPLINE
  5
245
100
AcDbEntity
  8
oshw_logo
 62
7
100
AcDbSpline
 70
8
 71
3
 72
8
 73
4
 74
0
 40
0
 40
0
 40
0
 40
0
 40
1
 40
1
 40
1
 40
1
 10
113.706942
 20
177.945980
 30
0.0
 10
114.242130
 20
178.313780
 30
0.0
 10
114.831729
 20
178.563519
 30
0.0
 10
115.484123
 20
178.677030
 30
0.0
  0
SPLINE
  5
246
100
AcDbEntity
  8
oshw_logo
 62
7
100
AcDbSpline
 70
8
 71
3
 72
8
 73
4
 74
0
 40
0
 40
0
 40
0
 40
0
 40
1
 40
1
 40
1
 40
1
 10
115.484123
 20
178.677030
 30
0.0
 10
116.132330
 20
178.799623
 30
0.0
 10
116.816788
 20
178.795783
 30
0.0
 10
117.519338
 20
178.657135
 30
0.0
  0
SPLINE
  5
247
100
AcDbEntity
  8
oshw_logo
 62
7
100
AcDbSpline
 70
8
 71
3
 72
8
 73
4
 74
0
 40
0
 40
0
 40
0
 40
0
 40
1
 40
1
 40
1
 40
1
 10
117.519338
 20
178.657135
 30
0.0
 10
118.249133
 20
178.531044
 30
0.0
 10
118.885273
 20
178.273699
 30
0.0
 10
119.437544
 20
177.911630
 30
0.0
  0
SPLINE
  5
248
100
AcDbEntity
  8
oshw_logo
 62
7
100
AcDbSpline
 70
8
 71
3
 72
8
 73
4
 74
0
 40
0
 40
0
 40
0
 40
0
 40
1
 40
1
 40
1
 40
1
 10
119.437544
 20
177.911630
 30
0.0
 10
119.989821
 20
177.549562
 30
0.0
 10
120.444963
 20
177.087668
 30
0.0
 10
120.780621
 20
176.526656
 30
0.0
  0
SPLINE
  5
249
100
AcDbEntity
  8
oshw_logo
 62
7
100
AcDbSpline
 70
8
 71
3
 72
8
 73
4
 74
0
 40
0
 40
0
 40
0
 40
0
 40
1
 40
1
 40
1
 40
1
 10
120.780621
 20
176.526656
 30
0.0
 10
121.121176
 20
175.978916
 30
0.0
 10
121.346427
 20
175.322971
 30
0.0
 10
121.461293
 20
174.572101
 30
0.0
  0
SPLINE
  5
24a
100
AcDbEntity
  8
oshw_logo
 62
7
100
AcDbSpline
 70
8
 71
3
 72
8
 73
4
 74
0
 40
0
 40
0
 40
0
 40
0
 40
1
 40
1
 40
1
 40
1
 10
121.461293
 20
174.572101
 30
0.0
 10
121.567069
 20
173.817045
 30
0.0
 10
121.540808
 20
172.990118
 30
0.0
 10
121.373422
 20
172.087134
 30
0.0
  0
LINE
  5
24b
100
AcDbEntity
  8
oshw_logo
 62
7
100
AcDbLine
 10
121.373422
 20
172.087134
 30
0.0
 11
119.592356
 21
162.358207
 31
0.0
  0
LINE
  5
24c
100
AcDbEntity
  8
oshw_logo
 62
7
100
AcDbLine
 10
124.969833
 20
166.983963
 30
0.0
 11
126.203190
 21
173.696649
 31
0.0
  0
SPLINE
  5
24d
100
AcDbEntity
  8
oshw_logo
 62
7
100
AcDbSpline
 70
8
 71
3
 72
8
 73
4
 74
0
 40
0
 40
0
 40
0
 40
0
 40
1
 40
1
 40
1
 40
1
 10
126.203190
 20
173.696649
 30
0.0
 10
126.294935
 20
174.190392
 30
0.0
 10
126.456497
 20
174.628227
 30
0.0
 10
126.692055
 20
175.001068
 30
0.0
  0
SPLINE
  5
24e
100
AcDbEntity
  8
oshw_logo
 62
7
100
AcDbSpline
 70
8
 71
3
 72
8
 73
4
 74
0
 40
0
 40
0
 40
0
 40
0
 40
1
 40
1
 40
1
 40
1
 10
126.692055
 20
175.001068
 30
0.0
 10
126.936700
 20
175.378093
 30
0.0
 10
127.219018
 20
175.673387
 30
0.0
 10
127.552984
 20
175.904397
 30
0.0
  0
SPLINE
  5
24f
100
AcDbEntity
  8
oshw_logo
 62
7
100
AcDbSpline
 70
8
 71
3
 72
8
 73
4
 74
0
 40
0
 40
0
 40
0
 40
0
 40
1
 40
1
 40
1
 40
1
 10
127.552984
 20
175.904397
 30
0.0
 10
127.886950
 20
176.135406
 30
0.0
 10
128.254405
 20
176.293764
 30
0.0
 10
128.668617
 20
176.374571
 30
0.0
  0
SPLINE
  5
250
100
AcDbEntity
  8
oshw_logo
 62
7
100
AcDbSpline
 70
8
 71
3
 72
8
 73
4
 74
0
 40
0
 40
0
 40
0
 40
0
 40
1
 40
1
 40
1
 40
1
 10
128.668617
 20
176.374571
 30
0.0
 10
129.091908
 20
176.459563
 30
0.0
 10
129.521443
 20
176.459344
 30
0.0
 10
129.988652
 20
176.377391
 30
0.0
  0
SPLINE
  5
251
100
AcDbEntity
  8
oshw_logo
 62
7
100
AcDbSpline
 70
8
 71
3
 72
8
 73
4
 74
0
 40
0
 40
0
 40
0
 40
0
 40
1
 40
1
 40
1
 40
1
 10
129.988652
 20
176.377391
 30
0.0
 10
131.069724
 20
176.181978
 30
0.0
 10
131.859395
 20
175.687085
 30
0.0
 10
132.331132
 20
174.902507
 30
0.0
  0
SPLINE
  5
252
100
AcDbEntity
  8
oshw_logo
 62
7
100
AcDbSpline
 70
8
 71
3
 72
8
 73
4
 74
0
 40
0
 40
0
 40
0
 40
0
 40
1
 40
1
 40
1
 40
1
 10
132.331132
 20
174.902507
 30
0.0
 10
132.811957
 20
174.122116
 30
0.0
 10
132.941353
 20
173.124691
 30
0.0
 10
132.715148
 20
171.919318
 30
0.0
  0
LINE
  5
253
100
AcDbEntity
  8
oshw_logo
 62
7
100
AcDbLine
 10
132.715148
 20
171.919318
 30
0.0
 11
131.593827
 21
165.775796
 31
0.0
  0
LINE
  5
254
100
AcDbEntity
  8
oshw_logo
 62
7
100
AcDbLine
 10
131.593827
 20
165.775796
 30
0.0
 11
132.715148
 21
171.919318
 31
0.0
  0
SPLINE
  5
255
100
AcDbEntity
  8
oshw_logo
 62
7
100
AcDbSpline
 70
8
 71
3
 72
8
 73
4
 74
0
 40
0
 40
0
 40
0
 40
0
 40
1
 40
1
 40
1
 40
1
 10
132.715148
 20
171.919318
 30
0.0
 10
132.941353
 20
173.124691
 30
0.0
 10
133.416734
 20
174.004472
 30
0.0
 10
134.137104
 20
174.567736
 30
0.0
  0
SPLINE
  5
256
100
AcDbEntity
  8
oshw_logo
 62
7
100
AcDbSpline
 70
8
 71
3
 72
8
 73
4
 74
0
 40
0
 40
0
 40
0
 40
0
 40
1
 40
1
 40
1
 40
1
 10
134.137104
 20
174.567736
 30
0.0
 10
134.857472
 20
175.131004
 30
0.0
 10
135.762733
 20
175.317021
 30
0.0
 10
136.857070
 20
175.116714
 30
0.0
  0
SPLINE
  5
257
100
AcDbEntity
  8
oshw_logo
 62
7
100
AcDbSpline
 70
8
 71
3
 72
8
 73
4
 74
0
 40
0
 40
0
 40
0
 40
0
 40
1
 40
1
 40
1
 40
1
 10
136.857070
 20
175.116714
 30
0.0
 10
137.315197
 20
175.030575
 30
0.0
 10
137.726496
 20
174.878805
 30
0.0
 10
138.081886
 20
174.657222
 30
0.0
  0
SPLINE
  5
258
100
AcDbEntity
  8
oshw_logo
 62
7
100
AcDbSpline
 70
8
 71
3
 72
8
 73
4
 74
0
 40
0
 40
0
 40
0
 40
0
 40
1
 40
1
 40
1
 40
1
 10
138.081886
 20
174.657222
 30
0.0
 10
138.441460
 20
174.426556
 30
0.0
 10
138.736750
 20
174.144243
 30
0.0
 10
138.976846
 20
173.814458
 30
0.0
  0
SPLINE
  5
259
100
AcDbEntity
  8
oshw_logo
 62
7
100
AcDbSpline
 70
8
 71
3
 72
8
 73
4
 74
0
 40
0
 40
0
 40
0
 40
0
 40
1
 40
1
 40
1
 40
1
 10
138.976846
 20
173.814458
 30
0.0
 10
139.207852
 20
173.480491
 30
0.0
 10
139.374582
 20
173.094873
 30
0.0
 10
139.450492
 20
172.667395
 30
0.0
  0
SPLINE
  5
25a
100
AcDbEntity
  8
oshw_logo
 62
7
100
AcDbSpline
 70
8
 71
3
 72
8
 73
4
 74
0
 40
0
 40
0
 40
0
 40
0
 40
1
 40
1
 40
1
 40
1
 10
139.450492
 20
172.667395
 30
0.0
 10
139.539671
 20
172.235022
 30
0.0
 10
139.533847
 20
171.769870
 30
0.0
 10
139.442102
 20
171.276125
 30
0.0
  0
LINE
  5
25b
100
AcDbEntity
  8
oshw_logo
 62
7
100
AcDbLine
 10
139.442102
 20
171.276125
 30
0.0
 11
138.212930
 21
164.554360
 31
0.0
  0
SPLINE
  5
25c
100
AcDbEntity
  8
oshw_logo
 62
7
100
AcDbSpline
 70
8
 71
3
 72
8
 73
4
 74
0
 40
0
 40
0
 40
0
 40
0
 40
1
 40
1
 40
1
 40
1
 10
145.687622
 20
163.363916
 30
0.0
 10
146.149079
 20
162.959990
 30
0.0
 10
146.735626
 20
162.690796
 30
0.0
 10
147.456337
 20
162.560519
 30
0.0
  0
SPLINE
  5
25d
100
AcDbEntity
  8
oshw_logo
 62
7
100
AcDbSpline
 70
8
 71
3
 72
8
 73
4
 74
0
 40
0
 40
0
 40
0
 40
0
 40
1
 40
1
 40
1
 40
1
 10
147.456337
 20
162.560519
 30
0.0
 10
148.181239
 20
162.421164
 30
0.0
 10
148.870593
 20
162.430590
 30
0.0
 10
149.541860
 20
162.574823
 30
0.0
  0
SPLINE
  5
25e
100
AcDbEntity
  8
oshw_logo
 62
7
100
AcDbSpline
 70
8
 71
3
 72
8
 73
4
 74
0
 40
0
 40
0
 40
0
 40
0
 40
1
 40
1
 40
1
 40
1
 10
149.541860
 20
162.574823
 30
0.0
 10
150.204043
 20
162.714870
 30
0.0
 10
150.798544
 20
162.977864
 30
0.0
 10
151.329539
 20
163.354758
 30
0.0
  0
SPLINE
  5
25f
100
AcDbEntity
  8
oshw_logo
 62
7
100
AcDbSpline
 70
8
 71
3
 72
8
 73
4
 74
0
 40
0
 40
0
 40
0
 40
0
 40
1
 40
1
 40
1
 40
1
 10
151.329539
 20
163.354758
 30
0.0
 10
151.860539
 20
163.731637
 30
0.0
 10
152.305688
 20
164.223107
 30
0.0
 10
152.664283
 20
164.806813
 30
0.0
  0
SPLINE
  5
260
100
AcDbEntity
  8
oshw_logo
 62
7
100
AcDbSpline
 70
8
 71
3
 72
8
 73
4
 74
0
 40
0
 40
0
 40
0
 40
0
 40
1
 40
1
 40
1
 40
1
 10
152.664283
 20
164.806813
 30
0.0
 10
153.031953
 20
165.394704
 30
0.0
 10
153.281640
 20
166.071353
 30
0.0
 10
153.417521
 20
166.827687
 30
0.0
  0
SPLINE
  5
261
100
AcDbEntity
  8
oshw_logo
 62
7
100
AcDbSpline
 70
8
 71
3
 72
8
 73
4
 74
0
 40
0
 40
0
 40
0
 40
0
 40
1
 40
1
 40
1
 40
1
 10
153.417521
 20
166.827687
 30
0.0
 10
153.562483
 20
167.588202
 30
0.0
 10
153.567034
 20
168.295013
 30
0.0
 10
153.431886
 20
168.970464
 30
0.0
  0
SPLINE
  5
262
100
AcDbEntity
  8
oshw_logo
 62
7
100
AcDbSpline
 70
8
 71
3
 72
8
 73
4
 74
0
 40
0
 40
0
 40
0
 40
0
 40
1
 40
1
 40
1
 40
1
 10
153.431886
 20
168.970464
 30
0.0
 10
153.300916
 20
169.636831
 30
0.0
 10
153.056074
 20
170.239704
 30
0.0
 10
152.688275
 20
170.774887
 30
0.0
  0
SPLINE
  5
263
100
AcDbEntity
  8
oshw_logo
 62
7
100
AcDbSpline
 70
8
 71
3
 72
8
 73
4
 74
0
 40
0
 40
0
 40
0
 40
0
 40
1
 40
1
 40
1
 40
1
 10
152.688275
 20
170.774887
 30
0.0
 10
152.329558
 20
171.314258
 30
0.0
 10
151.860441
 20
171.758699
 30
0.0
 10
151.294896
 20
172.125662
 30
0.0
  0
SPLINE
  5
264
100
AcDbEntity
  8
oshw_logo
 62
7
100
AcDbSpline
 70
8
 71
3
 72
8
 73
4
 74
0
 40
0
 40
0
 40
0
 40
0
 40
1
 40
1
 40
1
 40
1
 10
151.294896
 20
172.125662
 30
0.0
 10
150.716086
 20
172.497524
 30
0.0
 10
150.070867
 20
172.750685
 30
0.0
 10
149.350154
 20
172.880958
 30
0.0
  0
SPLINE
  5
265
100
AcDbEntity
  8
oshw_logo
 62
7
100
AcDbSpline
 70
8
 71
3
 72
8
 73
4
 74
0
 40
0
 40
0
 40
0
 40
0
 40
1
 40
1
 40
1
 40
1
 10
149.350154
 20
172.880958
 30
0.0
 10
148.629440
 20
173.011235
 30
0.0
 10
147.940794
 20
173.024156
 30
0.0
 10
147.297484
 20
172.914831
 30
0.0
  0
SPLINE
  5
266
100
AcDbEntity
  8
oshw_logo
 62
7
100
AcDbSpline
 70
8
 71
3
 72
8
 73
4
 74
0
 40
0
 40
0
 40
0
 40
0
 40
1
 40
1
 40
1
 40
1
 10
147.297484
 20
172.914831
 30
0.0
 10
146.658361
 20
172.796425
 30
0.0
 10
146.083444
 20
172.586489
 30
0.0
 10
145.576924
 20
172.275945
 30
0.0
  0
SPLINE
  5
267
100
AcDbEntity
  8
oshw_logo
 62
7
100
AcDbSpline
 70
8
 71
3
 72
8
 73
4
 74
0
 40
0
 40
0
 40
0
 40
0
 40
1
 40
1
 40
1
 40
1
 10
145.576924
 20
172.275945
 30
0.0
 10
145.065509
 20
171.952134
 30
0.0
 10
144.640649
 20
171.536085
 30
0.0
 10
144.302350
 20
171.027802
 30
0.0
  0
SPLINE
  5
268
100
AcDbEntity
  8
oshw_logo
 62
7
100
AcDbSpline
 70
8
 71
3
 72
8
 73
4
 74
0
 40
0
 40
0
 40
0
 40
0
 40
1
 40
1
 40
1
 40
1
 10
144.302350
 20
171.027802
 30
0.0
 10
143.959155
 20
170.506248
 30
0.0
 10
143.725579
 20
169.914098
 30
0.0
 10
143.596724
 20
169.238085
 30
0.0
  0
LINE
  5
269
100
AcDbEntity
  8
oshw_logo
 62
7
100
AcDbLine
 10
143.596724
 20
169.238085
 30
0.0
 11
142.599366
 21
163.757310
 31
0.0
  0
SPLINE
  5
26a
100
AcDbEntity
  8
oshw_logo
 62
7
100
AcDbSpline
 70
8
 71
3
 72
8
 73
4
 74
0
 40
0
 40
0
 40
0
 40
0
 40
1
 40
1
 40
1
 40
1
 10
159.498683
 20
176.281335
 30
0.0
 10
166.661260
 20
176.664000
 30
0.0
 10
171.060329
 20
170.421404
 30
0.0
 10
161.803612
 20
168.270559
 30
0.0
  0
SPLINE
  5
26b
100
AcDbEntity
  8
oshw_logo
 62
7
100
AcDbSpline
 70
8
 71
3
 72
8
 73
4
 74
0
 40
0
 40
0
 40
0
 40
0
 40
1
 40
1
 40
1
 40
1
 10
161.803612
 20
168.270559
 30
0.0
 10
160.988459
 20
168.104051
 30
0.0
 10
160.220770
 20
167.882341
 30
0.0
 10
159.509632
 20
167.609618
 30
0.0
  0
SPLINE
  5
26c
100
AcDbEntity
  8
oshw_logo
 62
7
100
AcDbSpline
 70
8
 71
3
 72
8
 73
4
 74
0
 40
0
 40
0
 40
0
 40
0
 40
1
 40
1
 40
1
 40
1
 10
159.509632
 20
167.609618
 30
0.0
 10
158.798489
 20
167.336892
 30
0.0
 10
158.178797
 20
166.985207
 30
0.0
 10
157.654754
 20
166.545454
 30
0.0
  0
SPLINE
  5
26d
100
AcDbEntity
  8
oshw_logo
 62
7
100
AcDbSpline
 70
8
 71
3
 72
8
 73
4
 74
0
 40
0
 40
0
 40
0
 40
0
 40
1
 40
1
 40
1
 40
1
 10
157.654754
 20
166.545454
 30
0.0
 10
157.130707
 20
166.105712
 30
0.0
 10
156.802838
 20
165.503134
 30
0.0
 10
156.666247
 20
164.724452
 30
0.0
  0
SPLINE
  5
26e
100
AcDbEntity
  8
oshw_logo
 62
7
100
AcDbSpline
 70
8
 71
3
 72
8
 73
4
 74
0
 40
0
 40
0
 40
0
 40
0
 40
1
 40
1
 40
1
 40
1
 10
156.666247
 20
164.724452
 30
0.0
 10
156.440039
 20
163.519077
 30
0.0
 10
156.638617
 20
162.586572
 30
0.0
 10
157.257082
 20
161.913666
 30
0.0
  0
SPLINE
  5
26f
100
AcDbEntity
  8
oshw_logo
 62
7
100
AcDbSpline
 70
8
 71
3
 72
8
 73
4
 74
0
 40
0
 40
0
 40
0
 40
0
 40
1
 40
1
 40
1
 40
1
 10
157.257082
 20
161.913666
 30
0.0
 10
157.875548
 20
161.240766
 30
0.0
 10
158.742774
 20
160.792629
 30
0.0
 10
159.859458
 20
160.591609
 30
0.0
  0
LINE
  5
270
100
AcDbEntity
  8
oshw_logo
 62
7
100
AcDbLine
 10
159.859458
 20
160.591609
 30
0.0
 11
164.921910
 21
159.665705
 31
0.0
  0
LINE
  5
271
100
AcDbEntity
  8
oshw_logo
 62
7
100
AcDbLine
 10
176.755011
 20
157.500131
 30
0.0
 11
177.825878
 21
163.323094
 31
0.0
  0
SPLINE
  5
272
100
AcDbEntity
  8
oshw_logo
 62
7
100
AcDbSpline
 70
8
 71
3
 72
8
 73
4
 74
0
 40
0
 40
0
 40
0
 40
0
 40
1
 40
1
 40
1
 40
1
 10
177.825878
 20
163.323094
 30
0.0
 10
177.917622
 20
163.816840
 30
0.0
 10
177.920682
 20
164.335772
 30
0.0
 10
177.852507
 20
164.865914
 30
0.0
  0
SPLINE
  5
273
100
AcDbEntity
  8
oshw_logo
 62
7
100
AcDbSpline
 70
8
 71
3
 72
8
 73
4
 74
0
 40
0
 40
0
 40
0
 40
0
 40
1
 40
1
 40
1
 40
1
 10
177.852507
 20
164.865914
 30
0.0
 10
177.775246
 20
165.391873
 30
0.0
 10
177.612068
 20
165.889236
 30
0.0
 10
177.344799
 20
166.349638
 30
0.0
  0
SPLINE
  5
274
100
AcDbEntity
  8
oshw_logo
 62
7
100
AcDbSpline
 70
8
 71
3
 72
8
 73
4
 74
0
 40
0
 40
0
 40
0
 40
0
 40
1
 40
1
 40
1
 40
1
 10
177.344799
 20
166.349638
 30
0.0
 10
177.077533
 20
166.810038
 30
0.0
 10
176.718743
 20
167.206233
 30
0.0
 10
176.268425
 20
167.538217
 30
0.0
  0
SPLINE
  5
275
100
AcDbEntity
  8
oshw_logo
 62
7
100
AcDbSpline
 70
8
 71
3
 72
8
 73
4
 74
0
 40
0
 40
0
 40
0
 40
0
 40
1
 40
1
 40
1
 40
1
 10
176.268425
 20
167.538217
 30
0.0
 10
175.827189
 20
167.874387
 30
0.0
 10
175.270655
 20
168.102357
 30
0.0
 10
174.607909
 20
168.226317
 30
0.0
  0
SPLINE
  5
276
100
AcDbEntity
  8
oshw_logo
 62
7
100
AcDbSpline
 70
8
 71
3
 72
8
 73
4
 74
0
 40
0
 40
0
 40
0
 40
0
 40
1
 40
1
 40
1
 40
1
 10
174.607909
 20
168.226317
 30
0.0
 10
173.945163
 20
168.350278
 30
0.0
 10
173.349390
 20
168.328931
 30
0.0
 10
172.816406
 20
168.171358
 30
0.0
  0
SPLINE
  5
277
100
AcDbEntity
  8
oshw_logo
 62
7
100
AcDbSpline
 70
8
 71
3
 72
8
 73
4
 74
0
 40
0
 40
0
 40
0
 40
0
 40
1
 40
1
 40
1
 40
1
 10
172.816406
 20
168.171358
 30
0.0
 10
172.270160
 20
168.018670
 30
0.0
 10
171.801381
 20
167.769578
 30
0.0
 10
171.405899
 20
167.433136
 30
0.0
  0
SPLINE
  5
278
100
AcDbEntity
  8
oshw_logo
 62
7
100
AcDbSpline
 70
8
 71
3
 72
8
 73
4
 74
0
 40
0
 40
0
 40
0
 40
0
 40
1
 40
1
 40
1
 40
1
 10
171.405899
 20
167.433136
 30
0.0
 10
170.997149
 20
167.101590
 30
0.0
 10
170.666585
 20
166.695969
 30
0.0
 10
170.396751
 20
166.230256
 30
0.0
  0
SPLINE
  5
279
100
AcDbEntity
  8
oshw_logo
 62
7
100
AcDbSpline
 70
8
 71
3
 72
8
 73
4
 74
0
 40
0
 40
0
 40
0
 40
0
 40
1
 40
1
 40
1
 40
1
 10
170.396751
 20
166.230256
 30
0.0
 10
170.140188
 20
165.759642
 30
0.0
 10
169.954860
 20
165.277820
 30
0.0
 10
169.863115
 20
164.784078
 30
0.0
  0
LINE
  5
27a
100
AcDbEntity
  8
oshw_logo
 62
7
100
AcDbLine
 10
169.863115
 20
164.784078
 30
0.0
 11
168.796431
 21
158.952026
 31
0.0
  0
SPLINE
  5
27b
100
AcDbEntity
  8
oshw_logo
 62
7
100
AcDbSpline
 70
8
 71
3
 72
8
 73
4
 74
0
 40
0
 40
0
 40
0
 40
0
 40
1
 40
1
 40
1
 40
1
 10
181.567763
 20
159.982693
 30
0.0
 10
181.694249
 20
158.752690
 30
0.0
 10
182.132356
 20
157.754410
 30
0.0
 10
182.864628
 20
157.001827
 30
0.0
  0
SPLINE
  5
27c
100
AcDbEntity
  8
oshw_logo
 62
7
100
AcDbSpline
 70
8
 71
3
 72
8
 73
4
 74
0
 40
0
 40
0
 40
0
 40
0
 40
1
 40
1
 40
1
 40
1
 10
182.864628
 20
157.001827
 30
0.0
 10
183.610165
 20
156.244348
 30
0.0
 10
184.570257
 20
155.761944
 30
0.0
 10
185.753284
 20
155.536447
 30
0.0
  0
SPLINE
  5
27d
100
AcDbEntity
  8
oshw_logo
 62
7
100
AcDbSpline
 70
8
 71
3
 72
8
 73
4
 74
0
 40
0
 40
0
 40
0
 40
0
 40
1
 40
1
 40
1
 40
1
 10
185.753284
 20
155.536447
 30
0.0
 10
186.474001
 20
155.406171
 30
0.0
 10
187.176623
 20
155.410701
 30
0.0
 10
187.833909
 20
155.537480
 30
0.0
  0
SPLINE
  5
27e
100
AcDbEntity
  8
oshw_logo
 62
7
100
AcDbSpline
 70
8
 71
3
 72
8
 73
4
 74
0
 40
0
 40
0
 40
0
 40
0
 40
1
 40
1
 40
1
 40
1
 10
187.833909
 20
155.537480
 30
0.0
 10
188.496094
 20
155.677530
 30
0.0
 10
189.094780
 20
155.931436
 30
0.0
 10
189.616695
 20
156.304148
 30
0.0
  0
SPLINE
  5
27f
100
AcDbEntity
  8
oshw_logo
 62
7
100
AcDbSpline
 70
8
 71
3
 72
8
 73
4
 74
0
 40
0
 40
0
 40
0
 40
0
 40
1
 40
1
 40
1
 40
1
 10
189.616695
 20
156.304148
 30
0.0
 10
190.151878
 20
156.671946
 30
0.0
 10
190.592134
 20
157.150148
 30
0.0
 10
190.968890
 20
157.742226
 30
0.0
  0
SPLINE
  5
280
100
AcDbEntity
  8
oshw_logo
 62
7
100
AcDbSpline
 70
8
 71
3
 72
8
 73
4
 74
0
 40
0
 40
0
 40
0
 40
0
 40
1
 40
1
 40
1
 40
1
 10
190.968890
 20
157.742226
 30
0.0
 10
191.340750
 20
158.321033
 30
0.0
 10
191.590435
 20
158.997688
 30
0.0
 10
191.735397
 20
159.758202
 30
0.0
  0
SPLINE
  5
281
100
AcDbEntity
  8
oshw_logo
 62
7
100
AcDbSpline
 70
8
 71
3
 72
8
 73
4
 74
0
 40
0
 40
0
 40
0
 40
0
 40
1
 40
1
 40
1
 40
1
 10
191.735397
 20
159.758202
 30
0.0
 10
191.871279
 20
160.514534
 30
0.0
 10
191.871645
 20
161.230424
 30
0.0
 10
191.732307
 20
161.914957
 30
0.0
  0
SPLINE
  5
282
100
AcDbEntity
  8
oshw_logo
 62
7
100
AcDbSpline
 70
8
 71
3
 72
8
 73
4
 74
0
 40
0
 40
0
 40
0
 40
0
 40
1
 40
1
 40
1
 40
1
 10
191.732307
 20
161.914957
 30
0.0
 10
191.597156
 20
162.590410
 30
0.0
 10
191.339036
 20
163.198172
 30
0.0
 10
190.980326
 20
163.737546
 30
0.0
  0
SPLINE
  5
283
100
AcDbEntity
  8
oshw_logo
 62
7
100
AcDbSpline
 70
8
 71
3
 72
8
 73
4
 74
0
 40
0
 40
0
 40
0
 40
0
 40
1
 40
1
 40
1
 40
1
 10
190.980326
 20
163.737546
 30
0.0
 10
190.616713
 20
164.263650
 30
0.0
 10
190.156676
 20
164.712274
 30
0.0
 10
189.582052
 20
165.075054
 30
0.0
  0
SPLINE
  5
284
100
AcDbEntity
  8
oshw_logo
 62
7
100
AcDbSpline
 70
8
 71
3
 72
8
 73
4
 74
0
 40
0
 40
0
 40
0
 40
0
 40
1
 40
1
 40
1
 40
1
 10
189.582052
 20
165.075054
 30
0.0
 10
189.007428
 20
165.437832
 30
0.0
 10
188.366395
 20
165.681910
 30
0.0
 10
187.632413
 20
165.817082
 30
0.0
  0
SPLINE
  5
285
100
AcDbEntity
  8
oshw_logo
 62
7
100
AcDbSpline
 70
8
 71
3
 72
8
 73
4
 74
0
 40
0
 40
0
 40
0
 40
0
 40
1
 40
1
 40
1
 40
1
 10
187.632413
 20
165.817082
 30
0.0
 10
186.662379
 20
165.986597
 30
0.0
 10
185.752295
 20
165.930488
 30
0.0
 10
184.888184
 20
165.631302
 30
0.0
  0
SPLINE
  5
286
100
AcDbEntity
  8
oshw_logo
 62
7
100
AcDbSpline
 70
8
 71
3
 72
8
 73
4
 74
0
 40
0
 40
0
 40
0
 40
0
 40
1
 40
1
 40
1
 40
1
 10
184.888184
 20
165.631302
 30
0.0
 10
184.014990
 20
165.327941
 30
0.0
 10
183.381964
 20
164.837954
 30
0.0
 10
182.966042
 20
164.139735
 30
0.0
  0
LINE
  5
287
100
AcDbEntity
  8
oshw_logo
 62
7
100
AcDbLine
 10
182.966042
 20
164.139735
 30
0.0
 11
188.329841
 21
159.741081
 31
0.0
  0
LINE
  5
288
100
AcDbEntity
  8
oshw_logo
 62
7
100
AcDbLine
 10
203.375223
 20
146.998931
 30
0.0
 11
205.156289
 21
156.727858
 31
0.0
  0
SPLINE
  5
289
100
AcDbEntity
  8
oshw_logo
 62
7
100
AcDbSpline
 70
8
 71
3
 72
8
 73
4
 74
0
 40
0
 40
0
 40
0
 40
0
 40
1
 40
1
 40
1
 40
1
 10
205.156289
 20
156.727858
 30
0.0
 10
205.319489
 20
157.639924
 30
0.0
 10
205.354834
 20
158.471041
 30
0.0
 10
205.239973
 20
159.221910
 30
0.0
  0
SPLINE
  5
28a
100
AcDbEntity
  8
oshw_logo
 62
7
100
AcDbSpline
 70
8
 71
3
 72
8
 73
4
 74
0
 40
0
 40
0
 40
0
 40
0
 40
1
 40
1
 40
1
 40
1
 10
205.239973
 20
159.221910
 30
0.0
 10
205.138386
 20
159.967885
 30
0.0
 10
204.913124
 20
160.623829
 30
0.0
 10
204.568384
 20
161.180655
 30
0.0
  0
SPLINE
  5
28b
100
AcDbEntity
  8
oshw_logo
 62
7
100
AcDbSpline
 70
8
 71
3
 72
8
 73
4
 74
0
 40
0
 40
0
 40
0
 40
0
 40
1
 40
1
 40
1
 40
1
 10
204.568384
 20
161.180655
 30
0.0
 10
204.223643
 20
161.737477
 30
0.0
 10
203.781771
 20
162.194477
 30
0.0
 10
203.225309
 20
162.565626
 30
0.0
  0
SPLINE
  5
28c
100
AcDbEntity
  8
oshw_logo
 62
7
100
AcDbSpline
 70
8
 71
3
 72
8
 73
4
 74
0
 40
0
 40
0
 40
0
 40
0
 40
1
 40
1
 40
1
 40
1
 10
203.225309
 20
162.565626
 30
0.0
 10
202.673035
 20
162.927694
 30
0.0
 10
202.031999
 20
163.171772
 30
0.0
 10
201.307102
 20
163.311131
 30
0.0
  0
SPLINE
  5
28d
100
AcDbEntity
  8
oshw_logo
 62
7
100
AcDbSpline
 70
8
 71
3
 72
8
 73
4
 74
0
 40
0
 40
0
 40
0
 40
0
 40
1
 40
1
 40
1
 40
1
 10
201.307102
 20
163.311131
 30
0.0
 10
200.599656
 20
163.436511
 30
0.0
 10
199.924278
 20
163.444537
 30
0.0
 10
199.271884
 20
163.331025
 30
0.0
  0
SPLINE
  5
28e
100
AcDbEntity
  8
oshw_logo
 62
7
100
AcDbSpline
 70
8
 71
3
 72
8
 73
4
 74
0
 40
0
 40
0
 40
0
 40
0
 40
1
 40
1
 40
1
 40
1
 10
199.271884
 20
163.331025
 30
0.0
 10
198.623679
 20
163.208433
 30
0.0
 10
198.020809
 20
162.963592
 30
0.0
 10
197.485625
 20
162.595790
 30
0.0
  0
SPLINE
  5
28f
100
AcDbEntity
  8
oshw_logo
 62
7
100
AcDbSpline
 70
8
 71
3
 72
8
 73
4
 74
0
 40
0
 40
0
 40
0
 40
0
 40
1
 40
1
 40
1
 40
1
 10
197.485625
 20
162.595790
 30
0.0
 10
196.954626
 20
162.218906
 30
0.0
 10
196.496205
 20
161.732334
 30
0.0
 10
196.105474
 20
161.122805
 30
0.0
  0
SPLINE
  5
290
100
AcDbEntity
  8
oshw_logo
 62
7
100
AcDbSpline
 70
8
 71
3
 72
8
 73
4
 74
0
 40
0
 40
0
 40
0
 40
0
 40
1
 40
1
 40
1
 40
1
 10
196.105474
 20
161.122805
 30
0.0
 10
195.728006
 20
160.508379
 30
0.0
 10
195.454553
 20
159.787738
 30
0.0
 10
195.302565
 20
158.946902
 30
0.0
  0
SPLINE
  5
291
100
AcDbEntity
  8
oshw_logo
 62
7
100
AcDbSpline
 70
8
 71
3
 72
8
 73
4
 74
0
 40
0
 40
0
 40
0
 40
0
 40
1
 40
1
 40
1
 40
1
 10
195.302565
 20
158.946902
 30
0.0
 10
195.166686
 20
158.190574
 30
0.0
 10
195.166321
 20
157.474681
 30
0.0
 10
195.306367
 20
156.812499
 30
0.0
  0
SPLINE
  5
292
100
AcDbEntity
  8
oshw_logo
 62
7
100
AcDbSpline
 70
8
 71
3
 72
8
 73
4
 74
0
 40
0
 40
0
 40
0
 40
0
 40
1
 40
1
 40
1
 40
1
 10
195.306367
 20
156.812499
 30
0.0
 10
195.446414
 20
156.150316
 30
0.0
 10
195.705235
 20
155.564901
 30
0.0
 10
196.060477
 20
155.056959
 30
0.0
  0
SPLINE
  5
293
100
AcDbEntity
  8
oshw_logo
 62
7
100
AcDbSpline
 70
8
 71
3
 72
8
 73
4
 74
0
 40
0
 40
0
 40
0
 40
0
 40
1
 40
1
 40
1
 40
1
 10
196.060477
 20
155.056959
 30
0.0
 10
196.415720
 20
154.549020
 30
0.0
 10
196.867383
 20
154.118556
 30
0.0
 10
197.411287
 20
153.774653
 30
0.0
  0
SPLINE
  5
294
100
AcDbEntity
  8
oshw_logo
 62
7
100
AcDbSpline
 70
8
 71
3
 72
8
 73
4
 74
0
 40
0
 40
0
 40
0
 40
0
 40
1
 40
1
 40
1
 40
1
 10
197.411287
 20
153.774653
 30
0.0
 10
197.946108
 20
153.426559
 30
0.0
 10
198.538257
 20
153.192983
 30
0.0
 10
199.183549
 20
153.082999
 30
0.0
  0
SPLINE
  5
295
100
AcDbEntity
  8
oshw_logo
 62
7
100
AcDbSpline
 70
8
 71
3
 72
8
 73
4
 74
0
 40
0
 40
0
 40
0
 40
0
 40
1
 40
1
 40
1
 40
1
 10
199.183549
 20
153.082999
 30
0.0
 10
199.966416
 20
152.937328
 30
0.0
 10
200.695574
 20
152.932067
 30
0.0
 10
201.348675
 20
153.067927
 30
0.0
  0
SPLINE
  5
296
100
AcDbEntity
  8
oshw_logo
 62
7
100
AcDbSpline
 70
8
 71
3
 72
8
 73
4
 74
0
 40
0
 40
0
 40
0
 40
0
 40
1
 40
1
 40
1
 40
1
 10
225.249975
 20
156.420787
 30
0.0
 10
225.449572
 20
157.492773
 30
0.0
 10
225.433339
 20
158.531352
 30
0.0
 10
225.215250
 20
159.553961
 30
0.0
  0
SPLINE
  5
297
100
AcDbEntity
  8
oshw_logo
 62
7
100
AcDbSpline
 70
8
 71
3
 72
8
 73
4
 74
0
 40
0
 40
0
 40
0
 40
0
 40
1
 40
1
 40
1
 40
1
 10
225.215250
 20
159.553961
 30
0.0
 10
224.988082
 20
160.572388
 30
0.0
 10
224.601628
 20
161.506388
 30
0.0
 10
224.037724
 20
162.347586
 30
0.0
  0
SPLINE
  5
298
100
AcDbEntity
  8
oshw_logo
 62
7
100
AcDbSpline
 70
8
 71
3
 72
8
 73
4
 74
0
 40
0
 40
0
 40
0
 40
0
 40
1
 40
1
 40
1
 40
1
 10
224.037724
 20
162.347586
 30
0.0
 10
223.482904
 20
163.192971
 30
0.0
 10
222.758296
 20
163.905040
 30
0.0
 10
221.877880
 20
164.501251
 30
0.0
  0
SPLINE
  5
299
100
AcDbEntity
  8
oshw_logo
 62
7
100
AcDbSpline
 70
8
 71
3
 72
8
 73
4
 74
0
 40
0
 40
0
 40
0
 40
0
 40
1
 40
1
 40
1
 40
1
 10
221.877880
 20
164.501251
 30
0.0
 10
221.006543
 20
165.101647
 30
0.0
 10
219.994723
 20
165.505154
 30
0.0
 10
218.864768
 20
165.711069
 30
0.0
  0
SPLINE
  5
29a
100
AcDbEntity
  8
oshw_logo
 62
7
100
AcDbSpline
 70
8
 71
3
 72
8
 73
4
 74
0
 40
0
 40
0
 40
0
 40
0
 40
1
 40
1
 40
1
 40
1
 10
218.864768
 20
165.711069
 30
0.0
 10
217.725731
 20
165.912797
 30
0.0
 10
216.642458
 20
165.897984
 30
0.0
 10
215.610055
 20
165.653359
 30
0.0
  0
SPLINE
  5
29b
100
AcDbEntity
  8
oshw_logo
 62
7
100
AcDbSpline
 70
8
 71
3
 72
8
 73
4
 74
0
 40
0
 40
0
 40
0
 40
0
 40
1
 40
1
 40
1
 40
1
 10
215.610055
 20
165.653359
 30
0.0
 10
214.577649
 20
165.408740
 30
0.0
 10
213.647126
 20
164.990853
 30
0.0
 10
212.827569
 20
164.403890
 30
0.0
  0
SPLINE
  5
29c
100
AcDbEntity
  8
oshw_logo
 62
7
100
AcDbSpline
 70
8
 71
3
 72
8
 73
4
 74
0
 40
0
 40
0
 40
0
 40
0
 40
1
 40
1
 40
1
 40
1
 10
212.827569
 20
164.403890
 30
0.0
 10
211.998931
 20
163.812744
 30
0.0
 10
211.313396
 20
163.078343
 30
0.0
 10
210.735349
 20
162.206297
 30
0.0
  0
SPLINE
  5
29d
100
AcDbEntity
  8
oshw_logo
 62
7
100
AcDbSpline
 70
8
 71
3
 72
8
 73
4
 74
0
 40
0
 40
0
 40
0
 40
0
 40
1
 40
1
 40
1
 40
1
 10
210.735349
 20
162.206297
 30
0.0
 10
210.170570
 20
161.329358
 30
0.0
 10
209.790829
 20
160.361527
 30
0.0
 10
209.591231
 20
159.289535
 30
0.0
  0
SPLINE
  5
29e
100
AcDbEntity
  8
oshw_logo
 62
7
100
AcDbSpline
 70
8
 71
3
 72
8
 73
4
 74
0
 40
0
 40
0
 40
0
 40
0
 40
1
 40
1
 40
1
 40
1
 10
209.591231
 20
159.289535
 30
0.0
 10
209.400713
 20
158.221734
 30
0.0
 10
209.407863
 20
157.178974
 30
0.0
 10
209.625953
 20
156.156360
 30
0.0
  0
SPLINE
  5
29f
100
AcDbEntity
  8
oshw_logo
 62
7
100
AcDbSpline
 70
8
 71
3
 72
8
 73
4
 74
0
 40
0
 40
0
 40
0
 40
0
 40
1
 40
1
 40
1
 40
1
 10
209.625953
 20
156.156360
 30
0.0
 10
209.853121
 20
155.137933
 30
0.0
 10
210.239574
 20
154.203935
 30
0.0
 10
210.803478
 20
153.362737
 30
0.0
  0
SPLINE
  5
2a0
100
AcDbEntity
  8
oshw_logo
 62
7
100
AcDbSpline
 70
8
 71
3
 72
8
 73
4
 74
0
 40
0
 40
0
 40
0
 40
0
 40
1
 40
1
 40
1
 40
1
 10
210.803478
 20
153.362737
 30
0.0
 10
211.367382
 20
152.521539
 30
0.0
 10
212.082909
 20
151.805284
 30
0.0
 10
212.963322
 20
151.209075
 30
0.0
  0
SPLINE
  5
2a1
100
AcDbEntity
  8
oshw_logo
 62
7
100
AcDbSpline
 70
8
 71
3
 72
8
 73
4
 74
0
 40
0
 40
0
 40
0
 40
0
 40
1
 40
1
 40
1
 40
1
 10
212.963322
 20
151.209075
 30
0.0
 10
213.843740
 20
150.612865
 30
0.0
 10
214.846480
 20
150.205166
 30
0.0
 10
215.985517
 20
150.003438
 30
0.0
  0
SPLINE
  5
2a2
100
AcDbEntity
  8
oshw_logo
 62
7
100
AcDbSpline
 70
8
 71
3
 72
8
 73
4
 74
0
 40
0
 40
0
 40
0
 40
0
 40
1
 40
1
 40
1
 40
1
 10
215.985517
 20
150.003438
 30
0.0
 10
217.115471
 20
149.797526
 30
0.0
 10
218.198747
 20
149.812340
 30
0.0
 10
219.231148
 20
150.056961
 30
0.0
  0
SPLINE
  5
2a3
100
AcDbEntity
  8
oshw_logo
 62
7
100
AcDbSpline
 70
8
 71
3
 72
8
 73
4
 74
0
 40
0
 40
0
 40
0
 40
0
 40
1
 40
1
 40
1
 40
1
 10
219.231148
 20
150.056961
 30
0.0
 10
220.263555
 20
150.301584
 30
0.0
 10
221.194080
 20
150.719468
 30
0.0
 10
222.013634
 20
151.306433
 30
0.0
  0
SPLINE
  5
2a4
100
AcDbEntity
  8
oshw_logo
 62
7
100
AcDbSpline
 70
8
 71
3
 72
8
 73
4
 74
0
 40
0
 40
0
 40
0
 40
0
 40
1
 40
1
 40
1
 40
1
 10
222.013634
 20
151.306433
 30
0.0
 10
222.842277
 20
151.897581
 30
0.0
 10
223.536892
 20
152.636165
 30
0.0
 10
224.105856
 20
153.504025
 30
0.0
  0
SPLINE
  5
2a5
100
AcDbEntity
  8
oshw_logo
 62
7
100
AcDbSpline
 70
8
 71
3
 72
8
 73
4
 74
0
 40
0
 40
0
 40
0
 40
0
 40
1
 40
1
 40
1
 40
1
 10
224.105856
 20
153.504025
 30
0.0
 10
224.670635
 20
154.380967
 30
0.0
 10
225.050375
 20
155.348800
 30
0.0
 10
225.249975
 20
156.420787
 30
0.0
  0
LINE
  5
2a6
100
AcDbEntity
  8
oshw_logo
 62
7
100
AcDbLine
 10
225.249975
 20
156.420787
 30
0.0
 11
225.249975
 21
156.420787
 31
0.0
  0
ENDSEC
  0
SECTION
  2
OBJECTS
  0
DICTIONARY
  5
C
330
0
100
AcDbDictionary
  3
ACAD_GROUP
350
D
  3
ACAD_MLINESTYLE
350
17
  0
DICTIONARY
  5
D
330
C
100
AcDbDictionary
  0
DICTIONARY
  5
1A
330
C
100
AcDbDictionary
  0
DICTIONARY
  5
17
330
C
100
AcDbDictionary
  3
STANDARD
350
18
  0
DICTIONARY
  5
19
330
C
100
AcDbDictionary
  0
ENDSEC
  0
EOF
