  0
SECTION
  2
HEADER
  9
$ACADVER
  1
AC1014
  9
$HANDSEED
  5
FFFF
  9
$MEASUREMENT
 70
     1
  0
ENDSEC
  0
SECTION
  2
TABLES
  0
TABLE
  2
VPORT
  5
8
330
0
100
AcDbSymbolTable
 70
     4
  0
VPORT
  5
2E
330
8
100
AcDbSymbolTableRecord
100
AcDbViewportTableRecord
  2
*ACTIVE
 70
     0
 10
0.0
 20
0.0
 11
1.0
 21
1.0
 12
210.0
 22
148.5
 13
0.0
 23
0.0
 14
10.0
 24
10.0
 15
10.0
 25
10.0
 16
0.0
 26
0.0
 36
1.0
 17
0.0
 27
0.0
 37
0.0
 40
341.0
 41
1.24
 42
50.0
 43
0.0
 44
0.0
 50
0.0
 51
0.0
 71
     0
 72
   100
 73
     1
 74
     3
 75
     0
 76
     0
 77
     0
 78
     0
  0
ENDTAB
  0
TABLE
  2
LTYPE
  5
5
330
0
100
AcDbSymbolTable
 70
     1
  0
LTYPE
  5
14
330
5
100
AcDbSymbolTableRecord
100
AcDbLinetypeTableRecord
  2
BYBLOCK
 70
     0
  3

 72
    65
 73
     0
 40
0.0
  0
LTYPE
  5
15
330
5
100
AcDbSymbolTableRecord
100
AcDbLinetypeTableRecord
  2
BYLAYER
 70
     0
  3

 72
    65
 73
     0
 40
0.0
  0
LTYPE
  5
16
330
5
100
AcDbSymbolTableRecord
100
AcDbLinetypeTableRecord
  2
CONTINUOUS
 70
     0
  3
Solid line
 72
    65
 73
     0
 40
0.0
  0
ENDTAB
  0
TABLE
  2
LAYER
  5
2
100
AcDbSymbolTable
 70
1
  0
LAYER
  5
50
100
AcDbSymbolTableRecord
100
AcDbLayerTableRecord
  2
0
 70
0
  6
CONTINUOUS
  0
ENDTAB
  0
TABLE
  2
STYLE
  5
3
330
0
100
AcDbSymbolTable
 70
     1
  0
STYLE
  5
11
330
3
100
AcDbSymbolTableRecord
100
AcDbTextStyleTableRecord
  2
STANDARD
 70
     0
 40
0.0
 41
1.0
 50
0.0
 71
     0
 42
2.5
  3
txt
  4

  0
ENDTAB
  0
TABLE
  2
VIEW
  5
6
330
0
100
AcDbSymbolTable
 70
     0
  0
ENDTAB
  0
TABLE
  2
UCS
  5
7
330
0
100
AcDbSymbolTable
 70
     0
  0
ENDTAB
  0
TABLE
  2
APPID
  5
9
330
0
100
AcDbSymbolTable
 70
     2
  0
APPID
  5
12
330
9
100
AcDbSymbolTableRecord
100
AcDbRegAppTableRecord
  2
ACAD
 70
     0
  0
ENDTAB
  0
TABLE
  2
DIMSTYLE
  5
A
330
0
100
AcDbSymbolTable
 70
     1
  0
DIMSTYLE
105
27
330
A
100
AcDbSymbolTableRecord
100
AcDbDimStyleTableRecord
  2
ISO-25
 70
     0
  3

  4

  5

  6

  7

 40
1.0
 41
2.5
 42
0.625
 43
3.75
 44
1.25
 45
0.0
 46
0.0
 47
0.0
 48
0.0
140
2.5
141
2.5
142
0.0
143
0.03937007874016
144
1.0
145
0.0
146
1.0
147
0.625
 71
     0
 72
     0
 73
     0
 74
     0
 75
     0
 76
     0
 77
     1
 78
     8
170
     0
171
     3
172
     1
173
     0
174
     0
175
     0
176
     0
177
     0
178
     0
270
     2
271
     2
272
     2
273
     2
274
     3
340
11
275
     0
280
     0
281
     0
282
     0
283
     0
284
     8
285
     0
286
     0
287
     3
288
     0
  0
ENDTAB
  0
TABLE
  2
BLOCK_RECORD
  5
1
330
0
100
AcDbSymbolTable
 70
     1
  0
BLOCK_RECORD
  5
1F
330
1
100
AcDbSymbolTableRecord
100
AcDbBlockTableRecord
  2
*MODEL_SPACE
  0
BLOCK_RECORD
  5
1B
330
1
100
AcDbSymbolTableRecord
100
AcDbBlockTableRecord
  2
*PAPER_SPACE
  0
ENDTAB
  0
ENDSEC
  0
SECTION
  2
BLOCKS
  0
BLOCK
  5
20
330
1F
100
AcDbEntity
  8
0
100
AcDbBlockBegin
  2
*MODEL_SPACE
 70
     0
 10
0.0
 20
0.0
 30
0.0
  3
*MODEL_SPACE
  1

  0
ENDBLK
  5
21
330
1F
100
AcDbEntity
  8
0
100
AcDbBlockEnd
  0
BLOCK
  5
1C
330
1B
100
AcDbEntity
 67
     1
  8
0
100
AcDbBlockBegin
  2
*PAPER_SPACE
  1

  0
ENDBLK
  5
1D
330
1B
100
AcDbEntity
 67
     1
  8
0
100
AcDbBlockEnd
  0
ENDSEC
  0
SECTION
  2
ENTITIES
  0
LINE
  5
100
100
AcDbEntity
  8
0
 62
7
100
AcDbLine
 10
20.000000
 20
0.000001
 30
0.0
 11
17.489000
 21
0.099005
 31
0.0
  0
LINE
  5
101
100
AcDbEntity
  8
0
 62
7
100
AcDbLine
 10
17.489000
 20
0.099005
 30
0.0
 11
14.994000
 21
0.394012
 31
0.0
  0
LINE
  5
102
100
AcDbEntity
  8
0
 62
7
100
AcDbLine
 10
14.994000
 20
0.394012
 30
0.0
 11
12.530000
 21
0.884006
 31
0.0
  0
LINE
  5
103
100
AcDbEntity
  8
0
 62
7
100
AcDbLine
 10
12.530000
 20
0.884006
 30
0.0
 11
10.111000
 21
1.565996
 31
0.0
  0
LINE
  5
104
100
AcDbEntity
  8
0
 62
7
100
AcDbLine
 10
10.111000
 20
1.565996
 30
0.0
 11
7.754000
 21
2.436002
 31
0.0
  0
LINE
  5
105
100
AcDbEntity
  8
0
 62
7
100
AcDbLine
 10
7.754000
 20
2.436002
 30
0.0
 11
5.472000
 21
3.487986
 31
0.0
  0
LINE
  5
106
100
AcDbEntity
  8
0
 62
7
100
AcDbLine
 10
5.472000
 20
3.487986
 30
0.0
 11
3.280000
 21
4.715991
 31
0.0
  0
LINE
  5
107
100
AcDbEntity
  8
0
 62
7
100
AcDbLine
 10
3.280000
 20
4.715991
 30
0.0
 11
1.191000
 21
6.110987
 31
0.0
  0
LINE
  5
108
100
AcDbEntity
  8
0
 62
7
100
AcDbLine
 10
1.191000
 20
6.110987
 30
0.0
 11
0.000000
 21
7.049997
 31
0.0
  0
LINE
  5
109
100
AcDbEntity
  8
0
 62
7
100
AcDbLine
 10
0.000000
 20
7.049997
 30
0.0
 11
0.000000
 21
56.949999
 31
0.0
  0
LINE
  5
10a
100
AcDbEntity
  8
0
 62
7
100
AcDbLine
 10
0.000000
 20
56.949999
 30
0.0
 11
1.191000
 21
57.889000
 31
0.0
  0
LINE
  5
10b
100
AcDbEntity
  8
0
 62
7
100
AcDbLine
 10
1.191000
 20
57.889000
 30
0.0
 11
3.280000
 21
59.283999
 31
0.0
  0
LINE
  5
10c
100
AcDbEntity
  8
0
 62
7
100
AcDbLine
 10
3.280000
 20
59.283999
 30
0.0
 11
5.472000
 21
60.511999
 31
0.0
  0
LINE
  5
10d
100
AcDbEntity
  8
0
 62
7
100
AcDbLine
 10
5.472000
 20
60.511999
 30
0.0
 11
7.754000
 21
61.563999
 31
0.0
  0
LINE
  5
10e
100
AcDbEntity
  8
0
 62
7
100
AcDbLine
 10
7.754000
 20
61.563999
 30
0.0
 11
10.111000
 21
62.434000
 31
0.0
  0
LINE
  5
10f
100
AcDbEntity
  8
0
 62
7
100
AcDbLine
 10
10.111000
 20
62.434000
 30
0.0
 11
12.530000
 21
63.115998
 31
0.0
  0
LINE
  5
110
100
AcDbEntity
  8
0
 62
7
100
AcDbLine
 10
12.530000
 20
63.115998
 30
0.0
 11
14.994000
 21
63.606001
 31
0.0
  0
LINE
  5
111
100
AcDbEntity
  8
0
 62
7
100
AcDbLine
 10
14.994000
 20
63.606001
 30
0.0
 11
17.489000
 21
63.901000
 31
0.0
  0
LINE
  5
112
100
AcDbEntity
  8
0
 62
7
100
AcDbLine
 10
17.489000
 20
63.901000
 30
0.0
 11
20.000000
 21
64.000000
 31
0.0
  0
LINE
  5
113
100
AcDbEntity
  8
0
 62
7
100
AcDbLine
 10
20.000000
 20
64.000000
 30
0.0
 11
22.511000
 21
63.901000
 31
0.0
  0
LINE
  5
114
100
AcDbEntity
  8
0
 62
7
100
AcDbLine
 10
22.511000
 20
63.901000
 30
0.0
 11
25.006000
 21
63.606001
 31
0.0
  0
LINE
  5
115
100
AcDbEntity
  8
0
 62
7
100
AcDbLine
 10
25.006000
 20
63.606001
 30
0.0
 11
27.470000
 21
63.115998
 31
0.0
  0
LINE
  5
116
100
AcDbEntity
  8
0
 62
7
100
AcDbLine
 10
27.470000
 20
63.115998
 30
0.0
 11
29.889001
 21
62.434000
 31
0.0
  0
LINE
  5
117
100
AcDbEntity
  8
0
 62
7
100
AcDbLine
 10
29.889001
 20
62.434000
 30
0.0
 11
32.246000
 21
61.563999
 31
0.0
  0
LINE
  5
118
100
AcDbEntity
  8
0
 62
7
100
AcDbLine
 10
32.246000
 20
61.563999
 30
0.0
 11
34.528001
 21
60.511999
 31
0.0
  0
LINE
  5
119
100
AcDbEntity
  8
0
 62
7
100
AcDbLine
 10
34.528001
 20
60.511999
 30
0.0
 11
36.720001
 21
59.283999
 31
0.0
  0
LINE
  5
11a
100
AcDbEntity
  8
0
 62
7
100
AcDbLine
 10
36.720001
 20
59.283999
 30
0.0
 11
38.808999
 21
57.889000
 31
0.0
  0
LINE
  5
11b
100
AcDbEntity
  8
0
 62
7
100
AcDbLine
 10
38.808999
 20
57.889000
 30
0.0
 11
40.782000
 21
56.332999
 31
0.0
  0
LINE
  5
11c
100
AcDbEntity
  8
0
 62
7
100
AcDbLine
 10
40.782000
 20
56.332999
 30
0.0
 11
42.627000
 21
54.627000
 31
0.0
  0
LINE
  5
11d
100
AcDbEntity
  8
0
 62
7
100
AcDbLine
 10
42.627000
 20
54.627000
 30
0.0
 11
44.332999
 21
52.782000
 31
0.0
  0
LINE
  5
11e
100
AcDbEntity
  8
0
 62
7
100
AcDbLine
 10
44.332999
 20
52.782000
 30
0.0
 11
45.889000
 21
50.808999
 31
0.0
  0
LINE
  5
11f
100
AcDbEntity
  8
0
 62
7
100
AcDbLine
 10
45.889000
 20
50.808999
 30
0.0
 11
47.283999
 21
48.720001
 31
0.0
  0
LINE
  5
120
100
AcDbEntity
  8
0
 62
7
100
AcDbLine
 10
47.283999
 20
48.720001
 30
0.0
 11
48.511999
 21
46.528001
 31
0.0
  0
LINE
  5
121
100
AcDbEntity
  8
0
 62
7
100
AcDbLine
 10
48.511999
 20
46.528001
 30
0.0
 11
49.563999
 21
44.246000
 31
0.0
  0
LINE
  5
122
100
AcDbEntity
  8
0
 62
7
100
AcDbLine
 10
49.563999
 20
44.246000
 30
0.0
 11
50.434000
 21
41.889001
 31
0.0
  0
LINE
  5
123
100
AcDbEntity
  8
0
 62
7
100
AcDbLine
 10
50.434000
 20
41.889001
 30
0.0
 11
51.115999
 21
39.470001
 31
0.0
  0
LINE
  5
124
100
AcDbEntity
  8
0
 62
7
100
AcDbLine
 10
51.115999
 20
39.470001
 30
0.0
 11
51.606001
 21
37.006001
 31
0.0
  0
LINE
  5
125
100
AcDbEntity
  8
0
 62
7
100
AcDbLine
 10
51.606001
 20
37.006001
 30
0.0
 11
51.901000
 21
34.511001
 31
0.0
  0
LINE
  5
126
100
AcDbEntity
  8
0
 62
7
100
AcDbLine
 10
51.901000
 20
34.511001
 30
0.0
 11
52.000000
 21
31.999999
 31
0.0
  0
LINE
  5
127
100
AcDbEntity
  8
0
 62
7
100
AcDbLine
 10
52.000000
 20
31.999999
 30
0.0
 11
52.000000
 21
0.000001
 31
0.0
  0
LINE
  5
128
100
AcDbEntity
  8
0
 62
7
100
AcDbLine
 10
52.000000
 20
0.000001
 30
0.0
 11
20.000000
 21
0.000001
 31
0.0
  0
LINE
  5
129
100
AcDbEntity
  8
0
 62
7
100
AcDbLine
 10
4.735000
 20
18.347999
 30
0.0
 11
4.882000
 21
18.401999
 31
0.0
  0
LINE
  5
12a
100
AcDbEntity
  8
0
 62
7
100
AcDbLine
 10
4.882000
 20
18.401999
 30
0.0
 11
5.033000
 21
18.444999
 31
0.0
  0
LINE
  5
12b
100
AcDbEntity
  8
0
 62
7
100
AcDbLine
 10
5.033000
 20
18.444999
 30
0.0
 11
5.187000
 21
18.474999
 31
0.0
  0
LINE
  5
12c
100
AcDbEntity
  8
0
 62
7
100
AcDbLine
 10
5.187000
 20
18.474999
 30
0.0
 11
5.343000
 21
18.493993
 31
0.0
  0
LINE
  5
12d
100
AcDbEntity
  8
0
 62
7
100
AcDbLine
 10
5.343000
 20
18.493993
 30
0.0
 11
5.500000
 21
18.500004
 31
0.0
  0
LINE
  5
12e
100
AcDbEntity
  8
0
 62
7
100
AcDbLine
 10
5.500000
 20
18.500004
 30
0.0
 11
5.657000
 21
18.493993
 31
0.0
  0
LINE
  5
12f
100
AcDbEntity
  8
0
 62
7
100
AcDbLine
 10
5.657000
 20
18.493993
 30
0.0
 11
5.813000
 21
18.474999
 31
0.0
  0
LINE
  5
130
100
AcDbEntity
  8
0
 62
7
100
AcDbLine
 10
5.813000
 20
18.474999
 30
0.0
 11
5.967000
 21
18.444999
 31
0.0
  0
LINE
  5
131
100
AcDbEntity
  8
0
 62
7
100
AcDbLine
 10
5.967000
 20
18.444999
 30
0.0
 11
6.118000
 21
18.401999
 31
0.0
  0
LINE
  5
132
100
AcDbEntity
  8
0
 62
7
100
AcDbLine
 10
6.118000
 20
18.401999
 30
0.0
 11
6.265000
 21
18.347999
 31
0.0
  0
LINE
  5
133
100
AcDbEntity
  8
0
 62
7
100
AcDbLine
 10
6.265000
 20
18.347999
 30
0.0
 11
6.408000
 21
18.281998
 31
0.0
  0
LINE
  5
134
100
AcDbEntity
  8
0
 62
7
100
AcDbLine
 10
6.408000
 20
18.281998
 30
0.0
 11
6.545000
 21
18.205000
 31
0.0
  0
LINE
  5
135
100
AcDbEntity
  8
0
 62
7
100
AcDbLine
 10
6.545000
 20
18.205000
 30
0.0
 11
6.676000
 21
18.117999
 31
0.0
  0
LINE
  5
136
100
AcDbEntity
  8
0
 62
7
100
AcDbLine
 10
6.676000
 20
18.117999
 30
0.0
 11
6.799000
 21
18.020999
 31
0.0
  0
LINE
  5
137
100
AcDbEntity
  8
0
 62
7
100
AcDbLine
 10
6.799000
 20
18.020999
 30
0.0
 11
6.914000
 21
17.914000
 31
0.0
  0
LINE
  5
138
100
AcDbEntity
  8
0
 62
7
100
AcDbLine
 10
6.914000
 20
17.914000
 30
0.0
 11
7.021000
 21
17.799001
 31
0.0
  0
LINE
  5
139
100
AcDbEntity
  8
0
 62
7
100
AcDbLine
 10
7.021000
 20
17.799001
 30
0.0
 11
7.118000
 21
17.676000
 31
0.0
  0
LINE
  5
13a
100
AcDbEntity
  8
0
 62
7
100
AcDbLine
 10
7.118000
 20
17.676000
 30
0.0
 11
7.205000
 21
17.545001
 31
0.0
  0
LINE
  5
13b
100
AcDbEntity
  8
0
 62
7
100
AcDbLine
 10
7.205000
 20
17.545001
 30
0.0
 11
7.282000
 21
17.408001
 31
0.0
  0
LINE
  5
13c
100
AcDbEntity
  8
0
 62
7
100
AcDbLine
 10
7.282000
 20
17.408001
 30
0.0
 11
7.348000
 21
17.264999
 31
0.0
  0
LINE
  5
13d
100
AcDbEntity
  8
0
 62
7
100
AcDbLine
 10
7.348000
 20
17.264999
 30
0.0
 11
7.402000
 21
17.118001
 31
0.0
  0
LINE
  5
13e
100
AcDbEntity
  8
0
 62
7
100
AcDbLine
 10
7.402000
 20
17.118001
 30
0.0
 11
7.445000
 21
16.967001
 31
0.0
  0
LINE
  5
13f
100
AcDbEntity
  8
0
 62
7
100
AcDbLine
 10
7.445000
 20
16.967001
 30
0.0
 11
7.475000
 21
16.813001
 31
0.0
  0
LINE
  5
140
100
AcDbEntity
  8
0
 62
7
100
AcDbLine
 10
7.475000
 20
16.813001
 30
0.0
 11
7.493999
 21
16.657000
 31
0.0
  0
LINE
  5
141
100
AcDbEntity
  8
0
 62
7
100
AcDbLine
 10
7.493999
 20
16.657000
 30
0.0
 11
7.499999
 21
16.499999
 31
0.0
  0
LINE
  5
142
100
AcDbEntity
  8
0
 62
7
100
AcDbLine
 10
7.499999
 20
16.499999
 30
0.0
 11
7.493999
 21
16.342999
 31
0.0
  0
LINE
  5
143
100
AcDbEntity
  8
0
 62
7
100
AcDbLine
 10
7.493999
 20
16.342999
 30
0.0
 11
7.475000
 21
16.187001
 31
0.0
  0
LINE
  5
144
100
AcDbEntity
  8
0
 62
7
100
AcDbLine
 10
7.475000
 20
16.187001
 30
0.0
 11
7.445000
 21
16.033001
 31
0.0
  0
LINE
  5
145
100
AcDbEntity
  8
0
 62
7
100
AcDbLine
 10
7.445000
 20
16.033001
 30
0.0
 11
7.402000
 21
15.882000
 31
0.0
  0
LINE
  5
146
100
AcDbEntity
  8
0
 62
7
100
AcDbLine
 10
7.402000
 20
15.882000
 30
0.0
 11
7.348000
 21
15.734999
 31
0.0
  0
LINE
  5
147
100
AcDbEntity
  8
0
 62
7
100
AcDbLine
 10
7.348000
 20
15.734999
 30
0.0
 11
7.282000
 21
15.592000
 31
0.0
  0
LINE
  5
148
100
AcDbEntity
  8
0
 62
7
100
AcDbLine
 10
7.282000
 20
15.592000
 30
0.0
 11
7.205000
 21
15.455001
 31
0.0
  0
LINE
  5
149
100
AcDbEntity
  8
0
 62
7
100
AcDbLine
 10
7.205000
 20
15.455001
 30
0.0
 11
7.118000
 21
15.323999
 31
0.0
  0
LINE
  5
14a
100
AcDbEntity
  8
0
 62
7
100
AcDbLine
 10
7.118000
 20
15.323999
 30
0.0
 11
7.021000
 21
15.201001
 31
0.0
  0
LINE
  5
14b
100
AcDbEntity
  8
0
 62
7
100
AcDbLine
 10
7.021000
 20
15.201001
 30
0.0
 11
6.914000
 21
15.086001
 31
0.0
  0
LINE
  5
14c
100
AcDbEntity
  8
0
 62
7
100
AcDbLine
 10
6.914000
 20
15.086001
 30
0.0
 11
6.799000
 21
14.978999
 31
0.0
  0
LINE
  5
14d
100
AcDbEntity
  8
0
 62
7
100
AcDbLine
 10
6.799000
 20
14.978999
 30
0.0
 11
6.676000
 21
14.882000
 31
0.0
  0
LINE
  5
14e
100
AcDbEntity
  8
0
 62
7
100
AcDbLine
 10
6.676000
 20
14.882000
 30
0.0
 11
6.545000
 21
14.794999
 31
0.0
  0
LINE
  5
14f
100
AcDbEntity
  8
0
 62
7
100
AcDbLine
 10
6.545000
 20
14.794999
 30
0.0
 11
6.408000
 21
14.718003
 31
0.0
  0
LINE
  5
150
100
AcDbEntity
  8
0
 62
7
100
AcDbLine
 10
6.408000
 20
14.718003
 30
0.0
 11
6.265000
 21
14.651991
 31
0.0
  0
LINE
  5
151
100
AcDbEntity
  8
0
 62
7
100
AcDbLine
 10
6.265000
 20
14.651991
 30
0.0
 11
6.118000
 21
14.598002
 31
0.0
  0
LINE
  5
152
100
AcDbEntity
  8
0
 62
7
100
AcDbLine
 10
6.118000
 20
14.598002
 30
0.0
 11
5.967000
 21
14.554992
 31
0.0
  0
LINE
  5
153
100
AcDbEntity
  8
0
 62
7
100
AcDbLine
 10
5.967000
 20
14.554992
 30
0.0
 11
5.813000
 21
14.524991
 31
0.0
  0
LINE
  5
154
100
AcDbEntity
  8
0
 62
7
100
AcDbLine
 10
5.813000
 20
14.524991
 30
0.0
 11
5.657000
 21
14.506082
 31
0.0
  0
LINE
  5
155
100
AcDbEntity
  8
0
 62
7
100
AcDbLine
 10
5.657000
 20
14.506082
 30
0.0
 11
5.500000
 21
14.500156
 31
0.0
  0
LINE
  5
156
100
AcDbEntity
  8
0
 62
7
100
AcDbLine
 10
5.500000
 20
14.500156
 30
0.0
 11
5.343000
 21
14.506082
 31
0.0
  0
LINE
  5
157
100
AcDbEntity
  8
0
 62
7
100
AcDbLine
 10
5.343000
 20
14.506082
 30
0.0
 11
5.187000
 21
14.524991
 31
0.0
  0
LINE
  5
158
100
AcDbEntity
  8
0
 62
7
100
AcDbLine
 10
5.187000
 20
14.524991
 30
0.0
 11
5.033000
 21
14.554992
 31
0.0
  0
LINE
  5
159
100
AcDbEntity
  8
0
 62
7
100
AcDbLine
 10
5.033000
 20
14.554992
 30
0.0
 11
4.882000
 21
14.598002
 31
0.0
  0
LINE
  5
15a
100
AcDbEntity
  8
0
 62
7
100
AcDbLine
 10
4.882000
 20
14.598002
 30
0.0
 11
4.735000
 21
14.651991
 31
0.0
  0
LINE
  5
15b
100
AcDbEntity
  8
0
 62
7
100
AcDbLine
 10
4.735000
 20
14.651991
 30
0.0
 11
4.592000
 21
14.718003
 31
0.0
  0
LINE
  5
15c
100
AcDbEntity
  8
0
 62
7
100
AcDbLine
 10
4.592000
 20
14.718003
 30
0.0
 11
4.455000
 21
14.794999
 31
0.0
  0
LINE
  5
15d
100
AcDbEntity
  8
0
 62
7
100
AcDbLine
 10
4.455000
 20
14.794999
 30
0.0
 11
4.324000
 21
14.882000
 31
0.0
  0
LINE
  5
15e
100
AcDbEntity
  8
0
 62
7
100
AcDbLine
 10
4.324000
 20
14.882000
 30
0.0
 11
4.201000
 21
14.978999
 31
0.0
  0
LINE
  5
15f
100
AcDbEntity
  8
0
 62
7
100
AcDbLine
 10
4.201000
 20
14.978999
 30
0.0
 11
4.086000
 21
15.086001
 31
0.0
  0
LINE
  5
160
100
AcDbEntity
  8
0
 62
7
100
AcDbLine
 10
4.086000
 20
15.086001
 30
0.0
 11
3.979000
 21
15.201001
 31
0.0
  0
LINE
  5
161
100
AcDbEntity
  8
0
 62
7
100
AcDbLine
 10
3.979000
 20
15.201001
 30
0.0
 11
3.882000
 21
15.323999
 31
0.0
  0
LINE
  5
162
100
AcDbEntity
  8
0
 62
7
100
AcDbLine
 10
3.882000
 20
15.323999
 30
0.0
 11
3.795000
 21
15.455001
 31
0.0
  0
LINE
  5
163
100
AcDbEntity
  8
0
 62
7
100
AcDbLine
 10
3.795000
 20
15.455001
 30
0.0
 11
3.718000
 21
15.592000
 31
0.0
  0
LINE
  5
164
100
AcDbEntity
  8
0
 62
7
100
AcDbLine
 10
3.718000
 20
15.592000
 30
0.0
 11
3.652000
 21
15.734999
 31
0.0
  0
LINE
  5
165
100
AcDbEntity
  8
0
 62
7
100
AcDbLine
 10
3.652000
 20
15.734999
 30
0.0
 11
3.598000
 21
15.882000
 31
0.0
  0
LINE
  5
166
100
AcDbEntity
  8
0
 62
7
100
AcDbLine
 10
3.598000
 20
15.882000
 30
0.0
 11
3.555000
 21
16.033001
 31
0.0
  0
LINE
  5
167
100
AcDbEntity
  8
0
 62
7
100
AcDbLine
 10
3.555000
 20
16.033001
 30
0.0
 11
3.525000
 21
16.187001
 31
0.0
  0
LINE
  5
168
100
AcDbEntity
  8
0
 62
7
100
AcDbLine
 10
3.525000
 20
16.187001
 30
0.0
 11
3.506001
 21
16.342999
 31
0.0
  0
LINE
  5
169
100
AcDbEntity
  8
0
 62
7
100
AcDbLine
 10
3.506001
 20
16.342999
 30
0.0
 11
3.500001
 21
16.499999
 31
0.0
  0
LINE
  5
16a
100
AcDbEntity
  8
0
 62
7
100
AcDbLine
 10
3.500001
 20
16.499999
 30
0.0
 11
3.506001
 21
16.657000
 31
0.0
  0
LINE
  5
16b
100
AcDbEntity
  8
0
 62
7
100
AcDbLine
 10
3.506001
 20
16.657000
 30
0.0
 11
3.525000
 21
16.813001
 31
0.0
  0
LINE
  5
16c
100
AcDbEntity
  8
0
 62
7
100
AcDbLine
 10
3.525000
 20
16.813001
 30
0.0
 11
3.555000
 21
16.967001
 31
0.0
  0
LINE
  5
16d
100
AcDbEntity
  8
0
 62
7
100
AcDbLine
 10
3.555000
 20
16.967001
 30
0.0
 11
3.598000
 21
17.118001
 31
0.0
  0
LINE
  5
16e
100
AcDbEntity
  8
0
 62
7
100
AcDbLine
 10
3.598000
 20
17.118001
 30
0.0
 11
3.652000
 21
17.264999
 31
0.0
  0
LINE
  5
16f
100
AcDbEntity
  8
0
 62
7
100
AcDbLine
 10
3.652000
 20
17.264999
 30
0.0
 11
3.718000
 21
17.408001
 31
0.0
  0
LINE
  5
170
100
AcDbEntity
  8
0
 62
7
100
AcDbLine
 10
3.718000
 20
17.408001
 30
0.0
 11
3.795000
 21
17.545001
 31
0.0
  0
LINE
  5
171
100
AcDbEntity
  8
0
 62
7
100
AcDbLine
 10
3.795000
 20
17.545001
 30
0.0
 11
3.882000
 21
17.676000
 31
0.0
  0
LINE
  5
172
100
AcDbEntity
  8
0
 62
7
100
AcDbLine
 10
3.882000
 20
17.676000
 30
0.0
 11
3.979000
 21
17.799001
 31
0.0
  0
LINE
  5
173
100
AcDbEntity
  8
0
 62
7
100
AcDbLine
 10
3.979000
 20
17.799001
 30
0.0
 11
4.086000
 21
17.914000
 31
0.0
  0
LINE
  5
174
100
AcDbEntity
  8
0
 62
7
100
AcDbLine
 10
4.086000
 20
17.914000
 30
0.0
 11
4.201000
 21
18.020999
 31
0.0
  0
LINE
  5
175
100
AcDbEntity
  8
0
 62
7
100
AcDbLine
 10
4.201000
 20
18.020999
 30
0.0
 11
4.324000
 21
18.117999
 31
0.0
  0
LINE
  5
176
100
AcDbEntity
  8
0
 62
7
100
AcDbLine
 10
4.324000
 20
18.117999
 30
0.0
 11
4.455000
 21
18.205000
 31
0.0
  0
LINE
  5
177
100
AcDbEntity
  8
0
 62
7
100
AcDbLine
 10
4.455000
 20
18.205000
 30
0.0
 11
4.592000
 21
18.281998
 31
0.0
  0
LINE
  5
178
100
AcDbEntity
  8
0
 62
7
100
AcDbLine
 10
4.592000
 20
18.281998
 30
0.0
 11
4.735000
 21
18.347999
 31
0.0
  0
LINE
  5
179
100
AcDbEntity
  8
0
 62
7
100
AcDbLine
 10
7.500000
 20
47.499999
 30
0.0
 11
7.494000
 21
47.342999
 31
0.0
  0
LINE
  5
17a
100
AcDbEntity
  8
0
 62
7
100
AcDbLine
 10
7.494000
 20
47.342999
 30
0.0
 11
7.475001
 21
47.187001
 31
0.0
  0
LINE
  5
17b
100
AcDbEntity
  8
0
 62
7
100
AcDbLine
 10
7.475001
 20
47.187001
 30
0.0
 11
7.445001
 21
47.033001
 31
0.0
  0
LINE
  5
17c
100
AcDbEntity
  8
0
 62
7
100
AcDbLine
 10
7.445001
 20
47.033001
 30
0.0
 11
7.402001
 21
46.882001
 31
0.0
  0
LINE
  5
17d
100
AcDbEntity
  8
0
 62
7
100
AcDbLine
 10
7.402001
 20
46.882001
 30
0.0
 11
7.348001
 21
46.734999
 31
0.0
  0
LINE
  5
17e
100
AcDbEntity
  8
0
 62
7
100
AcDbLine
 10
7.348001
 20
46.734999
 30
0.0
 11
7.282001
 21
46.592000
 31
0.0
  0
LINE
  5
17f
100
AcDbEntity
  8
0
 62
7
100
AcDbLine
 10
7.282001
 20
46.592000
 30
0.0
 11
7.205001
 21
46.455001
 31
0.0
  0
LINE
  5
180
100
AcDbEntity
  8
0
 62
7
100
AcDbLine
 10
7.205001
 20
46.455001
 30
0.0
 11
7.118001
 21
46.323999
 31
0.0
  0
LINE
  5
181
100
AcDbEntity
  8
0
 62
7
100
AcDbLine
 10
7.118001
 20
46.323999
 30
0.0
 11
7.021001
 21
46.201001
 31
0.0
  0
LINE
  5
182
100
AcDbEntity
  8
0
 62
7
100
AcDbLine
 10
7.021001
 20
46.201001
 30
0.0
 11
6.914001
 21
46.086001
 31
0.0
  0
LINE
  5
183
100
AcDbEntity
  8
0
 62
7
100
AcDbLine
 10
6.914001
 20
46.086001
 30
0.0
 11
6.799001
 21
45.978999
 31
0.0
  0
LINE
  5
184
100
AcDbEntity
  8
0
 62
7
100
AcDbLine
 10
6.799001
 20
45.978999
 30
0.0
 11
6.676001
 21
45.882000
 31
0.0
  0
LINE
  5
185
100
AcDbEntity
  8
0
 62
7
100
AcDbLine
 10
6.676001
 20
45.882000
 30
0.0
 11
6.545001
 21
45.794999
 31
0.0
  0
LINE
  5
186
100
AcDbEntity
  8
0
 62
7
100
AcDbLine
 10
6.545001
 20
45.794999
 30
0.0
 11
6.408001
 21
45.718000
 31
0.0
  0
LINE
  5
187
100
AcDbEntity
  8
0
 62
7
100
AcDbLine
 10
6.408001
 20
45.718000
 30
0.0
 11
6.265001
 21
45.652000
 31
0.0
  0
LINE
  5
188
100
AcDbEntity
  8
0
 62
7
100
AcDbLine
 10
6.265001
 20
45.652000
 30
0.0
 11
6.118001
 21
45.597999
 31
0.0
  0
LINE
  5
189
100
AcDbEntity
  8
0
 62
7
100
AcDbLine
 10
6.118001
 20
45.597999
 30
0.0
 11
5.967001
 21
45.555000
 31
0.0
  0
LINE
  5
18a
100
AcDbEntity
  8
0
 62
7
100
AcDbLine
 10
5.967001
 20
45.555000
 30
0.0
 11
5.813001
 21
45.525000
 31
0.0
  0
LINE
  5
18b
100
AcDbEntity
  8
0
 62
7
100
AcDbLine
 10
5.813001
 20
45.525000
 30
0.0
 11
5.657001
 21
45.506006
 31
0.0
  0
LINE
  5
18c
100
AcDbEntity
  8
0
 62
7
100
AcDbLine
 10
5.657001
 20
45.506006
 30
0.0
 11
5.500001
 21
45.499995
 31
0.0
  0
LINE
  5
18d
100
AcDbEntity
  8
0
 62
7
100
AcDbLine
 10
5.500001
 20
45.499995
 30
0.0
 11
5.343001
 21
45.506006
 31
0.0
  0
LINE
  5
18e
100
AcDbEntity
  8
0
 62
7
100
AcDbLine
 10
5.343001
 20
45.506006
 30
0.0
 11
5.187001
 21
45.525000
 31
0.0
  0
LINE
  5
18f
100
AcDbEntity
  8
0
 62
7
100
AcDbLine
 10
5.187001
 20
45.525000
 30
0.0
 11
5.033001
 21
45.555000
 31
0.0
  0
LINE
  5
190
100
AcDbEntity
  8
0
 62
7
100
AcDbLine
 10
5.033001
 20
45.555000
 30
0.0
 11
4.882001
 21
45.597999
 31
0.0
  0
LINE
  5
191
100
AcDbEntity
  8
0
 62
7
100
AcDbLine
 10
4.882001
 20
45.597999
 30
0.0
 11
4.735001
 21
45.652000
 31
0.0
  0
LINE
  5
192
100
AcDbEntity
  8
0
 62
7
100
AcDbLine
 10
4.735001
 20
45.652000
 30
0.0
 11
4.592001
 21
45.718000
 31
0.0
  0
LINE
  5
193
100
AcDbEntity
  8
0
 62
7
100
AcDbLine
 10
4.592001
 20
45.718000
 30
0.0
 11
4.455001
 21
45.794999
 31
0.0
  0
LINE
  5
194
100
AcDbEntity
  8
0
 62
7
100
AcDbLine
 10
4.455001
 20
45.794999
 30
0.0
 11
4.324001
 21
45.882000
 31
0.0
  0
LINE
  5
195
100
AcDbEntity
  8
0
 62
7
100
AcDbLine
 10
4.324001
 20
45.882000
 30
0.0
 11
4.201001
 21
45.978999
 31
0.0
  0
LINE
  5
196
100
AcDbEntity
  8
0
 62
7
100
AcDbLine
 10
4.201001
 20
45.978999
 30
0.0
 11
4.086001
 21
46.086001
 31
0.0
  0
LINE
  5
197
100
AcDbEntity
  8
0
 62
7
100
AcDbLine
 10
4.086001
 20
46.086001
 30
0.0
 11
3.979001
 21
46.201001
 31
0.0
  0
LINE
  5
198
100
AcDbEntity
  8
0
 62
7
100
AcDbLine
 10
3.979001
 20
46.201001
 30
0.0
 11
3.882001
 21
46.323999
 31
0.0
  0
LINE
  5
199
100
AcDbEntity
  8
0
 62
7
100
AcDbLine
 10
3.882001
 20
46.323999
 30
0.0
 11
3.795001
 21
46.455001
 31
0.0
  0
LINE
  5
19a
100
AcDbEntity
  8
0
 62
7
100
AcDbLine
 10
3.795001
 20
46.455001
 30
0.0
 11
3.718001
 21
46.592000
 31
0.0
  0
LINE
  5
19b
100
AcDbEntity
  8
0
 62
7
100
AcDbLine
 10
3.718001
 20
46.592000
 30
0.0
 11
3.652001
 21
46.734999
 31
0.0
  0
LINE
  5
19c
100
AcDbEntity
  8
0
 62
7
100
AcDbLine
 10
3.652001
 20
46.734999
 30
0.0
 11
3.598001
 21
46.882001
 31
0.0
  0
LINE
  5
19d
100
AcDbEntity
  8
0
 62
7
100
AcDbLine
 10
3.598001
 20
46.882001
 30
0.0
 11
3.555001
 21
47.033001
 31
0.0
  0
LINE
  5
19e
100
AcDbEntity
  8
0
 62
7
100
AcDbLine
 10
3.555001
 20
47.033001
 30
0.0
 11
3.525001
 21
47.187001
 31
0.0
  0
LINE
  5
19f
100
AcDbEntity
  8
0
 62
7
100
AcDbLine
 10
3.525001
 20
47.187001
 30
0.0
 11
3.506002
 21
47.342999
 31
0.0
  0
LINE
  5
1a0
100
AcDbEntity
  8
0
 62
7
100
AcDbLine
 10
3.506002
 20
47.342999
 30
0.0
 11
3.500001
 21
47.499999
 31
0.0
  0
LINE
  5
1a1
100
AcDbEntity
  8
0
 62
7
100
AcDbLine
 10
3.500001
 20
47.499999
 30
0.0
 11
3.506002
 21
47.657000
 31
0.0
  0
LINE
  5
1a2
100
AcDbEntity
  8
0
 62
7
100
AcDbLine
 10
3.506002
 20
47.657000
 30
0.0
 11
3.525001
 21
47.813001
 31
0.0
  0
LINE
  5
1a3
100
AcDbEntity
  8
0
 62
7
100
AcDbLine
 10
3.525001
 20
47.813001
 30
0.0
 11
3.555001
 21
47.967001
 31
0.0
  0
LINE
  5
1a4
100
AcDbEntity
  8
0
 62
7
100
AcDbLine
 10
3.555001
 20
47.967001
 30
0.0
 11
3.598001
 21
48.118001
 31
0.0
  0
LINE
  5
1a5
100
AcDbEntity
  8
0
 62
7
100
AcDbLine
 10
3.598001
 20
48.118001
 30
0.0
 11
3.652001
 21
48.264999
 31
0.0
  0
LINE
  5
1a6
100
AcDbEntity
  8
0
 62
7
100
AcDbLine
 10
3.652001
 20
48.264999
 30
0.0
 11
3.718001
 21
48.407999
 31
0.0
  0
LINE
  5
1a7
100
AcDbEntity
  8
0
 62
7
100
AcDbLine
 10
3.718001
 20
48.407999
 30
0.0
 11
3.795001
 21
48.545001
 31
0.0
  0
LINE
  5
1a8
100
AcDbEntity
  8
0
 62
7
100
AcDbLine
 10
3.795001
 20
48.545001
 30
0.0
 11
3.882001
 21
48.676000
 31
0.0
  0
LINE
  5
1a9
100
AcDbEntity
  8
0
 62
7
100
AcDbLine
 10
3.882001
 20
48.676000
 30
0.0
 11
3.979001
 21
48.799001
 31
0.0
  0
LINE
  5
1aa
100
AcDbEntity
  8
0
 62
7
100
AcDbLine
 10
3.979001
 20
48.799001
 30
0.0
 11
4.086001
 21
48.914001
 31
0.0
  0
LINE
  5
1ab
100
AcDbEntity
  8
0
 62
7
100
AcDbLine
 10
4.086001
 20
48.914001
 30
0.0
 11
4.201001
 21
49.020999
 31
0.0
  0
LINE
  5
1ac
100
AcDbEntity
  8
0
 62
7
100
AcDbLine
 10
4.201001
 20
49.020999
 30
0.0
 11
4.324001
 21
49.117999
 31
0.0
  0
LINE
  5
1ad
100
AcDbEntity
  8
0
 62
7
100
AcDbLine
 10
4.324001
 20
49.117999
 30
0.0
 11
4.455001
 21
49.205000
 31
0.0
  0
LINE
  5
1ae
100
AcDbEntity
  8
0
 62
7
100
AcDbLine
 10
4.455001
 20
49.205000
 30
0.0
 11
4.592001
 21
49.282001
 31
0.0
  0
LINE
  5
1af
100
AcDbEntity
  8
0
 62
7
100
AcDbLine
 10
4.592001
 20
49.282001
 30
0.0
 11
4.735001
 21
49.347999
 31
0.0
  0
LINE
  5
1b0
100
AcDbEntity
  8
0
 62
7
100
AcDbLine
 10
4.735001
 20
49.347999
 30
0.0
 11
4.882001
 21
49.401999
 31
0.0
  0
LINE
  5
1b1
100
AcDbEntity
  8
0
 62
7
100
AcDbLine
 10
4.882001
 20
49.401999
 30
0.0
 11
5.033001
 21
49.444999
 31
0.0
  0
LINE
  5
1b2
100
AcDbEntity
  8
0
 62
7
100
AcDbLine
 10
5.033001
 20
49.444999
 30
0.0
 11
5.187001
 21
49.474999
 31
0.0
  0
LINE
  5
1b3
100
AcDbEntity
  8
0
 62
7
100
AcDbLine
 10
5.187001
 20
49.474999
 30
0.0
 11
5.343001
 21
49.493993
 31
0.0
  0
LINE
  5
1b4
100
AcDbEntity
  8
0
 62
7
100
AcDbLine
 10
5.343001
 20
49.493993
 30
0.0
 11
5.500001
 21
49.500004
 31
0.0
  0
LINE
  5
1b5
100
AcDbEntity
  8
0
 62
7
100
AcDbLine
 10
5.500001
 20
49.500004
 30
0.0
 11
5.657001
 21
49.493993
 31
0.0
  0
LINE
  5
1b6
100
AcDbEntity
  8
0
 62
7
100
AcDbLine
 10
5.657001
 20
49.493993
 30
0.0
 11
5.813001
 21
49.474999
 31
0.0
  0
LINE
  5
1b7
100
AcDbEntity
  8
0
 62
7
100
AcDbLine
 10
5.813001
 20
49.474999
 30
0.0
 11
5.967001
 21
49.444999
 31
0.0
  0
LINE
  5
1b8
100
AcDbEntity
  8
0
 62
7
100
AcDbLine
 10
5.967001
 20
49.444999
 30
0.0
 11
6.118001
 21
49.401999
 31
0.0
  0
LINE
  5
1b9
100
AcDbEntity
  8
0
 62
7
100
AcDbLine
 10
6.118001
 20
49.401999
 30
0.0
 11
6.265001
 21
49.347999
 31
0.0
  0
LINE
  5
1ba
100
AcDbEntity
  8
0
 62
7
100
AcDbLine
 10
6.265001
 20
49.347999
 30
0.0
 11
6.408001
 21
49.282001
 31
0.0
  0
LINE
  5
1bb
100
AcDbEntity
  8
0
 62
7
100
AcDbLine
 10
6.408001
 20
49.282001
 30
0.0
 11
6.545001
 21
49.205000
 31
0.0
  0
LINE
  5
1bc
100
AcDbEntity
  8
0
 62
7
100
AcDbLine
 10
6.545001
 20
49.205000
 30
0.0
 11
6.676001
 21
49.117999
 31
0.0
  0
LINE
  5
1bd
100
AcDbEntity
  8
0
 62
7
100
AcDbLine
 10
6.676001
 20
49.117999
 30
0.0
 11
6.799001
 21
49.020999
 31
0.0
  0
LINE
  5
1be
100
AcDbEntity
  8
0
 62
7
100
AcDbLine
 10
6.799001
 20
49.020999
 30
0.0
 11
6.914001
 21
48.914001
 31
0.0
  0
LINE
  5
1bf
100
AcDbEntity
  8
0
 62
7
100
AcDbLine
 10
6.914001
 20
48.914001
 30
0.0
 11
7.021001
 21
48.799001
 31
0.0
  0
LINE
  5
1c0
100
AcDbEntity
  8
0
 62
7
100
AcDbLine
 10
7.021001
 20
48.799001
 30
0.0
 11
7.118001
 21
48.676000
 31
0.0
  0
LINE
  5
1c1
100
AcDbEntity
  8
0
 62
7
100
AcDbLine
 10
7.118001
 20
48.676000
 30
0.0
 11
7.205001
 21
48.545001
 31
0.0
  0
LINE
  5
1c2
100
AcDbEntity
  8
0
 62
7
100
AcDbLine
 10
7.205001
 20
48.545001
 30
0.0
 11
7.282001
 21
48.407999
 31
0.0
  0
LINE
  5
1c3
100
AcDbEntity
  8
0
 62
7
100
AcDbLine
 10
7.282001
 20
48.407999
 30
0.0
 11
7.348001
 21
48.264999
 31
0.0
  0
LINE
  5
1c4
100
AcDbEntity
  8
0
 62
7
100
AcDbLine
 10
7.348001
 20
48.264999
 30
0.0
 11
7.402001
 21
48.118001
 31
0.0
  0
LINE
  5
1c5
100
AcDbEntity
  8
0
 62
7
100
AcDbLine
 10
7.402001
 20
48.118001
 30
0.0
 11
7.445001
 21
47.967001
 31
0.0
  0
LINE
  5
1c6
100
AcDbEntity
  8
0
 62
7
100
AcDbLine
 10
7.445001
 20
47.967001
 30
0.0
 11
7.475001
 21
47.813001
 31
0.0
  0
LINE
  5
1c7
100
AcDbEntity
  8
0
 62
7
100
AcDbLine
 10
7.475001
 20
47.813001
 30
0.0
 11
7.494000
 21
47.657000
 31
0.0
  0
LINE
  5
1c8
100
AcDbEntity
  8
0
 62
7
100
AcDbLine
 10
7.494000
 20
47.657000
 30
0.0
 11
7.500000
 21
47.499999
 31
0.0
  0
LINE
  5
1c9
100
AcDbEntity
  8
0
 62
7
100
AcDbLine
 10
30.899001
 20
41.899000
 30
0.0
 11
31.646001
 21
41.092000
 31
0.0
  0
LINE
  5
1ca
100
AcDbEntity
  8
0
 62
7
100
AcDbLine
 10
31.646001
 20
41.092000
 30
0.0
 11
32.325999
 21
40.229001
 31
0.0
  0
LINE
  5
1cb
100
AcDbEntity
  8
0
 62
7
100
AcDbLine
 10
32.325999
 20
40.229001
 30
0.0
 11
32.937001
 21
39.314999
 31
0.0
  0
LINE
  5
1cc
100
AcDbEntity
  8
0
 62
7
100
AcDbLine
 10
32.937001
 20
39.314999
 30
0.0
 11
33.474000
 21
38.355999
 31
0.0
  0
LINE
  5
1cd
100
AcDbEntity
  8
0
 62
7
100
AcDbLine
 10
33.474000
 20
38.355999
 30
0.0
 11
33.933999
 21
37.358000
 31
0.0
  0
LINE
  5
1ce
100
AcDbEntity
  8
0
 62
7
100
AcDbLine
 10
33.933999
 20
37.358000
 30
0.0
 11
34.314999
 21
36.326000
 31
0.0
  0
LINE
  5
1cf
100
AcDbEntity
  8
0
 62
7
100
AcDbLine
 10
34.314999
 20
36.326000
 30
0.0
 11
34.613001
 21
35.268000
 31
0.0
  0
LINE
  5
1d0
100
AcDbEntity
  8
0
 62
7
100
AcDbLine
 10
34.613001
 20
35.268000
 30
0.0
 11
34.828000
 21
34.189999
 31
0.0
  0
LINE
  5
1d1
100
AcDbEntity
  8
0
 62
7
100
AcDbLine
 10
34.828000
 20
34.189999
 30
0.0
 11
34.957001
 21
33.097999
 31
0.0
  0
LINE
  5
1d2
100
AcDbEntity
  8
0
 62
7
100
AcDbLine
 10
34.957001
 20
33.097999
 30
0.0
 11
35.000001
 21
31.999999
 31
0.0
  0
LINE
  5
1d3
100
AcDbEntity
  8
0
 62
7
100
AcDbLine
 10
35.000001
 20
31.999999
 30
0.0
 11
34.957001
 21
30.902000
 31
0.0
  0
LINE
  5
1d4
100
AcDbEntity
  8
0
 62
7
100
AcDbLine
 10
34.957001
 20
30.902000
 30
0.0
 11
34.828000
 21
29.810000
 31
0.0
  0
LINE
  5
1d5
100
AcDbEntity
  8
0
 62
7
100
AcDbLine
 10
34.828000
 20
29.810000
 30
0.0
 11
34.613001
 21
28.731999
 31
0.0
  0
LINE
  5
1d6
100
AcDbEntity
  8
0
 62
7
100
AcDbLine
 10
34.613001
 20
28.731999
 30
0.0
 11
34.314999
 21
27.674001
 31
0.0
  0
LINE
  5
1d7
100
AcDbEntity
  8
0
 62
7
100
AcDbLine
 10
34.314999
 20
27.674001
 30
0.0
 11
33.933999
 21
26.641999
 31
0.0
  0
LINE
  5
1d8
100
AcDbEntity
  8
0
 62
7
100
AcDbLine
 10
33.933999
 20
26.641999
 30
0.0
 11
33.474000
 21
25.643999
 31
0.0
  0
LINE
  5
1d9
100
AcDbEntity
  8
0
 62
7
100
AcDbLine
 10
33.474000
 20
25.643999
 30
0.0
 11
32.937001
 21
24.685000
 31
0.0
  0
LINE
  5
1da
100
AcDbEntity
  8
0
 62
7
100
AcDbLine
 10
32.937001
 20
24.685000
 30
0.0
 11
32.325999
 21
23.771001
 31
0.0
  0
LINE
  5
1db
100
AcDbEntity
  8
0
 62
7
100
AcDbLine
 10
32.325999
 20
23.771001
 30
0.0
 11
31.646001
 21
22.907999
 31
0.0
  0
LINE
  5
1dc
100
AcDbEntity
  8
0
 62
7
100
AcDbLine
 10
31.646001
 20
22.907999
 30
0.0
 11
30.899001
 21
22.101001
 31
0.0
  0
LINE
  5
1dd
100
AcDbEntity
  8
0
 62
7
100
AcDbLine
 10
30.899001
 20
22.101001
 30
0.0
 11
30.092001
 21
21.353999
 31
0.0
  0
LINE
  5
1de
100
AcDbEntity
  8
0
 62
7
100
AcDbLine
 10
30.092001
 20
21.353999
 30
0.0
 11
29.228999
 21
20.674001
 31
0.0
  0
LINE
  5
1df
100
AcDbEntity
  8
0
 62
7
100
AcDbLine
 10
29.228999
 20
20.674001
 30
0.0
 11
28.315000
 21
20.063001
 31
0.0
  0
LINE
  5
1e0
100
AcDbEntity
  8
0
 62
7
100
AcDbLine
 10
28.315000
 20
20.063001
 30
0.0
 11
27.356000
 21
19.526000
 31
0.0
  0
LINE
  5
1e1
100
AcDbEntity
  8
0
 62
7
100
AcDbLine
 10
27.356000
 20
19.526000
 30
0.0
 11
26.358000
 21
19.066001
 31
0.0
  0
LINE
  5
1e2
100
AcDbEntity
  8
0
 62
7
100
AcDbLine
 10
26.358000
 20
19.066001
 30
0.0
 11
25.326000
 21
18.685001
 31
0.0
  0
LINE
  5
1e3
100
AcDbEntity
  8
0
 62
7
100
AcDbLine
 10
25.326000
 20
18.685001
 30
0.0
 11
24.268000
 21
18.386999
 31
0.0
  0
LINE
  5
1e4
100
AcDbEntity
  8
0
 62
7
100
AcDbLine
 10
24.268000
 20
18.386999
 30
0.0
 11
23.190000
 21
18.172000
 31
0.0
  0
LINE
  5
1e5
100
AcDbEntity
  8
0
 62
7
100
AcDbLine
 10
23.190000
 20
18.172000
 30
0.0
 11
22.098000
 21
18.043001
 31
0.0
  0
LINE
  5
1e6
100
AcDbEntity
  8
0
 62
7
100
AcDbLine
 10
22.098000
 20
18.043001
 30
0.0
 11
21.000000
 21
17.999999
 31
0.0
  0
LINE
  5
1e7
100
AcDbEntity
  8
0
 62
7
100
AcDbLine
 10
21.000000
 20
17.999999
 30
0.0
 11
19.902000
 21
18.043001
 31
0.0
  0
LINE
  5
1e8
100
AcDbEntity
  8
0
 62
7
100
AcDbLine
 10
19.902000
 20
18.043001
 30
0.0
 11
18.810000
 21
18.172000
 31
0.0
  0
LINE
  5
1e9
100
AcDbEntity
  8
0
 62
7
100
AcDbLine
 10
18.810000
 20
18.172000
 30
0.0
 11
17.732000
 21
18.386999
 31
0.0
  0
LINE
  5
1ea
100
AcDbEntity
  8
0
 62
7
100
AcDbLine
 10
17.732000
 20
18.386999
 30
0.0
 11
16.674000
 21
18.685001
 31
0.0
  0
LINE
  5
1eb
100
AcDbEntity
  8
0
 62
7
100
AcDbLine
 10
16.674000
 20
18.685001
 30
0.0
 11
15.642000
 21
19.066001
 31
0.0
  0
LINE
  5
1ec
100
AcDbEntity
  8
0
 62
7
100
AcDbLine
 10
15.642000
 20
19.066001
 30
0.0
 11
14.644000
 21
19.526000
 31
0.0
  0
LINE
  5
1ed
100
AcDbEntity
  8
0
 62
7
100
AcDbLine
 10
14.644000
 20
19.526000
 30
0.0
 11
13.685000
 21
20.063001
 31
0.0
  0
LINE
  5
1ee
100
AcDbEntity
  8
0
 62
7
100
AcDbLine
 10
13.685000
 20
20.063001
 30
0.0
 11
12.771000
 21
20.674001
 31
0.0
  0
LINE
  5
1ef
100
AcDbEntity
  8
0
 62
7
100
AcDbLine
 10
12.771000
 20
20.674001
 30
0.0
 11
11.908000
 21
21.353999
 31
0.0
  0
LINE
  5
1f0
100
AcDbEntity
  8
0
 62
7
100
AcDbLine
 10
11.908000
 20
21.353999
 30
0.0
 11
11.101000
 21
22.101001
 31
0.0
  0
LINE
  5
1f1
100
AcDbEntity
  8
0
 62
7
100
AcDbLine
 10
11.101000
 20
22.101001
 30
0.0
 11
10.354000
 21
22.907999
 31
0.0
  0
LINE
  5
1f2
100
AcDbEntity
  8
0
 62
7
100
AcDbLine
 10
10.354000
 20
22.907999
 30
0.0
 11
9.674000
 21
23.771001
 31
0.0
  0
LINE
  5
1f3
100
AcDbEntity
  8
0
 62
7
100
AcDbLine
 10
9.674000
 20
23.771001
 30
0.0
 11
9.063000
 21
24.685000
 31
0.0
  0
LINE
  5
1f4
100
AcDbEntity
  8
0
 62
7
100
AcDbLine
 10
9.063000
 20
24.685000
 30
0.0
 11
8.526000
 21
25.643999
 31
0.0
  0
LINE
  5
1f5
100
AcDbEntity
  8
0
 62
7
100
AcDbLine
 10
8.526000
 20
25.643999
 30
0.0
 11
8.066000
 21
26.641999
 31
0.0
  0
LINE
  5
1f6
100
AcDbEntity
  8
0
 62
7
100
AcDbLine
 10
8.066000
 20
26.641999
 30
0.0
 11
7.685000
 21
27.674001
 31
0.0
  0
LINE
  5
1f7
100
AcDbEntity
  8
0
 62
7
100
AcDbLine
 10
7.685000
 20
27.674001
 30
0.0
 11
7.387000
 21
28.731999
 31
0.0
  0
LINE
  5
1f8
100
AcDbEntity
  8
0
 62
7
100
AcDbLine
 10
7.387000
 20
28.731999
 30
0.0
 11
7.172000
 21
29.810000
 31
0.0
  0
LINE
  5
1f9
100
AcDbEntity
  8
0
 62
7
100
AcDbLine
 10
7.172000
 20
29.810000
 30
0.0
 11
7.043000
 21
30.902000
 31
0.0
  0
LINE
  5
1fa
100
AcDbEntity
  8
0
 62
7
100
AcDbLine
 10
7.043000
 20
30.902000
 30
0.0
 11
7.000000
 21
31.999999
 31
0.0
  0
LINE
  5
1fb
100
AcDbEntity
  8
0
 62
7
100
AcDbLine
 10
7.000000
 20
31.999999
 30
0.0
 11
7.043000
 21
33.097999
 31
0.0
  0
LINE
  5
1fc
100
AcDbEntity
  8
0
 62
7
100
AcDbLine
 10
7.043000
 20
33.097999
 30
0.0
 11
7.172000
 21
34.189999
 31
0.0
  0
LINE
  5
1fd
100
AcDbEntity
  8
0
 62
7
100
AcDbLine
 10
7.172000
 20
34.189999
 30
0.0
 11
7.387000
 21
35.268000
 31
0.0
  0
LINE
  5
1fe
100
AcDbEntity
  8
0
 62
7
100
AcDbLine
 10
7.387000
 20
35.268000
 30
0.0
 11
7.685000
 21
36.326000
 31
0.0
  0
LINE
  5
1ff
100
AcDbEntity
  8
0
 62
7
100
AcDbLine
 10
7.685000
 20
36.326000
 30
0.0
 11
8.066000
 21
37.358000
 31
0.0
  0
LINE
  5
200
100
AcDbEntity
  8
0
 62
7
100
AcDbLine
 10
8.066000
 20
37.358000
 30
0.0
 11
8.526000
 21
38.355999
 31
0.0
  0
LINE
  5
201
100
AcDbEntity
  8
0
 62
7
100
AcDbLine
 10
8.526000
 20
38.355999
 30
0.0
 11
9.063000
 21
39.314999
 31
0.0
  0
LINE
  5
202
100
AcDbEntity
  8
0
 62
7
100
AcDbLine
 10
9.063000
 20
39.314999
 30
0.0
 11
9.674000
 21
40.229001
 31
0.0
  0
LINE
  5
203
100
AcDbEntity
  8
0
 62
7
100
AcDbLine
 10
9.674000
 20
40.229001
 30
0.0
 11
10.354000
 21
41.092000
 31
0.0
  0
LINE
  5
204
100
AcDbEntity
  8
0
 62
7
100
AcDbLine
 10
10.354000
 20
41.092000
 30
0.0
 11
11.101000
 21
41.899000
 31
0.0
  0
LINE
  5
205
100
AcDbEntity
  8
0
 62
7
100
AcDbLine
 10
11.101000
 20
41.899000
 30
0.0
 11
11.908000
 21
42.646000
 31
0.0
  0
LINE
  5
206
100
AcDbEntity
  8
0
 62
7
100
AcDbLine
 10
11.908000
 20
42.646000
 30
0.0
 11
12.771000
 21
43.326001
 31
0.0
  0
LINE
  5
207
100
AcDbEntity
  8
0
 62
7
100
AcDbLine
 10
12.771000
 20
43.326001
 30
0.0
 11
13.685000
 21
43.937000
 31
0.0
  0
LINE
  5
208
100
AcDbEntity
  8
0
 62
7
100
AcDbLine
 10
13.685000
 20
43.937000
 30
0.0
 11
14.644000
 21
44.474002
 31
0.0
  0
LINE
  5
209
100
AcDbEntity
  8
0
 62
7
100
AcDbLine
 10
14.644000
 20
44.474002
 30
0.0
 11
15.642000
 21
44.934001
 31
0.0
  0
LINE
  5
20a
100
AcDbEntity
  8
0
 62
7
100
AcDbLine
 10
15.642000
 20
44.934001
 30
0.0
 11
16.674000
 21
45.315001
 31
0.0
  0
LINE
  5
20b
100
AcDbEntity
  8
0
 62
7
100
AcDbLine
 10
16.674000
 20
45.315001
 30
0.0
 11
17.732000
 21
45.613000
 31
0.0
  0
LINE
  5
20c
100
AcDbEntity
  8
0
 62
7
100
AcDbLine
 10
17.732000
 20
45.613000
 30
0.0
 11
18.810000
 21
45.827999
 31
0.0
  0
LINE
  5
20d
100
AcDbEntity
  8
0
 62
7
100
AcDbLine
 10
18.810000
 20
45.827999
 30
0.0
 11
19.902000
 21
45.957000
 31
0.0
  0
LINE
  5
20e
100
AcDbEntity
  8
0
 62
7
100
AcDbLine
 10
19.902000
 20
45.957000
 30
0.0
 11
21.000000
 21
46.000000
 31
0.0
  0
LINE
  5
20f
100
AcDbEntity
  8
0
 62
7
100
AcDbLine
 10
21.000000
 20
46.000000
 30
0.0
 11
22.098000
 21
45.957000
 31
0.0
  0
LINE
  5
210
100
AcDbEntity
  8
0
 62
7
100
AcDbLine
 10
22.098000
 20
45.957000
 30
0.0
 11
23.190000
 21
45.827999
 31
0.0
  0
LINE
  5
211
100
AcDbEntity
  8
0
 62
7
100
AcDbLine
 10
23.190000
 20
45.827999
 30
0.0
 11
24.268000
 21
45.613000
 31
0.0
  0
LINE
  5
212
100
AcDbEntity
  8
0
 62
7
100
AcDbLine
 10
24.268000
 20
45.613000
 30
0.0
 11
25.326000
 21
45.315001
 31
0.0
  0
LINE
  5
213
100
AcDbEntity
  8
0
 62
7
100
AcDbLine
 10
25.326000
 20
45.315001
 30
0.0
 11
26.358000
 21
44.934001
 31
0.0
  0
LINE
  5
214
100
AcDbEntity
  8
0
 62
7
100
AcDbLine
 10
26.358000
 20
44.934001
 30
0.0
 11
27.356000
 21
44.474002
 31
0.0
  0
LINE
  5
215
100
AcDbEntity
  8
0
 62
7
100
AcDbLine
 10
27.356000
 20
44.474002
 30
0.0
 11
28.315000
 21
43.937000
 31
0.0
  0
LINE
  5
216
100
AcDbEntity
  8
0
 62
7
100
AcDbLine
 10
28.315000
 20
43.937000
 30
0.0
 11
29.228999
 21
43.326001
 31
0.0
  0
LINE
  5
217
100
AcDbEntity
  8
0
 62
7
100
AcDbLine
 10
29.228999
 20
43.326001
 30
0.0
 11
30.092001
 21
42.646000
 31
0.0
  0
LINE
  5
218
100
AcDbEntity
  8
0
 62
7
100
AcDbLine
 10
30.092001
 20
42.646000
 30
0.0
 11
30.899001
 21
41.899000
 31
0.0
  0
LINE
  5
219
100
AcDbEntity
  8
0
 62
7
100
AcDbLine
 10
16.782000
 20
5.091996
 30
0.0
 11
16.705000
 21
4.955005
 31
0.0
  0
LINE
  5
21a
100
AcDbEntity
  8
0
 62
7
100
AcDbLine
 10
16.705000
 20
4.955005
 30
0.0
 11
16.618000
 21
4.823998
 31
0.0
  0
LINE
  5
21b
100
AcDbEntity
  8
0
 62
7
100
AcDbLine
 10
16.618000
 20
4.823998
 30
0.0
 11
16.521000
 21
4.701005
 31
0.0
  0
LINE
  5
21c
100
AcDbEntity
  8
0
 62
7
100
AcDbLine
 10
16.521000
 20
4.701005
 30
0.0
 11
16.414000
 21
4.586000
 31
0.0
  0
LINE
  5
21d
100
AcDbEntity
  8
0
 62
7
100
AcDbLine
 10
16.414000
 20
4.586000
 30
0.0
 11
16.299000
 21
4.479009
 31
0.0
  0
LINE
  5
21e
100
AcDbEntity
  8
0
 62
7
100
AcDbLine
 10
16.299000
 20
4.479009
 30
0.0
 11
16.176000
 21
4.382009
 31
0.0
  0
LINE
  5
21f
100
AcDbEntity
  8
0
 62
7
100
AcDbLine
 10
16.176000
 20
4.382009
 30
0.0
 11
16.045000
 21
4.295000
 31
0.0
  0
LINE
  5
220
100
AcDbEntity
  8
0
 62
7
100
AcDbLine
 10
16.045000
 20
4.295000
 30
0.0
 11
15.908000
 21
4.218010
 31
0.0
  0
LINE
  5
221
100
AcDbEntity
  8
0
 62
7
100
AcDbLine
 10
15.908000
 20
4.218010
 30
0.0
 11
15.765000
 21
4.151998
 31
0.0
  0
LINE
  5
222
100
AcDbEntity
  8
0
 62
7
100
AcDbLine
 10
15.765000
 20
4.151998
 30
0.0
 11
15.618000
 21
4.098009
 31
0.0
  0
LINE
  5
223
100
AcDbEntity
  8
0
 62
7
100
AcDbLine
 10
15.618000
 20
4.098009
 30
0.0
 11
15.467000
 21
4.054998
 31
0.0
  0
LINE
  5
224
100
AcDbEntity
  8
0
 62
7
100
AcDbLine
 10
15.467000
 20
4.054998
 30
0.0
 11
15.313000
 21
4.024998
 31
0.0
  0
LINE
  5
225
100
AcDbEntity
  8
0
 62
7
100
AcDbLine
 10
15.313000
 20
4.024998
 30
0.0
 11
15.157000
 21
4.006089
 31
0.0
  0
LINE
  5
226
100
AcDbEntity
  8
0
 62
7
100
AcDbLine
 10
15.157000
 20
4.006089
 30
0.0
 11
15.000000
 21
4.000163
 31
0.0
  0
LINE
  5
227
100
AcDbEntity
  8
0
 62
7
100
AcDbLine
 10
15.000000
 20
4.000163
 30
0.0
 11
14.843000
 21
4.006089
 31
0.0
  0
LINE
  5
228
100
AcDbEntity
  8
0
 62
7
100
AcDbLine
 10
14.843000
 20
4.006089
 30
0.0
 11
14.687000
 21
4.024998
 31
0.0
  0
LINE
  5
229
100
AcDbEntity
  8
0
 62
7
100
AcDbLine
 10
14.687000
 20
4.024998
 30
0.0
 11
14.533000
 21
4.054998
 31
0.0
  0
LINE
  5
22a
100
AcDbEntity
  8
0
 62
7
100
AcDbLine
 10
14.533000
 20
4.054998
 30
0.0
 11
14.382000
 21
4.098009
 31
0.0
  0
LINE
  5
22b
100
AcDbEntity
  8
0
 62
7
100
AcDbLine
 10
14.382000
 20
4.098009
 30
0.0
 11
14.235000
 21
4.151998
 31
0.0
  0
LINE
  5
22c
100
AcDbEntity
  8
0
 62
7
100
AcDbLine
 10
14.235000
 20
4.151998
 30
0.0
 11
14.092000
 21
4.218010
 31
0.0
  0
LINE
  5
22d
100
AcDbEntity
  8
0
 62
7
100
AcDbLine
 10
14.092000
 20
4.218010
 30
0.0
 11
13.955000
 21
4.295000
 31
0.0
  0
LINE
  5
22e
100
AcDbEntity
  8
0
 62
7
100
AcDbLine
 10
13.955000
 20
4.295000
 30
0.0
 11
13.824000
 21
4.382009
 31
0.0
  0
LINE
  5
22f
100
AcDbEntity
  8
0
 62
7
100
AcDbLine
 10
13.824000
 20
4.382009
 30
0.0
 11
13.701000
 21
4.479009
 31
0.0
  0
LINE
  5
230
100
AcDbEntity
  8
0
 62
7
100
AcDbLine
 10
13.701000
 20
4.479009
 30
0.0
 11
13.586000
 21
4.586000
 31
0.0
  0
LINE
  5
231
100
AcDbEntity
  8
0
 62
7
100
AcDbLine
 10
13.586000
 20
4.586000
 30
0.0
 11
13.479000
 21
4.701005
 31
0.0
  0
LINE
  5
232
100
AcDbEntity
  8
0
 62
7
100
AcDbLine
 10
13.479000
 20
4.701005
 30
0.0
 11
13.382000
 21
4.823998
 31
0.0
  0
LINE
  5
233
100
AcDbEntity
  8
0
 62
7
100
AcDbLine
 10
13.382000
 20
4.823998
 30
0.0
 11
13.295000
 21
4.955005
 31
0.0
  0
LINE
  5
234
100
AcDbEntity
  8
0
 62
7
100
AcDbLine
 10
13.295000
 20
4.955005
 30
0.0
 11
13.218000
 21
5.091996
 31
0.0
  0
LINE
  5
235
100
AcDbEntity
  8
0
 62
7
100
AcDbLine
 10
13.218000
 20
5.091996
 30
0.0
 11
13.152000
 21
5.234998
 31
0.0
  0
LINE
  5
236
100
AcDbEntity
  8
0
 62
7
100
AcDbLine
 10
13.152000
 20
5.234998
 30
0.0
 11
13.098000
 21
5.382007
 31
0.0
  0
LINE
  5
237
100
AcDbEntity
  8
0
 62
7
100
AcDbLine
 10
13.098000
 20
5.382007
 30
0.0
 11
13.055000
 21
5.532996
 31
0.0
  0
LINE
  5
238
100
AcDbEntity
  8
0
 62
7
100
AcDbLine
 10
13.055000
 20
5.532996
 30
0.0
 11
13.025000
 21
5.687005
 31
0.0
  0
LINE
  5
239
100
AcDbEntity
  8
0
 62
7
100
AcDbLine
 10
13.025000
 20
5.687005
 30
0.0
 11
13.006001
 21
5.842989
 31
0.0
  0
LINE
  5
23a
100
AcDbEntity
  8
0
 62
7
100
AcDbLine
 10
13.006001
 20
5.842989
 30
0.0
 11
13.000001
 21
5.999989
 31
0.0
  0
LINE
  5
23b
100
AcDbEntity
  8
0
 62
7
100
AcDbLine
 10
13.000001
 20
5.999989
 30
0.0
 11
13.006001
 21
6.156990
 31
0.0
  0
LINE
  5
23c
100
AcDbEntity
  8
0
 62
7
100
AcDbLine
 10
13.006001
 20
6.156990
 30
0.0
 11
13.025000
 21
6.313002
 31
0.0
  0
LINE
  5
23d
100
AcDbEntity
  8
0
 62
7
100
AcDbLine
 10
13.025000
 20
6.313002
 30
0.0
 11
13.055000
 21
6.467011
 31
0.0
  0
LINE
  5
23e
100
AcDbEntity
  8
0
 62
7
100
AcDbLine
 10
13.055000
 20
6.467011
 30
0.0
 11
13.098000
 21
6.618000
 31
0.0
  0
LINE
  5
23f
100
AcDbEntity
  8
0
 62
7
100
AcDbLine
 10
13.098000
 20
6.618000
 30
0.0
 11
13.152000
 21
6.765009
 31
0.0
  0
LINE
  5
240
100
AcDbEntity
  8
0
 62
7
100
AcDbLine
 10
13.152000
 20
6.765009
 30
0.0
 11
13.218000
 21
6.908011
 31
0.0
  0
LINE
  5
241
100
AcDbEntity
  8
0
 62
7
100
AcDbLine
 10
13.218000
 20
6.908011
 30
0.0
 11
13.295000
 21
7.045002
 31
0.0
  0
LINE
  5
242
100
AcDbEntity
  8
0
 62
7
100
AcDbLine
 10
13.295000
 20
7.045002
 30
0.0
 11
13.382000
 21
7.176009
 31
0.0
  0
LINE
  5
243
100
AcDbEntity
  8
0
 62
7
100
AcDbLine
 10
13.382000
 20
7.176009
 30
0.0
 11
13.479000
 21
7.299002
 31
0.0
  0
LINE
  5
244
100
AcDbEntity
  8
0
 62
7
100
AcDbLine
 10
13.479000
 20
7.299002
 30
0.0
 11
13.586000
 21
7.414007
 31
0.0
  0
LINE
  5
245
100
AcDbEntity
  8
0
 62
7
100
AcDbLine
 10
13.586000
 20
7.414007
 30
0.0
 11
13.701000
 21
7.520998
 31
0.0
  0
LINE
  5
246
100
AcDbEntity
  8
0
 62
7
100
AcDbLine
 10
13.701000
 20
7.520998
 30
0.0
 11
13.824000
 21
7.617998
 31
0.0
  0
LINE
  5
247
100
AcDbEntity
  8
0
 62
7
100
AcDbLine
 10
13.824000
 20
7.617998
 30
0.0
 11
13.955000
 21
7.705007
 31
0.0
  0
LINE
  5
248
100
AcDbEntity
  8
0
 62
7
100
AcDbLine
 10
13.955000
 20
7.705007
 30
0.0
 11
14.092000
 21
7.781997
 31
0.0
  0
LINE
  5
249
100
AcDbEntity
  8
0
 62
7
100
AcDbLine
 10
14.092000
 20
7.781997
 30
0.0
 11
14.235000
 21
7.848009
 31
0.0
  0
LINE
  5
24a
100
AcDbEntity
  8
0
 62
7
100
AcDbLine
 10
14.235000
 20
7.848009
 30
0.0
 11
14.382000
 21
7.901998
 31
0.0
  0
LINE
  5
24b
100
AcDbEntity
  8
0
 62
7
100
AcDbLine
 10
14.382000
 20
7.901998
 30
0.0
 11
14.533000
 21
7.945008
 31
0.0
  0
LINE
  5
24c
100
AcDbEntity
  8
0
 62
7
100
AcDbLine
 10
14.533000
 20
7.945008
 30
0.0
 11
14.687000
 21
7.975009
 31
0.0
  0
LINE
  5
24d
100
AcDbEntity
  8
0
 62
7
100
AcDbLine
 10
14.687000
 20
7.975009
 30
0.0
 11
14.843000
 21
7.993918
 31
0.0
  0
LINE
  5
24e
100
AcDbEntity
  8
0
 62
7
100
AcDbLine
 10
14.843000
 20
7.993918
 30
0.0
 11
15.000000
 21
7.999844
 31
0.0
  0
LINE
  5
24f
100
AcDbEntity
  8
0
 62
7
100
AcDbLine
 10
15.000000
 20
7.999844
 30
0.0
 11
15.157000
 21
7.993918
 31
0.0
  0
LINE
  5
250
100
AcDbEntity
  8
0
 62
7
100
AcDbLine
 10
15.157000
 20
7.993918
 30
0.0
 11
15.313000
 21
7.975009
 31
0.0
  0
LINE
  5
251
100
AcDbEntity
  8
0
 62
7
100
AcDbLine
 10
15.313000
 20
7.975009
 30
0.0
 11
15.467000
 21
7.945008
 31
0.0
  0
LINE
  5
252
100
AcDbEntity
  8
0
 62
7
100
AcDbLine
 10
15.467000
 20
7.945008
 30
0.0
 11
15.618000
 21
7.901998
 31
0.0
  0
LINE
  5
253
100
AcDbEntity
  8
0
 62
7
100
AcDbLine
 10
15.618000
 20
7.901998
 30
0.0
 11
15.765000
 21
7.848009
 31
0.0
  0
LINE
  5
254
100
AcDbEntity
  8
0
 62
7
100
AcDbLine
 10
15.765000
 20
7.848009
 30
0.0
 11
15.908000
 21
7.781997
 31
0.0
  0
LINE
  5
255
100
AcDbEntity
  8
0
 62
7
100
AcDbLine
 10
15.908000
 20
7.781997
 30
0.0
 11
16.045000
 21
7.705007
 31
0.0
  0
LINE
  5
256
100
AcDbEntity
  8
0
 62
7
100
AcDbLine
 10
16.045000
 20
7.705007
 30
0.0
 11
16.176000
 21
7.617998
 31
0.0
  0
LINE
  5
257
100
AcDbEntity
  8
0
 62
7
100
AcDbLine
 10
16.176000
 20
7.617998
 30
0.0
 11
16.299000
 21
7.520998
 31
0.0
  0
LINE
  5
258
100
AcDbEntity
  8
0
 62
7
100
AcDbLine
 10
16.299000
 20
7.520998
 30
0.0
 11
16.414000
 21
7.414007
 31
0.0
  0
LINE
  5
259
100
AcDbEntity
  8
0
 62
7
100
AcDbLine
 10
16.414000
 20
7.414007
 30
0.0
 11
16.521000
 21
7.299002
 31
0.0
  0
LINE
  5
25a
100
AcDbEntity
  8
0
 62
7
100
AcDbLine
 10
16.521000
 20
7.299002
 30
0.0
 11
16.618000
 21
7.176009
 31
0.0
  0
LINE
  5
25b
100
AcDbEntity
  8
0
 62
7
100
AcDbLine
 10
16.618000
 20
7.176009
 30
0.0
 11
16.705000
 21
7.045002
 31
0.0
  0
LINE
  5
25c
100
AcDbEntity
  8
0
 62
7
100
AcDbLine
 10
16.705000
 20
7.045002
 30
0.0
 11
16.782000
 21
6.908011
 31
0.0
  0
LINE
  5
25d
100
AcDbEntity
  8
0
 62
7
100
AcDbLine
 10
16.782000
 20
6.908011
 30
0.0
 11
16.848000
 21
6.765009
 31
0.0
  0
LINE
  5
25e
100
AcDbEntity
  8
0
 62
7
100
AcDbLine
 10
16.848000
 20
6.765009
 30
0.0
 11
16.902000
 21
6.618000
 31
0.0
  0
LINE
  5
25f
100
AcDbEntity
  8
0
 62
7
100
AcDbLine
 10
16.902000
 20
6.618000
 30
0.0
 11
16.945000
 21
6.467011
 31
0.0
  0
LINE
  5
260
100
AcDbEntity
  8
0
 62
7
100
AcDbLine
 10
16.945000
 20
6.467011
 30
0.0
 11
16.975000
 21
6.313002
 31
0.0
  0
LINE
  5
261
100
AcDbEntity
  8
0
 62
7
100
AcDbLine
 10
16.975000
 20
6.313002
 30
0.0
 11
16.993999
 21
6.156990
 31
0.0
  0
LINE
  5
262
100
AcDbEntity
  8
0
 62
7
100
AcDbLine
 10
16.993999
 20
6.156990
 30
0.0
 11
16.999999
 21
5.999989
 31
0.0
  0
LINE
  5
263
100
AcDbEntity
  8
0
 62
7
100
AcDbLine
 10
16.999999
 20
5.999989
 30
0.0
 11
16.993999
 21
5.842989
 31
0.0
  0
LINE
  5
264
100
AcDbEntity
  8
0
 62
7
100
AcDbLine
 10
16.993999
 20
5.842989
 30
0.0
 11
16.975000
 21
5.687005
 31
0.0
  0
LINE
  5
265
100
AcDbEntity
  8
0
 62
7
100
AcDbLine
 10
16.975000
 20
5.687005
 30
0.0
 11
16.945000
 21
5.532996
 31
0.0
  0
LINE
  5
266
100
AcDbEntity
  8
0
 62
7
100
AcDbLine
 10
16.945000
 20
5.532996
 30
0.0
 11
16.902000
 21
5.382007
 31
0.0
  0
LINE
  5
267
100
AcDbEntity
  8
0
 62
7
100
AcDbLine
 10
16.902000
 20
5.382007
 30
0.0
 11
16.848000
 21
5.234998
 31
0.0
  0
LINE
  5
268
100
AcDbEntity
  8
0
 62
7
100
AcDbLine
 10
16.848000
 20
5.234998
 30
0.0
 11
16.782000
 21
5.091996
 31
0.0
  0
LINE
  5
269
100
AcDbEntity
  8
0
 62
7
100
AcDbLine
 10
13.295000
 20
56.955000
 30
0.0
 11
13.218000
 21
57.091999
 31
0.0
  0
LINE
  5
26a
100
AcDbEntity
  8
0
 62
7
100
AcDbLine
 10
13.218000
 20
57.091999
 30
0.0
 11
13.152000
 21
57.235001
 31
0.0
  0
LINE
  5
26b
100
AcDbEntity
  8
0
 62
7
100
AcDbLine
 10
13.152000
 20
57.235001
 30
0.0
 11
13.098000
 21
57.381999
 31
0.0
  0
LINE
  5
26c
100
AcDbEntity
  8
0
 62
7
100
AcDbLine
 10
13.098000
 20
57.381999
 30
0.0
 11
13.055000
 21
57.532999
 31
0.0
  0
LINE
  5
26d
100
AcDbEntity
  8
0
 62
7
100
AcDbLine
 10
13.055000
 20
57.532999
 30
0.0
 11
13.025000
 21
57.687000
 31
0.0
  0
LINE
  5
26e
100
AcDbEntity
  8
0
 62
7
100
AcDbLine
 10
13.025000
 20
57.687000
 30
0.0
 11
13.006001
 21
57.843001
 31
0.0
  0
LINE
  5
26f
100
AcDbEntity
  8
0
 62
7
100
AcDbLine
 10
13.006001
 20
57.843001
 30
0.0
 11
13.000001
 21
58.000001
 31
0.0
  0
LINE
  5
270
100
AcDbEntity
  8
0
 62
7
100
AcDbLine
 10
13.000001
 20
58.000001
 30
0.0
 11
13.006001
 21
58.157001
 31
0.0
  0
LINE
  5
271
100
AcDbEntity
  8
0
 62
7
100
AcDbLine
 10
13.006001
 20
58.157001
 30
0.0
 11
13.025000
 21
58.313000
 31
0.0
  0
LINE
  5
272
100
AcDbEntity
  8
0
 62
7
100
AcDbLine
 10
13.025000
 20
58.313000
 30
0.0
 11
13.055000
 21
58.467000
 31
0.0
  0
LINE
  5
273
100
AcDbEntity
  8
0
 62
7
100
AcDbLine
 10
13.055000
 20
58.467000
 30
0.0
 11
13.098000
 21
58.618000
 31
0.0
  0
LINE
  5
274
100
AcDbEntity
  8
0
 62
7
100
AcDbLine
 10
13.098000
 20
58.618000
 30
0.0
 11
13.152000
 21
58.765001
 31
0.0
  0
LINE
  5
275
100
AcDbEntity
  8
0
 62
7
100
AcDbLine
 10
13.152000
 20
58.765001
 30
0.0
 11
13.218000
 21
58.908000
 31
0.0
  0
LINE
  5
276
100
AcDbEntity
  8
0
 62
7
100
AcDbLine
 10
13.218000
 20
58.908000
 30
0.0
 11
13.295000
 21
59.044999
 31
0.0
  0
LINE
  5
277
100
AcDbEntity
  8
0
 62
7
100
AcDbLine
 10
13.295000
 20
59.044999
 30
0.0
 11
13.382000
 21
59.176001
 31
0.0
  0
LINE
  5
278
100
AcDbEntity
  8
0
 62
7
100
AcDbLine
 10
13.382000
 20
59.176001
 30
0.0
 11
13.479000
 21
59.298999
 31
0.0
  0
LINE
  5
279
100
AcDbEntity
  8
0
 62
7
100
AcDbLine
 10
13.479000
 20
59.298999
 30
0.0
 11
13.586000
 21
59.413999
 31
0.0
  0
LINE
  5
27a
100
AcDbEntity
  8
0
 62
7
100
AcDbLine
 10
13.586000
 20
59.413999
 30
0.0
 11
13.701000
 21
59.521001
 31
0.0
  0
LINE
  5
27b
100
AcDbEntity
  8
0
 62
7
100
AcDbLine
 10
13.701000
 20
59.521001
 30
0.0
 11
13.824000
 21
59.618001
 31
0.0
  0
LINE
  5
27c
100
AcDbEntity
  8
0
 62
7
100
AcDbLine
 10
13.824000
 20
59.618001
 30
0.0
 11
13.955000
 21
59.705001
 31
0.0
  0
LINE
  5
27d
100
AcDbEntity
  8
0
 62
7
100
AcDbLine
 10
13.955000
 20
59.705001
 30
0.0
 11
14.092000
 21
59.782000
 31
0.0
  0
LINE
  5
27e
100
AcDbEntity
  8
0
 62
7
100
AcDbLine
 10
14.092000
 20
59.782000
 30
0.0
 11
14.235000
 21
59.848001
 31
0.0
  0
LINE
  5
27f
100
AcDbEntity
  8
0
 62
7
100
AcDbLine
 10
14.235000
 20
59.848001
 30
0.0
 11
14.382000
 21
59.902001
 31
0.0
  0
LINE
  5
280
100
AcDbEntity
  8
0
 62
7
100
AcDbLine
 10
14.382000
 20
59.902001
 30
0.0
 11
14.533000
 21
59.945000
 31
0.0
  0
LINE
  5
281
100
AcDbEntity
  8
0
 62
7
100
AcDbLine
 10
14.533000
 20
59.945000
 30
0.0
 11
14.687000
 21
59.975001
 31
0.0
  0
LINE
  5
282
100
AcDbEntity
  8
0
 62
7
100
AcDbLine
 10
14.687000
 20
59.975001
 30
0.0
 11
14.843000
 21
59.993994
 31
0.0
  0
LINE
  5
283
100
AcDbEntity
  8
0
 62
7
100
AcDbLine
 10
14.843000
 20
59.993994
 30
0.0
 11
15.000000
 21
60.000006
 31
0.0
  0
LINE
  5
284
100
AcDbEntity
  8
0
 62
7
100
AcDbLine
 10
15.000000
 20
60.000006
 30
0.0
 11
15.157000
 21
59.993994
 31
0.0
  0
LINE
  5
285
100
AcDbEntity
  8
0
 62
7
100
AcDbLine
 10
15.157000
 20
59.993994
 30
0.0
 11
15.313000
 21
59.975001
 31
0.0
  0
LINE
  5
286
100
AcDbEntity
  8
0
 62
7
100
AcDbLine
 10
15.313000
 20
59.975001
 30
0.0
 11
15.467000
 21
59.945000
 31
0.0
  0
LINE
  5
287
100
AcDbEntity
  8
0
 62
7
100
AcDbLine
 10
15.467000
 20
59.945000
 30
0.0
 11
15.618000
 21
59.902001
 31
0.0
  0
LINE
  5
288
100
AcDbEntity
  8
0
 62
7
100
AcDbLine
 10
15.618000
 20
59.902001
 30
0.0
 11
15.765000
 21
59.848001
 31
0.0
  0
LINE
  5
289
100
AcDbEntity
  8
0
 62
7
100
AcDbLine
 10
15.765000
 20
59.848001
 30
0.0
 11
15.908000
 21
59.782000
 31
0.0
  0
LINE
  5
28a
100
AcDbEntity
  8
0
 62
7
100
AcDbLine
 10
15.908000
 20
59.782000
 30
0.0
 11
16.045000
 21
59.705001
 31
0.0
  0
LINE
  5
28b
100
AcDbEntity
  8
0
 62
7
100
AcDbLine
 10
16.045000
 20
59.705001
 30
0.0
 11
16.176000
 21
59.618001
 31
0.0
  0
LINE
  5
28c
100
AcDbEntity
  8
0
 62
7
100
AcDbLine
 10
16.176000
 20
59.618001
 30
0.0
 11
16.299000
 21
59.521001
 31
0.0
  0
LINE
  5
28d
100
AcDbEntity
  8
0
 62
7
100
AcDbLine
 10
16.299000
 20
59.521001
 30
0.0
 11
16.414000
 21
59.413999
 31
0.0
  0
LINE
  5
28e
100
AcDbEntity
  8
0
 62
7
100
AcDbLine
 10
16.414000
 20
59.413999
 30
0.0
 11
16.521000
 21
59.298999
 31
0.0
  0
LINE
  5
28f
100
AcDbEntity
  8
0
 62
7
100
AcDbLine
 10
16.521000
 20
59.298999
 30
0.0
 11
16.618000
 21
59.176001
 31
0.0
  0
LINE
  5
290
100
AcDbEntity
  8
0
 62
7
100
AcDbLine
 10
16.618000
 20
59.176001
 30
0.0
 11
16.705000
 21
59.044999
 31
0.0
  0
LINE
  5
291
100
AcDbEntity
  8
0
 62
7
100
AcDbLine
 10
16.705000
 20
59.044999
 30
0.0
 11
16.782000
 21
58.908000
 31
0.0
  0
LINE
  5
292
100
AcDbEntity
  8
0
 62
7
100
AcDbLine
 10
16.782000
 20
58.908000
 30
0.0
 11
16.848000
 21
58.765001
 31
0.0
  0
LINE
  5
293
100
AcDbEntity
  8
0
 62
7
100
AcDbLine
 10
16.848000
 20
58.765001
 30
0.0
 11
16.902000
 21
58.618000
 31
0.0
  0
LINE
  5
294
100
AcDbEntity
  8
0
 62
7
100
AcDbLine
 10
16.902000
 20
58.618000
 30
0.0
 11
16.945000
 21
58.467000
 31
0.0
  0
LINE
  5
295
100
AcDbEntity
  8
0
 62
7
100
AcDbLine
 10
16.945000
 20
58.467000
 30
0.0
 11
16.975000
 21
58.313000
 31
0.0
  0
LINE
  5
296
100
AcDbEntity
  8
0
 62
7
100
AcDbLine
 10
16.975000
 20
58.313000
 30
0.0
 11
16.993999
 21
58.157001
 31
0.0
  0
LINE
  5
297
100
AcDbEntity
  8
0
 62
7
100
AcDbLine
 10
16.993999
 20
58.157001
 30
0.0
 11
16.999999
 21
58.000001
 31
0.0
  0
LINE
  5
298
100
AcDbEntity
  8
0
 62
7
100
AcDbLine
 10
16.999999
 20
58.000001
 30
0.0
 11
16.993999
 21
57.843001
 31
0.0
  0
LINE
  5
299
100
AcDbEntity
  8
0
 62
7
100
AcDbLine
 10
16.993999
 20
57.843001
 30
0.0
 11
16.975000
 21
57.687000
 31
0.0
  0
LINE
  5
29a
100
AcDbEntity
  8
0
 62
7
100
AcDbLine
 10
16.975000
 20
57.687000
 30
0.0
 11
16.945000
 21
57.532999
 31
0.0
  0
LINE
  5
29b
100
AcDbEntity
  8
0
 62
7
100
AcDbLine
 10
16.945000
 20
57.532999
 30
0.0
 11
16.902000
 21
57.381999
 31
0.0
  0
LINE
  5
29c
100
AcDbEntity
  8
0
 62
7
100
AcDbLine
 10
16.902000
 20
57.381999
 30
0.0
 11
16.848000
 21
57.235001
 31
0.0
  0
LINE
  5
29d
100
AcDbEntity
  8
0
 62
7
100
AcDbLine
 10
16.848000
 20
57.235001
 30
0.0
 11
16.782000
 21
57.091999
 31
0.0
  0
LINE
  5
29e
100
AcDbEntity
  8
0
 62
7
100
AcDbLine
 10
16.782000
 20
57.091999
 30
0.0
 11
16.705000
 21
56.955000
 31
0.0
  0
LINE
  5
29f
100
AcDbEntity
  8
0
 62
7
100
AcDbLine
 10
16.705000
 20
56.955000
 30
0.0
 11
16.618000
 21
56.824001
 31
0.0
  0
LINE
  5
2a0
100
AcDbEntity
  8
0
 62
7
100
AcDbLine
 10
16.618000
 20
56.824001
 30
0.0
 11
16.521000
 21
56.701000
 31
0.0
  0
LINE
  5
2a1
100
AcDbEntity
  8
0
 62
7
100
AcDbLine
 10
16.521000
 20
56.701000
 30
0.0
 11
16.414000
 21
56.586000
 31
0.0
  0
LINE
  5
2a2
100
AcDbEntity
  8
0
 62
7
100
AcDbLine
 10
16.414000
 20
56.586000
 30
0.0
 11
16.299000
 21
56.479001
 31
0.0
  0
LINE
  5
2a3
100
AcDbEntity
  8
0
 62
7
100
AcDbLine
 10
16.299000
 20
56.479001
 30
0.0
 11
16.176000
 21
56.381998
 31
0.0
  0
LINE
  5
2a4
100
AcDbEntity
  8
0
 62
7
100
AcDbLine
 10
16.176000
 20
56.381998
 30
0.0
 11
16.045000
 21
56.295001
 31
0.0
  0
LINE
  5
2a5
100
AcDbEntity
  8
0
 62
7
100
AcDbLine
 10
16.045000
 20
56.295001
 30
0.0
 11
15.908000
 21
56.217999
 31
0.0
  0
LINE
  5
2a6
100
AcDbEntity
  8
0
 62
7
100
AcDbLine
 10
15.908000
 20
56.217999
 30
0.0
 11
15.765000
 21
56.152001
 31
0.0
  0
LINE
  5
2a7
100
AcDbEntity
  8
0
 62
7
100
AcDbLine
 10
15.765000
 20
56.152001
 30
0.0
 11
15.618000
 21
56.098001
 31
0.0
  0
LINE
  5
2a8
100
AcDbEntity
  8
0
 62
7
100
AcDbLine
 10
15.618000
 20
56.098001
 30
0.0
 11
15.467000
 21
56.054999
 31
0.0
  0
LINE
  5
2a9
100
AcDbEntity
  8
0
 62
7
100
AcDbLine
 10
15.467000
 20
56.054999
 30
0.0
 11
15.313000
 21
56.024999
 31
0.0
  0
LINE
  5
2aa
100
AcDbEntity
  8
0
 62
7
100
AcDbLine
 10
15.313000
 20
56.024999
 30
0.0
 11
15.157000
 21
56.006005
 31
0.0
  0
LINE
  5
2ab
100
AcDbEntity
  8
0
 62
7
100
AcDbLine
 10
15.157000
 20
56.006005
 30
0.0
 11
15.000000
 21
55.999994
 31
0.0
  0
LINE
  5
2ac
100
AcDbEntity
  8
0
 62
7
100
AcDbLine
 10
15.000000
 20
55.999994
 30
0.0
 11
14.843000
 21
56.006005
 31
0.0
  0
LINE
  5
2ad
100
AcDbEntity
  8
0
 62
7
100
AcDbLine
 10
14.843000
 20
56.006005
 30
0.0
 11
14.687000
 21
56.024999
 31
0.0
  0
LINE
  5
2ae
100
AcDbEntity
  8
0
 62
7
100
AcDbLine
 10
14.687000
 20
56.024999
 30
0.0
 11
14.533000
 21
56.054999
 31
0.0
  0
LINE
  5
2af
100
AcDbEntity
  8
0
 62
7
100
AcDbLine
 10
14.533000
 20
56.054999
 30
0.0
 11
14.382000
 21
56.098001
 31
0.0
  0
LINE
  5
2b0
100
AcDbEntity
  8
0
 62
7
100
AcDbLine
 10
14.382000
 20
56.098001
 30
0.0
 11
14.235000
 21
56.152001
 31
0.0
  0
LINE
  5
2b1
100
AcDbEntity
  8
0
 62
7
100
AcDbLine
 10
14.235000
 20
56.152001
 30
0.0
 11
14.092000
 21
56.217999
 31
0.0
  0
LINE
  5
2b2
100
AcDbEntity
  8
0
 62
7
100
AcDbLine
 10
14.092000
 20
56.217999
 30
0.0
 11
13.955000
 21
56.295001
 31
0.0
  0
LINE
  5
2b3
100
AcDbEntity
  8
0
 62
7
100
AcDbLine
 10
13.955000
 20
56.295001
 30
0.0
 11
13.824000
 21
56.381998
 31
0.0
  0
LINE
  5
2b4
100
AcDbEntity
  8
0
 62
7
100
AcDbLine
 10
13.824000
 20
56.381998
 30
0.0
 11
13.701000
 21
56.479001
 31
0.0
  0
LINE
  5
2b5
100
AcDbEntity
  8
0
 62
7
100
AcDbLine
 10
13.701000
 20
56.479001
 30
0.0
 11
13.586000
 21
56.586000
 31
0.0
  0
LINE
  5
2b6
100
AcDbEntity
  8
0
 62
7
100
AcDbLine
 10
13.586000
 20
56.586000
 30
0.0
 11
13.479000
 21
56.701000
 31
0.0
  0
LINE
  5
2b7
100
AcDbEntity
  8
0
 62
7
100
AcDbLine
 10
13.479000
 20
56.701000
 30
0.0
 11
13.382000
 21
56.824001
 31
0.0
  0
LINE
  5
2b8
100
AcDbEntity
  8
0
 62
7
100
AcDbLine
 10
13.382000
 20
56.824001
 30
0.0
 11
13.295000
 21
56.955000
 31
0.0
  0
LINE
  5
2b9
100
AcDbEntity
  8
0
 62
7
100
AcDbLine
 10
38.021000
 20
17.799001
 30
0.0
 11
38.118000
 21
17.676000
 31
0.0
  0
LINE
  5
2ba
100
AcDbEntity
  8
0
 62
7
100
AcDbLine
 10
38.118000
 20
17.676000
 30
0.0
 11
38.205001
 21
17.545001
 31
0.0
  0
LINE
  5
2bb
100
AcDbEntity
  8
0
 62
7
100
AcDbLine
 10
38.205001
 20
17.545001
 30
0.0
 11
38.281999
 21
17.408001
 31
0.0
  0
LINE
  5
2bc
100
AcDbEntity
  8
0
 62
7
100
AcDbLine
 10
38.281999
 20
17.408001
 30
0.0
 11
38.348000
 21
17.264999
 31
0.0
  0
LINE
  5
2bd
100
AcDbEntity
  8
0
 62
7
100
AcDbLine
 10
38.348000
 20
17.264999
 30
0.0
 11
38.402000
 21
17.118001
 31
0.0
  0
LINE
  5
2be
100
AcDbEntity
  8
0
 62
7
100
AcDbLine
 10
38.402000
 20
17.118001
 30
0.0
 11
38.445000
 21
16.967001
 31
0.0
  0
LINE
  5
2bf
100
AcDbEntity
  8
0
 62
7
100
AcDbLine
 10
38.445000
 20
16.967001
 30
0.0
 11
38.475000
 21
16.813001
 31
0.0
  0
LINE
  5
2c0
100
AcDbEntity
  8
0
 62
7
100
AcDbLine
 10
38.475000
 20
16.813001
 30
0.0
 11
38.493994
 21
16.657000
 31
0.0
  0
LINE
  5
2c1
100
AcDbEntity
  8
0
 62
7
100
AcDbLine
 10
38.493994
 20
16.657000
 30
0.0
 11
38.500005
 21
16.499999
 31
0.0
  0
LINE
  5
2c2
100
AcDbEntity
  8
0
 62
7
100
AcDbLine
 10
38.500005
 20
16.499999
 30
0.0
 11
38.493994
 21
16.342999
 31
0.0
  0
LINE
  5
2c3
100
AcDbEntity
  8
0
 62
7
100
AcDbLine
 10
38.493994
 20
16.342999
 30
0.0
 11
38.475000
 21
16.187001
 31
0.0
  0
LINE
  5
2c4
100
AcDbEntity
  8
0
 62
7
100
AcDbLine
 10
38.475000
 20
16.187001
 30
0.0
 11
38.445000
 21
16.033001
 31
0.0
  0
LINE
  5
2c5
100
AcDbEntity
  8
0
 62
7
100
AcDbLine
 10
38.445000
 20
16.033001
 30
0.0
 11
38.402000
 21
15.882000
 31
0.0
  0
LINE
  5
2c6
100
AcDbEntity
  8
0
 62
7
100
AcDbLine
 10
38.402000
 20
15.882000
 30
0.0
 11
38.348000
 21
15.734999
 31
0.0
  0
LINE
  5
2c7
100
AcDbEntity
  8
0
 62
7
100
AcDbLine
 10
38.348000
 20
15.734999
 30
0.0
 11
38.281999
 21
15.592000
 31
0.0
  0
LINE
  5
2c8
100
AcDbEntity
  8
0
 62
7
100
AcDbLine
 10
38.281999
 20
15.592000
 30
0.0
 11
38.205001
 21
15.455001
 31
0.0
  0
LINE
  5
2c9
100
AcDbEntity
  8
0
 62
7
100
AcDbLine
 10
38.205001
 20
15.455001
 30
0.0
 11
38.118000
 21
15.323999
 31
0.0
  0
LINE
  5
2ca
100
AcDbEntity
  8
0
 62
7
100
AcDbLine
 10
38.118000
 20
15.323999
 30
0.0
 11
38.021000
 21
15.201001
 31
0.0
  0
LINE
  5
2cb
100
AcDbEntity
  8
0
 62
7
100
AcDbLine
 10
38.021000
 20
15.201001
 30
0.0
 11
37.913999
 21
15.086001
 31
0.0
  0
LINE
  5
2cc
100
AcDbEntity
  8
0
 62
7
100
AcDbLine
 10
37.913999
 20
15.086001
 30
0.0
 11
37.798999
 21
14.978999
 31
0.0
  0
LINE
  5
2cd
100
AcDbEntity
  8
0
 62
7
100
AcDbLine
 10
37.798999
 20
14.978999
 30
0.0
 11
37.676001
 21
14.882000
 31
0.0
  0
LINE
  5
2ce
100
AcDbEntity
  8
0
 62
7
100
AcDbLine
 10
37.676001
 20
14.882000
 30
0.0
 11
37.544999
 21
14.794999
 31
0.0
  0
LINE
  5
2cf
100
AcDbEntity
  8
0
 62
7
100
AcDbLine
 10
37.544999
 20
14.794999
 30
0.0
 11
37.408000
 21
14.718003
 31
0.0
  0
LINE
  5
2d0
100
AcDbEntity
  8
0
 62
7
100
AcDbLine
 10
37.408000
 20
14.718003
 30
0.0
 11
37.265000
 21
14.651991
 31
0.0
  0
LINE
  5
2d1
100
AcDbEntity
  8
0
 62
7
100
AcDbLine
 10
37.265000
 20
14.651991
 30
0.0
 11
37.117999
 21
14.598002
 31
0.0
  0
LINE
  5
2d2
100
AcDbEntity
  8
0
 62
7
100
AcDbLine
 10
37.117999
 20
14.598002
 30
0.0
 11
36.966999
 21
14.554992
 31
0.0
  0
LINE
  5
2d3
100
AcDbEntity
  8
0
 62
7
100
AcDbLine
 10
36.966999
 20
14.554992
 30
0.0
 11
36.812999
 21
14.524991
 31
0.0
  0
LINE
  5
2d4
100
AcDbEntity
  8
0
 62
7
100
AcDbLine
 10
36.812999
 20
14.524991
 30
0.0
 11
36.657001
 21
14.506082
 31
0.0
  0
LINE
  5
2d5
100
AcDbEntity
  8
0
 62
7
100
AcDbLine
 10
36.657001
 20
14.506082
 30
0.0
 11
36.500000
 21
14.500156
 31
0.0
  0
LINE
  5
2d6
100
AcDbEntity
  8
0
 62
7
100
AcDbLine
 10
36.500000
 20
14.500156
 30
0.0
 11
36.343000
 21
14.506082
 31
0.0
  0
LINE
  5
2d7
100
AcDbEntity
  8
0
 62
7
100
AcDbLine
 10
36.343000
 20
14.506082
 30
0.0
 11
36.186999
 21
14.524991
 31
0.0
  0
LINE
  5
2d8
100
AcDbEntity
  8
0
 62
7
100
AcDbLine
 10
36.186999
 20
14.524991
 30
0.0
 11
36.032999
 21
14.554992
 31
0.0
  0
LINE
  5
2d9
100
AcDbEntity
  8
0
 62
7
100
AcDbLine
 10
36.032999
 20
14.554992
 30
0.0
 11
35.882001
 21
14.598002
 31
0.0
  0
LINE
  5
2da
100
AcDbEntity
  8
0
 62
7
100
AcDbLine
 10
35.882001
 20
14.598002
 30
0.0
 11
35.735000
 21
14.651991
 31
0.0
  0
LINE
  5
2db
100
AcDbEntity
  8
0
 62
7
100
AcDbLine
 10
35.735000
 20
14.651991
 30
0.0
 11
35.592001
 21
14.718003
 31
0.0
  0
LINE
  5
2dc
100
AcDbEntity
  8
0
 62
7
100
AcDbLine
 10
35.592001
 20
14.718003
 30
0.0
 11
35.454999
 21
14.794999
 31
0.0
  0
LINE
  5
2dd
100
AcDbEntity
  8
0
 62
7
100
AcDbLine
 10
35.454999
 20
14.794999
 30
0.0
 11
35.324000
 21
14.882000
 31
0.0
  0
LINE
  5
2de
100
AcDbEntity
  8
0
 62
7
100
AcDbLine
 10
35.324000
 20
14.882000
 30
0.0
 11
35.200999
 21
14.978999
 31
0.0
  0
LINE
  5
2df
100
AcDbEntity
  8
0
 62
7
100
AcDbLine
 10
35.200999
 20
14.978999
 30
0.0
 11
35.085999
 21
15.086001
 31
0.0
  0
LINE
  5
2e0
100
AcDbEntity
  8
0
 62
7
100
AcDbLine
 10
35.085999
 20
15.086001
 30
0.0
 11
34.979000
 21
15.201001
 31
0.0
  0
LINE
  5
2e1
100
AcDbEntity
  8
0
 62
7
100
AcDbLine
 10
34.979000
 20
15.201001
 30
0.0
 11
34.882001
 21
15.323999
 31
0.0
  0
LINE
  5
2e2
100
AcDbEntity
  8
0
 62
7
100
AcDbLine
 10
34.882001
 20
15.323999
 30
0.0
 11
34.795000
 21
15.455001
 31
0.0
  0
LINE
  5
2e3
100
AcDbEntity
  8
0
 62
7
100
AcDbLine
 10
34.795000
 20
15.455001
 30
0.0
 11
34.718001
 21
15.592000
 31
0.0
  0
LINE
  5
2e4
100
AcDbEntity
  8
0
 62
7
100
AcDbLine
 10
34.718001
 20
15.592000
 30
0.0
 11
34.652001
 21
15.734999
 31
0.0
  0
LINE
  5
2e5
100
AcDbEntity
  8
0
 62
7
100
AcDbLine
 10
34.652001
 20
15.734999
 30
0.0
 11
34.598000
 21
15.882000
 31
0.0
  0
LINE
  5
2e6
100
AcDbEntity
  8
0
 62
7
100
AcDbLine
 10
34.598000
 20
15.882000
 30
0.0
 11
34.555001
 21
16.033001
 31
0.0
  0
LINE
  5
2e7
100
AcDbEntity
  8
0
 62
7
100
AcDbLine
 10
34.555001
 20
16.033001
 30
0.0
 11
34.525001
 21
16.187001
 31
0.0
  0
LINE
  5
2e8
100
AcDbEntity
  8
0
 62
7
100
AcDbLine
 10
34.525001
 20
16.187001
 30
0.0
 11
34.506007
 21
16.342999
 31
0.0
  0
LINE
  5
2e9
100
AcDbEntity
  8
0
 62
7
100
AcDbLine
 10
34.506007
 20
16.342999
 30
0.0
 11
34.499996
 21
16.499999
 31
0.0
  0
LINE
  5
2ea
100
AcDbEntity
  8
0
 62
7
100
AcDbLine
 10
34.499996
 20
16.499999
 30
0.0
 11
34.506007
 21
16.657000
 31
0.0
  0
LINE
  5
2eb
100
AcDbEntity
  8
0
 62
7
100
AcDbLine
 10
34.506007
 20
16.657000
 30
0.0
 11
34.525001
 21
16.813001
 31
0.0
  0
LINE
  5
2ec
100
AcDbEntity
  8
0
 62
7
100
AcDbLine
 10
34.525001
 20
16.813001
 30
0.0
 11
34.555001
 21
16.967001
 31
0.0
  0
LINE
  5
2ed
100
AcDbEntity
  8
0
 62
7
100
AcDbLine
 10
34.555001
 20
16.967001
 30
0.0
 11
34.598000
 21
17.118001
 31
0.0
  0
LINE
  5
2ee
100
AcDbEntity
  8
0
 62
7
100
AcDbLine
 10
34.598000
 20
17.118001
 30
0.0
 11
34.652001
 21
17.264999
 31
0.0
  0
LINE
  5
2ef
100
AcDbEntity
  8
0
 62
7
100
AcDbLine
 10
34.652001
 20
17.264999
 30
0.0
 11
34.718001
 21
17.408001
 31
0.0
  0
LINE
  5
2f0
100
AcDbEntity
  8
0
 62
7
100
AcDbLine
 10
34.718001
 20
17.408001
 30
0.0
 11
34.795000
 21
17.545001
 31
0.0
  0
LINE
  5
2f1
100
AcDbEntity
  8
0
 62
7
100
AcDbLine
 10
34.795000
 20
17.545001
 30
0.0
 11
34.882001
 21
17.676000
 31
0.0
  0
LINE
  5
2f2
100
AcDbEntity
  8
0
 62
7
100
AcDbLine
 10
34.882001
 20
17.676000
 30
0.0
 11
34.979000
 21
17.799001
 31
0.0
  0
LINE
  5
2f3
100
AcDbEntity
  8
0
 62
7
100
AcDbLine
 10
34.979000
 20
17.799001
 30
0.0
 11
35.085999
 21
17.914000
 31
0.0
  0
LINE
  5
2f4
100
AcDbEntity
  8
0
 62
7
100
AcDbLine
 10
35.085999
 20
17.914000
 30
0.0
 11
35.200999
 21
18.020999
 31
0.0
  0
LINE
  5
2f5
100
AcDbEntity
  8
0
 62
7
100
AcDbLine
 10
35.200999
 20
18.020999
 30
0.0
 11
35.324000
 21
18.117999
 31
0.0
  0
LINE
  5
2f6
100
AcDbEntity
  8
0
 62
7
100
AcDbLine
 10
35.324000
 20
18.117999
 30
0.0
 11
35.454999
 21
18.205000
 31
0.0
  0
LINE
  5
2f7
100
AcDbEntity
  8
0
 62
7
100
AcDbLine
 10
35.454999
 20
18.205000
 30
0.0
 11
35.592001
 21
18.281998
 31
0.0
  0
LINE
  5
2f8
100
AcDbEntity
  8
0
 62
7
100
AcDbLine
 10
35.592001
 20
18.281998
 30
0.0
 11
35.735000
 21
18.347999
 31
0.0
  0
LINE
  5
2f9
100
AcDbEntity
  8
0
 62
7
100
AcDbLine
 10
35.735000
 20
18.347999
 30
0.0
 11
35.882001
 21
18.401999
 31
0.0
  0
LINE
  5
2fa
100
AcDbEntity
  8
0
 62
7
100
AcDbLine
 10
35.882001
 20
18.401999
 30
0.0
 11
36.032999
 21
18.444999
 31
0.0
  0
LINE
  5
2fb
100
AcDbEntity
  8
0
 62
7
100
AcDbLine
 10
36.032999
 20
18.444999
 30
0.0
 11
36.186999
 21
18.474999
 31
0.0
  0
LINE
  5
2fc
100
AcDbEntity
  8
0
 62
7
100
AcDbLine
 10
36.186999
 20
18.474999
 30
0.0
 11
36.343000
 21
18.493993
 31
0.0
  0
LINE
  5
2fd
100
AcDbEntity
  8
0
 62
7
100
AcDbLine
 10
36.343000
 20
18.493993
 30
0.0
 11
36.500000
 21
18.500004
 31
0.0
  0
LINE
  5
2fe
100
AcDbEntity
  8
0
 62
7
100
AcDbLine
 10
36.500000
 20
18.500004
 30
0.0
 11
36.657001
 21
18.493993
 31
0.0
  0
LINE
  5
2ff
100
AcDbEntity
  8
0
 62
7
100
AcDbLine
 10
36.657001
 20
18.493993
 30
0.0
 11
36.812999
 21
18.474999
 31
0.0
  0
LINE
  5
300
100
AcDbEntity
  8
0
 62
7
100
AcDbLine
 10
36.812999
 20
18.474999
 30
0.0
 11
36.966999
 21
18.444999
 31
0.0
  0
LINE
  5
301
100
AcDbEntity
  8
0
 62
7
100
AcDbLine
 10
36.966999
 20
18.444999
 30
0.0
 11
37.117999
 21
18.401999
 31
0.0
  0
LINE
  5
302
100
AcDbEntity
  8
0
 62
7
100
AcDbLine
 10
37.117999
 20
18.401999
 30
0.0
 11
37.265000
 21
18.347999
 31
0.0
  0
LINE
  5
303
100
AcDbEntity
  8
0
 62
7
100
AcDbLine
 10
37.265000
 20
18.347999
 30
0.0
 11
37.408000
 21
18.281998
 31
0.0
  0
LINE
  5
304
100
AcDbEntity
  8
0
 62
7
100
AcDbLine
 10
37.408000
 20
18.281998
 30
0.0
 11
37.544999
 21
18.205000
 31
0.0
  0
LINE
  5
305
100
AcDbEntity
  8
0
 62
7
100
AcDbLine
 10
37.544999
 20
18.205000
 30
0.0
 11
37.676001
 21
18.117999
 31
0.0
  0
LINE
  5
306
100
AcDbEntity
  8
0
 62
7
100
AcDbLine
 10
37.676001
 20
18.117999
 30
0.0
 11
37.798999
 21
18.020999
 31
0.0
  0
LINE
  5
307
100
AcDbEntity
  8
0
 62
7
100
AcDbLine
 10
37.798999
 20
18.020999
 30
0.0
 11
37.913999
 21
17.914000
 31
0.0
  0
LINE
  5
308
100
AcDbEntity
  8
0
 62
7
100
AcDbLine
 10
37.913999
 20
17.914000
 30
0.0
 11
38.021000
 21
17.799001
 31
0.0
  0
LINE
  5
309
100
AcDbEntity
  8
0
 62
7
100
AcDbLine
 10
36.657001
 20
45.506001
 30
0.0
 11
36.500000
 21
45.499989
 31
0.0
  0
LINE
  5
30a
100
AcDbEntity
  8
0
 62
7
100
AcDbLine
 10
36.500000
 20
45.499989
 30
0.0
 11
36.343000
 21
45.506001
 31
0.0
  0
LINE
  5
30b
100
AcDbEntity
  8
0
 62
7
100
AcDbLine
 10
36.343000
 20
45.506001
 30
0.0
 11
36.186999
 21
45.524994
 31
0.0
  0
LINE
  5
30c
100
AcDbEntity
  8
0
 62
7
100
AcDbLine
 10
36.186999
 20
45.524994
 30
0.0
 11
36.032999
 21
45.554994
 31
0.0
  0
LINE
  5
30d
100
AcDbEntity
  8
0
 62
7
100
AcDbLine
 10
36.032999
 20
45.554994
 30
0.0
 11
35.882001
 21
45.597994
 31
0.0
  0
LINE
  5
30e
100
AcDbEntity
  8
0
 62
7
100
AcDbLine
 10
35.882001
 20
45.597994
 30
0.0
 11
35.735000
 21
45.651994
 31
0.0
  0
LINE
  5
30f
100
AcDbEntity
  8
0
 62
7
100
AcDbLine
 10
35.735000
 20
45.651994
 30
0.0
 11
35.592001
 21
45.717995
 31
0.0
  0
LINE
  5
310
100
AcDbEntity
  8
0
 62
7
100
AcDbLine
 10
35.592001
 20
45.717995
 30
0.0
 11
35.454999
 21
45.794993
 31
0.0
  0
LINE
  5
311
100
AcDbEntity
  8
0
 62
7
100
AcDbLine
 10
35.454999
 20
45.794993
 30
0.0
 11
35.324000
 21
45.881994
 31
0.0
  0
LINE
  5
312
100
AcDbEntity
  8
0
 62
7
100
AcDbLine
 10
35.324000
 20
45.881994
 30
0.0
 11
35.200999
 21
45.978994
 31
0.0
  0
LINE
  5
313
100
AcDbEntity
  8
0
 62
7
100
AcDbLine
 10
35.200999
 20
45.978994
 30
0.0
 11
35.085999
 21
46.085996
 31
0.0
  0
LINE
  5
314
100
AcDbEntity
  8
0
 62
7
100
AcDbLine
 10
35.085999
 20
46.085996
 30
0.0
 11
34.979000
 21
46.200995
 31
0.0
  0
LINE
  5
315
100
AcDbEntity
  8
0
 62
7
100
AcDbLine
 10
34.979000
 20
46.200995
 30
0.0
 11
34.882001
 21
46.323994
 31
0.0
  0
LINE
  5
316
100
AcDbEntity
  8
0
 62
7
100
AcDbLine
 10
34.882001
 20
46.323994
 30
0.0
 11
34.795000
 21
46.454995
 31
0.0
  0
LINE
  5
317
100
AcDbEntity
  8
0
 62
7
100
AcDbLine
 10
34.795000
 20
46.454995
 30
0.0
 11
34.718001
 21
46.591995
 31
0.0
  0
LINE
  5
318
100
AcDbEntity
  8
0
 62
7
100
AcDbLine
 10
34.718001
 20
46.591995
 30
0.0
 11
34.652001
 21
46.734994
 31
0.0
  0
LINE
  5
319
100
AcDbEntity
  8
0
 62
7
100
AcDbLine
 10
34.652001
 20
46.734994
 30
0.0
 11
34.598000
 21
46.881995
 31
0.0
  0
LINE
  5
31a
100
AcDbEntity
  8
0
 62
7
100
AcDbLine
 10
34.598000
 20
46.881995
 30
0.0
 11
34.555001
 21
47.032995
 31
0.0
  0
LINE
  5
31b
100
AcDbEntity
  8
0
 62
7
100
AcDbLine
 10
34.555001
 20
47.032995
 30
0.0
 11
34.525001
 21
47.186995
 31
0.0
  0
LINE
  5
31c
100
AcDbEntity
  8
0
 62
7
100
AcDbLine
 10
34.525001
 20
47.186995
 30
0.0
 11
34.506007
 21
47.342994
 31
0.0
  0
LINE
  5
31d
100
AcDbEntity
  8
0
 62
7
100
AcDbLine
 10
34.506007
 20
47.342994
 30
0.0
 11
34.499996
 21
47.499994
 31
0.0
  0
LINE
  5
31e
100
AcDbEntity
  8
0
 62
7
100
AcDbLine
 10
34.499996
 20
47.499994
 30
0.0
 11
34.506007
 21
47.656994
 31
0.0
  0
LINE
  5
31f
100
AcDbEntity
  8
0
 62
7
100
AcDbLine
 10
34.506007
 20
47.656994
 30
0.0
 11
34.525001
 21
47.812995
 31
0.0
  0
LINE
  5
320
100
AcDbEntity
  8
0
 62
7
100
AcDbLine
 10
34.525001
 20
47.812995
 30
0.0
 11
34.555001
 21
47.966995
 31
0.0
  0
LINE
  5
321
100
AcDbEntity
  8
0
 62
7
100
AcDbLine
 10
34.555001
 20
47.966995
 30
0.0
 11
34.598000
 21
48.117996
 31
0.0
  0
LINE
  5
322
100
AcDbEntity
  8
0
 62
7
100
AcDbLine
 10
34.598000
 20
48.117996
 30
0.0
 11
34.652001
 21
48.264994
 31
0.0
  0
LINE
  5
323
100
AcDbEntity
  8
0
 62
7
100
AcDbLine
 10
34.652001
 20
48.264994
 30
0.0
 11
34.718001
 21
48.407993
 31
0.0
  0
LINE
  5
324
100
AcDbEntity
  8
0
 62
7
100
AcDbLine
 10
34.718001
 20
48.407993
 30
0.0
 11
34.795000
 21
48.544995
 31
0.0
  0
LINE
  5
325
100
AcDbEntity
  8
0
 62
7
100
AcDbLine
 10
34.795000
 20
48.544995
 30
0.0
 11
34.882001
 21
48.675994
 31
0.0
  0
LINE
  5
326
100
AcDbEntity
  8
0
 62
7
100
AcDbLine
 10
34.882001
 20
48.675994
 30
0.0
 11
34.979000
 21
48.798995
 31
0.0
  0
LINE
  5
327
100
AcDbEntity
  8
0
 62
7
100
AcDbLine
 10
34.979000
 20
48.798995
 30
0.0
 11
35.085999
 21
48.913995
 31
0.0
  0
LINE
  5
328
100
AcDbEntity
  8
0
 62
7
100
AcDbLine
 10
35.085999
 20
48.913995
 30
0.0
 11
35.200999
 21
49.020994
 31
0.0
  0
LINE
  5
329
100
AcDbEntity
  8
0
 62
7
100
AcDbLine
 10
35.200999
 20
49.020994
 30
0.0
 11
35.324000
 21
49.117994
 31
0.0
  0
LINE
  5
32a
100
AcDbEntity
  8
0
 62
7
100
AcDbLine
 10
35.324000
 20
49.117994
 30
0.0
 11
35.454999
 21
49.204994
 31
0.0
  0
LINE
  5
32b
100
AcDbEntity
  8
0
 62
7
100
AcDbLine
 10
35.454999
 20
49.204994
 30
0.0
 11
35.592001
 21
49.281996
 31
0.0
  0
LINE
  5
32c
100
AcDbEntity
  8
0
 62
7
100
AcDbLine
 10
35.592001
 20
49.281996
 30
0.0
 11
35.735000
 21
49.347993
 31
0.0
  0
LINE
  5
32d
100
AcDbEntity
  8
0
 62
7
100
AcDbLine
 10
35.735000
 20
49.347993
 30
0.0
 11
35.882001
 21
49.401994
 31
0.0
  0
LINE
  5
32e
100
AcDbEntity
  8
0
 62
7
100
AcDbLine
 10
35.882001
 20
49.401994
 30
0.0
 11
36.032999
 21
49.444993
 31
0.0
  0
LINE
  5
32f
100
AcDbEntity
  8
0
 62
7
100
AcDbLine
 10
36.032999
 20
49.444993
 30
0.0
 11
36.186999
 21
49.474993
 31
0.0
  0
LINE
  5
330
100
AcDbEntity
  8
0
 62
7
100
AcDbLine
 10
36.186999
 20
49.474993
 30
0.0
 11
36.343000
 21
49.493987
 31
0.0
  0
LINE
  5
331
100
AcDbEntity
  8
0
 62
7
100
AcDbLine
 10
36.343000
 20
49.493987
 30
0.0
 11
36.500000
 21
49.499998
 31
0.0
  0
LINE
  5
332
100
AcDbEntity
  8
0
 62
7
100
AcDbLine
 10
36.500000
 20
49.499998
 30
0.0
 11
36.657001
 21
49.493987
 31
0.0
  0
LINE
  5
333
100
AcDbEntity
  8
0
 62
7
100
AcDbLine
 10
36.657001
 20
49.493987
 30
0.0
 11
36.812999
 21
49.474993
 31
0.0
  0
LINE
  5
334
100
AcDbEntity
  8
0
 62
7
100
AcDbLine
 10
36.812999
 20
49.474993
 30
0.0
 11
36.966999
 21
49.444993
 31
0.0
  0
LINE
  5
335
100
AcDbEntity
  8
0
 62
7
100
AcDbLine
 10
36.966999
 20
49.444993
 30
0.0
 11
37.117999
 21
49.401994
 31
0.0
  0
LINE
  5
336
100
AcDbEntity
  8
0
 62
7
100
AcDbLine
 10
37.117999
 20
49.401994
 30
0.0
 11
37.265000
 21
49.347993
 31
0.0
  0
LINE
  5
337
100
AcDbEntity
  8
0
 62
7
100
AcDbLine
 10
37.265000
 20
49.347993
 30
0.0
 11
37.408000
 21
49.281996
 31
0.0
  0
LINE
  5
338
100
AcDbEntity
  8
0
 62
7
100
AcDbLine
 10
37.408000
 20
49.281996
 30
0.0
 11
37.544999
 21
49.204994
 31
0.0
  0
LINE
  5
339
100
AcDbEntity
  8
0
 62
7
100
AcDbLine
 10
37.544999
 20
49.204994
 30
0.0
 11
37.676001
 21
49.117994
 31
0.0
  0
LINE
  5
33a
100
AcDbEntity
  8
0
 62
7
100
AcDbLine
 10
37.676001
 20
49.117994
 30
0.0
 11
37.798999
 21
49.020994
 31
0.0
  0
LINE
  5
33b
100
AcDbEntity
  8
0
 62
7
100
AcDbLine
 10
37.798999
 20
49.020994
 30
0.0
 11
37.913999
 21
48.913995
 31
0.0
  0
LINE
  5
33c
100
AcDbEntity
  8
0
 62
7
100
AcDbLine
 10
37.913999
 20
48.913995
 30
0.0
 11
38.021000
 21
48.798995
 31
0.0
  0
LINE
  5
33d
100
AcDbEntity
  8
0
 62
7
100
AcDbLine
 10
38.021000
 20
48.798995
 30
0.0
 11
38.118000
 21
48.675994
 31
0.0
  0
LINE
  5
33e
100
AcDbEntity
  8
0
 62
7
100
AcDbLine
 10
38.118000
 20
48.675994
 30
0.0
 11
38.205001
 21
48.544995
 31
0.0
  0
LINE
  5
33f
100
AcDbEntity
  8
0
 62
7
100
AcDbLine
 10
38.205001
 20
48.544995
 30
0.0
 11
38.281999
 21
48.407993
 31
0.0
  0
LINE
  5
340
100
AcDbEntity
  8
0
 62
7
100
AcDbLine
 10
38.281999
 20
48.407993
 30
0.0
 11
38.348000
 21
48.264994
 31
0.0
  0
LINE
  5
341
100
AcDbEntity
  8
0
 62
7
100
AcDbLine
 10
38.348000
 20
48.264994
 30
0.0
 11
38.402000
 21
48.117996
 31
0.0
  0
LINE
  5
342
100
AcDbEntity
  8
0
 62
7
100
AcDbLine
 10
38.402000
 20
48.117996
 30
0.0
 11
38.445000
 21
47.966995
 31
0.0
  0
LINE
  5
343
100
AcDbEntity
  8
0
 62
7
100
AcDbLine
 10
38.445000
 20
47.966995
 30
0.0
 11
38.475000
 21
47.812995
 31
0.0
  0
LINE
  5
344
100
AcDbEntity
  8
0
 62
7
100
AcDbLine
 10
38.475000
 20
47.812995
 30
0.0
 11
38.493994
 21
47.656994
 31
0.0
  0
LINE
  5
345
100
AcDbEntity
  8
0
 62
7
100
AcDbLine
 10
38.493994
 20
47.656994
 30
0.0
 11
38.500005
 21
47.499994
 31
0.0
  0
LINE
  5
346
100
AcDbEntity
  8
0
 62
7
100
AcDbLine
 10
38.500005
 20
47.499994
 30
0.0
 11
38.493994
 21
47.342994
 31
0.0
  0
LINE
  5
347
100
AcDbEntity
  8
0
 62
7
100
AcDbLine
 10
38.493994
 20
47.342994
 30
0.0
 11
38.475000
 21
47.186995
 31
0.0
  0
LINE
  5
348
100
AcDbEntity
  8
0
 62
7
100
AcDbLine
 10
38.475000
 20
47.186995
 30
0.0
 11
38.445000
 21
47.032995
 31
0.0
  0
LINE
  5
349
100
AcDbEntity
  8
0
 62
7
100
AcDbLine
 10
38.445000
 20
47.032995
 30
0.0
 11
38.402000
 21
46.881995
 31
0.0
  0
LINE
  5
34a
100
AcDbEntity
  8
0
 62
7
100
AcDbLine
 10
38.402000
 20
46.881995
 30
0.0
 11
38.348000
 21
46.734994
 31
0.0
  0
LINE
  5
34b
100
AcDbEntity
  8
0
 62
7
100
AcDbLine
 10
38.348000
 20
46.734994
 30
0.0
 11
38.281999
 21
46.591995
 31
0.0
  0
LINE
  5
34c
100
AcDbEntity
  8
0
 62
7
100
AcDbLine
 10
38.281999
 20
46.591995
 30
0.0
 11
38.205001
 21
46.454995
 31
0.0
  0
LINE
  5
34d
100
AcDbEntity
  8
0
 62
7
100
AcDbLine
 10
38.205001
 20
46.454995
 30
0.0
 11
38.118000
 21
46.323994
 31
0.0
  0
LINE
  5
34e
100
AcDbEntity
  8
0
 62
7
100
AcDbLine
 10
38.118000
 20
46.323994
 30
0.0
 11
38.021000
 21
46.200995
 31
0.0
  0
LINE
  5
34f
100
AcDbEntity
  8
0
 62
7
100
AcDbLine
 10
38.021000
 20
46.200995
 30
0.0
 11
37.913999
 21
46.085996
 31
0.0
  0
LINE
  5
350
100
AcDbEntity
  8
0
 62
7
100
AcDbLine
 10
37.913999
 20
46.085996
 30
0.0
 11
37.798999
 21
45.978994
 31
0.0
  0
LINE
  5
351
100
AcDbEntity
  8
0
 62
7
100
AcDbLine
 10
37.798999
 20
45.978994
 30
0.0
 11
37.676001
 21
45.881994
 31
0.0
  0
LINE
  5
352
100
AcDbEntity
  8
0
 62
7
100
AcDbLine
 10
37.676001
 20
45.881994
 30
0.0
 11
37.544999
 21
45.794993
 31
0.0
  0
LINE
  5
353
100
AcDbEntity
  8
0
 62
7
100
AcDbLine
 10
37.544999
 20
45.794993
 30
0.0
 11
37.408000
 21
45.717995
 31
0.0
  0
LINE
  5
354
100
AcDbEntity
  8
0
 62
7
100
AcDbLine
 10
37.408000
 20
45.717995
 30
0.0
 11
37.265000
 21
45.651994
 31
0.0
  0
LINE
  5
355
100
AcDbEntity
  8
0
 62
7
100
AcDbLine
 10
37.265000
 20
45.651994
 30
0.0
 11
37.117999
 21
45.597994
 31
0.0
  0
LINE
  5
356
100
AcDbEntity
  8
0
 62
7
100
AcDbLine
 10
37.117999
 20
45.597994
 30
0.0
 11
36.966999
 21
45.554994
 31
0.0
  0
LINE
  5
357
100
AcDbEntity
  8
0
 62
7
100
AcDbLine
 10
36.966999
 20
45.554994
 30
0.0
 11
36.812999
 21
45.524994
 31
0.0
  0
LINE
  5
358
100
AcDbEntity
  8
0
 62
7
100
AcDbLine
 10
36.812999
 20
45.524994
 30
0.0
 11
36.657001
 21
45.506001
 31
0.0
  0
LINE
  5
359
100
AcDbEntity
  8
0
 62
7
100
AcDbLine
 10
43.005999
 20
32.157000
 30
0.0
 11
43.024992
 21
32.313001
 31
0.0
  0
LINE
  5
35a
100
AcDbEntity
  8
0
 62
7
100
AcDbLine
 10
43.024992
 20
32.313001
 30
0.0
 11
43.054992
 21
32.467001
 31
0.0
  0
LINE
  5
35b
100
AcDbEntity
  8
0
 62
7
100
AcDbLine
 10
43.054992
 20
32.467001
 30
0.0
 11
43.097992
 21
32.618001
 31
0.0
  0
LINE
  5
35c
100
AcDbEntity
  8
0
 62
7
100
AcDbLine
 10
43.097992
 20
32.618001
 30
0.0
 11
43.151992
 21
32.764999
 31
0.0
  0
LINE
  5
35d
100
AcDbEntity
  8
0
 62
7
100
AcDbLine
 10
43.151992
 20
32.764999
 30
0.0
 11
43.217993
 21
32.908001
 31
0.0
  0
LINE
  5
35e
100
AcDbEntity
  8
0
 62
7
100
AcDbLine
 10
43.217993
 20
32.908001
 30
0.0
 11
43.294991
 21
33.045001
 31
0.0
  0
LINE
  5
35f
100
AcDbEntity
  8
0
 62
7
100
AcDbLine
 10
43.294991
 20
33.045001
 30
0.0
 11
43.381992
 21
33.176000
 31
0.0
  0
LINE
  5
360
100
AcDbEntity
  8
0
 62
7
100
AcDbLine
 10
43.381992
 20
33.176000
 30
0.0
 11
43.478992
 21
33.299001
 31
0.0
  0
LINE
  5
361
100
AcDbEntity
  8
0
 62
7
100
AcDbLine
 10
43.478992
 20
33.299001
 30
0.0
 11
43.585991
 21
33.414000
 31
0.0
  0
LINE
  5
362
100
AcDbEntity
  8
0
 62
7
100
AcDbLine
 10
43.585991
 20
33.414000
 30
0.0
 11
43.700991
 21
33.520999
 31
0.0
  0
LINE
  5
363
100
AcDbEntity
  8
0
 62
7
100
AcDbLine
 10
43.700991
 20
33.520999
 30
0.0
 11
43.823992
 21
33.617999
 31
0.0
  0
LINE
  5
364
100
AcDbEntity
  8
0
 62
7
100
AcDbLine
 10
43.823992
 20
33.617999
 30
0.0
 11
43.954991
 21
33.705000
 31
0.0
  0
LINE
  5
365
100
AcDbEntity
  8
0
 62
7
100
AcDbLine
 10
43.954991
 20
33.705000
 30
0.0
 11
44.091993
 21
33.782001
 31
0.0
  0
LINE
  5
366
100
AcDbEntity
  8
0
 62
7
100
AcDbLine
 10
44.091993
 20
33.782001
 30
0.0
 11
44.234992
 21
33.847999
 31
0.0
  0
LINE
  5
367
100
AcDbEntity
  8
0
 62
7
100
AcDbLine
 10
44.234992
 20
33.847999
 30
0.0
 11
44.381990
 21
33.901999
 31
0.0
  0
LINE
  5
368
100
AcDbEntity
  8
0
 62
7
100
AcDbLine
 10
44.381990
 20
33.901999
 30
0.0
 11
44.532990
 21
33.944999
 31
0.0
  0
LINE
  5
369
100
AcDbEntity
  8
0
 62
7
100
AcDbLine
 10
44.532990
 20
33.944999
 30
0.0
 11
44.686990
 21
33.974999
 31
0.0
  0
LINE
  5
36a
100
AcDbEntity
  8
0
 62
7
100
AcDbLine
 10
44.686990
 20
33.974999
 30
0.0
 11
44.842992
 21
33.993993
 31
0.0
  0
LINE
  5
36b
100
AcDbEntity
  8
0
 62
7
100
AcDbLine
 10
44.842992
 20
33.993993
 30
0.0
 11
44.999992
 21
34.000004
 31
0.0
  0
LINE
  5
36c
100
AcDbEntity
  8
0
 62
7
100
AcDbLine
 10
44.999992
 20
34.000004
 30
0.0
 11
45.156992
 21
33.993993
 31
0.0
  0
LINE
  5
36d
100
AcDbEntity
  8
0
 62
7
100
AcDbLine
 10
45.156992
 20
33.993993
 30
0.0
 11
45.312990
 21
33.974999
 31
0.0
  0
LINE
  5
36e
100
AcDbEntity
  8
0
 62
7
100
AcDbLine
 10
45.312990
 20
33.974999
 30
0.0
 11
45.466991
 21
33.944999
 31
0.0
  0
LINE
  5
36f
100
AcDbEntity
  8
0
 62
7
100
AcDbLine
 10
45.466991
 20
33.944999
 30
0.0
 11
45.617991
 21
33.901999
 31
0.0
  0
LINE
  5
370
100
AcDbEntity
  8
0
 62
7
100
AcDbLine
 10
45.617991
 20
33.901999
 30
0.0
 11
45.764992
 21
33.847999
 31
0.0
  0
LINE
  5
371
100
AcDbEntity
  8
0
 62
7
100
AcDbLine
 10
45.764992
 20
33.847999
 30
0.0
 11
45.907991
 21
33.782001
 31
0.0
  0
LINE
  5
372
100
AcDbEntity
  8
0
 62
7
100
AcDbLine
 10
45.907991
 20
33.782001
 30
0.0
 11
46.044990
 21
33.705000
 31
0.0
  0
LINE
  5
373
100
AcDbEntity
  8
0
 62
7
100
AcDbLine
 10
46.044990
 20
33.705000
 30
0.0
 11
46.175992
 21
33.617999
 31
0.0
  0
LINE
  5
374
100
AcDbEntity
  8
0
 62
7
100
AcDbLine
 10
46.175992
 20
33.617999
 30
0.0
 11
46.298993
 21
33.520999
 31
0.0
  0
LINE
  5
375
100
AcDbEntity
  8
0
 62
7
100
AcDbLine
 10
46.298993
 20
33.520999
 30
0.0
 11
46.413990
 21
33.414000
 31
0.0
  0
LINE
  5
376
100
AcDbEntity
  8
0
 62
7
100
AcDbLine
 10
46.413990
 20
33.414000
 30
0.0
 11
46.520992
 21
33.299001
 31
0.0
  0
LINE
  5
377
100
AcDbEntity
  8
0
 62
7
100
AcDbLine
 10
46.520992
 20
33.299001
 30
0.0
 11
46.617992
 21
33.176000
 31
0.0
  0
LINE
  5
378
100
AcDbEntity
  8
0
 62
7
100
AcDbLine
 10
46.617992
 20
33.176000
 30
0.0
 11
46.704992
 21
33.045001
 31
0.0
  0
LINE
  5
379
100
AcDbEntity
  8
0
 62
7
100
AcDbLine
 10
46.704992
 20
33.045001
 30
0.0
 11
46.781991
 21
32.908001
 31
0.0
  0
LINE
  5
37a
100
AcDbEntity
  8
0
 62
7
100
AcDbLine
 10
46.781991
 20
32.908001
 30
0.0
 11
46.847991
 21
32.764999
 31
0.0
  0
LINE
  5
37b
100
AcDbEntity
  8
0
 62
7
100
AcDbLine
 10
46.847991
 20
32.764999
 30
0.0
 11
46.901992
 21
32.618001
 31
0.0
  0
LINE
  5
37c
100
AcDbEntity
  8
0
 62
7
100
AcDbLine
 10
46.901992
 20
32.618001
 30
0.0
 11
46.944991
 21
32.467001
 31
0.0
  0
LINE
  5
37d
100
AcDbEntity
  8
0
 62
7
100
AcDbLine
 10
46.944991
 20
32.467001
 30
0.0
 11
46.974991
 21
32.313001
 31
0.0
  0
LINE
  5
37e
100
AcDbEntity
  8
0
 62
7
100
AcDbLine
 10
46.974991
 20
32.313001
 30
0.0
 11
46.993985
 21
32.157000
 31
0.0
  0
LINE
  5
37f
100
AcDbEntity
  8
0
 62
7
100
AcDbLine
 10
46.993985
 20
32.157000
 30
0.0
 11
46.999996
 21
31.999999
 31
0.0
  0
LINE
  5
380
100
AcDbEntity
  8
0
 62
7
100
AcDbLine
 10
46.999996
 20
31.999999
 30
0.0
 11
46.993985
 21
31.842999
 31
0.0
  0
LINE
  5
381
100
AcDbEntity
  8
0
 62
7
100
AcDbLine
 10
46.993985
 20
31.842999
 30
0.0
 11
46.974991
 21
31.687001
 31
0.0
  0
LINE
  5
382
100
AcDbEntity
  8
0
 62
7
100
AcDbLine
 10
46.974991
 20
31.687001
 30
0.0
 11
46.944991
 21
31.533001
 31
0.0
  0
LINE
  5
383
100
AcDbEntity
  8
0
 62
7
100
AcDbLine
 10
46.944991
 20
31.533001
 30
0.0
 11
46.901992
 21
31.382000
 31
0.0
  0
LINE
  5
384
100
AcDbEntity
  8
0
 62
7
100
AcDbLine
 10
46.901992
 20
31.382000
 30
0.0
 11
46.847991
 21
31.234999
 31
0.0
  0
LINE
  5
385
100
AcDbEntity
  8
0
 62
7
100
AcDbLine
 10
46.847991
 20
31.234999
 30
0.0
 11
46.781991
 21
31.092000
 31
0.0
  0
LINE
  5
386
100
AcDbEntity
  8
0
 62
7
100
AcDbLine
 10
46.781991
 20
31.092000
 30
0.0
 11
46.704992
 21
30.955001
 31
0.0
  0
LINE
  5
387
100
AcDbEntity
  8
0
 62
7
100
AcDbLine
 10
46.704992
 20
30.955001
 30
0.0
 11
46.617992
 21
30.823999
 31
0.0
  0
LINE
  5
388
100
AcDbEntity
  8
0
 62
7
100
AcDbLine
 10
46.617992
 20
30.823999
 30
0.0
 11
46.520992
 21
30.701001
 31
0.0
  0
LINE
  5
389
100
AcDbEntity
  8
0
 62
7
100
AcDbLine
 10
46.520992
 20
30.701001
 30
0.0
 11
46.413990
 21
30.586001
 31
0.0
  0
LINE
  5
38a
100
AcDbEntity
  8
0
 62
7
100
AcDbLine
 10
46.413990
 20
30.586001
 30
0.0
 11
46.298993
 21
30.478999
 31
0.0
  0
LINE
  5
38b
100
AcDbEntity
  8
0
 62
7
100
AcDbLine
 10
46.298993
 20
30.478999
 30
0.0
 11
46.175992
 21
30.382000
 31
0.0
  0
LINE
  5
38c
100
AcDbEntity
  8
0
 62
7
100
AcDbLine
 10
46.175992
 20
30.382000
 30
0.0
 11
46.044990
 21
30.294999
 31
0.0
  0
LINE
  5
38d
100
AcDbEntity
  8
0
 62
7
100
AcDbLine
 10
46.044990
 20
30.294999
 30
0.0
 11
45.907991
 21
30.218000
 31
0.0
  0
LINE
  5
38e
100
AcDbEntity
  8
0
 62
7
100
AcDbLine
 10
45.907991
 20
30.218000
 30
0.0
 11
45.764992
 21
30.152000
 31
0.0
  0
LINE
  5
38f
100
AcDbEntity
  8
0
 62
7
100
AcDbLine
 10
45.764992
 20
30.152000
 30
0.0
 11
45.617991
 21
30.097999
 31
0.0
  0
LINE
  5
390
100
AcDbEntity
  8
0
 62
7
100
AcDbLine
 10
45.617991
 20
30.097999
 30
0.0
 11
45.466991
 21
30.055000
 31
0.0
  0
LINE
  5
391
100
AcDbEntity
  8
0
 62
7
100
AcDbLine
 10
45.466991
 20
30.055000
 30
0.0
 11
45.312990
 21
30.025000
 31
0.0
  0
LINE
  5
392
100
AcDbEntity
  8
0
 62
7
100
AcDbLine
 10
45.312990
 20
30.025000
 30
0.0
 11
45.156992
 21
30.006006
 31
0.0
  0
LINE
  5
393
100
AcDbEntity
  8
0
 62
7
100
AcDbLine
 10
45.156992
 20
30.006006
 30
0.0
 11
44.999992
 21
29.999995
 31
0.0
  0
LINE
  5
394
100
AcDbEntity
  8
0
 62
7
100
AcDbLine
 10
44.999992
 20
29.999995
 30
0.0
 11
44.842992
 21
30.006006
 31
0.0
  0
LINE
  5
395
100
AcDbEntity
  8
0
 62
7
100
AcDbLine
 10
44.842992
 20
30.006006
 30
0.0
 11
44.686990
 21
30.025000
 31
0.0
  0
LINE
  5
396
100
AcDbEntity
  8
0
 62
7
100
AcDbLine
 10
44.686990
 20
30.025000
 30
0.0
 11
44.532990
 21
30.055000
 31
0.0
  0
LINE
  5
397
100
AcDbEntity
  8
0
 62
7
100
AcDbLine
 10
44.532990
 20
30.055000
 30
0.0
 11
44.381990
 21
30.097999
 31
0.0
  0
LINE
  5
398
100
AcDbEntity
  8
0
 62
7
100
AcDbLine
 10
44.381990
 20
30.097999
 30
0.0
 11
44.234992
 21
30.152000
 31
0.0
  0
LINE
  5
399
100
AcDbEntity
  8
0
 62
7
100
AcDbLine
 10
44.234992
 20
30.152000
 30
0.0
 11
44.091993
 21
30.218000
 31
0.0
  0
LINE
  5
39a
100
AcDbEntity
  8
0
 62
7
100
AcDbLine
 10
44.091993
 20
30.218000
 30
0.0
 11
43.954991
 21
30.294999
 31
0.0
  0
LINE
  5
39b
100
AcDbEntity
  8
0
 62
7
100
AcDbLine
 10
43.954991
 20
30.294999
 30
0.0
 11
43.823992
 21
30.382000
 31
0.0
  0
LINE
  5
39c
100
AcDbEntity
  8
0
 62
7
100
AcDbLine
 10
43.823992
 20
30.382000
 30
0.0
 11
43.700991
 21
30.478999
 31
0.0
  0
LINE
  5
39d
100
AcDbEntity
  8
0
 62
7
100
AcDbLine
 10
43.700991
 20
30.478999
 30
0.0
 11
43.585991
 21
30.586001
 31
0.0
  0
LINE
  5
39e
100
AcDbEntity
  8
0
 62
7
100
AcDbLine
 10
43.585991
 20
30.586001
 30
0.0
 11
43.478992
 21
30.701001
 31
0.0
  0
LINE
  5
39f
100
AcDbEntity
  8
0
 62
7
100
AcDbLine
 10
43.478992
 20
30.701001
 30
0.0
 11
43.381992
 21
30.823999
 31
0.0
  0
LINE
  5
3a0
100
AcDbEntity
  8
0
 62
7
100
AcDbLine
 10
43.381992
 20
30.823999
 30
0.0
 11
43.294991
 21
30.955001
 31
0.0
  0
LINE
  5
3a1
100
AcDbEntity
  8
0
 62
7
100
AcDbLine
 10
43.294991
 20
30.955001
 30
0.0
 11
43.217993
 21
31.092000
 31
0.0
  0
LINE
  5
3a2
100
AcDbEntity
  8
0
 62
7
100
AcDbLine
 10
43.217993
 20
31.092000
 30
0.0
 11
43.151992
 21
31.234999
 31
0.0
  0
LINE
  5
3a3
100
AcDbEntity
  8
0
 62
7
100
AcDbLine
 10
43.151992
 20
31.234999
 30
0.0
 11
43.097992
 21
31.382000
 31
0.0
  0
LINE
  5
3a4
100
AcDbEntity
  8
0
 62
7
100
AcDbLine
 10
43.097992
 20
31.382000
 30
0.0
 11
43.054992
 21
31.533001
 31
0.0
  0
LINE
  5
3a5
100
AcDbEntity
  8
0
 62
7
100
AcDbLine
 10
43.054992
 20
31.533001
 30
0.0
 11
43.024992
 21
31.687001
 31
0.0
  0
LINE
  5
3a6
100
AcDbEntity
  8
0
 62
7
100
AcDbLine
 10
43.024992
 20
31.687001
 30
0.0
 11
43.005999
 21
31.842999
 31
0.0
  0
LINE
  5
3a7
100
AcDbEntity
  8
0
 62
7
100
AcDbLine
 10
43.005999
 20
31.842999
 30
0.0
 11
42.999987
 21
31.999999
 31
0.0
  0
LINE
  5
3a8
100
AcDbEntity
  8
0
 62
7
100
AcDbLine
 10
42.999987
 20
31.999999
 30
0.0
 11
43.005999
 21
32.157000
 31
0.0
  0
SPLINE
  5
3a9
100
AcDbEntity
  8
0
 62
7
100
AcDbSpline
 70
8
 71
3
 72
8
 73
4
 74
0
 40
0
 40
0
 40
0
 40
0
 40
1
 40
1
 40
1
 40
1
 10
47.999999
 20
6.000010
 30
0.0
 10
48.000768
 20
5.284967
 30
0.0
 10
47.619739
 20
4.623910
 30
0.0
 10
47.000621
 20
4.266166
 30
0.0
  0
SPLINE
  5
3aa
100
AcDbEntity
  8
0
 62
7
100
AcDbSpline
 70
8
 71
3
 72
8
 73
4
 74
0
 40
0
 40
0
 40
0
 40
0
 40
1
 40
1
 40
1
 40
1
 10
47.000621
 20
4.266166
 30
0.0
 10
46.381503
 20
3.908423
 30
0.0
 10
45.618497
 20
3.908423
 30
0.0
 10
44.999379
 20
4.266166
 30
0.0
  0
SPLINE
  5
3ab
100
AcDbEntity
  8
0
 62
7
100
AcDbSpline
 70
8
 71
3
 72
8
 73
4
 74
0
 40
0
 40
0
 40
0
 40
0
 40
1
 40
1
 40
1
 40
1
 10
44.999379
 20
4.266166
 30
0.0
 10
44.380261
 20
4.623910
 30
0.0
 10
43.999232
 20
5.284967
 30
0.0
 10
44.000001
 20
6.000010
 30
0.0
  0
SPLINE
  5
3ac
100
AcDbEntity
  8
0
 62
7
100
AcDbSpline
 70
8
 71
3
 72
8
 73
4
 74
0
 40
0
 40
0
 40
0
 40
0
 40
1
 40
1
 40
1
 40
1
 10
44.000001
 20
6.000010
 30
0.0
 10
43.999232
 20
6.715053
 30
0.0
 10
44.380261
 20
7.376110
 30
0.0
 10
44.999379
 20
7.733853
 30
0.0
  0
SPLINE
  5
3ad
100
AcDbEntity
  8
0
 62
7
100
AcDbSpline
 70
8
 71
3
 72
8
 73
4
 74
0
 40
0
 40
0
 40
0
 40
0
 40
1
 40
1
 40
1
 40
1
 10
44.999379
 20
7.733853
 30
0.0
 10
45.618497
 20
8.091597
 30
0.0
 10
46.381503
 20
8.091597
 30
0.0
 10
47.000621
 20
7.733853
 30
0.0
  0
SPLINE
  5
3ae
100
AcDbEntity
  8
0
 62
7
100
AcDbSpline
 70
8
 71
3
 72
8
 73
4
 74
0
 40
0
 40
0
 40
0
 40
0
 40
1
 40
1
 40
1
 40
1
 10
47.000621
 20
7.733853
 30
0.0
 10
47.619739
 20
7.376110
 30
0.0
 10
48.000768
 20
6.715053
 30
0.0
 10
47.999999
 20
6.000010
 30
0.0
  0
LINE
  5
3af
100
AcDbEntity
  8
0
 62
7
100
AcDbLine
 10
47.999999
 20
6.000010
 30
0.0
 11
47.999999
 21
6.000010
 31
0.0
  0
ENDSEC
  0
SECTION
  2
OBJECTS
  0
DICTIONARY
  5
C
330
0
100
AcDbDictionary
  3
ACAD_GROUP
350
D
  3
ACAD_MLINESTYLE
350
17
  0
DICTIONARY
  5
D
330
C
100
AcDbDictionary
  0
DICTIONARY
  5
1A
330
C
100
AcDbDictionary
  0
DICTIONARY
  5
17
330
C
100
AcDbDictionary
  3
STANDARD
350
18
  0
DICTIONARY
  5
19
330
C
100
AcDbDictionary
  0
ENDSEC
  0
EOF
