  0
SECTION
  2
BLOCKS
  0
ENDSEC
  0
SECTION
  2
ENTITIES
  0
LINE
  8
0
 10
0
 20
0
 11
16
 21
0
  0
LINE
  8
0
 10
16
 20
0
 11
16
 21
7
  0
LINE
  8
0
 10
16
 20
7
 11
16.0769
 21
7.78036
  0
LINE
  8
0
 10
16.0769
 20
7.78036
 11
16.3045
 21
8.53073
  0
LINE
  8
0
 10
16.3045
 20
8.53073
 11
16.6741
 21
9.22228
  0
LINE
  8
0
 10
16.6741
 20
9.22228
 11
17.1716
 21
9.82843
  0
LINE
  8
0
 10
17.1716
 20
9.82843
 11
17.7777
 21
10.3259
  0
LINE
  8
0
 10
17.7777
 20
10.3259
 11
18.4693
 21
10.6955
  0
LINE
  8
0
 10
18.4693
 20
10.6955
 11
19.2196
 21
10.9231
  0
LINE
  8
0
 10
19.2196
 20
10.9231
 11
20
 21
11
  0
LINE
  8
0
 10
20
 20
11
 11
20.7804
 21
10.9231
  0
LINE
  8
0
 10
20.7804
 20
10.9231
 11
21.5307
 21
10.6955
  0
LINE
  8
0
 10
21.5307
 20
10.6955
 11
22.2223
 21
10.3259
  0
LINE
  8
0
 10
22.2223
 20
10.3259
 11
22.8284
 21
9.82843
  0
LINE
  8
0
 10
22.8284
 20
9.82843
 11
23.3259
 21
9.22228
  0
LINE
  8
0
 10
23.3259
 20
9.22228
 11
23.6955
 21
8.53073
  0
LINE
  8
0
 10
23.6955
 20
8.53073
 11
23.9231
 21
7.78036
  0
LINE
  8
0
 10
23.9231
 20
7.78036
 11
24
 21
7
  0
LINE
  8
0
 10
24
 20
7
 11
24
 21
0
  0
LINE
  8
0
 10
24
 20
0
 11
40
 21
0
  0
LINE
  8
0
 10
40
 20
0
 11
40
 21
16
  0
LINE
  8
0
 10
40
 20
16
 11
0
 21
16
  0
LINE
  8
0
 10
0
 20
16
 11
0
 21
0
  0
LINE
  8
0
 10
2.95
 20
6
 11
2.98939
 21
6.39994
  0
LINE
  8
0
 10
2.98939
 20
6.39994
 11
3.10605
 21
6.7845
  0
LINE
  8
0
 10
3.10605
 20
6.7845
 11
3.29549
 21
7.13892
  0
LINE
  8
0
 10
3.29549
 20
7.13892
 11
3.55043
 21
7.44957
  0
LINE
  8
0
 10
3.55043
 20
7.44957
 11
3.86108
 21
7.70451
  0
LINE
  8
0
 10
3.86108
 20
7.70451
 11
4.2155
 21
7.89395
  0
LINE
  8
0
 10
4.2155
 20
7.89395
 11
4.60007
 21
8.01061
  0
LINE
  8
0
 10
4.60007
 20
8.01061
 11
5
 21
8.05
  0
LINE
  8
0
 10
5
 20
8.05
 11
5.39994
 21
8.01061
  0
LINE
  8
0
 10
5.39994
 20
8.01061
 11
5.7845
 21
7.89395
  0
LINE
  8
0
 10
5.7845
 20
7.89395
 11
6.13892
 21
7.70451
  0
LINE
  8
0
 10
6.13892
 20
7.70451
 11
6.44957
 21
7.44957
  0
LINE
  8
0
 10
6.44957
 20
7.44957
 11
6.70451
 21
7.13892
  0
LINE
  8
0
 10
6.70451
 20
7.13892
 11
6.89395
 21
6.7845
  0
LINE
  8
0
 10
6.89395
 20
6.7845
 11
7.01061
 21
6.39994
  0
LINE
  8
0
 10
7.01061
 20
6.39994
 11
7.05
 21
6
  0
LINE
  8
0
 10
7.05
 20
6
 11
7.01061
 21
5.60007
  0
LINE
  8
0
 10
7.01061
 20
5.60007
 11
6.89395
 21
5.2155
  0
LINE
  8
0
 10
6.89395
 20
5.2155
 11
6.70451
 21
4.86108
  0
LINE
  8
0
 10
6.70451
 20
4.86108
 11
6.44957
 21
4.55043
  0
LINE
  8
0
 10
6.44957
 20
4.55043
 11
6.13892
 21
4.29549
  0
LINE
  8
0
 10
6.13892
 20
4.29549
 11
5.7845
 21
4.10605
  0
LINE
  8
0
 10
5.7845
 20
4.10605
 11
5.39994
 21
3.98939
  0
LINE
  8
0
 10
5.39994
 20
3.98939
 11
5
 21
3.95
  0
LINE
  8
0
 10
5
 20
3.95
 11
4.60007
 21
3.98939
  0
LINE
  8
0
 10
4.60007
 20
3.98939
 11
4.2155
 21
4.10605
  0
LINE
  8
0
 10
4.2155
 20
4.10605
 11
3.86108
 21
4.29549
  0
LINE
  8
0
 10
3.86108
 20
4.29549
 11
3.55043
 21
4.55043
  0
LINE
  8
0
 10
3.55043
 20
4.55043
 11
3.29549
 21
4.86108
  0
LINE
  8
0
 10
3.29549
 20
4.86108
 11
3.10605
 21
5.2155
  0
LINE
  8
0
 10
3.10605
 20
5.2155
 11
2.98939
 21
5.60007
  0
LINE
  8
0
 10
2.98939
 20
5.60007
 11
2.95
 21
6
  0
LINE
  8
0
 10
32.95
 20
6
 11
32.9894
 21
6.39994
  0
LINE
  8
0
 10
32.9894
 20
6.39994
 11
33.106
 21
6.7845
  0
LINE
  8
0
 10
33.106
 20
6.7845
 11
33.2955
 21
7.13892
  0
LINE
  8
0
 10
33.2955
 20
7.13892
 11
33.5504
 21
7.44957
  0
LINE
  8
0
 10
33.5504
 20
7.44957
 11
33.8611
 21
7.70451
  0
LINE
  8
0
 10
33.8611
 20
7.70451
 11
34.2155
 21
7.89395
  0
LINE
  8
0
 10
34.2155
 20
7.89395
 11
34.6001
 21
8.01061
  0
LINE
  8
0
 10
34.6001
 20
8.01061
 11
35
 21
8.05
  0
LINE
  8
0
 10
35
 20
8.05
 11
35.3999
 21
8.01061
  0
LINE
  8
0
 10
35.3999
 20
8.01061
 11
35.7845
 21
7.89395
  0
LINE
  8
0
 10
35.7845
 20
7.89395
 11
36.1389
 21
7.70451
  0
LINE
  8
0
 10
36.1389
 20
7.70451
 11
36.4496
 21
7.44957
  0
LINE
  8
0
 10
36.4496
 20
7.44957
 11
36.7045
 21
7.13892
  0
LINE
  8
0
 10
36.7045
 20
7.13892
 11
36.894
 21
6.7845
  0
LINE
  8
0
 10
36.894
 20
6.7845
 11
37.0106
 21
6.39994
  0
LINE
  8
0
 10
37.0106
 20
6.39994
 11
37.05
 21
6
  0
LINE
  8
0
 10
37.05
 20
6
 11
37.0106
 21
5.60007
  0
LINE
  8
0
 10
37.0106
 20
5.60007
 11
36.894
 21
5.2155
  0
LINE
  8
0
 10
36.894
 20
5.2155
 11
36.7045
 21
4.86108
  0
LINE
  8
0
 10
36.7045
 20
4.86108
 11
36.4496
 21
4.55043
  0
LINE
  8
0
 10
36.4496
 20
4.55043
 11
36.1389
 21
4.29549
  0
LINE
  8
0
 10
36.1389
 20
4.29549
 11
35.7845
 21
4.10605
  0
LINE
  8
0
 10
35.7845
 20
4.10605
 11
35.3999
 21
3.98939
  0
LINE
  8
0
 10
35.3999
 20
3.98939
 11
35
 21
3.95
  0
LINE
  8
0
 10
35
 20
3.95
 11
34.6001
 21
3.98939
  0
LINE
  8
0
 10
34.6001
 20
3.98939
 11
34.2155
 21
4.10605
  0
LINE
  8
0
 10
34.2155
 20
4.10605
 11
33.8611
 21
4.29549
  0
LINE
  8
0
 10
33.8611
 20
4.29549
 11
33.5504
 21
4.55043
  0
LINE
  8
0
 10
33.5504
 20
4.55043
 11
33.2955
 21
4.86108
  0
LINE
  8
0
 10
33.2955
 20
4.86108
 11
33.106
 21
5.2155
  0
LINE
  8
0
 10
33.106
 20
5.2155
 11
32.9894
 21
5.60007
  0
LINE
  8
0
 10
32.9894
 20
5.60007
 11
32.95
 21
6
  0
ENDSEC
  0
SECTION
  2
OBJECTS
  0
DICTIONARY
  0
ENDSEC
  0
EOF
