  0
SECTION
  2
BLOCKS
  0
ENDSEC
  0
SECTION
  2
ENTITIES
  0
LINE
  8
0
 10
0
 20
-28
 11
64
 21
-28
  0
LINE
  8
0
 10
64
 20
-28
 11
64
 21
0.174999
  0
LINE
  8
0
 10
64
 20
0.174999
 11
0
 21
0.174999
  0
LINE
  8
0
 10
0
 20
0.174999
 11
0
 21
-28
  0
LINE
  8
0
 10
14.5
 20
-18
 11
14.5468
 21
-17.525
  0
LINE
  8
0
 10
14.5468
 20
-17.525
 11
14.548
 21
-17.5123
  0
LINE
  8
0
 10
14.548
 20
-17.5123
 11
14.6903
 21
-17.0433
  0
LINE
  8
0
 10
14.6903
 20
-17.0433
 11
14.9213
 21
-16.6111
  0
LINE
  8
0
 10
14.9213
 20
-16.6111
 11
15.2322
 21
-16.2322
  0
LINE
  8
0
 10
15.2322
 20
-16.2322
 11
15.6111
 21
-15.9213
  0
LINE
  8
0
 10
15.6111
 20
-15.9213
 11
16.0433
 21
-15.6903
  0
LINE
  8
0
 10
16.0433
 20
-15.6903
 11
16.5123
 21
-15.548
  0
LINE
  8
0
 10
16.5123
 20
-15.548
 11
16.525
 21
-15.5468
  0
LINE
  8
0
 10
16.525
 20
-15.5468
 11
17
 21
-15.5
  0
LINE
  8
0
 10
17
 20
-15.5
 11
17.475
 21
-15.5468
  0
LINE
  8
0
 10
17.475
 20
-15.5468
 11
17.4877
 21
-15.548
  0
LINE
  8
0
 10
17.4877
 20
-15.548
 11
17.9567
 21
-15.6903
  0
LINE
  8
0
 10
17.9567
 20
-15.6903
 11
18.3889
 21
-15.9213
  0
LINE
  8
0
 10
18.3889
 20
-15.9213
 11
18.7678
 21
-16.2322
  0
LINE
  8
0
 10
18.7678
 20
-16.2322
 11
19.0787
 21
-16.6111
  0
LINE
  8
0
 10
19.0787
 20
-16.6111
 11
19.3097
 21
-17.0433
  0
LINE
  8
0
 10
19.3097
 20
-17.0433
 11
19.452
 21
-17.5123
  0
LINE
  8
0
 10
19.452
 20
-17.5123
 11
19.4532
 21
-17.525
  0
LINE
  8
0
 10
19.4532
 20
-17.525
 11
19.5
 21
-18
  0
LINE
  8
0
 10
19.5
 20
-18
 11
19.4988
 21
-18.0127
  0
LINE
  8
0
 10
19.4988
 20
-18.0127
 11
19.452
 21
-18.4877
  0
LINE
  8
0
 10
19.452
 20
-18.4877
 11
19.3097
 21
-18.9567
  0
LINE
  8
0
 10
19.3097
 20
-18.9567
 11
19.0787
 21
-19.3889
  0
LINE
  8
0
 10
19.0787
 20
-19.3889
 11
18.7678
 21
-19.7678
  0
LINE
  8
0
 10
18.7678
 20
-19.7678
 11
18.3889
 21
-20.0787
  0
LINE
  8
0
 10
18.3889
 20
-20.0787
 11
17.9567
 21
-20.3097
  0
LINE
  8
0
 10
17.9567
 20
-20.3097
 11
17.4877
 21
-20.452
  0
LINE
  8
0
 10
17.4877
 20
-20.452
 11
17.0127
 21
-20.4988
  0
LINE
  8
0
 10
17.0127
 20
-20.4988
 11
17
 21
-20.5
  0
LINE
  8
0
 10
17
 20
-20.5
 11
16.9873
 21
-20.4988
  0
LINE
  8
0
 10
16.9873
 20
-20.4988
 11
16.5123
 21
-20.452
  0
LINE
  8
0
 10
16.5123
 20
-20.452
 11
16.0433
 21
-20.3097
  0
LINE
  8
0
 10
16.0433
 20
-20.3097
 11
15.6111
 21
-20.0787
  0
LINE
  8
0
 10
15.6111
 20
-20.0787
 11
15.2322
 21
-19.7678
  0
LINE
  8
0
 10
15.2322
 20
-19.7678
 11
14.9213
 21
-19.3889
  0
LINE
  8
0
 10
14.9213
 20
-19.3889
 11
14.6903
 21
-18.9567
  0
LINE
  8
0
 10
14.6903
 20
-18.9567
 11
14.548
 21
-18.4877
  0
LINE
  8
0
 10
14.548
 20
-18.4877
 11
14.5012
 21
-18.0127
  0
LINE
  8
0
 10
14.5012
 20
-18.0127
 11
14.5
 21
-18
  0
LINE
  8
0
 10
44.5
 20
-18
 11
44.5468
 21
-17.525
  0
LINE
  8
0
 10
44.5468
 20
-17.525
 11
44.548
 21
-17.5123
  0
LINE
  8
0
 10
44.548
 20
-17.5123
 11
44.6903
 21
-17.0433
  0
LINE
  8
0
 10
44.6903
 20
-17.0433
 11
44.9213
 21
-16.6111
  0
LINE
  8
0
 10
44.9213
 20
-16.6111
 11
45.2322
 21
-16.2322
  0
LINE
  8
0
 10
45.2322
 20
-16.2322
 11
45.6111
 21
-15.9213
  0
LINE
  8
0
 10
45.6111
 20
-15.9213
 11
46.0433
 21
-15.6903
  0
LINE
  8
0
 10
46.0433
 20
-15.6903
 11
46.5123
 21
-15.548
  0
LINE
  8
0
 10
46.5123
 20
-15.548
 11
46.525
 21
-15.5468
  0
LINE
  8
0
 10
46.525
 20
-15.5468
 11
47
 21
-15.5
  0
LINE
  8
0
 10
47
 20
-15.5
 11
47.475
 21
-15.5468
  0
LINE
  8
0
 10
47.475
 20
-15.5468
 11
47.4877
 21
-15.548
  0
LINE
  8
0
 10
47.4877
 20
-15.548
 11
47.9567
 21
-15.6903
  0
LINE
  8
0
 10
47.9567
 20
-15.6903
 11
48.3889
 21
-15.9213
  0
LINE
  8
0
 10
48.3889
 20
-15.9213
 11
48.7678
 21
-16.2322
  0
LINE
  8
0
 10
48.7678
 20
-16.2322
 11
49.0787
 21
-16.6111
  0
LINE
  8
0
 10
49.0787
 20
-16.6111
 11
49.3097
 21
-17.0433
  0
LINE
  8
0
 10
49.3097
 20
-17.0433
 11
49.452
 21
-17.5123
  0
LINE
  8
0
 10
49.452
 20
-17.5123
 11
49.4532
 21
-17.525
  0
LINE
  8
0
 10
49.4532
 20
-17.525
 11
49.5
 21
-18
  0
LINE
  8
0
 10
49.5
 20
-18
 11
49.4988
 21
-18.0127
  0
LINE
  8
0
 10
49.4988
 20
-18.0127
 11
49.452
 21
-18.4877
  0
LINE
  8
0
 10
49.452
 20
-18.4877
 11
49.3097
 21
-18.9567
  0
LINE
  8
0
 10
49.3097
 20
-18.9567
 11
49.0787
 21
-19.3889
  0
LINE
  8
0
 10
49.0787
 20
-19.3889
 11
48.7678
 21
-19.7678
  0
LINE
  8
0
 10
48.7678
 20
-19.7678
 11
48.3889
 21
-20.0787
  0
LINE
  8
0
 10
48.3889
 20
-20.0787
 11
47.9567
 21
-20.3097
  0
LINE
  8
0
 10
47.9567
 20
-20.3097
 11
47.4877
 21
-20.452
  0
LINE
  8
0
 10
47.4877
 20
-20.452
 11
47.0127
 21
-20.4988
  0
LINE
  8
0
 10
47.0127
 20
-20.4988
 11
47
 21
-20.5
  0
LINE
  8
0
 10
47
 20
-20.5
 11
46.9873
 21
-20.4988
  0
LINE
  8
0
 10
46.9873
 20
-20.4988
 11
46.5123
 21
-20.452
  0
LINE
  8
0
 10
46.5123
 20
-20.452
 11
46.0433
 21
-20.3097
  0
LINE
  8
0
 10
46.0433
 20
-20.3097
 11
45.6111
 21
-20.0787
  0
LINE
  8
0
 10
45.6111
 20
-20.0787
 11
45.2322
 21
-19.7678
  0
LINE
  8
0
 10
45.2322
 20
-19.7678
 11
44.9213
 21
-19.3889
  0
LINE
  8
0
 10
44.9213
 20
-19.3889
 11
44.6903
 21
-18.9567
  0
LINE
  8
0
 10
44.6903
 20
-18.9567
 11
44.548
 21
-18.4877
  0
LINE
  8
0
 10
44.548
 20
-18.4877
 11
44.5012
 21
-18.0127
  0
LINE
  8
0
 10
44.5012
 20
-18.0127
 11
44.5
 21
-18
  0
ENDSEC
  0
SECTION
  2
OBJECTS
  0
DICTIONARY
  0
ENDSEC
  0
EOF
