  0
SECTION
  2
BLOCKS
  0
ENDSEC
  0
SECTION
  2
ENTITIES
  0
LINE
  8
0
 10
0
 20
0
 11
40
 21
0
  0
LINE
  8
0
 10
40
 20
0
 11
40
 21
5
  0
LINE
  8
0
 10
40
 20
5
 11
36
 21
9
  0
LINE
  8
0
 10
36
 20
9
 11
36
 21
11
  0
LINE
  8
0
 10
36
 20
11
 11
40
 21
15
  0
LINE
  8
0
 10
40
 20
15
 11
40
 21
30
  0
LINE
  8
0
 10
40
 20
30
 11
38
 21
34
  0
LINE
  8
0
 10
38
 20
34
 11
32
 21
34
  0
LINE
  8
0
 10
32
 20
34
 11
28
 21
20
  0
LINE
  8
0
 10
28
 20
20
 11
12
 21
20
  0
LINE
  8
0
 10
12
 20
20
 11
8
 21
34
  0
LINE
  8
0
 10
8
 20
34
 11
2
 21
34
  0
LINE
  8
0
 10
2
 20
34
 11
0
 21
30
  0
LINE
  8
0
 10
0
 20
30
 11
0
 21
15
  0
LINE
  8
0
 10
0
 20
15
 11
4
 21
11
  0
LINE
  8
0
 10
4
 20
11
 11
4
 21
9
  0
LINE
  8
0
 10
4
 20
9
 11
0
 21
5
  0
LINE
  8
0
 10
0
 20
5
 11
0
 21
0
  0
LINE
  8
0
 10
2.95
 20
30
 11
2.98939
 21
30.3999
  0
LINE
  8
0
 10
2.98939
 20
30.3999
 11
3.10605
 21
30.7845
  0
LINE
  8
0
 10
3.10605
 20
30.7845
 11
3.29549
 21
31.1389
  0
LINE
  8
0
 10
3.29549
 20
31.1389
 11
3.55043
 21
31.4496
  0
LINE
  8
0
 10
3.55043
 20
31.4496
 11
3.86108
 21
31.7045
  0
LINE
  8
0
 10
3.86108
 20
31.7045
 11
4.2155
 21
31.894
  0
LINE
  8
0
 10
4.2155
 20
31.894
 11
4.60007
 21
32.0106
  0
LINE
  8
0
 10
4.60007
 20
32.0106
 11
5
 21
32.05
  0
LINE
  8
0
 10
5
 20
32.05
 11
5.39994
 21
32.0106
  0
LINE
  8
0
 10
5.39994
 20
32.0106
 11
5.7845
 21
31.894
  0
LINE
  8
0
 10
5.7845
 20
31.894
 11
6.13892
 21
31.7045
  0
LINE
  8
0
 10
6.13892
 20
31.7045
 11
6.44957
 21
31.4496
  0
LINE
  8
0
 10
6.44957
 20
31.4496
 11
6.70451
 21
31.1389
  0
LINE
  8
0
 10
6.70451
 20
31.1389
 11
6.89395
 21
30.7845
  0
LINE
  8
0
 10
6.89395
 20
30.7845
 11
7.01061
 21
30.3999
  0
LINE
  8
0
 10
7.01061
 20
30.3999
 11
7.05
 21
30
  0
LINE
  8
0
 10
7.05
 20
30
 11
7.01061
 21
29.6001
  0
LINE
  8
0
 10
7.01061
 20
29.6001
 11
6.89395
 21
29.2155
  0
LINE
  8
0
 10
6.89395
 20
29.2155
 11
6.70451
 21
28.8611
  0
LINE
  8
0
 10
6.70451
 20
28.8611
 11
6.44957
 21
28.5504
  0
LINE
  8
0
 10
6.44957
 20
28.5504
 11
6.13892
 21
28.2955
  0
LINE
  8
0
 10
6.13892
 20
28.2955
 11
5.7845
 21
28.106
  0
LINE
  8
0
 10
5.7845
 20
28.106
 11
5.39994
 21
27.9894
  0
LINE
  8
0
 10
5.39994
 20
27.9894
 11
5
 21
27.95
  0
LINE
  8
0
 10
5
 20
27.95
 11
4.60007
 21
27.9894
  0
LINE
  8
0
 10
4.60007
 20
27.9894
 11
4.2155
 21
28.106
  0
LINE
  8
0
 10
4.2155
 20
28.106
 11
3.86108
 21
28.2955
  0
LINE
  8
0
 10
3.86108
 20
28.2955
 11
3.55043
 21
28.5504
  0
LINE
  8
0
 10
3.55043
 20
28.5504
 11
3.29549
 21
28.8611
  0
LINE
  8
0
 10
3.29549
 20
28.8611
 11
3.10605
 21
29.2155
  0
LINE
  8
0
 10
3.10605
 20
29.2155
 11
2.98939
 21
29.6001
  0
LINE
  8
0
 10
2.98939
 20
29.6001
 11
2.95
 21
30
  0
LINE
  8
0
 10
7.5
 20
10
 11
7.54804
 21
10.4877
  0
LINE
  8
0
 10
7.54804
 20
10.4877
 11
7.6903
 21
10.9567
  0
LINE
  8
0
 10
7.6903
 20
10.9567
 11
7.92133
 21
11.3889
  0
LINE
  8
0
 10
7.92133
 20
11.3889
 11
8.23223
 21
11.7678
  0
LINE
  8
0
 10
8.23223
 20
11.7678
 11
8.61107
 21
12.0787
  0
LINE
  8
0
 10
8.61107
 20
12.0787
 11
9.04329
 21
12.3097
  0
LINE
  8
0
 10
9.04329
 20
12.3097
 11
9.51227
 21
12.452
  0
LINE
  8
0
 10
9.51227
 20
12.452
 11
10
 21
12.5
  0
LINE
  8
0
 10
10
 20
12.5
 11
10.4877
 21
12.452
  0
LINE
  8
0
 10
10.4877
 20
12.452
 11
10.9567
 21
12.3097
  0
LINE
  8
0
 10
10.9567
 20
12.3097
 11
11.3889
 21
12.0787
  0
LINE
  8
0
 10
11.3889
 20
12.0787
 11
11.7678
 21
11.7678
  0
LINE
  8
0
 10
11.7678
 20
11.7678
 11
12.0787
 21
11.3889
  0
LINE
  8
0
 10
12.0787
 20
11.3889
 11
12.3097
 21
10.9567
  0
LINE
  8
0
 10
12.3097
 20
10.9567
 11
12.452
 21
10.4877
  0
LINE
  8
0
 10
12.452
 20
10.4877
 11
12.5
 21
10
  0
LINE
  8
0
 10
12.5
 20
10
 11
12.452
 21
9.51227
  0
LINE
  8
0
 10
12.452
 20
9.51227
 11
12.3097
 21
9.04329
  0
LINE
  8
0
 10
12.3097
 20
9.04329
 11
12.0787
 21
8.61107
  0
LINE
  8
0
 10
12.0787
 20
8.61107
 11
11.7678
 21
8.23223
  0
LINE
  8
0
 10
11.7678
 20
8.23223
 11
11.3889
 21
7.92133
  0
LINE
  8
0
 10
11.3889
 20
7.92133
 11
10.9567
 21
7.6903
  0
LINE
  8
0
 10
10.9567
 20
7.6903
 11
10.4877
 21
7.54804
  0
LINE
  8
0
 10
10.4877
 20
7.54804
 11
10
 21
7.5
  0
LINE
  8
0
 10
10
 20
7.5
 11
9.51227
 21
7.54804
  0
LINE
  8
0
 10
9.51227
 20
7.54804
 11
9.04329
 21
7.6903
  0
LINE
  8
0
 10
9.04329
 20
7.6903
 11
8.61107
 21
7.92133
  0
LINE
  8
0
 10
8.61107
 20
7.92133
 11
8.23223
 21
8.23223
  0
LINE
  8
0
 10
8.23223
 20
8.23223
 11
7.92133
 21
8.61107
  0
LINE
  8
0
 10
7.92133
 20
8.61107
 11
7.6903
 21
9.04329
  0
LINE
  8
0
 10
7.6903
 20
9.04329
 11
7.54804
 21
9.51227
  0
LINE
  8
0
 10
7.54804
 20
9.51227
 11
7.5
 21
10
  0
LINE
  8
0
 10
27.5
 20
10
 11
27.548
 21
10.4877
  0
LINE
  8
0
 10
27.548
 20
10.4877
 11
27.6903
 21
10.9567
  0
LINE
  8
0
 10
27.6903
 20
10.9567
 11
27.9213
 21
11.3889
  0
LINE
  8
0
 10
27.9213
 20
11.3889
 11
28.2322
 21
11.7678
  0
LINE
  8
0
 10
28.2322
 20
11.7678
 11
28.6111
 21
12.0787
  0
LINE
  8
0
 10
28.6111
 20
12.0787
 11
29.0433
 21
12.3097
  0
LINE
  8
0
 10
29.0433
 20
12.3097
 11
29.5123
 21
12.452
  0
LINE
  8
0
 10
29.5123
 20
12.452
 11
30
 21
12.5
  0
LINE
  8
0
 10
30
 20
12.5
 11
30.4877
 21
12.452
  0
LINE
  8
0
 10
30.4877
 20
12.452
 11
30.9567
 21
12.3097
  0
LINE
  8
0
 10
30.9567
 20
12.3097
 11
31.3889
 21
12.0787
  0
LINE
  8
0
 10
31.3889
 20
12.0787
 11
31.7678
 21
11.7678
  0
LINE
  8
0
 10
31.7678
 20
11.7678
 11
32.0787
 21
11.3889
  0
LINE
  8
0
 10
32.0787
 20
11.3889
 11
32.3097
 21
10.9567
  0
LINE
  8
0
 10
32.3097
 20
10.9567
 11
32.452
 21
10.4877
  0
LINE
  8
0
 10
32.452
 20
10.4877
 11
32.5
 21
10
  0
LINE
  8
0
 10
32.5
 20
10
 11
32.452
 21
9.51227
  0
LINE
  8
0
 10
32.452
 20
9.51227
 11
32.3097
 21
9.04329
  0
LINE
  8
0
 10
32.3097
 20
9.04329
 11
32.0787
 21
8.61107
  0
LINE
  8
0
 10
32.0787
 20
8.61107
 11
31.7678
 21
8.23223
  0
LINE
  8
0
 10
31.7678
 20
8.23223
 11
31.3889
 21
7.92133
  0
LINE
  8
0
 10
31.3889
 20
7.92133
 11
30.9567
 21
7.6903
  0
LINE
  8
0
 10
30.9567
 20
7.6903
 11
30.4877
 21
7.54804
  0
LINE
  8
0
 10
30.4877
 20
7.54804
 11
30
 21
7.5
  0
LINE
  8
0
 10
30
 20
7.5
 11
29.5123
 21
7.54804
  0
LINE
  8
0
 10
29.5123
 20
7.54804
 11
29.0433
 21
7.6903
  0
LINE
  8
0
 10
29.0433
 20
7.6903
 11
28.6111
 21
7.92133
  0
LINE
  8
0
 10
28.6111
 20
7.92133
 11
28.2322
 21
8.23223
  0
LINE
  8
0
 10
28.2322
 20
8.23223
 11
27.9213
 21
8.61107
  0
LINE
  8
0
 10
27.9213
 20
8.61107
 11
27.6903
 21
9.04329
  0
LINE
  8
0
 10
27.6903
 20
9.04329
 11
27.548
 21
9.51227
  0
LINE
  8
0
 10
27.548
 20
9.51227
 11
27.5
 21
10
  0
LINE
  8
0
 10
32.95
 20
30
 11
32.9894
 21
30.3999
  0
LINE
  8
0
 10
32.9894
 20
30.3999
 11
33.106
 21
30.7845
  0
LINE
  8
0
 10
33.106
 20
30.7845
 11
33.2955
 21
31.1389
  0
LINE
  8
0
 10
33.2955
 20
31.1389
 11
33.5504
 21
31.4496
  0
LINE
  8
0
 10
33.5504
 20
31.4496
 11
33.8611
 21
31.7045
  0
LINE
  8
0
 10
33.8611
 20
31.7045
 11
34.2155
 21
31.894
  0
LINE
  8
0
 10
34.2155
 20
31.894
 11
34.6001
 21
32.0106
  0
LINE
  8
0
 10
34.6001
 20
32.0106
 11
35
 21
32.05
  0
LINE
  8
0
 10
35
 20
32.05
 11
35.3999
 21
32.0106
  0
LINE
  8
0
 10
35.3999
 20
32.0106
 11
35.7845
 21
31.894
  0
LINE
  8
0
 10
35.7845
 20
31.894
 11
36.1389
 21
31.7045
  0
LINE
  8
0
 10
36.1389
 20
31.7045
 11
36.4496
 21
31.4496
  0
LINE
  8
0
 10
36.4496
 20
31.4496
 11
36.7045
 21
31.1389
  0
LINE
  8
0
 10
36.7045
 20
31.1389
 11
36.894
 21
30.7845
  0
LINE
  8
0
 10
36.894
 20
30.7845
 11
37.0106
 21
30.3999
  0
LINE
  8
0
 10
37.0106
 20
30.3999
 11
37.05
 21
30
  0
LINE
  8
0
 10
37.05
 20
30
 11
37.0106
 21
29.6001
  0
LINE
  8
0
 10
37.0106
 20
29.6001
 11
36.894
 21
29.2155
  0
LINE
  8
0
 10
36.894
 20
29.2155
 11
36.7045
 21
28.8611
  0
LINE
  8
0
 10
36.7045
 20
28.8611
 11
36.4496
 21
28.5504
  0
LINE
  8
0
 10
36.4496
 20
28.5504
 11
36.1389
 21
28.2955
  0
LINE
  8
0
 10
36.1389
 20
28.2955
 11
35.7845
 21
28.106
  0
LINE
  8
0
 10
35.7845
 20
28.106
 11
35.3999
 21
27.9894
  0
LINE
  8
0
 10
35.3999
 20
27.9894
 11
35
 21
27.95
  0
LINE
  8
0
 10
35
 20
27.95
 11
34.6001
 21
27.9894
  0
LINE
  8
0
 10
34.6001
 20
27.9894
 11
34.2155
 21
28.106
  0
LINE
  8
0
 10
34.2155
 20
28.106
 11
33.8611
 21
28.2955
  0
LINE
  8
0
 10
33.8611
 20
28.2955
 11
33.5504
 21
28.5504
  0
LINE
  8
0
 10
33.5504
 20
28.5504
 11
33.2955
 21
28.8611
  0
LINE
  8
0
 10
33.2955
 20
28.8611
 11
33.106
 21
29.2155
  0
LINE
  8
0
 10
33.106
 20
29.2155
 11
32.9894
 21
29.6001
  0
LINE
  8
0
 10
32.9894
 20
29.6001
 11
32.95
 21
30
  0
ENDSEC
  0
SECTION
  2
OBJECTS
  0
DICTIONARY
  0
ENDSEC
  0
EOF
