  0
SECTION
  2
BLOCKS
  0
ENDSEC
  0
SECTION
  2
ENTITIES
  0
LINE
  8
0
 10
0
 20
6.35
 11
0.122013
 21
5.11118
  0
LINE
  8
0
 10
0.122013
 20
5.11118
 11
0.483364
 21
3.91996
  0
LINE
  8
0
 10
0.483364
 20
3.91996
 11
1.07017
 21
2.82213
  0
LINE
  8
0
 10
1.07017
 20
2.82213
 11
1.85987
 21
1.85987
  0
LINE
  8
0
 10
1.85987
 20
1.85987
 11
2.82213
 21
1.07017
  0
LINE
  8
0
 10
2.82213
 20
1.07017
 11
3.91996
 21
0.483364
  0
LINE
  8
0
 10
3.91996
 20
0.483364
 11
5.11118
 21
0.122013
  0
LINE
  8
0
 10
5.11118
 20
0.122013
 11
6.35
 21
0
  0
LINE
  8
0
 10
6.35
 20
0
 11
338.65
 21
0
  0
LINE
  8
0
 10
338.65
 20
0
 11
339.889
 21
0.122013
  0
LINE
  8
0
 10
339.889
 20
0.122013
 11
341.08
 21
0.483364
  0
LINE
  8
0
 10
341.08
 20
0.483364
 11
342.178
 21
1.07017
  0
LINE
  8
0
 10
342.178
 20
1.07017
 11
343.14
 21
1.85987
  0
LINE
  8
0
 10
343.14
 20
1.85987
 11
343.93
 21
2.82213
  0
LINE
  8
0
 10
343.93
 20
2.82213
 11
344.517
 21
3.91996
  0
LINE
  8
0
 10
344.517
 20
3.91996
 11
344.878
 21
5.11118
  0
LINE
  8
0
 10
344.878
 20
5.11118
 11
345
 21
6.35
  0
LINE
  8
0
 10
345
 20
6.35
 11
345
 21
177.65
  0
LINE
  8
0
 10
345
 20
177.65
 11
344.878
 21
178.889
  0
LINE
  8
0
 10
344.878
 20
178.889
 11
344.517
 21
180.08
  0
LINE
  8
0
 10
344.517
 20
180.08
 11
343.93
 21
181.178
  0
LINE
  8
0
 10
343.93
 20
181.178
 11
343.14
 21
182.14
  0
LINE
  8
0
 10
343.14
 20
182.14
 11
342.178
 21
182.93
  0
LINE
  8
0
 10
342.178
 20
182.93
 11
341.08
 21
183.517
  0
LINE
  8
0
 10
341.08
 20
183.517
 11
339.889
 21
183.878
  0
LINE
  8
0
 10
339.889
 20
183.878
 11
338.65
 21
184
  0
LINE
  8
0
 10
338.65
 20
184
 11
6.35
 21
184
  0
LINE
  8
0
 10
6.35
 20
184
 11
5.11118
 21
183.878
  0
LINE
  8
0
 10
5.11118
 20
183.878
 11
3.91996
 21
183.517
  0
LINE
  8
0
 10
3.91996
 20
183.517
 11
2.82213
 21
182.93
  0
LINE
  8
0
 10
2.82213
 20
182.93
 11
1.85987
 21
182.14
  0
LINE
  8
0
 10
1.85987
 20
182.14
 11
1.07017
 21
181.178
  0
LINE
  8
0
 10
1.07017
 20
181.178
 11
0.483364
 21
180.08
  0
LINE
  8
0
 10
0.483364
 20
180.08
 11
0.122013
 21
178.889
  0
LINE
  8
0
 10
0.122013
 20
178.889
 11
0
 21
177.65
  0
LINE
  8
0
 10
0
 20
177.65
 11
0
 21
6.35
  0
LINE
  8
0
 10
12
 20
18.35
 11
12
 21
165.65
  0
LINE
  8
0
 10
12
 20
165.65
 11
12.122
 21
166.889
  0
LINE
  8
0
 10
12.122
 20
166.889
 11
12.4834
 21
168.08
  0
LINE
  8
0
 10
12.4834
 20
168.08
 11
13.0702
 21
169.178
  0
LINE
  8
0
 10
13.0702
 20
169.178
 11
13.8599
 21
170.14
  0
LINE
  8
0
 10
13.8599
 20
170.14
 11
14.8221
 21
170.93
  0
LINE
  8
0
 10
14.8221
 20
170.93
 11
15.92
 21
171.517
  0
LINE
  8
0
 10
15.92
 20
171.517
 11
17.1112
 21
171.878
  0
LINE
  8
0
 10
17.1112
 20
171.878
 11
18.35
 21
172
  0
LINE
  8
0
 10
18.35
 20
172
 11
108.65
 21
172
  0
LINE
  8
0
 10
108.65
 20
172
 11
109.889
 21
171.878
  0
LINE
  8
0
 10
109.889
 20
171.878
 11
111.08
 21
171.517
  0
LINE
  8
0
 10
111.08
 20
171.517
 11
112.178
 21
170.93
  0
LINE
  8
0
 10
112.178
 20
170.93
 11
113.14
 21
170.14
  0
LINE
  8
0
 10
113.14
 20
170.14
 11
113.93
 21
169.178
  0
LINE
  8
0
 10
113.93
 20
169.178
 11
114.517
 21
168.08
  0
LINE
  8
0
 10
114.517
 20
168.08
 11
114.878
 21
166.889
  0
LINE
  8
0
 10
114.878
 20
166.889
 11
115
 21
165.65
  0
LINE
  8
0
 10
115
 20
165.65
 11
115
 21
18.35
  0
LINE
  8
0
 10
115
 20
18.35
 11
114.878
 21
17.1112
  0
LINE
  8
0
 10
114.878
 20
17.1112
 11
114.517
 21
15.92
  0
LINE
  8
0
 10
114.517
 20
15.92
 11
113.93
 21
14.8221
  0
LINE
  8
0
 10
113.93
 20
14.8221
 11
113.14
 21
13.8599
  0
LINE
  8
0
 10
113.14
 20
13.8599
 11
112.178
 21
13.0702
  0
LINE
  8
0
 10
112.178
 20
13.0702
 11
111.08
 21
12.4834
  0
LINE
  8
0
 10
111.08
 20
12.4834
 11
109.889
 21
12.122
  0
LINE
  8
0
 10
109.889
 20
12.122
 11
108.65
 21
12
  0
LINE
  8
0
 10
108.65
 20
12
 11
18.35
 21
12
  0
LINE
  8
0
 10
18.35
 20
12
 11
17.1112
 21
12.122
  0
LINE
  8
0
 10
17.1112
 20
12.122
 11
15.92
 21
12.4834
  0
LINE
  8
0
 10
15.92
 20
12.4834
 11
14.8221
 21
13.0702
  0
LINE
  8
0
 10
14.8221
 20
13.0702
 11
13.8599
 21
13.8599
  0
LINE
  8
0
 10
13.8599
 20
13.8599
 11
13.0702
 21
14.8221
  0
LINE
  8
0
 10
13.0702
 20
14.8221
 11
12.4834
 21
15.92
  0
LINE
  8
0
 10
12.4834
 20
15.92
 11
12.122
 21
17.1112
  0
LINE
  8
0
 10
12.122
 20
17.1112
 11
12
 21
18.35
  0
LINE
  8
0
 10
61
 20
6
 11
61.048
 21
6.48773
  0
LINE
  8
0
 10
61.048
 20
6.48773
 11
61.1903
 21
6.95671
  0
LINE
  8
0
 10
61.1903
 20
6.95671
 11
61.4213
 21
7.38893
  0
LINE
  8
0
 10
61.4213
 20
7.38893
 11
61.7322
 21
7.76777
  0
LINE
  8
0
 10
61.7322
 20
7.76777
 11
62.1111
 21
8.07867
  0
LINE
  8
0
 10
62.1111
 20
8.07867
 11
62.5433
 21
8.3097
  0
LINE
  8
0
 10
62.5433
 20
8.3097
 11
63.0123
 21
8.45196
  0
LINE
  8
0
 10
63.0123
 20
8.45196
 11
63.5
 21
8.5
  0
LINE
  8
0
 10
63.5
 20
8.5
 11
63.9877
 21
8.45196
  0
LINE
  8
0
 10
63.9877
 20
8.45196
 11
64.4567
 21
8.3097
  0
LINE
  8
0
 10
64.4567
 20
8.3097
 11
64.8889
 21
8.07867
  0
LINE
  8
0
 10
64.8889
 20
8.07867
 11
65.2678
 21
7.76777
  0
LINE
  8
0
 10
65.2678
 20
7.76777
 11
65.5787
 21
7.38893
  0
LINE
  8
0
 10
65.5787
 20
7.38893
 11
65.8097
 21
6.95671
  0
LINE
  8
0
 10
65.8097
 20
6.95671
 11
65.952
 21
6.48773
  0
LINE
  8
0
 10
65.952
 20
6.48773
 11
66
 21
6
  0
LINE
  8
0
 10
66
 20
6
 11
65.952
 21
5.51227
  0
LINE
  8
0
 10
65.952
 20
5.51227
 11
65.8097
 21
5.04329
  0
LINE
  8
0
 10
65.8097
 20
5.04329
 11
65.5787
 21
4.61107
  0
LINE
  8
0
 10
65.5787
 20
4.61107
 11
65.2678
 21
4.23223
  0
LINE
  8
0
 10
65.2678
 20
4.23223
 11
64.8889
 21
3.92133
  0
LINE
  8
0
 10
64.8889
 20
3.92133
 11
64.4567
 21
3.6903
  0
LINE
  8
0
 10
64.4567
 20
3.6903
 11
63.9877
 21
3.54804
  0
LINE
  8
0
 10
63.9877
 20
3.54804
 11
63.5
 21
3.5
  0
LINE
  8
0
 10
63.5
 20
3.5
 11
63.0123
 21
3.54804
  0
LINE
  8
0
 10
63.0123
 20
3.54804
 11
62.5433
 21
3.6903
  0
LINE
  8
0
 10
62.5433
 20
3.6903
 11
62.1111
 21
3.92133
  0
LINE
  8
0
 10
62.1111
 20
3.92133
 11
61.7322
 21
4.23223
  0
LINE
  8
0
 10
61.7322
 20
4.23223
 11
61.4213
 21
4.61107
  0
LINE
  8
0
 10
61.4213
 20
4.61107
 11
61.1903
 21
5.04329
  0
LINE
  8
0
 10
61.1903
 20
5.04329
 11
61.048
 21
5.51227
  0
LINE
  8
0
 10
61.048
 20
5.51227
 11
61
 21
6
  0
LINE
  8
0
 10
61
 20
178
 11
61.048
 21
178.488
  0
LINE
  8
0
 10
61.048
 20
178.488
 11
61.1903
 21
178.957
  0
LINE
  8
0
 10
61.1903
 20
178.957
 11
61.4213
 21
179.389
  0
LINE
  8
0
 10
61.4213
 20
179.389
 11
61.7322
 21
179.768
  0
LINE
  8
0
 10
61.7322
 20
179.768
 11
62.1111
 21
180.079
  0
LINE
  8
0
 10
62.1111
 20
180.079
 11
62.5433
 21
180.31
  0
LINE
  8
0
 10
62.5433
 20
180.31
 11
63.0123
 21
180.452
  0
LINE
  8
0
 10
63.0123
 20
180.452
 11
63.5
 21
180.5
  0
LINE
  8
0
 10
63.5
 20
180.5
 11
63.9877
 21
180.452
  0
LINE
  8
0
 10
63.9877
 20
180.452
 11
64.4567
 21
180.31
  0
LINE
  8
0
 10
64.4567
 20
180.31
 11
64.8889
 21
180.079
  0
LINE
  8
0
 10
64.8889
 20
180.079
 11
65.2678
 21
179.768
  0
LINE
  8
0
 10
65.2678
 20
179.768
 11
65.5787
 21
179.389
  0
LINE
  8
0
 10
65.5787
 20
179.389
 11
65.8097
 21
178.957
  0
LINE
  8
0
 10
65.8097
 20
178.957
 11
65.952
 21
178.488
  0
LINE
  8
0
 10
65.952
 20
178.488
 11
66
 21
178
  0
LINE
  8
0
 10
66
 20
178
 11
65.952
 21
177.512
  0
LINE
  8
0
 10
65.952
 20
177.512
 11
65.8097
 21
177.043
  0
LINE
  8
0
 10
65.8097
 20
177.043
 11
65.5787
 21
176.611
  0
LINE
  8
0
 10
65.5787
 20
176.611
 11
65.2678
 21
176.232
  0
LINE
  8
0
 10
65.2678
 20
176.232
 11
64.8889
 21
175.921
  0
LINE
  8
0
 10
64.8889
 20
175.921
 11
64.4567
 21
175.69
  0
LINE
  8
0
 10
64.4567
 20
175.69
 11
63.9877
 21
175.548
  0
LINE
  8
0
 10
63.9877
 20
175.548
 11
63.5
 21
175.5
  0
LINE
  8
0
 10
63.5
 20
175.5
 11
63.0123
 21
175.548
  0
LINE
  8
0
 10
63.0123
 20
175.548
 11
62.5433
 21
175.69
  0
LINE
  8
0
 10
62.5433
 20
175.69
 11
62.1111
 21
175.921
  0
LINE
  8
0
 10
62.1111
 20
175.921
 11
61.7322
 21
176.232
  0
LINE
  8
0
 10
61.7322
 20
176.232
 11
61.4213
 21
176.611
  0
LINE
  8
0
 10
61.4213
 20
176.611
 11
61.1903
 21
177.043
  0
LINE
  8
0
 10
61.1903
 20
177.043
 11
61.048
 21
177.512
  0
LINE
  8
0
 10
61.048
 20
177.512
 11
61
 21
178
  0
LINE
  8
0
 10
121
 20
18.35
 11
121
 21
165.65
  0
LINE
  8
0
 10
121
 20
165.65
 11
121.122
 21
166.889
  0
LINE
  8
0
 10
121.122
 20
166.889
 11
121.483
 21
168.08
  0
LINE
  8
0
 10
121.483
 20
168.08
 11
122.07
 21
169.178
  0
LINE
  8
0
 10
122.07
 20
169.178
 11
122.86
 21
170.14
  0
LINE
  8
0
 10
122.86
 20
170.14
 11
123.822
 21
170.93
  0
LINE
  8
0
 10
123.822
 20
170.93
 11
124.92
 21
171.517
  0
LINE
  8
0
 10
124.92
 20
171.517
 11
126.111
 21
171.878
  0
LINE
  8
0
 10
126.111
 20
171.878
 11
127.35
 21
172
  0
LINE
  8
0
 10
127.35
 20
172
 11
217.65
 21
172
  0
LINE
  8
0
 10
217.65
 20
172
 11
218.889
 21
171.878
  0
LINE
  8
0
 10
218.889
 20
171.878
 11
220.08
 21
171.517
  0
LINE
  8
0
 10
220.08
 20
171.517
 11
221.178
 21
170.93
  0
LINE
  8
0
 10
221.178
 20
170.93
 11
222.14
 21
170.14
  0
LINE
  8
0
 10
222.14
 20
170.14
 11
222.93
 21
169.178
  0
LINE
  8
0
 10
222.93
 20
169.178
 11
223.517
 21
168.08
  0
LINE
  8
0
 10
223.517
 20
168.08
 11
223.878
 21
166.889
  0
LINE
  8
0
 10
223.878
 20
166.889
 11
224
 21
165.65
  0
LINE
  8
0
 10
224
 20
165.65
 11
224
 21
18.35
  0
LINE
  8
0
 10
224
 20
18.35
 11
223.878
 21
17.1112
  0
LINE
  8
0
 10
223.878
 20
17.1112
 11
223.517
 21
15.92
  0
LINE
  8
0
 10
223.517
 20
15.92
 11
222.93
 21
14.8221
  0
LINE
  8
0
 10
222.93
 20
14.8221
 11
222.14
 21
13.8599
  0
LINE
  8
0
 10
222.14
 20
13.8599
 11
221.178
 21
13.0702
  0
LINE
  8
0
 10
221.178
 20
13.0702
 11
220.08
 21
12.4834
  0
LINE
  8
0
 10
220.08
 20
12.4834
 11
218.889
 21
12.122
  0
LINE
  8
0
 10
218.889
 20
12.122
 11
217.65
 21
12
  0
LINE
  8
0
 10
217.65
 20
12
 11
127.35
 21
12
  0
LINE
  8
0
 10
127.35
 20
12
 11
126.111
 21
12.122
  0
LINE
  8
0
 10
126.111
 20
12.122
 11
124.92
 21
12.4834
  0
LINE
  8
0
 10
124.92
 20
12.4834
 11
123.822
 21
13.0702
  0
LINE
  8
0
 10
123.822
 20
13.0702
 11
122.86
 21
13.8599
  0
LINE
  8
0
 10
122.86
 20
13.8599
 11
122.07
 21
14.8221
  0
LINE
  8
0
 10
122.07
 20
14.8221
 11
121.483
 21
15.92
  0
LINE
  8
0
 10
121.483
 20
15.92
 11
121.122
 21
17.1112
  0
LINE
  8
0
 10
121.122
 20
17.1112
 11
121
 21
18.35
  0
LINE
  8
0
 10
230
 20
18.35
 11
230
 21
165.65
  0
LINE
  8
0
 10
230
 20
165.65
 11
230.122
 21
166.889
  0
LINE
  8
0
 10
230.122
 20
166.889
 11
230.483
 21
168.08
  0
LINE
  8
0
 10
230.483
 20
168.08
 11
231.07
 21
169.178
  0
LINE
  8
0
 10
231.07
 20
169.178
 11
231.86
 21
170.14
  0
LINE
  8
0
 10
231.86
 20
170.14
 11
232.822
 21
170.93
  0
LINE
  8
0
 10
232.822
 20
170.93
 11
233.92
 21
171.517
  0
LINE
  8
0
 10
233.92
 20
171.517
 11
235.111
 21
171.878
  0
LINE
  8
0
 10
235.111
 20
171.878
 11
236.35
 21
172
  0
LINE
  8
0
 10
236.35
 20
172
 11
326.65
 21
172
  0
LINE
  8
0
 10
326.65
 20
172
 11
327.889
 21
171.878
  0
LINE
  8
0
 10
327.889
 20
171.878
 11
329.08
 21
171.517
  0
LINE
  8
0
 10
329.08
 20
171.517
 11
330.178
 21
170.93
  0
LINE
  8
0
 10
330.178
 20
170.93
 11
331.14
 21
170.14
  0
LINE
  8
0
 10
331.14
 20
170.14
 11
331.93
 21
169.178
  0
LINE
  8
0
 10
331.93
 20
169.178
 11
332.517
 21
168.08
  0
LINE
  8
0
 10
332.517
 20
168.08
 11
332.878
 21
166.889
  0
LINE
  8
0
 10
332.878
 20
166.889
 11
333
 21
165.65
  0
LINE
  8
0
 10
333
 20
165.65
 11
333
 21
18.35
  0
LINE
  8
0
 10
333
 20
18.35
 11
332.878
 21
17.1112
  0
LINE
  8
0
 10
332.878
 20
17.1112
 11
332.517
 21
15.92
  0
LINE
  8
0
 10
332.517
 20
15.92
 11
331.93
 21
14.8221
  0
LINE
  8
0
 10
331.93
 20
14.8221
 11
331.14
 21
13.8599
  0
LINE
  8
0
 10
331.14
 20
13.8599
 11
330.178
 21
13.0702
  0
LINE
  8
0
 10
330.178
 20
13.0702
 11
329.08
 21
12.4834
  0
LINE
  8
0
 10
329.08
 20
12.4834
 11
327.889
 21
12.122
  0
LINE
  8
0
 10
327.889
 20
12.122
 11
326.65
 21
12
  0
LINE
  8
0
 10
326.65
 20
12
 11
236.35
 21
12
  0
LINE
  8
0
 10
236.35
 20
12
 11
235.111
 21
12.122
  0
LINE
  8
0
 10
235.111
 20
12.122
 11
233.92
 21
12.4834
  0
LINE
  8
0
 10
233.92
 20
12.4834
 11
232.822
 21
13.0702
  0
LINE
  8
0
 10
232.822
 20
13.0702
 11
231.86
 21
13.8599
  0
LINE
  8
0
 10
231.86
 20
13.8599
 11
231.07
 21
14.8221
  0
LINE
  8
0
 10
231.07
 20
14.8221
 11
230.483
 21
15.92
  0
LINE
  8
0
 10
230.483
 20
15.92
 11
230.122
 21
17.1112
  0
LINE
  8
0
 10
230.122
 20
17.1112
 11
230
 21
18.35
  0
LINE
  8
0
 10
279
 20
6
 11
279.048
 21
6.48773
  0
LINE
  8
0
 10
279.048
 20
6.48773
 11
279.19
 21
6.95671
  0
LINE
  8
0
 10
279.19
 20
6.95671
 11
279.421
 21
7.38893
  0
LINE
  8
0
 10
279.421
 20
7.38893
 11
279.732
 21
7.76777
  0
LINE
  8
0
 10
279.732
 20
7.76777
 11
280.111
 21
8.07867
  0
LINE
  8
0
 10
280.111
 20
8.07867
 11
280.543
 21
8.3097
  0
LINE
  8
0
 10
280.543
 20
8.3097
 11
281.012
 21
8.45196
  0
LINE
  8
0
 10
281.012
 20
8.45196
 11
281.5
 21
8.5
  0
LINE
  8
0
 10
281.5
 20
8.5
 11
281.988
 21
8.45196
  0
LINE
  8
0
 10
281.988
 20
8.45196
 11
282.457
 21
8.3097
  0
LINE
  8
0
 10
282.457
 20
8.3097
 11
282.889
 21
8.07867
  0
LINE
  8
0
 10
282.889
 20
8.07867
 11
283.268
 21
7.76777
  0
LINE
  8
0
 10
283.268
 20
7.76777
 11
283.579
 21
7.38893
  0
LINE
  8
0
 10
283.579
 20
7.38893
 11
283.81
 21
6.95671
  0
LINE
  8
0
 10
283.81
 20
6.95671
 11
283.952
 21
6.48773
  0
LINE
  8
0
 10
283.952
 20
6.48773
 11
284
 21
6
  0
LINE
  8
0
 10
284
 20
6
 11
283.952
 21
5.51227
  0
LINE
  8
0
 10
283.952
 20
5.51227
 11
283.81
 21
5.04329
  0
LINE
  8
0
 10
283.81
 20
5.04329
 11
283.579
 21
4.61107
  0
LINE
  8
0
 10
283.579
 20
4.61107
 11
283.268
 21
4.23223
  0
LINE
  8
0
 10
283.268
 20
4.23223
 11
282.889
 21
3.92133
  0
LINE
  8
0
 10
282.889
 20
3.92133
 11
282.457
 21
3.6903
  0
LINE
  8
0
 10
282.457
 20
3.6903
 11
281.988
 21
3.54804
  0
LINE
  8
0
 10
281.988
 20
3.54804
 11
281.5
 21
3.5
  0
LINE
  8
0
 10
281.5
 20
3.5
 11
281.012
 21
3.54804
  0
LINE
  8
0
 10
281.012
 20
3.54804
 11
280.543
 21
3.6903
  0
LINE
  8
0
 10
280.543
 20
3.6903
 11
280.111
 21
3.92133
  0
LINE
  8
0
 10
280.111
 20
3.92133
 11
279.732
 21
4.23223
  0
LINE
  8
0
 10
279.732
 20
4.23223
 11
279.421
 21
4.61107
  0
LINE
  8
0
 10
279.421
 20
4.61107
 11
279.19
 21
5.04329
  0
LINE
  8
0
 10
279.19
 20
5.04329
 11
279.048
 21
5.51227
  0
LINE
  8
0
 10
279.048
 20
5.51227
 11
279
 21
6
  0
LINE
  8
0
 10
279
 20
178
 11
279.048
 21
178.488
  0
LINE
  8
0
 10
279.048
 20
178.488
 11
279.19
 21
178.957
  0
LINE
  8
0
 10
279.19
 20
178.957
 11
279.421
 21
179.389
  0
LINE
  8
0
 10
279.421
 20
179.389
 11
279.732
 21
179.768
  0
LINE
  8
0
 10
279.732
 20
179.768
 11
280.111
 21
180.079
  0
LINE
  8
0
 10
280.111
 20
180.079
 11
280.543
 21
180.31
  0
LINE
  8
0
 10
280.543
 20
180.31
 11
281.012
 21
180.452
  0
LINE
  8
0
 10
281.012
 20
180.452
 11
281.5
 21
180.5
  0
LINE
  8
0
 10
281.5
 20
180.5
 11
281.988
 21
180.452
  0
LINE
  8
0
 10
281.988
 20
180.452
 11
282.457
 21
180.31
  0
LINE
  8
0
 10
282.457
 20
180.31
 11
282.889
 21
180.079
  0
LINE
  8
0
 10
282.889
 20
180.079
 11
283.268
 21
179.768
  0
LINE
  8
0
 10
283.268
 20
179.768
 11
283.579
 21
179.389
  0
LINE
  8
0
 10
283.579
 20
179.389
 11
283.81
 21
178.957
  0
LINE
  8
0
 10
283.81
 20
178.957
 11
283.952
 21
178.488
  0
LINE
  8
0
 10
283.952
 20
178.488
 11
284
 21
178
  0
LINE
  8
0
 10
284
 20
178
 11
283.952
 21
177.512
  0
LINE
  8
0
 10
283.952
 20
177.512
 11
283.81
 21
177.043
  0
LINE
  8
0
 10
283.81
 20
177.043
 11
283.579
 21
176.611
  0
LINE
  8
0
 10
283.579
 20
176.611
 11
283.268
 21
176.232
  0
LINE
  8
0
 10
283.268
 20
176.232
 11
282.889
 21
175.921
  0
LINE
  8
0
 10
282.889
 20
175.921
 11
282.457
 21
175.69
  0
LINE
  8
0
 10
282.457
 20
175.69
 11
281.988
 21
175.548
  0
LINE
  8
0
 10
281.988
 20
175.548
 11
281.5
 21
175.5
  0
LINE
  8
0
 10
281.5
 20
175.5
 11
281.012
 21
175.548
  0
LINE
  8
0
 10
281.012
 20
175.548
 11
280.543
 21
175.69
  0
LINE
  8
0
 10
280.543
 20
175.69
 11
280.111
 21
175.921
  0
LINE
  8
0
 10
280.111
 20
175.921
 11
279.732
 21
176.232
  0
LINE
  8
0
 10
279.732
 20
176.232
 11
279.421
 21
176.611
  0
LINE
  8
0
 10
279.421
 20
176.611
 11
279.19
 21
177.043
  0
LINE
  8
0
 10
279.19
 20
177.043
 11
279.048
 21
177.512
  0
LINE
  8
0
 10
279.048
 20
177.512
 11
279
 21
178
  0
ENDSEC
  0
SECTION
  2
OBJECTS
  0
DICTIONARY
  0
ENDSEC
  0
EOF
