  0
SECTION
  2
BLOCKS
  0
ENDSEC
  0
SECTION
  2
ENTITIES
  0
LINE
  8
0
 10
0
 20
0.0500006
 11
2.92528
 21
0.0500006
  0
LINE
  8
0
 10
2.92528
 20
0.0500006
 11
2.94745
 21
3.8147e-007
  0
LINE
  8
0
 10
2.94745
 20
3.8147e-007
 11
61.0526
 21
3.8147e-007
  0
LINE
  8
0
 10
61.0526
 20
3.8147e-007
 11
61.0747
 21
0.0500006
  0
LINE
  8
0
 10
61.0747
 20
0.0500006
 11
64
 21
0.0500006
  0
LINE
  8
0
 10
64
 20
0.0500006
 11
64
 21
13.4
  0
LINE
  8
0
 10
64
 20
13.4
 11
63.9615
 21
14.9702
  0
LINE
  8
0
 10
63.9615
 20
14.9702
 11
63.8459
 21
16.5365
  0
LINE
  8
0
 10
63.8459
 20
16.5365
 11
63.6536
 21
18.0954
  0
LINE
  8
0
 10
63.6536
 20
18.0954
 11
63.3851
 21
19.6429
  0
LINE
  8
0
 10
63.3851
 20
19.6429
 11
63.041
 21
21.1754
  0
LINE
  8
0
 10
63.041
 20
21.1754
 11
62.6221
 21
22.6891
  0
LINE
  8
0
 10
62.6221
 20
22.6891
 11
62.1294
 21
24.1805
  0
LINE
  8
0
 10
62.1294
 20
24.1805
 11
61.5641
 21
25.6459
  0
LINE
  8
0
 10
61.5641
 20
25.6459
 11
60.9277
 21
27.0818
  0
LINE
  8
0
 10
60.9277
 20
27.0818
 11
60.2215
 21
28.4847
  0
LINE
  8
0
 10
60.2215
 20
28.4847
 11
59.4473
 21
29.8513
  0
LINE
  8
0
 10
59.4473
 20
29.8513
 11
58.607
 21
31.1782
  0
LINE
  8
0
 10
58.607
 20
31.1782
 11
57.7026
 21
32.4624
  0
LINE
  8
0
 10
57.7026
 20
32.4624
 11
56.7363
 21
33.7006
  0
LINE
  8
0
 10
56.7363
 20
33.7006
 11
55.7104
 21
34.8899
  0
LINE
  8
0
 10
55.7104
 20
34.8899
 11
54.6274
 21
36.0274
  0
LINE
  8
0
 10
54.6274
 20
36.0274
 11
53.4899
 21
37.1104
  0
LINE
  8
0
 10
53.4899
 20
37.1104
 11
52.3006
 21
38.1363
  0
LINE
  8
0
 10
52.3006
 20
38.1363
 11
51.0624
 21
39.1026
  0
LINE
  8
0
 10
51.0624
 20
39.1026
 11
50.6402
 21
39.4
  0
LINE
  8
0
 10
50.6402
 20
39.4
 11
13.3598
 21
39.4
  0
LINE
  8
0
 10
13.3598
 20
39.4
 11
12.9376
 21
39.1026
  0
LINE
  8
0
 10
12.9376
 20
39.1026
 11
11.6994
 21
38.1363
  0
LINE
  8
0
 10
11.6994
 20
38.1363
 11
10.5101
 21
37.1104
  0
LINE
  8
0
 10
10.5101
 20
37.1104
 11
9.37258
 21
36.0274
  0
LINE
  8
0
 10
9.37258
 20
36.0274
 11
8.28956
 21
34.8899
  0
LINE
  8
0
 10
8.28956
 20
34.8899
 11
7.26367
 21
33.7006
  0
LINE
  8
0
 10
7.26367
 20
33.7006
 11
6.29736
 21
32.4624
  0
LINE
  8
0
 10
6.29736
 20
32.4624
 11
5.39297
 21
31.1782
  0
LINE
  8
0
 10
5.39297
 20
31.1782
 11
4.55268
 21
29.8513
  0
LINE
  8
0
 10
4.55268
 20
29.8513
 11
3.77852
 21
28.4847
  0
LINE
  8
0
 10
3.77852
 20
28.4847
 11
3.07234
 21
27.0818
  0
LINE
  8
0
 10
3.07234
 20
27.0818
 11
2.43586
 21
25.6459
  0
LINE
  8
0
 10
2.43586
 20
25.6459
 11
1.87059
 21
24.1805
  0
LINE
  8
0
 10
1.87059
 20
24.1805
 11
1.37791
 21
22.6891
  0
LINE
  8
0
 10
1.37791
 20
22.6891
 11
0.959001
 21
21.1754
  0
LINE
  8
0
 10
0.959001
 20
21.1754
 11
0.614872
 21
19.6429
  0
LINE
  8
0
 10
0.614872
 20
19.6429
 11
0.346353
 21
18.0954
  0
LINE
  8
0
 10
0.346353
 20
18.0954
 11
0.154089
 21
16.5365
  0
LINE
  8
0
 10
0.154089
 20
16.5365
 11
0.0385456
 21
14.9702
  0
LINE
  8
0
 10
0.0385456
 20
14.9702
 11
0
 21
13.4
  0
LINE
  8
0
 10
0
 20
13.4
 11
2.34115e-008
 21
13.4
  0
LINE
  8
0
 10
2.34115e-008
 20
13.4
 11
0
 21
13.4
  0
LINE
  8
0
 10
0
 20
13.4
 11
0
 21
0.0500006
  0
LINE
  8
0
 10
14.7
 20
33.9
 11
14.7022
 21
33.9883
  0
LINE
  8
0
 10
14.7022
 20
33.9883
 11
14.7087
 21
34.0764
  0
LINE
  8
0
 10
14.7087
 20
34.0764
 11
14.7195
 21
34.1641
  0
LINE
  8
0
 10
14.7195
 20
34.1641
 11
14.7346
 21
34.2512
  0
LINE
  8
0
 10
14.7346
 20
34.2512
 11
14.7539
 21
34.3374
  0
LINE
  8
0
 10
14.7539
 20
34.3374
 11
14.7775
 21
34.4225
  0
LINE
  8
0
 10
14.7775
 20
34.4225
 11
14.8052
 21
34.5064
  0
LINE
  8
0
 10
14.8052
 20
34.5064
 11
14.837
 21
34.5888
  0
LINE
  8
0
 10
14.837
 20
34.5888
 11
14.8728
 21
34.6696
  0
LINE
  8
0
 10
14.8728
 20
34.6696
 11
14.9125
 21
34.7485
  0
LINE
  8
0
 10
14.9125
 20
34.7485
 11
14.9561
 21
34.8254
  0
LINE
  8
0
 10
14.9561
 20
34.8254
 11
15.0034
 21
34.9
  0
LINE
  8
0
 10
15.0034
 20
34.9
 11
15.0542
 21
34.9723
  0
LINE
  8
0
 10
15.0542
 20
34.9723
 11
15.1086
 21
35.0419
  0
LINE
  8
0
 10
15.1086
 20
35.0419
 11
15.1663
 21
35.1088
  0
LINE
  8
0
 10
15.1663
 20
35.1088
 11
15.2272
 21
35.1728
  0
LINE
  8
0
 10
15.2272
 20
35.1728
 11
15.2912
 21
35.2337
  0
LINE
  8
0
 10
15.2912
 20
35.2337
 11
15.3581
 21
35.2914
  0
LINE
  8
0
 10
15.3581
 20
35.2914
 11
15.4277
 21
35.3458
  0
LINE
  8
0
 10
15.4277
 20
35.3458
 11
15.5
 21
35.3966
  0
LINE
  8
0
 10
15.5
 20
35.3966
 11
15.5746
 21
35.4439
  0
LINE
  8
0
 10
15.5746
 20
35.4439
 11
15.6515
 21
35.4875
  0
LINE
  8
0
 10
15.6515
 20
35.4875
 11
15.7304
 21
35.5272
  0
LINE
  8
0
 10
15.7304
 20
35.5272
 11
15.8112
 21
35.563
  0
LINE
  8
0
 10
15.8112
 20
35.563
 11
15.8936
 21
35.5948
  0
LINE
  8
0
 10
15.8936
 20
35.5948
 11
15.9775
 21
35.6225
  0
LINE
  8
0
 10
15.9775
 20
35.6225
 11
16.0626
 21
35.6461
  0
LINE
  8
0
 10
16.0626
 20
35.6461
 11
16.1488
 21
35.6654
  0
LINE
  8
0
 10
16.1488
 20
35.6654
 11
16.2359
 21
35.6805
  0
LINE
  8
0
 10
16.2359
 20
35.6805
 11
16.3236
 21
35.6913
  0
LINE
  8
0
 10
16.3236
 20
35.6913
 11
16.4117
 21
35.6978
  0
LINE
  8
0
 10
16.4117
 20
35.6978
 11
16.5
 21
35.7
  0
LINE
  8
0
 10
16.5
 20
35.7
 11
16.5883
 21
35.6978
  0
LINE
  8
0
 10
16.5883
 20
35.6978
 11
16.6764
 21
35.6913
  0
LINE
  8
0
 10
16.6764
 20
35.6913
 11
16.7641
 21
35.6805
  0
LINE
  8
0
 10
16.7641
 20
35.6805
 11
16.8512
 21
35.6654
  0
LINE
  8
0
 10
16.8512
 20
35.6654
 11
16.9374
 21
35.6461
  0
LINE
  8
0
 10
16.9374
 20
35.6461
 11
17.0225
 21
35.6225
  0
LINE
  8
0
 10
17.0225
 20
35.6225
 11
17.1064
 21
35.5948
  0
LINE
  8
0
 10
17.1064
 20
35.5948
 11
17.1888
 21
35.563
  0
LINE
  8
0
 10
17.1888
 20
35.563
 11
17.2696
 21
35.5272
  0
LINE
  8
0
 10
17.2696
 20
35.5272
 11
17.3485
 21
35.4875
  0
LINE
  8
0
 10
17.3485
 20
35.4875
 11
17.4254
 21
35.4439
  0
LINE
  8
0
 10
17.4254
 20
35.4439
 11
17.5
 21
35.3966
  0
LINE
  8
0
 10
17.5
 20
35.3966
 11
17.5723
 21
35.3458
  0
LINE
  8
0
 10
17.5723
 20
35.3458
 11
17.6419
 21
35.2914
  0
LINE
  8
0
 10
17.6419
 20
35.2914
 11
17.7088
 21
35.2337
  0
LINE
  8
0
 10
17.7088
 20
35.2337
 11
17.7728
 21
35.1728
  0
LINE
  8
0
 10
17.7728
 20
35.1728
 11
17.8337
 21
35.1088
  0
LINE
  8
0
 10
17.8337
 20
35.1088
 11
17.8914
 21
35.0419
  0
LINE
  8
0
 10
17.8914
 20
35.0419
 11
17.9458
 21
34.9723
  0
LINE
  8
0
 10
17.9458
 20
34.9723
 11
17.9966
 21
34.9
  0
LINE
  8
0
 10
17.9966
 20
34.9
 11
18.0439
 21
34.8254
  0
LINE
  8
0
 10
18.0439
 20
34.8254
 11
18.0875
 21
34.7485
  0
LINE
  8
0
 10
18.0875
 20
34.7485
 11
18.1272
 21
34.6696
  0
LINE
  8
0
 10
18.1272
 20
34.6696
 11
18.163
 21
34.5888
  0
LINE
  8
0
 10
18.163
 20
34.5888
 11
18.1948
 21
34.5064
  0
LINE
  8
0
 10
18.1948
 20
34.5064
 11
18.2225
 21
34.4225
  0
LINE
  8
0
 10
18.2225
 20
34.4225
 11
18.2461
 21
34.3374
  0
LINE
  8
0
 10
18.2461
 20
34.3374
 11
18.2654
 21
34.2512
  0
LINE
  8
0
 10
18.2654
 20
34.2512
 11
18.2805
 21
34.1641
  0
LINE
  8
0
 10
18.2805
 20
34.1641
 11
18.2913
 21
34.0764
  0
LINE
  8
0
 10
18.2913
 20
34.0764
 11
18.2978
 21
33.9883
  0
LINE
  8
0
 10
18.2978
 20
33.9883
 11
18.3
 21
33.9
  0
LINE
  8
0
 10
18.3
 20
33.9
 11
18.2978
 21
33.8117
  0
LINE
  8
0
 10
18.2978
 20
33.8117
 11
18.2913
 21
33.7236
  0
LINE
  8
0
 10
18.2913
 20
33.7236
 11
18.2805
 21
33.6359
  0
LINE
  8
0
 10
18.2805
 20
33.6359
 11
18.2654
 21
33.5488
  0
LINE
  8
0
 10
18.2654
 20
33.5488
 11
18.2461
 21
33.4626
  0
LINE
  8
0
 10
18.2461
 20
33.4626
 11
18.2225
 21
33.3775
  0
LINE
  8
0
 10
18.2225
 20
33.3775
 11
18.1948
 21
33.2936
  0
LINE
  8
0
 10
18.1948
 20
33.2936
 11
18.163
 21
33.2112
  0
LINE
  8
0
 10
18.163
 20
33.2112
 11
18.1272
 21
33.1304
  0
LINE
  8
0
 10
18.1272
 20
33.1304
 11
18.0875
 21
33.0515
  0
LINE
  8
0
 10
18.0875
 20
33.0515
 11
18.0439
 21
32.9746
  0
LINE
  8
0
 10
18.0439
 20
32.9746
 11
17.9966
 21
32.9
  0
LINE
  8
0
 10
17.9966
 20
32.9
 11
17.9458
 21
32.8277
  0
LINE
  8
0
 10
17.9458
 20
32.8277
 11
17.8914
 21
32.7581
  0
LINE
  8
0
 10
17.8914
 20
32.7581
 11
17.8337
 21
32.6912
  0
LINE
  8
0
 10
17.8337
 20
32.6912
 11
17.7728
 21
32.6272
  0
LINE
  8
0
 10
17.7728
 20
32.6272
 11
17.7088
 21
32.5663
  0
LINE
  8
0
 10
17.7088
 20
32.5663
 11
17.6419
 21
32.5086
  0
LINE
  8
0
 10
17.6419
 20
32.5086
 11
17.5723
 21
32.4542
  0
LINE
  8
0
 10
17.5723
 20
32.4542
 11
17.5
 21
32.4034
  0
LINE
  8
0
 10
17.5
 20
32.4034
 11
17.4254
 21
32.3561
  0
LINE
  8
0
 10
17.4254
 20
32.3561
 11
17.3485
 21
32.3125
  0
LINE
  8
0
 10
17.3485
 20
32.3125
 11
17.2696
 21
32.2728
  0
LINE
  8
0
 10
17.2696
 20
32.2728
 11
17.1888
 21
32.237
  0
LINE
  8
0
 10
17.1888
 20
32.237
 11
17.1064
 21
32.2052
  0
LINE
  8
0
 10
17.1064
 20
32.2052
 11
17.0225
 21
32.1775
  0
LINE
  8
0
 10
17.0225
 20
32.1775
 11
16.9374
 21
32.1539
  0
LINE
  8
0
 10
16.9374
 20
32.1539
 11
16.8512
 21
32.1346
  0
LINE
  8
0
 10
16.8512
 20
32.1346
 11
16.7641
 21
32.1195
  0
LINE
  8
0
 10
16.7641
 20
32.1195
 11
16.6764
 21
32.1087
  0
LINE
  8
0
 10
16.6764
 20
32.1087
 11
16.5883
 21
32.1022
  0
LINE
  8
0
 10
16.5883
 20
32.1022
 11
16.5
 21
32.1
  0
LINE
  8
0
 10
16.5
 20
32.1
 11
16.4117
 21
32.1022
  0
LINE
  8
0
 10
16.4117
 20
32.1022
 11
16.3236
 21
32.1087
  0
LINE
  8
0
 10
16.3236
 20
32.1087
 11
16.2359
 21
32.1195
  0
LINE
  8
0
 10
16.2359
 20
32.1195
 11
16.1488
 21
32.1346
  0
LINE
  8
0
 10
16.1488
 20
32.1346
 11
16.0626
 21
32.1539
  0
LINE
  8
0
 10
16.0626
 20
32.1539
 11
15.9775
 21
32.1775
  0
LINE
  8
0
 10
15.9775
 20
32.1775
 11
15.8936
 21
32.2052
  0
LINE
  8
0
 10
15.8936
 20
32.2052
 11
15.8112
 21
32.237
  0
LINE
  8
0
 10
15.8112
 20
32.237
 11
15.7304
 21
32.2728
  0
LINE
  8
0
 10
15.7304
 20
32.2728
 11
15.6515
 21
32.3125
  0
LINE
  8
0
 10
15.6515
 20
32.3125
 11
15.5746
 21
32.3561
  0
LINE
  8
0
 10
15.5746
 20
32.3561
 11
15.5
 21
32.4034
  0
LINE
  8
0
 10
15.5
 20
32.4034
 11
15.4277
 21
32.4542
  0
LINE
  8
0
 10
15.4277
 20
32.4542
 11
15.3581
 21
32.5086
  0
LINE
  8
0
 10
15.3581
 20
32.5086
 11
15.2912
 21
32.5663
  0
LINE
  8
0
 10
15.2912
 20
32.5663
 11
15.2272
 21
32.6272
  0
LINE
  8
0
 10
15.2272
 20
32.6272
 11
15.1663
 21
32.6912
  0
LINE
  8
0
 10
15.1663
 20
32.6912
 11
15.1086
 21
32.7581
  0
LINE
  8
0
 10
15.1086
 20
32.7581
 11
15.0542
 21
32.8277
  0
LINE
  8
0
 10
15.0542
 20
32.8277
 11
15.0034
 21
32.9
  0
LINE
  8
0
 10
15.0034
 20
32.9
 11
14.9561
 21
32.9746
  0
LINE
  8
0
 10
14.9561
 20
32.9746
 11
14.9125
 21
33.0515
  0
LINE
  8
0
 10
14.9125
 20
33.0515
 11
14.8728
 21
33.1304
  0
LINE
  8
0
 10
14.8728
 20
33.1304
 11
14.837
 21
33.2112
  0
LINE
  8
0
 10
14.837
 20
33.2112
 11
14.8052
 21
33.2936
  0
LINE
  8
0
 10
14.8052
 20
33.2936
 11
14.7775
 21
33.3775
  0
LINE
  8
0
 10
14.7775
 20
33.3775
 11
14.7539
 21
33.4626
  0
LINE
  8
0
 10
14.7539
 20
33.4626
 11
14.7346
 21
33.5488
  0
LINE
  8
0
 10
14.7346
 20
33.5488
 11
14.7195
 21
33.6359
  0
LINE
  8
0
 10
14.7195
 20
33.6359
 11
14.7087
 21
33.7236
  0
LINE
  8
0
 10
14.7087
 20
33.7236
 11
14.7022
 21
33.8117
  0
LINE
  8
0
 10
14.7022
 20
33.8117
 11
14.7
 21
33.9
  0
LINE
  8
0
 10
20
 20
18.4
 11
20.0145
 21
18.9888
  0
LINE
  8
0
 10
20.0145
 20
18.9888
 11
20.0578
 21
19.5762
  0
LINE
  8
0
 10
20.0578
 20
19.5762
 11
20.1299
 21
20.1608
  0
LINE
  8
0
 10
20.1299
 20
20.1608
 11
20.2306
 21
20.7411
  0
LINE
  8
0
 10
20.2306
 20
20.7411
 11
20.3596
 21
21.3158
  0
LINE
  8
0
 10
20.3596
 20
21.3158
 11
20.5167
 21
21.8834
  0
LINE
  8
0
 10
20.5167
 20
21.8834
 11
20.7015
 21
22.4427
  0
LINE
  8
0
 10
20.7015
 20
22.4427
 11
20.9134
 21
22.9922
  0
LINE
  8
0
 10
20.9134
 20
22.9922
 11
21.1521
 21
23.5307
  0
LINE
  8
0
 10
21.1521
 20
23.5307
 11
21.4169
 21
24.0568
  0
LINE
  8
0
 10
21.4169
 20
24.0568
 11
21.7073
 21
24.5692
  0
LINE
  8
0
 10
21.7073
 20
24.5692
 11
22.0224
 21
25.0668
  0
LINE
  8
0
 10
22.0224
 20
25.0668
 11
22.3615
 21
25.5484
  0
LINE
  8
0
 10
22.3615
 20
25.5484
 11
22.7239
 21
26.0127
  0
LINE
  8
0
 10
22.7239
 20
26.0127
 11
23.1086
 21
26.4587
  0
LINE
  8
0
 10
23.1086
 20
26.4587
 11
23.5147
 21
26.8853
  0
LINE
  8
0
 10
23.5147
 20
26.8853
 11
23.9413
 21
27.2914
  0
LINE
  8
0
 10
23.9413
 20
27.2914
 11
24.3873
 21
27.6761
  0
LINE
  8
0
 10
24.3873
 20
27.6761
 11
24.8516
 21
28.0385
  0
LINE
  8
0
 10
24.8516
 20
28.0385
 11
25.3332
 21
28.3776
  0
LINE
  8
0
 10
25.3332
 20
28.3776
 11
25.8308
 21
28.6927
  0
LINE
  8
0
 10
25.8308
 20
28.6927
 11
26.3432
 21
28.9831
  0
LINE
  8
0
 10
26.3432
 20
28.9831
 11
26.8693
 21
29.2479
  0
LINE
  8
0
 10
26.8693
 20
29.2479
 11
27.4078
 21
29.4866
  0
LINE
  8
0
 10
27.4078
 20
29.4866
 11
27.9573
 21
29.6985
  0
LINE
  8
0
 10
27.9573
 20
29.6985
 11
28.5166
 21
29.8833
  0
LINE
  8
0
 10
28.5166
 20
29.8833
 11
29.0842
 21
30.0404
  0
LINE
  8
0
 10
29.0842
 20
30.0404
 11
29.6589
 21
30.1694
  0
LINE
  8
0
 10
29.6589
 20
30.1694
 11
30.2392
 21
30.2701
  0
LINE
  8
0
 10
30.2392
 20
30.2701
 11
30.8238
 21
30.3422
  0
LINE
  8
0
 10
30.8238
 20
30.3422
 11
31.4112
 21
30.3855
  0
LINE
  8
0
 10
31.4112
 20
30.3855
 11
32
 21
30.4
  0
LINE
  8
0
 10
32
 20
30.4
 11
32.5888
 21
30.3855
  0
LINE
  8
0
 10
32.5888
 20
30.3855
 11
33.1762
 21
30.3422
  0
LINE
  8
0
 10
33.1762
 20
30.3422
 11
33.7608
 21
30.2701
  0
LINE
  8
0
 10
33.7608
 20
30.2701
 11
34.3411
 21
30.1694
  0
LINE
  8
0
 10
34.3411
 20
30.1694
 11
34.9158
 21
30.0404
  0
LINE
  8
0
 10
34.9158
 20
30.0404
 11
35.4834
 21
29.8833
  0
LINE
  8
0
 10
35.4834
 20
29.8833
 11
36.0427
 21
29.6985
  0
LINE
  8
0
 10
36.0427
 20
29.6985
 11
36.5922
 21
29.4866
  0
LINE
  8
0
 10
36.5922
 20
29.4866
 11
37.1307
 21
29.2479
  0
LINE
  8
0
 10
37.1307
 20
29.2479
 11
37.6568
 21
28.9831
  0
LINE
  8
0
 10
37.6568
 20
28.9831
 11
38.1692
 21
28.6927
  0
LINE
  8
0
 10
38.1692
 20
28.6927
 11
38.6668
 21
28.3776
  0
LINE
  8
0
 10
38.6668
 20
28.3776
 11
39.1484
 21
28.0385
  0
LINE
  8
0
 10
39.1484
 20
28.0385
 11
39.6127
 21
27.6761
  0
LINE
  8
0
 10
39.6127
 20
27.6761
 11
40.0587
 21
27.2914
  0
LINE
  8
0
 10
40.0587
 20
27.2914
 11
40.4853
 21
26.8853
  0
LINE
  8
0
 10
40.4853
 20
26.8853
 11
40.8914
 21
26.4587
  0
LINE
  8
0
 10
40.8914
 20
26.4587
 11
41.2761
 21
26.0127
  0
LINE
  8
0
 10
41.2761
 20
26.0127
 11
41.6385
 21
25.5484
  0
LINE
  8
0
 10
41.6385
 20
25.5484
 11
41.9776
 21
25.0668
  0
LINE
  8
0
 10
41.9776
 20
25.0668
 11
42.2927
 21
24.5692
  0
LINE
  8
0
 10
42.2927
 20
24.5692
 11
42.5831
 21
24.0568
  0
LINE
  8
0
 10
42.5831
 20
24.0568
 11
42.8479
 21
23.5307
  0
LINE
  8
0
 10
42.8479
 20
23.5307
 11
43.0866
 21
22.9922
  0
LINE
  8
0
 10
43.0866
 20
22.9922
 11
43.2985
 21
22.4427
  0
LINE
  8
0
 10
43.2985
 20
22.4427
 11
43.4833
 21
21.8834
  0
LINE
  8
0
 10
43.4833
 20
21.8834
 11
43.6404
 21
21.3158
  0
LINE
  8
0
 10
43.6404
 20
21.3158
 11
43.7694
 21
20.7411
  0
LINE
  8
0
 10
43.7694
 20
20.7411
 11
43.8701
 21
20.1608
  0
LINE
  8
0
 10
43.8701
 20
20.1608
 11
43.9422
 21
19.5762
  0
LINE
  8
0
 10
43.9422
 20
19.5762
 11
43.9855
 21
18.9888
  0
LINE
  8
0
 10
43.9855
 20
18.9888
 11
44
 21
18.4
  0
LINE
  8
0
 10
44
 20
18.4
 11
43.9855
 21
17.8112
  0
LINE
  8
0
 10
43.9855
 20
17.8112
 11
43.9422
 21
17.2238
  0
LINE
  8
0
 10
43.9422
 20
17.2238
 11
43.8701
 21
16.6392
  0
LINE
  8
0
 10
43.8701
 20
16.6392
 11
43.7694
 21
16.0589
  0
LINE
  8
0
 10
43.7694
 20
16.0589
 11
43.6404
 21
15.4842
  0
LINE
  8
0
 10
43.6404
 20
15.4842
 11
43.4833
 21
14.9166
  0
LINE
  8
0
 10
43.4833
 20
14.9166
 11
43.2985
 21
14.3573
  0
LINE
  8
0
 10
43.2985
 20
14.3573
 11
43.0866
 21
13.8078
  0
LINE
  8
0
 10
43.0866
 20
13.8078
 11
42.8479
 21
13.2693
  0
LINE
  8
0
 10
42.8479
 20
13.2693
 11
42.5831
 21
12.7432
  0
LINE
  8
0
 10
42.5831
 20
12.7432
 11
42.2927
 21
12.2308
  0
LINE
  8
0
 10
42.2927
 20
12.2308
 11
41.9776
 21
11.7332
  0
LINE
  8
0
 10
41.9776
 20
11.7332
 11
41.6385
 21
11.2516
  0
LINE
  8
0
 10
41.6385
 20
11.2516
 11
41.2761
 21
10.7873
  0
LINE
  8
0
 10
41.2761
 20
10.7873
 11
40.8914
 21
10.3413
  0
LINE
  8
0
 10
40.8914
 20
10.3413
 11
40.4853
 21
9.91472
  0
LINE
  8
0
 10
40.4853
 20
9.91472
 11
40.0587
 21
9.50859
  0
LINE
  8
0
 10
40.0587
 20
9.50859
 11
39.6127
 21
9.12388
  0
LINE
  8
0
 10
39.6127
 20
9.12388
 11
39.1484
 21
8.76151
  0
LINE
  8
0
 10
39.1484
 20
8.76151
 11
38.6668
 21
8.42237
  0
LINE
  8
0
 10
38.6668
 20
8.42237
 11
38.1692
 21
8.10726
  0
LINE
  8
0
 10
38.1692
 20
8.10726
 11
37.6568
 21
7.81695
  0
LINE
  8
0
 10
37.6568
 20
7.81695
 11
37.1307
 21
7.55213
  0
LINE
  8
0
 10
37.1307
 20
7.55213
 11
36.5922
 21
7.31345
  0
LINE
  8
0
 10
36.5922
 20
7.31345
 11
36.0427
 21
7.10147
  0
LINE
  8
0
 10
36.0427
 20
7.10147
 11
35.4834
 21
6.91672
  0
LINE
  8
0
 10
35.4834
 20
6.91672
 11
34.9158
 21
6.75963
  0
LINE
  8
0
 10
34.9158
 20
6.75963
 11
34.3411
 21
6.63058
  0
LINE
  8
0
 10
34.3411
 20
6.63058
 11
33.7608
 21
6.52988
  0
LINE
  8
0
 10
33.7608
 20
6.52988
 11
33.1762
 21
6.45778
  0
LINE
  8
0
 10
33.1762
 20
6.45778
 11
32.5888
 21
6.41445
  0
LINE
  8
0
 10
32.5888
 20
6.41445
 11
32
 21
6.4
  0
LINE
  8
0
 10
32
 20
6.4
 11
31.4112
 21
6.41445
  0
LINE
  8
0
 10
31.4112
 20
6.41445
 11
30.8238
 21
6.45778
  0
LINE
  8
0
 10
30.8238
 20
6.45778
 11
30.2392
 21
6.52988
  0
LINE
  8
0
 10
30.2392
 20
6.52988
 11
29.6589
 21
6.63058
  0
LINE
  8
0
 10
29.6589
 20
6.63058
 11
29.0842
 21
6.75963
  0
LINE
  8
0
 10
29.0842
 20
6.75963
 11
28.5166
 21
6.91672
  0
LINE
  8
0
 10
28.5166
 20
6.91672
 11
27.9573
 21
7.10147
  0
LINE
  8
0
 10
27.9573
 20
7.10147
 11
27.4078
 21
7.31345
  0
LINE
  8
0
 10
27.4078
 20
7.31345
 11
26.8693
 21
7.55213
  0
LINE
  8
0
 10
26.8693
 20
7.55213
 11
26.3432
 21
7.81695
  0
LINE
  8
0
 10
26.3432
 20
7.81695
 11
25.8308
 21
8.10726
  0
LINE
  8
0
 10
25.8308
 20
8.10726
 11
25.3332
 21
8.42237
  0
LINE
  8
0
 10
25.3332
 20
8.42237
 11
24.8516
 21
8.76151
  0
LINE
  8
0
 10
24.8516
 20
8.76151
 11
24.3873
 21
9.12388
  0
LINE
  8
0
 10
24.3873
 20
9.12388
 11
23.9413
 21
9.50859
  0
LINE
  8
0
 10
23.9413
 20
9.50859
 11
23.5147
 21
9.91472
  0
LINE
  8
0
 10
23.5147
 20
9.91472
 11
23.1086
 21
10.3413
  0
LINE
  8
0
 10
23.1086
 20
10.3413
 11
22.7239
 21
10.7873
  0
LINE
  8
0
 10
22.7239
 20
10.7873
 11
22.3615
 21
11.2516
  0
LINE
  8
0
 10
22.3615
 20
11.2516
 11
22.0224
 21
11.7332
  0
LINE
  8
0
 10
22.0224
 20
11.7332
 11
21.7073
 21
12.2308
  0
LINE
  8
0
 10
21.7073
 20
12.2308
 11
21.4169
 21
12.7432
  0
LINE
  8
0
 10
21.4169
 20
12.7432
 11
21.1521
 21
13.2693
  0
LINE
  8
0
 10
21.1521
 20
13.2693
 11
20.9134
 21
13.8078
  0
LINE
  8
0
 10
20.9134
 20
13.8078
 11
20.7015
 21
14.3573
  0
LINE
  8
0
 10
20.7015
 20
14.3573
 11
20.5167
 21
14.9166
  0
LINE
  8
0
 10
20.5167
 20
14.9166
 11
20.3596
 21
15.4842
  0
LINE
  8
0
 10
20.3596
 20
15.4842
 11
20.2306
 21
16.0589
  0
LINE
  8
0
 10
20.2306
 20
16.0589
 11
20.1299
 21
16.6392
  0
LINE
  8
0
 10
20.1299
 20
16.6392
 11
20.0578
 21
17.2238
  0
LINE
  8
0
 10
20.0578
 20
17.2238
 11
20.0145
 21
17.8112
  0
LINE
  8
0
 10
20.0145
 20
17.8112
 11
20
 21
18.4
  0
LINE
  8
0
 10
45.7
 20
33.9
 11
45.7022
 21
33.9883
  0
LINE
  8
0
 10
45.7022
 20
33.9883
 11
45.7087
 21
34.0764
  0
LINE
  8
0
 10
45.7087
 20
34.0764
 11
45.7195
 21
34.1641
  0
LINE
  8
0
 10
45.7195
 20
34.1641
 11
45.7346
 21
34.2512
  0
LINE
  8
0
 10
45.7346
 20
34.2512
 11
45.7539
 21
34.3374
  0
LINE
  8
0
 10
45.7539
 20
34.3374
 11
45.7775
 21
34.4225
  0
LINE
  8
0
 10
45.7775
 20
34.4225
 11
45.8052
 21
34.5064
  0
LINE
  8
0
 10
45.8052
 20
34.5064
 11
45.837
 21
34.5888
  0
LINE
  8
0
 10
45.837
 20
34.5888
 11
45.8728
 21
34.6696
  0
LINE
  8
0
 10
45.8728
 20
34.6696
 11
45.9125
 21
34.7485
  0
LINE
  8
0
 10
45.9125
 20
34.7485
 11
45.9561
 21
34.8254
  0
LINE
  8
0
 10
45.9561
 20
34.8254
 11
46.0034
 21
34.9
  0
LINE
  8
0
 10
46.0034
 20
34.9
 11
46.0542
 21
34.9723
  0
LINE
  8
0
 10
46.0542
 20
34.9723
 11
46.1086
 21
35.0419
  0
LINE
  8
0
 10
46.1086
 20
35.0419
 11
46.1663
 21
35.1088
  0
LINE
  8
0
 10
46.1663
 20
35.1088
 11
46.2272
 21
35.1728
  0
LINE
  8
0
 10
46.2272
 20
35.1728
 11
46.2912
 21
35.2337
  0
LINE
  8
0
 10
46.2912
 20
35.2337
 11
46.3581
 21
35.2914
  0
LINE
  8
0
 10
46.3581
 20
35.2914
 11
46.4277
 21
35.3458
  0
LINE
  8
0
 10
46.4277
 20
35.3458
 11
46.5
 21
35.3966
  0
LINE
  8
0
 10
46.5
 20
35.3966
 11
46.5746
 21
35.4439
  0
LINE
  8
0
 10
46.5746
 20
35.4439
 11
46.6515
 21
35.4875
  0
LINE
  8
0
 10
46.6515
 20
35.4875
 11
46.7304
 21
35.5272
  0
LINE
  8
0
 10
46.7304
 20
35.5272
 11
46.8112
 21
35.563
  0
LINE
  8
0
 10
46.8112
 20
35.563
 11
46.8936
 21
35.5948
  0
LINE
  8
0
 10
46.8936
 20
35.5948
 11
46.9775
 21
35.6225
  0
LINE
  8
0
 10
46.9775
 20
35.6225
 11
47.0626
 21
35.6461
  0
LINE
  8
0
 10
47.0626
 20
35.6461
 11
47.1488
 21
35.6654
  0
LINE
  8
0
 10
47.1488
 20
35.6654
 11
47.2359
 21
35.6805
  0
LINE
  8
0
 10
47.2359
 20
35.6805
 11
47.3236
 21
35.6913
  0
LINE
  8
0
 10
47.3236
 20
35.6913
 11
47.4117
 21
35.6978
  0
LINE
  8
0
 10
47.4117
 20
35.6978
 11
47.5
 21
35.7
  0
LINE
  8
0
 10
47.5
 20
35.7
 11
47.5883
 21
35.6978
  0
LINE
  8
0
 10
47.5883
 20
35.6978
 11
47.6764
 21
35.6913
  0
LINE
  8
0
 10
47.6764
 20
35.6913
 11
47.7641
 21
35.6805
  0
LINE
  8
0
 10
47.7641
 20
35.6805
 11
47.8512
 21
35.6654
  0
LINE
  8
0
 10
47.8512
 20
35.6654
 11
47.9374
 21
35.6461
  0
LINE
  8
0
 10
47.9374
 20
35.6461
 11
48.0225
 21
35.6225
  0
LINE
  8
0
 10
48.0225
 20
35.6225
 11
48.1064
 21
35.5948
  0
LINE
  8
0
 10
48.1064
 20
35.5948
 11
48.1888
 21
35.563
  0
LINE
  8
0
 10
48.1888
 20
35.563
 11
48.2696
 21
35.5272
  0
LINE
  8
0
 10
48.2696
 20
35.5272
 11
48.3485
 21
35.4875
  0
LINE
  8
0
 10
48.3485
 20
35.4875
 11
48.4254
 21
35.4439
  0
LINE
  8
0
 10
48.4254
 20
35.4439
 11
48.5
 21
35.3966
  0
LINE
  8
0
 10
48.5
 20
35.3966
 11
48.5723
 21
35.3458
  0
LINE
  8
0
 10
48.5723
 20
35.3458
 11
48.6419
 21
35.2914
  0
LINE
  8
0
 10
48.6419
 20
35.2914
 11
48.7088
 21
35.2337
  0
LINE
  8
0
 10
48.7088
 20
35.2337
 11
48.7728
 21
35.1728
  0
LINE
  8
0
 10
48.7728
 20
35.1728
 11
48.8337
 21
35.1088
  0
LINE
  8
0
 10
48.8337
 20
35.1088
 11
48.8914
 21
35.0419
  0
LINE
  8
0
 10
48.8914
 20
35.0419
 11
48.9458
 21
34.9723
  0
LINE
  8
0
 10
48.9458
 20
34.9723
 11
48.9966
 21
34.9
  0
LINE
  8
0
 10
48.9966
 20
34.9
 11
49.0439
 21
34.8254
  0
LINE
  8
0
 10
49.0439
 20
34.8254
 11
49.0875
 21
34.7485
  0
LINE
  8
0
 10
49.0875
 20
34.7485
 11
49.1272
 21
34.6696
  0
LINE
  8
0
 10
49.1272
 20
34.6696
 11
49.163
 21
34.5888
  0
LINE
  8
0
 10
49.163
 20
34.5888
 11
49.1948
 21
34.5064
  0
LINE
  8
0
 10
49.1948
 20
34.5064
 11
49.2225
 21
34.4225
  0
LINE
  8
0
 10
49.2225
 20
34.4225
 11
49.2461
 21
34.3374
  0
LINE
  8
0
 10
49.2461
 20
34.3374
 11
49.2654
 21
34.2512
  0
LINE
  8
0
 10
49.2654
 20
34.2512
 11
49.2805
 21
34.1641
  0
LINE
  8
0
 10
49.2805
 20
34.1641
 11
49.2913
 21
34.0764
  0
LINE
  8
0
 10
49.2913
 20
34.0764
 11
49.2978
 21
33.9883
  0
LINE
  8
0
 10
49.2978
 20
33.9883
 11
49.3
 21
33.9
  0
LINE
  8
0
 10
49.3
 20
33.9
 11
49.2978
 21
33.8117
  0
LINE
  8
0
 10
49.2978
 20
33.8117
 11
49.2913
 21
33.7236
  0
LINE
  8
0
 10
49.2913
 20
33.7236
 11
49.2805
 21
33.6359
  0
LINE
  8
0
 10
49.2805
 20
33.6359
 11
49.2654
 21
33.5488
  0
LINE
  8
0
 10
49.2654
 20
33.5488
 11
49.2461
 21
33.4626
  0
LINE
  8
0
 10
49.2461
 20
33.4626
 11
49.2225
 21
33.3775
  0
LINE
  8
0
 10
49.2225
 20
33.3775
 11
49.1948
 21
33.2936
  0
LINE
  8
0
 10
49.1948
 20
33.2936
 11
49.163
 21
33.2112
  0
LINE
  8
0
 10
49.163
 20
33.2112
 11
49.1272
 21
33.1304
  0
LINE
  8
0
 10
49.1272
 20
33.1304
 11
49.0875
 21
33.0515
  0
LINE
  8
0
 10
49.0875
 20
33.0515
 11
49.0439
 21
32.9746
  0
LINE
  8
0
 10
49.0439
 20
32.9746
 11
48.9966
 21
32.9
  0
LINE
  8
0
 10
48.9966
 20
32.9
 11
48.9458
 21
32.8277
  0
LINE
  8
0
 10
48.9458
 20
32.8277
 11
48.8914
 21
32.7581
  0
LINE
  8
0
 10
48.8914
 20
32.7581
 11
48.8337
 21
32.6912
  0
LINE
  8
0
 10
48.8337
 20
32.6912
 11
48.7728
 21
32.6272
  0
LINE
  8
0
 10
48.7728
 20
32.6272
 11
48.7088
 21
32.5663
  0
LINE
  8
0
 10
48.7088
 20
32.5663
 11
48.6419
 21
32.5086
  0
LINE
  8
0
 10
48.6419
 20
32.5086
 11
48.5723
 21
32.4542
  0
LINE
  8
0
 10
48.5723
 20
32.4542
 11
48.5
 21
32.4034
  0
LINE
  8
0
 10
48.5
 20
32.4034
 11
48.4254
 21
32.3561
  0
LINE
  8
0
 10
48.4254
 20
32.3561
 11
48.3485
 21
32.3125
  0
LINE
  8
0
 10
48.3485
 20
32.3125
 11
48.2696
 21
32.2728
  0
LINE
  8
0
 10
48.2696
 20
32.2728
 11
48.1888
 21
32.237
  0
LINE
  8
0
 10
48.1888
 20
32.237
 11
48.1064
 21
32.2052
  0
LINE
  8
0
 10
48.1064
 20
32.2052
 11
48.0225
 21
32.1775
  0
LINE
  8
0
 10
48.0225
 20
32.1775
 11
47.9374
 21
32.1539
  0
LINE
  8
0
 10
47.9374
 20
32.1539
 11
47.8512
 21
32.1346
  0
LINE
  8
0
 10
47.8512
 20
32.1346
 11
47.7641
 21
32.1195
  0
LINE
  8
0
 10
47.7641
 20
32.1195
 11
47.6764
 21
32.1087
  0
LINE
  8
0
 10
47.6764
 20
32.1087
 11
47.5883
 21
32.1022
  0
LINE
  8
0
 10
47.5883
 20
32.1022
 11
47.5
 21
32.1
  0
LINE
  8
0
 10
47.5
 20
32.1
 11
47.4117
 21
32.1022
  0
LINE
  8
0
 10
47.4117
 20
32.1022
 11
47.3236
 21
32.1087
  0
LINE
  8
0
 10
47.3236
 20
32.1087
 11
47.2359
 21
32.1195
  0
LINE
  8
0
 10
47.2359
 20
32.1195
 11
47.1488
 21
32.1346
  0
LINE
  8
0
 10
47.1488
 20
32.1346
 11
47.0626
 21
32.1539
  0
LINE
  8
0
 10
47.0626
 20
32.1539
 11
46.9775
 21
32.1775
  0
LINE
  8
0
 10
46.9775
 20
32.1775
 11
46.8936
 21
32.2052
  0
LINE
  8
0
 10
46.8936
 20
32.2052
 11
46.8112
 21
32.237
  0
LINE
  8
0
 10
46.8112
 20
32.237
 11
46.7304
 21
32.2728
  0
LINE
  8
0
 10
46.7304
 20
32.2728
 11
46.6515
 21
32.3125
  0
LINE
  8
0
 10
46.6515
 20
32.3125
 11
46.5746
 21
32.3561
  0
LINE
  8
0
 10
46.5746
 20
32.3561
 11
46.5
 21
32.4034
  0
LINE
  8
0
 10
46.5
 20
32.4034
 11
46.4277
 21
32.4542
  0
LINE
  8
0
 10
46.4277
 20
32.4542
 11
46.3581
 21
32.5086
  0
LINE
  8
0
 10
46.3581
 20
32.5086
 11
46.2912
 21
32.5663
  0
LINE
  8
0
 10
46.2912
 20
32.5663
 11
46.2272
 21
32.6272
  0
LINE
  8
0
 10
46.2272
 20
32.6272
 11
46.1663
 21
32.6912
  0
LINE
  8
0
 10
46.1663
 20
32.6912
 11
46.1086
 21
32.7581
  0
LINE
  8
0
 10
46.1086
 20
32.7581
 11
46.0542
 21
32.8277
  0
LINE
  8
0
 10
46.0542
 20
32.8277
 11
46.0034
 21
32.9
  0
LINE
  8
0
 10
46.0034
 20
32.9
 11
45.9561
 21
32.9746
  0
LINE
  8
0
 10
45.9561
 20
32.9746
 11
45.9125
 21
33.0515
  0
LINE
  8
0
 10
45.9125
 20
33.0515
 11
45.8728
 21
33.1304
  0
LINE
  8
0
 10
45.8728
 20
33.1304
 11
45.837
 21
33.2112
  0
LINE
  8
0
 10
45.837
 20
33.2112
 11
45.8052
 21
33.2936
  0
LINE
  8
0
 10
45.8052
 20
33.2936
 11
45.7775
 21
33.3775
  0
LINE
  8
0
 10
45.7775
 20
33.3775
 11
45.7539
 21
33.4626
  0
LINE
  8
0
 10
45.7539
 20
33.4626
 11
45.7346
 21
33.5488
  0
LINE
  8
0
 10
45.7346
 20
33.5488
 11
45.7195
 21
33.6359
  0
LINE
  8
0
 10
45.7195
 20
33.6359
 11
45.7087
 21
33.7236
  0
LINE
  8
0
 10
45.7087
 20
33.7236
 11
45.7022
 21
33.8117
  0
LINE
  8
0
 10
45.7022
 20
33.8117
 11
45.7
 21
33.9
  0
ENDSEC
  0
SECTION
  2
OBJECTS
  0
DICTIONARY
  0
ENDSEC
  0
EOF
