  0
SECTION
  2
BLOCKS
  0
ENDSEC
  0
SECTION
  2
ENTITIES
  0
LINE
  8
0
 10
0
 20
10
 11
0.0240917
 21
9.50932
  0
LINE
  8
0
 10
0.0240917
 20
9.50932
 11
0.0963058
 21
9.01983
  0
LINE
  8
0
 10
0.0963058
 20
9.01983
 11
0.216471
 21
8.5327
  0
LINE
  8
0
 10
0.216471
 20
8.5327
 11
0.384295
 21
8.0491
  0
LINE
  8
0
 10
0.384295
 20
8.0491
 11
0.599376
 21
7.5702
  0
LINE
  8
0
 10
0.599376
 20
7.5702
 11
0.861194
 21
7.09715
  0
LINE
  8
0
 10
0.861194
 20
7.09715
 11
1.16912
 21
6.6311
  0
LINE
  8
0
 10
1.16912
 20
6.6311
 11
1.52241
 21
6.17317
  0
LINE
  8
0
 10
1.52241
 20
6.17317
 11
1.92021
 21
5.72445
  0
LINE
  8
0
 10
1.92021
 20
5.72445
 11
2.36158
 21
5.28603
  0
LINE
  8
0
 10
2.36158
 20
5.28603
 11
2.84543
 21
4.85897
  0
LINE
  8
0
 10
2.84543
 20
4.85897
 11
3.37061
 21
4.4443
  0
LINE
  8
0
 10
3.37061
 20
4.4443
 11
3.93585
 21
4.04301
  0
LINE
  8
0
 10
3.93585
 20
4.04301
 11
4.53979
 21
3.65607
  0
LINE
  8
0
 10
4.53979
 20
3.65607
 11
5.18098
 21
3.28441
  0
LINE
  8
0
 10
5.18098
 20
3.28441
 11
5.85786
 21
2.92893
  0
LINE
  8
0
 10
5.85786
 20
2.92893
 11
6.56882
 21
2.59049
  0
LINE
  8
0
 10
6.56882
 20
2.59049
 11
7.31213
 21
2.2699
  0
LINE
  8
0
 10
7.31213
 20
2.2699
 11
8.08601
 21
1.96793
  0
LINE
  8
0
 10
8.08601
 20
1.96793
 11
8.8886
 21
1.6853
  0
LINE
  8
0
 10
8.8886
 20
1.6853
 11
9.71795
 21
1.42271
  0
LINE
  8
0
 10
9.71795
 20
1.42271
 11
10.5721
 21
1.18079
  0
LINE
  8
0
 10
10.5721
 20
1.18079
 11
11.4489
 21
0.960108
  0
LINE
  8
0
 10
11.4489
 20
0.960108
 11
12.3463
 21
0.761205
  0
LINE
  8
0
 10
12.3463
 20
0.761205
 11
13.2622
 21
0.584559
  0
LINE
  8
0
 10
13.2622
 20
0.584559
 11
14.1943
 21
0.430597
  0
LINE
  8
0
 10
14.1943
 20
0.430597
 11
15.1404
 21
0.299688
  0
LINE
  8
0
 10
15.1404
 20
0.299688
 11
16.0982
 21
0.192147
  0
LINE
  8
0
 10
16.0982
 20
0.192147
 11
17.0654
 21
0.108235
  0
LINE
  8
0
 10
17.0654
 20
0.108235
 11
18.0397
 21
0.0481529
  0
LINE
  8
0
 10
18.0397
 20
0.0481529
 11
19.0186
 21
0.0120459
  0
LINE
  8
0
 10
19.0186
 20
0.0120459
 11
20
 21
0
  0
LINE
  8
0
 10
20
 20
0
 11
20.9814
 21
0.0120459
  0
LINE
  8
0
 10
20.9814
 20
0.0120459
 11
21.9603
 21
0.0481529
  0
LINE
  8
0
 10
21.9603
 20
0.0481529
 11
22.9346
 21
0.108235
  0
LINE
  8
0
 10
22.9346
 20
0.108235
 11
23.9018
 21
0.192147
  0
LINE
  8
0
 10
23.9018
 20
0.192147
 11
24.8596
 21
0.299688
  0
LINE
  8
0
 10
24.8596
 20
0.299688
 11
25.8057
 21
0.430597
  0
LINE
  8
0
 10
25.8057
 20
0.430597
 11
26.7378
 21
0.584559
  0
LINE
  8
0
 10
26.7378
 20
0.584559
 11
27.6537
 21
0.761205
  0
LINE
  8
0
 10
27.6537
 20
0.761205
 11
28.5511
 21
0.960108
  0
LINE
  8
0
 10
28.5511
 20
0.960108
 11
29.4279
 21
1.18079
  0
LINE
  8
0
 10
29.4279
 20
1.18079
 11
30.2821
 21
1.42271
  0
LINE
  8
0
 10
30.2821
 20
1.42271
 11
31.1114
 21
1.6853
  0
LINE
  8
0
 10
31.1114
 20
1.6853
 11
31.914
 21
1.96793
  0
LINE
  8
0
 10
31.914
 20
1.96793
 11
32.6879
 21
2.2699
  0
LINE
  8
0
 10
32.6879
 20
2.2699
 11
33.4312
 21
2.59049
  0
LINE
  8
0
 10
33.4312
 20
2.59049
 11
34.1421
 21
2.92893
  0
LINE
  8
0
 10
34.1421
 20
2.92893
 11
34.819
 21
3.28441
  0
LINE
  8
0
 10
34.819
 20
3.28441
 11
35.4602
 21
3.65607
  0
LINE
  8
0
 10
35.4602
 20
3.65607
 11
36.0641
 21
4.04301
  0
LINE
  8
0
 10
36.0641
 20
4.04301
 11
36.6294
 21
4.4443
  0
LINE
  8
0
 10
36.6294
 20
4.4443
 11
37.1546
 21
4.85897
  0
LINE
  8
0
 10
37.1546
 20
4.85897
 11
37.6384
 21
5.28603
  0
LINE
  8
0
 10
37.6384
 20
5.28603
 11
38.0798
 21
5.72445
  0
LINE
  8
0
 10
38.0798
 20
5.72445
 11
38.4776
 21
6.17317
  0
LINE
  8
0
 10
38.4776
 20
6.17317
 11
38.8309
 21
6.6311
  0
LINE
  8
0
 10
38.8309
 20
6.6311
 11
39.1388
 21
7.09715
  0
LINE
  8
0
 10
39.1388
 20
7.09715
 11
39.4006
 21
7.5702
  0
LINE
  8
0
 10
39.4006
 20
7.5702
 11
39.6157
 21
8.0491
  0
LINE
  8
0
 10
39.6157
 20
8.0491
 11
39.7835
 21
8.5327
  0
LINE
  8
0
 10
39.7835
 20
8.5327
 11
39.9037
 21
9.01983
  0
LINE
  8
0
 10
39.9037
 20
9.01983
 11
39.9759
 21
9.50932
  0
LINE
  8
0
 10
39.9759
 20
9.50932
 11
40
 21
10
  0
LINE
  8
0
 10
40
 20
10
 11
39.9759
 21
10.4907
  0
LINE
  8
0
 10
39.9759
 20
10.4907
 11
39.9037
 21
10.9802
  0
LINE
  8
0
 10
39.9037
 20
10.9802
 11
39.7835
 21
11.4673
  0
LINE
  8
0
 10
39.7835
 20
11.4673
 11
39.6157
 21
11.9509
  0
LINE
  8
0
 10
39.6157
 20
11.9509
 11
39.4006
 21
12.4298
  0
LINE
  8
0
 10
39.4006
 20
12.4298
 11
39.1388
 21
12.9028
  0
LINE
  8
0
 10
39.1388
 20
12.9028
 11
38.8309
 21
13.3689
  0
LINE
  8
0
 10
38.8309
 20
13.3689
 11
38.4776
 21
13.8268
  0
LINE
  8
0
 10
38.4776
 20
13.8268
 11
38.0798
 21
14.2756
  0
LINE
  8
0
 10
38.0798
 20
14.2756
 11
37.6384
 21
14.714
  0
LINE
  8
0
 10
37.6384
 20
14.714
 11
37.1546
 21
15.141
  0
LINE
  8
0
 10
37.1546
 20
15.141
 11
36.6294
 21
15.5557
  0
LINE
  8
0
 10
36.6294
 20
15.5557
 11
36.0641
 21
15.957
  0
LINE
  8
0
 10
36.0641
 20
15.957
 11
35.4602
 21
16.3439
  0
LINE
  8
0
 10
35.4602
 20
16.3439
 11
34.819
 21
16.7156
  0
LINE
  8
0
 10
34.819
 20
16.7156
 11
34.1421
 21
17.0711
  0
LINE
  8
0
 10
34.1421
 20
17.0711
 11
33.4312
 21
17.4095
  0
LINE
  8
0
 10
33.4312
 20
17.4095
 11
32.6879
 21
17.7301
  0
LINE
  8
0
 10
32.6879
 20
17.7301
 11
31.914
 21
18.0321
  0
LINE
  8
0
 10
31.914
 20
18.0321
 11
31.1114
 21
18.3147
  0
LINE
  8
0
 10
31.1114
 20
18.3147
 11
30.2821
 21
18.5773
  0
LINE
  8
0
 10
30.2821
 20
18.5773
 11
29.4279
 21
18.8192
  0
LINE
  8
0
 10
29.4279
 20
18.8192
 11
28.5511
 21
19.0399
  0
LINE
  8
0
 10
28.5511
 20
19.0399
 11
27.6537
 21
19.2388
  0
LINE
  8
0
 10
27.6537
 20
19.2388
 11
26.7378
 21
19.4154
  0
LINE
  8
0
 10
26.7378
 20
19.4154
 11
25.8057
 21
19.5694
  0
LINE
  8
0
 10
25.8057
 20
19.5694
 11
24.8596
 21
19.7003
  0
LINE
  8
0
 10
24.8596
 20
19.7003
 11
23.9018
 21
19.8079
  0
LINE
  8
0
 10
23.9018
 20
19.8079
 11
22.9346
 21
19.8918
  0
LINE
  8
0
 10
22.9346
 20
19.8918
 11
21.9603
 21
19.9518
  0
LINE
  8
0
 10
21.9603
 20
19.9518
 11
20.9814
 21
19.988
  0
LINE
  8
0
 10
20.9814
 20
19.988
 11
20
 21
20
  0
LINE
  8
0
 10
20
 20
20
 11
19.0186
 21
19.988
  0
LINE
  8
0
 10
19.0186
 20
19.988
 11
18.0397
 21
19.9518
  0
LINE
  8
0
 10
18.0397
 20
19.9518
 11
17.0654
 21
19.8918
  0
LINE
  8
0
 10
17.0654
 20
19.8918
 11
16.0982
 21
19.8079
  0
LINE
  8
0
 10
16.0982
 20
19.8079
 11
15.1404
 21
19.7003
  0
LINE
  8
0
 10
15.1404
 20
19.7003
 11
14.1943
 21
19.5694
  0
LINE
  8
0
 10
14.1943
 20
19.5694
 11
13.2622
 21
19.4154
  0
LINE
  8
0
 10
13.2622
 20
19.4154
 11
12.3463
 21
19.2388
  0
LINE
  8
0
 10
12.3463
 20
19.2388
 11
11.4489
 21
19.0399
  0
LINE
  8
0
 10
11.4489
 20
19.0399
 11
10.5721
 21
18.8192
  0
LINE
  8
0
 10
10.5721
 20
18.8192
 11
9.71795
 21
18.5773
  0
LINE
  8
0
 10
9.71795
 20
18.5773
 11
8.8886
 21
18.3147
  0
LINE
  8
0
 10
8.8886
 20
18.3147
 11
8.08601
 21
18.0321
  0
LINE
  8
0
 10
8.08601
 20
18.0321
 11
7.31213
 21
17.7301
  0
LINE
  8
0
 10
7.31213
 20
17.7301
 11
6.56882
 21
17.4095
  0
LINE
  8
0
 10
6.56882
 20
17.4095
 11
5.85786
 21
17.0711
  0
LINE
  8
0
 10
5.85786
 20
17.0711
 11
5.18098
 21
16.7156
  0
LINE
  8
0
 10
5.18098
 20
16.7156
 11
4.53979
 21
16.3439
  0
LINE
  8
0
 10
4.53979
 20
16.3439
 11
3.93585
 21
15.957
  0
LINE
  8
0
 10
3.93585
 20
15.957
 11
3.37061
 21
15.5557
  0
LINE
  8
0
 10
3.37061
 20
15.5557
 11
2.84543
 21
15.141
  0
LINE
  8
0
 10
2.84543
 20
15.141
 11
2.36158
 21
14.714
  0
LINE
  8
0
 10
2.36158
 20
14.714
 11
1.92021
 21
14.2756
  0
LINE
  8
0
 10
1.92021
 20
14.2756
 11
1.52241
 21
13.8268
  0
LINE
  8
0
 10
1.52241
 20
13.8268
 11
1.16912
 21
13.3689
  0
LINE
  8
0
 10
1.16912
 20
13.3689
 11
0.861194
 21
12.9028
  0
LINE
  8
0
 10
0.861194
 20
12.9028
 11
0.599376
 21
12.4298
  0
LINE
  8
0
 10
0.599376
 20
12.4298
 11
0.384295
 21
11.9509
  0
LINE
  8
0
 10
0.384295
 20
11.9509
 11
0.216471
 21
11.4673
  0
LINE
  8
0
 10
0.216471
 20
11.4673
 11
0.0963058
 21
10.9802
  0
LINE
  8
0
 10
0.0963058
 20
10.9802
 11
0.0240917
 21
10.4907
  0
LINE
  8
0
 10
0.0240917
 20
10.4907
 11
0
 21
10
  0
LINE
  8
0
 10
3.3
 20
10
 11
3.30205
 21
10.0834
  0
LINE
  8
0
 10
3.30205
 20
10.0834
 11
3.30819
 21
10.1666
  0
LINE
  8
0
 10
3.30819
 20
10.1666
 11
3.3184
 21
10.2494
  0
LINE
  8
0
 10
3.3184
 20
10.2494
 11
3.33267
 21
10.3317
  0
LINE
  8
0
 10
3.33267
 20
10.3317
 11
3.35095
 21
10.4131
  0
LINE
  8
0
 10
3.35095
 20
10.4131
 11
3.3732
 21
10.4935
  0
LINE
  8
0
 10
3.3732
 20
10.4935
 11
3.39938
 21
10.5727
  0
LINE
  8
0
 10
3.39938
 20
10.5727
 11
3.42941
 21
10.6506
  0
LINE
  8
0
 10
3.42941
 20
10.6506
 11
3.46322
 21
10.7268
  0
LINE
  8
0
 10
3.46322
 20
10.7268
 11
3.50073
 21
10.8014
  0
LINE
  8
0
 10
3.50073
 20
10.8014
 11
3.54186
 21
10.874
  0
LINE
  8
0
 10
3.54186
 20
10.874
 11
3.5865
 21
10.9445
  0
LINE
  8
0
 10
3.5865
 20
10.9445
 11
3.63455
 21
11.0127
  0
LINE
  8
0
 10
3.63455
 20
11.0127
 11
3.68588
 21
11.0785
  0
LINE
  8
0
 10
3.68588
 20
11.0785
 11
3.74038
 21
11.1417
  0
LINE
  8
0
 10
3.74038
 20
11.1417
 11
3.79792
 21
11.2021
  0
LINE
  8
0
 10
3.79792
 20
11.2021
 11
3.85835
 21
11.2596
  0
LINE
  8
0
 10
3.85835
 20
11.2596
 11
3.92153
 21
11.3141
  0
LINE
  8
0
 10
3.92153
 20
11.3141
 11
3.98731
 21
11.3655
  0
LINE
  8
0
 10
3.98731
 20
11.3655
 11
4.05553
 21
11.4135
  0
LINE
  8
0
 10
4.05553
 20
11.4135
 11
4.12603
 21
11.4581
  0
LINE
  8
0
 10
4.12603
 20
11.4581
 11
4.19863
 21
11.4993
  0
LINE
  8
0
 10
4.19863
 20
11.4993
 11
4.27316
 21
11.5368
  0
LINE
  8
0
 10
4.27316
 20
11.5368
 11
4.34944
 21
11.5706
  0
LINE
  8
0
 10
4.34944
 20
11.5706
 11
4.42729
 21
11.6006
  0
LINE
  8
0
 10
4.42729
 20
11.6006
 11
4.50652
 21
11.6268
  0
LINE
  8
0
 10
4.50652
 20
11.6268
 11
4.58693
 21
11.6491
  0
LINE
  8
0
 10
4.58693
 20
11.6491
 11
4.66835
 21
11.6673
  0
LINE
  8
0
 10
4.66835
 20
11.6673
 11
4.75056
 21
11.6816
  0
LINE
  8
0
 10
4.75056
 20
11.6816
 11
4.83337
 21
11.6918
  0
LINE
  8
0
 10
4.83337
 20
11.6918
 11
4.91658
 21
11.698
  0
LINE
  8
0
 10
4.91658
 20
11.698
 11
5
 21
11.7
  0
LINE
  8
0
 10
5
 20
11.7
 11
5.08342
 21
11.698
  0
LINE
  8
0
 10
5.08342
 20
11.698
 11
5.16663
 21
11.6918
  0
LINE
  8
0
 10
5.16663
 20
11.6918
 11
5.24944
 21
11.6816
  0
LINE
  8
0
 10
5.24944
 20
11.6816
 11
5.33165
 21
11.6673
  0
LINE
  8
0
 10
5.33165
 20
11.6673
 11
5.41307
 21
11.6491
  0
LINE
  8
0
 10
5.41307
 20
11.6491
 11
5.49348
 21
11.6268
  0
LINE
  8
0
 10
5.49348
 20
11.6268
 11
5.57271
 21
11.6006
  0
LINE
  8
0
 10
5.57271
 20
11.6006
 11
5.65056
 21
11.5706
  0
LINE
  8
0
 10
5.65056
 20
11.5706
 11
5.72684
 21
11.5368
  0
LINE
  8
0
 10
5.72684
 20
11.5368
 11
5.80138
 21
11.4993
  0
LINE
  8
0
 10
5.80138
 20
11.4993
 11
5.87397
 21
11.4581
  0
LINE
  8
0
 10
5.87397
 20
11.4581
 11
5.94447
 21
11.4135
  0
LINE
  8
0
 10
5.94447
 20
11.4135
 11
6.01269
 21
11.3655
  0
LINE
  8
0
 10
6.01269
 20
11.3655
 11
6.07847
 21
11.3141
  0
LINE
  8
0
 10
6.07847
 20
11.3141
 11
6.14165
 21
11.2596
  0
LINE
  8
0
 10
6.14165
 20
11.2596
 11
6.20208
 21
11.2021
  0
LINE
  8
0
 10
6.20208
 20
11.2021
 11
6.25962
 21
11.1417
  0
LINE
  8
0
 10
6.25962
 20
11.1417
 11
6.31412
 21
11.0785
  0
LINE
  8
0
 10
6.31412
 20
11.0785
 11
6.36545
 21
11.0127
  0
LINE
  8
0
 10
6.36545
 20
11.0127
 11
6.4135
 21
10.9445
  0
LINE
  8
0
 10
6.4135
 20
10.9445
 11
6.45814
 21
10.874
  0
LINE
  8
0
 10
6.45814
 20
10.874
 11
6.49927
 21
10.8014
  0
LINE
  8
0
 10
6.49927
 20
10.8014
 11
6.53678
 21
10.7268
  0
LINE
  8
0
 10
6.53678
 20
10.7268
 11
6.5706
 21
10.6506
  0
LINE
  8
0
 10
6.5706
 20
10.6506
 11
6.60063
 21
10.5727
  0
LINE
  8
0
 10
6.60063
 20
10.5727
 11
6.6268
 21
10.4935
  0
LINE
  8
0
 10
6.6268
 20
10.4935
 11
6.64905
 21
10.4131
  0
LINE
  8
0
 10
6.64905
 20
10.4131
 11
6.66734
 21
10.3317
  0
LINE
  8
0
 10
6.66734
 20
10.3317
 11
6.6816
 21
10.2494
  0
LINE
  8
0
 10
6.6816
 20
10.2494
 11
6.69181
 21
10.1666
  0
LINE
  8
0
 10
6.69181
 20
10.1666
 11
6.69795
 21
10.0834
  0
LINE
  8
0
 10
6.69795
 20
10.0834
 11
6.7
 21
10
  0
LINE
  8
0
 10
6.7
 20
10
 11
6.69795
 21
9.91658
  0
LINE
  8
0
 10
6.69795
 20
9.91658
 11
6.69181
 21
9.83337
  0
LINE
  8
0
 10
6.69181
 20
9.83337
 11
6.6816
 21
9.75056
  0
LINE
  8
0
 10
6.6816
 20
9.75056
 11
6.66734
 21
9.66835
  0
LINE
  8
0
 10
6.66734
 20
9.66835
 11
6.64905
 21
9.58693
  0
LINE
  8
0
 10
6.64905
 20
9.58693
 11
6.6268
 21
9.50652
  0
LINE
  8
0
 10
6.6268
 20
9.50652
 11
6.60063
 21
9.42729
  0
LINE
  8
0
 10
6.60063
 20
9.42729
 11
6.5706
 21
9.34944
  0
LINE
  8
0
 10
6.5706
 20
9.34944
 11
6.53678
 21
9.27316
  0
LINE
  8
0
 10
6.53678
 20
9.27316
 11
6.49927
 21
9.19863
  0
LINE
  8
0
 10
6.49927
 20
9.19863
 11
6.45814
 21
9.12603
  0
LINE
  8
0
 10
6.45814
 20
9.12603
 11
6.4135
 21
9.05553
  0
LINE
  8
0
 10
6.4135
 20
9.05553
 11
6.36545
 21
8.98731
  0
LINE
  8
0
 10
6.36545
 20
8.98731
 11
6.31412
 21
8.92153
  0
LINE
  8
0
 10
6.31412
 20
8.92153
 11
6.25962
 21
8.85835
  0
LINE
  8
0
 10
6.25962
 20
8.85835
 11
6.20208
 21
8.79792
  0
LINE
  8
0
 10
6.20208
 20
8.79792
 11
6.14165
 21
8.74038
  0
LINE
  8
0
 10
6.14165
 20
8.74038
 11
6.07847
 21
8.68588
  0
LINE
  8
0
 10
6.07847
 20
8.68588
 11
6.01269
 21
8.63455
  0
LINE
  8
0
 10
6.01269
 20
8.63455
 11
5.94447
 21
8.5865
  0
LINE
  8
0
 10
5.94447
 20
8.5865
 11
5.87397
 21
8.54186
  0
LINE
  8
0
 10
5.87397
 20
8.54186
 11
5.80138
 21
8.50073
  0
LINE
  8
0
 10
5.80138
 20
8.50073
 11
5.72684
 21
8.46322
  0
LINE
  8
0
 10
5.72684
 20
8.46322
 11
5.65056
 21
8.42941
  0
LINE
  8
0
 10
5.65056
 20
8.42941
 11
5.57271
 21
8.39938
  0
LINE
  8
0
 10
5.57271
 20
8.39938
 11
5.49348
 21
8.3732
  0
LINE
  8
0
 10
5.49348
 20
8.3732
 11
5.41307
 21
8.35095
  0
LINE
  8
0
 10
5.41307
 20
8.35095
 11
5.33165
 21
8.33267
  0
LINE
  8
0
 10
5.33165
 20
8.33267
 11
5.24944
 21
8.3184
  0
LINE
  8
0
 10
5.24944
 20
8.3184
 11
5.16663
 21
8.30819
  0
LINE
  8
0
 10
5.16663
 20
8.30819
 11
5.08342
 21
8.30205
  0
LINE
  8
0
 10
5.08342
 20
8.30205
 11
5
 21
8.3
  0
LINE
  8
0
 10
5
 20
8.3
 11
4.91658
 21
8.30205
  0
LINE
  8
0
 10
4.91658
 20
8.30205
 11
4.83337
 21
8.30819
  0
LINE
  8
0
 10
4.83337
 20
8.30819
 11
4.75056
 21
8.3184
  0
LINE
  8
0
 10
4.75056
 20
8.3184
 11
4.66835
 21
8.33267
  0
LINE
  8
0
 10
4.66835
 20
8.33267
 11
4.58693
 21
8.35095
  0
LINE
  8
0
 10
4.58693
 20
8.35095
 11
4.50652
 21
8.3732
  0
LINE
  8
0
 10
4.50652
 20
8.3732
 11
4.42729
 21
8.39938
  0
LINE
  8
0
 10
4.42729
 20
8.39938
 11
4.34944
 21
8.42941
  0
LINE
  8
0
 10
4.34944
 20
8.42941
 11
4.27316
 21
8.46322
  0
LINE
  8
0
 10
4.27316
 20
8.46322
 11
4.19863
 21
8.50073
  0
LINE
  8
0
 10
4.19863
 20
8.50073
 11
4.12603
 21
8.54186
  0
LINE
  8
0
 10
4.12603
 20
8.54186
 11
4.05553
 21
8.5865
  0
LINE
  8
0
 10
4.05553
 20
8.5865
 11
3.98731
 21
8.63455
  0
LINE
  8
0
 10
3.98731
 20
8.63455
 11
3.92153
 21
8.68588
  0
LINE
  8
0
 10
3.92153
 20
8.68588
 11
3.85835
 21
8.74038
  0
LINE
  8
0
 10
3.85835
 20
8.74038
 11
3.79792
 21
8.79792
  0
LINE
  8
0
 10
3.79792
 20
8.79792
 11
3.74038
 21
8.85835
  0
LINE
  8
0
 10
3.74038
 20
8.85835
 11
3.68588
 21
8.92153
  0
LINE
  8
0
 10
3.68588
 20
8.92153
 11
3.63455
 21
8.98731
  0
LINE
  8
0
 10
3.63455
 20
8.98731
 11
3.5865
 21
9.05553
  0
LINE
  8
0
 10
3.5865
 20
9.05553
 11
3.54186
 21
9.12603
  0
LINE
  8
0
 10
3.54186
 20
9.12603
 11
3.50073
 21
9.19863
  0
LINE
  8
0
 10
3.50073
 20
9.19863
 11
3.46322
 21
9.27316
  0
LINE
  8
0
 10
3.46322
 20
9.27316
 11
3.42941
 21
9.34944
  0
LINE
  8
0
 10
3.42941
 20
9.34944
 11
3.39938
 21
9.42729
  0
LINE
  8
0
 10
3.39938
 20
9.42729
 11
3.3732
 21
9.50652
  0
LINE
  8
0
 10
3.3732
 20
9.50652
 11
3.35095
 21
9.58693
  0
LINE
  8
0
 10
3.35095
 20
9.58693
 11
3.33267
 21
9.66835
  0
LINE
  8
0
 10
3.33267
 20
9.66835
 11
3.3184
 21
9.75056
  0
LINE
  8
0
 10
3.3184
 20
9.75056
 11
3.30819
 21
9.83337
  0
LINE
  8
0
 10
3.30819
 20
9.83337
 11
3.30205
 21
9.91658
  0
LINE
  8
0
 10
3.30205
 20
9.91658
 11
3.3
 21
10
  0
LINE
  8
0
 10
15.1075
 20
10
 11
15.108
 21
10.0198
  0
LINE
  8
0
 10
15.108
 20
10.0198
 11
15.1134
 21
10.2401
  0
LINE
  8
0
 10
15.1134
 20
10.2401
 11
15.1296
 21
10.4598
  0
LINE
  8
0
 10
15.1296
 20
10.4598
 11
15.131
 21
10.4796
  0
LINE
  8
0
 10
15.131
 20
10.4796
 11
15.158
 21
10.6983
  0
LINE
  8
0
 10
15.158
 20
10.6983
 11
15.1604
 21
10.7179
  0
LINE
  8
0
 10
15.1604
 20
10.7179
 11
15.1638
 21
10.7374
  0
LINE
  8
0
 10
15.1638
 20
10.7374
 11
15.2015
 21
10.9545
  0
LINE
  8
0
 10
15.2015
 20
10.9545
 11
15.2058
 21
10.9738
  0
LINE
  8
0
 10
15.2058
 20
10.9738
 11
15.2541
 21
11.1888
  0
LINE
  8
0
 10
15.2541
 20
11.1888
 11
15.3129
 21
11.4012
  0
LINE
  8
0
 10
15.3129
 20
11.4012
 11
15.3182
 21
11.4202
  0
LINE
  8
0
 10
15.3182
 20
11.4202
 11
15.3873
 21
11.6295
  0
LINE
  8
0
 10
15.3873
 20
11.6295
 11
15.3935
 21
11.6482
  0
LINE
  8
0
 10
15.3935
 20
11.6482
 11
15.4006
 21
11.6667
  0
LINE
  8
0
 10
15.4006
 20
11.6667
 11
15.4799
 21
11.8723
  0
LINE
  8
0
 10
15.4799
 20
11.8723
 11
15.4879
 21
11.8904
  0
LINE
  8
0
 10
15.4879
 20
11.8904
 11
15.5772
 21
12.0918
  0
LINE
  8
0
 10
15.5772
 20
12.0918
 11
15.5861
 21
12.1095
  0
LINE
  8
0
 10
15.5861
 20
12.1095
 11
15.6852
 21
12.3063
  0
LINE
  8
0
 10
15.6852
 20
12.3063
 11
15.7938
 21
12.4981
  0
LINE
  8
0
 10
15.7938
 20
12.4981
 11
15.8035
 21
12.5153
  0
LINE
  8
0
 10
15.8035
 20
12.5153
 11
15.8141
 21
12.532
  0
LINE
  8
0
 10
15.8141
 20
12.532
 11
15.932
 21
12.7181
  0
LINE
  8
0
 10
15.932
 20
12.7181
 11
16.0589
 21
12.8983
  0
LINE
  8
0
 10
16.0589
 20
12.8983
 11
16.0703
 21
12.9145
  0
LINE
  8
0
 10
16.0703
 20
12.9145
 11
16.0825
 21
12.9301
  0
LINE
  8
0
 10
16.0825
 20
12.9301
 11
16.218
 21
13.1038
  0
LINE
  8
0
 10
16.218
 20
13.1038
 11
16.362
 21
13.2706
  0
LINE
  8
0
 10
16.362
 20
13.2706
 11
16.3749
 21
13.2856
  0
LINE
  8
0
 10
16.3749
 20
13.2856
 11
16.3885
 21
13.2999
  0
LINE
  8
0
 10
16.3885
 20
13.2999
 11
16.5405
 21
13.4595
  0
LINE
  8
0
 10
16.5405
 20
13.4595
 11
16.7001
 21
13.6115
  0
LINE
  8
0
 10
16.7001
 20
13.6115
 11
16.7144
 21
13.6251
  0
LINE
  8
0
 10
16.7144
 20
13.6251
 11
16.7294
 21
13.638
  0
LINE
  8
0
 10
16.7294
 20
13.638
 11
16.8962
 21
13.782
  0
LINE
  8
0
 10
16.8962
 20
13.782
 11
17.0699
 21
13.9175
  0
LINE
  8
0
 10
17.0699
 20
13.9175
 11
17.0855
 21
13.9297
  0
LINE
  8
0
 10
17.0855
 20
13.9297
 11
17.1017
 21
13.9411
  0
LINE
  8
0
 10
17.1017
 20
13.9411
 11
17.2819
 21
14.068
  0
LINE
  8
0
 10
17.2819
 20
14.068
 11
17.468
 21
14.1859
  0
LINE
  8
0
 10
17.468
 20
14.1859
 11
17.4847
 21
14.1965
  0
LINE
  8
0
 10
17.4847
 20
14.1965
 11
17.5019
 21
14.2062
  0
LINE
  8
0
 10
17.5019
 20
14.2062
 11
17.6937
 21
14.3148
  0
LINE
  8
0
 10
17.6937
 20
14.3148
 11
17.8905
 21
14.4139
  0
LINE
  8
0
 10
17.8905
 20
14.4139
 11
17.9082
 21
14.4228
  0
LINE
  8
0
 10
17.9082
 20
14.4228
 11
18.1096
 21
14.5121
  0
LINE
  8
0
 10
18.1096
 20
14.5121
 11
18.1277
 21
14.5201
  0
LINE
  8
0
 10
18.1277
 20
14.5201
 11
18.3333
 21
14.5994
  0
LINE
  8
0
 10
18.3333
 20
14.5994
 11
18.3518
 21
14.6065
  0
LINE
  8
0
 10
18.3518
 20
14.6065
 11
18.3705
 21
14.6127
  0
LINE
  8
0
 10
18.3705
 20
14.6127
 11
18.5798
 21
14.6818
  0
LINE
  8
0
 10
18.5798
 20
14.6818
 11
18.5988
 21
14.6871
  0
LINE
  8
0
 10
18.5988
 20
14.6871
 11
18.8112
 21
14.7459
  0
LINE
  8
0
 10
18.8112
 20
14.7459
 11
19.0262
 21
14.7942
  0
LINE
  8
0
 10
19.0262
 20
14.7942
 11
19.0455
 21
14.7985
  0
LINE
  8
0
 10
19.0455
 20
14.7985
 11
19.2626
 21
14.8362
  0
LINE
  8
0
 10
19.2626
 20
14.8362
 11
19.2821
 21
14.8396
  0
LINE
  8
0
 10
19.2821
 20
14.8396
 11
19.3017
 21
14.842
  0
LINE
  8
0
 10
19.3017
 20
14.842
 11
19.5204
 21
14.869
  0
LINE
  8
0
 10
19.5204
 20
14.869
 11
19.5402
 21
14.8704
  0
LINE
  8
0
 10
19.5402
 20
14.8704
 11
19.7599
 21
14.8866
  0
LINE
  8
0
 10
19.7599
 20
14.8866
 11
19.9802
 21
14.892
  0
LINE
  8
0
 10
19.9802
 20
14.892
 11
20
 21
14.8925
  0
LINE
  8
0
 10
20
 20
14.8925
 11
20.0198
 21
14.892
  0
LINE
  8
0
 10
20.0198
 20
14.892
 11
20.2401
 21
14.8866
  0
LINE
  8
0
 10
20.2401
 20
14.8866
 11
20.4598
 21
14.8704
  0
LINE
  8
0
 10
20.4598
 20
14.8704
 11
20.4796
 21
14.869
  0
LINE
  8
0
 10
20.4796
 20
14.869
 11
20.6983
 21
14.842
  0
LINE
  8
0
 10
20.6983
 20
14.842
 11
20.7179
 21
14.8396
  0
LINE
  8
0
 10
20.7179
 20
14.8396
 11
20.7374
 21
14.8362
  0
LINE
  8
0
 10
20.7374
 20
14.8362
 11
20.9545
 21
14.7985
  0
LINE
  8
0
 10
20.9545
 20
14.7985
 11
20.9738
 21
14.7942
  0
LINE
  8
0
 10
20.9738
 20
14.7942
 11
21.1888
 21
14.7459
  0
LINE
  8
0
 10
21.1888
 20
14.7459
 11
21.4012
 21
14.6871
  0
LINE
  8
0
 10
21.4012
 20
14.6871
 11
21.4202
 21
14.6818
  0
LINE
  8
0
 10
21.4202
 20
14.6818
 11
21.6295
 21
14.6127
  0
LINE
  8
0
 10
21.6295
 20
14.6127
 11
21.6482
 21
14.6065
  0
LINE
  8
0
 10
21.6482
 20
14.6065
 11
21.6667
 21
14.5994
  0
LINE
  8
0
 10
21.6667
 20
14.5994
 11
21.8723
 21
14.5201
  0
LINE
  8
0
 10
21.8723
 20
14.5201
 11
21.8904
 21
14.5121
  0
LINE
  8
0
 10
21.8904
 20
14.5121
 11
22.0918
 21
14.4228
  0
LINE
  8
0
 10
22.0918
 20
14.4228
 11
22.1095
 21
14.4139
  0
LINE
  8
0
 10
22.1095
 20
14.4139
 11
22.3063
 21
14.3148
  0
LINE
  8
0
 10
22.3063
 20
14.3148
 11
22.4981
 21
14.2062
  0
LINE
  8
0
 10
22.4981
 20
14.2062
 11
22.5153
 21
14.1965
  0
LINE
  8
0
 10
22.5153
 20
14.1965
 11
22.532
 21
14.1859
  0
LINE
  8
0
 10
22.532
 20
14.1859
 11
22.7181
 21
14.068
  0
LINE
  8
0
 10
22.7181
 20
14.068
 11
22.8983
 21
13.9411
  0
LINE
  8
0
 10
22.8983
 20
13.9411
 11
22.9145
 21
13.9297
  0
LINE
  8
0
 10
22.9145
 20
13.9297
 11
22.9301
 21
13.9175
  0
LINE
  8
0
 10
22.9301
 20
13.9175
 11
23.1038
 21
13.782
  0
LINE
  8
0
 10
23.1038
 20
13.782
 11
23.2706
 21
13.638
  0
LINE
  8
0
 10
23.2706
 20
13.638
 11
23.2856
 21
13.6251
  0
LINE
  8
0
 10
23.2856
 20
13.6251
 11
23.2999
 21
13.6115
  0
LINE
  8
0
 10
23.2999
 20
13.6115
 11
23.4595
 21
13.4595
  0
LINE
  8
0
 10
23.4595
 20
13.4595
 11
23.6115
 21
13.2999
  0
LINE
  8
0
 10
23.6115
 20
13.2999
 11
23.6251
 21
13.2856
  0
LINE
  8
0
 10
23.6251
 20
13.2856
 11
23.638
 21
13.2706
  0
LINE
  8
0
 10
23.638
 20
13.2706
 11
23.782
 21
13.1038
  0
LINE
  8
0
 10
23.782
 20
13.1038
 11
23.9175
 21
12.9301
  0
LINE
  8
0
 10
23.9175
 20
12.9301
 11
23.9297
 21
12.9145
  0
LINE
  8
0
 10
23.9297
 20
12.9145
 11
23.9411
 21
12.8983
  0
LINE
  8
0
 10
23.9411
 20
12.8983
 11
24.068
 21
12.7181
  0
LINE
  8
0
 10
24.068
 20
12.7181
 11
24.1859
 21
12.532
  0
LINE
  8
0
 10
24.1859
 20
12.532
 11
24.1965
 21
12.5153
  0
LINE
  8
0
 10
24.1965
 20
12.5153
 11
24.2062
 21
12.4981
  0
LINE
  8
0
 10
24.2062
 20
12.4981
 11
24.3148
 21
12.3063
  0
LINE
  8
0
 10
24.3148
 20
12.3063
 11
24.4139
 21
12.1095
  0
LINE
  8
0
 10
24.4139
 20
12.1095
 11
24.4228
 21
12.0918
  0
LINE
  8
0
 10
24.4228
 20
12.0918
 11
24.5121
 21
11.8904
  0
LINE
  8
0
 10
24.5121
 20
11.8904
 11
24.5201
 21
11.8723
  0
LINE
  8
0
 10
24.5201
 20
11.8723
 11
24.5994
 21
11.6667
  0
LINE
  8
0
 10
24.5994
 20
11.6667
 11
24.6065
 21
11.6482
  0
LINE
  8
0
 10
24.6065
 20
11.6482
 11
24.6127
 21
11.6295
  0
LINE
  8
0
 10
24.6127
 20
11.6295
 11
24.6818
 21
11.4202
  0
LINE
  8
0
 10
24.6818
 20
11.4202
 11
24.6871
 21
11.4012
  0
LINE
  8
0
 10
24.6871
 20
11.4012
 11
24.7459
 21
11.1888
  0
LINE
  8
0
 10
24.7459
 20
11.1888
 11
24.7942
 21
10.9738
  0
LINE
  8
0
 10
24.7942
 20
10.9738
 11
24.7985
 21
10.9545
  0
LINE
  8
0
 10
24.7985
 20
10.9545
 11
24.8362
 21
10.7374
  0
LINE
  8
0
 10
24.8362
 20
10.7374
 11
24.8396
 21
10.7179
  0
LINE
  8
0
 10
24.8396
 20
10.7179
 11
24.842
 21
10.6983
  0
LINE
  8
0
 10
24.842
 20
10.6983
 11
24.869
 21
10.4796
  0
LINE
  8
0
 10
24.869
 20
10.4796
 11
24.8704
 21
10.4598
  0
LINE
  8
0
 10
24.8704
 20
10.4598
 11
24.8866
 21
10.2401
  0
LINE
  8
0
 10
24.8866
 20
10.2401
 11
24.892
 21
10.0198
  0
LINE
  8
0
 10
24.892
 20
10.0198
 11
24.8925
 21
10
  0
LINE
  8
0
 10
24.8925
 20
10
 11
24.892
 21
9.98024
  0
LINE
  8
0
 10
24.892
 20
9.98024
 11
24.8866
 21
9.75994
  0
LINE
  8
0
 10
24.8866
 20
9.75994
 11
24.8704
 21
9.54016
  0
LINE
  8
0
 10
24.8704
 20
9.54016
 11
24.869
 21
9.52045
  0
LINE
  8
0
 10
24.869
 20
9.52045
 11
24.842
 21
9.30174
  0
LINE
  8
0
 10
24.842
 20
9.30174
 11
24.8396
 21
9.28212
  0
LINE
  8
0
 10
24.8396
 20
9.28212
 11
24.8362
 21
9.26264
  0
LINE
  8
0
 10
24.8362
 20
9.26264
 11
24.7985
 21
9.04552
  0
LINE
  8
0
 10
24.7985
 20
9.04552
 11
24.7942
 21
9.02623
  0
LINE
  8
0
 10
24.7942
 20
9.02623
 11
24.7459
 21
8.81122
  0
LINE
  8
0
 10
24.7459
 20
8.81122
 11
24.6871
 21
8.59883
  0
LINE
  8
0
 10
24.6871
 20
8.59883
 11
24.6818
 21
8.57978
  0
LINE
  8
0
 10
24.6818
 20
8.57978
 11
24.6127
 21
8.37053
  0
LINE
  8
0
 10
24.6127
 20
8.37053
 11
24.6065
 21
8.35176
  0
LINE
  8
0
 10
24.6065
 20
8.35176
 11
24.5994
 21
8.33332
  0
LINE
  8
0
 10
24.5994
 20
8.33332
 11
24.5201
 21
8.12772
  0
LINE
  8
0
 10
24.5201
 20
8.12772
 11
24.5121
 21
8.10964
  0
LINE
  8
0
 10
24.5121
 20
8.10964
 11
24.4228
 21
7.90818
  0
LINE
  8
0
 10
24.4228
 20
7.90818
 11
24.4139
 21
7.89052
  0
LINE
  8
0
 10
24.4139
 20
7.89052
 11
24.3148
 21
7.69368
  0
LINE
  8
0
 10
24.3148
 20
7.69368
 11
24.2062
 21
7.50194
  0
LINE
  8
0
 10
24.2062
 20
7.50194
 11
24.1965
 21
7.48474
  0
LINE
  8
0
 10
24.1965
 20
7.48474
 11
24.1859
 21
7.46804
  0
LINE
  8
0
 10
24.1859
 20
7.46804
 11
24.068
 21
7.28186
  0
LINE
  8
0
 10
24.068
 20
7.28186
 11
23.9411
 21
7.10169
  0
LINE
  8
0
 10
23.9411
 20
7.10169
 11
23.9297
 21
7.08553
  0
LINE
  8
0
 10
23.9297
 20
7.08553
 11
23.9175
 21
7.06995
  0
LINE
  8
0
 10
23.9175
 20
7.06995
 11
23.782
 21
6.89622
  0
LINE
  8
0
 10
23.782
 20
6.89622
 11
23.638
 21
6.72935
  0
LINE
  8
0
 10
23.638
 20
6.72935
 11
23.6251
 21
6.71439
  0
LINE
  8
0
 10
23.6251
 20
6.71439
 11
23.6115
 21
6.70007
  0
LINE
  8
0
 10
23.6115
 20
6.70007
 11
23.4595
 21
6.54047
  0
LINE
  8
0
 10
23.4595
 20
6.54047
 11
23.2999
 21
6.38851
  0
LINE
  8
0
 10
23.2999
 20
6.38851
 11
23.2856
 21
6.37488
  0
LINE
  8
0
 10
23.2856
 20
6.37488
 11
23.2706
 21
6.36197
  0
LINE
  8
0
 10
23.2706
 20
6.36197
 11
23.1038
 21
6.21803
  0
LINE
  8
0
 10
23.1038
 20
6.21803
 11
22.9301
 21
6.08246
  0
LINE
  8
0
 10
22.9301
 20
6.08246
 11
22.9145
 21
6.07029
  0
LINE
  8
0
 10
22.9145
 20
6.07029
 11
22.8983
 21
6.05891
  0
LINE
  8
0
 10
22.8983
 20
6.05891
 11
22.7181
 21
5.93202
  0
LINE
  8
0
 10
22.7181
 20
5.93202
 11
22.532
 21
5.81412
  0
LINE
  8
0
 10
22.532
 20
5.81412
 11
22.5153
 21
5.80355
  0
LINE
  8
0
 10
22.5153
 20
5.80355
 11
22.4981
 21
5.79381
  0
LINE
  8
0
 10
22.4981
 20
5.79381
 11
22.3063
 21
5.68519
  0
LINE
  8
0
 10
22.3063
 20
5.68519
 11
22.1095
 21
5.5861
  0
LINE
  8
0
 10
22.1095
 20
5.5861
 11
22.0918
 21
5.57722
  0
LINE
  8
0
 10
22.0918
 20
5.57722
 11
21.8904
 21
5.48791
  0
LINE
  8
0
 10
21.8904
 20
5.48791
 11
21.8723
 21
5.4799
  0
LINE
  8
0
 10
21.8723
 20
5.4799
 11
21.6667
 21
5.40059
  0
LINE
  8
0
 10
21.6667
 20
5.40059
 11
21.6482
 21
5.39348
  0
LINE
  8
0
 10
21.6482
 20
5.39348
 11
21.6295
 21
5.38728
  0
LINE
  8
0
 10
21.6295
 20
5.38728
 11
21.4202
 21
5.31815
  0
LINE
  8
0
 10
21.4202
 20
5.31815
 11
21.4012
 21
5.31288
  0
LINE
  8
0
 10
21.4012
 20
5.31288
 11
21.1888
 21
5.25411
  0
LINE
  8
0
 10
21.1888
 20
5.25411
 11
20.9738
 21
5.20582
  0
LINE
  8
0
 10
20.9738
 20
5.20582
 11
20.9545
 21
5.20149
  0
LINE
  8
0
 10
20.9545
 20
5.20149
 11
20.7374
 21
5.16382
  0
LINE
  8
0
 10
20.7374
 20
5.16382
 11
20.7179
 21
5.16044
  0
LINE
  8
0
 10
20.7179
 20
5.16044
 11
20.6983
 21
5.15802
  0
LINE
  8
0
 10
20.6983
 20
5.15802
 11
20.4796
 21
5.13104
  0
LINE
  8
0
 10
20.4796
 20
5.13104
 11
20.4598
 21
5.12959
  0
LINE
  8
0
 10
20.4598
 20
5.12959
 11
20.2401
 21
5.11338
  0
LINE
  8
0
 10
20.2401
 20
5.11338
 11
20.0198
 21
5.10797
  0
LINE
  8
0
 10
20.0198
 20
5.10797
 11
20
 21
5.10748
  0
LINE
  8
0
 10
20
 20
5.10748
 11
19.9802
 21
5.10797
  0
LINE
  8
0
 10
19.9802
 20
5.10797
 11
19.7599
 21
5.11338
  0
LINE
  8
0
 10
19.7599
 20
5.11338
 11
19.5402
 21
5.12959
  0
LINE
  8
0
 10
19.5402
 20
5.12959
 11
19.5204
 21
5.13104
  0
LINE
  8
0
 10
19.5204
 20
5.13104
 11
19.3017
 21
5.15802
  0
LINE
  8
0
 10
19.3017
 20
5.15802
 11
19.2821
 21
5.16044
  0
LINE
  8
0
 10
19.2821
 20
5.16044
 11
19.2626
 21
5.16382
  0
LINE
  8
0
 10
19.2626
 20
5.16382
 11
19.0455
 21
5.20149
  0
LINE
  8
0
 10
19.0455
 20
5.20149
 11
19.0262
 21
5.20582
  0
LINE
  8
0
 10
19.0262
 20
5.20582
 11
18.8112
 21
5.25411
  0
LINE
  8
0
 10
18.8112
 20
5.25411
 11
18.5988
 21
5.31288
  0
LINE
  8
0
 10
18.5988
 20
5.31288
 11
18.5798
 21
5.31815
  0
LINE
  8
0
 10
18.5798
 20
5.31815
 11
18.3705
 21
5.38728
  0
LINE
  8
0
 10
18.3705
 20
5.38728
 11
18.3518
 21
5.39348
  0
LINE
  8
0
 10
18.3518
 20
5.39348
 11
18.3333
 21
5.40059
  0
LINE
  8
0
 10
18.3333
 20
5.40059
 11
18.1277
 21
5.4799
  0
LINE
  8
0
 10
18.1277
 20
5.4799
 11
18.1096
 21
5.48791
  0
LINE
  8
0
 10
18.1096
 20
5.48791
 11
17.9082
 21
5.57722
  0
LINE
  8
0
 10
17.9082
 20
5.57722
 11
17.8905
 21
5.5861
  0
LINE
  8
0
 10
17.8905
 20
5.5861
 11
17.6937
 21
5.68519
  0
LINE
  8
0
 10
17.6937
 20
5.68519
 11
17.5019
 21
5.79381
  0
LINE
  8
0
 10
17.5019
 20
5.79381
 11
17.4847
 21
5.80355
  0
LINE
  8
0
 10
17.4847
 20
5.80355
 11
17.468
 21
5.81412
  0
LINE
  8
0
 10
17.468
 20
5.81412
 11
17.2819
 21
5.93202
  0
LINE
  8
0
 10
17.2819
 20
5.93202
 11
17.1017
 21
6.05891
  0
LINE
  8
0
 10
17.1017
 20
6.05891
 11
17.0855
 21
6.07029
  0
LINE
  8
0
 10
17.0855
 20
6.07029
 11
17.0699
 21
6.08246
  0
LINE
  8
0
 10
17.0699
 20
6.08246
 11
16.8962
 21
6.21803
  0
LINE
  8
0
 10
16.8962
 20
6.21803
 11
16.7294
 21
6.36197
  0
LINE
  8
0
 10
16.7294
 20
6.36197
 11
16.7144
 21
6.37488
  0
LINE
  8
0
 10
16.7144
 20
6.37488
 11
16.7001
 21
6.38851
  0
LINE
  8
0
 10
16.7001
 20
6.38851
 11
16.5405
 21
6.54047
  0
LINE
  8
0
 10
16.5405
 20
6.54047
 11
16.3885
 21
6.70007
  0
LINE
  8
0
 10
16.3885
 20
6.70007
 11
16.3749
 21
6.71439
  0
LINE
  8
0
 10
16.3749
 20
6.71439
 11
16.362
 21
6.72935
  0
LINE
  8
0
 10
16.362
 20
6.72935
 11
16.218
 21
6.89622
  0
LINE
  8
0
 10
16.218
 20
6.89622
 11
16.0825
 21
7.06995
  0
LINE
  8
0
 10
16.0825
 20
7.06995
 11
16.0703
 21
7.08553
  0
LINE
  8
0
 10
16.0703
 20
7.08553
 11
16.0589
 21
7.10169
  0
LINE
  8
0
 10
16.0589
 20
7.10169
 11
15.932
 21
7.28186
  0
LINE
  8
0
 10
15.932
 20
7.28186
 11
15.8141
 21
7.46804
  0
LINE
  8
0
 10
15.8141
 20
7.46804
 11
15.8035
 21
7.48474
  0
LINE
  8
0
 10
15.8035
 20
7.48474
 11
15.7938
 21
7.50194
  0
LINE
  8
0
 10
15.7938
 20
7.50194
 11
15.6852
 21
7.69368
  0
LINE
  8
0
 10
15.6852
 20
7.69368
 11
15.5861
 21
7.89052
  0
LINE
  8
0
 10
15.5861
 20
7.89052
 11
15.5772
 21
7.90818
  0
LINE
  8
0
 10
15.5772
 20
7.90818
 11
15.4879
 21
8.10964
  0
LINE
  8
0
 10
15.4879
 20
8.10964
 11
15.4799
 21
8.12772
  0
LINE
  8
0
 10
15.4799
 20
8.12772
 11
15.4006
 21
8.33332
  0
LINE
  8
0
 10
15.4006
 20
8.33332
 11
15.3935
 21
8.35176
  0
LINE
  8
0
 10
15.3935
 20
8.35176
 11
15.3873
 21
8.37053
  0
LINE
  8
0
 10
15.3873
 20
8.37053
 11
15.3182
 21
8.57978
  0
LINE
  8
0
 10
15.3182
 20
8.57978
 11
15.3129
 21
8.59883
  0
LINE
  8
0
 10
15.3129
 20
8.59883
 11
15.2541
 21
8.81122
  0
LINE
  8
0
 10
15.2541
 20
8.81122
 11
15.2058
 21
9.02623
  0
LINE
  8
0
 10
15.2058
 20
9.02623
 11
15.2015
 21
9.04552
  0
LINE
  8
0
 10
15.2015
 20
9.04552
 11
15.1638
 21
9.26264
  0
LINE
  8
0
 10
15.1638
 20
9.26264
 11
15.1604
 21
9.28212
  0
LINE
  8
0
 10
15.1604
 20
9.28212
 11
15.158
 21
9.30174
  0
LINE
  8
0
 10
15.158
 20
9.30174
 11
15.131
 21
9.52045
  0
LINE
  8
0
 10
15.131
 20
9.52045
 11
15.1296
 21
9.54016
  0
LINE
  8
0
 10
15.1296
 20
9.54016
 11
15.1134
 21
9.75994
  0
LINE
  8
0
 10
15.1134
 20
9.75994
 11
15.108
 21
9.98024
  0
LINE
  8
0
 10
15.108
 20
9.98024
 11
15.1075
 21
10
  0
LINE
  8
0
 10
33.3
 20
10
 11
33.302
 21
10.0834
  0
LINE
  8
0
 10
33.302
 20
10.0834
 11
33.3082
 21
10.1666
  0
LINE
  8
0
 10
33.3082
 20
10.1666
 11
33.3184
 21
10.2494
  0
LINE
  8
0
 10
33.3184
 20
10.2494
 11
33.3327
 21
10.3317
  0
LINE
  8
0
 10
33.3327
 20
10.3317
 11
33.3509
 21
10.4131
  0
LINE
  8
0
 10
33.3509
 20
10.4131
 11
33.3732
 21
10.4935
  0
LINE
  8
0
 10
33.3732
 20
10.4935
 11
33.3994
 21
10.5727
  0
LINE
  8
0
 10
33.3994
 20
10.5727
 11
33.4294
 21
10.6506
  0
LINE
  8
0
 10
33.4294
 20
10.6506
 11
33.4632
 21
10.7268
  0
LINE
  8
0
 10
33.4632
 20
10.7268
 11
33.5007
 21
10.8014
  0
LINE
  8
0
 10
33.5007
 20
10.8014
 11
33.5419
 21
10.874
  0
LINE
  8
0
 10
33.5419
 20
10.874
 11
33.5865
 21
10.9445
  0
LINE
  8
0
 10
33.5865
 20
10.9445
 11
33.6345
 21
11.0127
  0
LINE
  8
0
 10
33.6345
 20
11.0127
 11
33.6859
 21
11.0785
  0
LINE
  8
0
 10
33.6859
 20
11.0785
 11
33.7404
 21
11.1417
  0
LINE
  8
0
 10
33.7404
 20
11.1417
 11
33.7979
 21
11.2021
  0
LINE
  8
0
 10
33.7979
 20
11.2021
 11
33.8583
 21
11.2596
  0
LINE
  8
0
 10
33.8583
 20
11.2596
 11
33.9215
 21
11.3141
  0
LINE
  8
0
 10
33.9215
 20
11.3141
 11
33.9873
 21
11.3655
  0
LINE
  8
0
 10
33.9873
 20
11.3655
 11
34.0555
 21
11.4135
  0
LINE
  8
0
 10
34.0555
 20
11.4135
 11
34.126
 21
11.4581
  0
LINE
  8
0
 10
34.126
 20
11.4581
 11
34.1986
 21
11.4993
  0
LINE
  8
0
 10
34.1986
 20
11.4993
 11
34.2732
 21
11.5368
  0
LINE
  8
0
 10
34.2732
 20
11.5368
 11
34.3494
 21
11.5706
  0
LINE
  8
0
 10
34.3494
 20
11.5706
 11
34.4273
 21
11.6006
  0
LINE
  8
0
 10
34.4273
 20
11.6006
 11
34.5065
 21
11.6268
  0
LINE
  8
0
 10
34.5065
 20
11.6268
 11
34.5869
 21
11.6491
  0
LINE
  8
0
 10
34.5869
 20
11.6491
 11
34.6683
 21
11.6673
  0
LINE
  8
0
 10
34.6683
 20
11.6673
 11
34.7506
 21
11.6816
  0
LINE
  8
0
 10
34.7506
 20
11.6816
 11
34.8334
 21
11.6918
  0
LINE
  8
0
 10
34.8334
 20
11.6918
 11
34.9166
 21
11.698
  0
LINE
  8
0
 10
34.9166
 20
11.698
 11
35
 21
11.7
  0
LINE
  8
0
 10
35
 20
11.7
 11
35.0834
 21
11.698
  0
LINE
  8
0
 10
35.0834
 20
11.698
 11
35.1666
 21
11.6918
  0
LINE
  8
0
 10
35.1666
 20
11.6918
 11
35.2494
 21
11.6816
  0
LINE
  8
0
 10
35.2494
 20
11.6816
 11
35.3317
 21
11.6673
  0
LINE
  8
0
 10
35.3317
 20
11.6673
 11
35.4131
 21
11.6491
  0
LINE
  8
0
 10
35.4131
 20
11.6491
 11
35.4935
 21
11.6268
  0
LINE
  8
0
 10
35.4935
 20
11.6268
 11
35.5727
 21
11.6006
  0
LINE
  8
0
 10
35.5727
 20
11.6006
 11
35.6506
 21
11.5706
  0
LINE
  8
0
 10
35.6506
 20
11.5706
 11
35.7268
 21
11.5368
  0
LINE
  8
0
 10
35.7268
 20
11.5368
 11
35.8014
 21
11.4993
  0
LINE
  8
0
 10
35.8014
 20
11.4993
 11
35.874
 21
11.4581
  0
LINE
  8
0
 10
35.874
 20
11.4581
 11
35.9445
 21
11.4135
  0
LINE
  8
0
 10
35.9445
 20
11.4135
 11
36.0127
 21
11.3655
  0
LINE
  8
0
 10
36.0127
 20
11.3655
 11
36.0785
 21
11.3141
  0
LINE
  8
0
 10
36.0785
 20
11.3141
 11
36.1417
 21
11.2596
  0
LINE
  8
0
 10
36.1417
 20
11.2596
 11
36.2021
 21
11.2021
  0
LINE
  8
0
 10
36.2021
 20
11.2021
 11
36.2596
 21
11.1417
  0
LINE
  8
0
 10
36.2596
 20
11.1417
 11
36.3141
 21
11.0785
  0
LINE
  8
0
 10
36.3141
 20
11.0785
 11
36.3655
 21
11.0127
  0
LINE
  8
0
 10
36.3655
 20
11.0127
 11
36.4135
 21
10.9445
  0
LINE
  8
0
 10
36.4135
 20
10.9445
 11
36.4581
 21
10.874
  0
LINE
  8
0
 10
36.4581
 20
10.874
 11
36.4993
 21
10.8014
  0
LINE
  8
0
 10
36.4993
 20
10.8014
 11
36.5368
 21
10.7268
  0
LINE
  8
0
 10
36.5368
 20
10.7268
 11
36.5706
 21
10.6506
  0
LINE
  8
0
 10
36.5706
 20
10.6506
 11
36.6006
 21
10.5727
  0
LINE
  8
0
 10
36.6006
 20
10.5727
 11
36.6268
 21
10.4935
  0
LINE
  8
0
 10
36.6268
 20
10.4935
 11
36.6491
 21
10.4131
  0
LINE
  8
0
 10
36.6491
 20
10.4131
 11
36.6673
 21
10.3317
  0
LINE
  8
0
 10
36.6673
 20
10.3317
 11
36.6816
 21
10.2494
  0
LINE
  8
0
 10
36.6816
 20
10.2494
 11
36.6918
 21
10.1666
  0
LINE
  8
0
 10
36.6918
 20
10.1666
 11
36.698
 21
10.0834
  0
LINE
  8
0
 10
36.698
 20
10.0834
 11
36.7
 21
10
  0
LINE
  8
0
 10
36.7
 20
10
 11
36.698
 21
9.91658
  0
LINE
  8
0
 10
36.698
 20
9.91658
 11
36.6918
 21
9.83337
  0
LINE
  8
0
 10
36.6918
 20
9.83337
 11
36.6816
 21
9.75056
  0
LINE
  8
0
 10
36.6816
 20
9.75056
 11
36.6673
 21
9.66835
  0
LINE
  8
0
 10
36.6673
 20
9.66835
 11
36.6491
 21
9.58693
  0
LINE
  8
0
 10
36.6491
 20
9.58693
 11
36.6268
 21
9.50652
  0
LINE
  8
0
 10
36.6268
 20
9.50652
 11
36.6006
 21
9.42729
  0
LINE
  8
0
 10
36.6006
 20
9.42729
 11
36.5706
 21
9.34944
  0
LINE
  8
0
 10
36.5706
 20
9.34944
 11
36.5368
 21
9.27316
  0
LINE
  8
0
 10
36.5368
 20
9.27316
 11
36.4993
 21
9.19863
  0
LINE
  8
0
 10
36.4993
 20
9.19863
 11
36.4581
 21
9.12603
  0
LINE
  8
0
 10
36.4581
 20
9.12603
 11
36.4135
 21
9.05553
  0
LINE
  8
0
 10
36.4135
 20
9.05553
 11
36.3655
 21
8.98731
  0
LINE
  8
0
 10
36.3655
 20
8.98731
 11
36.3141
 21
8.92153
  0
LINE
  8
0
 10
36.3141
 20
8.92153
 11
36.2596
 21
8.85835
  0
LINE
  8
0
 10
36.2596
 20
8.85835
 11
36.2021
 21
8.79792
  0
LINE
  8
0
 10
36.2021
 20
8.79792
 11
36.1417
 21
8.74038
  0
LINE
  8
0
 10
36.1417
 20
8.74038
 11
36.0785
 21
8.68588
  0
LINE
  8
0
 10
36.0785
 20
8.68588
 11
36.0127
 21
8.63455
  0
LINE
  8
0
 10
36.0127
 20
8.63455
 11
35.9445
 21
8.5865
  0
LINE
  8
0
 10
35.9445
 20
8.5865
 11
35.874
 21
8.54186
  0
LINE
  8
0
 10
35.874
 20
8.54186
 11
35.8014
 21
8.50073
  0
LINE
  8
0
 10
35.8014
 20
8.50073
 11
35.7268
 21
8.46322
  0
LINE
  8
0
 10
35.7268
 20
8.46322
 11
35.6506
 21
8.42941
  0
LINE
  8
0
 10
35.6506
 20
8.42941
 11
35.5727
 21
8.39938
  0
LINE
  8
0
 10
35.5727
 20
8.39938
 11
35.4935
 21
8.3732
  0
LINE
  8
0
 10
35.4935
 20
8.3732
 11
35.4131
 21
8.35095
  0
LINE
  8
0
 10
35.4131
 20
8.35095
 11
35.3317
 21
8.33267
  0
LINE
  8
0
 10
35.3317
 20
8.33267
 11
35.2494
 21
8.3184
  0
LINE
  8
0
 10
35.2494
 20
8.3184
 11
35.1666
 21
8.30819
  0
LINE
  8
0
 10
35.1666
 20
8.30819
 11
35.0834
 21
8.30205
  0
LINE
  8
0
 10
35.0834
 20
8.30205
 11
35
 21
8.3
  0
LINE
  8
0
 10
35
 20
8.3
 11
34.9166
 21
8.30205
  0
LINE
  8
0
 10
34.9166
 20
8.30205
 11
34.8334
 21
8.30819
  0
LINE
  8
0
 10
34.8334
 20
8.30819
 11
34.7506
 21
8.3184
  0
LINE
  8
0
 10
34.7506
 20
8.3184
 11
34.6683
 21
8.33267
  0
LINE
  8
0
 10
34.6683
 20
8.33267
 11
34.5869
 21
8.35095
  0
LINE
  8
0
 10
34.5869
 20
8.35095
 11
34.5065
 21
8.3732
  0
LINE
  8
0
 10
34.5065
 20
8.3732
 11
34.4273
 21
8.39938
  0
LINE
  8
0
 10
34.4273
 20
8.39938
 11
34.3494
 21
8.42941
  0
LINE
  8
0
 10
34.3494
 20
8.42941
 11
34.2732
 21
8.46322
  0
LINE
  8
0
 10
34.2732
 20
8.46322
 11
34.1986
 21
8.50073
  0
LINE
  8
0
 10
34.1986
 20
8.50073
 11
34.126
 21
8.54186
  0
LINE
  8
0
 10
34.126
 20
8.54186
 11
34.0555
 21
8.5865
  0
LINE
  8
0
 10
34.0555
 20
8.5865
 11
33.9873
 21
8.63455
  0
LINE
  8
0
 10
33.9873
 20
8.63455
 11
33.9215
 21
8.68588
  0
LINE
  8
0
 10
33.9215
 20
8.68588
 11
33.8583
 21
8.74038
  0
LINE
  8
0
 10
33.8583
 20
8.74038
 11
33.7979
 21
8.79792
  0
LINE
  8
0
 10
33.7979
 20
8.79792
 11
33.7404
 21
8.85835
  0
LINE
  8
0
 10
33.7404
 20
8.85835
 11
33.6859
 21
8.92153
  0
LINE
  8
0
 10
33.6859
 20
8.92153
 11
33.6345
 21
8.98731
  0
LINE
  8
0
 10
33.6345
 20
8.98731
 11
33.5865
 21
9.05553
  0
LINE
  8
0
 10
33.5865
 20
9.05553
 11
33.5419
 21
9.12603
  0
LINE
  8
0
 10
33.5419
 20
9.12603
 11
33.5007
 21
9.19863
  0
LINE
  8
0
 10
33.5007
 20
9.19863
 11
33.4632
 21
9.27316
  0
LINE
  8
0
 10
33.4632
 20
9.27316
 11
33.4294
 21
9.34944
  0
LINE
  8
0
 10
33.4294
 20
9.34944
 11
33.3994
 21
9.42729
  0
LINE
  8
0
 10
33.3994
 20
9.42729
 11
33.3732
 21
9.50652
  0
LINE
  8
0
 10
33.3732
 20
9.50652
 11
33.3509
 21
9.58693
  0
LINE
  8
0
 10
33.3509
 20
9.58693
 11
33.3327
 21
9.66835
  0
LINE
  8
0
 10
33.3327
 20
9.66835
 11
33.3184
 21
9.75056
  0
LINE
  8
0
 10
33.3184
 20
9.75056
 11
33.3082
 21
9.83337
  0
LINE
  8
0
 10
33.3082
 20
9.83337
 11
33.302
 21
9.91658
  0
LINE
  8
0
 10
33.302
 20
9.91658
 11
33.3
 21
10
  0
ENDSEC
  0
SECTION
  2
OBJECTS
  0
DICTIONARY
  0
ENDSEC
  0
EOF
