  0
SECTION
  2
HEADER
  9
$ACADVER
  1
AC1014
  9
$HANDSEED
  5
FFFF
  9
$MEASUREMENT
 70
     1
  0
ENDSEC
  0
SECTION
  2
TABLES
  0
TABLE
  2
VPORT
  5
8
330
0
100
AcDbSymbolTable
 70
     4
  0
VPORT
  5
2E
330
8
100
AcDbSymbolTableRecord
100
AcDbViewportTableRecord
  2
*ACTIVE
 70
     0
 10
0.0
 20
0.0
 11
1.0
 21
1.0
 12
210.0
 22
148.5
 13
0.0
 23
0.0
 14
10.0
 24
10.0
 15
10.0
 25
10.0
 16
0.0
 26
0.0
 36
1.0
 17
0.0
 27
0.0
 37
0.0
 40
341.0
 41
1.24
 42
50.0
 43
0.0
 44
0.0
 50
0.0
 51
0.0
 71
     0
 72
   100
 73
     1
 74
     3
 75
     0
 76
     0
 77
     0
 78
     0
  0
ENDTAB
  0
TABLE
  2
LTYPE
  5
5
330
0
100
AcDbSymbolTable
 70
     1
  0
LTYPE
  5
14
330
5
100
AcDbSymbolTableRecord
100
AcDbLinetypeTableRecord
  2
BYBLOCK
 70
     0
  3

 72
    65
 73
     0
 40
0.0
  0
LTYPE
  5
15
330
5
100
AcDbSymbolTableRecord
100
AcDbLinetypeTableRecord
  2
BYLAYER
 70
     0
  3

 72
    65
 73
     0
 40
0.0
  0
LTYPE
  5
16
330
5
100
AcDbSymbolTableRecord
100
AcDbLinetypeTableRecord
  2
CONTINUOUS
 70
     0
  3
Solid line
 72
    65
 73
     0
 40
0.0
  0
ENDTAB
  0
TABLE
  2
LAYER
  5
2
100
AcDbSymbolTable
 70
3
  0
LAYER
  5
50
100
AcDbSymbolTableRecord
100
AcDbLayerTableRecord
  2
0
 70
0
  6
CONTINUOUS
  0
LAYER
  5
51
100
AcDbSymbolTableRecord
100
AcDbLayerTableRecord
  2
top
 70
0
  6
CONTINUOUS
  0
LAYER
  5
52
100
AcDbSymbolTableRecord
100
AcDbLayerTableRecord
  2
bottom
 70
0
  6
CONTINUOUS
  0
ENDTAB
  0
TABLE
  2
STYLE
  5
3
330
0
100
AcDbSymbolTable
 70
     1
  0
STYLE
  5
11
330
3
100
AcDbSymbolTableRecord
100
AcDbTextStyleTableRecord
  2
STANDARD
 70
     0
 40
0.0
 41
1.0
 50
0.0
 71
     0
 42
2.5
  3
txt
  4

  0
ENDTAB
  0
TABLE
  2
VIEW
  5
6
330
0
100
AcDbSymbolTable
 70
     0
  0
ENDTAB
  0
TABLE
  2
UCS
  5
7
330
0
100
AcDbSymbolTable
 70
     0
  0
ENDTAB
  0
TABLE
  2
APPID
  5
9
330
0
100
AcDbSymbolTable
 70
     2
  0
APPID
  5
12
330
9
100
AcDbSymbolTableRecord
100
AcDbRegAppTableRecord
  2
ACAD
 70
     0
  0
ENDTAB
  0
TABLE
  2
DIMSTYLE
  5
A
330
0
100
AcDbSymbolTable
 70
     1
  0
DIMSTYLE
105
27
330
A
100
AcDbSymbolTableRecord
100
AcDbDimStyleTableRecord
  2
ISO-25
 70
     0
  3

  4

  5

  6

  7

 40
1.0
 41
2.5
 42
0.625
 43
3.75
 44
1.25
 45
0.0
 46
0.0
 47
0.0
 48
0.0
140
2.5
141
2.5
142
0.0
143
0.03937007874016
144
1.0
145
0.0
146
1.0
147
0.625
 71
     0
 72
     0
 73
     0
 74
     0
 75
     0
 76
     0
 77
     1
 78
     8
170
     0
171
     3
172
     1
173
     0
174
     0
175
     0
176
     0
177
     0
178
     0
270
     2
271
     2
272
     2
273
     2
274
     3
340
11
275
     0
280
     0
281
     0
282
     0
283
     0
284
     8
285
     0
286
     0
287
     3
288
     0
  0
ENDTAB
  0
TABLE
  2
BLOCK_RECORD
  5
1
330
0
100
AcDbSymbolTable
 70
     1
  0
BLOCK_RECORD
  5
1F
330
1
100
AcDbSymbolTableRecord
100
AcDbBlockTableRecord
  2
*MODEL_SPACE
  0
BLOCK_RECORD
  5
1B
330
1
100
AcDbSymbolTableRecord
100
AcDbBlockTableRecord
  2
*PAPER_SPACE
  0
ENDTAB
  0
ENDSEC
  0
SECTION
  2
BLOCKS
  0
BLOCK
  5
20
330
1F
100
AcDbEntity
  8
0
100
AcDbBlockBegin
  2
*MODEL_SPACE
 70
     0
 10
0.0
 20
0.0
 30
0.0
  3
*MODEL_SPACE
  1

  0
ENDBLK
  5
21
330
1F
100
AcDbEntity
  8
0
100
AcDbBlockEnd
  0
BLOCK
  5
1C
330
1B
100
AcDbEntity
 67
     1
  8
0
100
AcDbBlockBegin
  2
*PAPER_SPACE
  1

  0
ENDBLK
  5
1D
330
1B
100
AcDbEntity
 67
     1
  8
0
100
AcDbBlockEnd
  0
ENDSEC
  0
SECTION
  2
ENTITIES
  0
LINE
  5
100
100
AcDbEntity
  8
top
 62
7
100
AcDbLine
 10
20.002500
 20
285.000912
 30
0.0
 11
20.002500
 21
225.751870
 31
0.0
  0
SPLINE
  5
101
100
AcDbEntity
  8
top
 62
7
100
AcDbSpline
 70
8
 71
3
 72
8
 73
4
 74
0
 40
0
 40
0
 40
0
 40
0
 40
1
 40
1
 40
1
 40
1
 10
20.002500
 20
225.751870
 30
0.0
 10
20.016182
 20
225.670505
 30
0.0
 10
20.028958
 20
225.581436
 30
0.0
 10
20.028958
 20
225.496120
 30
0.0
  0
SPLINE
  5
102
100
AcDbEntity
  8
top
 62
7
100
AcDbSpline
 70
8
 71
3
 72
8
 73
4
 74
0
 40
0
 40
0
 40
0
 40
0
 40
1
 40
1
 40
1
 40
1
 10
20.028958
 20
225.496120
 30
0.0
 10
20.028958
 20
225.410804
 30
0.0
 10
20.016182
 20
225.330597
 30
0.0
 10
20.002500
 20
225.249176
 30
0.0
  0
LINE
  5
103
100
AcDbEntity
  8
top
 62
7
100
AcDbLine
 10
20.002500
 20
225.249176
 30
0.0
 11
20.002500
 21
225.002231
 31
0.0
  0
LINE
  5
104
100
AcDbEntity
  8
top
 62
7
100
AcDbLine
 10
20.002500
 20
225.002231
 30
0.0
 11
19.940764
 21
225.002231
 31
0.0
  0
SPLINE
  5
105
100
AcDbEntity
  8
top
 62
7
100
AcDbSpline
 70
8
 71
3
 72
8
 73
4
 74
0
 40
0
 40
0
 40
0
 40
0
 40
1
 40
1
 40
1
 40
1
 10
19.940764
 20
225.002231
 30
0.0
 10
19.735191
 20
224.418991
 30
0.0
 10
19.183218
 20
223.996814
 30
0.0
 10
18.529653
 20
223.996814
 30
0.0
  0
SPLINE
  5
106
100
AcDbEntity
  8
top
 62
7
100
AcDbSpline
 70
8
 71
3
 72
8
 73
4
 74
0
 40
0
 40
0
 40
0
 40
0
 40
1
 40
1
 40
1
 40
1
 10
18.529653
 20
223.996814
 30
0.0
 10
17.875706
 20
223.996814
 30
0.0
 10
17.315006
 20
224.418454
 30
0.0
 10
17.109722
 20
225.002231
 30
0.0
  0
LINE
  5
107
100
AcDbEntity
  8
top
 62
7
100
AcDbLine
 10
17.109722
 20
225.002231
 30
0.0
 11
0.000000
 21
225.002231
 31
0.0
  0
LINE
  5
108
100
AcDbEntity
  8
top
 62
7
100
AcDbLine
 10
0.000000
 20
225.002231
 30
0.0
 11
0.000000
 21
0.000564
 31
0.0
  0
LINE
  5
109
100
AcDbEntity
  8
top
 62
7
100
AcDbLine
 10
0.000000
 20
0.000564
 30
0.0
 11
440.002083
 21
0.000564
 31
0.0
  0
LINE
  5
10a
100
AcDbEntity
  8
top
 62
7
100
AcDbLine
 10
440.002083
 20
0.000564
 30
0.0
 11
440.002083
 21
225.002231
 31
0.0
  0
LINE
  5
10b
100
AcDbEntity
  8
top
 62
7
100
AcDbLine
 10
440.002083
 20
225.002231
 30
0.0
 11
422.918805
 21
225.002231
 31
0.0
  0
SPLINE
  5
10c
100
AcDbEntity
  8
top
 62
7
100
AcDbSpline
 70
8
 71
3
 72
8
 73
4
 74
0
 40
0
 40
0
 40
0
 40
0
 40
1
 40
1
 40
1
 40
1
 10
422.918805
 20
225.002231
 30
0.0
 10
422.713545
 20
224.418454
 30
0.0
 10
422.152826
 20
223.996814
 30
0.0
 10
421.498889
 20
223.996814
 30
0.0
  0
SPLINE
  5
10d
100
AcDbEntity
  8
top
 62
7
100
AcDbSpline
 70
8
 71
3
 72
8
 73
4
 74
0
 40
0
 40
0
 40
0
 40
0
 40
1
 40
1
 40
1
 40
1
 10
421.498889
 20
223.996814
 30
0.0
 10
420.845319
 20
223.996814
 30
0.0
 10
420.293348
 20
224.418991
 30
0.0
 10
420.087778
 20
225.002231
 30
0.0
  0
LINE
  5
10e
100
AcDbEntity
  8
top
 62
7
100
AcDbLine
 10
420.087778
 20
225.002231
 30
0.0
 11
419.999583
 21
225.002231
 31
0.0
  0
LINE
  5
10f
100
AcDbEntity
  8
top
 62
7
100
AcDbLine
 10
419.999583
 20
225.002231
 30
0.0
 11
419.999583
 21
225.504925
 31
0.0
  0
LINE
  5
110
100
AcDbEntity
  8
top
 62
7
100
AcDbLine
 10
419.999583
 20
225.504925
 30
0.0
 11
419.999583
 21
285.000912
 31
0.0
  0
LINE
  5
111
100
AcDbEntity
  8
top
 62
7
100
AcDbLine
 10
419.999583
 20
285.000912
 30
0.0
 11
20.002500
 21
285.000912
 31
0.0
  0
LINE
  5
112
100
AcDbEntity
  8
top
 62
7
100
AcDbLine
 10
20.002500
 20
285.000912
 30
0.0
 11
20.002500
 21
285.000912
 31
0.0
  0
LINE
  5
113
100
AcDbEntity
  8
top
 62
7
100
AcDbLine
 10
218.864705
 20
277.227464
 30
0.0
 11
219.227451
 21
277.377464
 31
0.0
  0
LINE
  5
114
100
AcDbEntity
  8
top
 62
7
100
AcDbLine
 10
219.227451
 20
277.377464
 30
0.0
 11
219.608823
 21
277.469621
 31
0.0
  0
LINE
  5
115
100
AcDbEntity
  8
top
 62
7
100
AcDbLine
 10
219.608823
 20
277.469621
 30
0.0
 11
220.000000
 21
277.500013
 31
0.0
  0
LINE
  5
116
100
AcDbEntity
  8
top
 62
7
100
AcDbLine
 10
220.000000
 20
277.500013
 30
0.0
 11
220.391177
 21
277.469621
 31
0.0
  0
LINE
  5
117
100
AcDbEntity
  8
top
 62
7
100
AcDbLine
 10
220.391177
 20
277.469621
 30
0.0
 11
220.772550
 21
277.377464
 31
0.0
  0
LINE
  5
118
100
AcDbEntity
  8
top
 62
7
100
AcDbLine
 10
220.772550
 20
277.377464
 30
0.0
 11
221.135296
 21
277.227464
 31
0.0
  0
LINE
  5
119
100
AcDbEntity
  8
top
 62
7
100
AcDbLine
 10
221.135296
 20
277.227464
 30
0.0
 11
221.469608
 21
277.022562
 31
0.0
  0
LINE
  5
11a
100
AcDbEntity
  8
top
 62
7
100
AcDbLine
 10
221.469608
 20
277.022562
 30
0.0
 11
221.767646
 21
276.767660
 31
0.0
  0
LINE
  5
11b
100
AcDbEntity
  8
top
 62
7
100
AcDbLine
 10
221.767646
 20
276.767660
 30
0.0
 11
222.022549
 21
276.469621
 31
0.0
  0
LINE
  5
11c
100
AcDbEntity
  8
top
 62
7
100
AcDbLine
 10
222.022549
 20
276.469621
 30
0.0
 11
222.227450
 21
276.135307
 31
0.0
  0
LINE
  5
11d
100
AcDbEntity
  8
top
 62
7
100
AcDbLine
 10
222.227450
 20
276.135307
 30
0.0
 11
222.377452
 21
275.772562
 31
0.0
  0
LINE
  5
11e
100
AcDbEntity
  8
top
 62
7
100
AcDbLine
 10
222.377452
 20
275.772562
 30
0.0
 11
222.469608
 21
275.391190
 31
0.0
  0
LINE
  5
11f
100
AcDbEntity
  8
top
 62
7
100
AcDbLine
 10
222.469608
 20
275.391190
 30
0.0
 11
222.500001
 21
275.000013
 31
0.0
  0
LINE
  5
120
100
AcDbEntity
  8
top
 62
7
100
AcDbLine
 10
222.500001
 20
275.000013
 30
0.0
 11
222.469608
 21
274.608837
 31
0.0
  0
LINE
  5
121
100
AcDbEntity
  8
top
 62
7
100
AcDbLine
 10
222.469608
 20
274.608837
 30
0.0
 11
222.377452
 21
274.227464
 31
0.0
  0
LINE
  5
122
100
AcDbEntity
  8
top
 62
7
100
AcDbLine
 10
222.377452
 20
274.227464
 30
0.0
 11
222.227450
 21
273.864719
 31
0.0
  0
LINE
  5
123
100
AcDbEntity
  8
top
 62
7
100
AcDbLine
 10
222.227450
 20
273.864719
 30
0.0
 11
222.022549
 21
273.530405
 31
0.0
  0
LINE
  5
124
100
AcDbEntity
  8
top
 62
7
100
AcDbLine
 10
222.022549
 20
273.530405
 30
0.0
 11
221.767646
 21
273.232366
 31
0.0
  0
LINE
  5
125
100
AcDbEntity
  8
top
 62
7
100
AcDbLine
 10
221.767646
 20
273.232366
 30
0.0
 11
221.469608
 21
272.977464
 31
0.0
  0
LINE
  5
126
100
AcDbEntity
  8
top
 62
7
100
AcDbLine
 10
221.469608
 20
272.977464
 30
0.0
 11
221.135296
 21
272.772562
 31
0.0
  0
LINE
  5
127
100
AcDbEntity
  8
top
 62
7
100
AcDbLine
 10
221.135296
 20
272.772562
 30
0.0
 11
220.772550
 21
272.622562
 31
0.0
  0
LINE
  5
128
100
AcDbEntity
  8
top
 62
7
100
AcDbLine
 10
220.772550
 20
272.622562
 30
0.0
 11
220.391177
 21
272.530405
 31
0.0
  0
LINE
  5
129
100
AcDbEntity
  8
top
 62
7
100
AcDbLine
 10
220.391177
 20
272.530405
 30
0.0
 11
220.000000
 21
272.500013
 31
0.0
  0
LINE
  5
12a
100
AcDbEntity
  8
top
 62
7
100
AcDbLine
 10
220.000000
 20
272.500013
 30
0.0
 11
219.608823
 21
272.530405
 31
0.0
  0
LINE
  5
12b
100
AcDbEntity
  8
top
 62
7
100
AcDbLine
 10
219.608823
 20
272.530405
 30
0.0
 11
219.227451
 21
272.622562
 31
0.0
  0
LINE
  5
12c
100
AcDbEntity
  8
top
 62
7
100
AcDbLine
 10
219.227451
 20
272.622562
 30
0.0
 11
218.864705
 21
272.772562
 31
0.0
  0
LINE
  5
12d
100
AcDbEntity
  8
top
 62
7
100
AcDbLine
 10
218.864705
 20
272.772562
 30
0.0
 11
218.530390
 21
272.977464
 31
0.0
  0
LINE
  5
12e
100
AcDbEntity
  8
top
 62
7
100
AcDbLine
 10
218.530390
 20
272.977464
 30
0.0
 11
218.232352
 21
273.232366
 31
0.0
  0
LINE
  5
12f
100
AcDbEntity
  8
top
 62
7
100
AcDbLine
 10
218.232352
 20
273.232366
 30
0.0
 11
217.977452
 21
273.530405
 31
0.0
  0
LINE
  5
130
100
AcDbEntity
  8
top
 62
7
100
AcDbLine
 10
217.977452
 20
273.530405
 30
0.0
 11
217.772550
 21
273.864719
 31
0.0
  0
LINE
  5
131
100
AcDbEntity
  8
top
 62
7
100
AcDbLine
 10
217.772550
 20
273.864719
 30
0.0
 11
217.622549
 21
274.227464
 31
0.0
  0
LINE
  5
132
100
AcDbEntity
  8
top
 62
7
100
AcDbLine
 10
217.622549
 20
274.227464
 30
0.0
 11
217.530392
 21
274.608837
 31
0.0
  0
LINE
  5
133
100
AcDbEntity
  8
top
 62
7
100
AcDbLine
 10
217.530392
 20
274.608837
 30
0.0
 11
217.500000
 21
275.000013
 31
0.0
  0
LINE
  5
134
100
AcDbEntity
  8
top
 62
7
100
AcDbLine
 10
217.500000
 20
275.000013
 30
0.0
 11
217.530392
 21
275.391190
 31
0.0
  0
LINE
  5
135
100
AcDbEntity
  8
top
 62
7
100
AcDbLine
 10
217.530392
 20
275.391190
 30
0.0
 11
217.622549
 21
275.772562
 31
0.0
  0
LINE
  5
136
100
AcDbEntity
  8
top
 62
7
100
AcDbLine
 10
217.622549
 20
275.772562
 30
0.0
 11
217.772550
 21
276.135307
 31
0.0
  0
LINE
  5
137
100
AcDbEntity
  8
top
 62
7
100
AcDbLine
 10
217.772550
 20
276.135307
 30
0.0
 11
217.977452
 21
276.469621
 31
0.0
  0
LINE
  5
138
100
AcDbEntity
  8
top
 62
7
100
AcDbLine
 10
217.977452
 20
276.469621
 30
0.0
 11
218.232352
 21
276.767660
 31
0.0
  0
LINE
  5
139
100
AcDbEntity
  8
top
 62
7
100
AcDbLine
 10
218.232352
 20
276.767660
 30
0.0
 11
218.530390
 21
277.022562
 31
0.0
  0
LINE
  5
13a
100
AcDbEntity
  8
top
 62
7
100
AcDbLine
 10
218.530390
 20
277.022562
 30
0.0
 11
218.864705
 21
277.227464
 31
0.0
  0
LINE
  5
13b
100
AcDbEntity
  8
top
 62
7
100
AcDbLine
 10
-2.000000
 20
225.000013
 30
0.0
 11
442.000015
 21
225.000013
 31
0.0
  0
LINE
  5
13c
100
AcDbEntity
  8
top
 62
7
100
AcDbLine
 10
442.000015
 20
225.000013
 30
0.0
 11
442.000015
 21
218.650013
 31
0.0
  0
LINE
  5
13d
100
AcDbEntity
  8
top
 62
7
100
AcDbLine
 10
442.000015
 20
218.650013
 30
0.0
 11
-2.000000
 21
218.650013
 31
0.0
  0
LINE
  5
13e
100
AcDbEntity
  8
top
 62
7
100
AcDbLine
 10
-2.000000
 20
218.650013
 30
0.0
 11
-2.000000
 21
225.000013
 31
0.0
  0
LINE
  5
13f
100
AcDbEntity
  8
top
 62
7
100
AcDbLine
 10
8.864705
 20
12.227489
 30
0.0
 11
9.227451
 21
12.377491
 31
0.0
  0
LINE
  5
140
100
AcDbEntity
  8
top
 62
7
100
AcDbLine
 10
9.227451
 20
12.377491
 30
0.0
 11
9.608824
 21
12.469636
 31
0.0
  0
LINE
  5
141
100
AcDbEntity
  8
top
 62
7
100
AcDbLine
 10
9.608824
 20
12.469636
 30
0.0
 11
10.000001
 21
12.500031
 31
0.0
  0
LINE
  5
142
100
AcDbEntity
  8
top
 62
7
100
AcDbLine
 10
10.000001
 20
12.500031
 30
0.0
 11
10.391178
 21
12.469636
 31
0.0
  0
LINE
  5
143
100
AcDbEntity
  8
top
 62
7
100
AcDbLine
 10
10.391178
 20
12.469636
 30
0.0
 11
10.772550
 21
12.377491
 31
0.0
  0
LINE
  5
144
100
AcDbEntity
  8
top
 62
7
100
AcDbLine
 10
10.772550
 20
12.377491
 30
0.0
 11
11.135296
 21
12.227489
 31
0.0
  0
LINE
  5
145
100
AcDbEntity
  8
top
 62
7
100
AcDbLine
 10
11.135296
 20
12.227489
 30
0.0
 11
11.469608
 21
12.022568
 31
0.0
  0
LINE
  5
146
100
AcDbEntity
  8
top
 62
7
100
AcDbLine
 10
11.469608
 20
12.022568
 30
0.0
 11
11.767646
 21
11.767665
 31
0.0
  0
LINE
  5
147
100
AcDbEntity
  8
top
 62
7
100
AcDbLine
 10
11.767646
 20
11.767665
 30
0.0
 11
12.022549
 21
11.469638
 31
0.0
  0
LINE
  5
148
100
AcDbEntity
  8
top
 62
7
100
AcDbLine
 10
12.022549
 20
11.469638
 30
0.0
 11
12.227451
 21
11.135318
 31
0.0
  0
LINE
  5
149
100
AcDbEntity
  8
top
 62
7
100
AcDbLine
 10
12.227451
 20
11.135318
 30
0.0
 11
12.377452
 21
10.772577
 31
0.0
  0
LINE
  5
14a
100
AcDbEntity
  8
top
 62
7
100
AcDbLine
 10
12.377452
 20
10.772577
 30
0.0
 11
12.469609
 21
10.391211
 31
0.0
  0
LINE
  5
14b
100
AcDbEntity
  8
top
 62
7
100
AcDbLine
 10
12.469609
 20
10.391211
 30
0.0
 11
12.500001
 21
10.000022
 31
0.0
  0
LINE
  5
14c
100
AcDbEntity
  8
top
 62
7
100
AcDbLine
 10
12.500001
 20
10.000022
 30
0.0
 11
12.469609
 21
9.608862
 31
0.0
  0
LINE
  5
14d
100
AcDbEntity
  8
top
 62
7
100
AcDbLine
 10
12.469609
 20
9.608862
 30
0.0
 11
12.377452
 21
9.227467
 31
0.0
  0
LINE
  5
14e
100
AcDbEntity
  8
top
 62
7
100
AcDbLine
 10
12.377452
 20
9.227467
 30
0.0
 11
12.227451
 21
8.864727
 31
0.0
  0
LINE
  5
14f
100
AcDbEntity
  8
top
 62
7
100
AcDbLine
 10
12.227451
 20
8.864727
 30
0.0
 11
12.022549
 21
8.530407
 31
0.0
  0
LINE
  5
150
100
AcDbEntity
  8
top
 62
7
100
AcDbLine
 10
12.022549
 20
8.530407
 30
0.0
 11
11.767646
 21
8.232380
 31
0.0
  0
LINE
  5
151
100
AcDbEntity
  8
top
 62
7
100
AcDbLine
 10
11.767646
 20
8.232380
 30
0.0
 11
11.469608
 21
7.977477
 31
0.0
  0
LINE
  5
152
100
AcDbEntity
  8
top
 62
7
100
AcDbLine
 10
11.469608
 20
7.977477
 30
0.0
 11
11.135296
 21
7.772583
 31
0.0
  0
LINE
  5
153
100
AcDbEntity
  8
top
 62
7
100
AcDbLine
 10
11.135296
 20
7.772583
 30
0.0
 11
10.772550
 21
7.622582
 31
0.0
  0
LINE
  5
154
100
AcDbEntity
  8
top
 62
7
100
AcDbLine
 10
10.772550
 20
7.622582
 30
0.0
 11
10.391178
 21
7.530409
 31
0.0
  0
LINE
  5
155
100
AcDbEntity
  8
top
 62
7
100
AcDbLine
 10
10.391178
 20
7.530409
 30
0.0
 11
10.000001
 21
7.500013
 31
0.0
  0
LINE
  5
156
100
AcDbEntity
  8
top
 62
7
100
AcDbLine
 10
10.000001
 20
7.500013
 30
0.0
 11
9.608824
 21
7.530409
 31
0.0
  0
LINE
  5
157
100
AcDbEntity
  8
top
 62
7
100
AcDbLine
 10
9.608824
 20
7.530409
 30
0.0
 11
9.227451
 21
7.622582
 31
0.0
  0
LINE
  5
158
100
AcDbEntity
  8
top
 62
7
100
AcDbLine
 10
9.227451
 20
7.622582
 30
0.0
 11
8.864705
 21
7.772583
 31
0.0
  0
LINE
  5
159
100
AcDbEntity
  8
top
 62
7
100
AcDbLine
 10
8.864705
 20
7.772583
 30
0.0
 11
8.530390
 21
7.977477
 31
0.0
  0
LINE
  5
15a
100
AcDbEntity
  8
top
 62
7
100
AcDbLine
 10
8.530390
 20
7.977477
 30
0.0
 11
8.232353
 21
8.232380
 31
0.0
  0
LINE
  5
15b
100
AcDbEntity
  8
top
 62
7
100
AcDbLine
 10
8.232353
 20
8.232380
 30
0.0
 11
7.977452
 21
8.530407
 31
0.0
  0
LINE
  5
15c
100
AcDbEntity
  8
top
 62
7
100
AcDbLine
 10
7.977452
 20
8.530407
 30
0.0
 11
7.772550
 21
8.864727
 31
0.0
  0
LINE
  5
15d
100
AcDbEntity
  8
top
 62
7
100
AcDbLine
 10
7.772550
 20
8.864727
 30
0.0
 11
7.622549
 21
9.227467
 31
0.0
  0
LINE
  5
15e
100
AcDbEntity
  8
top
 62
7
100
AcDbLine
 10
7.622549
 20
9.227467
 30
0.0
 11
7.530392
 21
9.608862
 31
0.0
  0
LINE
  5
15f
100
AcDbEntity
  8
top
 62
7
100
AcDbLine
 10
7.530392
 20
9.608862
 30
0.0
 11
7.500000
 21
10.000022
 31
0.0
  0
LINE
  5
160
100
AcDbEntity
  8
top
 62
7
100
AcDbLine
 10
7.500000
 20
10.000022
 30
0.0
 11
7.530392
 21
10.391211
 31
0.0
  0
LINE
  5
161
100
AcDbEntity
  8
top
 62
7
100
AcDbLine
 10
7.530392
 20
10.391211
 30
0.0
 11
7.622549
 21
10.772577
 31
0.0
  0
LINE
  5
162
100
AcDbEntity
  8
top
 62
7
100
AcDbLine
 10
7.622549
 20
10.772577
 30
0.0
 11
7.772550
 21
11.135318
 31
0.0
  0
LINE
  5
163
100
AcDbEntity
  8
top
 62
7
100
AcDbLine
 10
7.772550
 20
11.135318
 30
0.0
 11
7.977452
 21
11.469638
 31
0.0
  0
LINE
  5
164
100
AcDbEntity
  8
top
 62
7
100
AcDbLine
 10
7.977452
 20
11.469638
 30
0.0
 11
8.232353
 21
11.767665
 31
0.0
  0
LINE
  5
165
100
AcDbEntity
  8
top
 62
7
100
AcDbLine
 10
8.232353
 20
11.767665
 30
0.0
 11
8.530390
 21
12.022568
 31
0.0
  0
LINE
  5
166
100
AcDbEntity
  8
top
 62
7
100
AcDbLine
 10
8.530390
 20
12.022568
 30
0.0
 11
8.864705
 21
12.227489
 31
0.0
  0
LINE
  5
167
100
AcDbEntity
  8
top
 62
7
100
AcDbLine
 10
428.864691
 20
12.227489
 30
0.0
 11
429.227460
 21
12.377491
 31
0.0
  0
LINE
  5
168
100
AcDbEntity
  8
top
 62
7
100
AcDbLine
 10
429.227460
 20
12.377491
 30
0.0
 11
429.608827
 21
12.469636
 31
0.0
  0
LINE
  5
169
100
AcDbEntity
  8
top
 62
7
100
AcDbLine
 10
429.608827
 20
12.469636
 30
0.0
 11
429.999987
 21
12.500031
 31
0.0
  0
LINE
  5
16a
100
AcDbEntity
  8
top
 62
7
100
AcDbLine
 10
429.999987
 20
12.500031
 30
0.0
 11
430.391175
 21
12.469636
 31
0.0
  0
LINE
  5
16b
100
AcDbEntity
  8
top
 62
7
100
AcDbLine
 10
430.391175
 20
12.469636
 30
0.0
 11
430.772542
 21
12.377491
 31
0.0
  0
LINE
  5
16c
100
AcDbEntity
  8
top
 62
7
100
AcDbLine
 10
430.772542
 20
12.377491
 30
0.0
 11
431.135282
 21
12.227489
 31
0.0
  0
LINE
  5
16d
100
AcDbEntity
  8
top
 62
7
100
AcDbLine
 10
431.135282
 20
12.227489
 30
0.0
 11
431.469602
 21
12.022568
 31
0.0
  0
LINE
  5
16e
100
AcDbEntity
  8
top
 62
7
100
AcDbLine
 10
431.469602
 20
12.022568
 30
0.0
 11
431.767657
 21
11.767665
 31
0.0
  0
LINE
  5
16f
100
AcDbEntity
  8
top
 62
7
100
AcDbLine
 10
431.767657
 20
11.767665
 30
0.0
 11
432.022560
 21
11.469638
 31
0.0
  0
LINE
  5
170
100
AcDbEntity
  8
top
 62
7
100
AcDbLine
 10
432.022560
 20
11.469638
 30
0.0
 11
432.227454
 21
11.135318
 31
0.0
  0
LINE
  5
171
100
AcDbEntity
  8
top
 62
7
100
AcDbLine
 10
432.227454
 20
11.135318
 30
0.0
 11
432.377455
 21
10.772577
 31
0.0
  0
LINE
  5
172
100
AcDbEntity
  8
top
 62
7
100
AcDbLine
 10
432.377455
 20
10.772577
 30
0.0
 11
432.469600
 21
10.391211
 31
0.0
  0
LINE
  5
173
100
AcDbEntity
  8
top
 62
7
100
AcDbLine
 10
432.469600
 20
10.391211
 30
0.0
 11
432.499996
 21
10.000022
 31
0.0
  0
LINE
  5
174
100
AcDbEntity
  8
top
 62
7
100
AcDbLine
 10
432.499996
 20
10.000022
 30
0.0
 11
432.469600
 21
9.608862
 31
0.0
  0
LINE
  5
175
100
AcDbEntity
  8
top
 62
7
100
AcDbLine
 10
432.469600
 20
9.608862
 30
0.0
 11
432.377455
 21
9.227467
 31
0.0
  0
LINE
  5
176
100
AcDbEntity
  8
top
 62
7
100
AcDbLine
 10
432.377455
 20
9.227467
 30
0.0
 11
432.227454
 21
8.864727
 31
0.0
  0
LINE
  5
177
100
AcDbEntity
  8
top
 62
7
100
AcDbLine
 10
432.227454
 20
8.864727
 30
0.0
 11
432.022560
 21
8.530407
 31
0.0
  0
LINE
  5
178
100
AcDbEntity
  8
top
 62
7
100
AcDbLine
 10
432.022560
 20
8.530407
 30
0.0
 11
431.767657
 21
8.232380
 31
0.0
  0
LINE
  5
179
100
AcDbEntity
  8
top
 62
7
100
AcDbLine
 10
431.767657
 20
8.232380
 30
0.0
 11
431.469602
 21
7.977477
 31
0.0
  0
LINE
  5
17a
100
AcDbEntity
  8
top
 62
7
100
AcDbLine
 10
431.469602
 20
7.977477
 30
0.0
 11
431.135282
 21
7.772583
 31
0.0
  0
LINE
  5
17b
100
AcDbEntity
  8
top
 62
7
100
AcDbLine
 10
431.135282
 20
7.772583
 30
0.0
 11
430.772542
 21
7.622582
 31
0.0
  0
LINE
  5
17c
100
AcDbEntity
  8
top
 62
7
100
AcDbLine
 10
430.772542
 20
7.622582
 30
0.0
 11
430.391175
 21
7.530409
 31
0.0
  0
LINE
  5
17d
100
AcDbEntity
  8
top
 62
7
100
AcDbLine
 10
430.391175
 20
7.530409
 30
0.0
 11
429.999987
 21
7.500013
 31
0.0
  0
LINE
  5
17e
100
AcDbEntity
  8
top
 62
7
100
AcDbLine
 10
429.999987
 20
7.500013
 30
0.0
 11
429.608827
 21
7.530409
 31
0.0
  0
LINE
  5
17f
100
AcDbEntity
  8
top
 62
7
100
AcDbLine
 10
429.608827
 20
7.530409
 30
0.0
 11
429.227460
 21
7.622582
 31
0.0
  0
LINE
  5
180
100
AcDbEntity
  8
top
 62
7
100
AcDbLine
 10
429.227460
 20
7.622582
 30
0.0
 11
428.864691
 21
7.772583
 31
0.0
  0
LINE
  5
181
100
AcDbEntity
  8
top
 62
7
100
AcDbLine
 10
428.864691
 20
7.772583
 30
0.0
 11
428.530399
 21
7.977477
 31
0.0
  0
LINE
  5
182
100
AcDbEntity
  8
top
 62
7
100
AcDbLine
 10
428.530399
 20
7.977477
 30
0.0
 11
428.232344
 21
8.232380
 31
0.0
  0
LINE
  5
183
100
AcDbEntity
  8
top
 62
7
100
AcDbLine
 10
428.232344
 20
8.232380
 30
0.0
 11
427.977441
 21
8.530407
 31
0.0
  0
LINE
  5
184
100
AcDbEntity
  8
top
 62
7
100
AcDbLine
 10
427.977441
 20
8.530407
 30
0.0
 11
427.772548
 21
8.864727
 31
0.0
  0
LINE
  5
185
100
AcDbEntity
  8
top
 62
7
100
AcDbLine
 10
427.772548
 20
8.864727
 30
0.0
 11
427.622547
 21
9.227467
 31
0.0
  0
LINE
  5
186
100
AcDbEntity
  8
top
 62
7
100
AcDbLine
 10
427.622547
 20
9.227467
 30
0.0
 11
427.530401
 21
9.608862
 31
0.0
  0
LINE
  5
187
100
AcDbEntity
  8
top
 62
7
100
AcDbLine
 10
427.530401
 20
9.608862
 30
0.0
 11
427.500006
 21
10.000022
 31
0.0
  0
LINE
  5
188
100
AcDbEntity
  8
top
 62
7
100
AcDbLine
 10
427.500006
 20
10.000022
 30
0.0
 11
427.530401
 21
10.391211
 31
0.0
  0
LINE
  5
189
100
AcDbEntity
  8
top
 62
7
100
AcDbLine
 10
427.530401
 20
10.391211
 30
0.0
 11
427.622547
 21
10.772577
 31
0.0
  0
LINE
  5
18a
100
AcDbEntity
  8
top
 62
7
100
AcDbLine
 10
427.622547
 20
10.772577
 30
0.0
 11
427.772548
 21
11.135318
 31
0.0
  0
LINE
  5
18b
100
AcDbEntity
  8
top
 62
7
100
AcDbLine
 10
427.772548
 20
11.135318
 30
0.0
 11
427.977441
 21
11.469638
 31
0.0
  0
LINE
  5
18c
100
AcDbEntity
  8
top
 62
7
100
AcDbLine
 10
427.977441
 20
11.469638
 30
0.0
 11
428.232344
 21
11.767665
 31
0.0
  0
LINE
  5
18d
100
AcDbEntity
  8
top
 62
7
100
AcDbLine
 10
428.232344
 20
11.767665
 30
0.0
 11
428.530399
 21
12.022568
 31
0.0
  0
LINE
  5
18e
100
AcDbEntity
  8
top
 62
7
100
AcDbLine
 10
428.530399
 20
12.022568
 30
0.0
 11
428.864691
 21
12.227489
 31
0.0
  0
LINE
  5
18f
100
AcDbEntity
  8
top
 62
7
100
AcDbLine
 10
218.864705
 20
12.227489
 30
0.0
 11
219.227451
 21
12.377491
 31
0.0
  0
LINE
  5
190
100
AcDbEntity
  8
top
 62
7
100
AcDbLine
 10
219.227451
 20
12.377491
 30
0.0
 11
219.608823
 21
12.469636
 31
0.0
  0
LINE
  5
191
100
AcDbEntity
  8
top
 62
7
100
AcDbLine
 10
219.608823
 20
12.469636
 30
0.0
 11
220.000000
 21
12.500031
 31
0.0
  0
LINE
  5
192
100
AcDbEntity
  8
top
 62
7
100
AcDbLine
 10
220.000000
 20
12.500031
 30
0.0
 11
220.391177
 21
12.469636
 31
0.0
  0
LINE
  5
193
100
AcDbEntity
  8
top
 62
7
100
AcDbLine
 10
220.391177
 20
12.469636
 30
0.0
 11
220.772550
 21
12.377491
 31
0.0
  0
LINE
  5
194
100
AcDbEntity
  8
top
 62
7
100
AcDbLine
 10
220.772550
 20
12.377491
 30
0.0
 11
221.135296
 21
12.227489
 31
0.0
  0
LINE
  5
195
100
AcDbEntity
  8
top
 62
7
100
AcDbLine
 10
221.135296
 20
12.227489
 30
0.0
 11
221.469608
 21
12.022568
 31
0.0
  0
LINE
  5
196
100
AcDbEntity
  8
top
 62
7
100
AcDbLine
 10
221.469608
 20
12.022568
 30
0.0
 11
221.767646
 21
11.767665
 31
0.0
  0
LINE
  5
197
100
AcDbEntity
  8
top
 62
7
100
AcDbLine
 10
221.767646
 20
11.767665
 30
0.0
 11
222.022549
 21
11.469638
 31
0.0
  0
LINE
  5
198
100
AcDbEntity
  8
top
 62
7
100
AcDbLine
 10
222.022549
 20
11.469638
 30
0.0
 11
222.227450
 21
11.135318
 31
0.0
  0
LINE
  5
199
100
AcDbEntity
  8
top
 62
7
100
AcDbLine
 10
222.227450
 20
11.135318
 30
0.0
 11
222.377452
 21
10.772577
 31
0.0
  0
LINE
  5
19a
100
AcDbEntity
  8
top
 62
7
100
AcDbLine
 10
222.377452
 20
10.772577
 30
0.0
 11
222.469608
 21
10.391211
 31
0.0
  0
LINE
  5
19b
100
AcDbEntity
  8
top
 62
7
100
AcDbLine
 10
222.469608
 20
10.391211
 30
0.0
 11
222.500001
 21
10.000022
 31
0.0
  0
LINE
  5
19c
100
AcDbEntity
  8
top
 62
7
100
AcDbLine
 10
222.500001
 20
10.000022
 30
0.0
 11
222.469608
 21
9.608862
 31
0.0
  0
LINE
  5
19d
100
AcDbEntity
  8
top
 62
7
100
AcDbLine
 10
222.469608
 20
9.608862
 30
0.0
 11
222.377452
 21
9.227467
 31
0.0
  0
LINE
  5
19e
100
AcDbEntity
  8
top
 62
7
100
AcDbLine
 10
222.377452
 20
9.227467
 30
0.0
 11
222.227450
 21
8.864727
 31
0.0
  0
LINE
  5
19f
100
AcDbEntity
  8
top
 62
7
100
AcDbLine
 10
222.227450
 20
8.864727
 30
0.0
 11
222.022549
 21
8.530407
 31
0.0
  0
LINE
  5
1a0
100
AcDbEntity
  8
top
 62
7
100
AcDbLine
 10
222.022549
 20
8.530407
 30
0.0
 11
221.767646
 21
8.232380
 31
0.0
  0
LINE
  5
1a1
100
AcDbEntity
  8
top
 62
7
100
AcDbLine
 10
221.767646
 20
8.232380
 30
0.0
 11
221.469608
 21
7.977477
 31
0.0
  0
LINE
  5
1a2
100
AcDbEntity
  8
top
 62
7
100
AcDbLine
 10
221.469608
 20
7.977477
 30
0.0
 11
221.135296
 21
7.772583
 31
0.0
  0
LINE
  5
1a3
100
AcDbEntity
  8
top
 62
7
100
AcDbLine
 10
221.135296
 20
7.772583
 30
0.0
 11
220.772550
 21
7.622582
 31
0.0
  0
LINE
  5
1a4
100
AcDbEntity
  8
top
 62
7
100
AcDbLine
 10
220.772550
 20
7.622582
 30
0.0
 11
220.391177
 21
7.530409
 31
0.0
  0
LINE
  5
1a5
100
AcDbEntity
  8
top
 62
7
100
AcDbLine
 10
220.391177
 20
7.530409
 30
0.0
 11
220.000000
 21
7.500013
 31
0.0
  0
LINE
  5
1a6
100
AcDbEntity
  8
top
 62
7
100
AcDbLine
 10
220.000000
 20
7.500013
 30
0.0
 11
219.608823
 21
7.530409
 31
0.0
  0
LINE
  5
1a7
100
AcDbEntity
  8
top
 62
7
100
AcDbLine
 10
219.608823
 20
7.530409
 30
0.0
 11
219.227451
 21
7.622582
 31
0.0
  0
LINE
  5
1a8
100
AcDbEntity
  8
top
 62
7
100
AcDbLine
 10
219.227451
 20
7.622582
 30
0.0
 11
218.864705
 21
7.772583
 31
0.0
  0
LINE
  5
1a9
100
AcDbEntity
  8
top
 62
7
100
AcDbLine
 10
218.864705
 20
7.772583
 30
0.0
 11
218.530390
 21
7.977477
 31
0.0
  0
LINE
  5
1aa
100
AcDbEntity
  8
top
 62
7
100
AcDbLine
 10
218.530390
 20
7.977477
 30
0.0
 11
218.232352
 21
8.232380
 31
0.0
  0
LINE
  5
1ab
100
AcDbEntity
  8
top
 62
7
100
AcDbLine
 10
218.232352
 20
8.232380
 30
0.0
 11
217.977452
 21
8.530407
 31
0.0
  0
LINE
  5
1ac
100
AcDbEntity
  8
top
 62
7
100
AcDbLine
 10
217.977452
 20
8.530407
 30
0.0
 11
217.772550
 21
8.864727
 31
0.0
  0
LINE
  5
1ad
100
AcDbEntity
  8
top
 62
7
100
AcDbLine
 10
217.772550
 20
8.864727
 30
0.0
 11
217.622549
 21
9.227467
 31
0.0
  0
LINE
  5
1ae
100
AcDbEntity
  8
top
 62
7
100
AcDbLine
 10
217.622549
 20
9.227467
 30
0.0
 11
217.530392
 21
9.608862
 31
0.0
  0
LINE
  5
1af
100
AcDbEntity
  8
top
 62
7
100
AcDbLine
 10
217.530392
 20
9.608862
 30
0.0
 11
217.500000
 21
10.000022
 31
0.0
  0
LINE
  5
1b0
100
AcDbEntity
  8
top
 62
7
100
AcDbLine
 10
217.500000
 20
10.000022
 30
0.0
 11
217.530392
 21
10.391211
 31
0.0
  0
LINE
  5
1b1
100
AcDbEntity
  8
top
 62
7
100
AcDbLine
 10
217.530392
 20
10.391211
 30
0.0
 11
217.622549
 21
10.772577
 31
0.0
  0
LINE
  5
1b2
100
AcDbEntity
  8
top
 62
7
100
AcDbLine
 10
217.622549
 20
10.772577
 30
0.0
 11
217.772550
 21
11.135318
 31
0.0
  0
LINE
  5
1b3
100
AcDbEntity
  8
top
 62
7
100
AcDbLine
 10
217.772550
 20
11.135318
 30
0.0
 11
217.977452
 21
11.469638
 31
0.0
  0
LINE
  5
1b4
100
AcDbEntity
  8
top
 62
7
100
AcDbLine
 10
217.977452
 20
11.469638
 30
0.0
 11
218.232352
 21
11.767665
 31
0.0
  0
LINE
  5
1b5
100
AcDbEntity
  8
top
 62
7
100
AcDbLine
 10
218.232352
 20
11.767665
 30
0.0
 11
218.530390
 21
12.022568
 31
0.0
  0
LINE
  5
1b6
100
AcDbEntity
  8
top
 62
7
100
AcDbLine
 10
218.530390
 20
12.022568
 30
0.0
 11
218.864705
 21
12.227489
 31
0.0
  0
LINE
  5
1b7
100
AcDbEntity
  8
top
 62
7
100
AcDbLine
 10
8.864705
 20
152.227489
 30
0.0
 11
9.227451
 21
152.377490
 31
0.0
  0
LINE
  5
1b8
100
AcDbEntity
  8
top
 62
7
100
AcDbLine
 10
9.227451
 20
152.377490
 30
0.0
 11
9.608824
 21
152.469636
 31
0.0
  0
LINE
  5
1b9
100
AcDbEntity
  8
top
 62
7
100
AcDbLine
 10
9.608824
 20
152.469636
 30
0.0
 11
10.000001
 21
152.500031
 31
0.0
  0
LINE
  5
1ba
100
AcDbEntity
  8
top
 62
7
100
AcDbLine
 10
10.000001
 20
152.500031
 30
0.0
 11
10.391178
 21
152.469636
 31
0.0
  0
LINE
  5
1bb
100
AcDbEntity
  8
top
 62
7
100
AcDbLine
 10
10.391178
 20
152.469636
 30
0.0
 11
10.772550
 21
152.377490
 31
0.0
  0
LINE
  5
1bc
100
AcDbEntity
  8
top
 62
7
100
AcDbLine
 10
10.772550
 20
152.377490
 30
0.0
 11
11.135296
 21
152.227489
 31
0.0
  0
LINE
  5
1bd
100
AcDbEntity
  8
top
 62
7
100
AcDbLine
 10
11.135296
 20
152.227489
 30
0.0
 11
11.469608
 21
152.022567
 31
0.0
  0
LINE
  5
1be
100
AcDbEntity
  8
top
 62
7
100
AcDbLine
 10
11.469608
 20
152.022567
 30
0.0
 11
11.767646
 21
151.767664
 31
0.0
  0
LINE
  5
1bf
100
AcDbEntity
  8
top
 62
7
100
AcDbLine
 10
11.767646
 20
151.767664
 30
0.0
 11
12.022549
 21
151.469638
 31
0.0
  0
LINE
  5
1c0
100
AcDbEntity
  8
top
 62
7
100
AcDbLine
 10
12.022549
 20
151.469638
 30
0.0
 11
12.227451
 21
151.135317
 31
0.0
  0
LINE
  5
1c1
100
AcDbEntity
  8
top
 62
7
100
AcDbLine
 10
12.227451
 20
151.135317
 30
0.0
 11
12.377452
 21
150.772577
 31
0.0
  0
LINE
  5
1c2
100
AcDbEntity
  8
top
 62
7
100
AcDbLine
 10
12.377452
 20
150.772577
 30
0.0
 11
12.469609
 21
150.391210
 31
0.0
  0
LINE
  5
1c3
100
AcDbEntity
  8
top
 62
7
100
AcDbLine
 10
12.469609
 20
150.391210
 30
0.0
 11
12.500001
 21
150.000022
 31
0.0
  0
LINE
  5
1c4
100
AcDbEntity
  8
top
 62
7
100
AcDbLine
 10
12.500001
 20
150.000022
 30
0.0
 11
12.469609
 21
149.608862
 31
0.0
  0
LINE
  5
1c5
100
AcDbEntity
  8
top
 62
7
100
AcDbLine
 10
12.469609
 20
149.608862
 30
0.0
 11
12.377452
 21
149.227467
 31
0.0
  0
LINE
  5
1c6
100
AcDbEntity
  8
top
 62
7
100
AcDbLine
 10
12.377452
 20
149.227467
 30
0.0
 11
12.227451
 21
148.864726
 31
0.0
  0
LINE
  5
1c7
100
AcDbEntity
  8
top
 62
7
100
AcDbLine
 10
12.227451
 20
148.864726
 30
0.0
 11
12.022549
 21
148.530406
 31
0.0
  0
LINE
  5
1c8
100
AcDbEntity
  8
top
 62
7
100
AcDbLine
 10
12.022549
 20
148.530406
 30
0.0
 11
11.767646
 21
148.232379
 31
0.0
  0
LINE
  5
1c9
100
AcDbEntity
  8
top
 62
7
100
AcDbLine
 10
11.767646
 20
148.232379
 30
0.0
 11
11.469608
 21
147.977476
 31
0.0
  0
LINE
  5
1ca
100
AcDbEntity
  8
top
 62
7
100
AcDbLine
 10
11.469608
 20
147.977476
 30
0.0
 11
11.135296
 21
147.772583
 31
0.0
  0
LINE
  5
1cb
100
AcDbEntity
  8
top
 62
7
100
AcDbLine
 10
11.135296
 20
147.772583
 30
0.0
 11
10.772550
 21
147.622582
 31
0.0
  0
LINE
  5
1cc
100
AcDbEntity
  8
top
 62
7
100
AcDbLine
 10
10.772550
 20
147.622582
 30
0.0
 11
10.391178
 21
147.530408
 31
0.0
  0
LINE
  5
1cd
100
AcDbEntity
  8
top
 62
7
100
AcDbLine
 10
10.391178
 20
147.530408
 30
0.0
 11
10.000001
 21
147.500013
 31
0.0
  0
LINE
  5
1ce
100
AcDbEntity
  8
top
 62
7
100
AcDbLine
 10
10.000001
 20
147.500013
 30
0.0
 11
9.608824
 21
147.530408
 31
0.0
  0
LINE
  5
1cf
100
AcDbEntity
  8
top
 62
7
100
AcDbLine
 10
9.608824
 20
147.530408
 30
0.0
 11
9.227451
 21
147.622582
 31
0.0
  0
LINE
  5
1d0
100
AcDbEntity
  8
top
 62
7
100
AcDbLine
 10
9.227451
 20
147.622582
 30
0.0
 11
8.864705
 21
147.772583
 31
0.0
  0
LINE
  5
1d1
100
AcDbEntity
  8
top
 62
7
100
AcDbLine
 10
8.864705
 20
147.772583
 30
0.0
 11
8.530390
 21
147.977476
 31
0.0
  0
LINE
  5
1d2
100
AcDbEntity
  8
top
 62
7
100
AcDbLine
 10
8.530390
 20
147.977476
 30
0.0
 11
8.232353
 21
148.232379
 31
0.0
  0
LINE
  5
1d3
100
AcDbEntity
  8
top
 62
7
100
AcDbLine
 10
8.232353
 20
148.232379
 30
0.0
 11
7.977452
 21
148.530406
 31
0.0
  0
LINE
  5
1d4
100
AcDbEntity
  8
top
 62
7
100
AcDbLine
 10
7.977452
 20
148.530406
 30
0.0
 11
7.772550
 21
148.864726
 31
0.0
  0
LINE
  5
1d5
100
AcDbEntity
  8
top
 62
7
100
AcDbLine
 10
7.772550
 20
148.864726
 30
0.0
 11
7.622549
 21
149.227467
 31
0.0
  0
LINE
  5
1d6
100
AcDbEntity
  8
top
 62
7
100
AcDbLine
 10
7.622549
 20
149.227467
 30
0.0
 11
7.530392
 21
149.608862
 31
0.0
  0
LINE
  5
1d7
100
AcDbEntity
  8
top
 62
7
100
AcDbLine
 10
7.530392
 20
149.608862
 30
0.0
 11
7.500000
 21
150.000022
 31
0.0
  0
LINE
  5
1d8
100
AcDbEntity
  8
top
 62
7
100
AcDbLine
 10
7.500000
 20
150.000022
 30
0.0
 11
7.530392
 21
150.391210
 31
0.0
  0
LINE
  5
1d9
100
AcDbEntity
  8
top
 62
7
100
AcDbLine
 10
7.530392
 20
150.391210
 30
0.0
 11
7.622549
 21
150.772577
 31
0.0
  0
LINE
  5
1da
100
AcDbEntity
  8
top
 62
7
100
AcDbLine
 10
7.622549
 20
150.772577
 30
0.0
 11
7.772550
 21
151.135317
 31
0.0
  0
LINE
  5
1db
100
AcDbEntity
  8
top
 62
7
100
AcDbLine
 10
7.772550
 20
151.135317
 30
0.0
 11
7.977452
 21
151.469638
 31
0.0
  0
LINE
  5
1dc
100
AcDbEntity
  8
top
 62
7
100
AcDbLine
 10
7.977452
 20
151.469638
 30
0.0
 11
8.232353
 21
151.767664
 31
0.0
  0
LINE
  5
1dd
100
AcDbEntity
  8
top
 62
7
100
AcDbLine
 10
8.232353
 20
151.767664
 30
0.0
 11
8.530390
 21
152.022567
 31
0.0
  0
LINE
  5
1de
100
AcDbEntity
  8
top
 62
7
100
AcDbLine
 10
8.530390
 20
152.022567
 30
0.0
 11
8.864705
 21
152.227489
 31
0.0
  0
LINE
  5
1df
100
AcDbEntity
  8
top
 62
7
100
AcDbLine
 10
428.864691
 20
152.227489
 30
0.0
 11
429.227460
 21
152.377490
 31
0.0
  0
LINE
  5
1e0
100
AcDbEntity
  8
top
 62
7
100
AcDbLine
 10
429.227460
 20
152.377490
 30
0.0
 11
429.608827
 21
152.469636
 31
0.0
  0
LINE
  5
1e1
100
AcDbEntity
  8
top
 62
7
100
AcDbLine
 10
429.608827
 20
152.469636
 30
0.0
 11
429.999987
 21
152.500031
 31
0.0
  0
LINE
  5
1e2
100
AcDbEntity
  8
top
 62
7
100
AcDbLine
 10
429.999987
 20
152.500031
 30
0.0
 11
430.391175
 21
152.469636
 31
0.0
  0
LINE
  5
1e3
100
AcDbEntity
  8
top
 62
7
100
AcDbLine
 10
430.391175
 20
152.469636
 30
0.0
 11
430.772542
 21
152.377490
 31
0.0
  0
LINE
  5
1e4
100
AcDbEntity
  8
top
 62
7
100
AcDbLine
 10
430.772542
 20
152.377490
 30
0.0
 11
431.135282
 21
152.227489
 31
0.0
  0
LINE
  5
1e5
100
AcDbEntity
  8
top
 62
7
100
AcDbLine
 10
431.135282
 20
152.227489
 30
0.0
 11
431.469602
 21
152.022567
 31
0.0
  0
LINE
  5
1e6
100
AcDbEntity
  8
top
 62
7
100
AcDbLine
 10
431.469602
 20
152.022567
 30
0.0
 11
431.767657
 21
151.767664
 31
0.0
  0
LINE
  5
1e7
100
AcDbEntity
  8
top
 62
7
100
AcDbLine
 10
431.767657
 20
151.767664
 30
0.0
 11
432.022560
 21
151.469638
 31
0.0
  0
LINE
  5
1e8
100
AcDbEntity
  8
top
 62
7
100
AcDbLine
 10
432.022560
 20
151.469638
 30
0.0
 11
432.227454
 21
151.135317
 31
0.0
  0
LINE
  5
1e9
100
AcDbEntity
  8
top
 62
7
100
AcDbLine
 10
432.227454
 20
151.135317
 30
0.0
 11
432.377455
 21
150.772577
 31
0.0
  0
LINE
  5
1ea
100
AcDbEntity
  8
top
 62
7
100
AcDbLine
 10
432.377455
 20
150.772577
 30
0.0
 11
432.469600
 21
150.391210
 31
0.0
  0
LINE
  5
1eb
100
AcDbEntity
  8
top
 62
7
100
AcDbLine
 10
432.469600
 20
150.391210
 30
0.0
 11
432.499996
 21
150.000022
 31
0.0
  0
LINE
  5
1ec
100
AcDbEntity
  8
top
 62
7
100
AcDbLine
 10
432.499996
 20
150.000022
 30
0.0
 11
432.469600
 21
149.608862
 31
0.0
  0
LINE
  5
1ed
100
AcDbEntity
  8
top
 62
7
100
AcDbLine
 10
432.469600
 20
149.608862
 30
0.0
 11
432.377455
 21
149.227467
 31
0.0
  0
LINE
  5
1ee
100
AcDbEntity
  8
top
 62
7
100
AcDbLine
 10
432.377455
 20
149.227467
 30
0.0
 11
432.227454
 21
148.864726
 31
0.0
  0
LINE
  5
1ef
100
AcDbEntity
  8
top
 62
7
100
AcDbLine
 10
432.227454
 20
148.864726
 30
0.0
 11
432.022560
 21
148.530406
 31
0.0
  0
LINE
  5
1f0
100
AcDbEntity
  8
top
 62
7
100
AcDbLine
 10
432.022560
 20
148.530406
 30
0.0
 11
431.767657
 21
148.232379
 31
0.0
  0
LINE
  5
1f1
100
AcDbEntity
  8
top
 62
7
100
AcDbLine
 10
431.767657
 20
148.232379
 30
0.0
 11
431.469602
 21
147.977476
 31
0.0
  0
LINE
  5
1f2
100
AcDbEntity
  8
top
 62
7
100
AcDbLine
 10
431.469602
 20
147.977476
 30
0.0
 11
431.135282
 21
147.772583
 31
0.0
  0
LINE
  5
1f3
100
AcDbEntity
  8
top
 62
7
100
AcDbLine
 10
431.135282
 20
147.772583
 30
0.0
 11
430.772542
 21
147.622582
 31
0.0
  0
LINE
  5
1f4
100
AcDbEntity
  8
top
 62
7
100
AcDbLine
 10
430.772542
 20
147.622582
 30
0.0
 11
430.391175
 21
147.530408
 31
0.0
  0
LINE
  5
1f5
100
AcDbEntity
  8
top
 62
7
100
AcDbLine
 10
430.391175
 20
147.530408
 30
0.0
 11
429.999987
 21
147.500013
 31
0.0
  0
LINE
  5
1f6
100
AcDbEntity
  8
top
 62
7
100
AcDbLine
 10
429.999987
 20
147.500013
 30
0.0
 11
429.608827
 21
147.530408
 31
0.0
  0
LINE
  5
1f7
100
AcDbEntity
  8
top
 62
7
100
AcDbLine
 10
429.608827
 20
147.530408
 30
0.0
 11
429.227460
 21
147.622582
 31
0.0
  0
LINE
  5
1f8
100
AcDbEntity
  8
top
 62
7
100
AcDbLine
 10
429.227460
 20
147.622582
 30
0.0
 11
428.864691
 21
147.772583
 31
0.0
  0
LINE
  5
1f9
100
AcDbEntity
  8
top
 62
7
100
AcDbLine
 10
428.864691
 20
147.772583
 30
0.0
 11
428.530399
 21
147.977476
 31
0.0
  0
LINE
  5
1fa
100
AcDbEntity
  8
top
 62
7
100
AcDbLine
 10
428.530399
 20
147.977476
 30
0.0
 11
428.232344
 21
148.232379
 31
0.0
  0
LINE
  5
1fb
100
AcDbEntity
  8
top
 62
7
100
AcDbLine
 10
428.232344
 20
148.232379
 30
0.0
 11
427.977441
 21
148.530406
 31
0.0
  0
LINE
  5
1fc
100
AcDbEntity
  8
top
 62
7
100
AcDbLine
 10
427.977441
 20
148.530406
 30
0.0
 11
427.772548
 21
148.864726
 31
0.0
  0
LINE
  5
1fd
100
AcDbEntity
  8
top
 62
7
100
AcDbLine
 10
427.772548
 20
148.864726
 30
0.0
 11
427.622547
 21
149.227467
 31
0.0
  0
LINE
  5
1fe
100
AcDbEntity
  8
top
 62
7
100
AcDbLine
 10
427.622547
 20
149.227467
 30
0.0
 11
427.530401
 21
149.608862
 31
0.0
  0
LINE
  5
1ff
100
AcDbEntity
  8
top
 62
7
100
AcDbLine
 10
427.530401
 20
149.608862
 30
0.0
 11
427.500006
 21
150.000022
 31
0.0
  0
LINE
  5
200
100
AcDbEntity
  8
top
 62
7
100
AcDbLine
 10
427.500006
 20
150.000022
 30
0.0
 11
427.530401
 21
150.391210
 31
0.0
  0
LINE
  5
201
100
AcDbEntity
  8
top
 62
7
100
AcDbLine
 10
427.530401
 20
150.391210
 30
0.0
 11
427.622547
 21
150.772577
 31
0.0
  0
LINE
  5
202
100
AcDbEntity
  8
top
 62
7
100
AcDbLine
 10
427.622547
 20
150.772577
 30
0.0
 11
427.772548
 21
151.135317
 31
0.0
  0
LINE
  5
203
100
AcDbEntity
  8
top
 62
7
100
AcDbLine
 10
427.772548
 20
151.135317
 30
0.0
 11
427.977441
 21
151.469638
 31
0.0
  0
LINE
  5
204
100
AcDbEntity
  8
top
 62
7
100
AcDbLine
 10
427.977441
 20
151.469638
 30
0.0
 11
428.232344
 21
151.767664
 31
0.0
  0
LINE
  5
205
100
AcDbEntity
  8
top
 62
7
100
AcDbLine
 10
428.232344
 20
151.767664
 30
0.0
 11
428.530399
 21
152.022567
 31
0.0
  0
LINE
  5
206
100
AcDbEntity
  8
top
 62
7
100
AcDbLine
 10
428.530399
 20
152.022567
 30
0.0
 11
428.864691
 21
152.227489
 31
0.0
  0
SPLINE
  5
207
100
AcDbEntity
  8
top
 62
7
100
AcDbSpline
 70
8
 71
3
 72
8
 73
4
 74
0
 40
0
 40
0
 40
0
 40
0
 40
1
 40
1
 40
1
 40
1
 10
246.999997
 20
245.000018
 30
0.0
 10
247.000766
 20
244.284975
 30
0.0
 10
246.619737
 20
243.623918
 30
0.0
 10
246.000619
 20
243.266175
 30
0.0
  0
SPLINE
  5
208
100
AcDbEntity
  8
top
 62
7
100
AcDbSpline
 70
8
 71
3
 72
8
 73
4
 74
0
 40
0
 40
0
 40
0
 40
0
 40
1
 40
1
 40
1
 40
1
 10
246.000619
 20
243.266175
 30
0.0
 10
245.381502
 20
242.908431
 30
0.0
 10
244.618495
 20
242.908431
 30
0.0
 10
243.999377
 20
243.266175
 30
0.0
  0
SPLINE
  5
209
100
AcDbEntity
  8
top
 62
7
100
AcDbSpline
 70
8
 71
3
 72
8
 73
4
 74
0
 40
0
 40
0
 40
0
 40
0
 40
1
 40
1
 40
1
 40
1
 10
243.999377
 20
243.266175
 30
0.0
 10
243.380260
 20
243.623918
 30
0.0
 10
242.999230
 20
244.284975
 30
0.0
 10
242.999999
 20
245.000018
 30
0.0
  0
SPLINE
  5
20a
100
AcDbEntity
  8
top
 62
7
100
AcDbSpline
 70
8
 71
3
 72
8
 73
4
 74
0
 40
0
 40
0
 40
0
 40
0
 40
1
 40
1
 40
1
 40
1
 10
242.999999
 20
245.000018
 30
0.0
 10
242.999230
 20
245.715061
 30
0.0
 10
243.380260
 20
246.376118
 30
0.0
 10
243.999377
 20
246.733861
 30
0.0
  0
SPLINE
  5
20b
100
AcDbEntity
  8
top
 62
7
100
AcDbSpline
 70
8
 71
3
 72
8
 73
4
 74
0
 40
0
 40
0
 40
0
 40
0
 40
1
 40
1
 40
1
 40
1
 10
243.999377
 20
246.733861
 30
0.0
 10
244.618495
 20
247.091605
 30
0.0
 10
245.381502
 20
247.091605
 30
0.0
 10
246.000619
 20
246.733861
 30
0.0
  0
SPLINE
  5
20c
100
AcDbEntity
  8
top
 62
7
100
AcDbSpline
 70
8
 71
3
 72
8
 73
4
 74
0
 40
0
 40
0
 40
0
 40
0
 40
1
 40
1
 40
1
 40
1
 10
246.000619
 20
246.733861
 30
0.0
 10
246.619737
 20
246.376118
 30
0.0
 10
247.000766
 20
245.715061
 30
0.0
 10
246.999997
 20
245.000018
 30
0.0
  0
LINE
  5
20d
100
AcDbEntity
  8
top
 62
7
100
AcDbLine
 10
246.999997
 20
245.000018
 30
0.0
 11
246.999997
 21
245.000018
 31
0.0
  0
SPLINE
  5
20e
100
AcDbEntity
  8
top
 62
7
100
AcDbSpline
 70
8
 71
3
 72
8
 73
4
 74
0
 40
0
 40
0
 40
0
 40
0
 40
1
 40
1
 40
1
 40
1
 10
256.999999
 20
245.000021
 30
0.0
 10
257.000768
 20
244.284978
 30
0.0
 10
256.619739
 20
243.623921
 30
0.0
 10
256.000621
 20
243.266177
 30
0.0
  0
SPLINE
  5
20f
100
AcDbEntity
  8
top
 62
7
100
AcDbSpline
 70
8
 71
3
 72
8
 73
4
 74
0
 40
0
 40
0
 40
0
 40
0
 40
1
 40
1
 40
1
 40
1
 10
256.000621
 20
243.266177
 30
0.0
 10
255.381504
 20
242.908434
 30
0.0
 10
254.618497
 20
242.908434
 30
0.0
 10
253.999379
 20
243.266177
 30
0.0
  0
SPLINE
  5
210
100
AcDbEntity
  8
top
 62
7
100
AcDbSpline
 70
8
 71
3
 72
8
 73
4
 74
0
 40
0
 40
0
 40
0
 40
0
 40
1
 40
1
 40
1
 40
1
 10
253.999379
 20
243.266177
 30
0.0
 10
253.380262
 20
243.623921
 30
0.0
 10
252.999232
 20
244.284978
 30
0.0
 10
253.000001
 20
245.000021
 30
0.0
  0
SPLINE
  5
211
100
AcDbEntity
  8
top
 62
7
100
AcDbSpline
 70
8
 71
3
 72
8
 73
4
 74
0
 40
0
 40
0
 40
0
 40
0
 40
1
 40
1
 40
1
 40
1
 10
253.000001
 20
245.000021
 30
0.0
 10
252.999232
 20
245.715064
 30
0.0
 10
253.380262
 20
246.376120
 30
0.0
 10
253.999379
 20
246.733864
 30
0.0
  0
SPLINE
  5
212
100
AcDbEntity
  8
top
 62
7
100
AcDbSpline
 70
8
 71
3
 72
8
 73
4
 74
0
 40
0
 40
0
 40
0
 40
0
 40
1
 40
1
 40
1
 40
1
 10
253.999379
 20
246.733864
 30
0.0
 10
254.618497
 20
247.091608
 30
0.0
 10
255.381504
 20
247.091608
 30
0.0
 10
256.000621
 20
246.733864
 30
0.0
  0
SPLINE
  5
213
100
AcDbEntity
  8
top
 62
7
100
AcDbSpline
 70
8
 71
3
 72
8
 73
4
 74
0
 40
0
 40
0
 40
0
 40
0
 40
1
 40
1
 40
1
 40
1
 10
256.000621
 20
246.733864
 30
0.0
 10
256.619739
 20
246.376120
 30
0.0
 10
257.000768
 20
245.715064
 30
0.0
 10
256.999999
 20
245.000021
 30
0.0
  0
LINE
  5
214
100
AcDbEntity
  8
top
 62
7
100
AcDbLine
 10
256.999999
 20
245.000021
 30
0.0
 11
256.999999
 21
245.000021
 31
0.0
  0
LINE
  5
215
100
AcDbEntity
  8
bottom
 62
7
100
AcDbLine
 10
20.000000
 20
0.000000
 30
0.0
 11
20.000000
 21
59.249028
 31
0.0
  0
SPLINE
  5
216
100
AcDbEntity
  8
bottom
 62
7
100
AcDbSpline
 70
8
 71
3
 72
8
 73
4
 74
0
 40
0
 40
0
 40
0
 40
0
 40
1
 40
1
 40
1
 40
1
 10
20.000000
 20
59.249028
 30
0.0
 10
20.013688
 20
59.330392
 30
0.0
 10
20.026444
 20
59.419462
 30
0.0
 10
20.026444
 20
59.504778
 30
0.0
  0
SPLINE
  5
217
100
AcDbEntity
  8
bottom
 62
7
100
AcDbSpline
 70
8
 71
3
 72
8
 73
4
 74
0
 40
0
 40
0
 40
0
 40
0
 40
1
 40
1
 40
1
 40
1
 10
20.026444
 20
59.504778
 30
0.0
 10
20.026444
 20
59.590093
 30
0.0
 10
20.013660
 20
59.670301
 30
0.0
 10
20.000000
 20
59.751722
 30
0.0
  0
LINE
  5
218
100
AcDbEntity
  8
bottom
 62
7
100
AcDbLine
 10
20.000000
 20
59.751722
 30
0.0
 11
20.000000
 21
59.998666
 31
0.0
  0
LINE
  5
219
100
AcDbEntity
  8
bottom
 62
7
100
AcDbLine
 10
20.000000
 20
59.998666
 30
0.0
 11
19.938264
 21
59.998666
 31
0.0
  0
SPLINE
  5
21a
100
AcDbEntity
  8
bottom
 62
7
100
AcDbSpline
 70
8
 71
3
 72
8
 73
4
 74
0
 40
0
 40
0
 40
0
 40
0
 40
1
 40
1
 40
1
 40
1
 10
19.938264
 20
59.998666
 30
0.0
 10
19.732690
 20
60.581907
 30
0.0
 10
19.180717
 20
61.004083
 30
0.0
 10
18.527153
 20
61.004083
 30
0.0
  0
SPLINE
  5
21b
100
AcDbEntity
  8
bottom
 62
7
100
AcDbSpline
 70
8
 71
3
 72
8
 73
4
 74
0
 40
0
 40
0
 40
0
 40
0
 40
1
 40
1
 40
1
 40
1
 10
18.527153
 20
61.004083
 30
0.0
 10
17.873204
 20
61.004083
 30
0.0
 10
17.312505
 20
60.582443
 30
0.0
 10
17.107222
 20
59.998666
 30
0.0
  0
LINE
  5
21c
100
AcDbEntity
  8
bottom
 62
7
100
AcDbLine
 10
17.107222
 20
59.998666
 30
0.0
 11
-0.002500
 21
59.998666
 31
0.0
  0
LINE
  5
21d
100
AcDbEntity
  8
bottom
 62
7
100
AcDbLine
 10
-0.002500
 20
59.998666
 30
0.0
 11
-0.002500
 21
285.000342
 31
0.0
  0
LINE
  5
21e
100
AcDbEntity
  8
bottom
 62
7
100
AcDbLine
 10
-0.002500
 20
285.000342
 30
0.0
 11
439.999600
 21
285.000342
 31
0.0
  0
LINE
  5
21f
100
AcDbEntity
  8
bottom
 62
7
100
AcDbLine
 10
439.999600
 20
285.000342
 30
0.0
 11
439.999600
 21
59.998666
 31
0.0
  0
LINE
  5
220
100
AcDbEntity
  8
bottom
 62
7
100
AcDbLine
 10
439.999600
 20
59.998666
 30
0.0
 11
422.916322
 21
59.998666
 31
0.0
  0
SPLINE
  5
221
100
AcDbEntity
  8
bottom
 62
7
100
AcDbSpline
 70
8
 71
3
 72
8
 73
4
 74
0
 40
0
 40
0
 40
0
 40
0
 40
1
 40
1
 40
1
 40
1
 10
422.916322
 20
59.998666
 30
0.0
 10
422.711062
 20
60.582443
 30
0.0
 10
422.150342
 20
61.004083
 30
0.0
 10
421.496405
 20
61.004083
 30
0.0
  0
SPLINE
  5
222
100
AcDbEntity
  8
bottom
 62
7
100
AcDbSpline
 70
8
 71
3
 72
8
 73
4
 74
0
 40
0
 40
0
 40
0
 40
0
 40
1
 40
1
 40
1
 40
1
 10
421.496405
 20
61.004083
 30
0.0
 10
420.842835
 20
61.004083
 30
0.0
 10
420.290865
 20
60.581907
 30
0.0
 10
420.085294
 20
59.998666
 30
0.0
  0
LINE
  5
223
100
AcDbEntity
  8
bottom
 62
7
100
AcDbLine
 10
420.085294
 20
59.998666
 30
0.0
 11
419.997100
 21
59.998666
 31
0.0
  0
LINE
  5
224
100
AcDbEntity
  8
bottom
 62
7
100
AcDbLine
 10
419.997100
 20
59.998666
 30
0.0
 11
419.997100
 21
59.495972
 31
0.0
  0
LINE
  5
225
100
AcDbEntity
  8
bottom
 62
7
100
AcDbLine
 10
419.997100
 20
59.495972
 30
0.0
 11
419.997100
 21
0.000000
 31
0.0
  0
LINE
  5
226
100
AcDbEntity
  8
bottom
 62
7
100
AcDbLine
 10
419.997100
 20
0.000000
 30
0.0
 11
20.000000
 21
0.000000
 31
0.0
  0
LINE
  5
227
100
AcDbEntity
  8
bottom
 62
7
100
AcDbLine
 10
20.000000
 20
0.000000
 30
0.0
 11
20.000000
 21
0.000000
 31
0.0
  0
LINE
  5
228
100
AcDbEntity
  8
bottom
 62
7
100
AcDbLine
 10
59.999999
 20
69.000003
 30
0.0
 11
414.999994
 21
69.000003
 31
0.0
  0
LINE
  5
229
100
AcDbEntity
  8
bottom
 62
7
100
AcDbLine
 10
414.999994
 20
69.000003
 30
0.0
 11
414.999994
 21
57.000003
 31
0.0
  0
LINE
  5
22a
100
AcDbEntity
  8
bottom
 62
7
100
AcDbLine
 10
414.999994
 20
57.000003
 30
0.0
 11
59.999999
 21
57.000003
 31
0.0
  0
LINE
  5
22b
100
AcDbEntity
  8
bottom
 62
7
100
AcDbLine
 10
59.999999
 20
57.000003
 30
0.0
 11
59.999999
 21
69.000003
 31
0.0
  0
SPLINE
  5
22c
100
AcDbEntity
  8
bottom
 62
7
100
AcDbSpline
 70
8
 71
3
 72
8
 73
4
 74
0
 40
0
 40
0
 40
0
 40
0
 40
1
 40
1
 40
1
 40
1
 10
409.499996
 20
63.000009
 30
0.0
 10
409.499996
 20
62.106845
 30
0.0
 10
409.023499
 20
61.281528
 30
0.0
 10
408.249996
 20
60.834946
 30
0.0
  0
SPLINE
  5
22d
100
AcDbEntity
  8
bottom
 62
7
100
AcDbSpline
 70
8
 71
3
 72
8
 73
4
 74
0
 40
0
 40
0
 40
0
 40
0
 40
1
 40
1
 40
1
 40
1
 10
408.249996
 20
60.834946
 30
0.0
 10
407.476493
 20
60.388364
 30
0.0
 10
406.523499
 20
60.388364
 30
0.0
 10
405.749996
 20
60.834946
 30
0.0
  0
SPLINE
  5
22e
100
AcDbEntity
  8
bottom
 62
7
100
AcDbSpline
 70
8
 71
3
 72
8
 73
4
 74
0
 40
0
 40
0
 40
0
 40
0
 40
1
 40
1
 40
1
 40
1
 10
405.749996
 20
60.834946
 30
0.0
 10
404.976493
 20
61.281528
 30
0.0
 10
404.499996
 20
62.106845
 30
0.0
 10
404.499996
 20
63.000009
 30
0.0
  0
SPLINE
  5
22f
100
AcDbEntity
  8
bottom
 62
7
100
AcDbSpline
 70
8
 71
3
 72
8
 73
4
 74
0
 40
0
 40
0
 40
0
 40
0
 40
1
 40
1
 40
1
 40
1
 10
404.499996
 20
63.000009
 30
0.0
 10
404.499996
 20
63.893173
 30
0.0
 10
404.976494
 20
64.718491
 30
0.0
 10
405.749996
 20
65.165073
 30
0.0
  0
SPLINE
  5
230
100
AcDbEntity
  8
bottom
 62
7
100
AcDbSpline
 70
8
 71
3
 72
8
 73
4
 74
0
 40
0
 40
0
 40
0
 40
0
 40
1
 40
1
 40
1
 40
1
 10
405.749996
 20
65.165073
 30
0.0
 10
406.523499
 20
65.611655
 30
0.0
 10
407.476494
 20
65.611655
 30
0.0
 10
408.249996
 20
65.165073
 30
0.0
  0
SPLINE
  5
231
100
AcDbEntity
  8
bottom
 62
7
100
AcDbSpline
 70
8
 71
3
 72
8
 73
4
 74
0
 40
0
 40
0
 40
0
 40
0
 40
1
 40
1
 40
1
 40
1
 10
408.249996
 20
65.165073
 30
0.0
 10
409.023499
 20
64.718491
 30
0.0
 10
409.499996
 20
63.893173
 30
0.0
 10
409.499996
 20
63.000009
 30
0.0
  0
LINE
  5
232
100
AcDbEntity
  8
bottom
 62
7
100
AcDbLine
 10
409.499996
 20
63.000009
 30
0.0
 11
409.499997
 21
63.000009
 31
0.0
  0
SPLINE
  5
233
100
AcDbEntity
  8
bottom
 62
7
100
AcDbSpline
 70
8
 71
3
 72
8
 73
4
 74
0
 40
0
 40
0
 40
0
 40
0
 40
1
 40
1
 40
1
 40
1
 10
392.899995
 20
63.000009
 30
0.0
 10
392.899995
 20
62.106845
 30
0.0
 10
392.423498
 20
61.281528
 30
0.0
 10
391.649995
 20
60.834946
 30
0.0
  0
SPLINE
  5
234
100
AcDbEntity
  8
bottom
 62
7
100
AcDbSpline
 70
8
 71
3
 72
8
 73
4
 74
0
 40
0
 40
0
 40
0
 40
0
 40
1
 40
1
 40
1
 40
1
 10
391.649995
 20
60.834946
 30
0.0
 10
390.876493
 20
60.388364
 30
0.0
 10
389.923498
 20
60.388364
 30
0.0
 10
389.149995
 20
60.834946
 30
0.0
  0
SPLINE
  5
235
100
AcDbEntity
  8
bottom
 62
7
100
AcDbSpline
 70
8
 71
3
 72
8
 73
4
 74
0
 40
0
 40
0
 40
0
 40
0
 40
1
 40
1
 40
1
 40
1
 10
389.149995
 20
60.834946
 30
0.0
 10
388.376493
 20
61.281528
 30
0.0
 10
387.899995
 20
62.106845
 30
0.0
 10
387.899996
 20
63.000009
 30
0.0
  0
SPLINE
  5
236
100
AcDbEntity
  8
bottom
 62
7
100
AcDbSpline
 70
8
 71
3
 72
8
 73
4
 74
0
 40
0
 40
0
 40
0
 40
0
 40
1
 40
1
 40
1
 40
1
 10
387.899996
 20
63.000009
 30
0.0
 10
387.899996
 20
63.893173
 30
0.0
 10
388.376493
 20
64.718491
 30
0.0
 10
389.149996
 20
65.165073
 30
0.0
  0
SPLINE
  5
237
100
AcDbEntity
  8
bottom
 62
7
100
AcDbSpline
 70
8
 71
3
 72
8
 73
4
 74
0
 40
0
 40
0
 40
0
 40
0
 40
1
 40
1
 40
1
 40
1
 10
389.149996
 20
65.165073
 30
0.0
 10
389.923498
 20
65.611655
 30
0.0
 10
390.876493
 20
65.611655
 30
0.0
 10
391.649996
 20
65.165073
 30
0.0
  0
SPLINE
  5
238
100
AcDbEntity
  8
bottom
 62
7
100
AcDbSpline
 70
8
 71
3
 72
8
 73
4
 74
0
 40
0
 40
0
 40
0
 40
0
 40
1
 40
1
 40
1
 40
1
 10
391.649996
 20
65.165073
 30
0.0
 10
392.423498
 20
64.718491
 30
0.0
 10
392.899996
 20
63.893173
 30
0.0
 10
392.899996
 20
63.000009
 30
0.0
  0
LINE
  5
239
100
AcDbEntity
  8
bottom
 62
7
100
AcDbLine
 10
392.899996
 20
63.000009
 30
0.0
 11
392.899996
 21
63.000009
 31
0.0
  0
SPLINE
  5
23a
100
AcDbEntity
  8
bottom
 62
7
100
AcDbSpline
 70
8
 71
3
 72
8
 73
4
 74
0
 40
0
 40
0
 40
0
 40
0
 40
1
 40
1
 40
1
 40
1
 10
376.299995
 20
63.000009
 30
0.0
 10
376.299995
 20
62.106845
 30
0.0
 10
375.823497
 20
61.281528
 30
0.0
 10
375.049995
 20
60.834946
 30
0.0
  0
SPLINE
  5
23b
100
AcDbEntity
  8
bottom
 62
7
100
AcDbSpline
 70
8
 71
3
 72
8
 73
4
 74
0
 40
0
 40
0
 40
0
 40
0
 40
1
 40
1
 40
1
 40
1
 10
375.049995
 20
60.834946
 30
0.0
 10
374.276492
 20
60.388364
 30
0.0
 10
373.323497
 20
60.388364
 30
0.0
 10
372.549995
 20
60.834946
 30
0.0
  0
SPLINE
  5
23c
100
AcDbEntity
  8
bottom
 62
7
100
AcDbSpline
 70
8
 71
3
 72
8
 73
4
 74
0
 40
0
 40
0
 40
0
 40
0
 40
1
 40
1
 40
1
 40
1
 10
372.549995
 20
60.834946
 30
0.0
 10
371.776492
 20
61.281528
 30
0.0
 10
371.299995
 20
62.106845
 30
0.0
 10
371.299995
 20
63.000009
 30
0.0
  0
SPLINE
  5
23d
100
AcDbEntity
  8
bottom
 62
7
100
AcDbSpline
 70
8
 71
3
 72
8
 73
4
 74
0
 40
0
 40
0
 40
0
 40
0
 40
1
 40
1
 40
1
 40
1
 10
371.299995
 20
63.000009
 30
0.0
 10
371.299995
 20
63.893173
 30
0.0
 10
371.776492
 20
64.718491
 30
0.0
 10
372.549995
 20
65.165073
 30
0.0
  0
SPLINE
  5
23e
100
AcDbEntity
  8
bottom
 62
7
100
AcDbSpline
 70
8
 71
3
 72
8
 73
4
 74
0
 40
0
 40
0
 40
0
 40
0
 40
1
 40
1
 40
1
 40
1
 10
372.549995
 20
65.165073
 30
0.0
 10
373.323498
 20
65.611655
 30
0.0
 10
374.276492
 20
65.611655
 30
0.0
 10
375.049995
 20
65.165073
 30
0.0
  0
SPLINE
  5
23f
100
AcDbEntity
  8
bottom
 62
7
100
AcDbSpline
 70
8
 71
3
 72
8
 73
4
 74
0
 40
0
 40
0
 40
0
 40
0
 40
1
 40
1
 40
1
 40
1
 10
375.049995
 20
65.165073
 30
0.0
 10
375.823498
 20
64.718491
 30
0.0
 10
376.299995
 20
63.893173
 30
0.0
 10
376.299995
 20
63.000009
 30
0.0
  0
LINE
  5
240
100
AcDbEntity
  8
bottom
 62
7
100
AcDbLine
 10
376.299995
 20
63.000009
 30
0.0
 11
376.299995
 21
63.000009
 31
0.0
  0
SPLINE
  5
241
100
AcDbEntity
  8
bottom
 62
7
100
AcDbSpline
 70
8
 71
3
 72
8
 73
4
 74
0
 40
0
 40
0
 40
0
 40
0
 40
1
 40
1
 40
1
 40
1
 10
359.699994
 20
63.000009
 30
0.0
 10
359.699994
 20
62.106845
 30
0.0
 10
359.223497
 20
61.281528
 30
0.0
 10
358.449994
 20
60.834946
 30
0.0
  0
SPLINE
  5
242
100
AcDbEntity
  8
bottom
 62
7
100
AcDbSpline
 70
8
 71
3
 72
8
 73
4
 74
0
 40
0
 40
0
 40
0
 40
0
 40
1
 40
1
 40
1
 40
1
 10
358.449994
 20
60.834946
 30
0.0
 10
357.676491
 20
60.388364
 30
0.0
 10
356.723497
 20
60.388364
 30
0.0
 10
355.949994
 20
60.834946
 30
0.0
  0
SPLINE
  5
243
100
AcDbEntity
  8
bottom
 62
7
100
AcDbSpline
 70
8
 71
3
 72
8
 73
4
 74
0
 40
0
 40
0
 40
0
 40
0
 40
1
 40
1
 40
1
 40
1
 10
355.949994
 20
60.834946
 30
0.0
 10
355.176491
 20
61.281528
 30
0.0
 10
354.699994
 20
62.106845
 30
0.0
 10
354.699994
 20
63.000009
 30
0.0
  0
SPLINE
  5
244
100
AcDbEntity
  8
bottom
 62
7
100
AcDbSpline
 70
8
 71
3
 72
8
 73
4
 74
0
 40
0
 40
0
 40
0
 40
0
 40
1
 40
1
 40
1
 40
1
 10
354.699994
 20
63.000009
 30
0.0
 10
354.699994
 20
63.893173
 30
0.0
 10
355.176492
 20
64.718491
 30
0.0
 10
355.949994
 20
65.165073
 30
0.0
  0
SPLINE
  5
245
100
AcDbEntity
  8
bottom
 62
7
100
AcDbSpline
 70
8
 71
3
 72
8
 73
4
 74
0
 40
0
 40
0
 40
0
 40
0
 40
1
 40
1
 40
1
 40
1
 10
355.949994
 20
65.165073
 30
0.0
 10
356.723497
 20
65.611655
 30
0.0
 10
357.676492
 20
65.611655
 30
0.0
 10
358.449994
 20
65.165073
 30
0.0
  0
SPLINE
  5
246
100
AcDbEntity
  8
bottom
 62
7
100
AcDbSpline
 70
8
 71
3
 72
8
 73
4
 74
0
 40
0
 40
0
 40
0
 40
0
 40
1
 40
1
 40
1
 40
1
 10
358.449994
 20
65.165073
 30
0.0
 10
359.223497
 20
64.718491
 30
0.0
 10
359.699994
 20
63.893173
 30
0.0
 10
359.699994
 20
63.000009
 30
0.0
  0
LINE
  5
247
100
AcDbEntity
  8
bottom
 62
7
100
AcDbLine
 10
359.699994
 20
63.000009
 30
0.0
 11
359.699995
 21
63.000009
 31
0.0
  0
SPLINE
  5
248
100
AcDbEntity
  8
bottom
 62
7
100
AcDbSpline
 70
8
 71
3
 72
8
 73
4
 74
0
 40
0
 40
0
 40
0
 40
0
 40
1
 40
1
 40
1
 40
1
 10
343.099993
 20
63.000009
 30
0.0
 10
343.099993
 20
62.106845
 30
0.0
 10
342.623496
 20
61.281528
 30
0.0
 10
341.849993
 20
60.834946
 30
0.0
  0
SPLINE
  5
249
100
AcDbEntity
  8
bottom
 62
7
100
AcDbSpline
 70
8
 71
3
 72
8
 73
4
 74
0
 40
0
 40
0
 40
0
 40
0
 40
1
 40
1
 40
1
 40
1
 10
341.849993
 20
60.834946
 30
0.0
 10
341.076491
 20
60.388364
 30
0.0
 10
340.123496
 20
60.388364
 30
0.0
 10
339.349993
 20
60.834946
 30
0.0
  0
SPLINE
  5
24a
100
AcDbEntity
  8
bottom
 62
7
100
AcDbSpline
 70
8
 71
3
 72
8
 73
4
 74
0
 40
0
 40
0
 40
0
 40
0
 40
1
 40
1
 40
1
 40
1
 10
339.349993
 20
60.834946
 30
0.0
 10
338.576491
 20
61.281528
 30
0.0
 10
338.099993
 20
62.106845
 30
0.0
 10
338.099994
 20
63.000009
 30
0.0
  0
SPLINE
  5
24b
100
AcDbEntity
  8
bottom
 62
7
100
AcDbSpline
 70
8
 71
3
 72
8
 73
4
 74
0
 40
0
 40
0
 40
0
 40
0
 40
1
 40
1
 40
1
 40
1
 10
338.099994
 20
63.000009
 30
0.0
 10
338.099994
 20
63.893173
 30
0.0
 10
338.576491
 20
64.718491
 30
0.0
 10
339.349994
 20
65.165073
 30
0.0
  0
SPLINE
  5
24c
100
AcDbEntity
  8
bottom
 62
7
100
AcDbSpline
 70
8
 71
3
 72
8
 73
4
 74
0
 40
0
 40
0
 40
0
 40
0
 40
1
 40
1
 40
1
 40
1
 10
339.349994
 20
65.165073
 30
0.0
 10
340.123496
 20
65.611655
 30
0.0
 10
341.076491
 20
65.611655
 30
0.0
 10
341.849994
 20
65.165073
 30
0.0
  0
SPLINE
  5
24d
100
AcDbEntity
  8
bottom
 62
7
100
AcDbSpline
 70
8
 71
3
 72
8
 73
4
 74
0
 40
0
 40
0
 40
0
 40
0
 40
1
 40
1
 40
1
 40
1
 10
341.849994
 20
65.165073
 30
0.0
 10
342.623496
 20
64.718491
 30
0.0
 10
343.099994
 20
63.893173
 30
0.0
 10
343.099994
 20
63.000009
 30
0.0
  0
LINE
  5
24e
100
AcDbEntity
  8
bottom
 62
7
100
AcDbLine
 10
343.099994
 20
63.000009
 30
0.0
 11
343.099994
 21
63.000009
 31
0.0
  0
SPLINE
  5
24f
100
AcDbEntity
  8
bottom
 62
7
100
AcDbSpline
 70
8
 71
3
 72
8
 73
4
 74
0
 40
0
 40
0
 40
0
 40
0
 40
1
 40
1
 40
1
 40
1
 10
326.499993
 20
63.000009
 30
0.0
 10
326.499993
 20
62.106845
 30
0.0
 10
326.023495
 20
61.281528
 30
0.0
 10
325.249993
 20
60.834946
 30
0.0
  0
SPLINE
  5
250
100
AcDbEntity
  8
bottom
 62
7
100
AcDbSpline
 70
8
 71
3
 72
8
 73
4
 74
0
 40
0
 40
0
 40
0
 40
0
 40
1
 40
1
 40
1
 40
1
 10
325.249993
 20
60.834946
 30
0.0
 10
324.476490
 20
60.388364
 30
0.0
 10
323.523495
 20
60.388364
 30
0.0
 10
322.749993
 20
60.834946
 30
0.0
  0
SPLINE
  5
251
100
AcDbEntity
  8
bottom
 62
7
100
AcDbSpline
 70
8
 71
3
 72
8
 73
4
 74
0
 40
0
 40
0
 40
0
 40
0
 40
1
 40
1
 40
1
 40
1
 10
322.749993
 20
60.834946
 30
0.0
 10
321.976490
 20
61.281528
 30
0.0
 10
321.499993
 20
62.106845
 30
0.0
 10
321.499993
 20
63.000009
 30
0.0
  0
SPLINE
  5
252
100
AcDbEntity
  8
bottom
 62
7
100
AcDbSpline
 70
8
 71
3
 72
8
 73
4
 74
0
 40
0
 40
0
 40
0
 40
0
 40
1
 40
1
 40
1
 40
1
 10
321.499993
 20
63.000009
 30
0.0
 10
321.499993
 20
63.893173
 30
0.0
 10
321.976490
 20
64.718491
 30
0.0
 10
322.749993
 20
65.165073
 30
0.0
  0
SPLINE
  5
253
100
AcDbEntity
  8
bottom
 62
7
100
AcDbSpline
 70
8
 71
3
 72
8
 73
4
 74
0
 40
0
 40
0
 40
0
 40
0
 40
1
 40
1
 40
1
 40
1
 10
322.749993
 20
65.165073
 30
0.0
 10
323.523496
 20
65.611655
 30
0.0
 10
324.476490
 20
65.611655
 30
0.0
 10
325.249993
 20
65.165073
 30
0.0
  0
SPLINE
  5
254
100
AcDbEntity
  8
bottom
 62
7
100
AcDbSpline
 70
8
 71
3
 72
8
 73
4
 74
0
 40
0
 40
0
 40
0
 40
0
 40
1
 40
1
 40
1
 40
1
 10
325.249993
 20
65.165073
 30
0.0
 10
326.023496
 20
64.718491
 30
0.0
 10
326.499993
 20
63.893173
 30
0.0
 10
326.499993
 20
63.000009
 30
0.0
  0
LINE
  5
255
100
AcDbEntity
  8
bottom
 62
7
100
AcDbLine
 10
326.499993
 20
63.000009
 30
0.0
 11
326.499993
 21
63.000009
 31
0.0
  0
SPLINE
  5
256
100
AcDbEntity
  8
bottom
 62
7
100
AcDbSpline
 70
8
 71
3
 72
8
 73
4
 74
0
 40
0
 40
0
 40
0
 40
0
 40
1
 40
1
 40
1
 40
1
 10
309.899992
 20
63.000009
 30
0.0
 10
309.899992
 20
62.106845
 30
0.0
 10
309.423495
 20
61.281528
 30
0.0
 10
308.649992
 20
60.834946
 30
0.0
  0
SPLINE
  5
257
100
AcDbEntity
  8
bottom
 62
7
100
AcDbSpline
 70
8
 71
3
 72
8
 73
4
 74
0
 40
0
 40
0
 40
0
 40
0
 40
1
 40
1
 40
1
 40
1
 10
308.649992
 20
60.834946
 30
0.0
 10
307.876489
 20
60.388364
 30
0.0
 10
306.923495
 20
60.388364
 30
0.0
 10
306.149992
 20
60.834946
 30
0.0
  0
SPLINE
  5
258
100
AcDbEntity
  8
bottom
 62
7
100
AcDbSpline
 70
8
 71
3
 72
8
 73
4
 74
0
 40
0
 40
0
 40
0
 40
0
 40
1
 40
1
 40
1
 40
1
 10
306.149992
 20
60.834946
 30
0.0
 10
305.376489
 20
61.281528
 30
0.0
 10
304.899992
 20
62.106845
 30
0.0
 10
304.899992
 20
63.000009
 30
0.0
  0
SPLINE
  5
259
100
AcDbEntity
  8
bottom
 62
7
100
AcDbSpline
 70
8
 71
3
 72
8
 73
4
 74
0
 40
0
 40
0
 40
0
 40
0
 40
1
 40
1
 40
1
 40
1
 10
304.899992
 20
63.000009
 30
0.0
 10
304.899992
 20
63.893173
 30
0.0
 10
305.376490
 20
64.718491
 30
0.0
 10
306.149992
 20
65.165073
 30
0.0
  0
SPLINE
  5
25a
100
AcDbEntity
  8
bottom
 62
7
100
AcDbSpline
 70
8
 71
3
 72
8
 73
4
 74
0
 40
0
 40
0
 40
0
 40
0
 40
1
 40
1
 40
1
 40
1
 10
306.149992
 20
65.165073
 30
0.0
 10
306.923495
 20
65.611655
 30
0.0
 10
307.876490
 20
65.611655
 30
0.0
 10
308.649992
 20
65.165073
 30
0.0
  0
SPLINE
  5
25b
100
AcDbEntity
  8
bottom
 62
7
100
AcDbSpline
 70
8
 71
3
 72
8
 73
4
 74
0
 40
0
 40
0
 40
0
 40
0
 40
1
 40
1
 40
1
 40
1
 10
308.649992
 20
65.165073
 30
0.0
 10
309.423495
 20
64.718491
 30
0.0
 10
309.899992
 20
63.893173
 30
0.0
 10
309.899992
 20
63.000009
 30
0.0
  0
LINE
  5
25c
100
AcDbEntity
  8
bottom
 62
7
100
AcDbLine
 10
309.899992
 20
63.000009
 30
0.0
 11
309.899993
 21
63.000009
 31
0.0
  0
SPLINE
  5
25d
100
AcDbEntity
  8
bottom
 62
7
100
AcDbSpline
 70
8
 71
3
 72
8
 73
4
 74
0
 40
0
 40
0
 40
0
 40
0
 40
1
 40
1
 40
1
 40
1
 10
293.299991
 20
63.000009
 30
0.0
 10
293.299991
 20
62.106845
 30
0.0
 10
292.823494
 20
61.281528
 30
0.0
 10
292.049991
 20
60.834946
 30
0.0
  0
SPLINE
  5
25e
100
AcDbEntity
  8
bottom
 62
7
100
AcDbSpline
 70
8
 71
3
 72
8
 73
4
 74
0
 40
0
 40
0
 40
0
 40
0
 40
1
 40
1
 40
1
 40
1
 10
292.049991
 20
60.834946
 30
0.0
 10
291.276489
 20
60.388364
 30
0.0
 10
290.323494
 20
60.388364
 30
0.0
 10
289.549991
 20
60.834946
 30
0.0
  0
SPLINE
  5
25f
100
AcDbEntity
  8
bottom
 62
7
100
AcDbSpline
 70
8
 71
3
 72
8
 73
4
 74
0
 40
0
 40
0
 40
0
 40
0
 40
1
 40
1
 40
1
 40
1
 10
289.549991
 20
60.834946
 30
0.0
 10
288.776489
 20
61.281528
 30
0.0
 10
288.299991
 20
62.106845
 30
0.0
 10
288.299992
 20
63.000009
 30
0.0
  0
SPLINE
  5
260
100
AcDbEntity
  8
bottom
 62
7
100
AcDbSpline
 70
8
 71
3
 72
8
 73
4
 74
0
 40
0
 40
0
 40
0
 40
0
 40
1
 40
1
 40
1
 40
1
 10
288.299992
 20
63.000009
 30
0.0
 10
288.299992
 20
63.893173
 30
0.0
 10
288.776489
 20
64.718491
 30
0.0
 10
289.549992
 20
65.165073
 30
0.0
  0
SPLINE
  5
261
100
AcDbEntity
  8
bottom
 62
7
100
AcDbSpline
 70
8
 71
3
 72
8
 73
4
 74
0
 40
0
 40
0
 40
0
 40
0
 40
1
 40
1
 40
1
 40
1
 10
289.549992
 20
65.165073
 30
0.0
 10
290.323494
 20
65.611655
 30
0.0
 10
291.276489
 20
65.611655
 30
0.0
 10
292.049992
 20
65.165073
 30
0.0
  0
SPLINE
  5
262
100
AcDbEntity
  8
bottom
 62
7
100
AcDbSpline
 70
8
 71
3
 72
8
 73
4
 74
0
 40
0
 40
0
 40
0
 40
0
 40
1
 40
1
 40
1
 40
1
 10
292.049992
 20
65.165073
 30
0.0
 10
292.823494
 20
64.718491
 30
0.0
 10
293.299992
 20
63.893173
 30
0.0
 10
293.299992
 20
63.000009
 30
0.0
  0
LINE
  5
263
100
AcDbEntity
  8
bottom
 62
7
100
AcDbLine
 10
293.299992
 20
63.000009
 30
0.0
 11
293.299992
 21
63.000009
 31
0.0
  0
SPLINE
  5
264
100
AcDbEntity
  8
bottom
 62
7
100
AcDbSpline
 70
8
 71
3
 72
8
 73
4
 74
0
 40
0
 40
0
 40
0
 40
0
 40
1
 40
1
 40
1
 40
1
 10
276.699991
 20
63.000009
 30
0.0
 10
276.699991
 20
62.106845
 30
0.0
 10
276.223493
 20
61.281528
 30
0.0
 10
275.449991
 20
60.834946
 30
0.0
  0
SPLINE
  5
265
100
AcDbEntity
  8
bottom
 62
7
100
AcDbSpline
 70
8
 71
3
 72
8
 73
4
 74
0
 40
0
 40
0
 40
0
 40
0
 40
1
 40
1
 40
1
 40
1
 10
275.449991
 20
60.834946
 30
0.0
 10
274.676488
 20
60.388364
 30
0.0
 10
273.723493
 20
60.388364
 30
0.0
 10
272.949991
 20
60.834946
 30
0.0
  0
SPLINE
  5
266
100
AcDbEntity
  8
bottom
 62
7
100
AcDbSpline
 70
8
 71
3
 72
8
 73
4
 74
0
 40
0
 40
0
 40
0
 40
0
 40
1
 40
1
 40
1
 40
1
 10
272.949991
 20
60.834946
 30
0.0
 10
272.176488
 20
61.281528
 30
0.0
 10
271.699991
 20
62.106845
 30
0.0
 10
271.699991
 20
63.000009
 30
0.0
  0
SPLINE
  5
267
100
AcDbEntity
  8
bottom
 62
7
100
AcDbSpline
 70
8
 71
3
 72
8
 73
4
 74
0
 40
0
 40
0
 40
0
 40
0
 40
1
 40
1
 40
1
 40
1
 10
271.699991
 20
63.000009
 30
0.0
 10
271.699991
 20
63.893173
 30
0.0
 10
272.176488
 20
64.718491
 30
0.0
 10
272.949991
 20
65.165073
 30
0.0
  0
SPLINE
  5
268
100
AcDbEntity
  8
bottom
 62
7
100
AcDbSpline
 70
8
 71
3
 72
8
 73
4
 74
0
 40
0
 40
0
 40
0
 40
0
 40
1
 40
1
 40
1
 40
1
 10
272.949991
 20
65.165073
 30
0.0
 10
273.723494
 20
65.611655
 30
0.0
 10
274.676488
 20
65.611655
 30
0.0
 10
275.449991
 20
65.165073
 30
0.0
  0
SPLINE
  5
269
100
AcDbEntity
  8
bottom
 62
7
100
AcDbSpline
 70
8
 71
3
 72
8
 73
4
 74
0
 40
0
 40
0
 40
0
 40
0
 40
1
 40
1
 40
1
 40
1
 10
275.449991
 20
65.165073
 30
0.0
 10
276.223494
 20
64.718491
 30
0.0
 10
276.699991
 20
63.893173
 30
0.0
 10
276.699991
 20
63.000009
 30
0.0
  0
LINE
  5
26a
100
AcDbEntity
  8
bottom
 62
7
100
AcDbLine
 10
276.699991
 20
63.000009
 30
0.0
 11
276.699991
 21
63.000009
 31
0.0
  0
SPLINE
  5
26b
100
AcDbEntity
  8
bottom
 62
7
100
AcDbSpline
 70
8
 71
3
 72
8
 73
4
 74
0
 40
0
 40
0
 40
0
 40
0
 40
1
 40
1
 40
1
 40
1
 10
260.099990
 20
63.000009
 30
0.0
 10
260.099990
 20
62.106845
 30
0.0
 10
259.623493
 20
61.281528
 30
0.0
 10
258.849990
 20
60.834946
 30
0.0
  0
SPLINE
  5
26c
100
AcDbEntity
  8
bottom
 62
7
100
AcDbSpline
 70
8
 71
3
 72
8
 73
4
 74
0
 40
0
 40
0
 40
0
 40
0
 40
1
 40
1
 40
1
 40
1
 10
258.849990
 20
60.834946
 30
0.0
 10
258.076487
 20
60.388364
 30
0.0
 10
257.123493
 20
60.388364
 30
0.0
 10
256.349990
 20
60.834946
 30
0.0
  0
SPLINE
  5
26d
100
AcDbEntity
  8
bottom
 62
7
100
AcDbSpline
 70
8
 71
3
 72
8
 73
4
 74
0
 40
0
 40
0
 40
0
 40
0
 40
1
 40
1
 40
1
 40
1
 10
256.349990
 20
60.834946
 30
0.0
 10
255.576487
 20
61.281528
 30
0.0
 10
255.099990
 20
62.106845
 30
0.0
 10
255.099990
 20
63.000009
 30
0.0
  0
SPLINE
  5
26e
100
AcDbEntity
  8
bottom
 62
7
100
AcDbSpline
 70
8
 71
3
 72
8
 73
4
 74
0
 40
0
 40
0
 40
0
 40
0
 40
1
 40
1
 40
1
 40
1
 10
255.099990
 20
63.000009
 30
0.0
 10
255.099990
 20
63.893173
 30
0.0
 10
255.576488
 20
64.718491
 30
0.0
 10
256.349990
 20
65.165073
 30
0.0
  0
SPLINE
  5
26f
100
AcDbEntity
  8
bottom
 62
7
100
AcDbSpline
 70
8
 71
3
 72
8
 73
4
 74
0
 40
0
 40
0
 40
0
 40
0
 40
1
 40
1
 40
1
 40
1
 10
256.349990
 20
65.165073
 30
0.0
 10
257.123493
 20
65.611655
 30
0.0
 10
258.076488
 20
65.611655
 30
0.0
 10
258.849990
 20
65.165073
 30
0.0
  0
SPLINE
  5
270
100
AcDbEntity
  8
bottom
 62
7
100
AcDbSpline
 70
8
 71
3
 72
8
 73
4
 74
0
 40
0
 40
0
 40
0
 40
0
 40
1
 40
1
 40
1
 40
1
 10
258.849990
 20
65.165073
 30
0.0
 10
259.623493
 20
64.718491
 30
0.0
 10
260.099990
 20
63.893173
 30
0.0
 10
260.099990
 20
63.000009
 30
0.0
  0
LINE
  5
271
100
AcDbEntity
  8
bottom
 62
7
100
AcDbLine
 10
260.099990
 20
63.000009
 30
0.0
 11
260.099991
 21
63.000009
 31
0.0
  0
SPLINE
  5
272
100
AcDbEntity
  8
bottom
 62
7
100
AcDbSpline
 70
8
 71
3
 72
8
 73
4
 74
0
 40
0
 40
0
 40
0
 40
0
 40
1
 40
1
 40
1
 40
1
 10
243.499989
 20
63.000009
 30
0.0
 10
243.499989
 20
62.106845
 30
0.0
 10
243.023492
 20
61.281528
 30
0.0
 10
242.249989
 20
60.834946
 30
0.0
  0
SPLINE
  5
273
100
AcDbEntity
  8
bottom
 62
7
100
AcDbSpline
 70
8
 71
3
 72
8
 73
4
 74
0
 40
0
 40
0
 40
0
 40
0
 40
1
 40
1
 40
1
 40
1
 10
242.249989
 20
60.834946
 30
0.0
 10
241.476487
 20
60.388364
 30
0.0
 10
240.523492
 20
60.388364
 30
0.0
 10
239.749989
 20
60.834946
 30
0.0
  0
SPLINE
  5
274
100
AcDbEntity
  8
bottom
 62
7
100
AcDbSpline
 70
8
 71
3
 72
8
 73
4
 74
0
 40
0
 40
0
 40
0
 40
0
 40
1
 40
1
 40
1
 40
1
 10
239.749989
 20
60.834946
 30
0.0
 10
238.976487
 20
61.281528
 30
0.0
 10
238.499989
 20
62.106845
 30
0.0
 10
238.499990
 20
63.000009
 30
0.0
  0
SPLINE
  5
275
100
AcDbEntity
  8
bottom
 62
7
100
AcDbSpline
 70
8
 71
3
 72
8
 73
4
 74
0
 40
0
 40
0
 40
0
 40
0
 40
1
 40
1
 40
1
 40
1
 10
238.499990
 20
63.000009
 30
0.0
 10
238.499990
 20
63.893173
 30
0.0
 10
238.976487
 20
64.718491
 30
0.0
 10
239.749990
 20
65.165073
 30
0.0
  0
SPLINE
  5
276
100
AcDbEntity
  8
bottom
 62
7
100
AcDbSpline
 70
8
 71
3
 72
8
 73
4
 74
0
 40
0
 40
0
 40
0
 40
0
 40
1
 40
1
 40
1
 40
1
 10
239.749990
 20
65.165073
 30
0.0
 10
240.523492
 20
65.611655
 30
0.0
 10
241.476487
 20
65.611655
 30
0.0
 10
242.249990
 20
65.165073
 30
0.0
  0
SPLINE
  5
277
100
AcDbEntity
  8
bottom
 62
7
100
AcDbSpline
 70
8
 71
3
 72
8
 73
4
 74
0
 40
0
 40
0
 40
0
 40
0
 40
1
 40
1
 40
1
 40
1
 10
242.249990
 20
65.165073
 30
0.0
 10
243.023492
 20
64.718491
 30
0.0
 10
243.499990
 20
63.893173
 30
0.0
 10
243.499990
 20
63.000009
 30
0.0
  0
LINE
  5
278
100
AcDbEntity
  8
bottom
 62
7
100
AcDbLine
 10
243.499990
 20
63.000009
 30
0.0
 11
243.499990
 21
63.000009
 31
0.0
  0
SPLINE
  5
279
100
AcDbEntity
  8
bottom
 62
7
100
AcDbSpline
 70
8
 71
3
 72
8
 73
4
 74
0
 40
0
 40
0
 40
0
 40
0
 40
1
 40
1
 40
1
 40
1
 10
226.899989
 20
63.000009
 30
0.0
 10
226.899989
 20
62.106845
 30
0.0
 10
226.423491
 20
61.281528
 30
0.0
 10
225.649989
 20
60.834946
 30
0.0
  0
SPLINE
  5
27a
100
AcDbEntity
  8
bottom
 62
7
100
AcDbSpline
 70
8
 71
3
 72
8
 73
4
 74
0
 40
0
 40
0
 40
0
 40
0
 40
1
 40
1
 40
1
 40
1
 10
225.649989
 20
60.834946
 30
0.0
 10
224.876486
 20
60.388364
 30
0.0
 10
223.923491
 20
60.388364
 30
0.0
 10
223.149989
 20
60.834946
 30
0.0
  0
SPLINE
  5
27b
100
AcDbEntity
  8
bottom
 62
7
100
AcDbSpline
 70
8
 71
3
 72
8
 73
4
 74
0
 40
0
 40
0
 40
0
 40
0
 40
1
 40
1
 40
1
 40
1
 10
223.149989
 20
60.834946
 30
0.0
 10
222.376486
 20
61.281528
 30
0.0
 10
221.899989
 20
62.106845
 30
0.0
 10
221.899989
 20
63.000009
 30
0.0
  0
SPLINE
  5
27c
100
AcDbEntity
  8
bottom
 62
7
100
AcDbSpline
 70
8
 71
3
 72
8
 73
4
 74
0
 40
0
 40
0
 40
0
 40
0
 40
1
 40
1
 40
1
 40
1
 10
221.899989
 20
63.000009
 30
0.0
 10
221.899989
 20
63.893173
 30
0.0
 10
222.376486
 20
64.718491
 30
0.0
 10
223.149989
 20
65.165073
 30
0.0
  0
SPLINE
  5
27d
100
AcDbEntity
  8
bottom
 62
7
100
AcDbSpline
 70
8
 71
3
 72
8
 73
4
 74
0
 40
0
 40
0
 40
0
 40
0
 40
1
 40
1
 40
1
 40
1
 10
223.149989
 20
65.165073
 30
0.0
 10
223.923492
 20
65.611655
 30
0.0
 10
224.876486
 20
65.611655
 30
0.0
 10
225.649989
 20
65.165073
 30
0.0
  0
SPLINE
  5
27e
100
AcDbEntity
  8
bottom
 62
7
100
AcDbSpline
 70
8
 71
3
 72
8
 73
4
 74
0
 40
0
 40
0
 40
0
 40
0
 40
1
 40
1
 40
1
 40
1
 10
225.649989
 20
65.165073
 30
0.0
 10
226.423492
 20
64.718491
 30
0.0
 10
226.899989
 20
63.893173
 30
0.0
 10
226.899989
 20
63.000009
 30
0.0
  0
LINE
  5
27f
100
AcDbEntity
  8
bottom
 62
7
100
AcDbLine
 10
226.899989
 20
63.000009
 30
0.0
 11
226.899989
 21
63.000009
 31
0.0
  0
SPLINE
  5
280
100
AcDbEntity
  8
bottom
 62
7
100
AcDbSpline
 70
8
 71
3
 72
8
 73
4
 74
0
 40
0
 40
0
 40
0
 40
0
 40
1
 40
1
 40
1
 40
1
 10
210.299988
 20
63.000009
 30
0.0
 10
210.299988
 20
62.106845
 30
0.0
 10
209.823491
 20
61.281528
 30
0.0
 10
209.049988
 20
60.834946
 30
0.0
  0
SPLINE
  5
281
100
AcDbEntity
  8
bottom
 62
7
100
AcDbSpline
 70
8
 71
3
 72
8
 73
4
 74
0
 40
0
 40
0
 40
0
 40
0
 40
1
 40
1
 40
1
 40
1
 10
209.049988
 20
60.834946
 30
0.0
 10
208.276485
 20
60.388364
 30
0.0
 10
207.323491
 20
60.388364
 30
0.0
 10
206.549988
 20
60.834946
 30
0.0
  0
SPLINE
  5
282
100
AcDbEntity
  8
bottom
 62
7
100
AcDbSpline
 70
8
 71
3
 72
8
 73
4
 74
0
 40
0
 40
0
 40
0
 40
0
 40
1
 40
1
 40
1
 40
1
 10
206.549988
 20
60.834946
 30
0.0
 10
205.776485
 20
61.281528
 30
0.0
 10
205.299988
 20
62.106845
 30
0.0
 10
205.299988
 20
63.000009
 30
0.0
  0
SPLINE
  5
283
100
AcDbEntity
  8
bottom
 62
7
100
AcDbSpline
 70
8
 71
3
 72
8
 73
4
 74
0
 40
0
 40
0
 40
0
 40
0
 40
1
 40
1
 40
1
 40
1
 10
205.299988
 20
63.000009
 30
0.0
 10
205.299988
 20
63.893173
 30
0.0
 10
205.776486
 20
64.718491
 30
0.0
 10
206.549988
 20
65.165073
 30
0.0
  0
SPLINE
  5
284
100
AcDbEntity
  8
bottom
 62
7
100
AcDbSpline
 70
8
 71
3
 72
8
 73
4
 74
0
 40
0
 40
0
 40
0
 40
0
 40
1
 40
1
 40
1
 40
1
 10
206.549988
 20
65.165073
 30
0.0
 10
207.323491
 20
65.611655
 30
0.0
 10
208.276486
 20
65.611655
 30
0.0
 10
209.049988
 20
65.165073
 30
0.0
  0
SPLINE
  5
285
100
AcDbEntity
  8
bottom
 62
7
100
AcDbSpline
 70
8
 71
3
 72
8
 73
4
 74
0
 40
0
 40
0
 40
0
 40
0
 40
1
 40
1
 40
1
 40
1
 10
209.049988
 20
65.165073
 30
0.0
 10
209.823491
 20
64.718491
 30
0.0
 10
210.299988
 20
63.893173
 30
0.0
 10
210.299988
 20
63.000009
 30
0.0
  0
LINE
  5
286
100
AcDbEntity
  8
bottom
 62
7
100
AcDbLine
 10
210.299988
 20
63.000009
 30
0.0
 11
210.299989
 21
63.000009
 31
0.0
  0
SPLINE
  5
287
100
AcDbEntity
  8
bottom
 62
7
100
AcDbSpline
 70
8
 71
3
 72
8
 73
4
 74
0
 40
0
 40
0
 40
0
 40
0
 40
1
 40
1
 40
1
 40
1
 10
193.699987
 20
63.000009
 30
0.0
 10
193.699987
 20
62.106845
 30
0.0
 10
193.223490
 20
61.281528
 30
0.0
 10
192.449987
 20
60.834946
 30
0.0
  0
SPLINE
  5
288
100
AcDbEntity
  8
bottom
 62
7
100
AcDbSpline
 70
8
 71
3
 72
8
 73
4
 74
0
 40
0
 40
0
 40
0
 40
0
 40
1
 40
1
 40
1
 40
1
 10
192.449987
 20
60.834946
 30
0.0
 10
191.676485
 20
60.388364
 30
0.0
 10
190.723490
 20
60.388364
 30
0.0
 10
189.949987
 20
60.834946
 30
0.0
  0
SPLINE
  5
289
100
AcDbEntity
  8
bottom
 62
7
100
AcDbSpline
 70
8
 71
3
 72
8
 73
4
 74
0
 40
0
 40
0
 40
0
 40
0
 40
1
 40
1
 40
1
 40
1
 10
189.949987
 20
60.834946
 30
0.0
 10
189.176485
 20
61.281528
 30
0.0
 10
188.699987
 20
62.106845
 30
0.0
 10
188.699988
 20
63.000009
 30
0.0
  0
SPLINE
  5
28a
100
AcDbEntity
  8
bottom
 62
7
100
AcDbSpline
 70
8
 71
3
 72
8
 73
4
 74
0
 40
0
 40
0
 40
0
 40
0
 40
1
 40
1
 40
1
 40
1
 10
188.699988
 20
63.000009
 30
0.0
 10
188.699988
 20
63.893173
 30
0.0
 10
189.176485
 20
64.718491
 30
0.0
 10
189.949988
 20
65.165073
 30
0.0
  0
SPLINE
  5
28b
100
AcDbEntity
  8
bottom
 62
7
100
AcDbSpline
 70
8
 71
3
 72
8
 73
4
 74
0
 40
0
 40
0
 40
0
 40
0
 40
1
 40
1
 40
1
 40
1
 10
189.949988
 20
65.165073
 30
0.0
 10
190.723490
 20
65.611655
 30
0.0
 10
191.676485
 20
65.611655
 30
0.0
 10
192.449988
 20
65.165073
 30
0.0
  0
SPLINE
  5
28c
100
AcDbEntity
  8
bottom
 62
7
100
AcDbSpline
 70
8
 71
3
 72
8
 73
4
 74
0
 40
0
 40
0
 40
0
 40
0
 40
1
 40
1
 40
1
 40
1
 10
192.449988
 20
65.165073
 30
0.0
 10
193.223490
 20
64.718491
 30
0.0
 10
193.699988
 20
63.893173
 30
0.0
 10
193.699988
 20
63.000009
 30
0.0
  0
LINE
  5
28d
100
AcDbEntity
  8
bottom
 62
7
100
AcDbLine
 10
193.699988
 20
63.000009
 30
0.0
 11
193.699988
 21
63.000009
 31
0.0
  0
SPLINE
  5
28e
100
AcDbEntity
  8
bottom
 62
7
100
AcDbSpline
 70
8
 71
3
 72
8
 73
4
 74
0
 40
0
 40
0
 40
0
 40
0
 40
1
 40
1
 40
1
 40
1
 10
177.099987
 20
63.000009
 30
0.0
 10
177.099987
 20
62.106845
 30
0.0
 10
176.623489
 20
61.281528
 30
0.0
 10
175.849987
 20
60.834946
 30
0.0
  0
SPLINE
  5
28f
100
AcDbEntity
  8
bottom
 62
7
100
AcDbSpline
 70
8
 71
3
 72
8
 73
4
 74
0
 40
0
 40
0
 40
0
 40
0
 40
1
 40
1
 40
1
 40
1
 10
175.849987
 20
60.834946
 30
0.0
 10
175.076484
 20
60.388364
 30
0.0
 10
174.123489
 20
60.388364
 30
0.0
 10
173.349987
 20
60.834946
 30
0.0
  0
SPLINE
  5
290
100
AcDbEntity
  8
bottom
 62
7
100
AcDbSpline
 70
8
 71
3
 72
8
 73
4
 74
0
 40
0
 40
0
 40
0
 40
0
 40
1
 40
1
 40
1
 40
1
 10
173.349987
 20
60.834946
 30
0.0
 10
172.576484
 20
61.281528
 30
0.0
 10
172.099987
 20
62.106845
 30
0.0
 10
172.099987
 20
63.000009
 30
0.0
  0
SPLINE
  5
291
100
AcDbEntity
  8
bottom
 62
7
100
AcDbSpline
 70
8
 71
3
 72
8
 73
4
 74
0
 40
0
 40
0
 40
0
 40
0
 40
1
 40
1
 40
1
 40
1
 10
172.099987
 20
63.000009
 30
0.0
 10
172.099987
 20
63.893173
 30
0.0
 10
172.576484
 20
64.718491
 30
0.0
 10
173.349987
 20
65.165073
 30
0.0
  0
SPLINE
  5
292
100
AcDbEntity
  8
bottom
 62
7
100
AcDbSpline
 70
8
 71
3
 72
8
 73
4
 74
0
 40
0
 40
0
 40
0
 40
0
 40
1
 40
1
 40
1
 40
1
 10
173.349987
 20
65.165073
 30
0.0
 10
174.123490
 20
65.611655
 30
0.0
 10
175.076484
 20
65.611655
 30
0.0
 10
175.849987
 20
65.165073
 30
0.0
  0
SPLINE
  5
293
100
AcDbEntity
  8
bottom
 62
7
100
AcDbSpline
 70
8
 71
3
 72
8
 73
4
 74
0
 40
0
 40
0
 40
0
 40
0
 40
1
 40
1
 40
1
 40
1
 10
175.849987
 20
65.165073
 30
0.0
 10
176.623490
 20
64.718491
 30
0.0
 10
177.099987
 20
63.893173
 30
0.0
 10
177.099987
 20
63.000009
 30
0.0
  0
LINE
  5
294
100
AcDbEntity
  8
bottom
 62
7
100
AcDbLine
 10
177.099987
 20
63.000009
 30
0.0
 11
177.099987
 21
63.000009
 31
0.0
  0
SPLINE
  5
295
100
AcDbEntity
  8
bottom
 62
7
100
AcDbSpline
 70
8
 71
3
 72
8
 73
4
 74
0
 40
0
 40
0
 40
0
 40
0
 40
1
 40
1
 40
1
 40
1
 10
160.499986
 20
63.000009
 30
0.0
 10
160.499986
 20
62.106845
 30
0.0
 10
160.023489
 20
61.281528
 30
0.0
 10
159.249986
 20
60.834946
 30
0.0
  0
SPLINE
  5
296
100
AcDbEntity
  8
bottom
 62
7
100
AcDbSpline
 70
8
 71
3
 72
8
 73
4
 74
0
 40
0
 40
0
 40
0
 40
0
 40
1
 40
1
 40
1
 40
1
 10
159.249986
 20
60.834946
 30
0.0
 10
158.476483
 20
60.388364
 30
0.0
 10
157.523489
 20
60.388364
 30
0.0
 10
156.749986
 20
60.834946
 30
0.0
  0
SPLINE
  5
297
100
AcDbEntity
  8
bottom
 62
7
100
AcDbSpline
 70
8
 71
3
 72
8
 73
4
 74
0
 40
0
 40
0
 40
0
 40
0
 40
1
 40
1
 40
1
 40
1
 10
156.749986
 20
60.834946
 30
0.0
 10
155.976483
 20
61.281528
 30
0.0
 10
155.499986
 20
62.106845
 30
0.0
 10
155.499986
 20
63.000009
 30
0.0
  0
SPLINE
  5
298
100
AcDbEntity
  8
bottom
 62
7
100
AcDbSpline
 70
8
 71
3
 72
8
 73
4
 74
0
 40
0
 40
0
 40
0
 40
0
 40
1
 40
1
 40
1
 40
1
 10
155.499986
 20
63.000009
 30
0.0
 10
155.499986
 20
63.893173
 30
0.0
 10
155.976484
 20
64.718491
 30
0.0
 10
156.749986
 20
65.165073
 30
0.0
  0
SPLINE
  5
299
100
AcDbEntity
  8
bottom
 62
7
100
AcDbSpline
 70
8
 71
3
 72
8
 73
4
 74
0
 40
0
 40
0
 40
0
 40
0
 40
1
 40
1
 40
1
 40
1
 10
156.749986
 20
65.165073
 30
0.0
 10
157.523489
 20
65.611655
 30
0.0
 10
158.476484
 20
65.611655
 30
0.0
 10
159.249986
 20
65.165073
 30
0.0
  0
SPLINE
  5
29a
100
AcDbEntity
  8
bottom
 62
7
100
AcDbSpline
 70
8
 71
3
 72
8
 73
4
 74
0
 40
0
 40
0
 40
0
 40
0
 40
1
 40
1
 40
1
 40
1
 10
159.249986
 20
65.165073
 30
0.0
 10
160.023489
 20
64.718491
 30
0.0
 10
160.499986
 20
63.893173
 30
0.0
 10
160.499986
 20
63.000009
 30
0.0
  0
LINE
  5
29b
100
AcDbEntity
  8
bottom
 62
7
100
AcDbLine
 10
160.499986
 20
63.000009
 30
0.0
 11
160.499987
 21
63.000009
 31
0.0
  0
SPLINE
  5
29c
100
AcDbEntity
  8
bottom
 62
7
100
AcDbSpline
 70
8
 71
3
 72
8
 73
4
 74
0
 40
0
 40
0
 40
0
 40
0
 40
1
 40
1
 40
1
 40
1
 10
143.899985
 20
63.000009
 30
0.0
 10
143.899985
 20
62.106845
 30
0.0
 10
143.423488
 20
61.281528
 30
0.0
 10
142.649985
 20
60.834946
 30
0.0
  0
SPLINE
  5
29d
100
AcDbEntity
  8
bottom
 62
7
100
AcDbSpline
 70
8
 71
3
 72
8
 73
4
 74
0
 40
0
 40
0
 40
0
 40
0
 40
1
 40
1
 40
1
 40
1
 10
142.649985
 20
60.834946
 30
0.0
 10
141.876483
 20
60.388364
 30
0.0
 10
140.923488
 20
60.388364
 30
0.0
 10
140.149985
 20
60.834946
 30
0.0
  0
SPLINE
  5
29e
100
AcDbEntity
  8
bottom
 62
7
100
AcDbSpline
 70
8
 71
3
 72
8
 73
4
 74
0
 40
0
 40
0
 40
0
 40
0
 40
1
 40
1
 40
1
 40
1
 10
140.149985
 20
60.834946
 30
0.0
 10
139.376483
 20
61.281528
 30
0.0
 10
138.899985
 20
62.106845
 30
0.0
 10
138.899986
 20
63.000009
 30
0.0
  0
SPLINE
  5
29f
100
AcDbEntity
  8
bottom
 62
7
100
AcDbSpline
 70
8
 71
3
 72
8
 73
4
 74
0
 40
0
 40
0
 40
0
 40
0
 40
1
 40
1
 40
1
 40
1
 10
138.899986
 20
63.000009
 30
0.0
 10
138.899986
 20
63.893173
 30
0.0
 10
139.376483
 20
64.718491
 30
0.0
 10
140.149986
 20
65.165073
 30
0.0
  0
SPLINE
  5
2a0
100
AcDbEntity
  8
bottom
 62
7
100
AcDbSpline
 70
8
 71
3
 72
8
 73
4
 74
0
 40
0
 40
0
 40
0
 40
0
 40
1
 40
1
 40
1
 40
1
 10
140.149986
 20
65.165073
 30
0.0
 10
140.923488
 20
65.611655
 30
0.0
 10
141.876483
 20
65.611655
 30
0.0
 10
142.649986
 20
65.165073
 30
0.0
  0
SPLINE
  5
2a1
100
AcDbEntity
  8
bottom
 62
7
100
AcDbSpline
 70
8
 71
3
 72
8
 73
4
 74
0
 40
0
 40
0
 40
0
 40
0
 40
1
 40
1
 40
1
 40
1
 10
142.649986
 20
65.165073
 30
0.0
 10
143.423488
 20
64.718491
 30
0.0
 10
143.899986
 20
63.893173
 30
0.0
 10
143.899986
 20
63.000009
 30
0.0
  0
LINE
  5
2a2
100
AcDbEntity
  8
bottom
 62
7
100
AcDbLine
 10
143.899986
 20
63.000009
 30
0.0
 11
143.899986
 21
63.000009
 31
0.0
  0
SPLINE
  5
2a3
100
AcDbEntity
  8
bottom
 62
7
100
AcDbSpline
 70
8
 71
3
 72
8
 73
4
 74
0
 40
0
 40
0
 40
0
 40
0
 40
1
 40
1
 40
1
 40
1
 10
127.299985
 20
63.000009
 30
0.0
 10
127.299985
 20
62.106845
 30
0.0
 10
126.823487
 20
61.281528
 30
0.0
 10
126.049985
 20
60.834946
 30
0.0
  0
SPLINE
  5
2a4
100
AcDbEntity
  8
bottom
 62
7
100
AcDbSpline
 70
8
 71
3
 72
8
 73
4
 74
0
 40
0
 40
0
 40
0
 40
0
 40
1
 40
1
 40
1
 40
1
 10
126.049985
 20
60.834946
 30
0.0
 10
125.276482
 20
60.388364
 30
0.0
 10
124.323487
 20
60.388364
 30
0.0
 10
123.549985
 20
60.834946
 30
0.0
  0
SPLINE
  5
2a5
100
AcDbEntity
  8
bottom
 62
7
100
AcDbSpline
 70
8
 71
3
 72
8
 73
4
 74
0
 40
0
 40
0
 40
0
 40
0
 40
1
 40
1
 40
1
 40
1
 10
123.549985
 20
60.834946
 30
0.0
 10
122.776482
 20
61.281528
 30
0.0
 10
122.299985
 20
62.106845
 30
0.0
 10
122.299985
 20
63.000009
 30
0.0
  0
SPLINE
  5
2a6
100
AcDbEntity
  8
bottom
 62
7
100
AcDbSpline
 70
8
 71
3
 72
8
 73
4
 74
0
 40
0
 40
0
 40
0
 40
0
 40
1
 40
1
 40
1
 40
1
 10
122.299985
 20
63.000009
 30
0.0
 10
122.299985
 20
63.893173
 30
0.0
 10
122.776482
 20
64.718491
 30
0.0
 10
123.549985
 20
65.165073
 30
0.0
  0
SPLINE
  5
2a7
100
AcDbEntity
  8
bottom
 62
7
100
AcDbSpline
 70
8
 71
3
 72
8
 73
4
 74
0
 40
0
 40
0
 40
0
 40
0
 40
1
 40
1
 40
1
 40
1
 10
123.549985
 20
65.165073
 30
0.0
 10
124.323488
 20
65.611655
 30
0.0
 10
125.276482
 20
65.611655
 30
0.0
 10
126.049985
 20
65.165073
 30
0.0
  0
SPLINE
  5
2a8
100
AcDbEntity
  8
bottom
 62
7
100
AcDbSpline
 70
8
 71
3
 72
8
 73
4
 74
0
 40
0
 40
0
 40
0
 40
0
 40
1
 40
1
 40
1
 40
1
 10
126.049985
 20
65.165073
 30
0.0
 10
126.823488
 20
64.718491
 30
0.0
 10
127.299985
 20
63.893173
 30
0.0
 10
127.299985
 20
63.000009
 30
0.0
  0
LINE
  5
2a9
100
AcDbEntity
  8
bottom
 62
7
100
AcDbLine
 10
127.299985
 20
63.000009
 30
0.0
 11
127.299985
 21
63.000009
 31
0.0
  0
SPLINE
  5
2aa
100
AcDbEntity
  8
bottom
 62
7
100
AcDbSpline
 70
8
 71
3
 72
8
 73
4
 74
0
 40
0
 40
0
 40
0
 40
0
 40
1
 40
1
 40
1
 40
1
 10
110.699984
 20
63.000009
 30
0.0
 10
110.699984
 20
62.106845
 30
0.0
 10
110.223487
 20
61.281528
 30
0.0
 10
109.449984
 20
60.834946
 30
0.0
  0
SPLINE
  5
2ab
100
AcDbEntity
  8
bottom
 62
7
100
AcDbSpline
 70
8
 71
3
 72
8
 73
4
 74
0
 40
0
 40
0
 40
0
 40
0
 40
1
 40
1
 40
1
 40
1
 10
109.449984
 20
60.834946
 30
0.0
 10
108.676481
 20
60.388364
 30
0.0
 10
107.723487
 20
60.388364
 30
0.0
 10
106.949984
 20
60.834946
 30
0.0
  0
SPLINE
  5
2ac
100
AcDbEntity
  8
bottom
 62
7
100
AcDbSpline
 70
8
 71
3
 72
8
 73
4
 74
0
 40
0
 40
0
 40
0
 40
0
 40
1
 40
1
 40
1
 40
1
 10
106.949984
 20
60.834946
 30
0.0
 10
106.176481
 20
61.281528
 30
0.0
 10
105.699984
 20
62.106845
 30
0.0
 10
105.699984
 20
63.000009
 30
0.0
  0
SPLINE
  5
2ad
100
AcDbEntity
  8
bottom
 62
7
100
AcDbSpline
 70
8
 71
3
 72
8
 73
4
 74
0
 40
0
 40
0
 40
0
 40
0
 40
1
 40
1
 40
1
 40
1
 10
105.699984
 20
63.000009
 30
0.0
 10
105.699984
 20
63.893173
 30
0.0
 10
106.176482
 20
64.718491
 30
0.0
 10
106.949984
 20
65.165073
 30
0.0
  0
SPLINE
  5
2ae
100
AcDbEntity
  8
bottom
 62
7
100
AcDbSpline
 70
8
 71
3
 72
8
 73
4
 74
0
 40
0
 40
0
 40
0
 40
0
 40
1
 40
1
 40
1
 40
1
 10
106.949984
 20
65.165073
 30
0.0
 10
107.723487
 20
65.611655
 30
0.0
 10
108.676482
 20
65.611655
 30
0.0
 10
109.449984
 20
65.165073
 30
0.0
  0
SPLINE
  5
2af
100
AcDbEntity
  8
bottom
 62
7
100
AcDbSpline
 70
8
 71
3
 72
8
 73
4
 74
0
 40
0
 40
0
 40
0
 40
0
 40
1
 40
1
 40
1
 40
1
 10
109.449984
 20
65.165073
 30
0.0
 10
110.223487
 20
64.718491
 30
0.0
 10
110.699984
 20
63.893173
 30
0.0
 10
110.699984
 20
63.000009
 30
0.0
  0
LINE
  5
2b0
100
AcDbEntity
  8
bottom
 62
7
100
AcDbLine
 10
110.699984
 20
63.000009
 30
0.0
 11
110.699985
 21
63.000009
 31
0.0
  0
SPLINE
  5
2b1
100
AcDbEntity
  8
bottom
 62
7
100
AcDbSpline
 70
8
 71
3
 72
8
 73
4
 74
0
 40
0
 40
0
 40
0
 40
0
 40
1
 40
1
 40
1
 40
1
 10
94.099984
 20
63.000009
 30
0.0
 10
94.099984
 20
62.106845
 30
0.0
 10
93.623487
 20
61.281528
 30
0.0
 10
92.849984
 20
60.834946
 30
0.0
  0
SPLINE
  5
2b2
100
AcDbEntity
  8
bottom
 62
7
100
AcDbSpline
 70
8
 71
3
 72
8
 73
4
 74
0
 40
0
 40
0
 40
0
 40
0
 40
1
 40
1
 40
1
 40
1
 10
92.849984
 20
60.834946
 30
0.0
 10
92.076482
 20
60.388364
 30
0.0
 10
91.123487
 20
60.388364
 30
0.0
 10
90.349984
 20
60.834946
 30
0.0
  0
SPLINE
  5
2b3
100
AcDbEntity
  8
bottom
 62
7
100
AcDbSpline
 70
8
 71
3
 72
8
 73
4
 74
0
 40
0
 40
0
 40
0
 40
0
 40
1
 40
1
 40
1
 40
1
 10
90.349984
 20
60.834946
 30
0.0
 10
89.576482
 20
61.281528
 30
0.0
 10
89.099984
 20
62.106845
 30
0.0
 10
89.099985
 20
63.000009
 30
0.0
  0
SPLINE
  5
2b4
100
AcDbEntity
  8
bottom
 62
7
100
AcDbSpline
 70
8
 71
3
 72
8
 73
4
 74
0
 40
0
 40
0
 40
0
 40
0
 40
1
 40
1
 40
1
 40
1
 10
89.099985
 20
63.000009
 30
0.0
 10
89.099985
 20
63.893173
 30
0.0
 10
89.576482
 20
64.718491
 30
0.0
 10
90.349985
 20
65.165073
 30
0.0
  0
SPLINE
  5
2b5
100
AcDbEntity
  8
bottom
 62
7
100
AcDbSpline
 70
8
 71
3
 72
8
 73
4
 74
0
 40
0
 40
0
 40
0
 40
0
 40
1
 40
1
 40
1
 40
1
 10
90.349985
 20
65.165073
 30
0.0
 10
91.123487
 20
65.611655
 30
0.0
 10
92.076482
 20
65.611655
 30
0.0
 10
92.849985
 20
65.165073
 30
0.0
  0
SPLINE
  5
2b6
100
AcDbEntity
  8
bottom
 62
7
100
AcDbSpline
 70
8
 71
3
 72
8
 73
4
 74
0
 40
0
 40
0
 40
0
 40
0
 40
1
 40
1
 40
1
 40
1
 10
92.849985
 20
65.165073
 30
0.0
 10
93.623487
 20
64.718491
 30
0.0
 10
94.099985
 20
63.893173
 30
0.0
 10
94.099985
 20
63.000009
 30
0.0
  0
LINE
  5
2b7
100
AcDbEntity
  8
bottom
 62
7
100
AcDbLine
 10
94.099985
 20
63.000009
 30
0.0
 11
94.099985
 21
63.000009
 31
0.0
  0
SPLINE
  5
2b8
100
AcDbEntity
  8
bottom
 62
7
100
AcDbSpline
 70
8
 71
3
 72
8
 73
4
 74
0
 40
0
 40
0
 40
0
 40
0
 40
1
 40
1
 40
1
 40
1
 10
77.499985
 20
63.000009
 30
0.0
 10
77.499985
 20
62.106845
 30
0.0
 10
77.023488
 20
61.281528
 30
0.0
 10
76.249985
 20
60.834946
 30
0.0
  0
SPLINE
  5
2b9
100
AcDbEntity
  8
bottom
 62
7
100
AcDbSpline
 70
8
 71
3
 72
8
 73
4
 74
0
 40
0
 40
0
 40
0
 40
0
 40
1
 40
1
 40
1
 40
1
 10
76.249985
 20
60.834946
 30
0.0
 10
75.476482
 20
60.388364
 30
0.0
 10
74.523488
 20
60.388364
 30
0.0
 10
73.749985
 20
60.834946
 30
0.0
  0
SPLINE
  5
2ba
100
AcDbEntity
  8
bottom
 62
7
100
AcDbSpline
 70
8
 71
3
 72
8
 73
4
 74
0
 40
0
 40
0
 40
0
 40
0
 40
1
 40
1
 40
1
 40
1
 10
73.749985
 20
60.834946
 30
0.0
 10
72.976482
 20
61.281528
 30
0.0
 10
72.499985
 20
62.106845
 30
0.0
 10
72.499985
 20
63.000009
 30
0.0
  0
SPLINE
  5
2bb
100
AcDbEntity
  8
bottom
 62
7
100
AcDbSpline
 70
8
 71
3
 72
8
 73
4
 74
0
 40
0
 40
0
 40
0
 40
0
 40
1
 40
1
 40
1
 40
1
 10
72.499985
 20
63.000009
 30
0.0
 10
72.499985
 20
63.893173
 30
0.0
 10
72.976482
 20
64.718491
 30
0.0
 10
73.749985
 20
65.165073
 30
0.0
  0
SPLINE
  5
2bc
100
AcDbEntity
  8
bottom
 62
7
100
AcDbSpline
 70
8
 71
3
 72
8
 73
4
 74
0
 40
0
 40
0
 40
0
 40
0
 40
1
 40
1
 40
1
 40
1
 10
73.749985
 20
65.165073
 30
0.0
 10
74.523488
 20
65.611655
 30
0.0
 10
75.476482
 20
65.611655
 30
0.0
 10
76.249985
 20
65.165073
 30
0.0
  0
SPLINE
  5
2bd
100
AcDbEntity
  8
bottom
 62
7
100
AcDbSpline
 70
8
 71
3
 72
8
 73
4
 74
0
 40
0
 40
0
 40
0
 40
0
 40
1
 40
1
 40
1
 40
1
 10
76.249985
 20
65.165073
 30
0.0
 10
77.023488
 20
64.718491
 30
0.0
 10
77.499985
 20
63.893173
 30
0.0
 10
77.499985
 20
63.000009
 30
0.0
  0
LINE
  5
2be
100
AcDbEntity
  8
bottom
 62
7
100
AcDbLine
 10
77.499985
 20
63.000009
 30
0.0
 11
77.499985
 21
63.000009
 31
0.0
  0
LINE
  5
2bf
100
AcDbEntity
  8
bottom
 62
7
100
AcDbLine
 10
59.999999
 20
79.000011
 30
0.0
 11
414.999994
 21
79.000011
 31
0.0
  0
LINE
  5
2c0
100
AcDbEntity
  8
bottom
 62
7
100
AcDbLine
 10
414.999994
 20
79.000011
 30
0.0
 11
414.999994
 21
47.000010
 31
0.0
  0
LINE
  5
2c1
100
AcDbEntity
  8
bottom
 62
7
100
AcDbLine
 10
414.999994
 20
47.000010
 30
0.0
 11
59.999999
 21
47.000010
 31
0.0
  0
LINE
  5
2c2
100
AcDbEntity
  8
bottom
 62
7
100
AcDbLine
 10
59.999999
 20
47.000010
 30
0.0
 11
59.999999
 21
79.000011
 31
0.0
  0
SPLINE
  5
2c3
100
AcDbEntity
  8
bottom
 62
7
100
AcDbSpline
 70
8
 71
3
 72
8
 73
4
 74
0
 40
0
 40
0
 40
0
 40
0
 40
1
 40
1
 40
1
 40
1
 10
72.000000
 20
74.000015
 30
0.0
 10
72.000000
 20
73.285484
 30
0.0
 10
71.618802
 20
72.625230
 30
0.0
 10
71.000000
 20
72.267964
 30
0.0
  0
SPLINE
  5
2c4
100
AcDbEntity
  8
bottom
 62
7
100
AcDbSpline
 70
8
 71
3
 72
8
 73
4
 74
0
 40
0
 40
0
 40
0
 40
0
 40
1
 40
1
 40
1
 40
1
 10
71.000000
 20
72.267964
 30
0.0
 10
70.381198
 20
71.910699
 30
0.0
 10
69.618802
 20
71.910699
 30
0.0
 10
69.000000
 20
72.267964
 30
0.0
  0
SPLINE
  5
2c5
100
AcDbEntity
  8
bottom
 62
7
100
AcDbSpline
 70
8
 71
3
 72
8
 73
4
 74
0
 40
0
 40
0
 40
0
 40
0
 40
1
 40
1
 40
1
 40
1
 10
69.000000
 20
72.267964
 30
0.0
 10
68.381198
 20
72.625230
 30
0.0
 10
68.000000
 20
73.285484
 30
0.0
 10
68.000000
 20
74.000015
 30
0.0
  0
SPLINE
  5
2c6
100
AcDbEntity
  8
bottom
 62
7
100
AcDbSpline
 70
8
 71
3
 72
8
 73
4
 74
0
 40
0
 40
0
 40
0
 40
0
 40
1
 40
1
 40
1
 40
1
 10
68.000000
 20
74.000015
 30
0.0
 10
68.000000
 20
74.714546
 30
0.0
 10
68.381198
 20
75.374800
 30
0.0
 10
69.000000
 20
75.732066
 30
0.0
  0
SPLINE
  5
2c7
100
AcDbEntity
  8
bottom
 62
7
100
AcDbSpline
 70
8
 71
3
 72
8
 73
4
 74
0
 40
0
 40
0
 40
0
 40
0
 40
1
 40
1
 40
1
 40
1
 10
69.000000
 20
75.732066
 30
0.0
 10
69.618803
 20
76.089331
 30
0.0
 10
70.381198
 20
76.089331
 30
0.0
 10
71.000000
 20
75.732066
 30
0.0
  0
SPLINE
  5
2c8
100
AcDbEntity
  8
bottom
 62
7
100
AcDbSpline
 70
8
 71
3
 72
8
 73
4
 74
0
 40
0
 40
0
 40
0
 40
0
 40
1
 40
1
 40
1
 40
1
 10
71.000000
 20
75.732066
 30
0.0
 10
71.618803
 20
75.374800
 30
0.0
 10
72.000000
 20
74.714546
 30
0.0
 10
72.000000
 20
74.000015
 30
0.0
  0
LINE
  5
2c9
100
AcDbEntity
  8
bottom
 62
7
100
AcDbLine
 10
72.000000
 20
74.000015
 30
0.0
 11
72.000000
 21
74.000015
 31
0.0
  0
SPLINE
  5
2ca
100
AcDbEntity
  8
bottom
 62
7
100
AcDbSpline
 70
8
 71
3
 72
8
 73
4
 74
0
 40
0
 40
0
 40
0
 40
0
 40
1
 40
1
 40
1
 40
1
 10
72.000000
 20
52.000015
 30
0.0
 10
72.000000
 20
51.285484
 30
0.0
 10
71.618802
 20
50.625230
 30
0.0
 10
71.000000
 20
50.267964
 30
0.0
  0
SPLINE
  5
2cb
100
AcDbEntity
  8
bottom
 62
7
100
AcDbSpline
 70
8
 71
3
 72
8
 73
4
 74
0
 40
0
 40
0
 40
0
 40
0
 40
1
 40
1
 40
1
 40
1
 10
71.000000
 20
50.267964
 30
0.0
 10
70.381198
 20
49.910699
 30
0.0
 10
69.618802
 20
49.910699
 30
0.0
 10
69.000000
 20
50.267964
 30
0.0
  0
SPLINE
  5
2cc
100
AcDbEntity
  8
bottom
 62
7
100
AcDbSpline
 70
8
 71
3
 72
8
 73
4
 74
0
 40
0
 40
0
 40
0
 40
0
 40
1
 40
1
 40
1
 40
1
 10
69.000000
 20
50.267964
 30
0.0
 10
68.381198
 20
50.625230
 30
0.0
 10
68.000000
 20
51.285484
 30
0.0
 10
68.000000
 20
52.000015
 30
0.0
  0
SPLINE
  5
2cd
100
AcDbEntity
  8
bottom
 62
7
100
AcDbSpline
 70
8
 71
3
 72
8
 73
4
 74
0
 40
0
 40
0
 40
0
 40
0
 40
1
 40
1
 40
1
 40
1
 10
68.000000
 20
52.000015
 30
0.0
 10
68.000000
 20
52.714546
 30
0.0
 10
68.381198
 20
53.374800
 30
0.0
 10
69.000000
 20
53.732066
 30
0.0
  0
SPLINE
  5
2ce
100
AcDbEntity
  8
bottom
 62
7
100
AcDbSpline
 70
8
 71
3
 72
8
 73
4
 74
0
 40
0
 40
0
 40
0
 40
0
 40
1
 40
1
 40
1
 40
1
 10
69.000000
 20
53.732066
 30
0.0
 10
69.618803
 20
54.089331
 30
0.0
 10
70.381198
 20
54.089331
 30
0.0
 10
71.000000
 20
53.732066
 30
0.0
  0
SPLINE
  5
2cf
100
AcDbEntity
  8
bottom
 62
7
100
AcDbSpline
 70
8
 71
3
 72
8
 73
4
 74
0
 40
0
 40
0
 40
0
 40
0
 40
1
 40
1
 40
1
 40
1
 10
71.000000
 20
53.732066
 30
0.0
 10
71.618803
 20
53.374800
 30
0.0
 10
72.000000
 20
52.714546
 30
0.0
 10
72.000000
 20
52.000015
 30
0.0
  0
LINE
  5
2d0
100
AcDbEntity
  8
bottom
 62
7
100
AcDbLine
 10
72.000000
 20
52.000015
 30
0.0
 11
72.000000
 21
52.000015
 31
0.0
  0
SPLINE
  5
2d1
100
AcDbEntity
  8
bottom
 62
7
100
AcDbSpline
 70
8
 71
3
 72
8
 73
4
 74
0
 40
0
 40
0
 40
0
 40
0
 40
1
 40
1
 40
1
 40
1
 10
407.000007
 20
74.000015
 30
0.0
 10
407.000007
 20
73.285484
 30
0.0
 10
406.618809
 20
72.625230
 30
0.0
 10
406.000007
 20
72.267964
 30
0.0
  0
SPLINE
  5
2d2
100
AcDbEntity
  8
bottom
 62
7
100
AcDbSpline
 70
8
 71
3
 72
8
 73
4
 74
0
 40
0
 40
0
 40
0
 40
0
 40
1
 40
1
 40
1
 40
1
 10
406.000007
 20
72.267964
 30
0.0
 10
405.381205
 20
71.910699
 30
0.0
 10
404.618809
 20
71.910699
 30
0.0
 10
404.000007
 20
72.267964
 30
0.0
  0
SPLINE
  5
2d3
100
AcDbEntity
  8
bottom
 62
7
100
AcDbSpline
 70
8
 71
3
 72
8
 73
4
 74
0
 40
0
 40
0
 40
0
 40
0
 40
1
 40
1
 40
1
 40
1
 10
404.000007
 20
72.267964
 30
0.0
 10
403.381205
 20
72.625230
 30
0.0
 10
403.000007
 20
73.285484
 30
0.0
 10
403.000007
 20
74.000015
 30
0.0
  0
SPLINE
  5
2d4
100
AcDbEntity
  8
bottom
 62
7
100
AcDbSpline
 70
8
 71
3
 72
8
 73
4
 74
0
 40
0
 40
0
 40
0
 40
0
 40
1
 40
1
 40
1
 40
1
 10
403.000007
 20
74.000015
 30
0.0
 10
403.000007
 20
74.714546
 30
0.0
 10
403.381205
 20
75.374800
 30
0.0
 10
404.000007
 20
75.732066
 30
0.0
  0
SPLINE
  5
2d5
100
AcDbEntity
  8
bottom
 62
7
100
AcDbSpline
 70
8
 71
3
 72
8
 73
4
 74
0
 40
0
 40
0
 40
0
 40
0
 40
1
 40
1
 40
1
 40
1
 10
404.000007
 20
75.732066
 30
0.0
 10
404.618809
 20
76.089331
 30
0.0
 10
405.381205
 20
76.089331
 30
0.0
 10
406.000007
 20
75.732066
 30
0.0
  0
SPLINE
  5
2d6
100
AcDbEntity
  8
bottom
 62
7
100
AcDbSpline
 70
8
 71
3
 72
8
 73
4
 74
0
 40
0
 40
0
 40
0
 40
0
 40
1
 40
1
 40
1
 40
1
 10
406.000007
 20
75.732066
 30
0.0
 10
406.618809
 20
75.374800
 30
0.0
 10
407.000007
 20
74.714546
 30
0.0
 10
407.000007
 20
74.000015
 30
0.0
  0
LINE
  5
2d7
100
AcDbEntity
  8
bottom
 62
7
100
AcDbLine
 10
407.000007
 20
74.000015
 30
0.0
 11
407.000007
 21
74.000015
 31
0.0
  0
SPLINE
  5
2d8
100
AcDbEntity
  8
bottom
 62
7
100
AcDbSpline
 70
8
 71
3
 72
8
 73
4
 74
0
 40
0
 40
0
 40
0
 40
0
 40
1
 40
1
 40
1
 40
1
 10
407.000007
 20
52.000015
 30
0.0
 10
407.000007
 20
51.285484
 30
0.0
 10
406.618809
 20
50.625230
 30
0.0
 10
406.000007
 20
50.267964
 30
0.0
  0
SPLINE
  5
2d9
100
AcDbEntity
  8
bottom
 62
7
100
AcDbSpline
 70
8
 71
3
 72
8
 73
4
 74
0
 40
0
 40
0
 40
0
 40
0
 40
1
 40
1
 40
1
 40
1
 10
406.000007
 20
50.267964
 30
0.0
 10
405.381205
 20
49.910699
 30
0.0
 10
404.618809
 20
49.910699
 30
0.0
 10
404.000007
 20
50.267964
 30
0.0
  0
SPLINE
  5
2da
100
AcDbEntity
  8
bottom
 62
7
100
AcDbSpline
 70
8
 71
3
 72
8
 73
4
 74
0
 40
0
 40
0
 40
0
 40
0
 40
1
 40
1
 40
1
 40
1
 10
404.000007
 20
50.267964
 30
0.0
 10
403.381205
 20
50.625230
 30
0.0
 10
403.000007
 20
51.285484
 30
0.0
 10
403.000007
 20
52.000015
 30
0.0
  0
SPLINE
  5
2db
100
AcDbEntity
  8
bottom
 62
7
100
AcDbSpline
 70
8
 71
3
 72
8
 73
4
 74
0
 40
0
 40
0
 40
0
 40
0
 40
1
 40
1
 40
1
 40
1
 10
403.000007
 20
52.000015
 30
0.0
 10
403.000007
 20
52.714546
 30
0.0
 10
403.381205
 20
53.374800
 30
0.0
 10
404.000007
 20
53.732066
 30
0.0
  0
SPLINE
  5
2dc
100
AcDbEntity
  8
bottom
 62
7
100
AcDbSpline
 70
8
 71
3
 72
8
 73
4
 74
0
 40
0
 40
0
 40
0
 40
0
 40
1
 40
1
 40
1
 40
1
 10
404.000007
 20
53.732066
 30
0.0
 10
404.618809
 20
54.089331
 30
0.0
 10
405.381205
 20
54.089331
 30
0.0
 10
406.000007
 20
53.732066
 30
0.0
  0
SPLINE
  5
2dd
100
AcDbEntity
  8
bottom
 62
7
100
AcDbSpline
 70
8
 71
3
 72
8
 73
4
 74
0
 40
0
 40
0
 40
0
 40
0
 40
1
 40
1
 40
1
 40
1
 10
406.000007
 20
53.732066
 30
0.0
 10
406.618809
 20
53.374800
 30
0.0
 10
407.000007
 20
52.714546
 30
0.0
 10
407.000007
 20
52.000015
 30
0.0
  0
LINE
  5
2de
100
AcDbEntity
  8
bottom
 62
7
100
AcDbLine
 10
407.000007
 20
52.000015
 30
0.0
 11
407.000007
 21
52.000015
 31
0.0
  0
SPLINE
  5
2df
100
AcDbEntity
  8
bottom
 62
7
100
AcDbSpline
 70
8
 71
3
 72
8
 73
4
 74
0
 40
0
 40
0
 40
0
 40
0
 40
1
 40
1
 40
1
 40
1
 10
239.500012
 20
74.000015
 30
0.0
 10
239.500012
 20
73.285484
 30
0.0
 10
239.118814
 20
72.625230
 30
0.0
 10
238.500012
 20
72.267964
 30
0.0
  0
SPLINE
  5
2e0
100
AcDbEntity
  8
bottom
 62
7
100
AcDbSpline
 70
8
 71
3
 72
8
 73
4
 74
0
 40
0
 40
0
 40
0
 40
0
 40
1
 40
1
 40
1
 40
1
 10
238.500012
 20
72.267964
 30
0.0
 10
237.881210
 20
71.910699
 30
0.0
 10
237.118814
 20
71.910699
 30
0.0
 10
236.500012
 20
72.267964
 30
0.0
  0
SPLINE
  5
2e1
100
AcDbEntity
  8
bottom
 62
7
100
AcDbSpline
 70
8
 71
3
 72
8
 73
4
 74
0
 40
0
 40
0
 40
0
 40
0
 40
1
 40
1
 40
1
 40
1
 10
236.500012
 20
72.267964
 30
0.0
 10
235.881210
 20
72.625230
 30
0.0
 10
235.500012
 20
73.285484
 30
0.0
 10
235.500012
 20
74.000015
 30
0.0
  0
SPLINE
  5
2e2
100
AcDbEntity
  8
bottom
 62
7
100
AcDbSpline
 70
8
 71
3
 72
8
 73
4
 74
0
 40
0
 40
0
 40
0
 40
0
 40
1
 40
1
 40
1
 40
1
 10
235.500012
 20
74.000015
 30
0.0
 10
235.500012
 20
74.714546
 30
0.0
 10
235.881210
 20
75.374800
 30
0.0
 10
236.500012
 20
75.732066
 30
0.0
  0
SPLINE
  5
2e3
100
AcDbEntity
  8
bottom
 62
7
100
AcDbSpline
 70
8
 71
3
 72
8
 73
4
 74
0
 40
0
 40
0
 40
0
 40
0
 40
1
 40
1
 40
1
 40
1
 10
236.500012
 20
75.732066
 30
0.0
 10
237.118814
 20
76.089331
 30
0.0
 10
237.881210
 20
76.089331
 30
0.0
 10
238.500012
 20
75.732066
 30
0.0
  0
SPLINE
  5
2e4
100
AcDbEntity
  8
bottom
 62
7
100
AcDbSpline
 70
8
 71
3
 72
8
 73
4
 74
0
 40
0
 40
0
 40
0
 40
0
 40
1
 40
1
 40
1
 40
1
 10
238.500012
 20
75.732066
 30
0.0
 10
239.118814
 20
75.374800
 30
0.0
 10
239.500012
 20
74.714546
 30
0.0
 10
239.500012
 20
74.000015
 30
0.0
  0
LINE
  5
2e5
100
AcDbEntity
  8
bottom
 62
7
100
AcDbLine
 10
239.500012
 20
74.000015
 30
0.0
 11
239.500012
 21
74.000015
 31
0.0
  0
SPLINE
  5
2e6
100
AcDbEntity
  8
bottom
 62
7
100
AcDbSpline
 70
8
 71
3
 72
8
 73
4
 74
0
 40
0
 40
0
 40
0
 40
0
 40
1
 40
1
 40
1
 40
1
 10
239.500012
 20
52.000015
 30
0.0
 10
239.500012
 20
51.285484
 30
0.0
 10
239.118814
 20
50.625230
 30
0.0
 10
238.500012
 20
50.267964
 30
0.0
  0
SPLINE
  5
2e7
100
AcDbEntity
  8
bottom
 62
7
100
AcDbSpline
 70
8
 71
3
 72
8
 73
4
 74
0
 40
0
 40
0
 40
0
 40
0
 40
1
 40
1
 40
1
 40
1
 10
238.500012
 20
50.267964
 30
0.0
 10
237.881210
 20
49.910699
 30
0.0
 10
237.118814
 20
49.910699
 30
0.0
 10
236.500012
 20
50.267964
 30
0.0
  0
SPLINE
  5
2e8
100
AcDbEntity
  8
bottom
 62
7
100
AcDbSpline
 70
8
 71
3
 72
8
 73
4
 74
0
 40
0
 40
0
 40
0
 40
0
 40
1
 40
1
 40
1
 40
1
 10
236.500012
 20
50.267964
 30
0.0
 10
235.881210
 20
50.625230
 30
0.0
 10
235.500012
 20
51.285484
 30
0.0
 10
235.500012
 20
52.000015
 30
0.0
  0
SPLINE
  5
2e9
100
AcDbEntity
  8
bottom
 62
7
100
AcDbSpline
 70
8
 71
3
 72
8
 73
4
 74
0
 40
0
 40
0
 40
0
 40
0
 40
1
 40
1
 40
1
 40
1
 10
235.500012
 20
52.000015
 30
0.0
 10
235.500012
 20
52.714546
 30
0.0
 10
235.881210
 20
53.374800
 30
0.0
 10
236.500012
 20
53.732066
 30
0.0
  0
SPLINE
  5
2ea
100
AcDbEntity
  8
bottom
 62
7
100
AcDbSpline
 70
8
 71
3
 72
8
 73
4
 74
0
 40
0
 40
0
 40
0
 40
0
 40
1
 40
1
 40
1
 40
1
 10
236.500012
 20
53.732066
 30
0.0
 10
237.118814
 20
54.089331
 30
0.0
 10
237.881210
 20
54.089331
 30
0.0
 10
238.500012
 20
53.732066
 30
0.0
  0
SPLINE
  5
2eb
100
AcDbEntity
  8
bottom
 62
7
100
AcDbSpline
 70
8
 71
3
 72
8
 73
4
 74
0
 40
0
 40
0
 40
0
 40
0
 40
1
 40
1
 40
1
 40
1
 10
238.500012
 20
53.732066
 30
0.0
 10
239.118814
 20
53.374800
 30
0.0
 10
239.500012
 20
52.714546
 30
0.0
 10
239.500012
 20
52.000015
 30
0.0
  0
LINE
  5
2ec
100
AcDbEntity
  8
bottom
 62
7
100
AcDbLine
 10
239.500012
 20
52.000015
 30
0.0
 11
239.500012
 21
52.000015
 31
0.0
  0
LINE
  5
2ed
100
AcDbEntity
  8
bottom
 62
7
100
AcDbLine
 10
57.000002
 20
79.000011
 30
0.0
 11
418.000013
 21
79.000011
 31
0.0
  0
LINE
  5
2ee
100
AcDbEntity
  8
bottom
 62
7
100
AcDbLine
 10
418.000013
 20
79.000011
 30
0.0
 11
418.000013
 21
69.000011
 31
0.0
  0
LINE
  5
2ef
100
AcDbEntity
  8
bottom
 62
7
100
AcDbLine
 10
418.000013
 20
69.000011
 30
0.0
 11
57.000002
 21
69.000011
 31
0.0
  0
LINE
  5
2f0
100
AcDbEntity
  8
bottom
 62
7
100
AcDbLine
 10
57.000002
 20
69.000011
 30
0.0
 11
57.000002
 21
79.000011
 31
0.0
  0
LINE
  5
2f1
100
AcDbEntity
  8
bottom
 62
7
100
AcDbLine
 10
57.000002
 20
57.000027
 30
0.0
 11
418.000013
 21
57.000027
 31
0.0
  0
LINE
  5
2f2
100
AcDbEntity
  8
bottom
 62
7
100
AcDbLine
 10
418.000013
 20
57.000027
 30
0.0
 11
418.000013
 21
47.000027
 31
0.0
  0
LINE
  5
2f3
100
AcDbEntity
  8
bottom
 62
7
100
AcDbLine
 10
418.000013
 20
47.000027
 30
0.0
 11
57.000002
 21
47.000027
 31
0.0
  0
LINE
  5
2f4
100
AcDbEntity
  8
bottom
 62
7
100
AcDbLine
 10
57.000002
 20
47.000027
 30
0.0
 11
57.000002
 21
57.000027
 31
0.0
  0
ENDSEC
  0
SECTION
  2
OBJECTS
  0
DICTIONARY
  5
C
330
0
100
AcDbDictionary
  3
ACAD_GROUP
350
D
  3
ACAD_MLINESTYLE
350
17
  0
DICTIONARY
  5
D
330
C
100
AcDbDictionary
  0
DICTIONARY
  5
1A
330
C
100
AcDbDictionary
  0
DICTIONARY
  5
17
330
C
100
AcDbDictionary
  3
STANDARD
350
18
  0
DICTIONARY
  5
19
330
C
100
AcDbDictionary
  0
ENDSEC
  0
EOF
