  0
SECTION
  2
HEADER
  9
$ACADVER
  1
AC1014
  9
$HANDSEED
  5
FFFF
  9
$MEASUREMENT
 70
     1
  0
ENDSEC
  0
SECTION
  2
TABLES
  0
TABLE
  2
VPORT
  5
8
330
0
100
AcDbSymbolTable
 70
     4
  0
VPORT
  5
2E
330
8
100
AcDbSymbolTableRecord
100
AcDbViewportTableRecord
  2
*ACTIVE
 70
     0
 10
0.0
 20
0.0
 11
1.0
 21
1.0
 12
210.0
 22
148.5
 13
0.0
 23
0.0
 14
10.0
 24
10.0
 15
10.0
 25
10.0
 16
0.0
 26
0.0
 36
1.0
 17
0.0
 27
0.0
 37
0.0
 40
341.0
 41
1.24
 42
50.0
 43
0.0
 44
0.0
 50
0.0
 51
0.0
 71
     0
 72
   100
 73
     1
 74
     3
 75
     0
 76
     0
 77
     0
 78
     0
  0
ENDTAB
  0
TABLE
  2
LTYPE
  5
5
330
0
100
AcDbSymbolTable
 70
     1
  0
LTYPE
  5
14
330
5
100
AcDbSymbolTableRecord
100
AcDbLinetypeTableRecord
  2
BYBLOCK
 70
     0
  3

 72
    65
 73
     0
 40
0.0
  0
LTYPE
  5
15
330
5
100
AcDbSymbolTableRecord
100
AcDbLinetypeTableRecord
  2
BYLAYER
 70
     0
  3

 72
    65
 73
     0
 40
0.0
  0
LTYPE
  5
16
330
5
100
AcDbSymbolTableRecord
100
AcDbLinetypeTableRecord
  2
CONTINUOUS
 70
     0
  3
Solid line
 72
    65
 73
     0
 40
0.0
  0
ENDTAB
  0
TABLE
  2
LAYER
  5
2
100
AcDbSymbolTable
 70
1
  0
LAYER
  5
50
100
AcDbSymbolTableRecord
100
AcDbLayerTableRecord
  2
0
 70
0
  6
CONTINUOUS
  0
ENDTAB
  0
TABLE
  2
STYLE
  5
3
330
0
100
AcDbSymbolTable
 70
     1
  0
STYLE
  5
11
330
3
100
AcDbSymbolTableRecord
100
AcDbTextStyleTableRecord
  2
STANDARD
 70
     0
 40
0.0
 41
1.0
 50
0.0
 71
     0
 42
2.5
  3
txt
  4

  0
ENDTAB
  0
TABLE
  2
VIEW
  5
6
330
0
100
AcDbSymbolTable
 70
     0
  0
ENDTAB
  0
TABLE
  2
UCS
  5
7
330
0
100
AcDbSymbolTable
 70
     0
  0
ENDTAB
  0
TABLE
  2
APPID
  5
9
330
0
100
AcDbSymbolTable
 70
     2
  0
APPID
  5
12
330
9
100
AcDbSymbolTableRecord
100
AcDbRegAppTableRecord
  2
ACAD
 70
     0
  0
ENDTAB
  0
TABLE
  2
DIMSTYLE
  5
A
330
0
100
AcDbSymbolTable
 70
     1
  0
DIMSTYLE
105
27
330
A
100
AcDbSymbolTableRecord
100
AcDbDimStyleTableRecord
  2
ISO-25
 70
     0
  3

  4

  5

  6

  7

 40
1.0
 41
2.5
 42
0.625
 43
3.75
 44
1.25
 45
0.0
 46
0.0
 47
0.0
 48
0.0
140
2.5
141
2.5
142
0.0
143
0.03937007874016
144
1.0
145
0.0
146
1.0
147
0.625
 71
     0
 72
     0
 73
     0
 74
     0
 75
     0
 76
     0
 77
     1
 78
     8
170
     0
171
     3
172
     1
173
     0
174
     0
175
     0
176
     0
177
     0
178
     0
270
     2
271
     2
272
     2
273
     2
274
     3
340
11
275
     0
280
     0
281
     0
282
     0
283
     0
284
     8
285
     0
286
     0
287
     3
288
     0
  0
ENDTAB
  0
TABLE
  2
BLOCK_RECORD
  5
1
330
0
100
AcDbSymbolTable
 70
     1
  0
BLOCK_RECORD
  5
1F
330
1
100
AcDbSymbolTableRecord
100
AcDbBlockTableRecord
  2
*MODEL_SPACE
  0
BLOCK_RECORD
  5
1B
330
1
100
AcDbSymbolTableRecord
100
AcDbBlockTableRecord
  2
*PAPER_SPACE
  0
ENDTAB
  0
ENDSEC
  0
SECTION
  2
BLOCKS
  0
BLOCK
  5
20
330
1F
100
AcDbEntity
  8
0
100
AcDbBlockBegin
  2
*MODEL_SPACE
 70
     0
 10
0.0
 20
0.0
 30
0.0
  3
*MODEL_SPACE
  1

  0
ENDBLK
  5
21
330
1F
100
AcDbEntity
  8
0
100
AcDbBlockEnd
  0
BLOCK
  5
1C
330
1B
100
AcDbEntity
 67
     1
  8
0
100
AcDbBlockBegin
  2
*PAPER_SPACE
  1

  0
ENDBLK
  5
1D
330
1B
100
AcDbEntity
 67
     1
  8
0
100
AcDbBlockEnd
  0
ENDSEC
  0
SECTION
  2
ENTITIES
  0
LINE
  5
100
100
AcDbEntity
  8
0
 62
7
100
AcDbLine
 10
0.000000
 20
219.999998
 30
0.0
 11
0.000000
 21
0.000001
 31
0.0
  0
LINE
  5
101
100
AcDbEntity
  8
0
 62
7
100
AcDbLine
 10
0.000000
 20
0.000001
 30
0.0
 11
439.999995
 21
0.000001
 31
0.0
  0
LINE
  5
102
100
AcDbEntity
  8
0
 62
7
100
AcDbLine
 10
439.999995
 20
0.000001
 30
0.0
 11
439.999995
 21
219.999998
 31
0.0
  0
LINE
  5
103
100
AcDbEntity
  8
0
 62
7
100
AcDbLine
 10
439.999995
 20
219.999998
 30
0.0
 11
0.000000
 21
219.999998
 31
0.0
  0
LINE
  5
104
100
AcDbEntity
  8
0
 62
7
100
AcDbLine
 10
12.518600
 20
20.398899
 30
0.0
 11
12.550000
 21
20.000000
 31
0.0
  0
LINE
  5
105
100
AcDbEntity
  8
0
 62
7
100
AcDbLine
 10
12.550000
 20
20.000000
 30
0.0
 11
12.518600
 21
19.601099
 31
0.0
  0
LINE
  5
106
100
AcDbEntity
  8
0
 62
7
100
AcDbLine
 10
12.518600
 20
19.601099
 30
0.0
 11
12.425200
 21
19.211999
 31
0.0
  0
LINE
  5
107
100
AcDbEntity
  8
0
 62
7
100
AcDbLine
 10
12.425200
 20
19.211999
 30
0.0
 11
12.272100
 21
18.842299
 31
0.0
  0
LINE
  5
108
100
AcDbEntity
  8
0
 62
7
100
AcDbLine
 10
12.272100
 20
18.842299
 30
0.0
 11
12.063000
 21
18.501098
 31
0.0
  0
LINE
  5
109
100
AcDbEntity
  8
0
 62
7
100
AcDbLine
 10
12.063000
 20
18.501098
 30
0.0
 11
11.803100
 21
18.196899
 31
0.0
  0
LINE
  5
10a
100
AcDbEntity
  8
0
 62
7
100
AcDbLine
 10
11.803100
 20
18.196899
 30
0.0
 11
11.498900
 21
17.936998
 31
0.0
  0
LINE
  5
10b
100
AcDbEntity
  8
0
 62
7
100
AcDbLine
 10
11.498900
 20
17.936998
 30
0.0
 11
11.157700
 21
17.727900
 31
0.0
  0
LINE
  5
10c
100
AcDbEntity
  8
0
 62
7
100
AcDbLine
 10
11.157700
 20
17.727900
 30
0.0
 11
10.788000
 21
17.574800
 31
0.0
  0
LINE
  5
10d
100
AcDbEntity
  8
0
 62
7
100
AcDbLine
 10
10.788000
 20
17.574800
 30
0.0
 11
10.398900
 21
17.481398
 31
0.0
  0
LINE
  5
10e
100
AcDbEntity
  8
0
 62
7
100
AcDbLine
 10
10.398900
 20
17.481398
 30
0.0
 11
10.000000
 21
17.449998
 31
0.0
  0
LINE
  5
10f
100
AcDbEntity
  8
0
 62
7
100
AcDbLine
 10
10.000000
 20
17.449998
 30
0.0
 11
9.601090
 21
17.481398
 31
0.0
  0
LINE
  5
110
100
AcDbEntity
  8
0
 62
7
100
AcDbLine
 10
9.601090
 20
17.481398
 30
0.0
 11
9.212010
 21
17.574800
 31
0.0
  0
LINE
  5
111
100
AcDbEntity
  8
0
 62
7
100
AcDbLine
 10
9.212010
 20
17.574800
 30
0.0
 11
8.842320
 21
17.727900
 31
0.0
  0
LINE
  5
112
100
AcDbEntity
  8
0
 62
7
100
AcDbLine
 10
8.842320
 20
17.727900
 30
0.0
 11
8.501150
 21
17.936998
 31
0.0
  0
LINE
  5
113
100
AcDbEntity
  8
0
 62
7
100
AcDbLine
 10
8.501150
 20
17.936998
 30
0.0
 11
8.196880
 21
18.196899
 31
0.0
  0
LINE
  5
114
100
AcDbEntity
  8
0
 62
7
100
AcDbLine
 10
8.196880
 20
18.196899
 30
0.0
 11
7.937010
 21
18.501098
 31
0.0
  0
LINE
  5
115
100
AcDbEntity
  8
0
 62
7
100
AcDbLine
 10
7.937010
 20
18.501098
 30
0.0
 11
7.727930
 21
18.842299
 31
0.0
  0
LINE
  5
116
100
AcDbEntity
  8
0
 62
7
100
AcDbLine
 10
7.727930
 20
18.842299
 30
0.0
 11
7.574810
 21
19.211999
 31
0.0
  0
LINE
  5
117
100
AcDbEntity
  8
0
 62
7
100
AcDbLine
 10
7.574810
 20
19.211999
 30
0.0
 11
7.481390
 21
19.601099
 31
0.0
  0
LINE
  5
118
100
AcDbEntity
  8
0
 62
7
100
AcDbLine
 10
7.481390
 20
19.601099
 30
0.0
 11
7.450000
 21
20.000000
 31
0.0
  0
LINE
  5
119
100
AcDbEntity
  8
0
 62
7
100
AcDbLine
 10
7.450000
 20
20.000000
 30
0.0
 11
7.481390
 21
20.398899
 31
0.0
  0
LINE
  5
11a
100
AcDbEntity
  8
0
 62
7
100
AcDbLine
 10
7.481390
 20
20.398899
 30
0.0
 11
7.574810
 21
20.787999
 31
0.0
  0
LINE
  5
11b
100
AcDbEntity
  8
0
 62
7
100
AcDbLine
 10
7.574810
 20
20.787999
 30
0.0
 11
7.727930
 21
21.157698
 31
0.0
  0
LINE
  5
11c
100
AcDbEntity
  8
0
 62
7
100
AcDbLine
 10
7.727930
 20
21.157698
 30
0.0
 11
7.937010
 21
21.498899
 31
0.0
  0
LINE
  5
11d
100
AcDbEntity
  8
0
 62
7
100
AcDbLine
 10
7.937010
 20
21.498899
 30
0.0
 11
8.196880
 21
21.803098
 31
0.0
  0
LINE
  5
11e
100
AcDbEntity
  8
0
 62
7
100
AcDbLine
 10
8.196880
 20
21.803098
 30
0.0
 11
8.501150
 21
22.063000
 31
0.0
  0
LINE
  5
11f
100
AcDbEntity
  8
0
 62
7
100
AcDbLine
 10
8.501150
 20
22.063000
 30
0.0
 11
8.842320
 21
22.272098
 31
0.0
  0
LINE
  5
120
100
AcDbEntity
  8
0
 62
7
100
AcDbLine
 10
8.842320
 20
22.272098
 30
0.0
 11
9.212010
 21
22.425201
 31
0.0
  0
LINE
  5
121
100
AcDbEntity
  8
0
 62
7
100
AcDbLine
 10
9.212010
 20
22.425201
 30
0.0
 11
9.601090
 21
22.518599
 31
0.0
  0
LINE
  5
122
100
AcDbEntity
  8
0
 62
7
100
AcDbLine
 10
9.601090
 20
22.518599
 30
0.0
 11
10.000000
 21
22.549999
 31
0.0
  0
LINE
  5
123
100
AcDbEntity
  8
0
 62
7
100
AcDbLine
 10
10.000000
 20
22.549999
 30
0.0
 11
10.398900
 21
22.518599
 31
0.0
  0
LINE
  5
124
100
AcDbEntity
  8
0
 62
7
100
AcDbLine
 10
10.398900
 20
22.518599
 30
0.0
 11
10.788000
 21
22.425201
 31
0.0
  0
LINE
  5
125
100
AcDbEntity
  8
0
 62
7
100
AcDbLine
 10
10.788000
 20
22.425201
 30
0.0
 11
11.157700
 21
22.272098
 31
0.0
  0
LINE
  5
126
100
AcDbEntity
  8
0
 62
7
100
AcDbLine
 10
11.157700
 20
22.272098
 30
0.0
 11
11.498900
 21
22.063000
 31
0.0
  0
LINE
  5
127
100
AcDbEntity
  8
0
 62
7
100
AcDbLine
 10
11.498900
 20
22.063000
 30
0.0
 11
11.803100
 21
21.803098
 31
0.0
  0
LINE
  5
128
100
AcDbEntity
  8
0
 62
7
100
AcDbLine
 10
11.803100
 20
21.803098
 30
0.0
 11
12.063000
 21
21.498899
 31
0.0
  0
LINE
  5
129
100
AcDbEntity
  8
0
 62
7
100
AcDbLine
 10
12.063000
 20
21.498899
 30
0.0
 11
12.272100
 21
21.157698
 31
0.0
  0
LINE
  5
12a
100
AcDbEntity
  8
0
 62
7
100
AcDbLine
 10
12.272100
 20
21.157698
 30
0.0
 11
12.425200
 21
20.787999
 31
0.0
  0
LINE
  5
12b
100
AcDbEntity
  8
0
 62
7
100
AcDbLine
 10
12.425200
 20
20.787999
 30
0.0
 11
12.518600
 21
20.398899
 31
0.0
  0
LINE
  5
12c
100
AcDbEntity
  8
0
 62
7
100
AcDbLine
 10
12.518600
 20
180.398999
 30
0.0
 11
12.550000
 21
179.999999
 31
0.0
  0
LINE
  5
12d
100
AcDbEntity
  8
0
 62
7
100
AcDbLine
 10
12.550000
 20
179.999999
 30
0.0
 11
12.518600
 21
179.600999
 31
0.0
  0
LINE
  5
12e
100
AcDbEntity
  8
0
 62
7
100
AcDbLine
 10
12.518600
 20
179.600999
 30
0.0
 11
12.425200
 21
179.212001
 31
0.0
  0
LINE
  5
12f
100
AcDbEntity
  8
0
 62
7
100
AcDbLine
 10
12.425200
 20
179.212001
 30
0.0
 11
12.272100
 21
178.841999
 31
0.0
  0
LINE
  5
130
100
AcDbEntity
  8
0
 62
7
100
AcDbLine
 10
12.272100
 20
178.841999
 30
0.0
 11
12.063000
 21
178.500998
 31
0.0
  0
LINE
  5
131
100
AcDbEntity
  8
0
 62
7
100
AcDbLine
 10
12.063000
 20
178.500998
 30
0.0
 11
11.803100
 21
178.197000
 31
0.0
  0
LINE
  5
132
100
AcDbEntity
  8
0
 62
7
100
AcDbLine
 10
11.803100
 20
178.197000
 30
0.0
 11
11.498900
 21
177.937000
 31
0.0
  0
LINE
  5
133
100
AcDbEntity
  8
0
 62
7
100
AcDbLine
 10
11.498900
 20
177.937000
 30
0.0
 11
11.157700
 21
177.728000
 31
0.0
  0
LINE
  5
134
100
AcDbEntity
  8
0
 62
7
100
AcDbLine
 10
11.157700
 20
177.728000
 30
0.0
 11
10.788000
 21
177.574999
 31
0.0
  0
LINE
  5
135
100
AcDbEntity
  8
0
 62
7
100
AcDbLine
 10
10.788000
 20
177.574999
 30
0.0
 11
10.398900
 21
177.480999
 31
0.0
  0
LINE
  5
136
100
AcDbEntity
  8
0
 62
7
100
AcDbLine
 10
10.398900
 20
177.480999
 30
0.0
 11
10.000000
 21
177.450000
 31
0.0
  0
LINE
  5
137
100
AcDbEntity
  8
0
 62
7
100
AcDbLine
 10
10.000000
 20
177.450000
 30
0.0
 11
9.601090
 21
177.480999
 31
0.0
  0
LINE
  5
138
100
AcDbEntity
  8
0
 62
7
100
AcDbLine
 10
9.601090
 20
177.480999
 30
0.0
 11
9.212010
 21
177.574999
 31
0.0
  0
LINE
  5
139
100
AcDbEntity
  8
0
 62
7
100
AcDbLine
 10
9.212010
 20
177.574999
 30
0.0
 11
8.842320
 21
177.728000
 31
0.0
  0
LINE
  5
13a
100
AcDbEntity
  8
0
 62
7
100
AcDbLine
 10
8.842320
 20
177.728000
 30
0.0
 11
8.501150
 21
177.937000
 31
0.0
  0
LINE
  5
13b
100
AcDbEntity
  8
0
 62
7
100
AcDbLine
 10
8.501150
 20
177.937000
 30
0.0
 11
8.196880
 21
178.197000
 31
0.0
  0
LINE
  5
13c
100
AcDbEntity
  8
0
 62
7
100
AcDbLine
 10
8.196880
 20
178.197000
 30
0.0
 11
7.937010
 21
178.500998
 31
0.0
  0
LINE
  5
13d
100
AcDbEntity
  8
0
 62
7
100
AcDbLine
 10
7.937010
 20
178.500998
 30
0.0
 11
7.727930
 21
178.841999
 31
0.0
  0
LINE
  5
13e
100
AcDbEntity
  8
0
 62
7
100
AcDbLine
 10
7.727930
 20
178.841999
 30
0.0
 11
7.574810
 21
179.212001
 31
0.0
  0
LINE
  5
13f
100
AcDbEntity
  8
0
 62
7
100
AcDbLine
 10
7.574810
 20
179.212001
 30
0.0
 11
7.481390
 21
179.600999
 31
0.0
  0
LINE
  5
140
100
AcDbEntity
  8
0
 62
7
100
AcDbLine
 10
7.481390
 20
179.600999
 30
0.0
 11
7.450000
 21
179.999999
 31
0.0
  0
LINE
  5
141
100
AcDbEntity
  8
0
 62
7
100
AcDbLine
 10
7.450000
 20
179.999999
 30
0.0
 11
7.481390
 21
180.398999
 31
0.0
  0
LINE
  5
142
100
AcDbEntity
  8
0
 62
7
100
AcDbLine
 10
7.481390
 20
180.398999
 30
0.0
 11
7.574810
 21
180.788000
 31
0.0
  0
LINE
  5
143
100
AcDbEntity
  8
0
 62
7
100
AcDbLine
 10
7.574810
 20
180.788000
 30
0.0
 11
7.727930
 21
181.157999
 31
0.0
  0
LINE
  5
144
100
AcDbEntity
  8
0
 62
7
100
AcDbLine
 10
7.727930
 20
181.157999
 30
0.0
 11
7.937010
 21
181.499000
 31
0.0
  0
LINE
  5
145
100
AcDbEntity
  8
0
 62
7
100
AcDbLine
 10
7.937010
 20
181.499000
 30
0.0
 11
8.196880
 21
181.802998
 31
0.0
  0
LINE
  5
146
100
AcDbEntity
  8
0
 62
7
100
AcDbLine
 10
8.196880
 20
181.802998
 30
0.0
 11
8.501150
 21
182.062998
 31
0.0
  0
LINE
  5
147
100
AcDbEntity
  8
0
 62
7
100
AcDbLine
 10
8.501150
 20
182.062998
 30
0.0
 11
8.842320
 21
182.272001
 31
0.0
  0
LINE
  5
148
100
AcDbEntity
  8
0
 62
7
100
AcDbLine
 10
8.842320
 20
182.272001
 30
0.0
 11
9.212010
 21
182.424999
 31
0.0
  0
LINE
  5
149
100
AcDbEntity
  8
0
 62
7
100
AcDbLine
 10
9.212010
 20
182.424999
 30
0.0
 11
9.601090
 21
182.518999
 31
0.0
  0
LINE
  5
14a
100
AcDbEntity
  8
0
 62
7
100
AcDbLine
 10
9.601090
 20
182.518999
 30
0.0
 11
10.000000
 21
182.549998
 31
0.0
  0
LINE
  5
14b
100
AcDbEntity
  8
0
 62
7
100
AcDbLine
 10
10.000000
 20
182.549998
 30
0.0
 11
10.398900
 21
182.518999
 31
0.0
  0
LINE
  5
14c
100
AcDbEntity
  8
0
 62
7
100
AcDbLine
 10
10.398900
 20
182.518999
 30
0.0
 11
10.788000
 21
182.424999
 31
0.0
  0
LINE
  5
14d
100
AcDbEntity
  8
0
 62
7
100
AcDbLine
 10
10.788000
 20
182.424999
 30
0.0
 11
11.157700
 21
182.272001
 31
0.0
  0
LINE
  5
14e
100
AcDbEntity
  8
0
 62
7
100
AcDbLine
 10
11.157700
 20
182.272001
 30
0.0
 11
11.498900
 21
182.062998
 31
0.0
  0
LINE
  5
14f
100
AcDbEntity
  8
0
 62
7
100
AcDbLine
 10
11.498900
 20
182.062998
 30
0.0
 11
11.803100
 21
181.802998
 31
0.0
  0
LINE
  5
150
100
AcDbEntity
  8
0
 62
7
100
AcDbLine
 10
11.803100
 20
181.802998
 30
0.0
 11
12.063000
 21
181.499000
 31
0.0
  0
LINE
  5
151
100
AcDbEntity
  8
0
 62
7
100
AcDbLine
 10
12.063000
 20
181.499000
 30
0.0
 11
12.272100
 21
181.157999
 31
0.0
  0
LINE
  5
152
100
AcDbEntity
  8
0
 62
7
100
AcDbLine
 10
12.272100
 20
181.157999
 30
0.0
 11
12.425200
 21
180.788000
 31
0.0
  0
LINE
  5
153
100
AcDbEntity
  8
0
 62
7
100
AcDbLine
 10
12.425200
 20
180.788000
 30
0.0
 11
12.518600
 21
180.398999
 31
0.0
  0
LINE
  5
154
100
AcDbEntity
  8
0
 62
7
100
AcDbLine
 10
43.016500
 20
65.413400
 30
0.0
 11
42.799000
 21
65.503499
 31
0.0
  0
LINE
  5
155
100
AcDbEntity
  8
0
 62
7
100
AcDbLine
 10
42.799000
 20
65.503499
 30
0.0
 11
42.598300
 21
65.626500
 31
0.0
  0
LINE
  5
156
100
AcDbEntity
  8
0
 62
7
100
AcDbLine
 10
42.598300
 20
65.626500
 30
0.0
 11
42.419301
 21
65.779301
 31
0.0
  0
LINE
  5
157
100
AcDbEntity
  8
0
 62
7
100
AcDbLine
 10
42.419301
 20
65.779301
 30
0.0
 11
42.266500
 21
65.958300
 31
0.0
  0
LINE
  5
158
100
AcDbEntity
  8
0
 62
7
100
AcDbLine
 10
42.266500
 20
65.958300
 30
0.0
 11
42.143499
 21
66.159000
 31
0.0
  0
LINE
  5
159
100
AcDbEntity
  8
0
 62
7
100
AcDbLine
 10
42.143499
 20
66.159000
 30
0.0
 11
42.053400
 21
66.376500
 31
0.0
  0
LINE
  5
15a
100
AcDbEntity
  8
0
 62
7
100
AcDbLine
 10
42.053400
 20
66.376500
 30
0.0
 11
41.998499
 21
66.605300
 31
0.0
  0
LINE
  5
15b
100
AcDbEntity
  8
0
 62
7
100
AcDbLine
 10
41.998499
 20
66.605300
 30
0.0
 11
41.979985
 21
66.839999
 31
0.0
  0
LINE
  5
15c
100
AcDbEntity
  8
0
 62
7
100
AcDbLine
 10
41.979985
 20
66.839999
 30
0.0
 11
41.998499
 21
67.074698
 31
0.0
  0
LINE
  5
15d
100
AcDbEntity
  8
0
 62
7
100
AcDbLine
 10
41.998499
 20
67.074698
 30
0.0
 11
42.053394
 21
67.303498
 31
0.0
  0
LINE
  5
15e
100
AcDbEntity
  8
0
 62
7
100
AcDbLine
 10
42.053394
 20
67.303498
 30
0.0
 11
42.143494
 21
67.520999
 31
0.0
  0
LINE
  5
15f
100
AcDbEntity
  8
0
 62
7
100
AcDbLine
 10
42.143494
 20
67.520999
 30
0.0
 11
42.266495
 21
67.721701
 31
0.0
  0
LINE
  5
160
100
AcDbEntity
  8
0
 62
7
100
AcDbLine
 10
42.266495
 20
67.721701
 30
0.0
 11
42.419295
 21
67.900700
 31
0.0
  0
LINE
  5
161
100
AcDbEntity
  8
0
 62
7
100
AcDbLine
 10
42.419295
 20
67.900700
 30
0.0
 11
42.598295
 21
68.053498
 31
0.0
  0
LINE
  5
162
100
AcDbEntity
  8
0
 62
7
100
AcDbLine
 10
42.598295
 20
68.053498
 30
0.0
 11
42.798994
 21
68.176499
 31
0.0
  0
LINE
  5
163
100
AcDbEntity
  8
0
 62
7
100
AcDbLine
 10
42.798994
 20
68.176499
 30
0.0
 11
43.016495
 21
68.266599
 31
0.0
  0
LINE
  5
164
100
AcDbEntity
  8
0
 62
7
100
AcDbLine
 10
43.016495
 20
68.266599
 30
0.0
 11
43.245295
 21
68.321499
 31
0.0
  0
LINE
  5
165
100
AcDbEntity
  8
0
 62
7
100
AcDbLine
 10
43.245295
 20
68.321499
 30
0.0
 11
43.479994
 21
68.340013
 31
0.0
  0
LINE
  5
166
100
AcDbEntity
  8
0
 62
7
100
AcDbLine
 10
43.479994
 20
68.340013
 30
0.0
 11
43.714695
 21
68.321499
 31
0.0
  0
LINE
  5
167
100
AcDbEntity
  8
0
 62
7
100
AcDbLine
 10
43.714695
 20
68.321499
 30
0.0
 11
43.943496
 21
68.266604
 31
0.0
  0
LINE
  5
168
100
AcDbEntity
  8
0
 62
7
100
AcDbLine
 10
43.943496
 20
68.266604
 30
0.0
 11
44.160993
 21
68.176505
 31
0.0
  0
LINE
  5
169
100
AcDbEntity
  8
0
 62
7
100
AcDbLine
 10
44.160993
 20
68.176505
 30
0.0
 11
44.361695
 21
68.053504
 31
0.0
  0
LINE
  5
16a
100
AcDbEntity
  8
0
 62
7
100
AcDbLine
 10
44.361695
 20
68.053504
 30
0.0
 11
44.540695
 21
67.900706
 31
0.0
  0
LINE
  5
16b
100
AcDbEntity
  8
0
 62
7
100
AcDbLine
 10
44.540695
 20
67.900706
 30
0.0
 11
44.693493
 21
67.721706
 31
0.0
  0
LINE
  5
16c
100
AcDbEntity
  8
0
 62
7
100
AcDbLine
 10
44.693493
 20
67.721706
 30
0.0
 11
44.816494
 21
67.521004
 31
0.0
  0
LINE
  5
16d
100
AcDbEntity
  8
0
 62
7
100
AcDbLine
 10
44.816494
 20
67.521004
 30
0.0
 11
44.906593
 21
67.303504
 31
0.0
  0
LINE
  5
16e
100
AcDbEntity
  8
0
 62
7
100
AcDbLine
 10
44.906593
 20
67.303504
 30
0.0
 11
44.961494
 21
67.074704
 31
0.0
  0
LINE
  5
16f
100
AcDbEntity
  8
0
 62
7
100
AcDbLine
 10
44.961494
 20
67.074704
 30
0.0
 11
44.980008
 21
66.840005
 31
0.0
  0
LINE
  5
170
100
AcDbEntity
  8
0
 62
7
100
AcDbLine
 10
44.980008
 20
66.840005
 30
0.0
 11
44.961494
 21
66.605306
 31
0.0
  0
LINE
  5
171
100
AcDbEntity
  8
0
 62
7
100
AcDbLine
 10
44.961494
 20
66.605306
 30
0.0
 11
44.906602
 21
66.376506
 31
0.0
  0
LINE
  5
172
100
AcDbEntity
  8
0
 62
7
100
AcDbLine
 10
44.906602
 20
66.376506
 30
0.0
 11
44.816502
 21
66.159005
 31
0.0
  0
LINE
  5
173
100
AcDbEntity
  8
0
 62
7
100
AcDbLine
 10
44.816502
 20
66.159005
 30
0.0
 11
44.693501
 21
65.958306
 31
0.0
  0
LINE
  5
174
100
AcDbEntity
  8
0
 62
7
100
AcDbLine
 10
44.693501
 20
65.958306
 30
0.0
 11
44.540703
 21
65.779306
 31
0.0
  0
LINE
  5
175
100
AcDbEntity
  8
0
 62
7
100
AcDbLine
 10
44.540703
 20
65.779306
 30
0.0
 11
44.361704
 21
65.626506
 31
0.0
  0
LINE
  5
176
100
AcDbEntity
  8
0
 62
7
100
AcDbLine
 10
44.361704
 20
65.626506
 30
0.0
 11
44.161002
 21
65.503505
 31
0.0
  0
LINE
  5
177
100
AcDbEntity
  8
0
 62
7
100
AcDbLine
 10
44.161002
 20
65.503505
 30
0.0
 11
43.943504
 21
65.413405
 31
0.0
  0
LINE
  5
178
100
AcDbEntity
  8
0
 62
7
100
AcDbLine
 10
43.943504
 20
65.413405
 30
0.0
 11
43.714704
 21
65.358505
 31
0.0
  0
LINE
  5
179
100
AcDbEntity
  8
0
 62
7
100
AcDbLine
 10
43.714704
 20
65.358505
 30
0.0
 11
43.480002
 21
65.339991
 31
0.0
  0
LINE
  5
17a
100
AcDbEntity
  8
0
 62
7
100
AcDbLine
 10
43.480002
 20
65.339991
 30
0.0
 11
43.245303
 21
65.358505
 31
0.0
  0
LINE
  5
17b
100
AcDbEntity
  8
0
 62
7
100
AcDbLine
 10
43.245303
 20
65.358505
 30
0.0
 11
43.016500
 21
65.413400
 31
0.0
  0
LINE
  5
17c
100
AcDbEntity
  8
0
 62
7
100
AcDbLine
 10
51.256599
 20
114.636000
 30
0.0
 11
51.166499
 21
114.419000
 31
0.0
  0
LINE
  5
17d
100
AcDbEntity
  8
0
 62
7
100
AcDbLine
 10
51.166499
 20
114.419000
 30
0.0
 11
51.043499
 21
114.217998
 31
0.0
  0
LINE
  5
17e
100
AcDbEntity
  8
0
 62
7
100
AcDbLine
 10
51.043499
 20
114.217998
 30
0.0
 11
50.890701
 21
114.038999
 31
0.0
  0
LINE
  5
17f
100
AcDbEntity
  8
0
 62
7
100
AcDbLine
 10
50.890701
 20
114.038999
 30
0.0
 11
50.711701
 21
113.886000
 31
0.0
  0
LINE
  5
180
100
AcDbEntity
  8
0
 62
7
100
AcDbLine
 10
50.711701
 20
113.886000
 30
0.0
 11
50.510999
 21
113.763000
 31
0.0
  0
LINE
  5
181
100
AcDbEntity
  8
0
 62
7
100
AcDbLine
 10
50.510999
 20
113.763000
 30
0.0
 11
50.293501
 21
113.672999
 31
0.0
  0
LINE
  5
182
100
AcDbEntity
  8
0
 62
7
100
AcDbLine
 10
50.293501
 20
113.672999
 30
0.0
 11
50.064701
 21
113.617999
 31
0.0
  0
LINE
  5
183
100
AcDbEntity
  8
0
 62
7
100
AcDbLine
 10
50.064701
 20
113.617999
 30
0.0
 11
49.829999
 21
113.599994
 31
0.0
  0
LINE
  5
184
100
AcDbEntity
  8
0
 62
7
100
AcDbLine
 10
49.829999
 20
113.599994
 30
0.0
 11
49.595301
 21
113.617999
 31
0.0
  0
LINE
  5
185
100
AcDbEntity
  8
0
 62
7
100
AcDbLine
 10
49.595301
 20
113.617999
 30
0.0
 11
49.366500
 21
113.672996
 31
0.0
  0
LINE
  5
186
100
AcDbEntity
  8
0
 62
7
100
AcDbLine
 10
49.366500
 20
113.672996
 30
0.0
 11
49.149000
 21
113.762997
 31
0.0
  0
LINE
  5
187
100
AcDbEntity
  8
0
 62
7
100
AcDbLine
 10
49.149000
 20
113.762997
 30
0.0
 11
48.948300
 21
113.885998
 31
0.0
  0
LINE
  5
188
100
AcDbEntity
  8
0
 62
7
100
AcDbLine
 10
48.948300
 20
113.885998
 30
0.0
 11
48.769301
 21
114.038996
 31
0.0
  0
LINE
  5
189
100
AcDbEntity
  8
0
 62
7
100
AcDbLine
 10
48.769301
 20
114.038996
 30
0.0
 11
48.616500
 21
114.217995
 31
0.0
  0
LINE
  5
18a
100
AcDbEntity
  8
0
 62
7
100
AcDbLine
 10
48.616500
 20
114.217995
 30
0.0
 11
48.493499
 21
114.418997
 31
0.0
  0
LINE
  5
18b
100
AcDbEntity
  8
0
 62
7
100
AcDbLine
 10
48.493499
 20
114.418997
 30
0.0
 11
48.403400
 21
114.635998
 31
0.0
  0
LINE
  5
18c
100
AcDbEntity
  8
0
 62
7
100
AcDbLine
 10
48.403400
 20
114.635998
 30
0.0
 11
48.348499
 21
114.864995
 31
0.0
  0
LINE
  5
18d
100
AcDbEntity
  8
0
 62
7
100
AcDbLine
 10
48.348499
 20
114.864995
 30
0.0
 11
48.329985
 21
115.099996
 31
0.0
  0
LINE
  5
18e
100
AcDbEntity
  8
0
 62
7
100
AcDbLine
 10
48.329985
 20
115.099996
 30
0.0
 11
48.348499
 21
115.334997
 31
0.0
  0
LINE
  5
18f
100
AcDbEntity
  8
0
 62
7
100
AcDbLine
 10
48.348499
 20
115.334997
 30
0.0
 11
48.403394
 21
115.563998
 31
0.0
  0
LINE
  5
190
100
AcDbEntity
  8
0
 62
7
100
AcDbLine
 10
48.403394
 20
115.563998
 30
0.0
 11
48.493494
 21
115.780996
 31
0.0
  0
LINE
  5
191
100
AcDbEntity
  8
0
 62
7
100
AcDbLine
 10
48.493494
 20
115.780996
 30
0.0
 11
48.616495
 21
115.981997
 31
0.0
  0
LINE
  5
192
100
AcDbEntity
  8
0
 62
7
100
AcDbLine
 10
48.616495
 20
115.981997
 30
0.0
 11
48.769295
 21
116.160997
 31
0.0
  0
LINE
  5
193
100
AcDbEntity
  8
0
 62
7
100
AcDbLine
 10
48.769295
 20
116.160997
 30
0.0
 11
48.948295
 21
116.313998
 31
0.0
  0
LINE
  5
194
100
AcDbEntity
  8
0
 62
7
100
AcDbLine
 10
48.948295
 20
116.313998
 30
0.0
 11
49.148994
 21
116.436996
 31
0.0
  0
LINE
  5
195
100
AcDbEntity
  8
0
 62
7
100
AcDbLine
 10
49.148994
 20
116.436996
 30
0.0
 11
49.366495
 21
116.526997
 31
0.0
  0
LINE
  5
196
100
AcDbEntity
  8
0
 62
7
100
AcDbLine
 10
49.366495
 20
116.526997
 30
0.0
 11
49.595295
 21
116.581996
 31
0.0
  0
LINE
  5
197
100
AcDbEntity
  8
0
 62
7
100
AcDbLine
 10
49.595295
 20
116.581996
 30
0.0
 11
49.829994
 21
116.600002
 31
0.0
  0
LINE
  5
198
100
AcDbEntity
  8
0
 62
7
100
AcDbLine
 10
49.829994
 20
116.600002
 30
0.0
 11
50.064695
 21
116.581996
 31
0.0
  0
LINE
  5
199
100
AcDbEntity
  8
0
 62
7
100
AcDbLine
 10
50.064695
 20
116.581996
 30
0.0
 11
50.293496
 21
116.526999
 31
0.0
  0
LINE
  5
19a
100
AcDbEntity
  8
0
 62
7
100
AcDbLine
 10
50.293496
 20
116.526999
 30
0.0
 11
50.510993
 21
116.436999
 31
0.0
  0
LINE
  5
19b
100
AcDbEntity
  8
0
 62
7
100
AcDbLine
 10
50.510993
 20
116.436999
 30
0.0
 11
50.711695
 21
116.314001
 31
0.0
  0
LINE
  5
19c
100
AcDbEntity
  8
0
 62
7
100
AcDbLine
 10
50.711695
 20
116.314001
 30
0.0
 11
50.890695
 21
116.160999
 31
0.0
  0
LINE
  5
19d
100
AcDbEntity
  8
0
 62
7
100
AcDbLine
 10
50.890695
 20
116.160999
 30
0.0
 11
51.043493
 21
115.982000
 31
0.0
  0
LINE
  5
19e
100
AcDbEntity
  8
0
 62
7
100
AcDbLine
 10
51.043493
 20
115.982000
 30
0.0
 11
51.166494
 21
115.780999
 31
0.0
  0
LINE
  5
19f
100
AcDbEntity
  8
0
 62
7
100
AcDbLine
 10
51.166494
 20
115.780999
 30
0.0
 11
51.256593
 21
115.564001
 31
0.0
  0
LINE
  5
1a0
100
AcDbEntity
  8
0
 62
7
100
AcDbLine
 10
51.256593
 20
115.564001
 30
0.0
 11
51.311494
 21
115.335000
 31
0.0
  0
LINE
  5
1a1
100
AcDbEntity
  8
0
 62
7
100
AcDbLine
 10
51.311494
 20
115.335000
 30
0.0
 11
51.330008
 21
115.099999
 31
0.0
  0
LINE
  5
1a2
100
AcDbEntity
  8
0
 62
7
100
AcDbLine
 10
51.330008
 20
115.099999
 30
0.0
 11
51.311494
 21
114.864998
 31
0.0
  0
LINE
  5
1a3
100
AcDbEntity
  8
0
 62
7
100
AcDbLine
 10
51.311494
 20
114.864998
 30
0.0
 11
51.256599
 21
114.636000
 31
0.0
  0
LINE
  5
1a4
100
AcDbEntity
  8
0
 62
7
100
AcDbLine
 10
72.533400
 20
72.383498
 30
0.0
 11
72.623499
 21
72.600999
 31
0.0
  0
LINE
  5
1a5
100
AcDbEntity
  8
0
 62
7
100
AcDbLine
 10
72.623499
 20
72.600999
 30
0.0
 11
72.746500
 21
72.801701
 31
0.0
  0
LINE
  5
1a6
100
AcDbEntity
  8
0
 62
7
100
AcDbLine
 10
72.746500
 20
72.801701
 30
0.0
 11
72.899301
 21
72.980700
 31
0.0
  0
LINE
  5
1a7
100
AcDbEntity
  8
0
 62
7
100
AcDbLine
 10
72.899301
 20
72.980700
 30
0.0
 11
73.078300
 21
73.133498
 31
0.0
  0
LINE
  5
1a8
100
AcDbEntity
  8
0
 62
7
100
AcDbLine
 10
73.078300
 20
73.133498
 30
0.0
 11
73.279000
 21
73.256499
 31
0.0
  0
LINE
  5
1a9
100
AcDbEntity
  8
0
 62
7
100
AcDbLine
 10
73.279000
 20
73.256499
 30
0.0
 11
73.496500
 21
73.346599
 31
0.0
  0
LINE
  5
1aa
100
AcDbEntity
  8
0
 62
7
100
AcDbLine
 10
73.496500
 20
73.346599
 30
0.0
 11
73.725301
 21
73.401499
 31
0.0
  0
LINE
  5
1ab
100
AcDbEntity
  8
0
 62
7
100
AcDbLine
 10
73.725301
 20
73.401499
 30
0.0
 11
73.959999
 21
73.420013
 31
0.0
  0
LINE
  5
1ac
100
AcDbEntity
  8
0
 62
7
100
AcDbLine
 10
73.959999
 20
73.420013
 30
0.0
 11
74.194701
 21
73.401499
 31
0.0
  0
LINE
  5
1ad
100
AcDbEntity
  8
0
 62
7
100
AcDbLine
 10
74.194701
 20
73.401499
 30
0.0
 11
74.423499
 21
73.346604
 31
0.0
  0
LINE
  5
1ae
100
AcDbEntity
  8
0
 62
7
100
AcDbLine
 10
74.423499
 20
73.346604
 30
0.0
 11
74.640999
 21
73.256505
 31
0.0
  0
LINE
  5
1af
100
AcDbEntity
  8
0
 62
7
100
AcDbLine
 10
74.640999
 20
73.256505
 30
0.0
 11
74.841701
 21
73.133504
 31
0.0
  0
LINE
  5
1b0
100
AcDbEntity
  8
0
 62
7
100
AcDbLine
 10
74.841701
 20
73.133504
 30
0.0
 11
75.020701
 21
72.980706
 31
0.0
  0
LINE
  5
1b1
100
AcDbEntity
  8
0
 62
7
100
AcDbLine
 10
75.020701
 20
72.980706
 30
0.0
 11
75.173499
 21
72.801706
 31
0.0
  0
LINE
  5
1b2
100
AcDbEntity
  8
0
 62
7
100
AcDbLine
 10
75.173499
 20
72.801706
 30
0.0
 11
75.296499
 21
72.601004
 31
0.0
  0
LINE
  5
1b3
100
AcDbEntity
  8
0
 62
7
100
AcDbLine
 10
75.296499
 20
72.601004
 30
0.0
 11
75.386599
 21
72.383504
 31
0.0
  0
LINE
  5
1b4
100
AcDbEntity
  8
0
 62
7
100
AcDbLine
 10
75.386599
 20
72.383504
 30
0.0
 11
75.441500
 21
72.154704
 31
0.0
  0
LINE
  5
1b5
100
AcDbEntity
  8
0
 62
7
100
AcDbLine
 10
75.441500
 20
72.154704
 30
0.0
 11
75.459985
 21
71.920005
 31
0.0
  0
LINE
  5
1b6
100
AcDbEntity
  8
0
 62
7
100
AcDbLine
 10
75.459985
 20
71.920005
 30
0.0
 11
75.441500
 21
71.685306
 31
0.0
  0
LINE
  5
1b7
100
AcDbEntity
  8
0
 62
7
100
AcDbLine
 10
75.441500
 20
71.685306
 30
0.0
 11
75.386590
 21
71.456506
 31
0.0
  0
LINE
  5
1b8
100
AcDbEntity
  8
0
 62
7
100
AcDbLine
 10
75.386590
 20
71.456506
 30
0.0
 11
75.296491
 21
71.239005
 31
0.0
  0
LINE
  5
1b9
100
AcDbEntity
  8
0
 62
7
100
AcDbLine
 10
75.296491
 20
71.239005
 30
0.0
 11
75.173490
 21
71.038306
 31
0.0
  0
LINE
  5
1ba
100
AcDbEntity
  8
0
 62
7
100
AcDbLine
 10
75.173490
 20
71.038306
 30
0.0
 11
75.020692
 21
70.859306
 31
0.0
  0
LINE
  5
1bb
100
AcDbEntity
  8
0
 62
7
100
AcDbLine
 10
75.020692
 20
70.859306
 30
0.0
 11
74.841693
 21
70.706506
 31
0.0
  0
LINE
  5
1bc
100
AcDbEntity
  8
0
 62
7
100
AcDbLine
 10
74.841693
 20
70.706506
 30
0.0
 11
74.640990
 21
70.583505
 31
0.0
  0
LINE
  5
1bd
100
AcDbEntity
  8
0
 62
7
100
AcDbLine
 10
74.640990
 20
70.583505
 30
0.0
 11
74.423490
 21
70.493405
 31
0.0
  0
LINE
  5
1be
100
AcDbEntity
  8
0
 62
7
100
AcDbLine
 10
74.423490
 20
70.493405
 30
0.0
 11
74.194693
 21
70.438505
 31
0.0
  0
LINE
  5
1bf
100
AcDbEntity
  8
0
 62
7
100
AcDbLine
 10
74.194693
 20
70.438505
 30
0.0
 11
73.959991
 21
70.419991
 31
0.0
  0
LINE
  5
1c0
100
AcDbEntity
  8
0
 62
7
100
AcDbLine
 10
73.959991
 20
70.419991
 30
0.0
 11
73.725292
 21
70.438505
 31
0.0
  0
LINE
  5
1c1
100
AcDbEntity
  8
0
 62
7
100
AcDbLine
 10
73.725292
 20
70.438505
 30
0.0
 11
73.496492
 21
70.493400
 31
0.0
  0
LINE
  5
1c2
100
AcDbEntity
  8
0
 62
7
100
AcDbLine
 10
73.496492
 20
70.493400
 30
0.0
 11
73.278992
 21
70.583499
 31
0.0
  0
LINE
  5
1c3
100
AcDbEntity
  8
0
 62
7
100
AcDbLine
 10
73.278992
 20
70.583499
 30
0.0
 11
73.078292
 21
70.706500
 31
0.0
  0
LINE
  5
1c4
100
AcDbEntity
  8
0
 62
7
100
AcDbLine
 10
73.078292
 20
70.706500
 30
0.0
 11
72.899293
 21
70.859301
 31
0.0
  0
LINE
  5
1c5
100
AcDbEntity
  8
0
 62
7
100
AcDbLine
 10
72.899293
 20
70.859301
 30
0.0
 11
72.746492
 21
71.038300
 31
0.0
  0
LINE
  5
1c6
100
AcDbEntity
  8
0
 62
7
100
AcDbLine
 10
72.746492
 20
71.038300
 30
0.0
 11
72.623491
 21
71.239000
 31
0.0
  0
LINE
  5
1c7
100
AcDbEntity
  8
0
 62
7
100
AcDbLine
 10
72.623491
 20
71.239000
 30
0.0
 11
72.533391
 21
71.456500
 31
0.0
  0
LINE
  5
1c8
100
AcDbEntity
  8
0
 62
7
100
AcDbLine
 10
72.533391
 20
71.456500
 30
0.0
 11
72.478491
 21
71.685300
 31
0.0
  0
LINE
  5
1c9
100
AcDbEntity
  8
0
 62
7
100
AcDbLine
 10
72.478491
 20
71.685300
 30
0.0
 11
72.460005
 21
71.919999
 31
0.0
  0
LINE
  5
1ca
100
AcDbEntity
  8
0
 62
7
100
AcDbLine
 10
72.460005
 20
71.919999
 30
0.0
 11
72.478491
 21
72.154698
 31
0.0
  0
LINE
  5
1cb
100
AcDbEntity
  8
0
 62
7
100
AcDbLine
 10
72.478491
 20
72.154698
 30
0.0
 11
72.533400
 21
72.383498
 31
0.0
  0
LINE
  5
1cc
100
AcDbEntity
  8
0
 62
7
100
AcDbLine
 10
75.441508
 20
99.625300
 30
0.0
 11
75.386599
 21
99.396500
 31
0.0
  0
LINE
  5
1cd
100
AcDbEntity
  8
0
 62
7
100
AcDbLine
 10
75.386599
 20
99.396500
 30
0.0
 11
75.296499
 21
99.179000
 31
0.0
  0
LINE
  5
1ce
100
AcDbEntity
  8
0
 62
7
100
AcDbLine
 10
75.296499
 20
99.179000
 30
0.0
 11
75.173499
 21
98.978300
 31
0.0
  0
LINE
  5
1cf
100
AcDbEntity
  8
0
 62
7
100
AcDbLine
 10
75.173499
 20
98.978300
 30
0.0
 11
75.020701
 21
98.799301
 31
0.0
  0
LINE
  5
1d0
100
AcDbEntity
  8
0
 62
7
100
AcDbLine
 10
75.020701
 20
98.799301
 30
0.0
 11
74.841701
 21
98.646500
 31
0.0
  0
LINE
  5
1d1
100
AcDbEntity
  8
0
 62
7
100
AcDbLine
 10
74.841701
 20
98.646500
 30
0.0
 11
74.640999
 21
98.523499
 31
0.0
  0
LINE
  5
1d2
100
AcDbEntity
  8
0
 62
7
100
AcDbLine
 10
74.640999
 20
98.523499
 30
0.0
 11
74.423499
 21
98.433400
 31
0.0
  0
LINE
  5
1d3
100
AcDbEntity
  8
0
 62
7
100
AcDbLine
 10
74.423499
 20
98.433400
 30
0.0
 11
74.194701
 21
98.378499
 31
0.0
  0
LINE
  5
1d4
100
AcDbEntity
  8
0
 62
7
100
AcDbLine
 10
74.194701
 20
98.378499
 30
0.0
 11
73.959999
 21
98.359985
 31
0.0
  0
LINE
  5
1d5
100
AcDbEntity
  8
0
 62
7
100
AcDbLine
 10
73.959999
 20
98.359985
 30
0.0
 11
73.725301
 21
98.378499
 31
0.0
  0
LINE
  5
1d6
100
AcDbEntity
  8
0
 62
7
100
AcDbLine
 10
73.725301
 20
98.378499
 30
0.0
 11
73.496500
 21
98.433394
 31
0.0
  0
LINE
  5
1d7
100
AcDbEntity
  8
0
 62
7
100
AcDbLine
 10
73.496500
 20
98.433394
 30
0.0
 11
73.279000
 21
98.523493
 31
0.0
  0
LINE
  5
1d8
100
AcDbEntity
  8
0
 62
7
100
AcDbLine
 10
73.279000
 20
98.523493
 30
0.0
 11
73.078300
 21
98.646494
 31
0.0
  0
LINE
  5
1d9
100
AcDbEntity
  8
0
 62
7
100
AcDbLine
 10
73.078300
 20
98.646494
 30
0.0
 11
72.899301
 21
98.799295
 31
0.0
  0
LINE
  5
1da
100
AcDbEntity
  8
0
 62
7
100
AcDbLine
 10
72.899301
 20
98.799295
 30
0.0
 11
72.746500
 21
98.978295
 31
0.0
  0
LINE
  5
1db
100
AcDbEntity
  8
0
 62
7
100
AcDbLine
 10
72.746500
 20
98.978295
 30
0.0
 11
72.623499
 21
99.178994
 31
0.0
  0
LINE
  5
1dc
100
AcDbEntity
  8
0
 62
7
100
AcDbLine
 10
72.623499
 20
99.178994
 30
0.0
 11
72.533400
 21
99.396494
 31
0.0
  0
LINE
  5
1dd
100
AcDbEntity
  8
0
 62
7
100
AcDbLine
 10
72.533400
 20
99.396494
 30
0.0
 11
72.478499
 21
99.625295
 31
0.0
  0
LINE
  5
1de
100
AcDbEntity
  8
0
 62
7
100
AcDbLine
 10
72.478499
 20
99.625295
 30
0.0
 11
72.460014
 21
99.859993
 31
0.0
  0
LINE
  5
1df
100
AcDbEntity
  8
0
 62
7
100
AcDbLine
 10
72.460014
 20
99.859993
 30
0.0
 11
72.478499
 21
100.094994
 31
0.0
  0
LINE
  5
1e0
100
AcDbEntity
  8
0
 62
7
100
AcDbLine
 10
72.478499
 20
100.094994
 30
0.0
 11
72.533408
 21
100.323995
 31
0.0
  0
LINE
  5
1e1
100
AcDbEntity
  8
0
 62
7
100
AcDbLine
 10
72.533408
 20
100.323995
 30
0.0
 11
72.623508
 21
100.540993
 31
0.0
  0
LINE
  5
1e2
100
AcDbEntity
  8
0
 62
7
100
AcDbLine
 10
72.623508
 20
100.540993
 30
0.0
 11
72.746509
 21
100.741994
 31
0.0
  0
LINE
  5
1e3
100
AcDbEntity
  8
0
 62
7
100
AcDbLine
 10
72.746509
 20
100.741994
 30
0.0
 11
72.899310
 21
100.920994
 31
0.0
  0
LINE
  5
1e4
100
AcDbEntity
  8
0
 62
7
100
AcDbLine
 10
72.899310
 20
100.920994
 30
0.0
 11
73.078309
 21
101.073995
 31
0.0
  0
LINE
  5
1e5
100
AcDbEntity
  8
0
 62
7
100
AcDbLine
 10
73.078309
 20
101.073995
 30
0.0
 11
73.279008
 21
101.196993
 31
0.0
  0
LINE
  5
1e6
100
AcDbEntity
  8
0
 62
7
100
AcDbLine
 10
73.279008
 20
101.196993
 30
0.0
 11
73.496509
 21
101.286994
 31
0.0
  0
LINE
  5
1e7
100
AcDbEntity
  8
0
 62
7
100
AcDbLine
 10
73.496509
 20
101.286994
 30
0.0
 11
73.725309
 21
101.341993
 31
0.0
  0
LINE
  5
1e8
100
AcDbEntity
  8
0
 62
7
100
AcDbLine
 10
73.725309
 20
101.341993
 30
0.0
 11
73.960008
 21
101.359999
 31
0.0
  0
LINE
  5
1e9
100
AcDbEntity
  8
0
 62
7
100
AcDbLine
 10
73.960008
 20
101.359999
 30
0.0
 11
74.194710
 21
101.341993
 31
0.0
  0
LINE
  5
1ea
100
AcDbEntity
  8
0
 62
7
100
AcDbLine
 10
74.194710
 20
101.341993
 30
0.0
 11
74.423507
 21
101.286997
 31
0.0
  0
LINE
  5
1eb
100
AcDbEntity
  8
0
 62
7
100
AcDbLine
 10
74.423507
 20
101.286997
 30
0.0
 11
74.641007
 21
101.196996
 31
0.0
  0
LINE
  5
1ec
100
AcDbEntity
  8
0
 62
7
100
AcDbLine
 10
74.641007
 20
101.196996
 30
0.0
 11
74.841710
 21
101.073998
 31
0.0
  0
LINE
  5
1ed
100
AcDbEntity
  8
0
 62
7
100
AcDbLine
 10
74.841710
 20
101.073998
 30
0.0
 11
75.020709
 21
100.920997
 31
0.0
  0
LINE
  5
1ee
100
AcDbEntity
  8
0
 62
7
100
AcDbLine
 10
75.020709
 20
100.920997
 30
0.0
 11
75.173507
 21
100.741997
 31
0.0
  0
LINE
  5
1ef
100
AcDbEntity
  8
0
 62
7
100
AcDbLine
 10
75.173507
 20
100.741997
 30
0.0
 11
75.296508
 21
100.540996
 31
0.0
  0
LINE
  5
1f0
100
AcDbEntity
  8
0
 62
7
100
AcDbLine
 10
75.296508
 20
100.540996
 30
0.0
 11
75.386607
 21
100.323998
 31
0.0
  0
LINE
  5
1f1
100
AcDbEntity
  8
0
 62
7
100
AcDbLine
 10
75.386607
 20
100.323998
 30
0.0
 11
75.441508
 21
100.094997
 31
0.0
  0
LINE
  5
1f2
100
AcDbEntity
  8
0
 62
7
100
AcDbLine
 10
75.441508
 20
100.094997
 30
0.0
 11
75.459994
 21
99.859996
 31
0.0
  0
LINE
  5
1f3
100
AcDbEntity
  8
0
 62
7
100
AcDbLine
 10
75.459994
 20
99.859996
 30
0.0
 11
75.441508
 21
99.625300
 31
0.0
  0
LINE
  5
1f4
100
AcDbEntity
  8
0
 62
7
100
AcDbLine
 10
123.278003
 20
115.335000
 30
0.0
 11
123.332999
 21
115.564001
 31
0.0
  0
LINE
  5
1f5
100
AcDbEntity
  8
0
 62
7
100
AcDbLine
 10
123.332999
 20
115.564001
 30
0.0
 11
123.423000
 21
115.780999
 31
0.0
  0
LINE
  5
1f6
100
AcDbEntity
  8
0
 62
7
100
AcDbLine
 10
123.423000
 20
115.780999
 30
0.0
 11
123.546001
 21
115.982000
 31
0.0
  0
LINE
  5
1f7
100
AcDbEntity
  8
0
 62
7
100
AcDbLine
 10
123.546001
 20
115.982000
 30
0.0
 11
123.698999
 21
116.160999
 31
0.0
  0
LINE
  5
1f8
100
AcDbEntity
  8
0
 62
7
100
AcDbLine
 10
123.698999
 20
116.160999
 30
0.0
 11
123.877999
 21
116.314001
 31
0.0
  0
LINE
  5
1f9
100
AcDbEntity
  8
0
 62
7
100
AcDbLine
 10
123.877999
 20
116.314001
 30
0.0
 11
124.079000
 21
116.436999
 31
0.0
  0
LINE
  5
1fa
100
AcDbEntity
  8
0
 62
7
100
AcDbLine
 10
124.079000
 20
116.436999
 30
0.0
 11
124.296001
 21
116.526999
 31
0.0
  0
LINE
  5
1fb
100
AcDbEntity
  8
0
 62
7
100
AcDbLine
 10
124.296001
 20
116.526999
 30
0.0
 11
124.525001
 21
116.581999
 31
0.0
  0
LINE
  5
1fc
100
AcDbEntity
  8
0
 62
7
100
AcDbLine
 10
124.525001
 20
116.581999
 30
0.0
 11
124.759999
 21
116.600005
 31
0.0
  0
LINE
  5
1fd
100
AcDbEntity
  8
0
 62
7
100
AcDbLine
 10
124.759999
 20
116.600005
 30
0.0
 11
124.995000
 21
116.581999
 31
0.0
  0
LINE
  5
1fe
100
AcDbEntity
  8
0
 62
7
100
AcDbLine
 10
124.995000
 20
116.581999
 30
0.0
 11
125.224001
 21
116.527002
 31
0.0
  0
LINE
  5
1ff
100
AcDbEntity
  8
0
 62
7
100
AcDbLine
 10
125.224001
 20
116.527002
 30
0.0
 11
125.440999
 21
116.437001
 31
0.0
  0
LINE
  5
200
100
AcDbEntity
  8
0
 62
7
100
AcDbLine
 10
125.440999
 20
116.437001
 30
0.0
 11
125.642000
 21
116.314003
 31
0.0
  0
LINE
  5
201
100
AcDbEntity
  8
0
 62
7
100
AcDbLine
 10
125.642000
 20
116.314003
 30
0.0
 11
125.821000
 21
116.161002
 31
0.0
  0
LINE
  5
202
100
AcDbEntity
  8
0
 62
7
100
AcDbLine
 10
125.821000
 20
116.161002
 30
0.0
 11
125.974001
 21
115.982003
 31
0.0
  0
LINE
  5
203
100
AcDbEntity
  8
0
 62
7
100
AcDbLine
 10
125.974001
 20
115.982003
 30
0.0
 11
126.096999
 21
115.781001
 31
0.0
  0
LINE
  5
204
100
AcDbEntity
  8
0
 62
7
100
AcDbLine
 10
126.096999
 20
115.781001
 30
0.0
 11
126.187000
 21
115.564003
 31
0.0
  0
LINE
  5
205
100
AcDbEntity
  8
0
 62
7
100
AcDbLine
 10
126.187000
 20
115.564003
 30
0.0
 11
126.241999
 21
115.335003
 31
0.0
  0
LINE
  5
206
100
AcDbEntity
  8
0
 62
7
100
AcDbLine
 10
126.241999
 20
115.335003
 30
0.0
 11
126.260005
 21
115.100002
 31
0.0
  0
LINE
  5
207
100
AcDbEntity
  8
0
 62
7
100
AcDbLine
 10
126.260005
 20
115.100002
 30
0.0
 11
126.241999
 21
114.865001
 31
0.0
  0
LINE
  5
208
100
AcDbEntity
  8
0
 62
7
100
AcDbLine
 10
126.241999
 20
114.865001
 30
0.0
 11
126.187002
 21
114.636003
 31
0.0
  0
LINE
  5
209
100
AcDbEntity
  8
0
 62
7
100
AcDbLine
 10
126.187002
 20
114.636003
 30
0.0
 11
126.097002
 21
114.419003
 31
0.0
  0
LINE
  5
20a
100
AcDbEntity
  8
0
 62
7
100
AcDbLine
 10
126.097002
 20
114.419003
 30
0.0
 11
125.974004
 21
114.218001
 31
0.0
  0
LINE
  5
20b
100
AcDbEntity
  8
0
 62
7
100
AcDbLine
 10
125.974004
 20
114.218001
 30
0.0
 11
125.821003
 21
114.039002
 31
0.0
  0
LINE
  5
20c
100
AcDbEntity
  8
0
 62
7
100
AcDbLine
 10
125.821003
 20
114.039002
 30
0.0
 11
125.642003
 21
113.886003
 31
0.0
  0
LINE
  5
20d
100
AcDbEntity
  8
0
 62
7
100
AcDbLine
 10
125.642003
 20
113.886003
 30
0.0
 11
125.441002
 21
113.763002
 31
0.0
  0
LINE
  5
20e
100
AcDbEntity
  8
0
 62
7
100
AcDbLine
 10
125.441002
 20
113.763002
 30
0.0
 11
125.224004
 21
113.673002
 31
0.0
  0
LINE
  5
20f
100
AcDbEntity
  8
0
 62
7
100
AcDbLine
 10
125.224004
 20
113.673002
 30
0.0
 11
124.995003
 21
113.618002
 31
0.0
  0
LINE
  5
210
100
AcDbEntity
  8
0
 62
7
100
AcDbLine
 10
124.995003
 20
113.618002
 30
0.0
 11
124.760002
 21
113.599996
 31
0.0
  0
LINE
  5
211
100
AcDbEntity
  8
0
 62
7
100
AcDbLine
 10
124.760002
 20
113.599996
 30
0.0
 11
124.525004
 21
113.618002
 31
0.0
  0
LINE
  5
212
100
AcDbEntity
  8
0
 62
7
100
AcDbLine
 10
124.525004
 20
113.618002
 30
0.0
 11
124.296003
 21
113.672999
 31
0.0
  0
LINE
  5
213
100
AcDbEntity
  8
0
 62
7
100
AcDbLine
 10
124.296003
 20
113.672999
 30
0.0
 11
124.079003
 21
113.763000
 31
0.0
  0
LINE
  5
214
100
AcDbEntity
  8
0
 62
7
100
AcDbLine
 10
124.079003
 20
113.763000
 30
0.0
 11
123.878001
 21
113.886000
 31
0.0
  0
LINE
  5
215
100
AcDbEntity
  8
0
 62
7
100
AcDbLine
 10
123.878001
 20
113.886000
 30
0.0
 11
123.699002
 21
114.038999
 31
0.0
  0
LINE
  5
216
100
AcDbEntity
  8
0
 62
7
100
AcDbLine
 10
123.699002
 20
114.038999
 30
0.0
 11
123.546004
 21
114.217998
 31
0.0
  0
LINE
  5
217
100
AcDbEntity
  8
0
 62
7
100
AcDbLine
 10
123.546004
 20
114.217998
 30
0.0
 11
123.423003
 21
114.419000
 31
0.0
  0
LINE
  5
218
100
AcDbEntity
  8
0
 62
7
100
AcDbLine
 10
123.423003
 20
114.419000
 30
0.0
 11
123.333002
 21
114.636000
 31
0.0
  0
LINE
  5
219
100
AcDbEntity
  8
0
 62
7
100
AcDbLine
 10
123.333002
 20
114.636000
 30
0.0
 11
123.278003
 21
114.864998
 31
0.0
  0
LINE
  5
21a
100
AcDbEntity
  8
0
 62
7
100
AcDbLine
 10
123.278003
 20
114.864998
 30
0.0
 11
123.259997
 21
115.099999
 31
0.0
  0
LINE
  5
21b
100
AcDbEntity
  8
0
 62
7
100
AcDbLine
 10
123.259997
 20
115.099999
 30
0.0
 11
123.278003
 21
115.335000
 31
0.0
  0
LINE
  5
21c
100
AcDbEntity
  8
0
 62
7
100
AcDbLine
 10
125.566001
 20
65.413400
 30
0.0
 11
125.349000
 21
65.503499
 31
0.0
  0
LINE
  5
21d
100
AcDbEntity
  8
0
 62
7
100
AcDbLine
 10
125.349000
 20
65.503499
 30
0.0
 11
125.147999
 21
65.626500
 31
0.0
  0
LINE
  5
21e
100
AcDbEntity
  8
0
 62
7
100
AcDbLine
 10
125.147999
 20
65.626500
 30
0.0
 11
124.968999
 21
65.779301
 31
0.0
  0
LINE
  5
21f
100
AcDbEntity
  8
0
 62
7
100
AcDbLine
 10
124.968999
 20
65.779301
 30
0.0
 11
124.816001
 21
65.958300
 31
0.0
  0
LINE
  5
220
100
AcDbEntity
  8
0
 62
7
100
AcDbLine
 10
124.816001
 20
65.958300
 30
0.0
 11
124.693000
 21
66.159000
 31
0.0
  0
LINE
  5
221
100
AcDbEntity
  8
0
 62
7
100
AcDbLine
 10
124.693000
 20
66.159000
 30
0.0
 11
124.602999
 21
66.376500
 31
0.0
  0
LINE
  5
222
100
AcDbEntity
  8
0
 62
7
100
AcDbLine
 10
124.602999
 20
66.376500
 30
0.0
 11
124.548000
 21
66.605300
 31
0.0
  0
LINE
  5
223
100
AcDbEntity
  8
0
 62
7
100
AcDbLine
 10
124.548000
 20
66.605300
 30
0.0
 11
124.529994
 21
66.839999
 31
0.0
  0
LINE
  5
224
100
AcDbEntity
  8
0
 62
7
100
AcDbLine
 10
124.529994
 20
66.839999
 30
0.0
 11
124.548000
 21
67.074698
 31
0.0
  0
LINE
  5
225
100
AcDbEntity
  8
0
 62
7
100
AcDbLine
 10
124.548000
 20
67.074698
 30
0.0
 11
124.602996
 21
67.303498
 31
0.0
  0
LINE
  5
226
100
AcDbEntity
  8
0
 62
7
100
AcDbLine
 10
124.602996
 20
67.303498
 30
0.0
 11
124.692997
 21
67.520999
 31
0.0
  0
LINE
  5
227
100
AcDbEntity
  8
0
 62
7
100
AcDbLine
 10
124.692997
 20
67.520999
 30
0.0
 11
124.815998
 21
67.721701
 31
0.0
  0
LINE
  5
228
100
AcDbEntity
  8
0
 62
7
100
AcDbLine
 10
124.815998
 20
67.721701
 30
0.0
 11
124.968996
 21
67.900700
 31
0.0
  0
LINE
  5
229
100
AcDbEntity
  8
0
 62
7
100
AcDbLine
 10
124.968996
 20
67.900700
 30
0.0
 11
125.147996
 21
68.053498
 31
0.0
  0
LINE
  5
22a
100
AcDbEntity
  8
0
 62
7
100
AcDbLine
 10
125.147996
 20
68.053498
 30
0.0
 11
125.348997
 21
68.176499
 31
0.0
  0
LINE
  5
22b
100
AcDbEntity
  8
0
 62
7
100
AcDbLine
 10
125.348997
 20
68.176499
 30
0.0
 11
125.565998
 21
68.266599
 31
0.0
  0
LINE
  5
22c
100
AcDbEntity
  8
0
 62
7
100
AcDbLine
 10
125.565998
 20
68.266599
 30
0.0
 11
125.794999
 21
68.321499
 31
0.0
  0
LINE
  5
22d
100
AcDbEntity
  8
0
 62
7
100
AcDbLine
 10
125.794999
 20
68.321499
 30
0.0
 11
126.029997
 21
68.340013
 31
0.0
  0
LINE
  5
22e
100
AcDbEntity
  8
0
 62
7
100
AcDbLine
 10
126.029997
 20
68.340013
 30
0.0
 11
126.264997
 21
68.321499
 31
0.0
  0
LINE
  5
22f
100
AcDbEntity
  8
0
 62
7
100
AcDbLine
 10
126.264997
 20
68.321499
 30
0.0
 11
126.493998
 21
68.266604
 31
0.0
  0
LINE
  5
230
100
AcDbEntity
  8
0
 62
7
100
AcDbLine
 10
126.493998
 20
68.266604
 30
0.0
 11
126.710996
 21
68.176505
 31
0.0
  0
LINE
  5
231
100
AcDbEntity
  8
0
 62
7
100
AcDbLine
 10
126.710996
 20
68.176505
 30
0.0
 11
126.911997
 21
68.053504
 31
0.0
  0
LINE
  5
232
100
AcDbEntity
  8
0
 62
7
100
AcDbLine
 10
126.911997
 20
68.053504
 30
0.0
 11
127.090997
 21
67.900706
 31
0.0
  0
LINE
  5
233
100
AcDbEntity
  8
0
 62
7
100
AcDbLine
 10
127.090997
 20
67.900706
 30
0.0
 11
127.243998
 21
67.721706
 31
0.0
  0
LINE
  5
234
100
AcDbEntity
  8
0
 62
7
100
AcDbLine
 10
127.243998
 20
67.721706
 30
0.0
 11
127.366996
 21
67.521004
 31
0.0
  0
LINE
  5
235
100
AcDbEntity
  8
0
 62
7
100
AcDbLine
 10
127.366996
 20
67.521004
 30
0.0
 11
127.456997
 21
67.303504
 31
0.0
  0
LINE
  5
236
100
AcDbEntity
  8
0
 62
7
100
AcDbLine
 10
127.456997
 20
67.303504
 30
0.0
 11
127.511996
 21
67.074704
 31
0.0
  0
LINE
  5
237
100
AcDbEntity
  8
0
 62
7
100
AcDbLine
 10
127.511996
 20
67.074704
 30
0.0
 11
127.530002
 21
66.840005
 31
0.0
  0
LINE
  5
238
100
AcDbEntity
  8
0
 62
7
100
AcDbLine
 10
127.530002
 20
66.840005
 30
0.0
 11
127.511996
 21
66.605306
 31
0.0
  0
LINE
  5
239
100
AcDbEntity
  8
0
 62
7
100
AcDbLine
 10
127.511996
 20
66.605306
 30
0.0
 11
127.457000
 21
66.376506
 31
0.0
  0
LINE
  5
23a
100
AcDbEntity
  8
0
 62
7
100
AcDbLine
 10
127.457000
 20
66.376506
 30
0.0
 11
127.366999
 21
66.159005
 31
0.0
  0
LINE
  5
23b
100
AcDbEntity
  8
0
 62
7
100
AcDbLine
 10
127.366999
 20
66.159005
 30
0.0
 11
127.244001
 21
65.958306
 31
0.0
  0
LINE
  5
23c
100
AcDbEntity
  8
0
 62
7
100
AcDbLine
 10
127.244001
 20
65.958306
 30
0.0
 11
127.091000
 21
65.779306
 31
0.0
  0
LINE
  5
23d
100
AcDbEntity
  8
0
 62
7
100
AcDbLine
 10
127.091000
 20
65.779306
 30
0.0
 11
126.912000
 21
65.626506
 31
0.0
  0
LINE
  5
23e
100
AcDbEntity
  8
0
 62
7
100
AcDbLine
 10
126.912000
 20
65.626506
 30
0.0
 11
126.710999
 21
65.503505
 31
0.0
  0
LINE
  5
23f
100
AcDbEntity
  8
0
 62
7
100
AcDbLine
 10
126.710999
 20
65.503505
 30
0.0
 11
126.494001
 21
65.413405
 31
0.0
  0
LINE
  5
240
100
AcDbEntity
  8
0
 62
7
100
AcDbLine
 10
126.494001
 20
65.413405
 30
0.0
 11
126.265000
 21
65.358505
 31
0.0
  0
LINE
  5
241
100
AcDbEntity
  8
0
 62
7
100
AcDbLine
 10
126.265000
 20
65.358505
 30
0.0
 11
126.029999
 21
65.339991
 31
0.0
  0
LINE
  5
242
100
AcDbEntity
  8
0
 62
7
100
AcDbLine
 10
126.029999
 20
65.339991
 30
0.0
 11
125.795001
 21
65.358505
 31
0.0
  0
LINE
  5
243
100
AcDbEntity
  8
0
 62
7
100
AcDbLine
 10
125.795001
 20
65.358505
 30
0.0
 11
125.566001
 21
65.413400
 31
0.0
  0
LINE
  5
244
100
AcDbEntity
  8
0
 62
7
100
AcDbLine
 10
199.000000
 20
75.000006
 30
0.0
 11
199.000000
 21
87.000005
 31
0.0
  0
LINE
  5
245
100
AcDbEntity
  8
0
 62
7
100
AcDbLine
 10
199.000000
 20
87.000005
 30
0.0
 11
419.000009
 21
87.000005
 31
0.0
  0
LINE
  5
246
100
AcDbEntity
  8
0
 62
7
100
AcDbLine
 10
419.000009
 20
87.000005
 30
0.0
 11
419.000009
 21
75.000006
 31
0.0
  0
LINE
  5
247
100
AcDbEntity
  8
0
 62
7
100
AcDbLine
 10
419.000009
 20
75.000006
 30
0.0
 11
199.000000
 21
75.000006
 31
0.0
  0
LINE
  5
248
100
AcDbEntity
  8
0
 62
7
100
AcDbLine
 10
219.601000
 20
212.518998
 30
0.0
 11
220.000000
 21
212.550000
 31
0.0
  0
LINE
  5
249
100
AcDbEntity
  8
0
 62
7
100
AcDbLine
 10
220.000000
 20
212.550000
 30
0.0
 11
220.399000
 21
212.518998
 31
0.0
  0
LINE
  5
24a
100
AcDbEntity
  8
0
 62
7
100
AcDbLine
 10
220.399000
 20
212.518998
 30
0.0
 11
220.788001
 21
212.424998
 31
0.0
  0
LINE
  5
24b
100
AcDbEntity
  8
0
 62
7
100
AcDbLine
 10
220.788001
 20
212.424998
 30
0.0
 11
221.158000
 21
212.272000
 31
0.0
  0
LINE
  5
24c
100
AcDbEntity
  8
0
 62
7
100
AcDbLine
 10
221.158000
 20
212.272000
 30
0.0
 11
221.499001
 21
212.063001
 31
0.0
  0
LINE
  5
24d
100
AcDbEntity
  8
0
 62
7
100
AcDbLine
 10
221.499001
 20
212.063001
 30
0.0
 11
221.803000
 21
211.803000
 31
0.0
  0
LINE
  5
24e
100
AcDbEntity
  8
0
 62
7
100
AcDbLine
 10
221.803000
 20
211.803000
 30
0.0
 11
222.063000
 21
211.498999
 31
0.0
  0
LINE
  5
24f
100
AcDbEntity
  8
0
 62
7
100
AcDbLine
 10
222.063000
 20
211.498999
 30
0.0
 11
222.271999
 21
211.157999
 31
0.0
  0
LINE
  5
250
100
AcDbEntity
  8
0
 62
7
100
AcDbLine
 10
222.271999
 20
211.157999
 30
0.0
 11
222.425000
 21
210.788000
 31
0.0
  0
LINE
  5
251
100
AcDbEntity
  8
0
 62
7
100
AcDbLine
 10
222.425000
 20
210.788000
 30
0.0
 11
222.519000
 21
210.398999
 31
0.0
  0
LINE
  5
252
100
AcDbEntity
  8
0
 62
7
100
AcDbLine
 10
222.519000
 20
210.398999
 30
0.0
 11
222.549999
 21
209.999998
 31
0.0
  0
LINE
  5
253
100
AcDbEntity
  8
0
 62
7
100
AcDbLine
 10
222.549999
 20
209.999998
 30
0.0
 11
222.519000
 21
209.600998
 31
0.0
  0
LINE
  5
254
100
AcDbEntity
  8
0
 62
7
100
AcDbLine
 10
222.519000
 20
209.600998
 30
0.0
 11
222.425000
 21
209.212000
 31
0.0
  0
LINE
  5
255
100
AcDbEntity
  8
0
 62
7
100
AcDbLine
 10
222.425000
 20
209.212000
 30
0.0
 11
222.271999
 21
208.841998
 31
0.0
  0
LINE
  5
256
100
AcDbEntity
  8
0
 62
7
100
AcDbLine
 10
222.271999
 20
208.841998
 30
0.0
 11
222.063000
 21
208.501000
 31
0.0
  0
LINE
  5
257
100
AcDbEntity
  8
0
 62
7
100
AcDbLine
 10
222.063000
 20
208.501000
 30
0.0
 11
221.803000
 21
208.196999
 31
0.0
  0
LINE
  5
258
100
AcDbEntity
  8
0
 62
7
100
AcDbLine
 10
221.803000
 20
208.196999
 30
0.0
 11
221.499001
 21
207.936999
 31
0.0
  0
LINE
  5
259
100
AcDbEntity
  8
0
 62
7
100
AcDbLine
 10
221.499001
 20
207.936999
 30
0.0
 11
221.158000
 21
207.727999
 31
0.0
  0
LINE
  5
25a
100
AcDbEntity
  8
0
 62
7
100
AcDbLine
 10
221.158000
 20
207.727999
 30
0.0
 11
220.788001
 21
207.574998
 31
0.0
  0
LINE
  5
25b
100
AcDbEntity
  8
0
 62
7
100
AcDbLine
 10
220.788001
 20
207.574998
 30
0.0
 11
220.399000
 21
207.480999
 31
0.0
  0
LINE
  5
25c
100
AcDbEntity
  8
0
 62
7
100
AcDbLine
 10
220.399000
 20
207.480999
 30
0.0
 11
220.000000
 21
207.449999
 31
0.0
  0
LINE
  5
25d
100
AcDbEntity
  8
0
 62
7
100
AcDbLine
 10
220.000000
 20
207.449999
 30
0.0
 11
219.601000
 21
207.480999
 31
0.0
  0
LINE
  5
25e
100
AcDbEntity
  8
0
 62
7
100
AcDbLine
 10
219.601000
 20
207.480999
 30
0.0
 11
219.211999
 21
207.574998
 31
0.0
  0
LINE
  5
25f
100
AcDbEntity
  8
0
 62
7
100
AcDbLine
 10
219.211999
 20
207.574998
 30
0.0
 11
218.842000
 21
207.727999
 31
0.0
  0
LINE
  5
260
100
AcDbEntity
  8
0
 62
7
100
AcDbLine
 10
218.842000
 20
207.727999
 30
0.0
 11
218.501000
 21
207.936999
 31
0.0
  0
LINE
  5
261
100
AcDbEntity
  8
0
 62
7
100
AcDbLine
 10
218.501000
 20
207.936999
 30
0.0
 11
218.197001
 21
208.196999
 31
0.0
  0
LINE
  5
262
100
AcDbEntity
  8
0
 62
7
100
AcDbLine
 10
218.197001
 20
208.196999
 30
0.0
 11
217.937001
 21
208.501000
 31
0.0
  0
LINE
  5
263
100
AcDbEntity
  8
0
 62
7
100
AcDbLine
 10
217.937001
 20
208.501000
 30
0.0
 11
217.728001
 21
208.841998
 31
0.0
  0
LINE
  5
264
100
AcDbEntity
  8
0
 62
7
100
AcDbLine
 10
217.728001
 20
208.841998
 30
0.0
 11
217.575000
 21
209.212000
 31
0.0
  0
LINE
  5
265
100
AcDbEntity
  8
0
 62
7
100
AcDbLine
 10
217.575000
 20
209.212000
 30
0.0
 11
217.481000
 21
209.600998
 31
0.0
  0
LINE
  5
266
100
AcDbEntity
  8
0
 62
7
100
AcDbLine
 10
217.481000
 20
209.600998
 30
0.0
 11
217.450001
 21
209.999998
 31
0.0
  0
LINE
  5
267
100
AcDbEntity
  8
0
 62
7
100
AcDbLine
 10
217.450001
 20
209.999998
 30
0.0
 11
217.481000
 21
210.398999
 31
0.0
  0
LINE
  5
268
100
AcDbEntity
  8
0
 62
7
100
AcDbLine
 10
217.481000
 20
210.398999
 30
0.0
 11
217.575000
 21
210.788000
 31
0.0
  0
LINE
  5
269
100
AcDbEntity
  8
0
 62
7
100
AcDbLine
 10
217.575000
 20
210.788000
 30
0.0
 11
217.728001
 21
211.157999
 31
0.0
  0
LINE
  5
26a
100
AcDbEntity
  8
0
 62
7
100
AcDbLine
 10
217.728001
 20
211.157999
 30
0.0
 11
217.937001
 21
211.498999
 31
0.0
  0
LINE
  5
26b
100
AcDbEntity
  8
0
 62
7
100
AcDbLine
 10
217.937001
 20
211.498999
 30
0.0
 11
218.197001
 21
211.803000
 31
0.0
  0
LINE
  5
26c
100
AcDbEntity
  8
0
 62
7
100
AcDbLine
 10
218.197001
 20
211.803000
 30
0.0
 11
218.501000
 21
212.063001
 31
0.0
  0
LINE
  5
26d
100
AcDbEntity
  8
0
 62
7
100
AcDbLine
 10
218.501000
 20
212.063001
 30
0.0
 11
218.842000
 21
212.272000
 31
0.0
  0
LINE
  5
26e
100
AcDbEntity
  8
0
 62
7
100
AcDbLine
 10
218.842000
 20
212.272000
 30
0.0
 11
219.211999
 21
212.424998
 31
0.0
  0
LINE
  5
26f
100
AcDbEntity
  8
0
 62
7
100
AcDbLine
 10
219.211999
 20
212.424998
 30
0.0
 11
219.601000
 21
212.518998
 31
0.0
  0
LINE
  5
270
100
AcDbEntity
  8
0
 62
7
100
AcDbLine
 10
431.158001
 20
22.272098
 30
0.0
 11
431.499010
 21
22.063000
 31
0.0
  0
LINE
  5
271
100
AcDbEntity
  8
0
 62
7
100
AcDbLine
 10
431.499010
 20
22.063000
 30
0.0
 11
431.802992
 21
21.803098
 31
0.0
  0
LINE
  5
272
100
AcDbEntity
  8
0
 62
7
100
AcDbLine
 10
431.802992
 20
21.803098
 30
0.0
 11
432.063003
 21
21.498899
 31
0.0
  0
LINE
  5
273
100
AcDbEntity
  8
0
 62
7
100
AcDbLine
 10
432.063003
 20
21.498899
 30
0.0
 11
432.271988
 21
21.157698
 31
0.0
  0
LINE
  5
274
100
AcDbEntity
  8
0
 62
7
100
AcDbLine
 10
432.271988
 20
21.157698
 30
0.0
 11
432.425009
 21
20.787999
 31
0.0
  0
LINE
  5
275
100
AcDbEntity
  8
0
 62
7
100
AcDbLine
 10
432.425009
 20
20.787999
 30
0.0
 11
432.518989
 21
20.398899
 31
0.0
  0
LINE
  5
276
100
AcDbEntity
  8
0
 62
7
100
AcDbLine
 10
432.518989
 20
20.398899
 30
0.0
 11
432.550006
 21
20.000000
 31
0.0
  0
LINE
  5
277
100
AcDbEntity
  8
0
 62
7
100
AcDbLine
 10
432.550006
 20
20.000000
 30
0.0
 11
432.518989
 21
19.601099
 31
0.0
  0
LINE
  5
278
100
AcDbEntity
  8
0
 62
7
100
AcDbLine
 10
432.518989
 20
19.601099
 30
0.0
 11
432.425009
 21
19.211999
 31
0.0
  0
LINE
  5
279
100
AcDbEntity
  8
0
 62
7
100
AcDbLine
 10
432.425009
 20
19.211999
 30
0.0
 11
432.271988
 21
18.842299
 31
0.0
  0
LINE
  5
27a
100
AcDbEntity
  8
0
 62
7
100
AcDbLine
 10
432.271988
 20
18.842299
 30
0.0
 11
432.063003
 21
18.501098
 31
0.0
  0
LINE
  5
27b
100
AcDbEntity
  8
0
 62
7
100
AcDbLine
 10
432.063003
 20
18.501098
 30
0.0
 11
431.802992
 21
18.196899
 31
0.0
  0
LINE
  5
27c
100
AcDbEntity
  8
0
 62
7
100
AcDbLine
 10
431.802992
 20
18.196899
 30
0.0
 11
431.499010
 21
17.936998
 31
0.0
  0
LINE
  5
27d
100
AcDbEntity
  8
0
 62
7
100
AcDbLine
 10
431.499010
 20
17.936998
 30
0.0
 11
431.158001
 21
17.727900
 31
0.0
  0
LINE
  5
27e
100
AcDbEntity
  8
0
 62
7
100
AcDbLine
 10
431.158001
 20
17.727900
 30
0.0
 11
430.788008
 21
17.574800
 31
0.0
  0
LINE
  5
27f
100
AcDbEntity
  8
0
 62
7
100
AcDbLine
 10
430.788008
 20
17.574800
 30
0.0
 11
430.398992
 21
17.481398
 31
0.0
  0
LINE
  5
280
100
AcDbEntity
  8
0
 62
7
100
AcDbLine
 10
430.398992
 20
17.481398
 30
0.0
 11
429.999987
 21
17.449998
 31
0.0
  0
LINE
  5
281
100
AcDbEntity
  8
0
 62
7
100
AcDbLine
 10
429.999987
 20
17.449998
 30
0.0
 11
429.601009
 21
17.481398
 31
0.0
  0
LINE
  5
282
100
AcDbEntity
  8
0
 62
7
100
AcDbLine
 10
429.601009
 20
17.481398
 30
0.0
 11
429.211994
 21
17.574800
 31
0.0
  0
LINE
  5
283
100
AcDbEntity
  8
0
 62
7
100
AcDbLine
 10
429.211994
 20
17.574800
 30
0.0
 11
428.842001
 21
17.727900
 31
0.0
  0
LINE
  5
284
100
AcDbEntity
  8
0
 62
7
100
AcDbLine
 10
428.842001
 20
17.727900
 30
0.0
 11
428.500992
 21
17.936998
 31
0.0
  0
LINE
  5
285
100
AcDbEntity
  8
0
 62
7
100
AcDbLine
 10
428.500992
 20
17.936998
 30
0.0
 11
428.197010
 21
18.196899
 31
0.0
  0
LINE
  5
286
100
AcDbEntity
  8
0
 62
7
100
AcDbLine
 10
428.197010
 20
18.196899
 30
0.0
 11
427.936999
 21
18.501098
 31
0.0
  0
LINE
  5
287
100
AcDbEntity
  8
0
 62
7
100
AcDbLine
 10
427.936999
 20
18.501098
 30
0.0
 11
427.728013
 21
18.842299
 31
0.0
  0
LINE
  5
288
100
AcDbEntity
  8
0
 62
7
100
AcDbLine
 10
427.728013
 20
18.842299
 30
0.0
 11
427.574992
 21
19.211999
 31
0.0
  0
LINE
  5
289
100
AcDbEntity
  8
0
 62
7
100
AcDbLine
 10
427.574992
 20
19.211999
 30
0.0
 11
427.481012
 21
19.601099
 31
0.0
  0
LINE
  5
28a
100
AcDbEntity
  8
0
 62
7
100
AcDbLine
 10
427.481012
 20
19.601099
 30
0.0
 11
427.449996
 21
20.000000
 31
0.0
  0
LINE
  5
28b
100
AcDbEntity
  8
0
 62
7
100
AcDbLine
 10
427.449996
 20
20.000000
 30
0.0
 11
427.481012
 21
20.398899
 31
0.0
  0
LINE
  5
28c
100
AcDbEntity
  8
0
 62
7
100
AcDbLine
 10
427.481012
 20
20.398899
 30
0.0
 11
427.574992
 21
20.787999
 31
0.0
  0
LINE
  5
28d
100
AcDbEntity
  8
0
 62
7
100
AcDbLine
 10
427.574992
 20
20.787999
 30
0.0
 11
427.728013
 21
21.157698
 31
0.0
  0
LINE
  5
28e
100
AcDbEntity
  8
0
 62
7
100
AcDbLine
 10
427.728013
 20
21.157698
 30
0.0
 11
427.936999
 21
21.498899
 31
0.0
  0
LINE
  5
28f
100
AcDbEntity
  8
0
 62
7
100
AcDbLine
 10
427.936999
 20
21.498899
 30
0.0
 11
428.197010
 21
21.803098
 31
0.0
  0
LINE
  5
290
100
AcDbEntity
  8
0
 62
7
100
AcDbLine
 10
428.197010
 20
21.803098
 30
0.0
 11
428.500992
 21
22.063000
 31
0.0
  0
LINE
  5
291
100
AcDbEntity
  8
0
 62
7
100
AcDbLine
 10
428.500992
 20
22.063000
 30
0.0
 11
428.842001
 21
22.272098
 31
0.0
  0
LINE
  5
292
100
AcDbEntity
  8
0
 62
7
100
AcDbLine
 10
428.842001
 20
22.272098
 30
0.0
 11
429.211994
 21
22.425201
 31
0.0
  0
LINE
  5
293
100
AcDbEntity
  8
0
 62
7
100
AcDbLine
 10
429.211994
 20
22.425201
 30
0.0
 11
429.601009
 21
22.518599
 31
0.0
  0
LINE
  5
294
100
AcDbEntity
  8
0
 62
7
100
AcDbLine
 10
429.601009
 20
22.518599
 30
0.0
 11
429.999987
 21
22.549999
 31
0.0
  0
LINE
  5
295
100
AcDbEntity
  8
0
 62
7
100
AcDbLine
 10
429.999987
 20
22.549999
 30
0.0
 11
430.398992
 21
22.518599
 31
0.0
  0
LINE
  5
296
100
AcDbEntity
  8
0
 62
7
100
AcDbLine
 10
430.398992
 20
22.518599
 30
0.0
 11
430.788008
 21
22.425201
 31
0.0
  0
LINE
  5
297
100
AcDbEntity
  8
0
 62
7
100
AcDbLine
 10
430.788008
 20
22.425201
 30
0.0
 11
431.158001
 21
22.272098
 31
0.0
  0
LINE
  5
298
100
AcDbEntity
  8
0
 62
7
100
AcDbLine
 10
429.999987
 20
177.450000
 30
0.0
 11
429.601009
 21
177.480999
 31
0.0
  0
LINE
  5
299
100
AcDbEntity
  8
0
 62
7
100
AcDbLine
 10
429.601009
 20
177.480999
 30
0.0
 11
429.211994
 21
177.574999
 31
0.0
  0
LINE
  5
29a
100
AcDbEntity
  8
0
 62
7
100
AcDbLine
 10
429.211994
 20
177.574999
 30
0.0
 11
428.842001
 21
177.728000
 31
0.0
  0
LINE
  5
29b
100
AcDbEntity
  8
0
 62
7
100
AcDbLine
 10
428.842001
 20
177.728000
 30
0.0
 11
428.500992
 21
177.937000
 31
0.0
  0
LINE
  5
29c
100
AcDbEntity
  8
0
 62
7
100
AcDbLine
 10
428.500992
 20
177.937000
 30
0.0
 11
428.197010
 21
178.197000
 31
0.0
  0
LINE
  5
29d
100
AcDbEntity
  8
0
 62
7
100
AcDbLine
 10
428.197010
 20
178.197000
 30
0.0
 11
427.936999
 21
178.500998
 31
0.0
  0
LINE
  5
29e
100
AcDbEntity
  8
0
 62
7
100
AcDbLine
 10
427.936999
 20
178.500998
 30
0.0
 11
427.728013
 21
178.841999
 31
0.0
  0
LINE
  5
29f
100
AcDbEntity
  8
0
 62
7
100
AcDbLine
 10
427.728013
 20
178.841999
 30
0.0
 11
427.574992
 21
179.212001
 31
0.0
  0
LINE
  5
2a0
100
AcDbEntity
  8
0
 62
7
100
AcDbLine
 10
427.574992
 20
179.212001
 30
0.0
 11
427.481012
 21
179.600999
 31
0.0
  0
LINE
  5
2a1
100
AcDbEntity
  8
0
 62
7
100
AcDbLine
 10
427.481012
 20
179.600999
 30
0.0
 11
427.449996
 21
179.999999
 31
0.0
  0
LINE
  5
2a2
100
AcDbEntity
  8
0
 62
7
100
AcDbLine
 10
427.449996
 20
179.999999
 30
0.0
 11
427.481012
 21
180.398999
 31
0.0
  0
LINE
  5
2a3
100
AcDbEntity
  8
0
 62
7
100
AcDbLine
 10
427.481012
 20
180.398999
 30
0.0
 11
427.574992
 21
180.788000
 31
0.0
  0
LINE
  5
2a4
100
AcDbEntity
  8
0
 62
7
100
AcDbLine
 10
427.574992
 20
180.788000
 30
0.0
 11
427.728013
 21
181.157999
 31
0.0
  0
LINE
  5
2a5
100
AcDbEntity
  8
0
 62
7
100
AcDbLine
 10
427.728013
 20
181.157999
 30
0.0
 11
427.936999
 21
181.499000
 31
0.0
  0
LINE
  5
2a6
100
AcDbEntity
  8
0
 62
7
100
AcDbLine
 10
427.936999
 20
181.499000
 30
0.0
 11
428.197010
 21
181.802998
 31
0.0
  0
LINE
  5
2a7
100
AcDbEntity
  8
0
 62
7
100
AcDbLine
 10
428.197010
 20
181.802998
 30
0.0
 11
428.500992
 21
182.062998
 31
0.0
  0
LINE
  5
2a8
100
AcDbEntity
  8
0
 62
7
100
AcDbLine
 10
428.500992
 20
182.062998
 30
0.0
 11
428.842001
 21
182.272001
 31
0.0
  0
LINE
  5
2a9
100
AcDbEntity
  8
0
 62
7
100
AcDbLine
 10
428.842001
 20
182.272001
 30
0.0
 11
429.211994
 21
182.424999
 31
0.0
  0
LINE
  5
2aa
100
AcDbEntity
  8
0
 62
7
100
AcDbLine
 10
429.211994
 20
182.424999
 30
0.0
 11
429.601009
 21
182.518999
 31
0.0
  0
LINE
  5
2ab
100
AcDbEntity
  8
0
 62
7
100
AcDbLine
 10
429.601009
 20
182.518999
 30
0.0
 11
429.999987
 21
182.549998
 31
0.0
  0
LINE
  5
2ac
100
AcDbEntity
  8
0
 62
7
100
AcDbLine
 10
429.999987
 20
182.549998
 30
0.0
 11
430.398992
 21
182.518999
 31
0.0
  0
LINE
  5
2ad
100
AcDbEntity
  8
0
 62
7
100
AcDbLine
 10
430.398992
 20
182.518999
 30
0.0
 11
430.788008
 21
182.424999
 31
0.0
  0
LINE
  5
2ae
100
AcDbEntity
  8
0
 62
7
100
AcDbLine
 10
430.788008
 20
182.424999
 30
0.0
 11
431.158001
 21
182.272001
 31
0.0
  0
LINE
  5
2af
100
AcDbEntity
  8
0
 62
7
100
AcDbLine
 10
431.158001
 20
182.272001
 30
0.0
 11
431.499010
 21
182.062998
 31
0.0
  0
LINE
  5
2b0
100
AcDbEntity
  8
0
 62
7
100
AcDbLine
 10
431.499010
 20
182.062998
 30
0.0
 11
431.802992
 21
181.802998
 31
0.0
  0
LINE
  5
2b1
100
AcDbEntity
  8
0
 62
7
100
AcDbLine
 10
431.802992
 20
181.802998
 30
0.0
 11
432.063003
 21
181.499000
 31
0.0
  0
LINE
  5
2b2
100
AcDbEntity
  8
0
 62
7
100
AcDbLine
 10
432.063003
 20
181.499000
 30
0.0
 11
432.271988
 21
181.157999
 31
0.0
  0
LINE
  5
2b3
100
AcDbEntity
  8
0
 62
7
100
AcDbLine
 10
432.271988
 20
181.157999
 30
0.0
 11
432.425009
 21
180.788000
 31
0.0
  0
LINE
  5
2b4
100
AcDbEntity
  8
0
 62
7
100
AcDbLine
 10
432.425009
 20
180.788000
 30
0.0
 11
432.518989
 21
180.398999
 31
0.0
  0
LINE
  5
2b5
100
AcDbEntity
  8
0
 62
7
100
AcDbLine
 10
432.518989
 20
180.398999
 30
0.0
 11
432.550006
 21
179.999999
 31
0.0
  0
LINE
  5
2b6
100
AcDbEntity
  8
0
 62
7
100
AcDbLine
 10
432.550006
 20
179.999999
 30
0.0
 11
432.518989
 21
179.600999
 31
0.0
  0
LINE
  5
2b7
100
AcDbEntity
  8
0
 62
7
100
AcDbLine
 10
432.518989
 20
179.600999
 30
0.0
 11
432.425009
 21
179.212001
 31
0.0
  0
LINE
  5
2b8
100
AcDbEntity
  8
0
 62
7
100
AcDbLine
 10
432.425009
 20
179.212001
 30
0.0
 11
432.271988
 21
178.841999
 31
0.0
  0
LINE
  5
2b9
100
AcDbEntity
  8
0
 62
7
100
AcDbLine
 10
432.271988
 20
178.841999
 30
0.0
 11
432.063003
 21
178.500998
 31
0.0
  0
LINE
  5
2ba
100
AcDbEntity
  8
0
 62
7
100
AcDbLine
 10
432.063003
 20
178.500998
 30
0.0
 11
431.802992
 21
178.197000
 31
0.0
  0
LINE
  5
2bb
100
AcDbEntity
  8
0
 62
7
100
AcDbLine
 10
431.802992
 20
178.197000
 30
0.0
 11
431.499010
 21
177.937000
 31
0.0
  0
LINE
  5
2bc
100
AcDbEntity
  8
0
 62
7
100
AcDbLine
 10
431.499010
 20
177.937000
 30
0.0
 11
431.158001
 21
177.728000
 31
0.0
  0
LINE
  5
2bd
100
AcDbEntity
  8
0
 62
7
100
AcDbLine
 10
431.158001
 20
177.728000
 30
0.0
 11
430.788008
 21
177.574999
 31
0.0
  0
LINE
  5
2be
100
AcDbEntity
  8
0
 62
7
100
AcDbLine
 10
430.788008
 20
177.574999
 30
0.0
 11
430.398992
 21
177.480999
 31
0.0
  0
LINE
  5
2bf
100
AcDbEntity
  8
0
 62
7
100
AcDbLine
 10
430.398992
 20
177.480999
 30
0.0
 11
429.999987
 21
177.450000
 31
0.0
  0
LINE
  5
2c0
100
AcDbEntity
  8
0
 62
7
100
AcDbLine
 10
35.007570
 20
224.996810
 30
0.0
 11
35.007570
 21
180.000005
 31
0.0
  0
SPLINE
  5
2c1
100
AcDbEntity
  8
0
 62
7
100
AcDbSpline
 70
8
 71
3
 72
8
 73
4
 74
0
 40
0
 40
0
 40
0
 40
0
 40
1
 40
1
 40
1
 40
1
 10
35.007570
 20
180.000005
 30
0.0
 10
35.007570
 20
177.238582
 30
0.0
 10
37.246772
 20
174.999380
 30
0.0
 10
40.008195
 20
174.999380
 30
0.0
  0
SPLINE
  5
2c2
100
AcDbEntity
  8
0
 62
7
100
AcDbSpline
 70
8
 71
3
 72
8
 73
4
 74
0
 40
0
 40
0
 40
0
 40
0
 40
1
 40
1
 40
1
 40
1
 10
40.008195
 20
174.999380
 30
0.0
 10
42.769618
 20
174.999380
 30
0.0
 10
45.000000
 20
177.238582
 30
0.0
 10
45.000000
 20
180.000005
 30
0.0
  0
LINE
  5
2c3
100
AcDbEntity
  8
0
 62
7
100
AcDbLine
 10
45.000000
 20
180.000005
 30
0.0
 11
45.000000
 21
224.996810
 31
0.0
  0
LINE
  5
2c4
100
AcDbEntity
  8
0
 62
7
100
AcDbLine
 10
45.000000
 20
224.996810
 30
0.0
 11
35.007570
 21
224.996810
 31
0.0
  0
LINE
  5
2c5
100
AcDbEntity
  8
0
 62
7
100
AcDbLine
 10
35.007570
 20
224.996810
 30
0.0
 11
35.007570
 21
224.996810
 31
0.0
  0
SPLINE
  5
2c6
100
AcDbEntity
  8
0
 62
7
100
AcDbSpline
 70
8
 71
3
 72
8
 73
4
 74
0
 40
0
 40
0
 40
0
 40
0
 40
1
 40
1
 40
1
 40
1
 10
211.000000
 20
81.000005
 30
0.0
 10
211.000000
 20
80.285473
 30
0.0
 10
210.618803
 20
79.625219
 30
0.0
 10
210.000000
 20
79.267954
 30
0.0
  0
SPLINE
  5
2c7
100
AcDbEntity
  8
0
 62
7
100
AcDbSpline
 70
8
 71
3
 72
8
 73
4
 74
0
 40
0
 40
0
 40
0
 40
0
 40
1
 40
1
 40
1
 40
1
 10
210.000000
 20
79.267954
 30
0.0
 10
209.381198
 20
78.910688
 30
0.0
 10
208.618803
 20
78.910688
 30
0.0
 10
208.000000
 20
79.267954
 30
0.0
  0
SPLINE
  5
2c8
100
AcDbEntity
  8
0
 62
7
100
AcDbSpline
 70
8
 71
3
 72
8
 73
4
 74
0
 40
0
 40
0
 40
0
 40
0
 40
1
 40
1
 40
1
 40
1
 10
208.000000
 20
79.267954
 30
0.0
 10
207.381198
 20
79.625219
 30
0.0
 10
207.000000
 20
80.285473
 30
0.0
 10
207.000001
 20
81.000005
 30
0.0
  0
SPLINE
  5
2c9
100
AcDbEntity
  8
0
 62
7
100
AcDbSpline
 70
8
 71
3
 72
8
 73
4
 74
0
 40
0
 40
0
 40
0
 40
0
 40
1
 40
1
 40
1
 40
1
 10
207.000001
 20
81.000005
 30
0.0
 10
207.000001
 20
81.714536
 30
0.0
 10
207.381198
 20
82.374790
 30
0.0
 10
208.000001
 20
82.732055
 30
0.0
  0
SPLINE
  5
2ca
100
AcDbEntity
  8
0
 62
7
100
AcDbSpline
 70
8
 71
3
 72
8
 73
4
 74
0
 40
0
 40
0
 40
0
 40
0
 40
1
 40
1
 40
1
 40
1
 10
208.000001
 20
82.732055
 30
0.0
 10
208.618803
 20
83.089321
 30
0.0
 10
209.381198
 20
83.089321
 30
0.0
 10
210.000001
 20
82.732055
 30
0.0
  0
SPLINE
  5
2cb
100
AcDbEntity
  8
0
 62
7
100
AcDbSpline
 70
8
 71
3
 72
8
 73
4
 74
0
 40
0
 40
0
 40
0
 40
0
 40
1
 40
1
 40
1
 40
1
 10
210.000001
 20
82.732055
 30
0.0
 10
210.618803
 20
82.374790
 30
0.0
 10
211.000001
 20
81.714536
 30
0.0
 10
211.000001
 20
81.000005
 30
0.0
  0
LINE
  5
2cc
100
AcDbEntity
  8
0
 62
7
100
AcDbLine
 10
211.000001
 20
81.000005
 30
0.0
 11
211.000001
 21
81.000005
 31
0.0
  0
SPLINE
  5
2cd
100
AcDbEntity
  8
0
 62
7
100
AcDbSpline
 70
8
 71
3
 72
8
 73
4
 74
0
 40
0
 40
0
 40
0
 40
0
 40
1
 40
1
 40
1
 40
1
 10
410.999999
 20
81.000005
 30
0.0
 10
410.999999
 20
80.285473
 30
0.0
 10
410.618801
 20
79.625219
 30
0.0
 10
409.999999
 20
79.267954
 30
0.0
  0
SPLINE
  5
2ce
100
AcDbEntity
  8
0
 62
7
100
AcDbSpline
 70
8
 71
3
 72
8
 73
4
 74
0
 40
0
 40
0
 40
0
 40
0
 40
1
 40
1
 40
1
 40
1
 10
409.999999
 20
79.267954
 30
0.0
 10
409.381197
 20
78.910688
 30
0.0
 10
408.618801
 20
78.910688
 30
0.0
 10
407.999999
 20
79.267954
 30
0.0
  0
SPLINE
  5
2cf
100
AcDbEntity
  8
0
 62
7
100
AcDbSpline
 70
8
 71
3
 72
8
 73
4
 74
0
 40
0
 40
0
 40
0
 40
0
 40
1
 40
1
 40
1
 40
1
 10
407.999999
 20
79.267954
 30
0.0
 10
407.381197
 20
79.625219
 30
0.0
 10
406.999999
 20
80.285473
 30
0.0
 10
406.999999
 20
81.000005
 30
0.0
  0
SPLINE
  5
2d0
100
AcDbEntity
  8
0
 62
7
100
AcDbSpline
 70
8
 71
3
 72
8
 73
4
 74
0
 40
0
 40
0
 40
0
 40
0
 40
1
 40
1
 40
1
 40
1
 10
406.999999
 20
81.000005
 30
0.0
 10
406.999999
 20
81.714536
 30
0.0
 10
407.381197
 20
82.374790
 30
0.0
 10
407.999999
 20
82.732055
 30
0.0
  0
SPLINE
  5
2d1
100
AcDbEntity
  8
0
 62
7
100
AcDbSpline
 70
8
 71
3
 72
8
 73
4
 74
0
 40
0
 40
0
 40
0
 40
0
 40
1
 40
1
 40
1
 40
1
 10
407.999999
 20
82.732055
 30
0.0
 10
408.618801
 20
83.089321
 30
0.0
 10
409.381197
 20
83.089321
 30
0.0
 10
409.999999
 20
82.732055
 30
0.0
  0
SPLINE
  5
2d2
100
AcDbEntity
  8
0
 62
7
100
AcDbSpline
 70
8
 71
3
 72
8
 73
4
 74
0
 40
0
 40
0
 40
0
 40
0
 40
1
 40
1
 40
1
 40
1
 10
409.999999
 20
82.732055
 30
0.0
 10
410.618801
 20
82.374790
 30
0.0
 10
410.999999
 20
81.714536
 30
0.0
 10
410.999999
 20
81.000005
 30
0.0
  0
LINE
  5
2d3
100
AcDbEntity
  8
0
 62
7
100
AcDbLine
 10
410.999999
 20
81.000005
 30
0.0
 11
410.999999
 21
81.000005
 31
0.0
  0
SPLINE
  5
2d4
100
AcDbEntity
  8
0
 62
7
100
AcDbSpline
 70
8
 71
3
 72
8
 73
4
 74
0
 40
0
 40
0
 40
0
 40
0
 40
1
 40
1
 40
1
 40
1
 10
311.000001
 20
81.000005
 30
0.0
 10
311.000001
 20
80.285473
 30
0.0
 10
310.618804
 20
79.625219
 30
0.0
 10
310.000001
 20
79.267954
 30
0.0
  0
SPLINE
  5
2d5
100
AcDbEntity
  8
0
 62
7
100
AcDbSpline
 70
8
 71
3
 72
8
 73
4
 74
0
 40
0
 40
0
 40
0
 40
0
 40
1
 40
1
 40
1
 40
1
 10
310.000001
 20
79.267954
 30
0.0
 10
309.381199
 20
78.910688
 30
0.0
 10
308.618804
 20
78.910688
 30
0.0
 10
308.000001
 20
79.267954
 30
0.0
  0
SPLINE
  5
2d6
100
AcDbEntity
  8
0
 62
7
100
AcDbSpline
 70
8
 71
3
 72
8
 73
4
 74
0
 40
0
 40
0
 40
0
 40
0
 40
1
 40
1
 40
1
 40
1
 10
308.000001
 20
79.267954
 30
0.0
 10
307.381199
 20
79.625219
 30
0.0
 10
307.000001
 20
80.285473
 30
0.0
 10
307.000002
 20
81.000005
 30
0.0
  0
SPLINE
  5
2d7
100
AcDbEntity
  8
0
 62
7
100
AcDbSpline
 70
8
 71
3
 72
8
 73
4
 74
0
 40
0
 40
0
 40
0
 40
0
 40
1
 40
1
 40
1
 40
1
 10
307.000002
 20
81.000005
 30
0.0
 10
307.000002
 20
81.714536
 30
0.0
 10
307.381199
 20
82.374790
 30
0.0
 10
308.000002
 20
82.732055
 30
0.0
  0
SPLINE
  5
2d8
100
AcDbEntity
  8
0
 62
7
100
AcDbSpline
 70
8
 71
3
 72
8
 73
4
 74
0
 40
0
 40
0
 40
0
 40
0
 40
1
 40
1
 40
1
 40
1
 10
308.000002
 20
82.732055
 30
0.0
 10
308.618804
 20
83.089321
 30
0.0
 10
309.381199
 20
83.089321
 30
0.0
 10
310.000002
 20
82.732055
 30
0.0
  0
SPLINE
  5
2d9
100
AcDbEntity
  8
0
 62
7
100
AcDbSpline
 70
8
 71
3
 72
8
 73
4
 74
0
 40
0
 40
0
 40
0
 40
0
 40
1
 40
1
 40
1
 40
1
 10
310.000002
 20
82.732055
 30
0.0
 10
310.618804
 20
82.374790
 30
0.0
 10
311.000002
 20
81.714536
 30
0.0
 10
311.000002
 20
81.000005
 30
0.0
  0
LINE
  5
2da
100
AcDbEntity
  8
0
 62
7
100
AcDbLine
 10
311.000002
 20
81.000005
 30
0.0
 11
311.000002
 21
81.000005
 31
0.0
  0
ENDSEC
  0
SECTION
  2
OBJECTS
  0
DICTIONARY
  5
C
330
0
100
AcDbDictionary
  3
ACAD_GROUP
350
D
  3
ACAD_MLINESTYLE
350
17
  0
DICTIONARY
  5
D
330
C
100
AcDbDictionary
  0
DICTIONARY
  5
1A
330
C
100
AcDbDictionary
  0
DICTIONARY
  5
17
330
C
100
AcDbDictionary
  3
STANDARD
350
18
  0
DICTIONARY
  5
19
330
C
100
AcDbDictionary
  0
ENDSEC
  0
EOF
