  0
SECTION
  2
BLOCKS
  0
ENDSEC
  0
SECTION
  2
ENTITIES
  0
LINE
  8
0
 10
-8.5
 20
0
 11
-8.48976
 21
-0.417075
  0
LINE
  8
0
 10
-8.48976
 20
-0.417075
 11
-8.45907
 21
-0.833145
  0
LINE
  8
0
 10
-8.45907
 20
-0.833145
 11
-8.408
 21
-1.24721
  0
LINE
  8
0
 10
-8.408
 20
-1.24721
 11
-8.33667
 21
-1.65827
  0
LINE
  8
0
 10
-8.33667
 20
-1.65827
 11
-8.24527
 21
-2.06533
  0
LINE
  8
0
 10
-8.24527
 20
-2.06533
 11
-8.13399
 21
-2.46742
  0
LINE
  8
0
 10
-8.13399
 20
-2.46742
 11
-8.00312
 21
-2.86356
  0
LINE
  8
0
 10
-8.00312
 20
-2.86356
 11
-7.85298
 21
-3.25281
  0
LINE
  8
0
 10
-7.85298
 20
-3.25281
 11
-7.68391
 21
-3.63422
  0
LINE
  8
0
 10
-7.68391
 20
-3.63422
 11
-7.49633
 21
-4.00687
  0
LINE
  8
0
 10
-7.49633
 20
-4.00687
 11
-7.29069
 21
-4.36987
  0
LINE
  8
0
 10
-7.29069
 20
-4.36987
 11
-7.06749
 21
-4.72235
  0
LINE
  8
0
 10
-7.06749
 20
-4.72235
 11
-6.82726
 21
-5.06344
  0
LINE
  8
0
 10
-6.82726
 20
-5.06344
 11
-6.57059
 21
-5.39234
  0
LINE
  8
0
 10
-6.57059
 20
-5.39234
 11
-6.29808
 21
-5.70825
  0
LINE
  8
0
 10
-6.29808
 20
-5.70825
 11
-6.01041
 21
-6.01041
  0
LINE
  8
0
 10
-6.01041
 20
-6.01041
 11
-5.70825
 21
-6.29808
  0
LINE
  8
0
 10
-5.70825
 20
-6.29808
 11
-5.39234
 21
-6.57059
  0
LINE
  8
0
 10
-5.39234
 20
-6.57059
 11
-5.06344
 21
-6.82726
  0
LINE
  8
0
 10
-5.06344
 20
-6.82726
 11
-4.72235
 21
-7.06749
  0
LINE
  8
0
 10
-4.72235
 20
-7.06749
 11
-4.36987
 21
-7.29069
  0
LINE
  8
0
 10
-4.36987
 20
-7.29069
 11
-4.00687
 21
-7.49633
  0
LINE
  8
0
 10
-4.00687
 20
-7.49633
 11
-3.63422
 21
-7.68391
  0
LINE
  8
0
 10
-3.63422
 20
-7.68391
 11
-3.25281
 21
-7.85298
  0
LINE
  8
0
 10
-3.25281
 20
-7.85298
 11
-2.86356
 21
-8.00312
  0
LINE
  8
0
 10
-2.86356
 20
-8.00312
 11
-2.46742
 21
-8.13399
  0
LINE
  8
0
 10
-2.46742
 20
-8.13399
 11
-2.06533
 21
-8.24527
  0
LINE
  8
0
 10
-2.06533
 20
-8.24527
 11
-1.65827
 21
-8.33667
  0
LINE
  8
0
 10
-1.65827
 20
-8.33667
 11
-1.24721
 21
-8.408
  0
LINE
  8
0
 10
-1.24721
 20
-8.408
 11
-0.833145
 21
-8.45907
  0
LINE
  8
0
 10
-0.833145
 20
-8.45907
 11
-0.417075
 21
-8.48976
  0
LINE
  8
0
 10
-0.417075
 20
-8.48976
 11
0
 21
-8.5
  0
LINE
  8
0
 10
0
 20
-8.5
 11
0.417075
 21
-8.48976
  0
LINE
  8
0
 10
0.417075
 20
-8.48976
 11
0.833145
 21
-8.45907
  0
LINE
  8
0
 10
0.833145
 20
-8.45907
 11
1.24721
 21
-8.408
  0
LINE
  8
0
 10
1.24721
 20
-8.408
 11
1.65827
 21
-8.33667
  0
LINE
  8
0
 10
1.65827
 20
-8.33667
 11
2.06533
 21
-8.24527
  0
LINE
  8
0
 10
2.06533
 20
-8.24527
 11
2.46742
 21
-8.13399
  0
LINE
  8
0
 10
2.46742
 20
-8.13399
 11
2.86356
 21
-8.00312
  0
LINE
  8
0
 10
2.86356
 20
-8.00312
 11
3.25281
 21
-7.85298
  0
LINE
  8
0
 10
3.25281
 20
-7.85298
 11
3.63422
 21
-7.68391
  0
LINE
  8
0
 10
3.63422
 20
-7.68391
 11
4.00687
 21
-7.49633
  0
LINE
  8
0
 10
4.00687
 20
-7.49633
 11
4.36987
 21
-7.29069
  0
LINE
  8
0
 10
4.36987
 20
-7.29069
 11
4.72235
 21
-7.06749
  0
LINE
  8
0
 10
4.72235
 20
-7.06749
 11
5.06344
 21
-6.82726
  0
LINE
  8
0
 10
5.06344
 20
-6.82726
 11
5.39234
 21
-6.57059
  0
LINE
  8
0
 10
5.39234
 20
-6.57059
 11
5.70825
 21
-6.29808
  0
LINE
  8
0
 10
5.70825
 20
-6.29808
 11
6.01041
 21
-6.01041
  0
LINE
  8
0
 10
6.01041
 20
-6.01041
 11
6.29808
 21
-5.70825
  0
LINE
  8
0
 10
6.29808
 20
-5.70825
 11
6.57059
 21
-5.39234
  0
LINE
  8
0
 10
6.57059
 20
-5.39234
 11
6.82726
 21
-5.06344
  0
LINE
  8
0
 10
6.82726
 20
-5.06344
 11
7.06749
 21
-4.72235
  0
LINE
  8
0
 10
7.06749
 20
-4.72235
 11
7.29069
 21
-4.36987
  0
LINE
  8
0
 10
7.29069
 20
-4.36987
 11
7.49633
 21
-4.00687
  0
LINE
  8
0
 10
7.49633
 20
-4.00687
 11
7.68391
 21
-3.63422
  0
LINE
  8
0
 10
7.68391
 20
-3.63422
 11
7.85298
 21
-3.25281
  0
LINE
  8
0
 10
7.85298
 20
-3.25281
 11
8.00312
 21
-2.86356
  0
LINE
  8
0
 10
8.00312
 20
-2.86356
 11
8.13399
 21
-2.46742
  0
LINE
  8
0
 10
8.13399
 20
-2.46742
 11
8.24527
 21
-2.06533
  0
LINE
  8
0
 10
8.24527
 20
-2.06533
 11
8.33667
 21
-1.65827
  0
LINE
  8
0
 10
8.33667
 20
-1.65827
 11
8.408
 21
-1.24721
  0
LINE
  8
0
 10
8.408
 20
-1.24721
 11
8.45907
 21
-0.833145
  0
LINE
  8
0
 10
8.45907
 20
-0.833145
 11
8.48976
 21
-0.417075
  0
LINE
  8
0
 10
8.48976
 20
-0.417075
 11
8.5
 21
0
  0
LINE
  8
0
 10
8.5
 20
0
 11
8.48976
 21
0.417075
  0
LINE
  8
0
 10
8.48976
 20
0.417075
 11
8.45907
 21
0.833145
  0
LINE
  8
0
 10
8.45907
 20
0.833145
 11
8.408
 21
1.24721
  0
LINE
  8
0
 10
8.408
 20
1.24721
 11
8.33667
 21
1.65827
  0
LINE
  8
0
 10
8.33667
 20
1.65827
 11
8.24527
 21
2.06533
  0
LINE
  8
0
 10
8.24527
 20
2.06533
 11
8.13399
 21
2.46742
  0
LINE
  8
0
 10
8.13399
 20
2.46742
 11
8.00312
 21
2.86356
  0
LINE
  8
0
 10
8.00312
 20
2.86356
 11
7.85298
 21
3.25281
  0
LINE
  8
0
 10
7.85298
 20
3.25281
 11
7.68391
 21
3.63422
  0
LINE
  8
0
 10
7.68391
 20
3.63422
 11
7.49633
 21
4.00687
  0
LINE
  8
0
 10
7.49633
 20
4.00687
 11
7.29069
 21
4.36987
  0
LINE
  8
0
 10
7.29069
 20
4.36987
 11
7.06749
 21
4.72235
  0
LINE
  8
0
 10
7.06749
 20
4.72235
 11
6.82726
 21
5.06344
  0
LINE
  8
0
 10
6.82726
 20
5.06344
 11
6.57059
 21
5.39234
  0
LINE
  8
0
 10
6.57059
 20
5.39234
 11
6.29808
 21
5.70825
  0
LINE
  8
0
 10
6.29808
 20
5.70825
 11
6.01041
 21
6.01041
  0
LINE
  8
0
 10
6.01041
 20
6.01041
 11
5.70825
 21
6.29808
  0
LINE
  8
0
 10
5.70825
 20
6.29808
 11
5.39234
 21
6.57059
  0
LINE
  8
0
 10
5.39234
 20
6.57059
 11
5.06344
 21
6.82726
  0
LINE
  8
0
 10
5.06344
 20
6.82726
 11
4.72235
 21
7.06749
  0
LINE
  8
0
 10
4.72235
 20
7.06749
 11
4.36987
 21
7.29069
  0
LINE
  8
0
 10
4.36987
 20
7.29069
 11
4.00687
 21
7.49633
  0
LINE
  8
0
 10
4.00687
 20
7.49633
 11
3.63422
 21
7.68391
  0
LINE
  8
0
 10
3.63422
 20
7.68391
 11
3.25281
 21
7.85298
  0
LINE
  8
0
 10
3.25281
 20
7.85298
 11
2.86356
 21
8.00312
  0
LINE
  8
0
 10
2.86356
 20
8.00312
 11
2.46742
 21
8.13399
  0
LINE
  8
0
 10
2.46742
 20
8.13399
 11
2.06533
 21
8.24527
  0
LINE
  8
0
 10
2.06533
 20
8.24527
 11
1.65827
 21
8.33667
  0
LINE
  8
0
 10
1.65827
 20
8.33667
 11
1.24721
 21
8.408
  0
LINE
  8
0
 10
1.24721
 20
8.408
 11
0.833145
 21
8.45907
  0
LINE
  8
0
 10
0.833145
 20
8.45907
 11
0.417075
 21
8.48976
  0
LINE
  8
0
 10
0.417075
 20
8.48976
 11
0
 21
8.5
  0
LINE
  8
0
 10
0
 20
8.5
 11
-0.417075
 21
8.48976
  0
LINE
  8
0
 10
-0.417075
 20
8.48976
 11
-0.833145
 21
8.45907
  0
LINE
  8
0
 10
-0.833145
 20
8.45907
 11
-1.24721
 21
8.408
  0
LINE
  8
0
 10
-1.24721
 20
8.408
 11
-1.65827
 21
8.33667
  0
LINE
  8
0
 10
-1.65827
 20
8.33667
 11
-2.06533
 21
8.24527
  0
LINE
  8
0
 10
-2.06533
 20
8.24527
 11
-2.46742
 21
8.13399
  0
LINE
  8
0
 10
-2.46742
 20
8.13399
 11
-2.86356
 21
8.00312
  0
LINE
  8
0
 10
-2.86356
 20
8.00312
 11
-3.25281
 21
7.85298
  0
LINE
  8
0
 10
-3.25281
 20
7.85298
 11
-3.63422
 21
7.68391
  0
LINE
  8
0
 10
-3.63422
 20
7.68391
 11
-4.00687
 21
7.49633
  0
LINE
  8
0
 10
-4.00687
 20
7.49633
 11
-4.36987
 21
7.29069
  0
LINE
  8
0
 10
-4.36987
 20
7.29069
 11
-4.72235
 21
7.06749
  0
LINE
  8
0
 10
-4.72235
 20
7.06749
 11
-5.06344
 21
6.82726
  0
LINE
  8
0
 10
-5.06344
 20
6.82726
 11
-5.39234
 21
6.57059
  0
LINE
  8
0
 10
-5.39234
 20
6.57059
 11
-5.70825
 21
6.29808
  0
LINE
  8
0
 10
-5.70825
 20
6.29808
 11
-6.01041
 21
6.01041
  0
LINE
  8
0
 10
-6.01041
 20
6.01041
 11
-6.29808
 21
5.70825
  0
LINE
  8
0
 10
-6.29808
 20
5.70825
 11
-6.57059
 21
5.39234
  0
LINE
  8
0
 10
-6.57059
 20
5.39234
 11
-6.82726
 21
5.06344
  0
LINE
  8
0
 10
-6.82726
 20
5.06344
 11
-7.06749
 21
4.72235
  0
LINE
  8
0
 10
-7.06749
 20
4.72235
 11
-7.29069
 21
4.36987
  0
LINE
  8
0
 10
-7.29069
 20
4.36987
 11
-7.49633
 21
4.00687
  0
LINE
  8
0
 10
-7.49633
 20
4.00687
 11
-7.68391
 21
3.63422
  0
LINE
  8
0
 10
-7.68391
 20
3.63422
 11
-7.85298
 21
3.25281
  0
LINE
  8
0
 10
-7.85298
 20
3.25281
 11
-8.00312
 21
2.86356
  0
LINE
  8
0
 10
-8.00312
 20
2.86356
 11
-8.13399
 21
2.46742
  0
LINE
  8
0
 10
-8.13399
 20
2.46742
 11
-8.24527
 21
2.06533
  0
LINE
  8
0
 10
-8.24527
 20
2.06533
 11
-8.33667
 21
1.65827
  0
LINE
  8
0
 10
-8.33667
 20
1.65827
 11
-8.408
 21
1.24721
  0
LINE
  8
0
 10
-8.408
 20
1.24721
 11
-8.45907
 21
0.833145
  0
LINE
  8
0
 10
-8.45907
 20
0.833145
 11
-8.48976
 21
0.417075
  0
LINE
  8
0
 10
-8.48976
 20
0.417075
 11
-8.5
 21
0
  0
LINE
  8
0
 10
-6.5625
 20
0
 11
-6.56033
 21
0.0883217
  0
LINE
  8
0
 10
-6.56033
 20
0.0883217
 11
-6.55383
 21
0.176431
  0
LINE
  8
0
 10
-6.55383
 20
0.176431
 11
-6.54302
 21
0.264114
  0
LINE
  8
0
 10
-6.54302
 20
0.264114
 11
-6.52791
 21
0.351162
  0
LINE
  8
0
 10
-6.52791
 20
0.351162
 11
-6.50856
 21
0.437364
  0
LINE
  8
0
 10
-6.50856
 20
0.437364
 11
-6.48499
 21
0.522511
  0
LINE
  8
0
 10
-6.48499
 20
0.522511
 11
-6.45728
 21
0.606401
  0
LINE
  8
0
 10
-6.45728
 20
0.606401
 11
-6.42548
 21
0.688829
  0
LINE
  8
0
 10
-6.42548
 20
0.688829
 11
-6.38968
 21
0.769599
  0
LINE
  8
0
 10
-6.38968
 20
0.769599
 11
-6.34996
 21
0.848514
  0
LINE
  8
0
 10
-6.34996
 20
0.848514
 11
-6.30641
 21
0.925385
  0
LINE
  8
0
 10
-6.30641
 20
0.925385
 11
-6.25914
 21
1.00003
  0
LINE
  8
0
 10
-6.25914
 20
1.00003
 11
-6.20827
 21
1.07226
  0
LINE
  8
0
 10
-6.20827
 20
1.07226
 11
-6.15392
 21
1.14191
  0
LINE
  8
0
 10
-6.15392
 20
1.14191
 11
-6.09621
 21
1.20881
  0
LINE
  8
0
 10
-6.09621
 20
1.20881
 11
-6.03529
 21
1.27279
  0
LINE
  8
0
 10
-6.03529
 20
1.27279
 11
-5.97131
 21
1.33371
  0
LINE
  8
0
 10
-5.97131
 20
1.33371
 11
-5.90441
 21
1.39142
  0
LINE
  8
0
 10
-5.90441
 20
1.39142
 11
-5.83476
 21
1.44577
  0
LINE
  8
0
 10
-5.83476
 20
1.44577
 11
-5.76253
 21
1.49664
  0
LINE
  8
0
 10
-5.76253
 20
1.49664
 11
-5.68788
 21
1.54391
  0
LINE
  8
0
 10
-5.68788
 20
1.54391
 11
-5.61101
 21
1.58746
  0
LINE
  8
0
 10
-5.61101
 20
1.58746
 11
-5.5321
 21
1.62718
  0
LINE
  8
0
 10
-5.5321
 20
1.62718
 11
-5.45133
 21
1.66298
  0
LINE
  8
0
 10
-5.45133
 20
1.66298
 11
-5.3689
 21
1.69478
  0
LINE
  8
0
 10
-5.3689
 20
1.69478
 11
-5.28501
 21
1.72249
  0
LINE
  8
0
 10
-5.28501
 20
1.72249
 11
-5.19986
 21
1.74606
  0
LINE
  8
0
 10
-5.19986
 20
1.74606
 11
-5.11366
 21
1.76541
  0
LINE
  8
0
 10
-5.11366
 20
1.76541
 11
-5.02661
 21
1.78052
  0
LINE
  8
0
 10
-5.02661
 20
1.78052
 11
-4.93893
 21
1.79133
  0
LINE
  8
0
 10
-4.93893
 20
1.79133
 11
-4.85082
 21
1.79783
  0
LINE
  8
0
 10
-4.85082
 20
1.79783
 11
-4.7625
 21
1.8
  0
LINE
  8
0
 10
-4.7625
 20
1.8
 11
-4.67418
 21
1.79783
  0
LINE
  8
0
 10
-4.67418
 20
1.79783
 11
-4.58607
 21
1.79133
  0
LINE
  8
0
 10
-4.58607
 20
1.79133
 11
-4.49838
 21
1.78052
  0
LINE
  8
0
 10
-4.49838
 20
1.78052
 11
-4.41134
 21
1.76541
  0
LINE
  8
0
 10
-4.41134
 20
1.76541
 11
-4.32514
 21
1.74606
  0
LINE
  8
0
 10
-4.32514
 20
1.74606
 11
-4.23999
 21
1.72249
  0
LINE
  8
0
 10
-4.23999
 20
1.72249
 11
-4.1561
 21
1.69478
  0
LINE
  8
0
 10
-4.1561
 20
1.69478
 11
-4.07367
 21
1.66298
  0
LINE
  8
0
 10
-4.07367
 20
1.66298
 11
-3.9929
 21
1.62718
  0
LINE
  8
0
 10
-3.9929
 20
1.62718
 11
-3.91399
 21
1.58746
  0
LINE
  8
0
 10
-3.91399
 20
1.58746
 11
-3.83711
 21
1.54391
  0
LINE
  8
0
 10
-3.83711
 20
1.54391
 11
-3.76247
 21
1.49664
  0
LINE
  8
0
 10
-3.76247
 20
1.49664
 11
-3.69024
 21
1.44577
  0
LINE
  8
0
 10
-3.69024
 20
1.44577
 11
-3.62059
 21
1.39142
  0
LINE
  8
0
 10
-3.62059
 20
1.39142
 11
-3.55369
 21
1.33371
  0
LINE
  8
0
 10
-3.55369
 20
1.33371
 11
-3.48971
 21
1.27279
  0
LINE
  8
0
 10
-3.48971
 20
1.27279
 11
-3.42879
 21
1.20881
  0
LINE
  8
0
 10
-3.42879
 20
1.20881
 11
-3.37108
 21
1.14191
  0
LINE
  8
0
 10
-3.37108
 20
1.14191
 11
-3.31673
 21
1.07226
  0
LINE
  8
0
 10
-3.31673
 20
1.07226
 11
-3.26585
 21
1.00003
  0
LINE
  8
0
 10
-3.26585
 20
1.00003
 11
-3.21859
 21
0.925385
  0
LINE
  8
0
 10
-3.21859
 20
0.925385
 11
-3.17504
 21
0.848514
  0
LINE
  8
0
 10
-3.17504
 20
0.848514
 11
-3.13532
 21
0.769599
  0
LINE
  8
0
 10
-3.13532
 20
0.769599
 11
-3.09952
 21
0.688829
  0
LINE
  8
0
 10
-3.09952
 20
0.688829
 11
-3.06772
 21
0.606401
  0
LINE
  8
0
 10
-3.06772
 20
0.606401
 11
-3.04001
 21
0.522511
  0
LINE
  8
0
 10
-3.04001
 20
0.522511
 11
-3.01644
 21
0.437364
  0
LINE
  8
0
 10
-3.01644
 20
0.437364
 11
-2.99709
 21
0.351162
  0
LINE
  8
0
 10
-2.99709
 20
0.351162
 11
-2.98198
 21
0.264114
  0
LINE
  8
0
 10
-2.98198
 20
0.264114
 11
-2.97117
 21
0.176431
  0
LINE
  8
0
 10
-2.97117
 20
0.176431
 11
-2.96467
 21
0.0883217
  0
LINE
  8
0
 10
-2.96467
 20
0.0883217
 11
-2.9625
 21
0
  0
LINE
  8
0
 10
-2.9625
 20
0
 11
-2.96467
 21
-0.0883217
  0
LINE
  8
0
 10
-2.96467
 20
-0.0883217
 11
-2.97117
 21
-0.176431
  0
LINE
  8
0
 10
-2.97117
 20
-0.176431
 11
-2.98198
 21
-0.264114
  0
LINE
  8
0
 10
-2.98198
 20
-0.264114
 11
-2.99709
 21
-0.351162
  0
LINE
  8
0
 10
-2.99709
 20
-0.351162
 11
-3.01644
 21
-0.437364
  0
LINE
  8
0
 10
-3.01644
 20
-0.437364
 11
-3.04001
 21
-0.522511
  0
LINE
  8
0
 10
-3.04001
 20
-0.522511
 11
-3.06772
 21
-0.606401
  0
LINE
  8
0
 10
-3.06772
 20
-0.606401
 11
-3.09952
 21
-0.688829
  0
LINE
  8
0
 10
-3.09952
 20
-0.688829
 11
-3.13532
 21
-0.769599
  0
LINE
  8
0
 10
-3.13532
 20
-0.769599
 11
-3.17504
 21
-0.848514
  0
LINE
  8
0
 10
-3.17504
 20
-0.848514
 11
-3.21859
 21
-0.925385
  0
LINE
  8
0
 10
-3.21859
 20
-0.925385
 11
-3.26585
 21
-1.00003
  0
LINE
  8
0
 10
-3.26585
 20
-1.00003
 11
-3.31673
 21
-1.07226
  0
LINE
  8
0
 10
-3.31673
 20
-1.07226
 11
-3.37108
 21
-1.14191
  0
LINE
  8
0
 10
-3.37108
 20
-1.14191
 11
-3.42879
 21
-1.20881
  0
LINE
  8
0
 10
-3.42879
 20
-1.20881
 11
-3.48971
 21
-1.27279
  0
LINE
  8
0
 10
-3.48971
 20
-1.27279
 11
-3.55369
 21
-1.33371
  0
LINE
  8
0
 10
-3.55369
 20
-1.33371
 11
-3.62059
 21
-1.39142
  0
LINE
  8
0
 10
-3.62059
 20
-1.39142
 11
-3.69024
 21
-1.44577
  0
LINE
  8
0
 10
-3.69024
 20
-1.44577
 11
-3.76247
 21
-1.49664
  0
LINE
  8
0
 10
-3.76247
 20
-1.49664
 11
-3.83711
 21
-1.54391
  0
LINE
  8
0
 10
-3.83711
 20
-1.54391
 11
-3.91399
 21
-1.58746
  0
LINE
  8
0
 10
-3.91399
 20
-1.58746
 11
-3.9929
 21
-1.62718
  0
LINE
  8
0
 10
-3.9929
 20
-1.62718
 11
-4.07367
 21
-1.66298
  0
LINE
  8
0
 10
-4.07367
 20
-1.66298
 11
-4.1561
 21
-1.69478
  0
LINE
  8
0
 10
-4.1561
 20
-1.69478
 11
-4.23999
 21
-1.72249
  0
LINE
  8
0
 10
-4.23999
 20
-1.72249
 11
-4.32514
 21
-1.74606
  0
LINE
  8
0
 10
-4.32514
 20
-1.74606
 11
-4.41134
 21
-1.76541
  0
LINE
  8
0
 10
-4.41134
 20
-1.76541
 11
-4.49838
 21
-1.78052
  0
LINE
  8
0
 10
-4.49838
 20
-1.78052
 11
-4.58607
 21
-1.79133
  0
LINE
  8
0
 10
-4.58607
 20
-1.79133
 11
-4.67418
 21
-1.79783
  0
LINE
  8
0
 10
-4.67418
 20
-1.79783
 11
-4.7625
 21
-1.8
  0
LINE
  8
0
 10
-4.7625
 20
-1.8
 11
-4.85082
 21
-1.79783
  0
LINE
  8
0
 10
-4.85082
 20
-1.79783
 11
-4.93893
 21
-1.79133
  0
LINE
  8
0
 10
-4.93893
 20
-1.79133
 11
-5.02661
 21
-1.78052
  0
LINE
  8
0
 10
-5.02661
 20
-1.78052
 11
-5.11366
 21
-1.76541
  0
LINE
  8
0
 10
-5.11366
 20
-1.76541
 11
-5.19986
 21
-1.74606
  0
LINE
  8
0
 10
-5.19986
 20
-1.74606
 11
-5.28501
 21
-1.72249
  0
LINE
  8
0
 10
-5.28501
 20
-1.72249
 11
-5.3689
 21
-1.69478
  0
LINE
  8
0
 10
-5.3689
 20
-1.69478
 11
-5.45133
 21
-1.66298
  0
LINE
  8
0
 10
-5.45133
 20
-1.66298
 11
-5.5321
 21
-1.62718
  0
LINE
  8
0
 10
-5.5321
 20
-1.62718
 11
-5.61101
 21
-1.58746
  0
LINE
  8
0
 10
-5.61101
 20
-1.58746
 11
-5.68788
 21
-1.54391
  0
LINE
  8
0
 10
-5.68788
 20
-1.54391
 11
-5.76253
 21
-1.49664
  0
LINE
  8
0
 10
-5.76253
 20
-1.49664
 11
-5.83476
 21
-1.44577
  0
LINE
  8
0
 10
-5.83476
 20
-1.44577
 11
-5.90441
 21
-1.39142
  0
LINE
  8
0
 10
-5.90441
 20
-1.39142
 11
-5.97131
 21
-1.33371
  0
LINE
  8
0
 10
-5.97131
 20
-1.33371
 11
-6.03529
 21
-1.27279
  0
LINE
  8
0
 10
-6.03529
 20
-1.27279
 11
-6.09621
 21
-1.20881
  0
LINE
  8
0
 10
-6.09621
 20
-1.20881
 11
-6.15392
 21
-1.14191
  0
LINE
  8
0
 10
-6.15392
 20
-1.14191
 11
-6.20827
 21
-1.07226
  0
LINE
  8
0
 10
-6.20827
 20
-1.07226
 11
-6.25914
 21
-1.00003
  0
LINE
  8
0
 10
-6.25914
 20
-1.00003
 11
-6.30641
 21
-0.925385
  0
LINE
  8
0
 10
-6.30641
 20
-0.925385
 11
-6.34996
 21
-0.848514
  0
LINE
  8
0
 10
-6.34996
 20
-0.848514
 11
-6.38968
 21
-0.769599
  0
LINE
  8
0
 10
-6.38968
 20
-0.769599
 11
-6.42548
 21
-0.688829
  0
LINE
  8
0
 10
-6.42548
 20
-0.688829
 11
-6.45728
 21
-0.606401
  0
LINE
  8
0
 10
-6.45728
 20
-0.606401
 11
-6.48499
 21
-0.522511
  0
LINE
  8
0
 10
-6.48499
 20
-0.522511
 11
-6.50856
 21
-0.437364
  0
LINE
  8
0
 10
-6.50856
 20
-0.437364
 11
-6.52791
 21
-0.351162
  0
LINE
  8
0
 10
-6.52791
 20
-0.351162
 11
-6.54302
 21
-0.264114
  0
LINE
  8
0
 10
-6.54302
 20
-0.264114
 11
-6.55383
 21
-0.176431
  0
LINE
  8
0
 10
-6.55383
 20
-0.176431
 11
-6.56033
 21
-0.0883217
  0
LINE
  8
0
 10
-6.56033
 20
-0.0883217
 11
-6.5625
 21
0
  0
LINE
  8
0
 10
-2.1
 20
-5
 11
-2.09747
 21
-4.89696
  0
LINE
  8
0
 10
-2.09747
 20
-4.89696
 11
-2.08989
 21
-4.79416
  0
LINE
  8
0
 10
-2.08989
 20
-4.79416
 11
-2.07727
 21
-4.69187
  0
LINE
  8
0
 10
-2.07727
 20
-4.69187
 11
-2.05965
 21
-4.59031
  0
LINE
  8
0
 10
-2.05965
 20
-4.59031
 11
-2.03707
 21
-4.48974
  0
LINE
  8
0
 10
-2.03707
 20
-4.48974
 11
-2.00957
 21
-4.3904
  0
LINE
  8
0
 10
-2.00957
 20
-4.3904
 11
-1.97724
 21
-4.29253
  0
LINE
  8
0
 10
-1.97724
 20
-4.29253
 11
-1.94015
 21
-4.19636
  0
LINE
  8
0
 10
-1.94015
 20
-4.19636
 11
-1.89838
 21
-4.10213
  0
LINE
  8
0
 10
-1.89838
 20
-4.10213
 11
-1.85203
 21
-4.01007
  0
LINE
  8
0
 10
-1.85203
 20
-4.01007
 11
-1.80123
 21
-3.92038
  0
LINE
  8
0
 10
-1.80123
 20
-3.92038
 11
-1.74609
 21
-3.8333
  0
LINE
  8
0
 10
-1.74609
 20
-3.8333
 11
-1.68674
 21
-3.74903
  0
LINE
  8
0
 10
-1.68674
 20
-3.74903
 11
-1.62332
 21
-3.66777
  0
LINE
  8
0
 10
-1.62332
 20
-3.66777
 11
-1.556
 21
-3.58973
  0
LINE
  8
0
 10
-1.556
 20
-3.58973
 11
-1.48492
 21
-3.51508
  0
LINE
  8
0
 10
-1.48492
 20
-3.51508
 11
-1.41027
 21
-3.444
  0
LINE
  8
0
 10
-1.41027
 20
-3.444
 11
-1.33223
 21
-3.37668
  0
LINE
  8
0
 10
-1.33223
 20
-3.37668
 11
-1.25097
 21
-3.31326
  0
LINE
  8
0
 10
-1.25097
 20
-3.31326
 11
-1.1667
 21
-3.25391
  0
LINE
  8
0
 10
-1.1667
 20
-3.25391
 11
-1.07962
 21
-3.19877
  0
LINE
  8
0
 10
-1.07962
 20
-3.19877
 11
-0.989933
 21
-3.14796
  0
LINE
  8
0
 10
-0.989933
 20
-3.14796
 11
-0.897865
 21
-3.10162
  0
LINE
  8
0
 10
-0.897865
 20
-3.10162
 11
-0.803635
 21
-3.05985
  0
LINE
  8
0
 10
-0.803635
 20
-3.05985
 11
-0.707468
 21
-3.02276
  0
LINE
  8
0
 10
-0.707468
 20
-3.02276
 11
-0.609597
 21
-2.99043
  0
LINE
  8
0
 10
-0.609597
 20
-2.99043
 11
-0.510258
 21
-2.96293
  0
LINE
  8
0
 10
-0.510258
 20
-2.96293
 11
-0.409689
 21
-2.94035
  0
LINE
  8
0
 10
-0.409689
 20
-2.94035
 11
-0.308133
 21
-2.92273
  0
LINE
  8
0
 10
-0.308133
 20
-2.92273
 11
-0.205835
 21
-2.91011
  0
LINE
  8
0
 10
-0.205835
 20
-2.91011
 11
-0.103042
 21
-2.90253
  0
LINE
  8
0
 10
-0.103042
 20
-2.90253
 11
0
 21
-2.9
  0
LINE
  8
0
 10
0
 20
-2.9
 11
0.103042
 21
-2.90253
  0
LINE
  8
0
 10
0.103042
 20
-2.90253
 11
0.205835
 21
-2.91011
  0
LINE
  8
0
 10
0.205835
 20
-2.91011
 11
0.308133
 21
-2.92273
  0
LINE
  8
0
 10
0.308133
 20
-2.92273
 11
0.409689
 21
-2.94035
  0
LINE
  8
0
 10
0.409689
 20
-2.94035
 11
0.510258
 21
-2.96293
  0
LINE
  8
0
 10
0.510258
 20
-2.96293
 11
0.609597
 21
-2.99043
  0
LINE
  8
0
 10
0.609597
 20
-2.99043
 11
0.707468
 21
-3.02276
  0
LINE
  8
0
 10
0.707468
 20
-3.02276
 11
0.803635
 21
-3.05985
  0
LINE
  8
0
 10
0.803635
 20
-3.05985
 11
0.897865
 21
-3.10162
  0
LINE
  8
0
 10
0.897865
 20
-3.10162
 11
0.989933
 21
-3.14796
  0
LINE
  8
0
 10
0.989933
 20
-3.14796
 11
1.07962
 21
-3.19877
  0
LINE
  8
0
 10
1.07962
 20
-3.19877
 11
1.1667
 21
-3.25391
  0
LINE
  8
0
 10
1.1667
 20
-3.25391
 11
1.25097
 21
-3.31326
  0
LINE
  8
0
 10
1.25097
 20
-3.31326
 11
1.33223
 21
-3.37668
  0
LINE
  8
0
 10
1.33223
 20
-3.37668
 11
1.41027
 21
-3.444
  0
LINE
  8
0
 10
1.41027
 20
-3.444
 11
1.48492
 21
-3.51508
  0
LINE
  8
0
 10
1.48492
 20
-3.51508
 11
1.556
 21
-3.58973
  0
LINE
  8
0
 10
1.556
 20
-3.58973
 11
1.62332
 21
-3.66777
  0
LINE
  8
0
 10
1.62332
 20
-3.66777
 11
1.68674
 21
-3.74903
  0
LINE
  8
0
 10
1.68674
 20
-3.74903
 11
1.74609
 21
-3.8333
  0
LINE
  8
0
 10
1.74609
 20
-3.8333
 11
1.80123
 21
-3.92038
  0
LINE
  8
0
 10
1.80123
 20
-3.92038
 11
1.85203
 21
-4.01007
  0
LINE
  8
0
 10
1.85203
 20
-4.01007
 11
1.89838
 21
-4.10213
  0
LINE
  8
0
 10
1.89838
 20
-4.10213
 11
1.94015
 21
-4.19636
  0
LINE
  8
0
 10
1.94015
 20
-4.19636
 11
1.97724
 21
-4.29253
  0
LINE
  8
0
 10
1.97724
 20
-4.29253
 11
2.00957
 21
-4.3904
  0
LINE
  8
0
 10
2.00957
 20
-4.3904
 11
2.03707
 21
-4.48974
  0
LINE
  8
0
 10
2.03707
 20
-4.48974
 11
2.05965
 21
-4.59031
  0
LINE
  8
0
 10
2.05965
 20
-4.59031
 11
2.07727
 21
-4.69187
  0
LINE
  8
0
 10
2.07727
 20
-4.69187
 11
2.08989
 21
-4.79416
  0
LINE
  8
0
 10
2.08989
 20
-4.79416
 11
2.09747
 21
-4.89696
  0
LINE
  8
0
 10
2.09747
 20
-4.89696
 11
2.1
 21
-5
  0
LINE
  8
0
 10
2.1
 20
-5
 11
2.09747
 21
-5.10304
  0
LINE
  8
0
 10
2.09747
 20
-5.10304
 11
2.08989
 21
-5.20584
  0
LINE
  8
0
 10
2.08989
 20
-5.20584
 11
2.07727
 21
-5.30813
  0
LINE
  8
0
 10
2.07727
 20
-5.30813
 11
2.05965
 21
-5.40969
  0
LINE
  8
0
 10
2.05965
 20
-5.40969
 11
2.03707
 21
-5.51026
  0
LINE
  8
0
 10
2.03707
 20
-5.51026
 11
2.00957
 21
-5.6096
  0
LINE
  8
0
 10
2.00957
 20
-5.6096
 11
1.97724
 21
-5.70747
  0
LINE
  8
0
 10
1.97724
 20
-5.70747
 11
1.94015
 21
-5.80363
  0
LINE
  8
0
 10
1.94015
 20
-5.80363
 11
1.89838
 21
-5.89787
  0
LINE
  8
0
 10
1.89838
 20
-5.89787
 11
1.85203
 21
-5.98993
  0
LINE
  8
0
 10
1.85203
 20
-5.98993
 11
1.80123
 21
-6.07962
  0
LINE
  8
0
 10
1.80123
 20
-6.07962
 11
1.74609
 21
-6.1667
  0
LINE
  8
0
 10
1.74609
 20
-6.1667
 11
1.68674
 21
-6.25097
  0
LINE
  8
0
 10
1.68674
 20
-6.25097
 11
1.62332
 21
-6.33223
  0
LINE
  8
0
 10
1.62332
 20
-6.33223
 11
1.556
 21
-6.41027
  0
LINE
  8
0
 10
1.556
 20
-6.41027
 11
1.48492
 21
-6.48492
  0
LINE
  8
0
 10
1.48492
 20
-6.48492
 11
1.41027
 21
-6.556
  0
LINE
  8
0
 10
1.41027
 20
-6.556
 11
1.33223
 21
-6.62332
  0
LINE
  8
0
 10
1.33223
 20
-6.62332
 11
1.25097
 21
-6.68674
  0
LINE
  8
0
 10
1.25097
 20
-6.68674
 11
1.1667
 21
-6.74609
  0
LINE
  8
0
 10
1.1667
 20
-6.74609
 11
1.07962
 21
-6.80123
  0
LINE
  8
0
 10
1.07962
 20
-6.80123
 11
0.989933
 21
-6.85203
  0
LINE
  8
0
 10
0.989933
 20
-6.85203
 11
0.897865
 21
-6.89838
  0
LINE
  8
0
 10
0.897865
 20
-6.89838
 11
0.803635
 21
-6.94015
  0
LINE
  8
0
 10
0.803635
 20
-6.94015
 11
0.707468
 21
-6.97724
  0
LINE
  8
0
 10
0.707468
 20
-6.97724
 11
0.609597
 21
-7.00957
  0
LINE
  8
0
 10
0.609597
 20
-7.00957
 11
0.510258
 21
-7.03707
  0
LINE
  8
0
 10
0.510258
 20
-7.03707
 11
0.409689
 21
-7.05965
  0
LINE
  8
0
 10
0.409689
 20
-7.05965
 11
0.308133
 21
-7.07727
  0
LINE
  8
0
 10
0.308133
 20
-7.07727
 11
0.205835
 21
-7.08989
  0
LINE
  8
0
 10
0.205835
 20
-7.08989
 11
0.103042
 21
-7.09747
  0
LINE
  8
0
 10
0.103042
 20
-7.09747
 11
0
 21
-7.1
  0
LINE
  8
0
 10
0
 20
-7.1
 11
-0.103042
 21
-7.09747
  0
LINE
  8
0
 10
-0.103042
 20
-7.09747
 11
-0.205835
 21
-7.08989
  0
LINE
  8
0
 10
-0.205835
 20
-7.08989
 11
-0.308133
 21
-7.07727
  0
LINE
  8
0
 10
-0.308133
 20
-7.07727
 11
-0.409689
 21
-7.05965
  0
LINE
  8
0
 10
-0.409689
 20
-7.05965
 11
-0.510258
 21
-7.03707
  0
LINE
  8
0
 10
-0.510258
 20
-7.03707
 11
-0.609597
 21
-7.00957
  0
LINE
  8
0
 10
-0.609597
 20
-7.00957
 11
-0.707468
 21
-6.97724
  0
LINE
  8
0
 10
-0.707468
 20
-6.97724
 11
-0.803635
 21
-6.94015
  0
LINE
  8
0
 10
-0.803635
 20
-6.94015
 11
-0.897865
 21
-6.89838
  0
LINE
  8
0
 10
-0.897865
 20
-6.89838
 11
-0.989933
 21
-6.85203
  0
LINE
  8
0
 10
-0.989933
 20
-6.85203
 11
-1.07962
 21
-6.80123
  0
LINE
  8
0
 10
-1.07962
 20
-6.80123
 11
-1.1667
 21
-6.74609
  0
LINE
  8
0
 10
-1.1667
 20
-6.74609
 11
-1.25097
 21
-6.68674
  0
LINE
  8
0
 10
-1.25097
 20
-6.68674
 11
-1.33223
 21
-6.62332
  0
LINE
  8
0
 10
-1.33223
 20
-6.62332
 11
-1.41027
 21
-6.556
  0
LINE
  8
0
 10
-1.41027
 20
-6.556
 11
-1.48492
 21
-6.48492
  0
LINE
  8
0
 10
-1.48492
 20
-6.48492
 11
-1.556
 21
-6.41027
  0
LINE
  8
0
 10
-1.556
 20
-6.41027
 11
-1.62332
 21
-6.33223
  0
LINE
  8
0
 10
-1.62332
 20
-6.33223
 11
-1.68674
 21
-6.25097
  0
LINE
  8
0
 10
-1.68674
 20
-6.25097
 11
-1.74609
 21
-6.1667
  0
LINE
  8
0
 10
-1.74609
 20
-6.1667
 11
-1.80123
 21
-6.07962
  0
LINE
  8
0
 10
-1.80123
 20
-6.07962
 11
-1.85203
 21
-5.98993
  0
LINE
  8
0
 10
-1.85203
 20
-5.98993
 11
-1.89838
 21
-5.89787
  0
LINE
  8
0
 10
-1.89838
 20
-5.89787
 11
-1.94015
 21
-5.80363
  0
LINE
  8
0
 10
-1.94015
 20
-5.80363
 11
-1.97724
 21
-5.70747
  0
LINE
  8
0
 10
-1.97724
 20
-5.70747
 11
-2.00957
 21
-5.6096
  0
LINE
  8
0
 10
-2.00957
 20
-5.6096
 11
-2.03707
 21
-5.51026
  0
LINE
  8
0
 10
-2.03707
 20
-5.51026
 11
-2.05965
 21
-5.40969
  0
LINE
  8
0
 10
-2.05965
 20
-5.40969
 11
-2.07727
 21
-5.30813
  0
LINE
  8
0
 10
-2.07727
 20
-5.30813
 11
-2.08989
 21
-5.20584
  0
LINE
  8
0
 10
-2.08989
 20
-5.20584
 11
-2.09747
 21
-5.10304
  0
LINE
  8
0
 10
-2.09747
 20
-5.10304
 11
-2.1
 21
-5
  0
LINE
  8
0
 10
-2.1
 20
5
 11
-2.09747
 21
5.10304
  0
LINE
  8
0
 10
-2.09747
 20
5.10304
 11
-2.08989
 21
5.20584
  0
LINE
  8
0
 10
-2.08989
 20
5.20584
 11
-2.07727
 21
5.30813
  0
LINE
  8
0
 10
-2.07727
 20
5.30813
 11
-2.05965
 21
5.40969
  0
LINE
  8
0
 10
-2.05965
 20
5.40969
 11
-2.03707
 21
5.51026
  0
LINE
  8
0
 10
-2.03707
 20
5.51026
 11
-2.00957
 21
5.6096
  0
LINE
  8
0
 10
-2.00957
 20
5.6096
 11
-1.97724
 21
5.70747
  0
LINE
  8
0
 10
-1.97724
 20
5.70747
 11
-1.94015
 21
5.80363
  0
LINE
  8
0
 10
-1.94015
 20
5.80363
 11
-1.89838
 21
5.89787
  0
LINE
  8
0
 10
-1.89838
 20
5.89787
 11
-1.85203
 21
5.98993
  0
LINE
  8
0
 10
-1.85203
 20
5.98993
 11
-1.80123
 21
6.07962
  0
LINE
  8
0
 10
-1.80123
 20
6.07962
 11
-1.74609
 21
6.1667
  0
LINE
  8
0
 10
-1.74609
 20
6.1667
 11
-1.68674
 21
6.25097
  0
LINE
  8
0
 10
-1.68674
 20
6.25097
 11
-1.62332
 21
6.33223
  0
LINE
  8
0
 10
-1.62332
 20
6.33223
 11
-1.556
 21
6.41027
  0
LINE
  8
0
 10
-1.556
 20
6.41027
 11
-1.48492
 21
6.48492
  0
LINE
  8
0
 10
-1.48492
 20
6.48492
 11
-1.41027
 21
6.556
  0
LINE
  8
0
 10
-1.41027
 20
6.556
 11
-1.33223
 21
6.62332
  0
LINE
  8
0
 10
-1.33223
 20
6.62332
 11
-1.25097
 21
6.68674
  0
LINE
  8
0
 10
-1.25097
 20
6.68674
 11
-1.1667
 21
6.74609
  0
LINE
  8
0
 10
-1.1667
 20
6.74609
 11
-1.07962
 21
6.80123
  0
LINE
  8
0
 10
-1.07962
 20
6.80123
 11
-0.989933
 21
6.85203
  0
LINE
  8
0
 10
-0.989933
 20
6.85203
 11
-0.897865
 21
6.89838
  0
LINE
  8
0
 10
-0.897865
 20
6.89838
 11
-0.803635
 21
6.94015
  0
LINE
  8
0
 10
-0.803635
 20
6.94015
 11
-0.707468
 21
6.97724
  0
LINE
  8
0
 10
-0.707468
 20
6.97724
 11
-0.609597
 21
7.00957
  0
LINE
  8
0
 10
-0.609597
 20
7.00957
 11
-0.510258
 21
7.03707
  0
LINE
  8
0
 10
-0.510258
 20
7.03707
 11
-0.409689
 21
7.05965
  0
LINE
  8
0
 10
-0.409689
 20
7.05965
 11
-0.308133
 21
7.07727
  0
LINE
  8
0
 10
-0.308133
 20
7.07727
 11
-0.205835
 21
7.08989
  0
LINE
  8
0
 10
-0.205835
 20
7.08989
 11
-0.103042
 21
7.09747
  0
LINE
  8
0
 10
-0.103042
 20
7.09747
 11
0
 21
7.1
  0
LINE
  8
0
 10
0
 20
7.1
 11
0.103042
 21
7.09747
  0
LINE
  8
0
 10
0.103042
 20
7.09747
 11
0.205835
 21
7.08989
  0
LINE
  8
0
 10
0.205835
 20
7.08989
 11
0.308133
 21
7.07727
  0
LINE
  8
0
 10
0.308133
 20
7.07727
 11
0.409689
 21
7.05965
  0
LINE
  8
0
 10
0.409689
 20
7.05965
 11
0.510258
 21
7.03707
  0
LINE
  8
0
 10
0.510258
 20
7.03707
 11
0.609597
 21
7.00957
  0
LINE
  8
0
 10
0.609597
 20
7.00957
 11
0.707468
 21
6.97724
  0
LINE
  8
0
 10
0.707468
 20
6.97724
 11
0.803635
 21
6.94015
  0
LINE
  8
0
 10
0.803635
 20
6.94015
 11
0.897865
 21
6.89838
  0
LINE
  8
0
 10
0.897865
 20
6.89838
 11
0.989933
 21
6.85203
  0
LINE
  8
0
 10
0.989933
 20
6.85203
 11
1.07962
 21
6.80123
  0
LINE
  8
0
 10
1.07962
 20
6.80123
 11
1.1667
 21
6.74609
  0
LINE
  8
0
 10
1.1667
 20
6.74609
 11
1.25097
 21
6.68674
  0
LINE
  8
0
 10
1.25097
 20
6.68674
 11
1.33223
 21
6.62332
  0
LINE
  8
0
 10
1.33223
 20
6.62332
 11
1.41027
 21
6.556
  0
LINE
  8
0
 10
1.41027
 20
6.556
 11
1.48492
 21
6.48492
  0
LINE
  8
0
 10
1.48492
 20
6.48492
 11
1.556
 21
6.41027
  0
LINE
  8
0
 10
1.556
 20
6.41027
 11
1.62332
 21
6.33223
  0
LINE
  8
0
 10
1.62332
 20
6.33223
 11
1.68674
 21
6.25097
  0
LINE
  8
0
 10
1.68674
 20
6.25097
 11
1.74609
 21
6.1667
  0
LINE
  8
0
 10
1.74609
 20
6.1667
 11
1.80123
 21
6.07962
  0
LINE
  8
0
 10
1.80123
 20
6.07962
 11
1.85203
 21
5.98993
  0
LINE
  8
0
 10
1.85203
 20
5.98993
 11
1.89838
 21
5.89787
  0
LINE
  8
0
 10
1.89838
 20
5.89787
 11
1.94015
 21
5.80363
  0
LINE
  8
0
 10
1.94015
 20
5.80363
 11
1.97724
 21
5.70747
  0
LINE
  8
0
 10
1.97724
 20
5.70747
 11
2.00957
 21
5.6096
  0
LINE
  8
0
 10
2.00957
 20
5.6096
 11
2.03707
 21
5.51026
  0
LINE
  8
0
 10
2.03707
 20
5.51026
 11
2.05965
 21
5.40969
  0
LINE
  8
0
 10
2.05965
 20
5.40969
 11
2.07727
 21
5.30813
  0
LINE
  8
0
 10
2.07727
 20
5.30813
 11
2.08989
 21
5.20584
  0
LINE
  8
0
 10
2.08989
 20
5.20584
 11
2.09747
 21
5.10304
  0
LINE
  8
0
 10
2.09747
 20
5.10304
 11
2.1
 21
5
  0
LINE
  8
0
 10
2.1
 20
5
 11
2.09747
 21
4.89696
  0
LINE
  8
0
 10
2.09747
 20
4.89696
 11
2.08989
 21
4.79416
  0
LINE
  8
0
 10
2.08989
 20
4.79416
 11
2.07727
 21
4.69187
  0
LINE
  8
0
 10
2.07727
 20
4.69187
 11
2.05965
 21
4.59031
  0
LINE
  8
0
 10
2.05965
 20
4.59031
 11
2.03707
 21
4.48974
  0
LINE
  8
0
 10
2.03707
 20
4.48974
 11
2.00957
 21
4.3904
  0
LINE
  8
0
 10
2.00957
 20
4.3904
 11
1.97724
 21
4.29253
  0
LINE
  8
0
 10
1.97724
 20
4.29253
 11
1.94015
 21
4.19636
  0
LINE
  8
0
 10
1.94015
 20
4.19636
 11
1.89838
 21
4.10213
  0
LINE
  8
0
 10
1.89838
 20
4.10213
 11
1.85203
 21
4.01007
  0
LINE
  8
0
 10
1.85203
 20
4.01007
 11
1.80123
 21
3.92038
  0
LINE
  8
0
 10
1.80123
 20
3.92038
 11
1.74609
 21
3.8333
  0
LINE
  8
0
 10
1.74609
 20
3.8333
 11
1.68674
 21
3.74903
  0
LINE
  8
0
 10
1.68674
 20
3.74903
 11
1.62332
 21
3.66777
  0
LINE
  8
0
 10
1.62332
 20
3.66777
 11
1.556
 21
3.58973
  0
LINE
  8
0
 10
1.556
 20
3.58973
 11
1.48492
 21
3.51508
  0
LINE
  8
0
 10
1.48492
 20
3.51508
 11
1.41027
 21
3.444
  0
LINE
  8
0
 10
1.41027
 20
3.444
 11
1.33223
 21
3.37668
  0
LINE
  8
0
 10
1.33223
 20
3.37668
 11
1.25097
 21
3.31326
  0
LINE
  8
0
 10
1.25097
 20
3.31326
 11
1.1667
 21
3.25391
  0
LINE
  8
0
 10
1.1667
 20
3.25391
 11
1.07962
 21
3.19877
  0
LINE
  8
0
 10
1.07962
 20
3.19877
 11
0.989933
 21
3.14796
  0
LINE
  8
0
 10
0.989933
 20
3.14796
 11
0.897865
 21
3.10162
  0
LINE
  8
0
 10
0.897865
 20
3.10162
 11
0.803635
 21
3.05985
  0
LINE
  8
0
 10
0.803635
 20
3.05985
 11
0.707468
 21
3.02276
  0
LINE
  8
0
 10
0.707468
 20
3.02276
 11
0.609597
 21
2.99043
  0
LINE
  8
0
 10
0.609597
 20
2.99043
 11
0.510258
 21
2.96293
  0
LINE
  8
0
 10
0.510258
 20
2.96293
 11
0.409689
 21
2.94035
  0
LINE
  8
0
 10
0.409689
 20
2.94035
 11
0.308133
 21
2.92273
  0
LINE
  8
0
 10
0.308133
 20
2.92273
 11
0.205835
 21
2.91011
  0
LINE
  8
0
 10
0.205835
 20
2.91011
 11
0.103042
 21
2.90253
  0
LINE
  8
0
 10
0.103042
 20
2.90253
 11
0
 21
2.9
  0
LINE
  8
0
 10
0
 20
2.9
 11
-0.103042
 21
2.90253
  0
LINE
  8
0
 10
-0.103042
 20
2.90253
 11
-0.205835
 21
2.91011
  0
LINE
  8
0
 10
-0.205835
 20
2.91011
 11
-0.308133
 21
2.92273
  0
LINE
  8
0
 10
-0.308133
 20
2.92273
 11
-0.409689
 21
2.94035
  0
LINE
  8
0
 10
-0.409689
 20
2.94035
 11
-0.510258
 21
2.96293
  0
LINE
  8
0
 10
-0.510258
 20
2.96293
 11
-0.609597
 21
2.99043
  0
LINE
  8
0
 10
-0.609597
 20
2.99043
 11
-0.707468
 21
3.02276
  0
LINE
  8
0
 10
-0.707468
 20
3.02276
 11
-0.803635
 21
3.05985
  0
LINE
  8
0
 10
-0.803635
 20
3.05985
 11
-0.897865
 21
3.10162
  0
LINE
  8
0
 10
-0.897865
 20
3.10162
 11
-0.989933
 21
3.14796
  0
LINE
  8
0
 10
-0.989933
 20
3.14796
 11
-1.07962
 21
3.19877
  0
LINE
  8
0
 10
-1.07962
 20
3.19877
 11
-1.1667
 21
3.25391
  0
LINE
  8
0
 10
-1.1667
 20
3.25391
 11
-1.25097
 21
3.31326
  0
LINE
  8
0
 10
-1.25097
 20
3.31326
 11
-1.33223
 21
3.37668
  0
LINE
  8
0
 10
-1.33223
 20
3.37668
 11
-1.41027
 21
3.444
  0
LINE
  8
0
 10
-1.41027
 20
3.444
 11
-1.48492
 21
3.51508
  0
LINE
  8
0
 10
-1.48492
 20
3.51508
 11
-1.556
 21
3.58973
  0
LINE
  8
0
 10
-1.556
 20
3.58973
 11
-1.62332
 21
3.66777
  0
LINE
  8
0
 10
-1.62332
 20
3.66777
 11
-1.68674
 21
3.74903
  0
LINE
  8
0
 10
-1.68674
 20
3.74903
 11
-1.74609
 21
3.8333
  0
LINE
  8
0
 10
-1.74609
 20
3.8333
 11
-1.80123
 21
3.92038
  0
LINE
  8
0
 10
-1.80123
 20
3.92038
 11
-1.85203
 21
4.01007
  0
LINE
  8
0
 10
-1.85203
 20
4.01007
 11
-1.89838
 21
4.10213
  0
LINE
  8
0
 10
-1.89838
 20
4.10213
 11
-1.94015
 21
4.19636
  0
LINE
  8
0
 10
-1.94015
 20
4.19636
 11
-1.97724
 21
4.29253
  0
LINE
  8
0
 10
-1.97724
 20
4.29253
 11
-2.00957
 21
4.3904
  0
LINE
  8
0
 10
-2.00957
 20
4.3904
 11
-2.03707
 21
4.48974
  0
LINE
  8
0
 10
-2.03707
 20
4.48974
 11
-2.05965
 21
4.59031
  0
LINE
  8
0
 10
-2.05965
 20
4.59031
 11
-2.07727
 21
4.69187
  0
LINE
  8
0
 10
-2.07727
 20
4.69187
 11
-2.08989
 21
4.79416
  0
LINE
  8
0
 10
-2.08989
 20
4.79416
 11
-2.09747
 21
4.89696
  0
LINE
  8
0
 10
-2.09747
 20
4.89696
 11
-2.1
 21
5
  0
LINE
  8
0
 10
2.9625
 20
0
 11
2.96467
 21
0.0883217
  0
LINE
  8
0
 10
2.96467
 20
0.0883217
 11
2.97117
 21
0.176431
  0
LINE
  8
0
 10
2.97117
 20
0.176431
 11
2.98198
 21
0.264114
  0
LINE
  8
0
 10
2.98198
 20
0.264114
 11
2.99709
 21
0.351162
  0
LINE
  8
0
 10
2.99709
 20
0.351162
 11
3.01644
 21
0.437364
  0
LINE
  8
0
 10
3.01644
 20
0.437364
 11
3.04001
 21
0.522511
  0
LINE
  8
0
 10
3.04001
 20
0.522511
 11
3.06772
 21
0.606401
  0
LINE
  8
0
 10
3.06772
 20
0.606401
 11
3.09952
 21
0.688829
  0
LINE
  8
0
 10
3.09952
 20
0.688829
 11
3.13532
 21
0.769599
  0
LINE
  8
0
 10
3.13532
 20
0.769599
 11
3.17504
 21
0.848514
  0
LINE
  8
0
 10
3.17504
 20
0.848514
 11
3.21859
 21
0.925385
  0
LINE
  8
0
 10
3.21859
 20
0.925385
 11
3.26585
 21
1.00003
  0
LINE
  8
0
 10
3.26585
 20
1.00003
 11
3.31673
 21
1.07226
  0
LINE
  8
0
 10
3.31673
 20
1.07226
 11
3.37108
 21
1.14191
  0
LINE
  8
0
 10
3.37108
 20
1.14191
 11
3.42879
 21
1.20881
  0
LINE
  8
0
 10
3.42879
 20
1.20881
 11
3.48971
 21
1.27279
  0
LINE
  8
0
 10
3.48971
 20
1.27279
 11
3.55369
 21
1.33371
  0
LINE
  8
0
 10
3.55369
 20
1.33371
 11
3.62059
 21
1.39142
  0
LINE
  8
0
 10
3.62059
 20
1.39142
 11
3.69024
 21
1.44577
  0
LINE
  8
0
 10
3.69024
 20
1.44577
 11
3.76247
 21
1.49664
  0
LINE
  8
0
 10
3.76247
 20
1.49664
 11
3.83711
 21
1.54391
  0
LINE
  8
0
 10
3.83711
 20
1.54391
 11
3.91399
 21
1.58746
  0
LINE
  8
0
 10
3.91399
 20
1.58746
 11
3.9929
 21
1.62718
  0
LINE
  8
0
 10
3.9929
 20
1.62718
 11
4.07367
 21
1.66298
  0
LINE
  8
0
 10
4.07367
 20
1.66298
 11
4.1561
 21
1.69478
  0
LINE
  8
0
 10
4.1561
 20
1.69478
 11
4.23999
 21
1.72249
  0
LINE
  8
0
 10
4.23999
 20
1.72249
 11
4.32514
 21
1.74606
  0
LINE
  8
0
 10
4.32514
 20
1.74606
 11
4.41134
 21
1.76541
  0
LINE
  8
0
 10
4.41134
 20
1.76541
 11
4.49838
 21
1.78052
  0
LINE
  8
0
 10
4.49838
 20
1.78052
 11
4.58607
 21
1.79133
  0
LINE
  8
0
 10
4.58607
 20
1.79133
 11
4.67418
 21
1.79783
  0
LINE
  8
0
 10
4.67418
 20
1.79783
 11
4.7625
 21
1.8
  0
LINE
  8
0
 10
4.7625
 20
1.8
 11
4.85082
 21
1.79783
  0
LINE
  8
0
 10
4.85082
 20
1.79783
 11
4.93893
 21
1.79133
  0
LINE
  8
0
 10
4.93893
 20
1.79133
 11
5.02661
 21
1.78052
  0
LINE
  8
0
 10
5.02661
 20
1.78052
 11
5.11366
 21
1.76541
  0
LINE
  8
0
 10
5.11366
 20
1.76541
 11
5.19986
 21
1.74606
  0
LINE
  8
0
 10
5.19986
 20
1.74606
 11
5.28501
 21
1.72249
  0
LINE
  8
0
 10
5.28501
 20
1.72249
 11
5.3689
 21
1.69478
  0
LINE
  8
0
 10
5.3689
 20
1.69478
 11
5.45133
 21
1.66298
  0
LINE
  8
0
 10
5.45133
 20
1.66298
 11
5.5321
 21
1.62718
  0
LINE
  8
0
 10
5.5321
 20
1.62718
 11
5.61101
 21
1.58746
  0
LINE
  8
0
 10
5.61101
 20
1.58746
 11
5.68788
 21
1.54391
  0
LINE
  8
0
 10
5.68788
 20
1.54391
 11
5.76253
 21
1.49664
  0
LINE
  8
0
 10
5.76253
 20
1.49664
 11
5.83476
 21
1.44577
  0
LINE
  8
0
 10
5.83476
 20
1.44577
 11
5.90441
 21
1.39142
  0
LINE
  8
0
 10
5.90441
 20
1.39142
 11
5.97131
 21
1.33371
  0
LINE
  8
0
 10
5.97131
 20
1.33371
 11
6.03529
 21
1.27279
  0
LINE
  8
0
 10
6.03529
 20
1.27279
 11
6.09621
 21
1.20881
  0
LINE
  8
0
 10
6.09621
 20
1.20881
 11
6.15392
 21
1.14191
  0
LINE
  8
0
 10
6.15392
 20
1.14191
 11
6.20827
 21
1.07226
  0
LINE
  8
0
 10
6.20827
 20
1.07226
 11
6.25914
 21
1.00003
  0
LINE
  8
0
 10
6.25914
 20
1.00003
 11
6.30641
 21
0.925385
  0
LINE
  8
0
 10
6.30641
 20
0.925385
 11
6.34996
 21
0.848514
  0
LINE
  8
0
 10
6.34996
 20
0.848514
 11
6.38968
 21
0.769599
  0
LINE
  8
0
 10
6.38968
 20
0.769599
 11
6.42548
 21
0.688829
  0
LINE
  8
0
 10
6.42548
 20
0.688829
 11
6.45728
 21
0.606401
  0
LINE
  8
0
 10
6.45728
 20
0.606401
 11
6.48499
 21
0.522511
  0
LINE
  8
0
 10
6.48499
 20
0.522511
 11
6.50856
 21
0.437364
  0
LINE
  8
0
 10
6.50856
 20
0.437364
 11
6.52791
 21
0.351162
  0
LINE
  8
0
 10
6.52791
 20
0.351162
 11
6.54302
 21
0.264114
  0
LINE
  8
0
 10
6.54302
 20
0.264114
 11
6.55383
 21
0.176431
  0
LINE
  8
0
 10
6.55383
 20
0.176431
 11
6.56033
 21
0.0883217
  0
LINE
  8
0
 10
6.56033
 20
0.0883217
 11
6.5625
 21
0
  0
LINE
  8
0
 10
6.5625
 20
0
 11
6.56033
 21
-0.0883217
  0
LINE
  8
0
 10
6.56033
 20
-0.0883217
 11
6.55383
 21
-0.176431
  0
LINE
  8
0
 10
6.55383
 20
-0.176431
 11
6.54302
 21
-0.264114
  0
LINE
  8
0
 10
6.54302
 20
-0.264114
 11
6.52791
 21
-0.351162
  0
LINE
  8
0
 10
6.52791
 20
-0.351162
 11
6.50856
 21
-0.437364
  0
LINE
  8
0
 10
6.50856
 20
-0.437364
 11
6.48499
 21
-0.522511
  0
LINE
  8
0
 10
6.48499
 20
-0.522511
 11
6.45728
 21
-0.606401
  0
LINE
  8
0
 10
6.45728
 20
-0.606401
 11
6.42548
 21
-0.688829
  0
LINE
  8
0
 10
6.42548
 20
-0.688829
 11
6.38968
 21
-0.769599
  0
LINE
  8
0
 10
6.38968
 20
-0.769599
 11
6.34996
 21
-0.848514
  0
LINE
  8
0
 10
6.34996
 20
-0.848514
 11
6.30641
 21
-0.925385
  0
LINE
  8
0
 10
6.30641
 20
-0.925385
 11
6.25914
 21
-1.00003
  0
LINE
  8
0
 10
6.25914
 20
-1.00003
 11
6.20827
 21
-1.07226
  0
LINE
  8
0
 10
6.20827
 20
-1.07226
 11
6.15392
 21
-1.14191
  0
LINE
  8
0
 10
6.15392
 20
-1.14191
 11
6.09621
 21
-1.20881
  0
LINE
  8
0
 10
6.09621
 20
-1.20881
 11
6.03529
 21
-1.27279
  0
LINE
  8
0
 10
6.03529
 20
-1.27279
 11
5.97131
 21
-1.33371
  0
LINE
  8
0
 10
5.97131
 20
-1.33371
 11
5.90441
 21
-1.39142
  0
LINE
  8
0
 10
5.90441
 20
-1.39142
 11
5.83476
 21
-1.44577
  0
LINE
  8
0
 10
5.83476
 20
-1.44577
 11
5.76253
 21
-1.49664
  0
LINE
  8
0
 10
5.76253
 20
-1.49664
 11
5.68788
 21
-1.54391
  0
LINE
  8
0
 10
5.68788
 20
-1.54391
 11
5.61101
 21
-1.58746
  0
LINE
  8
0
 10
5.61101
 20
-1.58746
 11
5.5321
 21
-1.62718
  0
LINE
  8
0
 10
5.5321
 20
-1.62718
 11
5.45133
 21
-1.66298
  0
LINE
  8
0
 10
5.45133
 20
-1.66298
 11
5.3689
 21
-1.69478
  0
LINE
  8
0
 10
5.3689
 20
-1.69478
 11
5.28501
 21
-1.72249
  0
LINE
  8
0
 10
5.28501
 20
-1.72249
 11
5.19986
 21
-1.74606
  0
LINE
  8
0
 10
5.19986
 20
-1.74606
 11
5.11366
 21
-1.76541
  0
LINE
  8
0
 10
5.11366
 20
-1.76541
 11
5.02661
 21
-1.78052
  0
LINE
  8
0
 10
5.02661
 20
-1.78052
 11
4.93893
 21
-1.79133
  0
LINE
  8
0
 10
4.93893
 20
-1.79133
 11
4.85082
 21
-1.79783
  0
LINE
  8
0
 10
4.85082
 20
-1.79783
 11
4.7625
 21
-1.8
  0
LINE
  8
0
 10
4.7625
 20
-1.8
 11
4.67418
 21
-1.79783
  0
LINE
  8
0
 10
4.67418
 20
-1.79783
 11
4.58607
 21
-1.79133
  0
LINE
  8
0
 10
4.58607
 20
-1.79133
 11
4.49838
 21
-1.78052
  0
LINE
  8
0
 10
4.49838
 20
-1.78052
 11
4.41134
 21
-1.76541
  0
LINE
  8
0
 10
4.41134
 20
-1.76541
 11
4.32514
 21
-1.74606
  0
LINE
  8
0
 10
4.32514
 20
-1.74606
 11
4.23999
 21
-1.72249
  0
LINE
  8
0
 10
4.23999
 20
-1.72249
 11
4.1561
 21
-1.69478
  0
LINE
  8
0
 10
4.1561
 20
-1.69478
 11
4.07367
 21
-1.66298
  0
LINE
  8
0
 10
4.07367
 20
-1.66298
 11
3.9929
 21
-1.62718
  0
LINE
  8
0
 10
3.9929
 20
-1.62718
 11
3.91399
 21
-1.58746
  0
LINE
  8
0
 10
3.91399
 20
-1.58746
 11
3.83711
 21
-1.54391
  0
LINE
  8
0
 10
3.83711
 20
-1.54391
 11
3.76247
 21
-1.49664
  0
LINE
  8
0
 10
3.76247
 20
-1.49664
 11
3.69024
 21
-1.44577
  0
LINE
  8
0
 10
3.69024
 20
-1.44577
 11
3.62059
 21
-1.39142
  0
LINE
  8
0
 10
3.62059
 20
-1.39142
 11
3.55369
 21
-1.33371
  0
LINE
  8
0
 10
3.55369
 20
-1.33371
 11
3.48971
 21
-1.27279
  0
LINE
  8
0
 10
3.48971
 20
-1.27279
 11
3.42879
 21
-1.20881
  0
LINE
  8
0
 10
3.42879
 20
-1.20881
 11
3.37108
 21
-1.14191
  0
LINE
  8
0
 10
3.37108
 20
-1.14191
 11
3.31673
 21
-1.07226
  0
LINE
  8
0
 10
3.31673
 20
-1.07226
 11
3.26585
 21
-1.00003
  0
LINE
  8
0
 10
3.26585
 20
-1.00003
 11
3.21859
 21
-0.925385
  0
LINE
  8
0
 10
3.21859
 20
-0.925385
 11
3.17504
 21
-0.848514
  0
LINE
  8
0
 10
3.17504
 20
-0.848514
 11
3.13532
 21
-0.769599
  0
LINE
  8
0
 10
3.13532
 20
-0.769599
 11
3.09952
 21
-0.688829
  0
LINE
  8
0
 10
3.09952
 20
-0.688829
 11
3.06772
 21
-0.606401
  0
LINE
  8
0
 10
3.06772
 20
-0.606401
 11
3.04001
 21
-0.522511
  0
LINE
  8
0
 10
3.04001
 20
-0.522511
 11
3.01644
 21
-0.437364
  0
LINE
  8
0
 10
3.01644
 20
-0.437364
 11
2.99709
 21
-0.351162
  0
LINE
  8
0
 10
2.99709
 20
-0.351162
 11
2.98198
 21
-0.264114
  0
LINE
  8
0
 10
2.98198
 20
-0.264114
 11
2.97117
 21
-0.176431
  0
LINE
  8
0
 10
2.97117
 20
-0.176431
 11
2.96467
 21
-0.0883217
  0
LINE
  8
0
 10
2.96467
 20
-0.0883217
 11
2.9625
 21
0
  0
ENDSEC
  0
SECTION
  2
OBJECTS
  0
DICTIONARY
  0
ENDSEC
  0
EOF
