  0
SECTION
  2
BLOCKS
  0
ENDSEC
  0
SECTION
  2
ENTITIES
  0
LINE
  8
0
 10
0
 20
-28
 11
64
 21
-28
  0
LINE
  8
0
 10
64
 20
-28
 11
64
 21
2.22045e-016
  0
LINE
  8
0
 10
64
 20
2.22045e-016
 11
0
 21
2.22045e-016
  0
LINE
  8
0
 10
0
 20
2.22045e-016
 11
0
 21
-28
  0
LINE
  8
0
 10
14.5
 20
-18
 11
14.53
 21
-17.6191
  0
LINE
  8
0
 10
14.53
 20
-17.6191
 11
14.5308
 21
-17.6089
  0
LINE
  8
0
 10
14.5308
 20
-17.6089
 11
14.6224
 21
-17.2275
  0
LINE
  8
0
 10
14.6224
 20
-17.2275
 11
14.7725
 21
-16.865
  0
LINE
  8
0
 10
14.7725
 20
-16.865
 11
14.9775
 21
-16.5305
  0
LINE
  8
0
 10
14.9775
 20
-16.5305
 11
15.2322
 21
-16.2322
  0
LINE
  8
0
 10
15.2322
 20
-16.2322
 11
15.5305
 21
-15.9775
  0
LINE
  8
0
 10
15.5305
 20
-15.9775
 11
15.865
 21
-15.7725
  0
LINE
  8
0
 10
15.865
 20
-15.7725
 11
16.2275
 21
-15.6224
  0
LINE
  8
0
 10
16.2275
 20
-15.6224
 11
16.6089
 21
-15.5308
  0
LINE
  8
0
 10
16.6089
 20
-15.5308
 11
16.6191
 21
-15.53
  0
LINE
  8
0
 10
16.6191
 20
-15.53
 11
17
 21
-15.5
  0
LINE
  8
0
 10
17
 20
-15.5
 11
17.3809
 21
-15.53
  0
LINE
  8
0
 10
17.3809
 20
-15.53
 11
17.3911
 21
-15.5308
  0
LINE
  8
0
 10
17.3911
 20
-15.5308
 11
17.7725
 21
-15.6224
  0
LINE
  8
0
 10
17.7725
 20
-15.6224
 11
18.135
 21
-15.7725
  0
LINE
  8
0
 10
18.135
 20
-15.7725
 11
18.4695
 21
-15.9775
  0
LINE
  8
0
 10
18.4695
 20
-15.9775
 11
18.7678
 21
-16.2322
  0
LINE
  8
0
 10
18.7678
 20
-16.2322
 11
19.0225
 21
-16.5305
  0
LINE
  8
0
 10
19.0225
 20
-16.5305
 11
19.2275
 21
-16.865
  0
LINE
  8
0
 10
19.2275
 20
-16.865
 11
19.3776
 21
-17.2275
  0
LINE
  8
0
 10
19.3776
 20
-17.2275
 11
19.4692
 21
-17.6089
  0
LINE
  8
0
 10
19.4692
 20
-17.6089
 11
19.47
 21
-17.6191
  0
LINE
  8
0
 10
19.47
 20
-17.6191
 11
19.5
 21
-18
  0
LINE
  8
0
 10
19.5
 20
-18
 11
19.4992
 21
-18.0102
  0
LINE
  8
0
 10
19.4992
 20
-18.0102
 11
19.4692
 21
-18.3911
  0
LINE
  8
0
 10
19.4692
 20
-18.3911
 11
19.3776
 21
-18.7725
  0
LINE
  8
0
 10
19.3776
 20
-18.7725
 11
19.2275
 21
-19.135
  0
LINE
  8
0
 10
19.2275
 20
-19.135
 11
19.0225
 21
-19.4695
  0
LINE
  8
0
 10
19.0225
 20
-19.4695
 11
18.7678
 21
-19.7678
  0
LINE
  8
0
 10
18.7678
 20
-19.7678
 11
18.4695
 21
-20.0225
  0
LINE
  8
0
 10
18.4695
 20
-20.0225
 11
18.135
 21
-20.2275
  0
LINE
  8
0
 10
18.135
 20
-20.2275
 11
17.7725
 21
-20.3776
  0
LINE
  8
0
 10
17.7725
 20
-20.3776
 11
17.3911
 21
-20.4692
  0
LINE
  8
0
 10
17.3911
 20
-20.4692
 11
17.0102
 21
-20.4992
  0
LINE
  8
0
 10
17.0102
 20
-20.4992
 11
17
 21
-20.5
  0
LINE
  8
0
 10
17
 20
-20.5
 11
16.9898
 21
-20.4992
  0
LINE
  8
0
 10
16.9898
 20
-20.4992
 11
16.6089
 21
-20.4692
  0
LINE
  8
0
 10
16.6089
 20
-20.4692
 11
16.2275
 21
-20.3776
  0
LINE
  8
0
 10
16.2275
 20
-20.3776
 11
15.865
 21
-20.2275
  0
LINE
  8
0
 10
15.865
 20
-20.2275
 11
15.5305
 21
-20.0225
  0
LINE
  8
0
 10
15.5305
 20
-20.0225
 11
15.2322
 21
-19.7678
  0
LINE
  8
0
 10
15.2322
 20
-19.7678
 11
14.9775
 21
-19.4695
  0
LINE
  8
0
 10
14.9775
 20
-19.4695
 11
14.7725
 21
-19.135
  0
LINE
  8
0
 10
14.7725
 20
-19.135
 11
14.6224
 21
-18.7725
  0
LINE
  8
0
 10
14.6224
 20
-18.7725
 11
14.5308
 21
-18.3911
  0
LINE
  8
0
 10
14.5308
 20
-18.3911
 11
14.5008
 21
-18.0102
  0
LINE
  8
0
 10
14.5008
 20
-18.0102
 11
14.5
 21
-18
  0
LINE
  8
0
 10
44.5
 20
-18
 11
44.53
 21
-17.6191
  0
LINE
  8
0
 10
44.53
 20
-17.6191
 11
44.5308
 21
-17.6089
  0
LINE
  8
0
 10
44.5308
 20
-17.6089
 11
44.6224
 21
-17.2275
  0
LINE
  8
0
 10
44.6224
 20
-17.2275
 11
44.7725
 21
-16.865
  0
LINE
  8
0
 10
44.7725
 20
-16.865
 11
44.9775
 21
-16.5305
  0
LINE
  8
0
 10
44.9775
 20
-16.5305
 11
45.2322
 21
-16.2322
  0
LINE
  8
0
 10
45.2322
 20
-16.2322
 11
45.5305
 21
-15.9775
  0
LINE
  8
0
 10
45.5305
 20
-15.9775
 11
45.865
 21
-15.7725
  0
LINE
  8
0
 10
45.865
 20
-15.7725
 11
46.2275
 21
-15.6224
  0
LINE
  8
0
 10
46.2275
 20
-15.6224
 11
46.6089
 21
-15.5308
  0
LINE
  8
0
 10
46.6089
 20
-15.5308
 11
46.6191
 21
-15.53
  0
LINE
  8
0
 10
46.6191
 20
-15.53
 11
47
 21
-15.5
  0
LINE
  8
0
 10
47
 20
-15.5
 11
47.3809
 21
-15.53
  0
LINE
  8
0
 10
47.3809
 20
-15.53
 11
47.3911
 21
-15.5308
  0
LINE
  8
0
 10
47.3911
 20
-15.5308
 11
47.7725
 21
-15.6224
  0
LINE
  8
0
 10
47.7725
 20
-15.6224
 11
48.135
 21
-15.7725
  0
LINE
  8
0
 10
48.135
 20
-15.7725
 11
48.4695
 21
-15.9775
  0
LINE
  8
0
 10
48.4695
 20
-15.9775
 11
48.7678
 21
-16.2322
  0
LINE
  8
0
 10
48.7678
 20
-16.2322
 11
49.0225
 21
-16.5305
  0
LINE
  8
0
 10
49.0225
 20
-16.5305
 11
49.2275
 21
-16.865
  0
LINE
  8
0
 10
49.2275
 20
-16.865
 11
49.3776
 21
-17.2275
  0
LINE
  8
0
 10
49.3776
 20
-17.2275
 11
49.4692
 21
-17.6089
  0
LINE
  8
0
 10
49.4692
 20
-17.6089
 11
49.47
 21
-17.6191
  0
LINE
  8
0
 10
49.47
 20
-17.6191
 11
49.5
 21
-18
  0
LINE
  8
0
 10
49.5
 20
-18
 11
49.4992
 21
-18.0102
  0
LINE
  8
0
 10
49.4992
 20
-18.0102
 11
49.4692
 21
-18.3911
  0
LINE
  8
0
 10
49.4692
 20
-18.3911
 11
49.3776
 21
-18.7725
  0
LINE
  8
0
 10
49.3776
 20
-18.7725
 11
49.2275
 21
-19.135
  0
LINE
  8
0
 10
49.2275
 20
-19.135
 11
49.0225
 21
-19.4695
  0
LINE
  8
0
 10
49.0225
 20
-19.4695
 11
48.7678
 21
-19.7678
  0
LINE
  8
0
 10
48.7678
 20
-19.7678
 11
48.4695
 21
-20.0225
  0
LINE
  8
0
 10
48.4695
 20
-20.0225
 11
48.135
 21
-20.2275
  0
LINE
  8
0
 10
48.135
 20
-20.2275
 11
47.7725
 21
-20.3776
  0
LINE
  8
0
 10
47.7725
 20
-20.3776
 11
47.3911
 21
-20.4692
  0
LINE
  8
0
 10
47.3911
 20
-20.4692
 11
47.0102
 21
-20.4992
  0
LINE
  8
0
 10
47.0102
 20
-20.4992
 11
47
 21
-20.5
  0
LINE
  8
0
 10
47
 20
-20.5
 11
46.9898
 21
-20.4992
  0
LINE
  8
0
 10
46.9898
 20
-20.4992
 11
46.6089
 21
-20.4692
  0
LINE
  8
0
 10
46.6089
 20
-20.4692
 11
46.2275
 21
-20.3776
  0
LINE
  8
0
 10
46.2275
 20
-20.3776
 11
45.865
 21
-20.2275
  0
LINE
  8
0
 10
45.865
 20
-20.2275
 11
45.5305
 21
-20.0225
  0
LINE
  8
0
 10
45.5305
 20
-20.0225
 11
45.2322
 21
-19.7678
  0
LINE
  8
0
 10
45.2322
 20
-19.7678
 11
44.9775
 21
-19.4695
  0
LINE
  8
0
 10
44.9775
 20
-19.4695
 11
44.7725
 21
-19.135
  0
LINE
  8
0
 10
44.7725
 20
-19.135
 11
44.6224
 21
-18.7725
  0
LINE
  8
0
 10
44.6224
 20
-18.7725
 11
44.5308
 21
-18.3911
  0
LINE
  8
0
 10
44.5308
 20
-18.3911
 11
44.5008
 21
-18.0102
  0
LINE
  8
0
 10
44.5008
 20
-18.0102
 11
44.5
 21
-18
  0
ENDSEC
  0
SECTION
  2
OBJECTS
  0
DICTIONARY
  0
ENDSEC
  0
EOF
