  0
SECTION
  2
HEADER
  9
$ACADVER
  1
AC1014
  9
$HANDSEED
  5
FFFF
  9
$MEASUREMENT
 70
     1
  0
ENDSEC
  0
SECTION
  2
TABLES
  0
TABLE
  2
VPORT
  5
8
330
0
100
AcDbSymbolTable
 70
     4
  0
VPORT
  5
2E
330
8
100
AcDbSymbolTableRecord
100
AcDbViewportTableRecord
  2
*ACTIVE
 70
     0
 10
0.0
 20
0.0
 11
1.0
 21
1.0
 12
210.0
 22
148.5
 13
0.0
 23
0.0
 14
10.0
 24
10.0
 15
10.0
 25
10.0
 16
0.0
 26
0.0
 36
1.0
 17
0.0
 27
0.0
 37
0.0
 40
341.0
 41
1.24
 42
50.0
 43
0.0
 44
0.0
 50
0.0
 51
0.0
 71
     0
 72
   100
 73
     1
 74
     3
 75
     0
 76
     0
 77
     0
 78
     0
  0
ENDTAB
  0
TABLE
  2
LTYPE
  5
5
330
0
100
AcDbSymbolTable
 70
     1
  0
LTYPE
  5
14
330
5
100
AcDbSymbolTableRecord
100
AcDbLinetypeTableRecord
  2
BYBLOCK
 70
     0
  3

 72
    65
 73
     0
 40
0.0
  0
LTYPE
  5
15
330
5
100
AcDbSymbolTableRecord
100
AcDbLinetypeTableRecord
  2
BYLAYER
 70
     0
  3

 72
    65
 73
     0
 40
0.0
  0
LTYPE
  5
16
330
5
100
AcDbSymbolTableRecord
100
AcDbLinetypeTableRecord
  2
CONTINUOUS
 70
     0
  3
Solid line
 72
    65
 73
     0
 40
0.0
  0
ENDTAB
  0
TABLE
  2
LAYER
  5
2
100
AcDbSymbolTable
 70
3
  0
LAYER
  5
50
100
AcDbSymbolTableRecord
100
AcDbLayerTableRecord
  2
0
 70
0
  6
CONTINUOUS
  0
LAYER
  5
51
100
AcDbSymbolTableRecord
100
AcDbLayerTableRecord
  2
Layer_1
 70
0
  6
CONTINUOUS
  0
LAYER
  5
52
100
AcDbSymbolTableRecord
100
AcDbLayerTableRecord
  2
end_stop_profile
 70
0
  6
CONTINUOUS
  0
ENDTAB
  0
TABLE
  2
STYLE
  5
3
330
0
100
AcDbSymbolTable
 70
     1
  0
STYLE
  5
11
330
3
100
AcDbSymbolTableRecord
100
AcDbTextStyleTableRecord
  2
STANDARD
 70
     0
 40
0.0
 41
1.0
 50
0.0
 71
     0
 42
2.5
  3
txt
  4

  0
ENDTAB
  0
TABLE
  2
VIEW
  5
6
330
0
100
AcDbSymbolTable
 70
     0
  0
ENDTAB
  0
TABLE
  2
UCS
  5
7
330
0
100
AcDbSymbolTable
 70
     0
  0
ENDTAB
  0
TABLE
  2
APPID
  5
9
330
0
100
AcDbSymbolTable
 70
     2
  0
APPID
  5
12
330
9
100
AcDbSymbolTableRecord
100
AcDbRegAppTableRecord
  2
ACAD
 70
     0
  0
ENDTAB
  0
TABLE
  2
DIMSTYLE
  5
A
330
0
100
AcDbSymbolTable
 70
     1
  0
DIMSTYLE
105
27
330
A
100
AcDbSymbolTableRecord
100
AcDbDimStyleTableRecord
  2
ISO-25
 70
     0
  3

  4

  5

  6

  7

 40
1.0
 41
2.5
 42
0.625
 43
3.75
 44
1.25
 45
0.0
 46
0.0
 47
0.0
 48
0.0
140
2.5
141
2.5
142
0.0
143
0.03937007874016
144
1.0
145
0.0
146
1.0
147
0.625
 71
     0
 72
     0
 73
     0
 74
     0
 75
     0
 76
     0
 77
     1
 78
     8
170
     0
171
     3
172
     1
173
     0
174
     0
175
     0
176
     0
177
     0
178
     0
270
     2
271
     2
272
     2
273
     2
274
     3
340
11
275
     0
280
     0
281
     0
282
     0
283
     0
284
     8
285
     0
286
     0
287
     3
288
     0
  0
ENDTAB
  0
TABLE
  2
BLOCK_RECORD
  5
1
330
0
100
AcDbSymbolTable
 70
     1
  0
BLOCK_RECORD
  5
1F
330
1
100
AcDbSymbolTableRecord
100
AcDbBlockTableRecord
  2
*MODEL_SPACE
  0
BLOCK_RECORD
  5
1B
330
1
100
AcDbSymbolTableRecord
100
AcDbBlockTableRecord
  2
*PAPER_SPACE
  0
ENDTAB
  0
ENDSEC
  0
SECTION
  2
BLOCKS
  0
BLOCK
  5
20
330
1F
100
AcDbEntity
  8
0
100
AcDbBlockBegin
  2
*MODEL_SPACE
 70
     0
 10
0.0
 20
0.0
 30
0.0
  3
*MODEL_SPACE
  1

  0
ENDBLK
  5
21
330
1F
100
AcDbEntity
  8
0
100
AcDbBlockEnd
  0
BLOCK
  5
1C
330
1B
100
AcDbEntity
 67
     1
  8
0
100
AcDbBlockBegin
  2
*PAPER_SPACE
  1

  0
ENDBLK
  5
1D
330
1B
100
AcDbEntity
 67
     1
  8
0
100
AcDbBlockEnd
  0
ENDSEC
  0
SECTION
  2
ENTITIES
  0
LINE
  5
100
100
AcDbEntity
  8
Layer_1
 62
7
100
AcDbLine
 10
-9.000000
 20
20.000000
 30
0.0
 11
0.000000
 21
20.000002
 31
0.0
  0
LINE
  5
101
100
AcDbEntity
  8
Layer_1
 62
7
100
AcDbLine
 10
0.000000
 20
20.000002
 30
0.0
 11
9.000000
 21
20.000000
 31
0.0
  0
SPLINE
  5
102
100
AcDbEntity
  8
Layer_1
 62
7
100
AcDbSpline
 70
8
 71
3
 72
8
 73
4
 74
0
 40
0
 40
0
 40
0
 40
0
 40
1
 40
1
 40
1
 40
1
 10
9.000000
 20
20.000000
 30
0.0
 10
10.000000
 20
20.000000
 30
0.0
 10
10.000000
 20
20.000000
 30
0.0
 10
10.000000
 20
19.000002
 30
0.0
  0
LINE
  5
103
100
AcDbEntity
  8
Layer_1
 62
7
100
AcDbLine
 10
10.000000
 20
19.000002
 30
0.0
 11
10.000000
 21
-0.000006
 31
0.0
  0
LINE
  5
104
100
AcDbEntity
  8
Layer_1
 62
7
100
AcDbLine
 10
10.000000
 20
-0.000006
 30
0.0
 11
10.000000
 21
-18.999996
 31
0.0
  0
SPLINE
  5
105
100
AcDbEntity
  8
Layer_1
 62
7
100
AcDbSpline
 70
8
 71
3
 72
8
 73
4
 74
0
 40
0
 40
0
 40
0
 40
0
 40
1
 40
1
 40
1
 40
1
 10
10.000000
 20
-18.999996
 30
0.0
 10
10.000000
 20
-19.999994
 30
0.0
 10
10.003692
 20
-19.999994
 30
0.0
 10
9.000000
 20
-19.999994
 30
0.0
  0
LINE
  5
106
100
AcDbEntity
  8
Layer_1
 62
7
100
AcDbLine
 10
9.000000
 20
-19.999994
 30
0.0
 11
0.000000
 21
-19.999994
 31
0.0
  0
LINE
  5
107
100
AcDbEntity
  8
Layer_1
 62
7
100
AcDbLine
 10
0.000000
 20
-19.999994
 30
0.0
 11
-9.000000
 21
-19.999994
 31
0.0
  0
SPLINE
  5
108
100
AcDbEntity
  8
Layer_1
 62
7
100
AcDbSpline
 70
8
 71
3
 72
8
 73
4
 74
0
 40
0
 40
0
 40
0
 40
0
 40
1
 40
1
 40
1
 40
1
 10
-9.000000
 20
-19.999994
 30
0.0
 10
-10.000000
 20
-19.999994
 30
0.0
 10
-10.000000
 20
-20.003663
 30
0.0
 10
-10.000000
 20
-18.999996
 30
0.0
  0
LINE
  5
109
100
AcDbEntity
  8
Layer_1
 62
7
100
AcDbLine
 10
-10.000000
 20
-18.999996
 30
0.0
 11
-10.000000
 21
-0.000006
 31
0.0
  0
LINE
  5
10a
100
AcDbEntity
  8
Layer_1
 62
7
100
AcDbLine
 10
-10.000000
 20
-0.000006
 30
0.0
 11
-10.000000
 21
19.000002
 31
0.0
  0
SPLINE
  5
10b
100
AcDbEntity
  8
Layer_1
 62
7
100
AcDbSpline
 70
8
 71
3
 72
8
 73
4
 74
0
 40
0
 40
0
 40
0
 40
0
 40
1
 40
1
 40
1
 40
1
 10
-10.000000
 20
19.000002
 30
0.0
 10
-10.000000
 20
20.000000
 30
0.0
 10
-10.000000
 20
20.000000
 30
0.0
 10
-9.000000
 20
20.000000
 30
0.0
  0
LINE
  5
10c
100
AcDbEntity
  8
Layer_1
 62
7
100
AcDbLine
 10
-9.000000
 20
20.000000
 30
0.0
 11
-9.000000
 21
20.000000
 31
0.0
  0
SPLINE
  5
10d
100
AcDbEntity
  8
Layer_1
 62
7
100
AcDbSpline
 70
8
 71
3
 72
8
 73
4
 74
0
 40
0
 40
0
 40
0
 40
0
 40
1
 40
1
 40
1
 40
1
 10
9.600000
 20
0.000001
 30
0.0
 10
9.600000
 20
-1.679147
 30
0.0
 10
8.704185
 20
-3.230744
 30
0.0
 10
7.250000
 20
-4.070318
 30
0.0
  0
SPLINE
  5
10e
100
AcDbEntity
  8
Layer_1
 62
7
100
AcDbSpline
 70
8
 71
3
 72
8
 73
4
 74
0
 40
0
 40
0
 40
0
 40
0
 40
1
 40
1
 40
1
 40
1
 10
7.250000
 20
-4.070318
 30
0.0
 10
5.795815
 20
-4.909892
 30
0.0
 10
4.004185
 20
-4.909892
 30
0.0
 10
2.550000
 20
-4.070318
 30
0.0
  0
SPLINE
  5
10f
100
AcDbEntity
  8
Layer_1
 62
7
100
AcDbSpline
 70
8
 71
3
 72
8
 73
4
 74
0
 40
0
 40
0
 40
0
 40
0
 40
1
 40
1
 40
1
 40
1
 10
2.550000
 20
-4.070318
 30
0.0
 10
1.095815
 20
-3.230744
 30
0.0
 10
0.200000
 20
-1.679147
 30
0.0
 10
0.200000
 20
0.000001
 30
0.0
  0
SPLINE
  5
110
100
AcDbEntity
  8
Layer_1
 62
7
100
AcDbSpline
 70
8
 71
3
 72
8
 73
4
 74
0
 40
0
 40
0
 40
0
 40
0
 40
1
 40
1
 40
1
 40
1
 10
0.200000
 20
0.000001
 30
0.0
 10
0.200000
 20
1.679150
 30
0.0
 10
1.095815
 20
3.230747
 30
0.0
 10
2.550000
 20
4.070321
 30
0.0
  0
SPLINE
  5
111
100
AcDbEntity
  8
Layer_1
 62
7
100
AcDbSpline
 70
8
 71
3
 72
8
 73
4
 74
0
 40
0
 40
0
 40
0
 40
0
 40
1
 40
1
 40
1
 40
1
 10
2.550000
 20
4.070321
 30
0.0
 10
4.004185
 20
4.909895
 30
0.0
 10
5.795815
 20
4.909895
 30
0.0
 10
7.250000
 20
4.070321
 30
0.0
  0
SPLINE
  5
112
100
AcDbEntity
  8
Layer_1
 62
7
100
AcDbSpline
 70
8
 71
3
 72
8
 73
4
 74
0
 40
0
 40
0
 40
0
 40
0
 40
1
 40
1
 40
1
 40
1
 10
7.250000
 20
4.070321
 30
0.0
 10
8.704185
 20
3.230747
 30
0.0
 10
9.600000
 20
1.679150
 30
0.0
 10
9.600000
 20
0.000001
 30
0.0
  0
LINE
  5
113
100
AcDbEntity
  8
Layer_1
 62
7
100
AcDbLine
 10
9.600000
 20
0.000001
 30
0.0
 11
9.600000
 21
0.000001
 31
0.0
  0
SPLINE
  5
114
100
AcDbEntity
  8
Layer_1
 62
7
100
AcDbSpline
 70
8
 71
3
 72
8
 73
4
 74
0
 40
0
 40
0
 40
0
 40
0
 40
1
 40
1
 40
1
 40
1
 10
2.500000
 20
-10.000000
 30
0.0
 10
2.500000
 20
-10.893164
 30
0.0
 10
2.023503
 20
-11.718481
 30
0.0
 10
1.250000
 20
-12.165063
 30
0.0
  0
SPLINE
  5
115
100
AcDbEntity
  8
Layer_1
 62
7
100
AcDbSpline
 70
8
 71
3
 72
8
 73
4
 74
0
 40
0
 40
0
 40
0
 40
0
 40
1
 40
1
 40
1
 40
1
 10
1.250000
 20
-12.165063
 30
0.0
 10
0.476497
 20
-12.611645
 30
0.0
 10
-0.476497
 20
-12.611645
 30
0.0
 10
-1.250000
 20
-12.165063
 30
0.0
  0
SPLINE
  5
116
100
AcDbEntity
  8
Layer_1
 62
7
100
AcDbSpline
 70
8
 71
3
 72
8
 73
4
 74
0
 40
0
 40
0
 40
0
 40
0
 40
1
 40
1
 40
1
 40
1
 10
-1.250000
 20
-12.165063
 30
0.0
 10
-2.023503
 20
-11.718481
 30
0.0
 10
-2.500000
 20
-10.893164
 30
0.0
 10
-2.500000
 20
-10.000000
 30
0.0
  0
SPLINE
  5
117
100
AcDbEntity
  8
Layer_1
 62
7
100
AcDbSpline
 70
8
 71
3
 72
8
 73
4
 74
0
 40
0
 40
0
 40
0
 40
0
 40
1
 40
1
 40
1
 40
1
 10
-2.500000
 20
-10.000000
 30
0.0
 10
-2.500000
 20
-9.106836
 30
0.0
 10
-2.023503
 20
-8.281518
 30
0.0
 10
-1.250000
 20
-7.834936
 30
0.0
  0
SPLINE
  5
118
100
AcDbEntity
  8
Layer_1
 62
7
100
AcDbSpline
 70
8
 71
3
 72
8
 73
4
 74
0
 40
0
 40
0
 40
0
 40
0
 40
1
 40
1
 40
1
 40
1
 10
-1.250000
 20
-7.834936
 30
0.0
 10
-0.476497
 20
-7.388354
 30
0.0
 10
0.476497
 20
-7.388354
 30
0.0
 10
1.250000
 20
-7.834936
 30
0.0
  0
SPLINE
  5
119
100
AcDbEntity
  8
Layer_1
 62
7
100
AcDbSpline
 70
8
 71
3
 72
8
 73
4
 74
0
 40
0
 40
0
 40
0
 40
0
 40
1
 40
1
 40
1
 40
1
 10
1.250000
 20
-7.834936
 30
0.0
 10
2.023503
 20
-8.281518
 30
0.0
 10
2.500000
 20
-9.106836
 30
0.0
 10
2.500000
 20
-10.000000
 30
0.0
  0
LINE
  5
11a
100
AcDbEntity
  8
Layer_1
 62
7
100
AcDbLine
 10
2.500000
 20
-10.000000
 30
0.0
 11
2.500000
 21
-10.000000
 31
0.0
  0
SPLINE
  5
11b
100
AcDbEntity
  8
Layer_1
 62
7
100
AcDbSpline
 70
8
 71
3
 72
8
 73
4
 74
0
 40
0
 40
0
 40
0
 40
0
 40
1
 40
1
 40
1
 40
1
 10
6.900000
 20
0.000002
 30
0.0
 10
6.900000
 20
-0.714530
 30
0.0
 10
6.518802
 20
-1.374784
 30
0.0
 10
5.900000
 20
-1.732049
 30
0.0
  0
SPLINE
  5
11c
100
AcDbEntity
  8
Layer_1
 62
7
100
AcDbSpline
 70
8
 71
3
 72
8
 73
4
 74
0
 40
0
 40
0
 40
0
 40
0
 40
1
 40
1
 40
1
 40
1
 10
5.900000
 20
-1.732049
 30
0.0
 10
5.281198
 20
-2.089315
 30
0.0
 10
4.518802
 20
-2.089315
 30
0.0
 10
3.900000
 20
-1.732049
 30
0.0
  0
SPLINE
  5
11d
100
AcDbEntity
  8
Layer_1
 62
7
100
AcDbSpline
 70
8
 71
3
 72
8
 73
4
 74
0
 40
0
 40
0
 40
0
 40
0
 40
1
 40
1
 40
1
 40
1
 10
3.900000
 20
-1.732049
 30
0.0
 10
3.281198
 20
-1.374784
 30
0.0
 10
2.900000
 20
-0.714530
 30
0.0
 10
2.900000
 20
0.000002
 30
0.0
  0
SPLINE
  5
11e
100
AcDbEntity
  8
Layer_1
 62
7
100
AcDbSpline
 70
8
 71
3
 72
8
 73
4
 74
0
 40
0
 40
0
 40
0
 40
0
 40
1
 40
1
 40
1
 40
1
 10
2.900000
 20
0.000002
 30
0.0
 10
2.900000
 20
0.714533
 30
0.0
 10
3.281198
 20
1.374787
 30
0.0
 10
3.900000
 20
1.732052
 30
0.0
  0
SPLINE
  5
11f
100
AcDbEntity
  8
Layer_1
 62
7
100
AcDbSpline
 70
8
 71
3
 72
8
 73
4
 74
0
 40
0
 40
0
 40
0
 40
0
 40
1
 40
1
 40
1
 40
1
 10
3.900000
 20
1.732052
 30
0.0
 10
4.518802
 20
2.089318
 30
0.0
 10
5.281198
 20
2.089318
 30
0.0
 10
5.900000
 20
1.732052
 30
0.0
  0
SPLINE
  5
120
100
AcDbEntity
  8
Layer_1
 62
7
100
AcDbSpline
 70
8
 71
3
 72
8
 73
4
 74
0
 40
0
 40
0
 40
0
 40
0
 40
1
 40
1
 40
1
 40
1
 10
5.900000
 20
1.732052
 30
0.0
 10
6.518802
 20
1.374787
 30
0.0
 10
6.900000
 20
0.714533
 30
0.0
 10
6.900000
 20
0.000002
 30
0.0
  0
LINE
  5
121
100
AcDbEntity
  8
Layer_1
 62
7
100
AcDbLine
 10
6.900000
 20
0.000002
 30
0.0
 11
6.900000
 21
0.000002
 31
0.0
  0
SPLINE
  5
122
100
AcDbEntity
  8
Layer_1
 62
7
100
AcDbSpline
 70
8
 71
3
 72
8
 73
4
 74
0
 40
0
 40
0
 40
0
 40
0
 40
1
 40
1
 40
1
 40
1
 10
-2.900000
 20
0.000002
 30
0.0
 10
-2.900000
 20
-0.714530
 30
0.0
 10
-3.281198
 20
-1.374784
 30
0.0
 10
-3.900000
 20
-1.732049
 30
0.0
  0
SPLINE
  5
123
100
AcDbEntity
  8
Layer_1
 62
7
100
AcDbSpline
 70
8
 71
3
 72
8
 73
4
 74
0
 40
0
 40
0
 40
0
 40
0
 40
1
 40
1
 40
1
 40
1
 10
-3.900000
 20
-1.732049
 30
0.0
 10
-4.518802
 20
-2.089315
 30
0.0
 10
-5.281198
 20
-2.089315
 30
0.0
 10
-5.900000
 20
-1.732049
 30
0.0
  0
SPLINE
  5
124
100
AcDbEntity
  8
Layer_1
 62
7
100
AcDbSpline
 70
8
 71
3
 72
8
 73
4
 74
0
 40
0
 40
0
 40
0
 40
0
 40
1
 40
1
 40
1
 40
1
 10
-5.900000
 20
-1.732049
 30
0.0
 10
-6.518802
 20
-1.374784
 30
0.0
 10
-6.900000
 20
-0.714530
 30
0.0
 10
-6.900000
 20
0.000002
 30
0.0
  0
SPLINE
  5
125
100
AcDbEntity
  8
Layer_1
 62
7
100
AcDbSpline
 70
8
 71
3
 72
8
 73
4
 74
0
 40
0
 40
0
 40
0
 40
0
 40
1
 40
1
 40
1
 40
1
 10
-6.900000
 20
0.000002
 30
0.0
 10
-6.900000
 20
0.714533
 30
0.0
 10
-6.518802
 20
1.374787
 30
0.0
 10
-5.900000
 20
1.732052
 30
0.0
  0
SPLINE
  5
126
100
AcDbEntity
  8
Layer_1
 62
7
100
AcDbSpline
 70
8
 71
3
 72
8
 73
4
 74
0
 40
0
 40
0
 40
0
 40
0
 40
1
 40
1
 40
1
 40
1
 10
-5.900000
 20
1.732052
 30
0.0
 10
-5.281198
 20
2.089318
 30
0.0
 10
-4.518802
 20
2.089318
 30
0.0
 10
-3.900000
 20
1.732052
 30
0.0
  0
SPLINE
  5
127
100
AcDbEntity
  8
Layer_1
 62
7
100
AcDbSpline
 70
8
 71
3
 72
8
 73
4
 74
0
 40
0
 40
0
 40
0
 40
0
 40
1
 40
1
 40
1
 40
1
 10
-3.900000
 20
1.732052
 30
0.0
 10
-3.281198
 20
1.374787
 30
0.0
 10
-2.900000
 20
0.714533
 30
0.0
 10
-2.900000
 20
0.000002
 30
0.0
  0
LINE
  5
128
100
AcDbEntity
  8
Layer_1
 62
7
100
AcDbLine
 10
-2.900000
 20
0.000002
 30
0.0
 11
-2.900000
 21
0.000002
 31
0.0
  0
SPLINE
  5
129
100
AcDbEntity
  8
Layer_1
 62
7
100
AcDbSpline
 70
8
 71
3
 72
8
 73
4
 74
0
 40
0
 40
0
 40
0
 40
0
 40
1
 40
1
 40
1
 40
1
 10
2.500000
 20
10.000000
 30
0.0
 10
2.500000
 20
9.106836
 30
0.0
 10
2.023503
 20
8.281518
 30
0.0
 10
1.250000
 20
7.834936
 30
0.0
  0
SPLINE
  5
12a
100
AcDbEntity
  8
Layer_1
 62
7
100
AcDbSpline
 70
8
 71
3
 72
8
 73
4
 74
0
 40
0
 40
0
 40
0
 40
0
 40
1
 40
1
 40
1
 40
1
 10
1.250000
 20
7.834936
 30
0.0
 10
0.476497
 20
7.388354
 30
0.0
 10
-0.476497
 20
7.388354
 30
0.0
 10
-1.250000
 20
7.834936
 30
0.0
  0
SPLINE
  5
12b
100
AcDbEntity
  8
Layer_1
 62
7
100
AcDbSpline
 70
8
 71
3
 72
8
 73
4
 74
0
 40
0
 40
0
 40
0
 40
0
 40
1
 40
1
 40
1
 40
1
 10
-1.250000
 20
7.834936
 30
0.0
 10
-2.023503
 20
8.281518
 30
0.0
 10
-2.500000
 20
9.106836
 30
0.0
 10
-2.500000
 20
10.000000
 30
0.0
  0
SPLINE
  5
12c
100
AcDbEntity
  8
Layer_1
 62
7
100
AcDbSpline
 70
8
 71
3
 72
8
 73
4
 74
0
 40
0
 40
0
 40
0
 40
0
 40
1
 40
1
 40
1
 40
1
 10
-2.500000
 20
10.000000
 30
0.0
 10
-2.500000
 20
10.893164
 30
0.0
 10
-2.023503
 20
11.718481
 30
0.0
 10
-1.250000
 20
12.165063
 30
0.0
  0
SPLINE
  5
12d
100
AcDbEntity
  8
Layer_1
 62
7
100
AcDbSpline
 70
8
 71
3
 72
8
 73
4
 74
0
 40
0
 40
0
 40
0
 40
0
 40
1
 40
1
 40
1
 40
1
 10
-1.250000
 20
12.165063
 30
0.0
 10
-0.476497
 20
12.611645
 30
0.0
 10
0.476497
 20
12.611645
 30
0.0
 10
1.250000
 20
12.165063
 30
0.0
  0
SPLINE
  5
12e
100
AcDbEntity
  8
Layer_1
 62
7
100
AcDbSpline
 70
8
 71
3
 72
8
 73
4
 74
0
 40
0
 40
0
 40
0
 40
0
 40
1
 40
1
 40
1
 40
1
 10
1.250000
 20
12.165063
 30
0.0
 10
2.023503
 20
11.718481
 30
0.0
 10
2.500000
 20
10.893164
 30
0.0
 10
2.500000
 20
10.000000
 30
0.0
  0
LINE
  5
12f
100
AcDbEntity
  8
Layer_1
 62
7
100
AcDbLine
 10
2.500000
 20
10.000000
 30
0.0
 11
2.500000
 21
10.000000
 31
0.0
  0
SPLINE
  5
130
100
AcDbEntity
  8
Layer_1
 62
7
100
AcDbSpline
 70
8
 71
3
 72
8
 73
4
 74
0
 40
0
 40
0
 40
0
 40
0
 40
1
 40
1
 40
1
 40
1
 10
5.000000
 20
-10.000000
 30
0.0
 10
5.000000
 20
-11.786328
 30
0.0
 10
4.047006
 20
-13.436963
 30
0.0
 10
2.500000
 20
-14.330127
 30
0.0
  0
SPLINE
  5
131
100
AcDbEntity
  8
Layer_1
 62
7
100
AcDbSpline
 70
8
 71
3
 72
8
 73
4
 74
0
 40
0
 40
0
 40
0
 40
0
 40
1
 40
1
 40
1
 40
1
 10
2.500000
 20
-14.330127
 30
0.0
 10
0.952995
 20
-15.223291
 30
0.0
 10
-0.952995
 20
-15.223291
 30
0.0
 10
-2.500000
 20
-14.330127
 30
0.0
  0
SPLINE
  5
132
100
AcDbEntity
  8
Layer_1
 62
7
100
AcDbSpline
 70
8
 71
3
 72
8
 73
4
 74
0
 40
0
 40
0
 40
0
 40
0
 40
1
 40
1
 40
1
 40
1
 10
-2.500000
 20
-14.330127
 30
0.0
 10
-4.047006
 20
-13.436963
 30
0.0
 10
-5.000000
 20
-11.786328
 30
0.0
 10
-5.000000
 20
-10.000000
 30
0.0
  0
SPLINE
  5
133
100
AcDbEntity
  8
Layer_1
 62
7
100
AcDbSpline
 70
8
 71
3
 72
8
 73
4
 74
0
 40
0
 40
0
 40
0
 40
0
 40
1
 40
1
 40
1
 40
1
 10
-5.000000
 20
-10.000000
 30
0.0
 10
-5.000000
 20
-8.213672
 30
0.0
 10
-4.047006
 20
-6.563037
 30
0.0
 10
-2.500000
 20
-5.669873
 30
0.0
  0
SPLINE
  5
134
100
AcDbEntity
  8
Layer_1
 62
7
100
AcDbSpline
 70
8
 71
3
 72
8
 73
4
 74
0
 40
0
 40
0
 40
0
 40
0
 40
1
 40
1
 40
1
 40
1
 10
-2.500000
 20
-5.669873
 30
0.0
 10
-0.952995
 20
-4.776709
 30
0.0
 10
0.952995
 20
-4.776709
 30
0.0
 10
2.500000
 20
-5.669873
 30
0.0
  0
SPLINE
  5
135
100
AcDbEntity
  8
Layer_1
 62
7
100
AcDbSpline
 70
8
 71
3
 72
8
 73
4
 74
0
 40
0
 40
0
 40
0
 40
0
 40
1
 40
1
 40
1
 40
1
 10
2.500000
 20
-5.669873
 30
0.0
 10
4.047006
 20
-6.563037
 30
0.0
 10
5.000000
 20
-8.213672
 30
0.0
 10
5.000000
 20
-10.000000
 30
0.0
  0
LINE
  5
136
100
AcDbEntity
  8
Layer_1
 62
7
100
AcDbLine
 10
5.000000
 20
-10.000000
 30
0.0
 11
5.000000
 21
-10.000000
 31
0.0
  0
SPLINE
  5
137
100
AcDbEntity
  8
Layer_1
 62
7
100
AcDbSpline
 70
8
 71
3
 72
8
 73
4
 74
0
 40
0
 40
0
 40
0
 40
0
 40
1
 40
1
 40
1
 40
1
 10
5.000000
 20
10.000000
 30
0.0
 10
5.000000
 20
8.213672
 30
0.0
 10
4.047006
 20
6.563037
 30
0.0
 10
2.500000
 20
5.669873
 30
0.0
  0
SPLINE
  5
138
100
AcDbEntity
  8
Layer_1
 62
7
100
AcDbSpline
 70
8
 71
3
 72
8
 73
4
 74
0
 40
0
 40
0
 40
0
 40
0
 40
1
 40
1
 40
1
 40
1
 10
2.500000
 20
5.669873
 30
0.0
 10
0.952995
 20
4.776709
 30
0.0
 10
-0.952995
 20
4.776709
 30
0.0
 10
-2.500000
 20
5.669873
 30
0.0
  0
SPLINE
  5
139
100
AcDbEntity
  8
Layer_1
 62
7
100
AcDbSpline
 70
8
 71
3
 72
8
 73
4
 74
0
 40
0
 40
0
 40
0
 40
0
 40
1
 40
1
 40
1
 40
1
 10
-2.500000
 20
5.669873
 30
0.0
 10
-4.047006
 20
6.563037
 30
0.0
 10
-5.000000
 20
8.213672
 30
0.0
 10
-5.000000
 20
10.000000
 30
0.0
  0
SPLINE
  5
13a
100
AcDbEntity
  8
Layer_1
 62
7
100
AcDbSpline
 70
8
 71
3
 72
8
 73
4
 74
0
 40
0
 40
0
 40
0
 40
0
 40
1
 40
1
 40
1
 40
1
 10
-5.000000
 20
10.000000
 30
0.0
 10
-5.000000
 20
11.786328
 30
0.0
 10
-4.047006
 20
13.436963
 30
0.0
 10
-2.500000
 20
14.330127
 30
0.0
  0
SPLINE
  5
13b
100
AcDbEntity
  8
Layer_1
 62
7
100
AcDbSpline
 70
8
 71
3
 72
8
 73
4
 74
0
 40
0
 40
0
 40
0
 40
0
 40
1
 40
1
 40
1
 40
1
 10
-2.500000
 20
14.330127
 30
0.0
 10
-0.952995
 20
15.223291
 30
0.0
 10
0.952995
 20
15.223291
 30
0.0
 10
2.500000
 20
14.330127
 30
0.0
  0
SPLINE
  5
13c
100
AcDbEntity
  8
Layer_1
 62
7
100
AcDbSpline
 70
8
 71
3
 72
8
 73
4
 74
0
 40
0
 40
0
 40
0
 40
0
 40
1
 40
1
 40
1
 40
1
 10
2.500000
 20
14.330127
 30
0.0
 10
4.047006
 20
13.436963
 30
0.0
 10
5.000000
 20
11.786328
 30
0.0
 10
5.000000
 20
10.000000
 30
0.0
  0
LINE
  5
13d
100
AcDbEntity
  8
Layer_1
 62
7
100
AcDbLine
 10
5.000000
 20
10.000000
 30
0.0
 11
5.000000
 21
10.000000
 31
0.0
  0
SPLINE
  5
13e
100
AcDbEntity
  8
Layer_1
 62
7
100
AcDbSpline
 70
8
 71
3
 72
8
 73
4
 74
0
 40
0
 40
0
 40
0
 40
0
 40
1
 40
1
 40
1
 40
1
 10
-1.995208
 20
18.007432
 30
0.0
 10
-2.823636
 20
18.007432
 30
0.0
 10
-3.494514
 20
17.327733
 30
0.0
 10
-3.494514
 20
16.499307
 30
0.0
  0
SPLINE
  5
13f
100
AcDbEntity
  8
Layer_1
 62
7
100
AcDbSpline
 70
8
 71
3
 72
8
 73
4
 74
0
 40
0
 40
0
 40
0
 40
0
 40
1
 40
1
 40
1
 40
1
 10
-3.494514
 20
16.499307
 30
0.0
 10
-3.494514
 20
15.670880
 30
0.0
 10
-2.823636
 20
15.000001
 30
0.0
 10
-1.995208
 20
15.000001
 30
0.0
  0
LINE
  5
140
100
AcDbEntity
  8
Layer_1
 62
7
100
AcDbLine
 10
-1.995208
 20
15.000001
 30
0.0
 11
2.000000
 21
15.000001
 31
0.0
  0
SPLINE
  5
141
100
AcDbEntity
  8
Layer_1
 62
7
100
AcDbSpline
 70
8
 71
3
 72
8
 73
4
 74
0
 40
0
 40
0
 40
0
 40
0
 40
1
 40
1
 40
1
 40
1
 10
2.000000
 20
15.000001
 30
0.0
 10
2.828427
 20
15.000001
 30
0.0
 10
3.499306
 20
15.670880
 30
0.0
 10
3.499306
 20
16.499307
 30
0.0
  0
SPLINE
  5
142
100
AcDbEntity
  8
Layer_1
 62
7
100
AcDbSpline
 70
8
 71
3
 72
8
 73
4
 74
0
 40
0
 40
0
 40
0
 40
0
 40
1
 40
1
 40
1
 40
1
 10
3.499306
 20
16.499307
 30
0.0
 10
3.499306
 20
17.327733
 30
0.0
 10
2.828427
 20
18.007432
 30
0.0
 10
2.000000
 20
18.007432
 30
0.0
  0
LINE
  5
143
100
AcDbEntity
  8
Layer_1
 62
7
100
AcDbLine
 10
2.000000
 20
18.007432
 30
0.0
 11
-1.995208
 21
18.007432
 31
0.0
  0
LINE
  5
144
100
AcDbEntity
  8
Layer_1
 62
7
100
AcDbLine
 10
-1.995208
 20
18.007432
 30
0.0
 11
-1.995208
 21
18.007432
 31
0.0
  0
SPLINE
  5
145
100
AcDbEntity
  8
Layer_1
 62
7
100
AcDbSpline
 70
8
 71
3
 72
8
 73
4
 74
0
 40
0
 40
0
 40
0
 40
0
 40
1
 40
1
 40
1
 40
1
 10
-1.995208
 20
-1.992579
 30
0.0
 10
-2.823636
 20
-1.992579
 30
0.0
 10
-3.494514
 20
-2.672255
 30
0.0
 10
-3.494514
 20
-3.500690
 30
0.0
  0
SPLINE
  5
146
100
AcDbEntity
  8
Layer_1
 62
7
100
AcDbSpline
 70
8
 71
3
 72
8
 73
4
 74
0
 40
0
 40
0
 40
0
 40
0
 40
1
 40
1
 40
1
 40
1
 10
-3.494514
 20
-3.500690
 30
0.0
 10
-3.494514
 20
-4.329125
 30
0.0
 10
-2.823636
 20
-4.999996
 30
0.0
 10
-1.995208
 20
-4.999996
 30
0.0
  0
LINE
  5
147
100
AcDbEntity
  8
Layer_1
 62
7
100
AcDbLine
 10
-1.995208
 20
-4.999996
 30
0.0
 11
2.000000
 21
-4.999996
 31
0.0
  0
SPLINE
  5
148
100
AcDbEntity
  8
Layer_1
 62
7
100
AcDbSpline
 70
8
 71
3
 72
8
 73
4
 74
0
 40
0
 40
0
 40
0
 40
0
 40
1
 40
1
 40
1
 40
1
 10
2.000000
 20
-4.999996
 30
0.0
 10
2.828427
 20
-4.999996
 30
0.0
 10
3.499306
 20
-4.329125
 30
0.0
 10
3.499306
 20
-3.500690
 30
0.0
  0
SPLINE
  5
149
100
AcDbEntity
  8
Layer_1
 62
7
100
AcDbSpline
 70
8
 71
3
 72
8
 73
4
 74
0
 40
0
 40
0
 40
0
 40
0
 40
1
 40
1
 40
1
 40
1
 10
3.499306
 20
-3.500690
 30
0.0
 10
3.499306
 20
-2.672255
 30
0.0
 10
2.828427
 20
-1.992579
 30
0.0
 10
2.000000
 20
-1.992579
 30
0.0
  0
LINE
  5
14a
100
AcDbEntity
  8
Layer_1
 62
7
100
AcDbLine
 10
2.000000
 20
-1.992579
 30
0.0
 11
-1.995208
 21
-1.992579
 31
0.0
  0
LINE
  5
14b
100
AcDbEntity
  8
Layer_1
 62
7
100
AcDbLine
 10
-1.995208
 20
-1.992579
 30
0.0
 11
-1.995208
 21
-1.992579
 31
0.0
  0
SPLINE
  5
14c
100
AcDbEntity
  8
Layer_1
 62
7
100
AcDbSpline
 70
8
 71
3
 72
8
 73
4
 74
0
 40
0
 40
0
 40
0
 40
0
 40
1
 40
1
 40
1
 40
1
 10
-1.993194
 20
18.005620
 30
0.0
 10
-2.821622
 20
18.005620
 30
0.0
 10
-3.492500
 20
17.325921
 30
0.0
 10
-3.492500
 20
16.497495
 30
0.0
  0
LINE
  5
14d
100
AcDbEntity
  8
Layer_1
 62
7
100
AcDbLine
 10
-3.492500
 20
16.497495
 30
0.0
 11
-3.501319
 21
16.497495
 31
0.0
  0
LINE
  5
14e
100
AcDbEntity
  8
Layer_1
 62
7
100
AcDbLine
 10
-3.501319
 20
16.497495
 30
0.0
 11
-3.501319
 21
-3.496186
 31
0.0
  0
LINE
  5
14f
100
AcDbEntity
  8
Layer_1
 62
7
100
AcDbLine
 10
-3.501319
 20
-3.496186
 30
0.0
 11
-3.492500
 21
-3.496186
 31
0.0
  0
SPLINE
  5
150
100
AcDbEntity
  8
Layer_1
 62
7
100
AcDbSpline
 70
8
 71
3
 72
8
 73
4
 74
0
 40
0
 40
0
 40
0
 40
0
 40
1
 40
1
 40
1
 40
1
 10
-3.492500
 20
-3.496186
 30
0.0
 10
-3.492516
 20
-3.499064
 30
0.0
 10
-3.492500
 20
-3.502141
 30
0.0
 10
-3.492500
 20
-3.504991
 30
0.0
  0
SPLINE
  5
151
100
AcDbEntity
  8
Layer_1
 62
7
100
AcDbSpline
 70
8
 71
3
 72
8
 73
4
 74
0
 40
0
 40
0
 40
0
 40
0
 40
1
 40
1
 40
1
 40
1
 10
-3.492500
 20
-3.504991
 30
0.0
 10
-3.492500
 20
-4.333426
 30
0.0
 10
-2.821622
 20
-5.004297
 30
0.0
 10
-1.993194
 20
-5.004297
 30
0.0
  0
LINE
  5
152
100
AcDbEntity
  8
Layer_1
 62
7
100
AcDbLine
 10
-1.993194
 20
-5.004297
 30
0.0
 11
2.002014
 21
-5.004297
 31
0.0
  0
SPLINE
  5
153
100
AcDbEntity
  8
Layer_1
 62
7
100
AcDbSpline
 70
8
 71
3
 72
8
 73
4
 74
0
 40
0
 40
0
 40
0
 40
0
 40
1
 40
1
 40
1
 40
1
 10
2.002014
 20
-5.004297
 30
0.0
 10
2.830441
 20
-5.004297
 30
0.0
 10
3.501319
 20
-4.333426
 30
0.0
 10
3.501319
 20
-3.504991
 30
0.0
  0
SPLINE
  5
154
100
AcDbEntity
  8
Layer_1
 62
7
100
AcDbSpline
 70
8
 71
3
 72
8
 73
4
 74
0
 40
0
 40
0
 40
0
 40
0
 40
1
 40
1
 40
1
 40
1
 10
3.501319
 20
-3.504991
 30
0.0
 10
3.501319
 20
-3.502112
 30
0.0
 10
3.501336
 20
-3.499036
 30
0.0
 10
3.501319
 20
-3.496186
 30
0.0
  0
LINE
  5
155
100
AcDbEntity
  8
Layer_1
 62
7
100
AcDbLine
 10
3.501319
 20
-3.496186
 30
0.0
 11
3.501319
 21
16.497495
 31
0.0
  0
SPLINE
  5
156
100
AcDbEntity
  8
Layer_1
 62
7
100
AcDbSpline
 70
8
 71
3
 72
8
 73
4
 74
0
 40
0
 40
0
 40
0
 40
0
 40
1
 40
1
 40
1
 40
1
 10
3.501319
 20
16.497495
 30
0.0
 10
3.501319
 20
17.325921
 30
0.0
 10
2.830441
 20
18.005620
 30
0.0
 10
2.002014
 20
18.005620
 30
0.0
  0
LINE
  5
157
100
AcDbEntity
  8
Layer_1
 62
7
100
AcDbLine
 10
2.002014
 20
18.005620
 30
0.0
 11
-1.993194
 21
18.005620
 31
0.0
  0
LINE
  5
158
100
AcDbEntity
  8
Layer_1
 62
7
100
AcDbLine
 10
-1.993194
 20
18.005620
 30
0.0
 11
-1.993194
 21
18.005620
 31
0.0
  0
SPLINE
  5
159
100
AcDbEntity
  8
Layer_1
 62
7
100
AcDbSpline
 70
8
 71
3
 72
8
 73
4
 74
0
 40
0
 40
0
 40
0
 40
0
 40
1
 40
1
 40
1
 40
1
 10
-0.200000
 20
0.000001
 30
0.0
 10
-0.200000
 20
-1.679147
 30
0.0
 10
-1.095815
 20
-3.230744
 30
0.0
 10
-2.550000
 20
-4.070318
 30
0.0
  0
SPLINE
  5
15a
100
AcDbEntity
  8
Layer_1
 62
7
100
AcDbSpline
 70
8
 71
3
 72
8
 73
4
 74
0
 40
0
 40
0
 40
0
 40
0
 40
1
 40
1
 40
1
 40
1
 10
-2.550000
 20
-4.070318
 30
0.0
 10
-4.004185
 20
-4.909892
 30
0.0
 10
-5.795815
 20
-4.909892
 30
0.0
 10
-7.250000
 20
-4.070318
 30
0.0
  0
SPLINE
  5
15b
100
AcDbEntity
  8
Layer_1
 62
7
100
AcDbSpline
 70
8
 71
3
 72
8
 73
4
 74
0
 40
0
 40
0
 40
0
 40
0
 40
1
 40
1
 40
1
 40
1
 10
-7.250000
 20
-4.070318
 30
0.0
 10
-8.704185
 20
-3.230744
 30
0.0
 10
-9.600000
 20
-1.679147
 30
0.0
 10
-9.600000
 20
0.000001
 30
0.0
  0
SPLINE
  5
15c
100
AcDbEntity
  8
Layer_1
 62
7
100
AcDbSpline
 70
8
 71
3
 72
8
 73
4
 74
0
 40
0
 40
0
 40
0
 40
0
 40
1
 40
1
 40
1
 40
1
 10
-9.600000
 20
0.000001
 30
0.0
 10
-9.600000
 20
1.679150
 30
0.0
 10
-8.704185
 20
3.230747
 30
0.0
 10
-7.250000
 20
4.070321
 30
0.0
  0
SPLINE
  5
15d
100
AcDbEntity
  8
Layer_1
 62
7
100
AcDbSpline
 70
8
 71
3
 72
8
 73
4
 74
0
 40
0
 40
0
 40
0
 40
0
 40
1
 40
1
 40
1
 40
1
 10
-7.250000
 20
4.070321
 30
0.0
 10
-5.795815
 20
4.909895
 30
0.0
 10
-4.004185
 20
4.909895
 30
0.0
 10
-2.550000
 20
4.070321
 30
0.0
  0
SPLINE
  5
15e
100
AcDbEntity
  8
Layer_1
 62
7
100
AcDbSpline
 70
8
 71
3
 72
8
 73
4
 74
0
 40
0
 40
0
 40
0
 40
0
 40
1
 40
1
 40
1
 40
1
 10
-2.550000
 20
4.070321
 30
0.0
 10
-1.095815
 20
3.230747
 30
0.0
 10
-0.200000
 20
1.679150
 30
0.0
 10
-0.200000
 20
0.000001
 30
0.0
  0
LINE
  5
15f
100
AcDbEntity
  8
Layer_1
 62
7
100
AcDbLine
 10
-0.200000
 20
0.000001
 30
0.0
 11
-0.200000
 21
0.000001
 31
0.0
  0
LINE
  5
160
100
AcDbEntity
  8
end_stop_profile
 62
7
100
AcDbLine
 10
-9.000000
 20
20.000005
 30
0.0
 11
0.000000
 21
20.000008
 31
0.0
  0
LINE
  5
161
100
AcDbEntity
  8
end_stop_profile
 62
7
100
AcDbLine
 10
0.000000
 20
20.000008
 30
0.0
 11
10.000000
 21
20.000000
 31
0.0
  0
LINE
  5
162
100
AcDbEntity
  8
end_stop_profile
 62
7
100
AcDbLine
 10
10.000000
 20
20.000000
 30
0.0
 11
25.000000
 21
15.000001
 31
0.0
  0
LINE
  5
163
100
AcDbEntity
  8
end_stop_profile
 62
7
100
AcDbLine
 10
25.000000
 20
15.000001
 30
0.0
 11
25.000000
 21
-14.999998
 31
0.0
  0
LINE
  5
164
100
AcDbEntity
  8
end_stop_profile
 62
7
100
AcDbLine
 10
25.000000
 20
-14.999998
 30
0.0
 11
10.000000
 21
-20.000000
 31
0.0
  0
LINE
  5
165
100
AcDbEntity
  8
end_stop_profile
 62
7
100
AcDbLine
 10
10.000000
 20
-20.000000
 30
0.0
 11
0.000000
 21
-19.999988
 31
0.0
  0
LINE
  5
166
100
AcDbEntity
  8
end_stop_profile
 62
7
100
AcDbLine
 10
0.000000
 20
-19.999988
 30
0.0
 11
-9.000000
 21
-19.999988
 31
0.0
  0
SPLINE
  5
167
100
AcDbEntity
  8
end_stop_profile
 62
7
100
AcDbSpline
 70
8
 71
3
 72
8
 73
4
 74
0
 40
0
 40
0
 40
0
 40
0
 40
1
 40
1
 40
1
 40
1
 10
-9.000000
 20
-19.999988
 30
0.0
 10
-10.000000
 20
-19.999988
 30
0.0
 10
-10.000000
 20
-20.003657
 30
0.0
 10
-10.000000
 20
-18.999990
 30
0.0
  0
LINE
  5
168
100
AcDbEntity
  8
end_stop_profile
 62
7
100
AcDbLine
 10
-10.000000
 20
-18.999990
 30
0.0
 11
-10.000000
 21
0.000000
 31
0.0
  0
LINE
  5
169
100
AcDbEntity
  8
end_stop_profile
 62
7
100
AcDbLine
 10
-10.000000
 20
0.000000
 30
0.0
 11
-10.000000
 21
19.000007
 31
0.0
  0
SPLINE
  5
16a
100
AcDbEntity
  8
end_stop_profile
 62
7
100
AcDbSpline
 70
8
 71
3
 72
8
 73
4
 74
0
 40
0
 40
0
 40
0
 40
0
 40
1
 40
1
 40
1
 40
1
 10
-10.000000
 20
19.000007
 30
0.0
 10
-10.000000
 20
20.000005
 30
0.0
 10
-10.000000
 20
20.000005
 30
0.0
 10
-9.000000
 20
20.000005
 30
0.0
  0
LINE
  5
16b
100
AcDbEntity
  8
end_stop_profile
 62
7
100
AcDbLine
 10
-9.000000
 20
20.000005
 30
0.0
 11
-9.000000
 21
20.000005
 31
0.0
  0
ENDSEC
  0
SECTION
  2
OBJECTS
  0
DICTIONARY
  5
C
330
0
100
AcDbDictionary
  3
ACAD_GROUP
350
D
  3
ACAD_MLINESTYLE
350
17
  0
DICTIONARY
  5
D
330
C
100
AcDbDictionary
  0
DICTIONARY
  5
1A
330
C
100
AcDbDictionary
  0
DICTIONARY
  5
17
330
C
100
AcDbDictionary
  3
STANDARD
350
18
  0
DICTIONARY
  5
19
330
C
100
AcDbDictionary
  0
ENDSEC
  0
EOF
