  0
SECTION
  2
HEADER
  9
$ACADVER
  1
AC1014
  9
$HANDSEED
  5
FFFF
  9
$MEASUREMENT
 70
     1
  0
ENDSEC
  0
SECTION
  2
TABLES
  0
TABLE
  2
VPORT
  5
8
330
0
100
AcDbSymbolTable
 70
     4
  0
VPORT
  5
2E
330
8
100
AcDbSymbolTableRecord
100
AcDbViewportTableRecord
  2
*ACTIVE
 70
     0
 10
0.0
 20
0.0
 11
1.0
 21
1.0
 12
210.0
 22
148.5
 13
0.0
 23
0.0
 14
10.0
 24
10.0
 15
10.0
 25
10.0
 16
0.0
 26
0.0
 36
1.0
 17
0.0
 27
0.0
 37
0.0
 40
341.0
 41
1.24
 42
50.0
 43
0.0
 44
0.0
 50
0.0
 51
0.0
 71
     0
 72
   100
 73
     1
 74
     3
 75
     0
 76
     0
 77
     0
 78
     0
  0
ENDTAB
  0
TABLE
  2
LTYPE
  5
5
330
0
100
AcDbSymbolTable
 70
     1
  0
LTYPE
  5
14
330
5
100
AcDbSymbolTableRecord
100
AcDbLinetypeTableRecord
  2
BYBLOCK
 70
     0
  3

 72
    65
 73
     0
 40
0.0
  0
LTYPE
  5
15
330
5
100
AcDbSymbolTableRecord
100
AcDbLinetypeTableRecord
  2
BYLAYER
 70
     0
  3

 72
    65
 73
     0
 40
0.0
  0
LTYPE
  5
16
330
5
100
AcDbSymbolTableRecord
100
AcDbLinetypeTableRecord
  2
CONTINUOUS
 70
     0
  3
Solid line
 72
    65
 73
     0
 40
0.0
  0
ENDTAB
  0
TABLE
  2
LAYER
  5
2
100
AcDbSymbolTable
 70
1
  0
LAYER
  5
50
100
AcDbSymbolTableRecord
100
AcDbLayerTableRecord
  2
0
 70
0
  6
CONTINUOUS
  0
ENDTAB
  0
TABLE
  2
STYLE
  5
3
330
0
100
AcDbSymbolTable
 70
     1
  0
STYLE
  5
11
330
3
100
AcDbSymbolTableRecord
100
AcDbTextStyleTableRecord
  2
STANDARD
 70
     0
 40
0.0
 41
1.0
 50
0.0
 71
     0
 42
2.5
  3
txt
  4

  0
ENDTAB
  0
TABLE
  2
VIEW
  5
6
330
0
100
AcDbSymbolTable
 70
     0
  0
ENDTAB
  0
TABLE
  2
UCS
  5
7
330
0
100
AcDbSymbolTable
 70
     0
  0
ENDTAB
  0
TABLE
  2
APPID
  5
9
330
0
100
AcDbSymbolTable
 70
     2
  0
APPID
  5
12
330
9
100
AcDbSymbolTableRecord
100
AcDbRegAppTableRecord
  2
ACAD
 70
     0
  0
ENDTAB
  0
TABLE
  2
DIMSTYLE
  5
A
330
0
100
AcDbSymbolTable
 70
     1
  0
DIMSTYLE
105
27
330
A
100
AcDbSymbolTableRecord
100
AcDbDimStyleTableRecord
  2
ISO-25
 70
     0
  3

  4

  5

  6

  7

 40
1.0
 41
2.5
 42
0.625
 43
3.75
 44
1.25
 45
0.0
 46
0.0
 47
0.0
 48
0.0
140
2.5
141
2.5
142
0.0
143
0.03937007874016
144
1.0
145
0.0
146
1.0
147
0.625
 71
     0
 72
     0
 73
     0
 74
     0
 75
     0
 76
     0
 77
     1
 78
     8
170
     0
171
     3
172
     1
173
     0
174
     0
175
     0
176
     0
177
     0
178
     0
270
     2
271
     2
272
     2
273
     2
274
     3
340
11
275
     0
280
     0
281
     0
282
     0
283
     0
284
     8
285
     0
286
     0
287
     3
288
     0
  0
ENDTAB
  0
TABLE
  2
BLOCK_RECORD
  5
1
330
0
100
AcDbSymbolTable
 70
     1
  0
BLOCK_RECORD
  5
1F
330
1
100
AcDbSymbolTableRecord
100
AcDbBlockTableRecord
  2
*MODEL_SPACE
  0
BLOCK_RECORD
  5
1B
330
1
100
AcDbSymbolTableRecord
100
AcDbBlockTableRecord
  2
*PAPER_SPACE
  0
ENDTAB
  0
ENDSEC
  0
SECTION
  2
BLOCKS
  0
BLOCK
  5
20
330
1F
100
AcDbEntity
  8
0
100
AcDbBlockBegin
  2
*MODEL_SPACE
 70
     0
 10
0.0
 20
0.0
 30
0.0
  3
*MODEL_SPACE
  1

  0
ENDBLK
  5
21
330
1F
100
AcDbEntity
  8
0
100
AcDbBlockEnd
  0
BLOCK
  5
1C
330
1B
100
AcDbEntity
 67
     1
  8
0
100
AcDbBlockBegin
  2
*PAPER_SPACE
  1

  0
ENDBLK
  5
1D
330
1B
100
AcDbEntity
 67
     1
  8
0
100
AcDbBlockEnd
  0
ENDSEC
  0
SECTION
  2
ENTITIES
  0
LINE
  5
100
100
AcDbEntity
  8
0
 62
7
100
AcDbLine
 10
0.000000
 20
0.000001
 30
0.0
 11
0.000000
 21
75.999998
 31
0.0
  0
LINE
  5
101
100
AcDbEntity
  8
0
 62
7
100
AcDbLine
 10
0.000000
 20
75.999998
 30
0.0
 11
16.000000
 21
76.000004
 31
0.0
  0
LINE
  5
102
100
AcDbEntity
  8
0
 62
7
100
AcDbLine
 10
16.000000
 20
76.000004
 30
0.0
 11
16.000000
 21
64.000005
 31
0.0
  0
LINE
  5
103
100
AcDbEntity
  8
0
 62
7
100
AcDbLine
 10
16.000000
 20
64.000005
 30
0.0
 11
22.000000
 21
64.000005
 31
0.0
  0
LINE
  5
104
100
AcDbEntity
  8
0
 62
7
100
AcDbLine
 10
22.000000
 20
64.000005
 30
0.0
 11
22.000000
 21
76.000004
 31
0.0
  0
LINE
  5
105
100
AcDbEntity
  8
0
 62
7
100
AcDbLine
 10
22.000000
 20
76.000004
 30
0.0
 11
61.749999
 21
75.999998
 31
0.0
  0
LINE
  5
106
100
AcDbEntity
  8
0
 62
7
100
AcDbLine
 10
61.749999
 20
75.999998
 30
0.0
 11
61.749999
 21
89.999999
 31
0.0
  0
LINE
  5
107
100
AcDbEntity
  8
0
 62
7
100
AcDbLine
 10
61.749999
 20
89.999999
 30
0.0
 11
103.750000
 21
89.999999
 31
0.0
  0
LINE
  5
108
100
AcDbEntity
  8
0
 62
7
100
AcDbLine
 10
103.750000
 20
89.999999
 30
0.0
 11
103.750000
 21
75.999998
 31
0.0
  0
LINE
  5
109
100
AcDbEntity
  8
0
 62
7
100
AcDbLine
 10
103.750000
 20
75.999998
 30
0.0
 11
115.000001
 21
75.999998
 31
0.0
  0
LINE
  5
10a
100
AcDbEntity
  8
0
 62
7
100
AcDbLine
 10
115.000001
 20
75.999998
 30
0.0
 11
115.000001
 21
0.000001
 31
0.0
  0
LINE
  5
10b
100
AcDbEntity
  8
0
 62
7
100
AcDbLine
 10
115.000001
 20
0.000001
 30
0.0
 11
0.000000
 21
0.000001
 31
0.0
  0
LINE
  5
10c
100
AcDbEntity
  8
0
 62
7
100
AcDbLine
 10
10.526000
 20
6.442005
 30
0.0
 11
10.471000
 21
6.167008
 31
0.0
  0
LINE
  5
10d
100
AcDbEntity
  8
0
 62
7
100
AcDbLine
 10
10.471000
 20
6.167008
 30
0.0
 11
10.395000
 21
5.897006
 31
0.0
  0
LINE
  5
10e
100
AcDbEntity
  8
0
 62
7
100
AcDbLine
 10
10.395000
 20
5.897006
 30
0.0
 11
10.298000
 21
5.634003
 31
0.0
  0
LINE
  5
10f
100
AcDbEntity
  8
0
 62
7
100
AcDbLine
 10
10.298000
 20
5.634003
 30
0.0
 11
10.181000
 21
5.378987
 31
0.0
  0
LINE
  5
110
100
AcDbEntity
  8
0
 62
7
100
AcDbLine
 10
10.181000
 20
5.378987
 30
0.0
 11
10.044000
 21
5.135006
 31
0.0
  0
LINE
  5
111
100
AcDbEntity
  8
0
 62
7
100
AcDbLine
 10
10.044000
 20
5.135006
 30
0.0
 11
9.888000
 21
4.902003
 31
0.0
  0
LINE
  5
112
100
AcDbEntity
  8
0
 62
7
100
AcDbLine
 10
9.888000
 20
4.902003
 30
0.0
 11
9.715000
 21
4.680995
 31
0.0
  0
LINE
  5
113
100
AcDbEntity
  8
0
 62
7
100
AcDbLine
 10
9.715000
 20
4.680995
 30
0.0
 11
9.524000
 21
4.475989
 31
0.0
  0
LINE
  5
114
100
AcDbEntity
  8
0
 62
7
100
AcDbLine
 10
9.524000
 20
4.475989
 30
0.0
 11
9.319000
 21
4.285009
 31
0.0
  0
LINE
  5
115
100
AcDbEntity
  8
0
 62
7
100
AcDbLine
 10
9.319000
 20
4.285009
 30
0.0
 11
9.098000
 21
4.112007
 31
0.0
  0
LINE
  5
116
100
AcDbEntity
  8
0
 62
7
100
AcDbLine
 10
9.098000
 20
4.112007
 30
0.0
 11
8.865000
 21
3.955994
 31
0.0
  0
LINE
  5
117
100
AcDbEntity
  8
0
 62
7
100
AcDbLine
 10
8.865000
 20
3.955994
 30
0.0
 11
8.621000
 21
3.819004
 31
0.0
  0
LINE
  5
118
100
AcDbEntity
  8
0
 62
7
100
AcDbLine
 10
8.621000
 20
3.819004
 30
0.0
 11
8.366000
 21
3.701994
 31
0.0
  0
LINE
  5
119
100
AcDbEntity
  8
0
 62
7
100
AcDbLine
 10
8.366000
 20
3.701994
 30
0.0
 11
8.103000
 21
3.604994
 31
0.0
  0
LINE
  5
11a
100
AcDbEntity
  8
0
 62
7
100
AcDbLine
 10
8.103000
 20
3.604994
 30
0.0
 11
7.833000
 21
3.528992
 31
0.0
  0
LINE
  5
11b
100
AcDbEntity
  8
0
 62
7
100
AcDbLine
 10
7.833000
 20
3.528992
 30
0.0
 11
7.558000
 21
3.473987
 31
0.0
  0
LINE
  5
11c
100
AcDbEntity
  8
0
 62
7
100
AcDbLine
 10
7.558000
 20
3.473987
 30
0.0
 11
7.280000
 21
3.440995
 31
0.0
  0
LINE
  5
11d
100
AcDbEntity
  8
0
 62
7
100
AcDbLine
 10
7.280000
 20
3.440995
 30
0.0
 11
7.000000
 21
3.429988
 31
0.0
  0
LINE
  5
11e
100
AcDbEntity
  8
0
 62
7
100
AcDbLine
 10
7.000000
 20
3.429988
 30
0.0
 11
6.720000
 21
3.440995
 31
0.0
  0
LINE
  5
11f
100
AcDbEntity
  8
0
 62
7
100
AcDbLine
 10
6.720000
 20
3.440995
 30
0.0
 11
6.442000
 21
3.473987
 31
0.0
  0
LINE
  5
120
100
AcDbEntity
  8
0
 62
7
100
AcDbLine
 10
6.442000
 20
3.473987
 30
0.0
 11
6.167000
 21
3.528992
 31
0.0
  0
LINE
  5
121
100
AcDbEntity
  8
0
 62
7
100
AcDbLine
 10
6.167000
 20
3.528992
 30
0.0
 11
5.897000
 21
3.604994
 31
0.0
  0
LINE
  5
122
100
AcDbEntity
  8
0
 62
7
100
AcDbLine
 10
5.897000
 20
3.604994
 30
0.0
 11
5.634000
 21
3.701994
 31
0.0
  0
LINE
  5
123
100
AcDbEntity
  8
0
 62
7
100
AcDbLine
 10
5.634000
 20
3.701994
 30
0.0
 11
5.379000
 21
3.819004
 31
0.0
  0
LINE
  5
124
100
AcDbEntity
  8
0
 62
7
100
AcDbLine
 10
5.379000
 20
3.819004
 30
0.0
 11
5.135000
 21
3.955994
 31
0.0
  0
LINE
  5
125
100
AcDbEntity
  8
0
 62
7
100
AcDbLine
 10
5.135000
 20
3.955994
 30
0.0
 11
4.902000
 21
4.112007
 31
0.0
  0
LINE
  5
126
100
AcDbEntity
  8
0
 62
7
100
AcDbLine
 10
4.902000
 20
4.112007
 30
0.0
 11
4.681000
 21
4.285009
 31
0.0
  0
LINE
  5
127
100
AcDbEntity
  8
0
 62
7
100
AcDbLine
 10
4.681000
 20
4.285009
 30
0.0
 11
4.476000
 21
4.475989
 31
0.0
  0
LINE
  5
128
100
AcDbEntity
  8
0
 62
7
100
AcDbLine
 10
4.476000
 20
4.475989
 30
0.0
 11
4.285000
 21
4.680995
 31
0.0
  0
LINE
  5
129
100
AcDbEntity
  8
0
 62
7
100
AcDbLine
 10
4.285000
 20
4.680995
 30
0.0
 11
4.112000
 21
4.902003
 31
0.0
  0
LINE
  5
12a
100
AcDbEntity
  8
0
 62
7
100
AcDbLine
 10
4.112000
 20
4.902003
 30
0.0
 11
3.956000
 21
5.135006
 31
0.0
  0
LINE
  5
12b
100
AcDbEntity
  8
0
 62
7
100
AcDbLine
 10
3.956000
 20
5.135006
 30
0.0
 11
3.819000
 21
5.378987
 31
0.0
  0
LINE
  5
12c
100
AcDbEntity
  8
0
 62
7
100
AcDbLine
 10
3.819000
 20
5.378987
 30
0.0
 11
3.702000
 21
5.634003
 31
0.0
  0
LINE
  5
12d
100
AcDbEntity
  8
0
 62
7
100
AcDbLine
 10
3.702000
 20
5.634003
 30
0.0
 11
3.605000
 21
5.897006
 31
0.0
  0
LINE
  5
12e
100
AcDbEntity
  8
0
 62
7
100
AcDbLine
 10
3.605000
 20
5.897006
 30
0.0
 11
3.529000
 21
6.167008
 31
0.0
  0
LINE
  5
12f
100
AcDbEntity
  8
0
 62
7
100
AcDbLine
 10
3.529000
 20
6.167008
 30
0.0
 11
3.474000
 21
6.442005
 31
0.0
  0
LINE
  5
130
100
AcDbEntity
  8
0
 62
7
100
AcDbLine
 10
3.474000
 20
6.442005
 30
0.0
 11
3.441000
 21
6.719994
 31
0.0
  0
LINE
  5
131
100
AcDbEntity
  8
0
 62
7
100
AcDbLine
 10
3.441000
 20
6.719994
 30
0.0
 11
3.429999
 21
6.999987
 31
0.0
  0
LINE
  5
132
100
AcDbEntity
  8
0
 62
7
100
AcDbLine
 10
3.429999
 20
6.999987
 30
0.0
 11
3.441000
 21
7.280008
 31
0.0
  0
LINE
  5
133
100
AcDbEntity
  8
0
 62
7
100
AcDbLine
 10
3.441000
 20
7.280008
 30
0.0
 11
3.473999
 21
7.557996
 31
0.0
  0
LINE
  5
134
100
AcDbEntity
  8
0
 62
7
100
AcDbLine
 10
3.473999
 20
7.557996
 30
0.0
 11
3.529000
 21
7.832994
 31
0.0
  0
LINE
  5
135
100
AcDbEntity
  8
0
 62
7
100
AcDbLine
 10
3.529000
 20
7.832994
 30
0.0
 11
3.604999
 21
8.102996
 31
0.0
  0
LINE
  5
136
100
AcDbEntity
  8
0
 62
7
100
AcDbLine
 10
3.604999
 20
8.102996
 30
0.0
 11
3.701999
 21
8.365999
 31
0.0
  0
LINE
  5
137
100
AcDbEntity
  8
0
 62
7
100
AcDbLine
 10
3.701999
 20
8.365999
 30
0.0
 11
3.819000
 21
8.620986
 31
0.0
  0
LINE
  5
138
100
AcDbEntity
  8
0
 62
7
100
AcDbLine
 10
3.819000
 20
8.620986
 30
0.0
 11
3.955999
 21
8.864996
 31
0.0
  0
LINE
  5
139
100
AcDbEntity
  8
0
 62
7
100
AcDbLine
 10
3.955999
 20
8.864996
 30
0.0
 11
4.112000
 21
9.097998
 31
0.0
  0
LINE
  5
13a
100
AcDbEntity
  8
0
 62
7
100
AcDbLine
 10
4.112000
 20
9.097998
 30
0.0
 11
4.284999
 21
9.319007
 31
0.0
  0
LINE
  5
13b
100
AcDbEntity
  8
0
 62
7
100
AcDbLine
 10
4.284999
 20
9.319007
 30
0.0
 11
4.476000
 21
9.524013
 31
0.0
  0
LINE
  5
13c
100
AcDbEntity
  8
0
 62
7
100
AcDbLine
 10
4.476000
 20
9.524013
 30
0.0
 11
4.680999
 21
9.714993
 31
0.0
  0
LINE
  5
13d
100
AcDbEntity
  8
0
 62
7
100
AcDbLine
 10
4.680999
 20
9.714993
 30
0.0
 11
4.901999
 21
9.887995
 31
0.0
  0
LINE
  5
13e
100
AcDbEntity
  8
0
 62
7
100
AcDbLine
 10
4.901999
 20
9.887995
 30
0.0
 11
5.134999
 21
10.044007
 31
0.0
  0
LINE
  5
13f
100
AcDbEntity
  8
0
 62
7
100
AcDbLine
 10
5.134999
 20
10.044007
 30
0.0
 11
5.378999
 21
10.180998
 31
0.0
  0
LINE
  5
140
100
AcDbEntity
  8
0
 62
7
100
AcDbLine
 10
5.378999
 20
10.180998
 30
0.0
 11
5.633999
 21
10.298007
 31
0.0
  0
LINE
  5
141
100
AcDbEntity
  8
0
 62
7
100
AcDbLine
 10
5.633999
 20
10.298007
 30
0.0
 11
5.896999
 21
10.395007
 31
0.0
  0
LINE
  5
142
100
AcDbEntity
  8
0
 62
7
100
AcDbLine
 10
5.896999
 20
10.395007
 30
0.0
 11
6.166999
 21
10.471010
 31
0.0
  0
LINE
  5
143
100
AcDbEntity
  8
0
 62
7
100
AcDbLine
 10
6.166999
 20
10.471010
 30
0.0
 11
6.441999
 21
10.525986
 31
0.0
  0
LINE
  5
144
100
AcDbEntity
  8
0
 62
7
100
AcDbLine
 10
6.441999
 20
10.525986
 30
0.0
 11
6.720000
 21
10.559006
 31
0.0
  0
LINE
  5
145
100
AcDbEntity
  8
0
 62
7
100
AcDbLine
 10
6.720000
 20
10.559006
 30
0.0
 11
7.000000
 21
10.570013
 31
0.0
  0
LINE
  5
146
100
AcDbEntity
  8
0
 62
7
100
AcDbLine
 10
7.000000
 20
10.570013
 30
0.0
 11
7.280000
 21
10.559006
 31
0.0
  0
LINE
  5
147
100
AcDbEntity
  8
0
 62
7
100
AcDbLine
 10
7.280000
 20
10.559006
 30
0.0
 11
7.557999
 21
10.525986
 31
0.0
  0
LINE
  5
148
100
AcDbEntity
  8
0
 62
7
100
AcDbLine
 10
7.557999
 20
10.525986
 30
0.0
 11
7.832999
 21
10.471010
 31
0.0
  0
LINE
  5
149
100
AcDbEntity
  8
0
 62
7
100
AcDbLine
 10
7.832999
 20
10.471010
 30
0.0
 11
8.102999
 21
10.395007
 31
0.0
  0
LINE
  5
14a
100
AcDbEntity
  8
0
 62
7
100
AcDbLine
 10
8.102999
 20
10.395007
 30
0.0
 11
8.365999
 21
10.298007
 31
0.0
  0
LINE
  5
14b
100
AcDbEntity
  8
0
 62
7
100
AcDbLine
 10
8.365999
 20
10.298007
 30
0.0
 11
8.620999
 21
10.180998
 31
0.0
  0
LINE
  5
14c
100
AcDbEntity
  8
0
 62
7
100
AcDbLine
 10
8.620999
 20
10.180998
 30
0.0
 11
8.864999
 21
10.044007
 31
0.0
  0
LINE
  5
14d
100
AcDbEntity
  8
0
 62
7
100
AcDbLine
 10
8.864999
 20
10.044007
 30
0.0
 11
9.097999
 21
9.887995
 31
0.0
  0
LINE
  5
14e
100
AcDbEntity
  8
0
 62
7
100
AcDbLine
 10
9.097999
 20
9.887995
 30
0.0
 11
9.319000
 21
9.714993
 31
0.0
  0
LINE
  5
14f
100
AcDbEntity
  8
0
 62
7
100
AcDbLine
 10
9.319000
 20
9.714993
 30
0.0
 11
9.524000
 21
9.524013
 31
0.0
  0
LINE
  5
150
100
AcDbEntity
  8
0
 62
7
100
AcDbLine
 10
9.524000
 20
9.524013
 30
0.0
 11
9.714999
 21
9.319007
 31
0.0
  0
LINE
  5
151
100
AcDbEntity
  8
0
 62
7
100
AcDbLine
 10
9.714999
 20
9.319007
 30
0.0
 11
9.887999
 21
9.097998
 31
0.0
  0
LINE
  5
152
100
AcDbEntity
  8
0
 62
7
100
AcDbLine
 10
9.887999
 20
9.097998
 30
0.0
 11
10.043999
 21
8.864996
 31
0.0
  0
LINE
  5
153
100
AcDbEntity
  8
0
 62
7
100
AcDbLine
 10
10.043999
 20
8.864996
 30
0.0
 11
10.180999
 21
8.620986
 31
0.0
  0
LINE
  5
154
100
AcDbEntity
  8
0
 62
7
100
AcDbLine
 10
10.180999
 20
8.620986
 30
0.0
 11
10.297999
 21
8.365999
 31
0.0
  0
LINE
  5
155
100
AcDbEntity
  8
0
 62
7
100
AcDbLine
 10
10.297999
 20
8.365999
 30
0.0
 11
10.394999
 21
8.102996
 31
0.0
  0
LINE
  5
156
100
AcDbEntity
  8
0
 62
7
100
AcDbLine
 10
10.394999
 20
8.102996
 30
0.0
 11
10.471000
 21
7.832994
 31
0.0
  0
LINE
  5
157
100
AcDbEntity
  8
0
 62
7
100
AcDbLine
 10
10.471000
 20
7.832994
 30
0.0
 11
10.525999
 21
7.557996
 31
0.0
  0
LINE
  5
158
100
AcDbEntity
  8
0
 62
7
100
AcDbLine
 10
10.525999
 20
7.557996
 30
0.0
 11
10.559000
 21
7.280008
 31
0.0
  0
LINE
  5
159
100
AcDbEntity
  8
0
 62
7
100
AcDbLine
 10
10.559000
 20
7.280008
 30
0.0
 11
10.570001
 21
6.999987
 31
0.0
  0
LINE
  5
15a
100
AcDbEntity
  8
0
 62
7
100
AcDbLine
 10
10.570001
 20
6.999987
 30
0.0
 11
10.559000
 21
6.719994
 31
0.0
  0
LINE
  5
15b
100
AcDbEntity
  8
0
 62
7
100
AcDbLine
 10
10.559000
 20
6.719994
 30
0.0
 11
10.526000
 21
6.442005
 31
0.0
  0
LINE
  5
15c
100
AcDbEntity
  8
0
 62
7
100
AcDbLine
 10
7.391000
 20
69.468998
 30
0.0
 11
7.584000
 21
69.430999
 31
0.0
  0
LINE
  5
15d
100
AcDbEntity
  8
0
 62
7
100
AcDbLine
 10
7.584000
 20
69.430999
 30
0.0
 11
7.773000
 21
69.377998
 31
0.0
  0
LINE
  5
15e
100
AcDbEntity
  8
0
 62
7
100
AcDbLine
 10
7.773000
 20
69.377998
 30
0.0
 11
7.957000
 21
69.310000
 31
0.0
  0
LINE
  5
15f
100
AcDbEntity
  8
0
 62
7
100
AcDbLine
 10
7.957000
 20
69.310000
 30
0.0
 11
8.135000
 21
69.228000
 31
0.0
  0
LINE
  5
160
100
AcDbEntity
  8
0
 62
7
100
AcDbLine
 10
8.135000
 20
69.228000
 30
0.0
 11
8.306000
 21
69.131999
 31
0.0
  0
LINE
  5
161
100
AcDbEntity
  8
0
 62
7
100
AcDbLine
 10
8.306000
 20
69.131999
 30
0.0
 11
8.469000
 21
69.022999
 31
0.0
  0
LINE
  5
162
100
AcDbEntity
  8
0
 62
7
100
AcDbLine
 10
8.469000
 20
69.022999
 30
0.0
 11
8.624000
 21
68.901000
 31
0.0
  0
LINE
  5
163
100
AcDbEntity
  8
0
 62
7
100
AcDbLine
 10
8.624000
 20
68.901000
 30
0.0
 11
8.768000
 21
68.768000
 31
0.0
  0
LINE
  5
164
100
AcDbEntity
  8
0
 62
7
100
AcDbLine
 10
8.768000
 20
68.768000
 30
0.0
 11
8.901000
 21
68.623999
 31
0.0
  0
LINE
  5
165
100
AcDbEntity
  8
0
 62
7
100
AcDbLine
 10
8.901000
 20
68.623999
 30
0.0
 11
9.023000
 21
68.469000
 31
0.0
  0
LINE
  5
166
100
AcDbEntity
  8
0
 62
7
100
AcDbLine
 10
9.023000
 20
68.469000
 30
0.0
 11
9.132000
 21
68.306000
 31
0.0
  0
LINE
  5
167
100
AcDbEntity
  8
0
 62
7
100
AcDbLine
 10
9.132000
 20
68.306000
 30
0.0
 11
9.228000
 21
68.134998
 31
0.0
  0
LINE
  5
168
100
AcDbEntity
  8
0
 62
7
100
AcDbLine
 10
9.228000
 20
68.134998
 30
0.0
 11
9.310000
 21
67.956998
 31
0.0
  0
LINE
  5
169
100
AcDbEntity
  8
0
 62
7
100
AcDbLine
 10
9.310000
 20
67.956998
 30
0.0
 11
9.378000
 21
67.773000
 31
0.0
  0
LINE
  5
16a
100
AcDbEntity
  8
0
 62
7
100
AcDbLine
 10
9.378000
 20
67.773000
 30
0.0
 11
9.431000
 21
67.583999
 31
0.0
  0
LINE
  5
16b
100
AcDbEntity
  8
0
 62
7
100
AcDbLine
 10
9.431000
 20
67.583999
 30
0.0
 11
9.469000
 21
67.390998
 31
0.0
  0
LINE
  5
16c
100
AcDbEntity
  8
0
 62
7
100
AcDbLine
 10
9.469000
 20
67.390998
 30
0.0
 11
9.492001
 21
67.196000
 31
0.0
  0
LINE
  5
16d
100
AcDbEntity
  8
0
 62
7
100
AcDbLine
 10
9.492001
 20
67.196000
 30
0.0
 11
9.500002
 21
66.999999
 31
0.0
  0
LINE
  5
16e
100
AcDbEntity
  8
0
 62
7
100
AcDbLine
 10
9.500002
 20
66.999999
 30
0.0
 11
9.492001
 21
66.803999
 31
0.0
  0
LINE
  5
16f
100
AcDbEntity
  8
0
 62
7
100
AcDbLine
 10
9.492001
 20
66.803999
 30
0.0
 11
9.469000
 21
66.609000
 31
0.0
  0
LINE
  5
170
100
AcDbEntity
  8
0
 62
7
100
AcDbLine
 10
9.469000
 20
66.609000
 30
0.0
 11
9.431001
 21
66.416000
 31
0.0
  0
LINE
  5
171
100
AcDbEntity
  8
0
 62
7
100
AcDbLine
 10
9.431001
 20
66.416000
 30
0.0
 11
9.378001
 21
66.226998
 31
0.0
  0
LINE
  5
172
100
AcDbEntity
  8
0
 62
7
100
AcDbLine
 10
9.378001
 20
66.226998
 30
0.0
 11
9.310001
 21
66.042998
 31
0.0
  0
LINE
  5
173
100
AcDbEntity
  8
0
 62
7
100
AcDbLine
 10
9.310001
 20
66.042998
 30
0.0
 11
9.228001
 21
65.865000
 31
0.0
  0
LINE
  5
174
100
AcDbEntity
  8
0
 62
7
100
AcDbLine
 10
9.228001
 20
65.865000
 30
0.0
 11
9.132000
 21
65.693999
 31
0.0
  0
LINE
  5
175
100
AcDbEntity
  8
0
 62
7
100
AcDbLine
 10
9.132000
 20
65.693999
 30
0.0
 11
9.023001
 21
65.530999
 31
0.0
  0
LINE
  5
176
100
AcDbEntity
  8
0
 62
7
100
AcDbLine
 10
9.023001
 20
65.530999
 30
0.0
 11
8.901000
 21
65.376000
 31
0.0
  0
LINE
  5
177
100
AcDbEntity
  8
0
 62
7
100
AcDbLine
 10
8.901000
 20
65.376000
 30
0.0
 11
8.768001
 21
65.231998
 31
0.0
  0
LINE
  5
178
100
AcDbEntity
  8
0
 62
7
100
AcDbLine
 10
8.768001
 20
65.231998
 30
0.0
 11
8.624000
 21
65.098998
 31
0.0
  0
LINE
  5
179
100
AcDbEntity
  8
0
 62
7
100
AcDbLine
 10
8.624000
 20
65.098998
 30
0.0
 11
8.469001
 21
64.976999
 31
0.0
  0
LINE
  5
17a
100
AcDbEntity
  8
0
 62
7
100
AcDbLine
 10
8.469001
 20
64.976999
 30
0.0
 11
8.306001
 21
64.868000
 31
0.0
  0
LINE
  5
17b
100
AcDbEntity
  8
0
 62
7
100
AcDbLine
 10
8.306001
 20
64.868000
 30
0.0
 11
8.135001
 21
64.771999
 31
0.0
  0
LINE
  5
17c
100
AcDbEntity
  8
0
 62
7
100
AcDbLine
 10
8.135001
 20
64.771999
 30
0.0
 11
7.957000
 21
64.689999
 31
0.0
  0
LINE
  5
17d
100
AcDbEntity
  8
0
 62
7
100
AcDbLine
 10
7.957000
 20
64.689999
 30
0.0
 11
7.773001
 21
64.622001
 31
0.0
  0
LINE
  5
17e
100
AcDbEntity
  8
0
 62
7
100
AcDbLine
 10
7.773001
 20
64.622001
 30
0.0
 11
7.584001
 21
64.568999
 31
0.0
  0
LINE
  5
17f
100
AcDbEntity
  8
0
 62
7
100
AcDbLine
 10
7.584001
 20
64.568999
 30
0.0
 11
7.391001
 21
64.530998
 31
0.0
  0
LINE
  5
180
100
AcDbEntity
  8
0
 62
7
100
AcDbLine
 10
7.391001
 20
64.530998
 30
0.0
 11
7.196001
 21
64.507997
 31
0.0
  0
LINE
  5
181
100
AcDbEntity
  8
0
 62
7
100
AcDbLine
 10
7.196001
 20
64.507997
 30
0.0
 11
7.000001
 21
64.500010
 31
0.0
  0
LINE
  5
182
100
AcDbEntity
  8
0
 62
7
100
AcDbLine
 10
7.000001
 20
64.500010
 30
0.0
 11
6.804000
 21
64.507997
 31
0.0
  0
LINE
  5
183
100
AcDbEntity
  8
0
 62
7
100
AcDbLine
 10
6.804000
 20
64.507997
 30
0.0
 11
6.609001
 21
64.530998
 31
0.0
  0
LINE
  5
184
100
AcDbEntity
  8
0
 62
7
100
AcDbLine
 10
6.609001
 20
64.530998
 30
0.0
 11
6.416000
 21
64.568999
 31
0.0
  0
LINE
  5
185
100
AcDbEntity
  8
0
 62
7
100
AcDbLine
 10
6.416000
 20
64.568999
 30
0.0
 11
6.227000
 21
64.622001
 31
0.0
  0
LINE
  5
186
100
AcDbEntity
  8
0
 62
7
100
AcDbLine
 10
6.227000
 20
64.622001
 30
0.0
 11
6.043001
 21
64.689999
 31
0.0
  0
LINE
  5
187
100
AcDbEntity
  8
0
 62
7
100
AcDbLine
 10
6.043001
 20
64.689999
 30
0.0
 11
5.865001
 21
64.771999
 31
0.0
  0
LINE
  5
188
100
AcDbEntity
  8
0
 62
7
100
AcDbLine
 10
5.865001
 20
64.771999
 30
0.0
 11
5.694001
 21
64.868000
 31
0.0
  0
LINE
  5
189
100
AcDbEntity
  8
0
 62
7
100
AcDbLine
 10
5.694001
 20
64.868000
 30
0.0
 11
5.531000
 21
64.976999
 31
0.0
  0
LINE
  5
18a
100
AcDbEntity
  8
0
 62
7
100
AcDbLine
 10
5.531000
 20
64.976999
 30
0.0
 11
5.376001
 21
65.098998
 31
0.0
  0
LINE
  5
18b
100
AcDbEntity
  8
0
 62
7
100
AcDbLine
 10
5.376001
 20
65.098998
 30
0.0
 11
5.232001
 21
65.231998
 31
0.0
  0
LINE
  5
18c
100
AcDbEntity
  8
0
 62
7
100
AcDbLine
 10
5.232001
 20
65.231998
 30
0.0
 11
5.099001
 21
65.376000
 31
0.0
  0
LINE
  5
18d
100
AcDbEntity
  8
0
 62
7
100
AcDbLine
 10
5.099001
 20
65.376000
 30
0.0
 11
4.977000
 21
65.530999
 31
0.0
  0
LINE
  5
18e
100
AcDbEntity
  8
0
 62
7
100
AcDbLine
 10
4.977000
 20
65.530999
 30
0.0
 11
4.868001
 21
65.693999
 31
0.0
  0
LINE
  5
18f
100
AcDbEntity
  8
0
 62
7
100
AcDbLine
 10
4.868001
 20
65.693999
 30
0.0
 11
4.772000
 21
65.865000
 31
0.0
  0
LINE
  5
190
100
AcDbEntity
  8
0
 62
7
100
AcDbLine
 10
4.772000
 20
65.865000
 30
0.0
 11
4.690000
 21
66.042998
 31
0.0
  0
LINE
  5
191
100
AcDbEntity
  8
0
 62
7
100
AcDbLine
 10
4.690000
 20
66.042998
 30
0.0
 11
4.622000
 21
66.226998
 31
0.0
  0
LINE
  5
192
100
AcDbEntity
  8
0
 62
7
100
AcDbLine
 10
4.622000
 20
66.226998
 30
0.0
 11
4.569001
 21
66.416000
 31
0.0
  0
LINE
  5
193
100
AcDbEntity
  8
0
 62
7
100
AcDbLine
 10
4.569001
 20
66.416000
 30
0.0
 11
4.531000
 21
66.609000
 31
0.0
  0
LINE
  5
194
100
AcDbEntity
  8
0
 62
7
100
AcDbLine
 10
4.531000
 20
66.609000
 30
0.0
 11
4.507999
 21
66.803999
 31
0.0
  0
LINE
  5
195
100
AcDbEntity
  8
0
 62
7
100
AcDbLine
 10
4.507999
 20
66.803999
 30
0.0
 11
4.499998
 21
66.999999
 31
0.0
  0
LINE
  5
196
100
AcDbEntity
  8
0
 62
7
100
AcDbLine
 10
4.499998
 20
66.999999
 30
0.0
 11
4.507999
 21
67.196000
 31
0.0
  0
LINE
  5
197
100
AcDbEntity
  8
0
 62
7
100
AcDbLine
 10
4.507999
 20
67.196000
 30
0.0
 11
4.531000
 21
67.390998
 31
0.0
  0
LINE
  5
198
100
AcDbEntity
  8
0
 62
7
100
AcDbLine
 10
4.531000
 20
67.390998
 30
0.0
 11
4.569000
 21
67.583999
 31
0.0
  0
LINE
  5
199
100
AcDbEntity
  8
0
 62
7
100
AcDbLine
 10
4.569000
 20
67.583999
 30
0.0
 11
4.622000
 21
67.773000
 31
0.0
  0
LINE
  5
19a
100
AcDbEntity
  8
0
 62
7
100
AcDbLine
 10
4.622000
 20
67.773000
 30
0.0
 11
4.690000
 21
67.956998
 31
0.0
  0
LINE
  5
19b
100
AcDbEntity
  8
0
 62
7
100
AcDbLine
 10
4.690000
 20
67.956998
 30
0.0
 11
4.772000
 21
68.134998
 31
0.0
  0
LINE
  5
19c
100
AcDbEntity
  8
0
 62
7
100
AcDbLine
 10
4.772000
 20
68.134998
 30
0.0
 11
4.868000
 21
68.306000
 31
0.0
  0
LINE
  5
19d
100
AcDbEntity
  8
0
 62
7
100
AcDbLine
 10
4.868000
 20
68.306000
 30
0.0
 11
4.977000
 21
68.469000
 31
0.0
  0
LINE
  5
19e
100
AcDbEntity
  8
0
 62
7
100
AcDbLine
 10
4.977000
 20
68.469000
 30
0.0
 11
5.099000
 21
68.623999
 31
0.0
  0
LINE
  5
19f
100
AcDbEntity
  8
0
 62
7
100
AcDbLine
 10
5.099000
 20
68.623999
 30
0.0
 11
5.232000
 21
68.768000
 31
0.0
  0
LINE
  5
1a0
100
AcDbEntity
  8
0
 62
7
100
AcDbLine
 10
5.232000
 20
68.768000
 30
0.0
 11
5.376000
 21
68.901000
 31
0.0
  0
LINE
  5
1a1
100
AcDbEntity
  8
0
 62
7
100
AcDbLine
 10
5.376000
 20
68.901000
 30
0.0
 11
5.531000
 21
69.022999
 31
0.0
  0
LINE
  5
1a2
100
AcDbEntity
  8
0
 62
7
100
AcDbLine
 10
5.531000
 20
69.022999
 30
0.0
 11
5.694000
 21
69.131999
 31
0.0
  0
LINE
  5
1a3
100
AcDbEntity
  8
0
 62
7
100
AcDbLine
 10
5.694000
 20
69.131999
 30
0.0
 11
5.865000
 21
69.228000
 31
0.0
  0
LINE
  5
1a4
100
AcDbEntity
  8
0
 62
7
100
AcDbLine
 10
5.865000
 20
69.228000
 30
0.0
 11
6.043000
 21
69.310000
 31
0.0
  0
LINE
  5
1a5
100
AcDbEntity
  8
0
 62
7
100
AcDbLine
 10
6.043000
 20
69.310000
 30
0.0
 11
6.227000
 21
69.377998
 31
0.0
  0
LINE
  5
1a6
100
AcDbEntity
  8
0
 62
7
100
AcDbLine
 10
6.227000
 20
69.377998
 30
0.0
 11
6.416000
 21
69.430999
 31
0.0
  0
LINE
  5
1a7
100
AcDbEntity
  8
0
 62
7
100
AcDbLine
 10
6.416000
 20
69.430999
 30
0.0
 11
6.609000
 21
69.468998
 31
0.0
  0
LINE
  5
1a8
100
AcDbEntity
  8
0
 62
7
100
AcDbLine
 10
6.609000
 20
69.468998
 30
0.0
 11
6.804000
 21
69.491999
 31
0.0
  0
LINE
  5
1a9
100
AcDbEntity
  8
0
 62
7
100
AcDbLine
 10
6.804000
 20
69.491999
 30
0.0
 11
7.000000
 21
69.500014
 31
0.0
  0
LINE
  5
1aa
100
AcDbEntity
  8
0
 62
7
100
AcDbLine
 10
7.000000
 20
69.500014
 30
0.0
 11
7.196000
 21
69.491999
 31
0.0
  0
LINE
  5
1ab
100
AcDbEntity
  8
0
 62
7
100
AcDbLine
 10
7.196000
 20
69.491999
 30
0.0
 11
7.391000
 21
69.468998
 31
0.0
  0
LINE
  5
1ac
100
AcDbEntity
  8
0
 62
7
100
AcDbLine
 10
7.350000
 20
30.708999
 30
0.0
 11
7.464000
 21
30.677000
 31
0.0
  0
LINE
  5
1ad
100
AcDbEntity
  8
0
 62
7
100
AcDbLine
 10
7.464000
 20
30.677000
 30
0.0
 11
7.574000
 21
30.635999
 31
0.0
  0
LINE
  5
1ae
100
AcDbEntity
  8
0
 62
7
100
AcDbLine
 10
7.574000
 20
30.635999
 30
0.0
 11
7.681000
 21
30.587000
 31
0.0
  0
LINE
  5
1af
100
AcDbEntity
  8
0
 62
7
100
AcDbLine
 10
7.681000
 20
30.587000
 30
0.0
 11
7.784000
 21
30.529000
 31
0.0
  0
LINE
  5
1b0
100
AcDbEntity
  8
0
 62
7
100
AcDbLine
 10
7.784000
 20
30.529000
 30
0.0
 11
7.882000
 21
30.463999
 31
0.0
  0
LINE
  5
1b1
100
AcDbEntity
  8
0
 62
7
100
AcDbLine
 10
7.882000
 20
30.463999
 30
0.0
 11
7.974000
 21
30.390999
 31
0.0
  0
LINE
  5
1b2
100
AcDbEntity
  8
0
 62
7
100
AcDbLine
 10
7.974000
 20
30.390999
 30
0.0
 11
8.061000
 21
30.311000
 31
0.0
  0
LINE
  5
1b3
100
AcDbEntity
  8
0
 62
7
100
AcDbLine
 10
8.061000
 20
30.311000
 30
0.0
 11
8.141000
 21
30.224000
 31
0.0
  0
LINE
  5
1b4
100
AcDbEntity
  8
0
 62
7
100
AcDbLine
 10
8.141000
 20
30.224000
 30
0.0
 11
8.214000
 21
30.131998
 31
0.0
  0
LINE
  5
1b5
100
AcDbEntity
  8
0
 62
7
100
AcDbLine
 10
8.214000
 20
30.131998
 30
0.0
 11
8.279000
 21
30.033999
 31
0.0
  0
LINE
  5
1b6
100
AcDbEntity
  8
0
 62
7
100
AcDbLine
 10
8.279000
 20
30.033999
 30
0.0
 11
8.337000
 21
29.930999
 31
0.0
  0
LINE
  5
1b7
100
AcDbEntity
  8
0
 62
7
100
AcDbLine
 10
8.337000
 20
29.930999
 30
0.0
 11
8.386000
 21
29.824001
 31
0.0
  0
LINE
  5
1b8
100
AcDbEntity
  8
0
 62
7
100
AcDbLine
 10
8.386000
 20
29.824001
 30
0.0
 11
8.427000
 21
29.713999
 31
0.0
  0
LINE
  5
1b9
100
AcDbEntity
  8
0
 62
7
100
AcDbLine
 10
8.427000
 20
29.713999
 30
0.0
 11
8.459000
 21
29.599998
 31
0.0
  0
LINE
  5
1ba
100
AcDbEntity
  8
0
 62
7
100
AcDbLine
 10
8.459000
 20
29.599998
 30
0.0
 11
8.482001
 21
29.485001
 31
0.0
  0
LINE
  5
1bb
100
AcDbEntity
  8
0
 62
7
100
AcDbLine
 10
8.482001
 20
29.485001
 30
0.0
 11
8.495000
 21
29.368000
 31
0.0
  0
LINE
  5
1bc
100
AcDbEntity
  8
0
 62
7
100
AcDbLine
 10
8.495000
 20
29.368000
 30
0.0
 11
8.500001
 21
29.250000
 31
0.0
  0
LINE
  5
1bd
100
AcDbEntity
  8
0
 62
7
100
AcDbLine
 10
8.500001
 20
29.250000
 30
0.0
 11
8.495000
 21
29.132000
 31
0.0
  0
LINE
  5
1be
100
AcDbEntity
  8
0
 62
7
100
AcDbLine
 10
8.495000
 20
29.132000
 30
0.0
 11
8.482001
 21
29.014999
 31
0.0
  0
LINE
  5
1bf
100
AcDbEntity
  8
0
 62
7
100
AcDbLine
 10
8.482001
 20
29.014999
 30
0.0
 11
8.459000
 21
28.899999
 31
0.0
  0
LINE
  5
1c0
100
AcDbEntity
  8
0
 62
7
100
AcDbLine
 10
8.459000
 20
28.899999
 30
0.0
 11
8.427001
 21
28.785999
 31
0.0
  0
LINE
  5
1c1
100
AcDbEntity
  8
0
 62
7
100
AcDbLine
 10
8.427001
 20
28.785999
 30
0.0
 11
8.386000
 21
28.676000
 31
0.0
  0
LINE
  5
1c2
100
AcDbEntity
  8
0
 62
7
100
AcDbLine
 10
8.386000
 20
28.676000
 30
0.0
 11
8.337001
 21
28.569001
 31
0.0
  0
LINE
  5
1c3
100
AcDbEntity
  8
0
 62
7
100
AcDbLine
 10
8.337001
 20
28.569001
 30
0.0
 11
8.279000
 21
28.466001
 31
0.0
  0
LINE
  5
1c4
100
AcDbEntity
  8
0
 62
7
100
AcDbLine
 10
8.279000
 20
28.466001
 30
0.0
 11
8.214000
 21
28.367999
 31
0.0
  0
LINE
  5
1c5
100
AcDbEntity
  8
0
 62
7
100
AcDbLine
 10
8.214000
 20
28.367999
 30
0.0
 11
8.141001
 21
28.276000
 31
0.0
  0
LINE
  5
1c6
100
AcDbEntity
  8
0
 62
7
100
AcDbLine
 10
8.141001
 20
28.276000
 30
0.0
 11
8.061000
 21
28.189000
 31
0.0
  0
LINE
  5
1c7
100
AcDbEntity
  8
0
 62
7
100
AcDbLine
 10
8.061000
 20
28.189000
 30
0.0
 11
7.974001
 21
28.108998
 31
0.0
  0
LINE
  5
1c8
100
AcDbEntity
  8
0
 62
7
100
AcDbLine
 10
7.974001
 20
28.108998
 30
0.0
 11
7.882000
 21
28.035999
 31
0.0
  0
LINE
  5
1c9
100
AcDbEntity
  8
0
 62
7
100
AcDbLine
 10
7.882000
 20
28.035999
 30
0.0
 11
7.784000
 21
27.971000
 31
0.0
  0
LINE
  5
1ca
100
AcDbEntity
  8
0
 62
7
100
AcDbLine
 10
7.784000
 20
27.971000
 30
0.0
 11
7.681001
 21
27.913001
 31
0.0
  0
LINE
  5
1cb
100
AcDbEntity
  8
0
 62
7
100
AcDbLine
 10
7.681001
 20
27.913001
 30
0.0
 11
7.574001
 21
27.863998
 31
0.0
  0
LINE
  5
1cc
100
AcDbEntity
  8
0
 62
7
100
AcDbLine
 10
7.574001
 20
27.863998
 30
0.0
 11
7.464001
 21
27.823000
 31
0.0
  0
LINE
  5
1cd
100
AcDbEntity
  8
0
 62
7
100
AcDbLine
 10
7.464001
 20
27.823000
 30
0.0
 11
7.350001
 21
27.790999
 31
0.0
  0
LINE
  5
1ce
100
AcDbEntity
  8
0
 62
7
100
AcDbLine
 10
7.350001
 20
27.790999
 30
0.0
 11
7.235001
 21
27.767998
 31
0.0
  0
LINE
  5
1cf
100
AcDbEntity
  8
0
 62
7
100
AcDbLine
 10
7.235001
 20
27.767998
 30
0.0
 11
7.118001
 21
27.754987
 31
0.0
  0
LINE
  5
1d0
100
AcDbEntity
  8
0
 62
7
100
AcDbLine
 10
7.118001
 20
27.754987
 30
0.0
 11
7.000001
 21
27.749992
 31
0.0
  0
LINE
  5
1d1
100
AcDbEntity
  8
0
 62
7
100
AcDbLine
 10
7.000001
 20
27.749992
 30
0.0
 11
6.882000
 21
27.754987
 31
0.0
  0
LINE
  5
1d2
100
AcDbEntity
  8
0
 62
7
100
AcDbLine
 10
6.882000
 20
27.754987
 30
0.0
 11
6.765000
 21
27.767998
 31
0.0
  0
LINE
  5
1d3
100
AcDbEntity
  8
0
 62
7
100
AcDbLine
 10
6.765000
 20
27.767998
 30
0.0
 11
6.650001
 21
27.790999
 31
0.0
  0
LINE
  5
1d4
100
AcDbEntity
  8
0
 62
7
100
AcDbLine
 10
6.650001
 20
27.790999
 30
0.0
 11
6.536001
 21
27.823000
 31
0.0
  0
LINE
  5
1d5
100
AcDbEntity
  8
0
 62
7
100
AcDbLine
 10
6.536001
 20
27.823000
 30
0.0
 11
6.426000
 21
27.863998
 31
0.0
  0
LINE
  5
1d6
100
AcDbEntity
  8
0
 62
7
100
AcDbLine
 10
6.426000
 20
27.863998
 30
0.0
 11
6.319000
 21
27.913001
 31
0.0
  0
LINE
  5
1d7
100
AcDbEntity
  8
0
 62
7
100
AcDbLine
 10
6.319000
 20
27.913001
 30
0.0
 11
6.216001
 21
27.971000
 31
0.0
  0
LINE
  5
1d8
100
AcDbEntity
  8
0
 62
7
100
AcDbLine
 10
6.216001
 20
27.971000
 30
0.0
 11
6.118001
 21
28.035999
 31
0.0
  0
LINE
  5
1d9
100
AcDbEntity
  8
0
 62
7
100
AcDbLine
 10
6.118001
 20
28.035999
 30
0.0
 11
6.026001
 21
28.108998
 31
0.0
  0
LINE
  5
1da
100
AcDbEntity
  8
0
 62
7
100
AcDbLine
 10
6.026001
 20
28.108998
 30
0.0
 11
5.939001
 21
28.189000
 31
0.0
  0
LINE
  5
1db
100
AcDbEntity
  8
0
 62
7
100
AcDbLine
 10
5.939001
 20
28.189000
 30
0.0
 11
5.859001
 21
28.276000
 31
0.0
  0
LINE
  5
1dc
100
AcDbEntity
  8
0
 62
7
100
AcDbLine
 10
5.859001
 20
28.276000
 30
0.0
 11
5.786001
 21
28.367999
 31
0.0
  0
LINE
  5
1dd
100
AcDbEntity
  8
0
 62
7
100
AcDbLine
 10
5.786001
 20
28.367999
 30
0.0
 11
5.721001
 21
28.466001
 31
0.0
  0
LINE
  5
1de
100
AcDbEntity
  8
0
 62
7
100
AcDbLine
 10
5.721001
 20
28.466001
 30
0.0
 11
5.663001
 21
28.569001
 31
0.0
  0
LINE
  5
1df
100
AcDbEntity
  8
0
 62
7
100
AcDbLine
 10
5.663001
 20
28.569001
 30
0.0
 11
5.614001
 21
28.676000
 31
0.0
  0
LINE
  5
1e0
100
AcDbEntity
  8
0
 62
7
100
AcDbLine
 10
5.614001
 20
28.676000
 30
0.0
 11
5.573000
 21
28.785999
 31
0.0
  0
LINE
  5
1e1
100
AcDbEntity
  8
0
 62
7
100
AcDbLine
 10
5.573000
 20
28.785999
 30
0.0
 11
5.541001
 21
28.899999
 31
0.0
  0
LINE
  5
1e2
100
AcDbEntity
  8
0
 62
7
100
AcDbLine
 10
5.541001
 20
28.899999
 30
0.0
 11
5.518000
 21
29.014999
 31
0.0
  0
LINE
  5
1e3
100
AcDbEntity
  8
0
 62
7
100
AcDbLine
 10
5.518000
 20
29.014999
 30
0.0
 11
5.505000
 21
29.132000
 31
0.0
  0
LINE
  5
1e4
100
AcDbEntity
  8
0
 62
7
100
AcDbLine
 10
5.505000
 20
29.132000
 30
0.0
 11
5.499999
 21
29.250000
 31
0.0
  0
LINE
  5
1e5
100
AcDbEntity
  8
0
 62
7
100
AcDbLine
 10
5.499999
 20
29.250000
 30
0.0
 11
5.505000
 21
29.368000
 31
0.0
  0
LINE
  5
1e6
100
AcDbEntity
  8
0
 62
7
100
AcDbLine
 10
5.505000
 20
29.368000
 30
0.0
 11
5.518000
 21
29.485001
 31
0.0
  0
LINE
  5
1e7
100
AcDbEntity
  8
0
 62
7
100
AcDbLine
 10
5.518000
 20
29.485001
 30
0.0
 11
5.541001
 21
29.599998
 31
0.0
  0
LINE
  5
1e8
100
AcDbEntity
  8
0
 62
7
100
AcDbLine
 10
5.541001
 20
29.599998
 30
0.0
 11
5.573000
 21
29.713999
 31
0.0
  0
LINE
  5
1e9
100
AcDbEntity
  8
0
 62
7
100
AcDbLine
 10
5.573000
 20
29.713999
 30
0.0
 11
5.614000
 21
29.824001
 31
0.0
  0
LINE
  5
1ea
100
AcDbEntity
  8
0
 62
7
100
AcDbLine
 10
5.614000
 20
29.824001
 30
0.0
 11
5.663000
 21
29.930999
 31
0.0
  0
LINE
  5
1eb
100
AcDbEntity
  8
0
 62
7
100
AcDbLine
 10
5.663000
 20
29.930999
 30
0.0
 11
5.721000
 21
30.033999
 31
0.0
  0
LINE
  5
1ec
100
AcDbEntity
  8
0
 62
7
100
AcDbLine
 10
5.721000
 20
30.033999
 30
0.0
 11
5.786000
 21
30.131998
 31
0.0
  0
LINE
  5
1ed
100
AcDbEntity
  8
0
 62
7
100
AcDbLine
 10
5.786000
 20
30.131998
 30
0.0
 11
5.859000
 21
30.224000
 31
0.0
  0
LINE
  5
1ee
100
AcDbEntity
  8
0
 62
7
100
AcDbLine
 10
5.859000
 20
30.224000
 30
0.0
 11
5.939000
 21
30.311000
 31
0.0
  0
LINE
  5
1ef
100
AcDbEntity
  8
0
 62
7
100
AcDbLine
 10
5.939000
 20
30.311000
 30
0.0
 11
6.026000
 21
30.390999
 31
0.0
  0
LINE
  5
1f0
100
AcDbEntity
  8
0
 62
7
100
AcDbLine
 10
6.026000
 20
30.390999
 30
0.0
 11
6.118000
 21
30.463999
 31
0.0
  0
LINE
  5
1f1
100
AcDbEntity
  8
0
 62
7
100
AcDbLine
 10
6.118000
 20
30.463999
 30
0.0
 11
6.216000
 21
30.529000
 31
0.0
  0
LINE
  5
1f2
100
AcDbEntity
  8
0
 62
7
100
AcDbLine
 10
6.216000
 20
30.529000
 30
0.0
 11
6.319000
 21
30.587000
 31
0.0
  0
LINE
  5
1f3
100
AcDbEntity
  8
0
 62
7
100
AcDbLine
 10
6.319000
 20
30.587000
 30
0.0
 11
6.426000
 21
30.635999
 31
0.0
  0
LINE
  5
1f4
100
AcDbEntity
  8
0
 62
7
100
AcDbLine
 10
6.426000
 20
30.635999
 30
0.0
 11
6.536000
 21
30.677000
 31
0.0
  0
LINE
  5
1f5
100
AcDbEntity
  8
0
 62
7
100
AcDbLine
 10
6.536000
 20
30.677000
 30
0.0
 11
6.650000
 21
30.708999
 31
0.0
  0
LINE
  5
1f6
100
AcDbEntity
  8
0
 62
7
100
AcDbLine
 10
6.650000
 20
30.708999
 30
0.0
 11
6.765000
 21
30.732000
 31
0.0
  0
LINE
  5
1f7
100
AcDbEntity
  8
0
 62
7
100
AcDbLine
 10
6.765000
 20
30.732000
 30
0.0
 11
6.882000
 21
30.745010
 31
0.0
  0
LINE
  5
1f8
100
AcDbEntity
  8
0
 62
7
100
AcDbLine
 10
6.882000
 20
30.745010
 30
0.0
 11
7.000000
 21
30.750006
 31
0.0
  0
LINE
  5
1f9
100
AcDbEntity
  8
0
 62
7
100
AcDbLine
 10
7.000000
 20
30.750006
 30
0.0
 11
7.118000
 21
30.745010
 31
0.0
  0
LINE
  5
1fa
100
AcDbEntity
  8
0
 62
7
100
AcDbLine
 10
7.118000
 20
30.745010
 30
0.0
 11
7.235000
 21
30.732000
 31
0.0
  0
LINE
  5
1fb
100
AcDbEntity
  8
0
 62
7
100
AcDbLine
 10
7.235000
 20
30.732000
 30
0.0
 11
7.350000
 21
30.708999
 31
0.0
  0
LINE
  5
1fc
100
AcDbEntity
  8
0
 62
7
100
AcDbLine
 10
7.000000
 20
37.250001
 30
0.0
 11
6.882000
 21
37.254996
 31
0.0
  0
LINE
  5
1fd
100
AcDbEntity
  8
0
 62
7
100
AcDbLine
 10
6.882000
 20
37.254996
 30
0.0
 11
6.765000
 21
37.268007
 31
0.0
  0
LINE
  5
1fe
100
AcDbEntity
  8
0
 62
7
100
AcDbLine
 10
6.765000
 20
37.268007
 30
0.0
 11
6.650000
 21
37.291008
 31
0.0
  0
LINE
  5
1ff
100
AcDbEntity
  8
0
 62
7
100
AcDbLine
 10
6.650000
 20
37.291008
 30
0.0
 11
6.536000
 21
37.323009
 31
0.0
  0
LINE
  5
200
100
AcDbEntity
  8
0
 62
7
100
AcDbLine
 10
6.536000
 20
37.323009
 30
0.0
 11
6.426000
 21
37.364007
 31
0.0
  0
LINE
  5
201
100
AcDbEntity
  8
0
 62
7
100
AcDbLine
 10
6.426000
 20
37.364007
 30
0.0
 11
6.319000
 21
37.413007
 31
0.0
  0
LINE
  5
202
100
AcDbEntity
  8
0
 62
7
100
AcDbLine
 10
6.319000
 20
37.413007
 30
0.0
 11
6.216000
 21
37.471006
 31
0.0
  0
LINE
  5
203
100
AcDbEntity
  8
0
 62
7
100
AcDbLine
 10
6.216000
 20
37.471006
 30
0.0
 11
6.118000
 21
37.536008
 31
0.0
  0
LINE
  5
204
100
AcDbEntity
  8
0
 62
7
100
AcDbLine
 10
6.118000
 20
37.536008
 30
0.0
 11
6.026000
 21
37.609007
 31
0.0
  0
LINE
  5
205
100
AcDbEntity
  8
0
 62
7
100
AcDbLine
 10
6.026000
 20
37.609007
 30
0.0
 11
5.939000
 21
37.689009
 31
0.0
  0
LINE
  5
206
100
AcDbEntity
  8
0
 62
7
100
AcDbLine
 10
5.939000
 20
37.689009
 30
0.0
 11
5.859000
 21
37.776007
 31
0.0
  0
LINE
  5
207
100
AcDbEntity
  8
0
 62
7
100
AcDbLine
 10
5.859000
 20
37.776007
 30
0.0
 11
5.786000
 21
37.868008
 31
0.0
  0
LINE
  5
208
100
AcDbEntity
  8
0
 62
7
100
AcDbLine
 10
5.786000
 20
37.868008
 30
0.0
 11
5.721000
 21
37.966007
 31
0.0
  0
LINE
  5
209
100
AcDbEntity
  8
0
 62
7
100
AcDbLine
 10
5.721000
 20
37.966007
 30
0.0
 11
5.663000
 21
38.069007
 31
0.0
  0
LINE
  5
20a
100
AcDbEntity
  8
0
 62
7
100
AcDbLine
 10
5.663000
 20
38.069007
 30
0.0
 11
5.614000
 21
38.176009
 31
0.0
  0
LINE
  5
20b
100
AcDbEntity
  8
0
 62
7
100
AcDbLine
 10
5.614000
 20
38.176009
 30
0.0
 11
5.573000
 21
38.286008
 31
0.0
  0
LINE
  5
20c
100
AcDbEntity
  8
0
 62
7
100
AcDbLine
 10
5.573000
 20
38.286008
 30
0.0
 11
5.541000
 21
38.400009
 31
0.0
  0
LINE
  5
20d
100
AcDbEntity
  8
0
 62
7
100
AcDbLine
 10
5.541000
 20
38.400009
 30
0.0
 11
5.517999
 21
38.515008
 31
0.0
  0
LINE
  5
20e
100
AcDbEntity
  8
0
 62
7
100
AcDbLine
 10
5.517999
 20
38.515008
 30
0.0
 11
5.505000
 21
38.632007
 31
0.0
  0
LINE
  5
20f
100
AcDbEntity
  8
0
 62
7
100
AcDbLine
 10
5.505000
 20
38.632007
 30
0.0
 11
5.499999
 21
38.750009
 31
0.0
  0
LINE
  5
210
100
AcDbEntity
  8
0
 62
7
100
AcDbLine
 10
5.499999
 20
38.750009
 30
0.0
 11
5.505000
 21
38.868009
 31
0.0
  0
LINE
  5
211
100
AcDbEntity
  8
0
 62
7
100
AcDbLine
 10
5.505000
 20
38.868009
 30
0.0
 11
5.517999
 21
38.985007
 31
0.0
  0
LINE
  5
212
100
AcDbEntity
  8
0
 62
7
100
AcDbLine
 10
5.517999
 20
38.985007
 30
0.0
 11
5.541000
 21
39.100007
 31
0.0
  0
LINE
  5
213
100
AcDbEntity
  8
0
 62
7
100
AcDbLine
 10
5.541000
 20
39.100007
 30
0.0
 11
5.572999
 21
39.214008
 31
0.0
  0
LINE
  5
214
100
AcDbEntity
  8
0
 62
7
100
AcDbLine
 10
5.572999
 20
39.214008
 30
0.0
 11
5.613999
 21
39.324007
 31
0.0
  0
LINE
  5
215
100
AcDbEntity
  8
0
 62
7
100
AcDbLine
 10
5.613999
 20
39.324007
 30
0.0
 11
5.662999
 21
39.431009
 31
0.0
  0
LINE
  5
216
100
AcDbEntity
  8
0
 62
7
100
AcDbLine
 10
5.662999
 20
39.431009
 30
0.0
 11
5.720999
 21
39.534009
 31
0.0
  0
LINE
  5
217
100
AcDbEntity
  8
0
 62
7
100
AcDbLine
 10
5.720999
 20
39.534009
 30
0.0
 11
5.785999
 21
39.632007
 31
0.0
  0
LINE
  5
218
100
AcDbEntity
  8
0
 62
7
100
AcDbLine
 10
5.785999
 20
39.632007
 30
0.0
 11
5.858999
 21
39.724009
 31
0.0
  0
LINE
  5
219
100
AcDbEntity
  8
0
 62
7
100
AcDbLine
 10
5.858999
 20
39.724009
 30
0.0
 11
5.938999
 21
39.811007
 31
0.0
  0
LINE
  5
21a
100
AcDbEntity
  8
0
 62
7
100
AcDbLine
 10
5.938999
 20
39.811007
 30
0.0
 11
6.026000
 21
39.891008
 31
0.0
  0
LINE
  5
21b
100
AcDbEntity
  8
0
 62
7
100
AcDbLine
 10
6.026000
 20
39.891008
 30
0.0
 11
6.118000
 21
39.964008
 31
0.0
  0
LINE
  5
21c
100
AcDbEntity
  8
0
 62
7
100
AcDbLine
 10
6.118000
 20
39.964008
 30
0.0
 11
6.215999
 21
40.029009
 31
0.0
  0
LINE
  5
21d
100
AcDbEntity
  8
0
 62
7
100
AcDbLine
 10
6.215999
 20
40.029009
 30
0.0
 11
6.318999
 21
40.087009
 31
0.0
  0
LINE
  5
21e
100
AcDbEntity
  8
0
 62
7
100
AcDbLine
 10
6.318999
 20
40.087009
 30
0.0
 11
6.425999
 21
40.136008
 31
0.0
  0
LINE
  5
21f
100
AcDbEntity
  8
0
 62
7
100
AcDbLine
 10
6.425999
 20
40.136008
 30
0.0
 11
6.535999
 21
40.177007
 31
0.0
  0
LINE
  5
220
100
AcDbEntity
  8
0
 62
7
100
AcDbLine
 10
6.535999
 20
40.177007
 30
0.0
 11
6.649999
 21
40.209008
 31
0.0
  0
LINE
  5
221
100
AcDbEntity
  8
0
 62
7
100
AcDbLine
 10
6.649999
 20
40.209008
 30
0.0
 11
6.764999
 21
40.232009
 31
0.0
  0
LINE
  5
222
100
AcDbEntity
  8
0
 62
7
100
AcDbLine
 10
6.764999
 20
40.232009
 30
0.0
 11
6.881999
 21
40.245019
 31
0.0
  0
LINE
  5
223
100
AcDbEntity
  8
0
 62
7
100
AcDbLine
 10
6.881999
 20
40.245019
 30
0.0
 11
7.000000
 21
40.250015
 31
0.0
  0
LINE
  5
224
100
AcDbEntity
  8
0
 62
7
100
AcDbLine
 10
7.000000
 20
40.250015
 30
0.0
 11
7.117999
 21
40.245019
 31
0.0
  0
LINE
  5
225
100
AcDbEntity
  8
0
 62
7
100
AcDbLine
 10
7.117999
 20
40.245019
 30
0.0
 11
7.234999
 21
40.232009
 31
0.0
  0
LINE
  5
226
100
AcDbEntity
  8
0
 62
7
100
AcDbLine
 10
7.234999
 20
40.232009
 30
0.0
 11
7.349999
 21
40.209008
 31
0.0
  0
LINE
  5
227
100
AcDbEntity
  8
0
 62
7
100
AcDbLine
 10
7.349999
 20
40.209008
 30
0.0
 11
7.463999
 21
40.177007
 31
0.0
  0
LINE
  5
228
100
AcDbEntity
  8
0
 62
7
100
AcDbLine
 10
7.463999
 20
40.177007
 30
0.0
 11
7.573999
 21
40.136008
 31
0.0
  0
LINE
  5
229
100
AcDbEntity
  8
0
 62
7
100
AcDbLine
 10
7.573999
 20
40.136008
 30
0.0
 11
7.681000
 21
40.087009
 31
0.0
  0
LINE
  5
22a
100
AcDbEntity
  8
0
 62
7
100
AcDbLine
 10
7.681000
 20
40.087009
 30
0.0
 11
7.783999
 21
40.029009
 31
0.0
  0
LINE
  5
22b
100
AcDbEntity
  8
0
 62
7
100
AcDbLine
 10
7.783999
 20
40.029009
 30
0.0
 11
7.881999
 21
39.964008
 31
0.0
  0
LINE
  5
22c
100
AcDbEntity
  8
0
 62
7
100
AcDbLine
 10
7.881999
 20
39.964008
 30
0.0
 11
7.974000
 21
39.891008
 31
0.0
  0
LINE
  5
22d
100
AcDbEntity
  8
0
 62
7
100
AcDbLine
 10
7.974000
 20
39.891008
 30
0.0
 11
8.060999
 21
39.811007
 31
0.0
  0
LINE
  5
22e
100
AcDbEntity
  8
0
 62
7
100
AcDbLine
 10
8.060999
 20
39.811007
 30
0.0
 11
8.140999
 21
39.724009
 31
0.0
  0
LINE
  5
22f
100
AcDbEntity
  8
0
 62
7
100
AcDbLine
 10
8.140999
 20
39.724009
 30
0.0
 11
8.213999
 21
39.632007
 31
0.0
  0
LINE
  5
230
100
AcDbEntity
  8
0
 62
7
100
AcDbLine
 10
8.213999
 20
39.632007
 30
0.0
 11
8.278999
 21
39.534009
 31
0.0
  0
LINE
  5
231
100
AcDbEntity
  8
0
 62
7
100
AcDbLine
 10
8.278999
 20
39.534009
 30
0.0
 11
8.336999
 21
39.431009
 31
0.0
  0
LINE
  5
232
100
AcDbEntity
  8
0
 62
7
100
AcDbLine
 10
8.336999
 20
39.431009
 30
0.0
 11
8.385999
 21
39.324007
 31
0.0
  0
LINE
  5
233
100
AcDbEntity
  8
0
 62
7
100
AcDbLine
 10
8.385999
 20
39.324007
 30
0.0
 11
8.426999
 21
39.214008
 31
0.0
  0
LINE
  5
234
100
AcDbEntity
  8
0
 62
7
100
AcDbLine
 10
8.426999
 20
39.214008
 30
0.0
 11
8.459000
 21
39.100007
 31
0.0
  0
LINE
  5
235
100
AcDbEntity
  8
0
 62
7
100
AcDbLine
 10
8.459000
 20
39.100007
 30
0.0
 11
8.482001
 21
38.985007
 31
0.0
  0
LINE
  5
236
100
AcDbEntity
  8
0
 62
7
100
AcDbLine
 10
8.482001
 20
38.985007
 30
0.0
 11
8.495000
 21
38.868009
 31
0.0
  0
LINE
  5
237
100
AcDbEntity
  8
0
 62
7
100
AcDbLine
 10
8.495000
 20
38.868009
 30
0.0
 11
8.500001
 21
38.750009
 31
0.0
  0
LINE
  5
238
100
AcDbEntity
  8
0
 62
7
100
AcDbLine
 10
8.500001
 20
38.750009
 30
0.0
 11
8.495000
 21
38.632007
 31
0.0
  0
LINE
  5
239
100
AcDbEntity
  8
0
 62
7
100
AcDbLine
 10
8.495000
 20
38.632007
 30
0.0
 11
8.482001
 21
38.515008
 31
0.0
  0
LINE
  5
23a
100
AcDbEntity
  8
0
 62
7
100
AcDbLine
 10
8.482001
 20
38.515008
 30
0.0
 11
8.459000
 21
38.400009
 31
0.0
  0
LINE
  5
23b
100
AcDbEntity
  8
0
 62
7
100
AcDbLine
 10
8.459000
 20
38.400009
 30
0.0
 11
8.427000
 21
38.286008
 31
0.0
  0
LINE
  5
23c
100
AcDbEntity
  8
0
 62
7
100
AcDbLine
 10
8.427000
 20
38.286008
 30
0.0
 11
8.386000
 21
38.176009
 31
0.0
  0
LINE
  5
23d
100
AcDbEntity
  8
0
 62
7
100
AcDbLine
 10
8.386000
 20
38.176009
 30
0.0
 11
8.337000
 21
38.069007
 31
0.0
  0
LINE
  5
23e
100
AcDbEntity
  8
0
 62
7
100
AcDbLine
 10
8.337000
 20
38.069007
 30
0.0
 11
8.279000
 21
37.966007
 31
0.0
  0
LINE
  5
23f
100
AcDbEntity
  8
0
 62
7
100
AcDbLine
 10
8.279000
 20
37.966007
 30
0.0
 11
8.214000
 21
37.868008
 31
0.0
  0
LINE
  5
240
100
AcDbEntity
  8
0
 62
7
100
AcDbLine
 10
8.214000
 20
37.868008
 30
0.0
 11
8.141000
 21
37.776007
 31
0.0
  0
LINE
  5
241
100
AcDbEntity
  8
0
 62
7
100
AcDbLine
 10
8.141000
 20
37.776007
 30
0.0
 11
8.061000
 21
37.689009
 31
0.0
  0
LINE
  5
242
100
AcDbEntity
  8
0
 62
7
100
AcDbLine
 10
8.061000
 20
37.689009
 30
0.0
 11
7.974000
 21
37.609007
 31
0.0
  0
LINE
  5
243
100
AcDbEntity
  8
0
 62
7
100
AcDbLine
 10
7.974000
 20
37.609007
 30
0.0
 11
7.882000
 21
37.536008
 31
0.0
  0
LINE
  5
244
100
AcDbEntity
  8
0
 62
7
100
AcDbLine
 10
7.882000
 20
37.536008
 30
0.0
 11
7.784000
 21
37.471006
 31
0.0
  0
LINE
  5
245
100
AcDbEntity
  8
0
 62
7
100
AcDbLine
 10
7.784000
 20
37.471006
 30
0.0
 11
7.681000
 21
37.413007
 31
0.0
  0
LINE
  5
246
100
AcDbEntity
  8
0
 62
7
100
AcDbLine
 10
7.681000
 20
37.413007
 30
0.0
 11
7.574000
 21
37.364007
 31
0.0
  0
LINE
  5
247
100
AcDbEntity
  8
0
 62
7
100
AcDbLine
 10
7.574000
 20
37.364007
 30
0.0
 11
7.464000
 21
37.323009
 31
0.0
  0
LINE
  5
248
100
AcDbEntity
  8
0
 62
7
100
AcDbLine
 10
7.464000
 20
37.323009
 30
0.0
 11
7.350000
 21
37.291008
 31
0.0
  0
LINE
  5
249
100
AcDbEntity
  8
0
 62
7
100
AcDbLine
 10
7.350000
 20
37.291008
 30
0.0
 11
7.235000
 21
37.268007
 31
0.0
  0
LINE
  5
24a
100
AcDbEntity
  8
0
 62
7
100
AcDbLine
 10
7.235000
 20
37.268007
 30
0.0
 11
7.118000
 21
37.254996
 31
0.0
  0
LINE
  5
24b
100
AcDbEntity
  8
0
 62
7
100
AcDbLine
 10
7.118000
 20
37.254996
 30
0.0
 11
7.000000
 21
37.250001
 31
0.0
  0
LINE
  5
24c
100
AcDbEntity
  8
0
 62
7
100
AcDbLine
 10
32.999999
 20
14.499958
 30
0.0
 11
33.195999
 21
14.492055
 31
0.0
  0
LINE
  5
24d
100
AcDbEntity
  8
0
 62
7
100
AcDbLine
 10
33.195999
 20
14.492055
 30
0.0
 11
33.391001
 21
14.468913
 31
0.0
  0
LINE
  5
24e
100
AcDbEntity
  8
0
 62
7
100
AcDbLine
 10
33.391001
 20
14.468913
 30
0.0
 11
33.583999
 21
14.431011
 31
0.0
  0
LINE
  5
24f
100
AcDbEntity
  8
0
 62
7
100
AcDbLine
 10
33.583999
 20
14.431011
 30
0.0
 11
33.773000
 21
14.378009
 31
0.0
  0
LINE
  5
250
100
AcDbEntity
  8
0
 62
7
100
AcDbLine
 10
33.773000
 20
14.378009
 30
0.0
 11
33.957000
 21
14.309994
 31
0.0
  0
LINE
  5
251
100
AcDbEntity
  8
0
 62
7
100
AcDbLine
 10
33.957000
 20
14.309994
 30
0.0
 11
34.135001
 21
14.228008
 31
0.0
  0
LINE
  5
252
100
AcDbEntity
  8
0
 62
7
100
AcDbLine
 10
34.135001
 20
14.228008
 30
0.0
 11
34.305999
 21
14.131996
 31
0.0
  0
LINE
  5
253
100
AcDbEntity
  8
0
 62
7
100
AcDbLine
 10
34.305999
 20
14.131996
 30
0.0
 11
34.468999
 21
14.023002
 31
0.0
  0
LINE
  5
254
100
AcDbEntity
  8
0
 62
7
100
AcDbLine
 10
34.468999
 20
14.023002
 30
0.0
 11
34.623999
 21
13.900997
 31
0.0
  0
LINE
  5
255
100
AcDbEntity
  8
0
 62
7
100
AcDbLine
 10
34.623999
 20
13.900997
 30
0.0
 11
34.768000
 21
13.767986
 31
0.0
  0
LINE
  5
256
100
AcDbEntity
  8
0
 62
7
100
AcDbLine
 10
34.768000
 20
13.767986
 30
0.0
 11
34.901000
 21
13.623996
 31
0.0
  0
LINE
  5
257
100
AcDbEntity
  8
0
 62
7
100
AcDbLine
 10
34.901000
 20
13.623996
 30
0.0
 11
35.022999
 21
13.469000
 31
0.0
  0
LINE
  5
258
100
AcDbEntity
  8
0
 62
7
100
AcDbLine
 10
35.022999
 20
13.469000
 30
0.0
 11
35.131999
 21
13.305988
 31
0.0
  0
LINE
  5
259
100
AcDbEntity
  8
0
 62
7
100
AcDbLine
 10
35.131999
 20
13.305988
 30
0.0
 11
35.227999
 21
13.134990
 31
0.0
  0
LINE
  5
25a
100
AcDbEntity
  8
0
 62
7
100
AcDbLine
 10
35.227999
 20
13.134990
 30
0.0
 11
35.309999
 21
12.956992
 31
0.0
  0
LINE
  5
25b
100
AcDbEntity
  8
0
 62
7
100
AcDbLine
 10
35.309999
 20
12.956992
 30
0.0
 11
35.378001
 21
12.773012
 31
0.0
  0
LINE
  5
25c
100
AcDbEntity
  8
0
 62
7
100
AcDbLine
 10
35.378001
 20
12.773012
 30
0.0
 11
35.430999
 21
12.584007
 31
0.0
  0
LINE
  5
25d
100
AcDbEntity
  8
0
 62
7
100
AcDbLine
 10
35.430999
 20
12.584007
 30
0.0
 11
35.469000
 21
12.390996
 31
0.0
  0
LINE
  5
25e
100
AcDbEntity
  8
0
 62
7
100
AcDbLine
 10
35.469000
 20
12.390996
 30
0.0
 11
35.492001
 21
12.196008
 31
0.0
  0
LINE
  5
25f
100
AcDbEntity
  8
0
 62
7
100
AcDbLine
 10
35.492001
 20
12.196008
 30
0.0
 11
35.499988
 21
12.000005
 31
0.0
  0
LINE
  5
260
100
AcDbEntity
  8
0
 62
7
100
AcDbLine
 10
35.499988
 20
12.000005
 30
0.0
 11
35.492001
 21
11.804002
 31
0.0
  0
LINE
  5
261
100
AcDbEntity
  8
0
 62
7
100
AcDbLine
 10
35.492001
 20
11.804002
 30
0.0
 11
35.469000
 21
11.608986
 31
0.0
  0
LINE
  5
262
100
AcDbEntity
  8
0
 62
7
100
AcDbLine
 10
35.469000
 20
11.608986
 30
0.0
 11
35.430999
 21
11.416002
 31
0.0
  0
LINE
  5
263
100
AcDbEntity
  8
0
 62
7
100
AcDbLine
 10
35.430999
 20
11.416002
 30
0.0
 11
35.378001
 21
11.226998
 31
0.0
  0
LINE
  5
264
100
AcDbEntity
  8
0
 62
7
100
AcDbLine
 10
35.378001
 20
11.226998
 30
0.0
 11
35.309999
 21
11.042989
 31
0.0
  0
LINE
  5
265
100
AcDbEntity
  8
0
 62
7
100
AcDbLine
 10
35.309999
 20
11.042989
 30
0.0
 11
35.227999
 21
10.864992
 31
0.0
  0
LINE
  5
266
100
AcDbEntity
  8
0
 62
7
100
AcDbLine
 10
35.227999
 20
10.864992
 30
0.0
 11
35.131999
 21
10.693993
 31
0.0
  0
LINE
  5
267
100
AcDbEntity
  8
0
 62
7
100
AcDbLine
 10
35.131999
 20
10.693993
 30
0.0
 11
35.022999
 21
10.531010
 31
0.0
  0
LINE
  5
268
100
AcDbEntity
  8
0
 62
7
100
AcDbLine
 10
35.022999
 20
10.531010
 30
0.0
 11
34.901000
 21
10.375985
 31
0.0
  0
LINE
  5
269
100
AcDbEntity
  8
0
 62
7
100
AcDbLine
 10
34.901000
 20
10.375985
 30
0.0
 11
34.768000
 21
10.231996
 31
0.0
  0
LINE
  5
26a
100
AcDbEntity
  8
0
 62
7
100
AcDbLine
 10
34.768000
 20
10.231996
 30
0.0
 11
34.623999
 21
10.099012
 31
0.0
  0
LINE
  5
26b
100
AcDbEntity
  8
0
 62
7
100
AcDbLine
 10
34.623999
 20
10.099012
 30
0.0
 11
34.468999
 21
9.977008
 31
0.0
  0
LINE
  5
26c
100
AcDbEntity
  8
0
 62
7
100
AcDbLine
 10
34.468999
 20
9.977008
 30
0.0
 11
34.305999
 21
9.868014
 31
0.0
  0
LINE
  5
26d
100
AcDbEntity
  8
0
 62
7
100
AcDbLine
 10
34.305999
 20
9.868014
 30
0.0
 11
34.135001
 21
9.772002
 31
0.0
  0
LINE
  5
26e
100
AcDbEntity
  8
0
 62
7
100
AcDbLine
 10
34.135001
 20
9.772002
 30
0.0
 11
33.957000
 21
9.689988
 31
0.0
  0
LINE
  5
26f
100
AcDbEntity
  8
0
 62
7
100
AcDbLine
 10
33.957000
 20
9.689988
 30
0.0
 11
33.773000
 21
9.622000
 31
0.0
  0
LINE
  5
270
100
AcDbEntity
  8
0
 62
7
100
AcDbLine
 10
33.773000
 20
9.622000
 30
0.0
 11
33.583999
 21
9.568999
 31
0.0
  0
LINE
  5
271
100
AcDbEntity
  8
0
 62
7
100
AcDbLine
 10
33.583999
 20
9.568999
 30
0.0
 11
33.391001
 21
9.531012
 31
0.0
  0
LINE
  5
272
100
AcDbEntity
  8
0
 62
7
100
AcDbLine
 10
33.391001
 20
9.531012
 30
0.0
 11
33.195999
 21
9.507870
 31
0.0
  0
LINE
  5
273
100
AcDbEntity
  8
0
 62
7
100
AcDbLine
 10
33.195999
 20
9.507870
 30
0.0
 11
32.999999
 21
9.499968
 31
0.0
  0
LINE
  5
274
100
AcDbEntity
  8
0
 62
7
100
AcDbLine
 10
32.999999
 20
9.499968
 30
0.0
 11
32.804001
 21
9.507870
 31
0.0
  0
LINE
  5
275
100
AcDbEntity
  8
0
 62
7
100
AcDbLine
 10
32.804001
 20
9.507870
 30
0.0
 11
32.609000
 21
9.531012
 31
0.0
  0
LINE
  5
276
100
AcDbEntity
  8
0
 62
7
100
AcDbLine
 10
32.609000
 20
9.531012
 30
0.0
 11
32.415999
 21
9.568943
 31
0.0
  0
LINE
  5
277
100
AcDbEntity
  8
0
 62
7
100
AcDbLine
 10
32.415999
 20
9.568943
 30
0.0
 11
32.227001
 21
9.621944
 31
0.0
  0
LINE
  5
278
100
AcDbEntity
  8
0
 62
7
100
AcDbLine
 10
32.227001
 20
9.621944
 30
0.0
 11
32.043000
 21
9.689931
 31
0.0
  0
LINE
  5
279
100
AcDbEntity
  8
0
 62
7
100
AcDbLine
 10
32.043000
 20
9.689931
 30
0.0
 11
31.865000
 21
9.771945
 31
0.0
  0
LINE
  5
27a
100
AcDbEntity
  8
0
 62
7
100
AcDbLine
 10
31.865000
 20
9.771945
 30
0.0
 11
31.694001
 21
9.867957
 31
0.0
  0
LINE
  5
27b
100
AcDbEntity
  8
0
 62
7
100
AcDbLine
 10
31.694001
 20
9.867957
 30
0.0
 11
31.531001
 21
9.976951
 31
0.0
  0
LINE
  5
27c
100
AcDbEntity
  8
0
 62
7
100
AcDbLine
 10
31.531001
 20
9.976951
 30
0.0
 11
31.375999
 21
10.098956
 31
0.0
  0
LINE
  5
27d
100
AcDbEntity
  8
0
 62
7
100
AcDbLine
 10
31.375999
 20
10.098956
 30
0.0
 11
31.232001
 21
10.231939
 31
0.0
  0
LINE
  5
27e
100
AcDbEntity
  8
0
 62
7
100
AcDbLine
 10
31.232001
 20
10.231939
 30
0.0
 11
31.099001
 21
10.375929
 31
0.0
  0
LINE
  5
27f
100
AcDbEntity
  8
0
 62
7
100
AcDbLine
 10
31.099001
 20
10.375929
 30
0.0
 11
30.976999
 21
10.530954
 31
0.0
  0
LINE
  5
280
100
AcDbEntity
  8
0
 62
7
100
AcDbLine
 10
30.976999
 20
10.530954
 30
0.0
 11
30.867999
 21
10.693937
 31
0.0
  0
LINE
  5
281
100
AcDbEntity
  8
0
 62
7
100
AcDbLine
 10
30.867999
 20
10.693937
 30
0.0
 11
30.772001
 21
10.864935
 31
0.0
  0
LINE
  5
282
100
AcDbEntity
  8
0
 62
7
100
AcDbLine
 10
30.772001
 20
10.864935
 30
0.0
 11
30.689999
 21
11.042933
 31
0.0
  0
LINE
  5
283
100
AcDbEntity
  8
0
 62
7
100
AcDbLine
 10
30.689999
 20
11.042933
 30
0.0
 11
30.622000
 21
11.226942
 31
0.0
  0
LINE
  5
284
100
AcDbEntity
  8
0
 62
7
100
AcDbLine
 10
30.622000
 20
11.226942
 30
0.0
 11
30.568999
 21
11.415946
 31
0.0
  0
LINE
  5
285
100
AcDbEntity
  8
0
 62
7
100
AcDbLine
 10
30.568999
 20
11.415946
 30
0.0
 11
30.531000
 21
11.608930
 31
0.0
  0
LINE
  5
286
100
AcDbEntity
  8
0
 62
7
100
AcDbLine
 10
30.531000
 20
11.608930
 30
0.0
 11
30.507999
 21
11.803945
 31
0.0
  0
LINE
  5
287
100
AcDbEntity
  8
0
 62
7
100
AcDbLine
 10
30.507999
 20
11.803945
 30
0.0
 11
30.500012
 21
11.999948
 31
0.0
  0
LINE
  5
288
100
AcDbEntity
  8
0
 62
7
100
AcDbLine
 10
30.500012
 20
11.999948
 30
0.0
 11
30.507999
 21
12.195952
 31
0.0
  0
LINE
  5
289
100
AcDbEntity
  8
0
 62
7
100
AcDbLine
 10
30.507999
 20
12.195952
 30
0.0
 11
30.531000
 21
12.390939
 31
0.0
  0
LINE
  5
28a
100
AcDbEntity
  8
0
 62
7
100
AcDbLine
 10
30.531000
 20
12.390939
 30
0.0
 11
30.568999
 21
12.583951
 31
0.0
  0
LINE
  5
28b
100
AcDbEntity
  8
0
 62
7
100
AcDbLine
 10
30.568999
 20
12.583951
 30
0.0
 11
30.622000
 21
12.772955
 31
0.0
  0
LINE
  5
28c
100
AcDbEntity
  8
0
 62
7
100
AcDbLine
 10
30.622000
 20
12.772955
 30
0.0
 11
30.689999
 21
12.956936
 31
0.0
  0
LINE
  5
28d
100
AcDbEntity
  8
0
 62
7
100
AcDbLine
 10
30.689999
 20
12.956936
 30
0.0
 11
30.772001
 21
13.134933
 31
0.0
  0
LINE
  5
28e
100
AcDbEntity
  8
0
 62
7
100
AcDbLine
 10
30.772001
 20
13.134933
 30
0.0
 11
30.867999
 21
13.305932
 31
0.0
  0
LINE
  5
28f
100
AcDbEntity
  8
0
 62
7
100
AcDbLine
 10
30.867999
 20
13.305932
 30
0.0
 11
30.976999
 21
13.468943
 31
0.0
  0
LINE
  5
290
100
AcDbEntity
  8
0
 62
7
100
AcDbLine
 10
30.976999
 20
13.468943
 30
0.0
 11
31.099001
 21
13.623940
 31
0.0
  0
LINE
  5
291
100
AcDbEntity
  8
0
 62
7
100
AcDbLine
 10
31.099001
 20
13.623940
 30
0.0
 11
31.232001
 21
13.767930
 31
0.0
  0
LINE
  5
292
100
AcDbEntity
  8
0
 62
7
100
AcDbLine
 10
31.232001
 20
13.767930
 30
0.0
 11
31.375999
 21
13.900941
 31
0.0
  0
LINE
  5
293
100
AcDbEntity
  8
0
 62
7
100
AcDbLine
 10
31.375999
 20
13.900941
 30
0.0
 11
31.531001
 21
14.022946
 31
0.0
  0
LINE
  5
294
100
AcDbEntity
  8
0
 62
7
100
AcDbLine
 10
31.531001
 20
14.022946
 30
0.0
 11
31.694001
 21
14.131940
 31
0.0
  0
LINE
  5
295
100
AcDbEntity
  8
0
 62
7
100
AcDbLine
 10
31.694001
 20
14.131940
 30
0.0
 11
31.865000
 21
14.227952
 31
0.0
  0
LINE
  5
296
100
AcDbEntity
  8
0
 62
7
100
AcDbLine
 10
31.865000
 20
14.227952
 30
0.0
 11
32.043000
 21
14.309937
 31
0.0
  0
LINE
  5
297
100
AcDbEntity
  8
0
 62
7
100
AcDbLine
 10
32.043000
 20
14.309937
 30
0.0
 11
32.227001
 21
14.377953
 31
0.0
  0
LINE
  5
298
100
AcDbEntity
  8
0
 62
7
100
AcDbLine
 10
32.227001
 20
14.377953
 30
0.0
 11
32.415999
 21
14.430954
 31
0.0
  0
LINE
  5
299
100
AcDbEntity
  8
0
 62
7
100
AcDbLine
 10
32.415999
 20
14.430954
 30
0.0
 11
32.609000
 21
14.468941
 31
0.0
  0
LINE
  5
29a
100
AcDbEntity
  8
0
 62
7
100
AcDbLine
 10
32.609000
 20
14.468941
 30
0.0
 11
32.804001
 21
14.492084
 31
0.0
  0
LINE
  5
29b
100
AcDbEntity
  8
0
 62
7
100
AcDbLine
 10
32.804001
 20
14.492084
 30
0.0
 11
32.999999
 21
14.499958
 31
0.0
  0
LINE
  5
29c
100
AcDbEntity
  8
0
 62
7
100
AcDbLine
 10
33.195999
 20
39.491991
 30
0.0
 11
33.391001
 21
39.468990
 31
0.0
  0
LINE
  5
29d
100
AcDbEntity
  8
0
 62
7
100
AcDbLine
 10
33.391001
 20
39.468990
 30
0.0
 11
33.583999
 21
39.430992
 31
0.0
  0
LINE
  5
29e
100
AcDbEntity
  8
0
 62
7
100
AcDbLine
 10
33.583999
 20
39.430992
 30
0.0
 11
33.773000
 21
39.377990
 31
0.0
  0
LINE
  5
29f
100
AcDbEntity
  8
0
 62
7
100
AcDbLine
 10
33.773000
 20
39.377990
 30
0.0
 11
33.957000
 21
39.309992
 31
0.0
  0
LINE
  5
2a0
100
AcDbEntity
  8
0
 62
7
100
AcDbLine
 10
33.957000
 20
39.309992
 30
0.0
 11
34.135001
 21
39.227992
 31
0.0
  0
LINE
  5
2a1
100
AcDbEntity
  8
0
 62
7
100
AcDbLine
 10
34.135001
 20
39.227992
 30
0.0
 11
34.305999
 21
39.131991
 31
0.0
  0
LINE
  5
2a2
100
AcDbEntity
  8
0
 62
7
100
AcDbLine
 10
34.305999
 20
39.131991
 30
0.0
 11
34.468999
 21
39.022992
 31
0.0
  0
LINE
  5
2a3
100
AcDbEntity
  8
0
 62
7
100
AcDbLine
 10
34.468999
 20
39.022992
 30
0.0
 11
34.623999
 21
38.900990
 31
0.0
  0
LINE
  5
2a4
100
AcDbEntity
  8
0
 62
7
100
AcDbLine
 10
34.623999
 20
38.900990
 30
0.0
 11
34.768000
 21
38.767990
 31
0.0
  0
LINE
  5
2a5
100
AcDbEntity
  8
0
 62
7
100
AcDbLine
 10
34.768000
 20
38.767990
 30
0.0
 11
34.901000
 21
38.623991
 31
0.0
  0
LINE
  5
2a6
100
AcDbEntity
  8
0
 62
7
100
AcDbLine
 10
34.901000
 20
38.623991
 30
0.0
 11
35.022999
 21
38.468992
 31
0.0
  0
LINE
  5
2a7
100
AcDbEntity
  8
0
 62
7
100
AcDbLine
 10
35.022999
 20
38.468992
 30
0.0
 11
35.131999
 21
38.305992
 31
0.0
  0
LINE
  5
2a8
100
AcDbEntity
  8
0
 62
7
100
AcDbLine
 10
35.131999
 20
38.305992
 30
0.0
 11
35.227999
 21
38.134991
 31
0.0
  0
LINE
  5
2a9
100
AcDbEntity
  8
0
 62
7
100
AcDbLine
 10
35.227999
 20
38.134991
 30
0.0
 11
35.309999
 21
37.956990
 31
0.0
  0
LINE
  5
2aa
100
AcDbEntity
  8
0
 62
7
100
AcDbLine
 10
35.309999
 20
37.956990
 30
0.0
 11
35.378001
 21
37.772990
 31
0.0
  0
LINE
  5
2ab
100
AcDbEntity
  8
0
 62
7
100
AcDbLine
 10
35.378001
 20
37.772990
 30
0.0
 11
35.430999
 21
37.583991
 31
0.0
  0
LINE
  5
2ac
100
AcDbEntity
  8
0
 62
7
100
AcDbLine
 10
35.430999
 20
37.583991
 30
0.0
 11
35.469000
 21
37.390991
 31
0.0
  0
LINE
  5
2ad
100
AcDbEntity
  8
0
 62
7
100
AcDbLine
 10
35.469000
 20
37.390991
 30
0.0
 11
35.492001
 21
37.195992
 31
0.0
  0
LINE
  5
2ae
100
AcDbEntity
  8
0
 62
7
100
AcDbLine
 10
35.492001
 20
37.195992
 30
0.0
 11
35.499988
 21
36.999992
 31
0.0
  0
LINE
  5
2af
100
AcDbEntity
  8
0
 62
7
100
AcDbLine
 10
35.499988
 20
36.999992
 30
0.0
 11
35.492001
 21
36.803991
 31
0.0
  0
LINE
  5
2b0
100
AcDbEntity
  8
0
 62
7
100
AcDbLine
 10
35.492001
 20
36.803991
 30
0.0
 11
35.469000
 21
36.608990
 31
0.0
  0
LINE
  5
2b1
100
AcDbEntity
  8
0
 62
7
100
AcDbLine
 10
35.469000
 20
36.608990
 30
0.0
 11
35.430999
 21
36.415992
 31
0.0
  0
LINE
  5
2b2
100
AcDbEntity
  8
0
 62
7
100
AcDbLine
 10
35.430999
 20
36.415992
 30
0.0
 11
35.378001
 21
36.226991
 31
0.0
  0
LINE
  5
2b3
100
AcDbEntity
  8
0
 62
7
100
AcDbLine
 10
35.378001
 20
36.226991
 30
0.0
 11
35.309999
 21
36.042990
 31
0.0
  0
LINE
  5
2b4
100
AcDbEntity
  8
0
 62
7
100
AcDbLine
 10
35.309999
 20
36.042990
 30
0.0
 11
35.227999
 21
35.864990
 31
0.0
  0
LINE
  5
2b5
100
AcDbEntity
  8
0
 62
7
100
AcDbLine
 10
35.227999
 20
35.864990
 30
0.0
 11
35.131999
 21
35.693991
 31
0.0
  0
LINE
  5
2b6
100
AcDbEntity
  8
0
 62
7
100
AcDbLine
 10
35.131999
 20
35.693991
 30
0.0
 11
35.022999
 21
35.530991
 31
0.0
  0
LINE
  5
2b7
100
AcDbEntity
  8
0
 62
7
100
AcDbLine
 10
35.022999
 20
35.530991
 30
0.0
 11
34.901000
 21
35.375992
 31
0.0
  0
LINE
  5
2b8
100
AcDbEntity
  8
0
 62
7
100
AcDbLine
 10
34.901000
 20
35.375992
 30
0.0
 11
34.768000
 21
35.231991
 31
0.0
  0
LINE
  5
2b9
100
AcDbEntity
  8
0
 62
7
100
AcDbLine
 10
34.768000
 20
35.231991
 30
0.0
 11
34.623999
 21
35.098991
 31
0.0
  0
LINE
  5
2ba
100
AcDbEntity
  8
0
 62
7
100
AcDbLine
 10
34.623999
 20
35.098991
 30
0.0
 11
34.468999
 21
34.976992
 31
0.0
  0
LINE
  5
2bb
100
AcDbEntity
  8
0
 62
7
100
AcDbLine
 10
34.468999
 20
34.976992
 30
0.0
 11
34.305999
 21
34.867992
 31
0.0
  0
LINE
  5
2bc
100
AcDbEntity
  8
0
 62
7
100
AcDbLine
 10
34.305999
 20
34.867992
 30
0.0
 11
34.135001
 21
34.771991
 31
0.0
  0
LINE
  5
2bd
100
AcDbEntity
  8
0
 62
7
100
AcDbLine
 10
34.135001
 20
34.771991
 30
0.0
 11
33.957000
 21
34.689991
 31
0.0
  0
LINE
  5
2be
100
AcDbEntity
  8
0
 62
7
100
AcDbLine
 10
33.957000
 20
34.689991
 30
0.0
 11
33.773000
 21
34.621990
 31
0.0
  0
LINE
  5
2bf
100
AcDbEntity
  8
0
 62
7
100
AcDbLine
 10
33.773000
 20
34.621990
 30
0.0
 11
33.583999
 21
34.568991
 31
0.0
  0
LINE
  5
2c0
100
AcDbEntity
  8
0
 62
7
100
AcDbLine
 10
33.583999
 20
34.568991
 30
0.0
 11
33.391001
 21
34.530990
 31
0.0
  0
LINE
  5
2c1
100
AcDbEntity
  8
0
 62
7
100
AcDbLine
 10
33.391001
 20
34.530990
 30
0.0
 11
33.195999
 21
34.507989
 31
0.0
  0
LINE
  5
2c2
100
AcDbEntity
  8
0
 62
7
100
AcDbLine
 10
33.195999
 20
34.507989
 30
0.0
 11
32.999999
 21
34.499974
 31
0.0
  0
LINE
  5
2c3
100
AcDbEntity
  8
0
 62
7
100
AcDbLine
 10
32.999999
 20
34.499974
 30
0.0
 11
32.804001
 21
34.507989
 31
0.0
  0
LINE
  5
2c4
100
AcDbEntity
  8
0
 62
7
100
AcDbLine
 10
32.804001
 20
34.507989
 30
0.0
 11
32.609000
 21
34.530990
 31
0.0
  0
LINE
  5
2c5
100
AcDbEntity
  8
0
 62
7
100
AcDbLine
 10
32.609000
 20
34.530990
 30
0.0
 11
32.415999
 21
34.568989
 31
0.0
  0
LINE
  5
2c6
100
AcDbEntity
  8
0
 62
7
100
AcDbLine
 10
32.415999
 20
34.568989
 30
0.0
 11
32.227001
 21
34.621987
 31
0.0
  0
LINE
  5
2c7
100
AcDbEntity
  8
0
 62
7
100
AcDbLine
 10
32.227001
 20
34.621987
 30
0.0
 11
32.043000
 21
34.689989
 31
0.0
  0
LINE
  5
2c8
100
AcDbEntity
  8
0
 62
7
100
AcDbLine
 10
32.043000
 20
34.689989
 30
0.0
 11
31.865000
 21
34.771988
 31
0.0
  0
LINE
  5
2c9
100
AcDbEntity
  8
0
 62
7
100
AcDbLine
 10
31.865000
 20
34.771988
 30
0.0
 11
31.694001
 21
34.867989
 31
0.0
  0
LINE
  5
2ca
100
AcDbEntity
  8
0
 62
7
100
AcDbLine
 10
31.694001
 20
34.867989
 30
0.0
 11
31.531001
 21
34.976989
 31
0.0
  0
LINE
  5
2cb
100
AcDbEntity
  8
0
 62
7
100
AcDbLine
 10
31.531001
 20
34.976989
 30
0.0
 11
31.375999
 21
35.098988
 31
0.0
  0
LINE
  5
2cc
100
AcDbEntity
  8
0
 62
7
100
AcDbLine
 10
31.375999
 20
35.098988
 30
0.0
 11
31.232001
 21
35.231988
 31
0.0
  0
LINE
  5
2cd
100
AcDbEntity
  8
0
 62
7
100
AcDbLine
 10
31.232001
 20
35.231988
 30
0.0
 11
31.099001
 21
35.375989
 31
0.0
  0
LINE
  5
2ce
100
AcDbEntity
  8
0
 62
7
100
AcDbLine
 10
31.099001
 20
35.375989
 30
0.0
 11
30.976999
 21
35.530988
 31
0.0
  0
LINE
  5
2cf
100
AcDbEntity
  8
0
 62
7
100
AcDbLine
 10
30.976999
 20
35.530988
 30
0.0
 11
30.867999
 21
35.693989
 31
0.0
  0
LINE
  5
2d0
100
AcDbEntity
  8
0
 62
7
100
AcDbLine
 10
30.867999
 20
35.693989
 30
0.0
 11
30.772001
 21
35.864987
 31
0.0
  0
LINE
  5
2d1
100
AcDbEntity
  8
0
 62
7
100
AcDbLine
 10
30.772001
 20
35.864987
 30
0.0
 11
30.689999
 21
36.042987
 31
0.0
  0
LINE
  5
2d2
100
AcDbEntity
  8
0
 62
7
100
AcDbLine
 10
30.689999
 20
36.042987
 30
0.0
 11
30.622000
 21
36.226988
 31
0.0
  0
LINE
  5
2d3
100
AcDbEntity
  8
0
 62
7
100
AcDbLine
 10
30.622000
 20
36.226988
 30
0.0
 11
30.568999
 21
36.415989
 31
0.0
  0
LINE
  5
2d4
100
AcDbEntity
  8
0
 62
7
100
AcDbLine
 10
30.568999
 20
36.415989
 30
0.0
 11
30.531000
 21
36.608987
 31
0.0
  0
LINE
  5
2d5
100
AcDbEntity
  8
0
 62
7
100
AcDbLine
 10
30.531000
 20
36.608987
 30
0.0
 11
30.507999
 21
36.803988
 31
0.0
  0
LINE
  5
2d6
100
AcDbEntity
  8
0
 62
7
100
AcDbLine
 10
30.507999
 20
36.803988
 30
0.0
 11
30.500012
 21
36.999989
 31
0.0
  0
LINE
  5
2d7
100
AcDbEntity
  8
0
 62
7
100
AcDbLine
 10
30.500012
 20
36.999989
 30
0.0
 11
30.507999
 21
37.195989
 31
0.0
  0
LINE
  5
2d8
100
AcDbEntity
  8
0
 62
7
100
AcDbLine
 10
30.507999
 20
37.195989
 30
0.0
 11
30.531000
 21
37.390988
 31
0.0
  0
LINE
  5
2d9
100
AcDbEntity
  8
0
 62
7
100
AcDbLine
 10
30.531000
 20
37.390988
 30
0.0
 11
30.568999
 21
37.583988
 31
0.0
  0
LINE
  5
2da
100
AcDbEntity
  8
0
 62
7
100
AcDbLine
 10
30.568999
 20
37.583988
 30
0.0
 11
30.622000
 21
37.772987
 31
0.0
  0
LINE
  5
2db
100
AcDbEntity
  8
0
 62
7
100
AcDbLine
 10
30.622000
 20
37.772987
 30
0.0
 11
30.689999
 21
37.956987
 31
0.0
  0
LINE
  5
2dc
100
AcDbEntity
  8
0
 62
7
100
AcDbLine
 10
30.689999
 20
37.956987
 30
0.0
 11
30.772001
 21
38.134988
 31
0.0
  0
LINE
  5
2dd
100
AcDbEntity
  8
0
 62
7
100
AcDbLine
 10
30.772001
 20
38.134988
 30
0.0
 11
30.867999
 21
38.305989
 31
0.0
  0
LINE
  5
2de
100
AcDbEntity
  8
0
 62
7
100
AcDbLine
 10
30.867999
 20
38.305989
 30
0.0
 11
30.976999
 21
38.468989
 31
0.0
  0
LINE
  5
2df
100
AcDbEntity
  8
0
 62
7
100
AcDbLine
 10
30.976999
 20
38.468989
 30
0.0
 11
31.099001
 21
38.623989
 31
0.0
  0
LINE
  5
2e0
100
AcDbEntity
  8
0
 62
7
100
AcDbLine
 10
31.099001
 20
38.623989
 30
0.0
 11
31.232001
 21
38.767987
 31
0.0
  0
LINE
  5
2e1
100
AcDbEntity
  8
0
 62
7
100
AcDbLine
 10
31.232001
 20
38.767987
 30
0.0
 11
31.375999
 21
38.900987
 31
0.0
  0
LINE
  5
2e2
100
AcDbEntity
  8
0
 62
7
100
AcDbLine
 10
31.375999
 20
38.900987
 30
0.0
 11
31.531001
 21
39.022989
 31
0.0
  0
LINE
  5
2e3
100
AcDbEntity
  8
0
 62
7
100
AcDbLine
 10
31.531001
 20
39.022989
 30
0.0
 11
31.694001
 21
39.131989
 31
0.0
  0
LINE
  5
2e4
100
AcDbEntity
  8
0
 62
7
100
AcDbLine
 10
31.694001
 20
39.131989
 30
0.0
 11
31.865000
 21
39.227989
 31
0.0
  0
LINE
  5
2e5
100
AcDbEntity
  8
0
 62
7
100
AcDbLine
 10
31.865000
 20
39.227989
 30
0.0
 11
32.043000
 21
39.309989
 31
0.0
  0
LINE
  5
2e6
100
AcDbEntity
  8
0
 62
7
100
AcDbLine
 10
32.043000
 20
39.309989
 30
0.0
 11
32.227001
 21
39.377988
 31
0.0
  0
LINE
  5
2e7
100
AcDbEntity
  8
0
 62
7
100
AcDbLine
 10
32.227001
 20
39.377988
 30
0.0
 11
32.415999
 21
39.430989
 31
0.0
  0
LINE
  5
2e8
100
AcDbEntity
  8
0
 62
7
100
AcDbLine
 10
32.415999
 20
39.430989
 30
0.0
 11
32.609000
 21
39.468987
 31
0.0
  0
LINE
  5
2e9
100
AcDbEntity
  8
0
 62
7
100
AcDbLine
 10
32.609000
 20
39.468987
 30
0.0
 11
32.804001
 21
39.491988
 31
0.0
  0
LINE
  5
2ea
100
AcDbEntity
  8
0
 62
7
100
AcDbLine
 10
32.804001
 20
39.491988
 30
0.0
 11
32.999999
 21
39.500004
 31
0.0
  0
LINE
  5
2eb
100
AcDbEntity
  8
0
 62
7
100
AcDbLine
 10
32.999999
 20
39.500004
 30
0.0
 11
33.195999
 21
39.491991
 31
0.0
  0
LINE
  5
2ec
100
AcDbEntity
  8
0
 62
7
100
AcDbLine
 10
32.609000
 20
64.530998
 30
0.0
 11
32.415999
 21
64.568999
 31
0.0
  0
LINE
  5
2ed
100
AcDbEntity
  8
0
 62
7
100
AcDbLine
 10
32.415999
 20
64.568999
 30
0.0
 11
32.227001
 21
64.622001
 31
0.0
  0
LINE
  5
2ee
100
AcDbEntity
  8
0
 62
7
100
AcDbLine
 10
32.227001
 20
64.622001
 30
0.0
 11
32.043000
 21
64.689999
 31
0.0
  0
LINE
  5
2ef
100
AcDbEntity
  8
0
 62
7
100
AcDbLine
 10
32.043000
 20
64.689999
 30
0.0
 11
31.865000
 21
64.771999
 31
0.0
  0
LINE
  5
2f0
100
AcDbEntity
  8
0
 62
7
100
AcDbLine
 10
31.865000
 20
64.771999
 30
0.0
 11
31.694001
 21
64.868000
 31
0.0
  0
LINE
  5
2f1
100
AcDbEntity
  8
0
 62
7
100
AcDbLine
 10
31.694001
 20
64.868000
 30
0.0
 11
31.531001
 21
64.976999
 31
0.0
  0
LINE
  5
2f2
100
AcDbEntity
  8
0
 62
7
100
AcDbLine
 10
31.531001
 20
64.976999
 30
0.0
 11
31.375999
 21
65.098998
 31
0.0
  0
LINE
  5
2f3
100
AcDbEntity
  8
0
 62
7
100
AcDbLine
 10
31.375999
 20
65.098998
 30
0.0
 11
31.232001
 21
65.231998
 31
0.0
  0
LINE
  5
2f4
100
AcDbEntity
  8
0
 62
7
100
AcDbLine
 10
31.232001
 20
65.231998
 30
0.0
 11
31.099001
 21
65.376000
 31
0.0
  0
LINE
  5
2f5
100
AcDbEntity
  8
0
 62
7
100
AcDbLine
 10
31.099001
 20
65.376000
 30
0.0
 11
30.976999
 21
65.530999
 31
0.0
  0
LINE
  5
2f6
100
AcDbEntity
  8
0
 62
7
100
AcDbLine
 10
30.976999
 20
65.530999
 30
0.0
 11
30.867999
 21
65.693999
 31
0.0
  0
LINE
  5
2f7
100
AcDbEntity
  8
0
 62
7
100
AcDbLine
 10
30.867999
 20
65.693999
 30
0.0
 11
30.772001
 21
65.865000
 31
0.0
  0
LINE
  5
2f8
100
AcDbEntity
  8
0
 62
7
100
AcDbLine
 10
30.772001
 20
65.865000
 30
0.0
 11
30.689999
 21
66.042998
 31
0.0
  0
LINE
  5
2f9
100
AcDbEntity
  8
0
 62
7
100
AcDbLine
 10
30.689999
 20
66.042998
 30
0.0
 11
30.622000
 21
66.226998
 31
0.0
  0
LINE
  5
2fa
100
AcDbEntity
  8
0
 62
7
100
AcDbLine
 10
30.622000
 20
66.226998
 30
0.0
 11
30.568999
 21
66.416000
 31
0.0
  0
LINE
  5
2fb
100
AcDbEntity
  8
0
 62
7
100
AcDbLine
 10
30.568999
 20
66.416000
 30
0.0
 11
30.531000
 21
66.609000
 31
0.0
  0
LINE
  5
2fc
100
AcDbEntity
  8
0
 62
7
100
AcDbLine
 10
30.531000
 20
66.609000
 30
0.0
 11
30.507999
 21
66.803999
 31
0.0
  0
LINE
  5
2fd
100
AcDbEntity
  8
0
 62
7
100
AcDbLine
 10
30.507999
 20
66.803999
 30
0.0
 11
30.500012
 21
66.999999
 31
0.0
  0
LINE
  5
2fe
100
AcDbEntity
  8
0
 62
7
100
AcDbLine
 10
30.500012
 20
66.999999
 30
0.0
 11
30.507999
 21
67.196000
 31
0.0
  0
LINE
  5
2ff
100
AcDbEntity
  8
0
 62
7
100
AcDbLine
 10
30.507999
 20
67.196000
 30
0.0
 11
30.531000
 21
67.390998
 31
0.0
  0
LINE
  5
300
100
AcDbEntity
  8
0
 62
7
100
AcDbLine
 10
30.531000
 20
67.390998
 30
0.0
 11
30.568999
 21
67.583999
 31
0.0
  0
LINE
  5
301
100
AcDbEntity
  8
0
 62
7
100
AcDbLine
 10
30.568999
 20
67.583999
 30
0.0
 11
30.622000
 21
67.773000
 31
0.0
  0
LINE
  5
302
100
AcDbEntity
  8
0
 62
7
100
AcDbLine
 10
30.622000
 20
67.773000
 30
0.0
 11
30.689999
 21
67.956998
 31
0.0
  0
LINE
  5
303
100
AcDbEntity
  8
0
 62
7
100
AcDbLine
 10
30.689999
 20
67.956998
 30
0.0
 11
30.772001
 21
68.134998
 31
0.0
  0
LINE
  5
304
100
AcDbEntity
  8
0
 62
7
100
AcDbLine
 10
30.772001
 20
68.134998
 30
0.0
 11
30.867999
 21
68.306000
 31
0.0
  0
LINE
  5
305
100
AcDbEntity
  8
0
 62
7
100
AcDbLine
 10
30.867999
 20
68.306000
 30
0.0
 11
30.976999
 21
68.469000
 31
0.0
  0
LINE
  5
306
100
AcDbEntity
  8
0
 62
7
100
AcDbLine
 10
30.976999
 20
68.469000
 30
0.0
 11
31.099001
 21
68.623999
 31
0.0
  0
LINE
  5
307
100
AcDbEntity
  8
0
 62
7
100
AcDbLine
 10
31.099001
 20
68.623999
 30
0.0
 11
31.232001
 21
68.768000
 31
0.0
  0
LINE
  5
308
100
AcDbEntity
  8
0
 62
7
100
AcDbLine
 10
31.232001
 20
68.768000
 30
0.0
 11
31.375999
 21
68.901000
 31
0.0
  0
LINE
  5
309
100
AcDbEntity
  8
0
 62
7
100
AcDbLine
 10
31.375999
 20
68.901000
 30
0.0
 11
31.531001
 21
69.022999
 31
0.0
  0
LINE
  5
30a
100
AcDbEntity
  8
0
 62
7
100
AcDbLine
 10
31.531001
 20
69.022999
 30
0.0
 11
31.694001
 21
69.131999
 31
0.0
  0
LINE
  5
30b
100
AcDbEntity
  8
0
 62
7
100
AcDbLine
 10
31.694001
 20
69.131999
 30
0.0
 11
31.865000
 21
69.228000
 31
0.0
  0
LINE
  5
30c
100
AcDbEntity
  8
0
 62
7
100
AcDbLine
 10
31.865000
 20
69.228000
 30
0.0
 11
32.043000
 21
69.310000
 31
0.0
  0
LINE
  5
30d
100
AcDbEntity
  8
0
 62
7
100
AcDbLine
 10
32.043000
 20
69.310000
 30
0.0
 11
32.227001
 21
69.377998
 31
0.0
  0
LINE
  5
30e
100
AcDbEntity
  8
0
 62
7
100
AcDbLine
 10
32.227001
 20
69.377998
 30
0.0
 11
32.415999
 21
69.430999
 31
0.0
  0
LINE
  5
30f
100
AcDbEntity
  8
0
 62
7
100
AcDbLine
 10
32.415999
 20
69.430999
 30
0.0
 11
32.609000
 21
69.468998
 31
0.0
  0
LINE
  5
310
100
AcDbEntity
  8
0
 62
7
100
AcDbLine
 10
32.609000
 20
69.468998
 30
0.0
 11
32.804001
 21
69.491999
 31
0.0
  0
LINE
  5
311
100
AcDbEntity
  8
0
 62
7
100
AcDbLine
 10
32.804001
 20
69.491999
 30
0.0
 11
32.999999
 21
69.500014
 31
0.0
  0
LINE
  5
312
100
AcDbEntity
  8
0
 62
7
100
AcDbLine
 10
32.999999
 20
69.500014
 30
0.0
 11
33.195999
 21
69.491999
 31
0.0
  0
LINE
  5
313
100
AcDbEntity
  8
0
 62
7
100
AcDbLine
 10
33.195999
 20
69.491999
 30
0.0
 11
33.391001
 21
69.468998
 31
0.0
  0
LINE
  5
314
100
AcDbEntity
  8
0
 62
7
100
AcDbLine
 10
33.391001
 20
69.468998
 30
0.0
 11
33.583999
 21
69.430999
 31
0.0
  0
LINE
  5
315
100
AcDbEntity
  8
0
 62
7
100
AcDbLine
 10
33.583999
 20
69.430999
 30
0.0
 11
33.773000
 21
69.377998
 31
0.0
  0
LINE
  5
316
100
AcDbEntity
  8
0
 62
7
100
AcDbLine
 10
33.773000
 20
69.377998
 30
0.0
 11
33.957000
 21
69.310000
 31
0.0
  0
LINE
  5
317
100
AcDbEntity
  8
0
 62
7
100
AcDbLine
 10
33.957000
 20
69.310000
 30
0.0
 11
34.135001
 21
69.228000
 31
0.0
  0
LINE
  5
318
100
AcDbEntity
  8
0
 62
7
100
AcDbLine
 10
34.135001
 20
69.228000
 30
0.0
 11
34.305999
 21
69.131999
 31
0.0
  0
LINE
  5
319
100
AcDbEntity
  8
0
 62
7
100
AcDbLine
 10
34.305999
 20
69.131999
 30
0.0
 11
34.468999
 21
69.022999
 31
0.0
  0
LINE
  5
31a
100
AcDbEntity
  8
0
 62
7
100
AcDbLine
 10
34.468999
 20
69.022999
 30
0.0
 11
34.623999
 21
68.901000
 31
0.0
  0
LINE
  5
31b
100
AcDbEntity
  8
0
 62
7
100
AcDbLine
 10
34.623999
 20
68.901000
 30
0.0
 11
34.768000
 21
68.768000
 31
0.0
  0
LINE
  5
31c
100
AcDbEntity
  8
0
 62
7
100
AcDbLine
 10
34.768000
 20
68.768000
 30
0.0
 11
34.901000
 21
68.623999
 31
0.0
  0
LINE
  5
31d
100
AcDbEntity
  8
0
 62
7
100
AcDbLine
 10
34.901000
 20
68.623999
 30
0.0
 11
35.022999
 21
68.469000
 31
0.0
  0
LINE
  5
31e
100
AcDbEntity
  8
0
 62
7
100
AcDbLine
 10
35.022999
 20
68.469000
 30
0.0
 11
35.131999
 21
68.306000
 31
0.0
  0
LINE
  5
31f
100
AcDbEntity
  8
0
 62
7
100
AcDbLine
 10
35.131999
 20
68.306000
 30
0.0
 11
35.227999
 21
68.134998
 31
0.0
  0
LINE
  5
320
100
AcDbEntity
  8
0
 62
7
100
AcDbLine
 10
35.227999
 20
68.134998
 30
0.0
 11
35.309999
 21
67.956998
 31
0.0
  0
LINE
  5
321
100
AcDbEntity
  8
0
 62
7
100
AcDbLine
 10
35.309999
 20
67.956998
 30
0.0
 11
35.378001
 21
67.773000
 31
0.0
  0
LINE
  5
322
100
AcDbEntity
  8
0
 62
7
100
AcDbLine
 10
35.378001
 20
67.773000
 30
0.0
 11
35.430999
 21
67.583999
 31
0.0
  0
LINE
  5
323
100
AcDbEntity
  8
0
 62
7
100
AcDbLine
 10
35.430999
 20
67.583999
 30
0.0
 11
35.469000
 21
67.390998
 31
0.0
  0
LINE
  5
324
100
AcDbEntity
  8
0
 62
7
100
AcDbLine
 10
35.469000
 20
67.390998
 30
0.0
 11
35.492001
 21
67.196000
 31
0.0
  0
LINE
  5
325
100
AcDbEntity
  8
0
 62
7
100
AcDbLine
 10
35.492001
 20
67.196000
 30
0.0
 11
35.499988
 21
66.999999
 31
0.0
  0
LINE
  5
326
100
AcDbEntity
  8
0
 62
7
100
AcDbLine
 10
35.499988
 20
66.999999
 30
0.0
 11
35.492001
 21
66.803999
 31
0.0
  0
LINE
  5
327
100
AcDbEntity
  8
0
 62
7
100
AcDbLine
 10
35.492001
 20
66.803999
 30
0.0
 11
35.469000
 21
66.609000
 31
0.0
  0
LINE
  5
328
100
AcDbEntity
  8
0
 62
7
100
AcDbLine
 10
35.469000
 20
66.609000
 30
0.0
 11
35.430999
 21
66.416000
 31
0.0
  0
LINE
  5
329
100
AcDbEntity
  8
0
 62
7
100
AcDbLine
 10
35.430999
 20
66.416000
 30
0.0
 11
35.378001
 21
66.226998
 31
0.0
  0
LINE
  5
32a
100
AcDbEntity
  8
0
 62
7
100
AcDbLine
 10
35.378001
 20
66.226998
 30
0.0
 11
35.309999
 21
66.042998
 31
0.0
  0
LINE
  5
32b
100
AcDbEntity
  8
0
 62
7
100
AcDbLine
 10
35.309999
 20
66.042998
 30
0.0
 11
35.227999
 21
65.865000
 31
0.0
  0
LINE
  5
32c
100
AcDbEntity
  8
0
 62
7
100
AcDbLine
 10
35.227999
 20
65.865000
 30
0.0
 11
35.131999
 21
65.693999
 31
0.0
  0
LINE
  5
32d
100
AcDbEntity
  8
0
 62
7
100
AcDbLine
 10
35.131999
 20
65.693999
 30
0.0
 11
35.022999
 21
65.530999
 31
0.0
  0
LINE
  5
32e
100
AcDbEntity
  8
0
 62
7
100
AcDbLine
 10
35.022999
 20
65.530999
 30
0.0
 11
34.901000
 21
65.376000
 31
0.0
  0
LINE
  5
32f
100
AcDbEntity
  8
0
 62
7
100
AcDbLine
 10
34.901000
 20
65.376000
 30
0.0
 11
34.768000
 21
65.231998
 31
0.0
  0
LINE
  5
330
100
AcDbEntity
  8
0
 62
7
100
AcDbLine
 10
34.768000
 20
65.231998
 30
0.0
 11
34.623999
 21
65.098998
 31
0.0
  0
LINE
  5
331
100
AcDbEntity
  8
0
 62
7
100
AcDbLine
 10
34.623999
 20
65.098998
 30
0.0
 11
34.468999
 21
64.976999
 31
0.0
  0
LINE
  5
332
100
AcDbEntity
  8
0
 62
7
100
AcDbLine
 10
34.468999
 20
64.976999
 30
0.0
 11
34.305999
 21
64.868000
 31
0.0
  0
LINE
  5
333
100
AcDbEntity
  8
0
 62
7
100
AcDbLine
 10
34.305999
 20
64.868000
 30
0.0
 11
34.135001
 21
64.771999
 31
0.0
  0
LINE
  5
334
100
AcDbEntity
  8
0
 62
7
100
AcDbLine
 10
34.135001
 20
64.771999
 30
0.0
 11
33.957000
 21
64.689999
 31
0.0
  0
LINE
  5
335
100
AcDbEntity
  8
0
 62
7
100
AcDbLine
 10
33.957000
 20
64.689999
 30
0.0
 11
33.773000
 21
64.622001
 31
0.0
  0
LINE
  5
336
100
AcDbEntity
  8
0
 62
7
100
AcDbLine
 10
33.773000
 20
64.622001
 30
0.0
 11
33.583999
 21
64.568999
 31
0.0
  0
LINE
  5
337
100
AcDbEntity
  8
0
 62
7
100
AcDbLine
 10
33.583999
 20
64.568999
 30
0.0
 11
33.391001
 21
64.530998
 31
0.0
  0
LINE
  5
338
100
AcDbEntity
  8
0
 62
7
100
AcDbLine
 10
33.391001
 20
64.530998
 30
0.0
 11
33.195999
 21
64.507997
 31
0.0
  0
LINE
  5
339
100
AcDbEntity
  8
0
 62
7
100
AcDbLine
 10
33.195999
 20
64.507997
 30
0.0
 11
32.999999
 21
64.500010
 31
0.0
  0
LINE
  5
33a
100
AcDbEntity
  8
0
 62
7
100
AcDbLine
 10
32.999999
 20
64.500010
 30
0.0
 11
32.804001
 21
64.507997
 31
0.0
  0
LINE
  5
33b
100
AcDbEntity
  8
0
 62
7
100
AcDbLine
 10
32.804001
 20
64.507997
 30
0.0
 11
32.609000
 21
64.530998
 31
0.0
  0
LINE
  5
33c
100
AcDbEntity
  8
0
 62
7
100
AcDbLine
 10
54.391001
 20
69.468998
 30
0.0
 11
54.583999
 21
69.430999
 31
0.0
  0
LINE
  5
33d
100
AcDbEntity
  8
0
 62
7
100
AcDbLine
 10
54.583999
 20
69.430999
 30
0.0
 11
54.773000
 21
69.377998
 31
0.0
  0
LINE
  5
33e
100
AcDbEntity
  8
0
 62
7
100
AcDbLine
 10
54.773000
 20
69.377998
 30
0.0
 11
54.957001
 21
69.310000
 31
0.0
  0
LINE
  5
33f
100
AcDbEntity
  8
0
 62
7
100
AcDbLine
 10
54.957001
 20
69.310000
 30
0.0
 11
55.135001
 21
69.228000
 31
0.0
  0
LINE
  5
340
100
AcDbEntity
  8
0
 62
7
100
AcDbLine
 10
55.135001
 20
69.228000
 30
0.0
 11
55.306000
 21
69.131999
 31
0.0
  0
LINE
  5
341
100
AcDbEntity
  8
0
 62
7
100
AcDbLine
 10
55.306000
 20
69.131999
 30
0.0
 11
55.469000
 21
69.022999
 31
0.0
  0
LINE
  5
342
100
AcDbEntity
  8
0
 62
7
100
AcDbLine
 10
55.469000
 20
69.022999
 30
0.0
 11
55.623999
 21
68.901000
 31
0.0
  0
LINE
  5
343
100
AcDbEntity
  8
0
 62
7
100
AcDbLine
 10
55.623999
 20
68.901000
 30
0.0
 11
55.768000
 21
68.768000
 31
0.0
  0
LINE
  5
344
100
AcDbEntity
  8
0
 62
7
100
AcDbLine
 10
55.768000
 20
68.768000
 30
0.0
 11
55.901000
 21
68.623999
 31
0.0
  0
LINE
  5
345
100
AcDbEntity
  8
0
 62
7
100
AcDbLine
 10
55.901000
 20
68.623999
 30
0.0
 11
56.022999
 21
68.469000
 31
0.0
  0
LINE
  5
346
100
AcDbEntity
  8
0
 62
7
100
AcDbLine
 10
56.022999
 20
68.469000
 30
0.0
 11
56.131999
 21
68.306000
 31
0.0
  0
LINE
  5
347
100
AcDbEntity
  8
0
 62
7
100
AcDbLine
 10
56.131999
 20
68.306000
 30
0.0
 11
56.228000
 21
68.134998
 31
0.0
  0
LINE
  5
348
100
AcDbEntity
  8
0
 62
7
100
AcDbLine
 10
56.228000
 20
68.134998
 30
0.0
 11
56.309999
 21
67.956998
 31
0.0
  0
LINE
  5
349
100
AcDbEntity
  8
0
 62
7
100
AcDbLine
 10
56.309999
 20
67.956998
 30
0.0
 11
56.378001
 21
67.773000
 31
0.0
  0
LINE
  5
34a
100
AcDbEntity
  8
0
 62
7
100
AcDbLine
 10
56.378001
 20
67.773000
 30
0.0
 11
56.430999
 21
67.583999
 31
0.0
  0
LINE
  5
34b
100
AcDbEntity
  8
0
 62
7
100
AcDbLine
 10
56.430999
 20
67.583999
 30
0.0
 11
56.469001
 21
67.390998
 31
0.0
  0
LINE
  5
34c
100
AcDbEntity
  8
0
 62
7
100
AcDbLine
 10
56.469001
 20
67.390998
 30
0.0
 11
56.492002
 21
67.196000
 31
0.0
  0
LINE
  5
34d
100
AcDbEntity
  8
0
 62
7
100
AcDbLine
 10
56.492002
 20
67.196000
 30
0.0
 11
56.500017
 21
66.999999
 31
0.0
  0
LINE
  5
34e
100
AcDbEntity
  8
0
 62
7
100
AcDbLine
 10
56.500017
 20
66.999999
 30
0.0
 11
56.492002
 21
66.803999
 31
0.0
  0
LINE
  5
34f
100
AcDbEntity
  8
0
 62
7
100
AcDbLine
 10
56.492002
 20
66.803999
 30
0.0
 11
56.469001
 21
66.609000
 31
0.0
  0
LINE
  5
350
100
AcDbEntity
  8
0
 62
7
100
AcDbLine
 10
56.469001
 20
66.609000
 30
0.0
 11
56.431002
 21
66.416000
 31
0.0
  0
LINE
  5
351
100
AcDbEntity
  8
0
 62
7
100
AcDbLine
 10
56.431002
 20
66.416000
 30
0.0
 11
56.378004
 21
66.226998
 31
0.0
  0
LINE
  5
352
100
AcDbEntity
  8
0
 62
7
100
AcDbLine
 10
56.378004
 20
66.226998
 30
0.0
 11
56.310002
 21
66.042998
 31
0.0
  0
LINE
  5
353
100
AcDbEntity
  8
0
 62
7
100
AcDbLine
 10
56.310002
 20
66.042998
 30
0.0
 11
56.228003
 21
65.865000
 31
0.0
  0
LINE
  5
354
100
AcDbEntity
  8
0
 62
7
100
AcDbLine
 10
56.228003
 20
65.865000
 30
0.0
 11
56.132002
 21
65.693999
 31
0.0
  0
LINE
  5
355
100
AcDbEntity
  8
0
 62
7
100
AcDbLine
 10
56.132002
 20
65.693999
 30
0.0
 11
56.023002
 21
65.530999
 31
0.0
  0
LINE
  5
356
100
AcDbEntity
  8
0
 62
7
100
AcDbLine
 10
56.023002
 20
65.530999
 30
0.0
 11
55.901003
 21
65.376000
 31
0.0
  0
LINE
  5
357
100
AcDbEntity
  8
0
 62
7
100
AcDbLine
 10
55.901003
 20
65.376000
 30
0.0
 11
55.768003
 21
65.231998
 31
0.0
  0
LINE
  5
358
100
AcDbEntity
  8
0
 62
7
100
AcDbLine
 10
55.768003
 20
65.231998
 30
0.0
 11
55.624002
 21
65.098998
 31
0.0
  0
LINE
  5
359
100
AcDbEntity
  8
0
 62
7
100
AcDbLine
 10
55.624002
 20
65.098998
 30
0.0
 11
55.469003
 21
64.976999
 31
0.0
  0
LINE
  5
35a
100
AcDbEntity
  8
0
 62
7
100
AcDbLine
 10
55.469003
 20
64.976999
 30
0.0
 11
55.306002
 21
64.868000
 31
0.0
  0
LINE
  5
35b
100
AcDbEntity
  8
0
 62
7
100
AcDbLine
 10
55.306002
 20
64.868000
 30
0.0
 11
55.135004
 21
64.771999
 31
0.0
  0
LINE
  5
35c
100
AcDbEntity
  8
0
 62
7
100
AcDbLine
 10
55.135004
 20
64.771999
 30
0.0
 11
54.957004
 21
64.689999
 31
0.0
  0
LINE
  5
35d
100
AcDbEntity
  8
0
 62
7
100
AcDbLine
 10
54.957004
 20
64.689999
 30
0.0
 11
54.773003
 21
64.622001
 31
0.0
  0
LINE
  5
35e
100
AcDbEntity
  8
0
 62
7
100
AcDbLine
 10
54.773003
 20
64.622001
 30
0.0
 11
54.584002
 21
64.568999
 31
0.0
  0
LINE
  5
35f
100
AcDbEntity
  8
0
 62
7
100
AcDbLine
 10
54.584002
 20
64.568999
 30
0.0
 11
54.391004
 21
64.530998
 31
0.0
  0
LINE
  5
360
100
AcDbEntity
  8
0
 62
7
100
AcDbLine
 10
54.391004
 20
64.530998
 30
0.0
 11
54.196003
 21
64.507997
 31
0.0
  0
LINE
  5
361
100
AcDbEntity
  8
0
 62
7
100
AcDbLine
 10
54.196003
 20
64.507997
 30
0.0
 11
54.000002
 21
64.500010
 31
0.0
  0
LINE
  5
362
100
AcDbEntity
  8
0
 62
7
100
AcDbLine
 10
54.000002
 20
64.500010
 30
0.0
 11
53.804002
 21
64.507997
 31
0.0
  0
LINE
  5
363
100
AcDbEntity
  8
0
 62
7
100
AcDbLine
 10
53.804002
 20
64.507997
 30
0.0
 11
53.609003
 21
64.530998
 31
0.0
  0
LINE
  5
364
100
AcDbEntity
  8
0
 62
7
100
AcDbLine
 10
53.609003
 20
64.530998
 30
0.0
 11
53.416002
 21
64.568999
 31
0.0
  0
LINE
  5
365
100
AcDbEntity
  8
0
 62
7
100
AcDbLine
 10
53.416002
 20
64.568999
 30
0.0
 11
53.227004
 21
64.622001
 31
0.0
  0
LINE
  5
366
100
AcDbEntity
  8
0
 62
7
100
AcDbLine
 10
53.227004
 20
64.622001
 30
0.0
 11
53.043003
 21
64.689999
 31
0.0
  0
LINE
  5
367
100
AcDbEntity
  8
0
 62
7
100
AcDbLine
 10
53.043003
 20
64.689999
 30
0.0
 11
52.865003
 21
64.771999
 31
0.0
  0
LINE
  5
368
100
AcDbEntity
  8
0
 62
7
100
AcDbLine
 10
52.865003
 20
64.771999
 30
0.0
 11
52.694002
 21
64.868000
 31
0.0
  0
LINE
  5
369
100
AcDbEntity
  8
0
 62
7
100
AcDbLine
 10
52.694002
 20
64.868000
 30
0.0
 11
52.531002
 21
64.976999
 31
0.0
  0
LINE
  5
36a
100
AcDbEntity
  8
0
 62
7
100
AcDbLine
 10
52.531002
 20
64.976999
 30
0.0
 11
52.376002
 21
65.098998
 31
0.0
  0
LINE
  5
36b
100
AcDbEntity
  8
0
 62
7
100
AcDbLine
 10
52.376002
 20
65.098998
 30
0.0
 11
52.232004
 21
65.231998
 31
0.0
  0
LINE
  5
36c
100
AcDbEntity
  8
0
 62
7
100
AcDbLine
 10
52.232004
 20
65.231998
 30
0.0
 11
52.099004
 21
65.376000
 31
0.0
  0
LINE
  5
36d
100
AcDbEntity
  8
0
 62
7
100
AcDbLine
 10
52.099004
 20
65.376000
 30
0.0
 11
51.977002
 21
65.530999
 31
0.0
  0
LINE
  5
36e
100
AcDbEntity
  8
0
 62
7
100
AcDbLine
 10
51.977002
 20
65.530999
 30
0.0
 11
51.868002
 21
65.693999
 31
0.0
  0
LINE
  5
36f
100
AcDbEntity
  8
0
 62
7
100
AcDbLine
 10
51.868002
 20
65.693999
 30
0.0
 11
51.772002
 21
65.865000
 31
0.0
  0
LINE
  5
370
100
AcDbEntity
  8
0
 62
7
100
AcDbLine
 10
51.772002
 20
65.865000
 30
0.0
 11
51.690002
 21
66.042998
 31
0.0
  0
LINE
  5
371
100
AcDbEntity
  8
0
 62
7
100
AcDbLine
 10
51.690002
 20
66.042998
 30
0.0
 11
51.622003
 21
66.226998
 31
0.0
  0
LINE
  5
372
100
AcDbEntity
  8
0
 62
7
100
AcDbLine
 10
51.622003
 20
66.226998
 30
0.0
 11
51.569002
 21
66.416000
 31
0.0
  0
LINE
  5
373
100
AcDbEntity
  8
0
 62
7
100
AcDbLine
 10
51.569002
 20
66.416000
 30
0.0
 11
51.531004
 21
66.609000
 31
0.0
  0
LINE
  5
374
100
AcDbEntity
  8
0
 62
7
100
AcDbLine
 10
51.531004
 20
66.609000
 30
0.0
 11
51.508002
 21
66.803999
 31
0.0
  0
LINE
  5
375
100
AcDbEntity
  8
0
 62
7
100
AcDbLine
 10
51.508002
 20
66.803999
 30
0.0
 11
51.500016
 21
66.999999
 31
0.0
  0
LINE
  5
376
100
AcDbEntity
  8
0
 62
7
100
AcDbLine
 10
51.500016
 20
66.999999
 30
0.0
 11
51.508002
 21
67.196000
 31
0.0
  0
LINE
  5
377
100
AcDbEntity
  8
0
 62
7
100
AcDbLine
 10
51.508002
 20
67.196000
 30
0.0
 11
51.531004
 21
67.390998
 31
0.0
  0
LINE
  5
378
100
AcDbEntity
  8
0
 62
7
100
AcDbLine
 10
51.531004
 20
67.390998
 30
0.0
 11
51.569002
 21
67.583999
 31
0.0
  0
LINE
  5
379
100
AcDbEntity
  8
0
 62
7
100
AcDbLine
 10
51.569002
 20
67.583999
 30
0.0
 11
51.622003
 21
67.773000
 31
0.0
  0
LINE
  5
37a
100
AcDbEntity
  8
0
 62
7
100
AcDbLine
 10
51.622003
 20
67.773000
 30
0.0
 11
51.690002
 21
67.956998
 31
0.0
  0
LINE
  5
37b
100
AcDbEntity
  8
0
 62
7
100
AcDbLine
 10
51.690002
 20
67.956998
 30
0.0
 11
51.772002
 21
68.134998
 31
0.0
  0
LINE
  5
37c
100
AcDbEntity
  8
0
 62
7
100
AcDbLine
 10
51.772002
 20
68.134998
 30
0.0
 11
51.868002
 21
68.306000
 31
0.0
  0
LINE
  5
37d
100
AcDbEntity
  8
0
 62
7
100
AcDbLine
 10
51.868002
 20
68.306000
 30
0.0
 11
51.977002
 21
68.469000
 31
0.0
  0
LINE
  5
37e
100
AcDbEntity
  8
0
 62
7
100
AcDbLine
 10
51.977002
 20
68.469000
 30
0.0
 11
52.099004
 21
68.623999
 31
0.0
  0
LINE
  5
37f
100
AcDbEntity
  8
0
 62
7
100
AcDbLine
 10
52.099004
 20
68.623999
 30
0.0
 11
52.232004
 21
68.768000
 31
0.0
  0
LINE
  5
380
100
AcDbEntity
  8
0
 62
7
100
AcDbLine
 10
52.232004
 20
68.768000
 30
0.0
 11
52.376002
 21
68.901000
 31
0.0
  0
LINE
  5
381
100
AcDbEntity
  8
0
 62
7
100
AcDbLine
 10
52.376002
 20
68.901000
 30
0.0
 11
52.531002
 21
69.022999
 31
0.0
  0
LINE
  5
382
100
AcDbEntity
  8
0
 62
7
100
AcDbLine
 10
52.531002
 20
69.022999
 30
0.0
 11
52.694002
 21
69.131999
 31
0.0
  0
LINE
  5
383
100
AcDbEntity
  8
0
 62
7
100
AcDbLine
 10
52.694002
 20
69.131999
 30
0.0
 11
52.865003
 21
69.228000
 31
0.0
  0
LINE
  5
384
100
AcDbEntity
  8
0
 62
7
100
AcDbLine
 10
52.865003
 20
69.228000
 30
0.0
 11
53.043003
 21
69.310000
 31
0.0
  0
LINE
  5
385
100
AcDbEntity
  8
0
 62
7
100
AcDbLine
 10
53.043003
 20
69.310000
 30
0.0
 11
53.227004
 21
69.377998
 31
0.0
  0
LINE
  5
386
100
AcDbEntity
  8
0
 62
7
100
AcDbLine
 10
53.227004
 20
69.377998
 30
0.0
 11
53.416002
 21
69.430999
 31
0.0
  0
LINE
  5
387
100
AcDbEntity
  8
0
 62
7
100
AcDbLine
 10
53.416002
 20
69.430999
 30
0.0
 11
53.609003
 21
69.468998
 31
0.0
  0
LINE
  5
388
100
AcDbEntity
  8
0
 62
7
100
AcDbLine
 10
53.609003
 20
69.468998
 30
0.0
 11
53.804002
 21
69.491999
 31
0.0
  0
LINE
  5
389
100
AcDbEntity
  8
0
 62
7
100
AcDbLine
 10
53.804002
 20
69.491999
 30
0.0
 11
54.000002
 21
69.500014
 31
0.0
  0
LINE
  5
38a
100
AcDbEntity
  8
0
 62
7
100
AcDbLine
 10
54.000002
 20
69.500014
 30
0.0
 11
54.196003
 21
69.491999
 31
0.0
  0
LINE
  5
38b
100
AcDbEntity
  8
0
 62
7
100
AcDbLine
 10
54.196003
 20
69.491999
 30
0.0
 11
54.391001
 21
69.468998
 31
0.0
  0
LINE
  5
38c
100
AcDbEntity
  8
0
 62
7
100
AcDbLine
 10
62.558995
 20
6.719994
 30
0.0
 11
62.526000
 21
6.442005
 31
0.0
  0
LINE
  5
38d
100
AcDbEntity
  8
0
 62
7
100
AcDbLine
 10
62.526000
 20
6.442005
 30
0.0
 11
62.471001
 21
6.167008
 31
0.0
  0
LINE
  5
38e
100
AcDbEntity
  8
0
 62
7
100
AcDbLine
 10
62.471001
 20
6.167008
 30
0.0
 11
62.395001
 21
5.897006
 31
0.0
  0
LINE
  5
38f
100
AcDbEntity
  8
0
 62
7
100
AcDbLine
 10
62.395001
 20
5.897006
 30
0.0
 11
62.297999
 21
5.634003
 31
0.0
  0
LINE
  5
390
100
AcDbEntity
  8
0
 62
7
100
AcDbLine
 10
62.297999
 20
5.634003
 30
0.0
 11
62.181001
 21
5.378987
 31
0.0
  0
LINE
  5
391
100
AcDbEntity
  8
0
 62
7
100
AcDbLine
 10
62.181001
 20
5.378987
 30
0.0
 11
62.043999
 21
5.135006
 31
0.0
  0
LINE
  5
392
100
AcDbEntity
  8
0
 62
7
100
AcDbLine
 10
62.043999
 20
5.135006
 30
0.0
 11
61.888000
 21
4.902003
 31
0.0
  0
LINE
  5
393
100
AcDbEntity
  8
0
 62
7
100
AcDbLine
 10
61.888000
 20
4.902003
 30
0.0
 11
61.715001
 21
4.680995
 31
0.0
  0
LINE
  5
394
100
AcDbEntity
  8
0
 62
7
100
AcDbLine
 10
61.715001
 20
4.680995
 30
0.0
 11
61.523999
 21
4.475989
 31
0.0
  0
LINE
  5
395
100
AcDbEntity
  8
0
 62
7
100
AcDbLine
 10
61.523999
 20
4.475989
 30
0.0
 11
61.319001
 21
4.285009
 31
0.0
  0
LINE
  5
396
100
AcDbEntity
  8
0
 62
7
100
AcDbLine
 10
61.319001
 20
4.285009
 30
0.0
 11
61.098001
 21
4.112007
 31
0.0
  0
LINE
  5
397
100
AcDbEntity
  8
0
 62
7
100
AcDbLine
 10
61.098001
 20
4.112007
 30
0.0
 11
60.865001
 21
3.955994
 31
0.0
  0
LINE
  5
398
100
AcDbEntity
  8
0
 62
7
100
AcDbLine
 10
60.865001
 20
3.955994
 30
0.0
 11
60.621000
 21
3.819004
 31
0.0
  0
LINE
  5
399
100
AcDbEntity
  8
0
 62
7
100
AcDbLine
 10
60.621000
 20
3.819004
 30
0.0
 11
60.366001
 21
3.701994
 31
0.0
  0
LINE
  5
39a
100
AcDbEntity
  8
0
 62
7
100
AcDbLine
 10
60.366001
 20
3.701994
 30
0.0
 11
60.103001
 21
3.604994
 31
0.0
  0
LINE
  5
39b
100
AcDbEntity
  8
0
 62
7
100
AcDbLine
 10
60.103001
 20
3.604994
 30
0.0
 11
59.832999
 21
3.528992
 31
0.0
  0
LINE
  5
39c
100
AcDbEntity
  8
0
 62
7
100
AcDbLine
 10
59.832999
 20
3.528992
 30
0.0
 11
59.557999
 21
3.473987
 31
0.0
  0
LINE
  5
39d
100
AcDbEntity
  8
0
 62
7
100
AcDbLine
 10
59.557999
 20
3.473987
 30
0.0
 11
59.279999
 21
3.440995
 31
0.0
  0
LINE
  5
39e
100
AcDbEntity
  8
0
 62
7
100
AcDbLine
 10
59.279999
 20
3.440995
 30
0.0
 11
59.000001
 21
3.429988
 31
0.0
  0
LINE
  5
39f
100
AcDbEntity
  8
0
 62
7
100
AcDbLine
 10
59.000001
 20
3.429988
 30
0.0
 11
58.719999
 21
3.440995
 31
0.0
  0
LINE
  5
3a0
100
AcDbEntity
  8
0
 62
7
100
AcDbLine
 10
58.719999
 20
3.440995
 30
0.0
 11
58.441999
 21
3.473987
 31
0.0
  0
LINE
  5
3a1
100
AcDbEntity
  8
0
 62
7
100
AcDbLine
 10
58.441999
 20
3.473987
 30
0.0
 11
58.166999
 21
3.528992
 31
0.0
  0
LINE
  5
3a2
100
AcDbEntity
  8
0
 62
7
100
AcDbLine
 10
58.166999
 20
3.528992
 30
0.0
 11
57.897000
 21
3.604994
 31
0.0
  0
LINE
  5
3a3
100
AcDbEntity
  8
0
 62
7
100
AcDbLine
 10
57.897000
 20
3.604994
 30
0.0
 11
57.634000
 21
3.701994
 31
0.0
  0
LINE
  5
3a4
100
AcDbEntity
  8
0
 62
7
100
AcDbLine
 10
57.634000
 20
3.701994
 30
0.0
 11
57.379001
 21
3.819004
 31
0.0
  0
LINE
  5
3a5
100
AcDbEntity
  8
0
 62
7
100
AcDbLine
 10
57.379001
 20
3.819004
 30
0.0
 11
57.135000
 21
3.955994
 31
0.0
  0
LINE
  5
3a6
100
AcDbEntity
  8
0
 62
7
100
AcDbLine
 10
57.135000
 20
3.955994
 30
0.0
 11
56.902000
 21
4.112007
 31
0.0
  0
LINE
  5
3a7
100
AcDbEntity
  8
0
 62
7
100
AcDbLine
 10
56.902000
 20
4.112007
 30
0.0
 11
56.681000
 21
4.285009
 31
0.0
  0
LINE
  5
3a8
100
AcDbEntity
  8
0
 62
7
100
AcDbLine
 10
56.681000
 20
4.285009
 30
0.0
 11
56.476000
 21
4.475989
 31
0.0
  0
LINE
  5
3a9
100
AcDbEntity
  8
0
 62
7
100
AcDbLine
 10
56.476000
 20
4.475989
 30
0.0
 11
56.285000
 21
4.680995
 31
0.0
  0
LINE
  5
3aa
100
AcDbEntity
  8
0
 62
7
100
AcDbLine
 10
56.285000
 20
4.680995
 30
0.0
 11
56.112001
 21
4.902003
 31
0.0
  0
LINE
  5
3ab
100
AcDbEntity
  8
0
 62
7
100
AcDbLine
 10
56.112001
 20
4.902003
 30
0.0
 11
55.956000
 21
5.135006
 31
0.0
  0
LINE
  5
3ac
100
AcDbEntity
  8
0
 62
7
100
AcDbLine
 10
55.956000
 20
5.135006
 30
0.0
 11
55.819000
 21
5.378987
 31
0.0
  0
LINE
  5
3ad
100
AcDbEntity
  8
0
 62
7
100
AcDbLine
 10
55.819000
 20
5.378987
 30
0.0
 11
55.702000
 21
5.634003
 31
0.0
  0
LINE
  5
3ae
100
AcDbEntity
  8
0
 62
7
100
AcDbLine
 10
55.702000
 20
5.634003
 30
0.0
 11
55.605000
 21
5.897006
 31
0.0
  0
LINE
  5
3af
100
AcDbEntity
  8
0
 62
7
100
AcDbLine
 10
55.605000
 20
5.897006
 30
0.0
 11
55.529000
 21
6.167008
 31
0.0
  0
LINE
  5
3b0
100
AcDbEntity
  8
0
 62
7
100
AcDbLine
 10
55.529000
 20
6.167008
 30
0.0
 11
55.474001
 21
6.442005
 31
0.0
  0
LINE
  5
3b1
100
AcDbEntity
  8
0
 62
7
100
AcDbLine
 10
55.474001
 20
6.442005
 30
0.0
 11
55.441001
 21
6.719994
 31
0.0
  0
LINE
  5
3b2
100
AcDbEntity
  8
0
 62
7
100
AcDbLine
 10
55.441001
 20
6.719994
 30
0.0
 11
55.429994
 21
6.999987
 31
0.0
  0
LINE
  5
3b3
100
AcDbEntity
  8
0
 62
7
100
AcDbLine
 10
55.429994
 20
6.999987
 30
0.0
 11
55.441001
 21
7.280008
 31
0.0
  0
LINE
  5
3b4
100
AcDbEntity
  8
0
 62
7
100
AcDbLine
 10
55.441001
 20
7.280008
 30
0.0
 11
55.473998
 21
7.557996
 31
0.0
  0
LINE
  5
3b5
100
AcDbEntity
  8
0
 62
7
100
AcDbLine
 10
55.473998
 20
7.557996
 30
0.0
 11
55.528997
 21
7.832994
 31
0.0
  0
LINE
  5
3b6
100
AcDbEntity
  8
0
 62
7
100
AcDbLine
 10
55.528997
 20
7.832994
 30
0.0
 11
55.604997
 21
8.102996
 31
0.0
  0
LINE
  5
3b7
100
AcDbEntity
  8
0
 62
7
100
AcDbLine
 10
55.604997
 20
8.102996
 30
0.0
 11
55.701997
 21
8.365999
 31
0.0
  0
LINE
  5
3b8
100
AcDbEntity
  8
0
 62
7
100
AcDbLine
 10
55.701997
 20
8.365999
 30
0.0
 11
55.818998
 21
8.620986
 31
0.0
  0
LINE
  5
3b9
100
AcDbEntity
  8
0
 62
7
100
AcDbLine
 10
55.818998
 20
8.620986
 30
0.0
 11
55.955997
 21
8.864996
 31
0.0
  0
LINE
  5
3ba
100
AcDbEntity
  8
0
 62
7
100
AcDbLine
 10
55.955997
 20
8.864996
 30
0.0
 11
56.111998
 21
9.097998
 31
0.0
  0
LINE
  5
3bb
100
AcDbEntity
  8
0
 62
7
100
AcDbLine
 10
56.111998
 20
9.097998
 30
0.0
 11
56.284997
 21
9.319007
 31
0.0
  0
LINE
  5
3bc
100
AcDbEntity
  8
0
 62
7
100
AcDbLine
 10
56.284997
 20
9.319007
 30
0.0
 11
56.475997
 21
9.524013
 31
0.0
  0
LINE
  5
3bd
100
AcDbEntity
  8
0
 62
7
100
AcDbLine
 10
56.475997
 20
9.524013
 30
0.0
 11
56.680997
 21
9.714993
 31
0.0
  0
LINE
  5
3be
100
AcDbEntity
  8
0
 62
7
100
AcDbLine
 10
56.680997
 20
9.714993
 30
0.0
 11
56.901997
 21
9.887995
 31
0.0
  0
LINE
  5
3bf
100
AcDbEntity
  8
0
 62
7
100
AcDbLine
 10
56.901997
 20
9.887995
 30
0.0
 11
57.134997
 21
10.044007
 31
0.0
  0
LINE
  5
3c0
100
AcDbEntity
  8
0
 62
7
100
AcDbLine
 10
57.134997
 20
10.044007
 30
0.0
 11
57.378998
 21
10.180998
 31
0.0
  0
LINE
  5
3c1
100
AcDbEntity
  8
0
 62
7
100
AcDbLine
 10
57.378998
 20
10.180998
 30
0.0
 11
57.633997
 21
10.298007
 31
0.0
  0
LINE
  5
3c2
100
AcDbEntity
  8
0
 62
7
100
AcDbLine
 10
57.633997
 20
10.298007
 30
0.0
 11
57.896997
 21
10.395007
 31
0.0
  0
LINE
  5
3c3
100
AcDbEntity
  8
0
 62
7
100
AcDbLine
 10
57.896997
 20
10.395007
 30
0.0
 11
58.166996
 21
10.471010
 31
0.0
  0
LINE
  5
3c4
100
AcDbEntity
  8
0
 62
7
100
AcDbLine
 10
58.166996
 20
10.471010
 30
0.0
 11
58.441996
 21
10.525986
 31
0.0
  0
LINE
  5
3c5
100
AcDbEntity
  8
0
 62
7
100
AcDbLine
 10
58.441996
 20
10.525986
 30
0.0
 11
58.719997
 21
10.559006
 31
0.0
  0
LINE
  5
3c6
100
AcDbEntity
  8
0
 62
7
100
AcDbLine
 10
58.719997
 20
10.559006
 30
0.0
 11
58.999998
 21
10.570013
 31
0.0
  0
LINE
  5
3c7
100
AcDbEntity
  8
0
 62
7
100
AcDbLine
 10
58.999998
 20
10.570013
 30
0.0
 11
59.279996
 21
10.559006
 31
0.0
  0
LINE
  5
3c8
100
AcDbEntity
  8
0
 62
7
100
AcDbLine
 10
59.279996
 20
10.559006
 30
0.0
 11
59.557996
 21
10.525986
 31
0.0
  0
LINE
  5
3c9
100
AcDbEntity
  8
0
 62
7
100
AcDbLine
 10
59.557996
 20
10.525986
 30
0.0
 11
59.832996
 21
10.471010
 31
0.0
  0
LINE
  5
3ca
100
AcDbEntity
  8
0
 62
7
100
AcDbLine
 10
59.832996
 20
10.471010
 30
0.0
 11
60.102998
 21
10.395007
 31
0.0
  0
LINE
  5
3cb
100
AcDbEntity
  8
0
 62
7
100
AcDbLine
 10
60.102998
 20
10.395007
 30
0.0
 11
60.365998
 21
10.298007
 31
0.0
  0
LINE
  5
3cc
100
AcDbEntity
  8
0
 62
7
100
AcDbLine
 10
60.365998
 20
10.298007
 30
0.0
 11
60.620997
 21
10.180998
 31
0.0
  0
LINE
  5
3cd
100
AcDbEntity
  8
0
 62
7
100
AcDbLine
 10
60.620997
 20
10.180998
 30
0.0
 11
60.864998
 21
10.044007
 31
0.0
  0
LINE
  5
3ce
100
AcDbEntity
  8
0
 62
7
100
AcDbLine
 10
60.864998
 20
10.044007
 30
0.0
 11
61.097998
 21
9.887995
 31
0.0
  0
LINE
  5
3cf
100
AcDbEntity
  8
0
 62
7
100
AcDbLine
 10
61.097998
 20
9.887995
 30
0.0
 11
61.318998
 21
9.714993
 31
0.0
  0
LINE
  5
3d0
100
AcDbEntity
  8
0
 62
7
100
AcDbLine
 10
61.318998
 20
9.714993
 30
0.0
 11
61.523996
 21
9.524013
 31
0.0
  0
LINE
  5
3d1
100
AcDbEntity
  8
0
 62
7
100
AcDbLine
 10
61.523996
 20
9.524013
 30
0.0
 11
61.714998
 21
9.319007
 31
0.0
  0
LINE
  5
3d2
100
AcDbEntity
  8
0
 62
7
100
AcDbLine
 10
61.714998
 20
9.319007
 30
0.0
 11
61.887997
 21
9.097998
 31
0.0
  0
LINE
  5
3d3
100
AcDbEntity
  8
0
 62
7
100
AcDbLine
 10
61.887997
 20
9.097998
 30
0.0
 11
62.043996
 21
8.864996
 31
0.0
  0
LINE
  5
3d4
100
AcDbEntity
  8
0
 62
7
100
AcDbLine
 10
62.043996
 20
8.864996
 30
0.0
 11
62.180998
 21
8.620986
 31
0.0
  0
LINE
  5
3d5
100
AcDbEntity
  8
0
 62
7
100
AcDbLine
 10
62.180998
 20
8.620986
 30
0.0
 11
62.297996
 21
8.365999
 31
0.0
  0
LINE
  5
3d6
100
AcDbEntity
  8
0
 62
7
100
AcDbLine
 10
62.297996
 20
8.365999
 30
0.0
 11
62.394998
 21
8.102996
 31
0.0
  0
LINE
  5
3d7
100
AcDbEntity
  8
0
 62
7
100
AcDbLine
 10
62.394998
 20
8.102996
 30
0.0
 11
62.470998
 21
7.832994
 31
0.0
  0
LINE
  5
3d8
100
AcDbEntity
  8
0
 62
7
100
AcDbLine
 10
62.470998
 20
7.832994
 30
0.0
 11
62.525997
 21
7.557996
 31
0.0
  0
LINE
  5
3d9
100
AcDbEntity
  8
0
 62
7
100
AcDbLine
 10
62.525997
 20
7.557996
 30
0.0
 11
62.558998
 21
7.280008
 31
0.0
  0
LINE
  5
3da
100
AcDbEntity
  8
0
 62
7
100
AcDbLine
 10
62.558998
 20
7.280008
 30
0.0
 11
62.570004
 21
6.999987
 31
0.0
  0
LINE
  5
3db
100
AcDbEntity
  8
0
 62
7
100
AcDbLine
 10
62.570004
 20
6.999987
 30
0.0
 11
62.558995
 21
6.719994
 31
0.0
  0
LINE
  5
3dc
100
AcDbEntity
  8
0
 62
7
100
AcDbLine
 10
65.256006
 20
53.656998
 30
0.0
 11
65.275000
 21
53.813000
 31
0.0
  0
LINE
  5
3dd
100
AcDbEntity
  8
0
 62
7
100
AcDbLine
 10
65.275000
 20
53.813000
 30
0.0
 11
65.305003
 21
53.967000
 31
0.0
  0
LINE
  5
3de
100
AcDbEntity
  8
0
 62
7
100
AcDbLine
 10
65.305003
 20
53.967000
 30
0.0
 11
65.348002
 21
54.118000
 31
0.0
  0
LINE
  5
3df
100
AcDbEntity
  8
0
 62
7
100
AcDbLine
 10
65.348002
 20
54.118000
 30
0.0
 11
65.402003
 21
54.264998
 31
0.0
  0
LINE
  5
3e0
100
AcDbEntity
  8
0
 62
7
100
AcDbLine
 10
65.402003
 20
54.264998
 30
0.0
 11
65.468003
 21
54.408000
 31
0.0
  0
LINE
  5
3e1
100
AcDbEntity
  8
0
 62
7
100
AcDbLine
 10
65.468003
 20
54.408000
 30
0.0
 11
65.545002
 21
54.544999
 31
0.0
  0
LINE
  5
3e2
100
AcDbEntity
  8
0
 62
7
100
AcDbLine
 10
65.545002
 20
54.544999
 30
0.0
 11
65.632003
 21
54.675998
 31
0.0
  0
LINE
  5
3e3
100
AcDbEntity
  8
0
 62
7
100
AcDbLine
 10
65.632003
 20
54.675998
 30
0.0
 11
65.729002
 21
54.798999
 31
0.0
  0
LINE
  5
3e4
100
AcDbEntity
  8
0
 62
7
100
AcDbLine
 10
65.729002
 20
54.798999
 30
0.0
 11
65.836001
 21
54.913999
 31
0.0
  0
LINE
  5
3e5
100
AcDbEntity
  8
0
 62
7
100
AcDbLine
 10
65.836001
 20
54.913999
 30
0.0
 11
65.951004
 21
55.020998
 31
0.0
  0
LINE
  5
3e6
100
AcDbEntity
  8
0
 62
7
100
AcDbLine
 10
65.951004
 20
55.020998
 30
0.0
 11
66.074002
 21
55.118001
 31
0.0
  0
LINE
  5
3e7
100
AcDbEntity
  8
0
 62
7
100
AcDbLine
 10
66.074002
 20
55.118001
 30
0.0
 11
66.205004
 21
55.204999
 31
0.0
  0
LINE
  5
3e8
100
AcDbEntity
  8
0
 62
7
100
AcDbLine
 10
66.205004
 20
55.204999
 30
0.0
 11
66.342003
 21
55.282000
 31
0.0
  0
LINE
  5
3e9
100
AcDbEntity
  8
0
 62
7
100
AcDbLine
 10
66.342003
 20
55.282000
 30
0.0
 11
66.485002
 21
55.348001
 31
0.0
  0
LINE
  5
3ea
100
AcDbEntity
  8
0
 62
7
100
AcDbLine
 10
66.485002
 20
55.348001
 30
0.0
 11
66.632003
 21
55.401998
 31
0.0
  0
LINE
  5
3eb
100
AcDbEntity
  8
0
 62
7
100
AcDbLine
 10
66.632003
 20
55.401998
 30
0.0
 11
66.783004
 21
55.445000
 31
0.0
  0
LINE
  5
3ec
100
AcDbEntity
  8
0
 62
7
100
AcDbLine
 10
66.783004
 20
55.445000
 30
0.0
 11
66.937004
 21
55.475001
 31
0.0
  0
LINE
  5
3ed
100
AcDbEntity
  8
0
 62
7
100
AcDbLine
 10
66.937004
 20
55.475001
 30
0.0
 11
67.093002
 21
55.493994
 31
0.0
  0
LINE
  5
3ee
100
AcDbEntity
  8
0
 62
7
100
AcDbLine
 10
67.093002
 20
55.493994
 30
0.0
 11
67.250002
 21
55.500005
 31
0.0
  0
LINE
  5
3ef
100
AcDbEntity
  8
0
 62
7
100
AcDbLine
 10
67.250002
 20
55.500005
 30
0.0
 11
67.407003
 21
55.493994
 31
0.0
  0
LINE
  5
3f0
100
AcDbEntity
  8
0
 62
7
100
AcDbLine
 10
67.407003
 20
55.493994
 30
0.0
 11
67.563004
 21
55.475001
 31
0.0
  0
LINE
  5
3f1
100
AcDbEntity
  8
0
 62
7
100
AcDbLine
 10
67.563004
 20
55.475001
 30
0.0
 11
67.717004
 21
55.444997
 31
0.0
  0
LINE
  5
3f2
100
AcDbEntity
  8
0
 62
7
100
AcDbLine
 10
67.717004
 20
55.444997
 30
0.0
 11
67.868004
 21
55.401995
 31
0.0
  0
LINE
  5
3f3
100
AcDbEntity
  8
0
 62
7
100
AcDbLine
 10
67.868004
 20
55.401995
 30
0.0
 11
68.015002
 21
55.347998
 31
0.0
  0
LINE
  5
3f4
100
AcDbEntity
  8
0
 62
7
100
AcDbLine
 10
68.015002
 20
55.347998
 30
0.0
 11
68.158002
 21
55.281997
 31
0.0
  0
LINE
  5
3f5
100
AcDbEntity
  8
0
 62
7
100
AcDbLine
 10
68.158002
 20
55.281997
 30
0.0
 11
68.295004
 21
55.204996
 31
0.0
  0
LINE
  5
3f6
100
AcDbEntity
  8
0
 62
7
100
AcDbLine
 10
68.295004
 20
55.204996
 30
0.0
 11
68.426003
 21
55.117998
 31
0.0
  0
LINE
  5
3f7
100
AcDbEntity
  8
0
 62
7
100
AcDbLine
 10
68.426003
 20
55.117998
 30
0.0
 11
68.549004
 21
55.020995
 31
0.0
  0
LINE
  5
3f8
100
AcDbEntity
  8
0
 62
7
100
AcDbLine
 10
68.549004
 20
55.020995
 30
0.0
 11
68.664003
 21
54.913996
 31
0.0
  0
LINE
  5
3f9
100
AcDbEntity
  8
0
 62
7
100
AcDbLine
 10
68.664003
 20
54.913996
 30
0.0
 11
68.771002
 21
54.798996
 31
0.0
  0
LINE
  5
3fa
100
AcDbEntity
  8
0
 62
7
100
AcDbLine
 10
68.771002
 20
54.798996
 30
0.0
 11
68.868002
 21
54.675996
 31
0.0
  0
LINE
  5
3fb
100
AcDbEntity
  8
0
 62
7
100
AcDbLine
 10
68.868002
 20
54.675996
 30
0.0
 11
68.955003
 21
54.544996
 31
0.0
  0
LINE
  5
3fc
100
AcDbEntity
  8
0
 62
7
100
AcDbLine
 10
68.955003
 20
54.544996
 30
0.0
 11
69.032001
 21
54.407997
 31
0.0
  0
LINE
  5
3fd
100
AcDbEntity
  8
0
 62
7
100
AcDbLine
 10
69.032001
 20
54.407997
 30
0.0
 11
69.098002
 21
54.264995
 31
0.0
  0
LINE
  5
3fe
100
AcDbEntity
  8
0
 62
7
100
AcDbLine
 10
69.098002
 20
54.264995
 30
0.0
 11
69.152002
 21
54.117997
 31
0.0
  0
LINE
  5
3ff
100
AcDbEntity
  8
0
 62
7
100
AcDbLine
 10
69.152002
 20
54.117997
 30
0.0
 11
69.195002
 21
53.966997
 31
0.0
  0
LINE
  5
400
100
AcDbEntity
  8
0
 62
7
100
AcDbLine
 10
69.195002
 20
53.966997
 30
0.0
 11
69.225002
 21
53.812997
 31
0.0
  0
LINE
  5
401
100
AcDbEntity
  8
0
 62
7
100
AcDbLine
 10
69.225002
 20
53.812997
 30
0.0
 11
69.243996
 21
53.656996
 31
0.0
  0
LINE
  5
402
100
AcDbEntity
  8
0
 62
7
100
AcDbLine
 10
69.243996
 20
53.656996
 30
0.0
 11
69.250007
 21
53.499995
 31
0.0
  0
LINE
  5
403
100
AcDbEntity
  8
0
 62
7
100
AcDbLine
 10
69.250007
 20
53.499995
 30
0.0
 11
69.243996
 21
53.342995
 31
0.0
  0
LINE
  5
404
100
AcDbEntity
  8
0
 62
7
100
AcDbLine
 10
69.243996
 20
53.342995
 30
0.0
 11
69.225002
 21
53.186997
 31
0.0
  0
LINE
  5
405
100
AcDbEntity
  8
0
 62
7
100
AcDbLine
 10
69.225002
 20
53.186997
 30
0.0
 11
69.194999
 21
53.032997
 31
0.0
  0
LINE
  5
406
100
AcDbEntity
  8
0
 62
7
100
AcDbLine
 10
69.194999
 20
53.032997
 30
0.0
 11
69.152000
 21
52.881996
 31
0.0
  0
LINE
  5
407
100
AcDbEntity
  8
0
 62
7
100
AcDbLine
 10
69.152000
 20
52.881996
 30
0.0
 11
69.097999
 21
52.734995
 31
0.0
  0
LINE
  5
408
100
AcDbEntity
  8
0
 62
7
100
AcDbLine
 10
69.097999
 20
52.734995
 30
0.0
 11
69.031999
 21
52.591996
 31
0.0
  0
LINE
  5
409
100
AcDbEntity
  8
0
 62
7
100
AcDbLine
 10
69.031999
 20
52.591996
 30
0.0
 11
68.955000
 21
52.454997
 31
0.0
  0
LINE
  5
40a
100
AcDbEntity
  8
0
 62
7
100
AcDbLine
 10
68.955000
 20
52.454997
 30
0.0
 11
68.867999
 21
52.323995
 31
0.0
  0
LINE
  5
40b
100
AcDbEntity
  8
0
 62
7
100
AcDbLine
 10
68.867999
 20
52.323995
 30
0.0
 11
68.771000
 21
52.200997
 31
0.0
  0
LINE
  5
40c
100
AcDbEntity
  8
0
 62
7
100
AcDbLine
 10
68.771000
 20
52.200997
 30
0.0
 11
68.664001
 21
52.085997
 31
0.0
  0
LINE
  5
40d
100
AcDbEntity
  8
0
 62
7
100
AcDbLine
 10
68.664001
 20
52.085997
 30
0.0
 11
68.549001
 21
51.978995
 31
0.0
  0
LINE
  5
40e
100
AcDbEntity
  8
0
 62
7
100
AcDbLine
 10
68.549001
 20
51.978995
 30
0.0
 11
68.426000
 21
51.881996
 31
0.0
  0
LINE
  5
40f
100
AcDbEntity
  8
0
 62
7
100
AcDbLine
 10
68.426000
 20
51.881996
 30
0.0
 11
68.295001
 21
51.794998
 31
0.0
  0
LINE
  5
410
100
AcDbEntity
  8
0
 62
7
100
AcDbLine
 10
68.295001
 20
51.794998
 30
0.0
 11
68.157999
 21
51.717996
 31
0.0
  0
LINE
  5
411
100
AcDbEntity
  8
0
 62
7
100
AcDbLine
 10
68.157999
 20
51.717996
 30
0.0
 11
68.015000
 21
51.651996
 31
0.0
  0
LINE
  5
412
100
AcDbEntity
  8
0
 62
7
100
AcDbLine
 10
68.015000
 20
51.651996
 30
0.0
 11
67.868001
 21
51.597995
 31
0.0
  0
LINE
  5
413
100
AcDbEntity
  8
0
 62
7
100
AcDbLine
 10
67.868001
 20
51.597995
 30
0.0
 11
67.717001
 21
51.554996
 31
0.0
  0
LINE
  5
414
100
AcDbEntity
  8
0
 62
7
100
AcDbLine
 10
67.717001
 20
51.554996
 30
0.0
 11
67.563001
 21
51.524996
 31
0.0
  0
LINE
  5
415
100
AcDbEntity
  8
0
 62
7
100
AcDbLine
 10
67.563001
 20
51.524996
 30
0.0
 11
67.407000
 21
51.506002
 31
0.0
  0
LINE
  5
416
100
AcDbEntity
  8
0
 62
7
100
AcDbLine
 10
67.407000
 20
51.506002
 30
0.0
 11
67.250000
 21
51.499991
 31
0.0
  0
LINE
  5
417
100
AcDbEntity
  8
0
 62
7
100
AcDbLine
 10
67.250000
 20
51.499991
 30
0.0
 11
67.092999
 21
51.506002
 31
0.0
  0
LINE
  5
418
100
AcDbEntity
  8
0
 62
7
100
AcDbLine
 10
67.092999
 20
51.506002
 30
0.0
 11
66.937001
 21
51.524996
 31
0.0
  0
LINE
  5
419
100
AcDbEntity
  8
0
 62
7
100
AcDbLine
 10
66.937001
 20
51.524996
 30
0.0
 11
66.783001
 21
51.554999
 31
0.0
  0
LINE
  5
41a
100
AcDbEntity
  8
0
 62
7
100
AcDbLine
 10
66.783001
 20
51.554999
 30
0.0
 11
66.632001
 21
51.597998
 31
0.0
  0
LINE
  5
41b
100
AcDbEntity
  8
0
 62
7
100
AcDbLine
 10
66.632001
 20
51.597998
 30
0.0
 11
66.485000
 21
51.651999
 31
0.0
  0
LINE
  5
41c
100
AcDbEntity
  8
0
 62
7
100
AcDbLine
 10
66.485000
 20
51.651999
 30
0.0
 11
66.342000
 21
51.717999
 31
0.0
  0
LINE
  5
41d
100
AcDbEntity
  8
0
 62
7
100
AcDbLine
 10
66.342000
 20
51.717999
 30
0.0
 11
66.205001
 21
51.795001
 31
0.0
  0
LINE
  5
41e
100
AcDbEntity
  8
0
 62
7
100
AcDbLine
 10
66.205001
 20
51.795001
 30
0.0
 11
66.073999
 21
51.881998
 31
0.0
  0
LINE
  5
41f
100
AcDbEntity
  8
0
 62
7
100
AcDbLine
 10
66.073999
 20
51.881998
 30
0.0
 11
65.951001
 21
51.978998
 31
0.0
  0
LINE
  5
420
100
AcDbEntity
  8
0
 62
7
100
AcDbLine
 10
65.951001
 20
51.978998
 30
0.0
 11
65.835998
 21
52.086000
 31
0.0
  0
LINE
  5
421
100
AcDbEntity
  8
0
 62
7
100
AcDbLine
 10
65.835998
 20
52.086000
 30
0.0
 11
65.729000
 21
52.201000
 31
0.0
  0
LINE
  5
422
100
AcDbEntity
  8
0
 62
7
100
AcDbLine
 10
65.729000
 20
52.201000
 30
0.0
 11
65.632000
 21
52.323998
 31
0.0
  0
LINE
  5
423
100
AcDbEntity
  8
0
 62
7
100
AcDbLine
 10
65.632000
 20
52.323998
 30
0.0
 11
65.544999
 21
52.455000
 31
0.0
  0
LINE
  5
424
100
AcDbEntity
  8
0
 62
7
100
AcDbLine
 10
65.544999
 20
52.455000
 30
0.0
 11
65.468000
 21
52.591999
 31
0.0
  0
LINE
  5
425
100
AcDbEntity
  8
0
 62
7
100
AcDbLine
 10
65.468000
 20
52.591999
 30
0.0
 11
65.402000
 21
52.734998
 31
0.0
  0
LINE
  5
426
100
AcDbEntity
  8
0
 62
7
100
AcDbLine
 10
65.402000
 20
52.734998
 30
0.0
 11
65.348000
 21
52.881999
 31
0.0
  0
LINE
  5
427
100
AcDbEntity
  8
0
 62
7
100
AcDbLine
 10
65.348000
 20
52.881999
 30
0.0
 11
65.305000
 21
53.032999
 31
0.0
  0
LINE
  5
428
100
AcDbEntity
  8
0
 62
7
100
AcDbLine
 10
65.305000
 20
53.032999
 30
0.0
 11
65.275000
 21
53.187000
 31
0.0
  0
LINE
  5
429
100
AcDbEntity
  8
0
 62
7
100
AcDbLine
 10
65.275000
 20
53.187000
 30
0.0
 11
65.256006
 21
53.342998
 31
0.0
  0
LINE
  5
42a
100
AcDbEntity
  8
0
 62
7
100
AcDbLine
 10
65.256006
 20
53.342998
 30
0.0
 11
65.249995
 21
53.499998
 31
0.0
  0
LINE
  5
42b
100
AcDbEntity
  8
0
 62
7
100
AcDbLine
 10
65.249995
 20
53.499998
 30
0.0
 11
65.256006
 21
53.656998
 31
0.0
  0
LINE
  5
42c
100
AcDbEntity
  8
0
 62
7
100
AcDbLine
 10
67.092999
 20
82.506005
 30
0.0
 11
66.937001
 21
82.524999
 31
0.0
  0
LINE
  5
42d
100
AcDbEntity
  8
0
 62
7
100
AcDbLine
 10
66.937001
 20
82.524999
 30
0.0
 11
66.783001
 21
82.555002
 31
0.0
  0
LINE
  5
42e
100
AcDbEntity
  8
0
 62
7
100
AcDbLine
 10
66.783001
 20
82.555002
 30
0.0
 11
66.632001
 21
82.598001
 31
0.0
  0
LINE
  5
42f
100
AcDbEntity
  8
0
 62
7
100
AcDbLine
 10
66.632001
 20
82.598001
 30
0.0
 11
66.485000
 21
82.652001
 31
0.0
  0
LINE
  5
430
100
AcDbEntity
  8
0
 62
7
100
AcDbLine
 10
66.485000
 20
82.652001
 30
0.0
 11
66.342000
 21
82.718002
 31
0.0
  0
LINE
  5
431
100
AcDbEntity
  8
0
 62
7
100
AcDbLine
 10
66.342000
 20
82.718002
 30
0.0
 11
66.205001
 21
82.795003
 31
0.0
  0
LINE
  5
432
100
AcDbEntity
  8
0
 62
7
100
AcDbLine
 10
66.205001
 20
82.795003
 30
0.0
 11
66.073999
 21
82.882001
 31
0.0
  0
LINE
  5
433
100
AcDbEntity
  8
0
 62
7
100
AcDbLine
 10
66.073999
 20
82.882001
 30
0.0
 11
65.951001
 21
82.979001
 31
0.0
  0
LINE
  5
434
100
AcDbEntity
  8
0
 62
7
100
AcDbLine
 10
65.951001
 20
82.979001
 30
0.0
 11
65.835998
 21
83.086003
 31
0.0
  0
LINE
  5
435
100
AcDbEntity
  8
0
 62
7
100
AcDbLine
 10
65.835998
 20
83.086003
 30
0.0
 11
65.729000
 21
83.201003
 31
0.0
  0
LINE
  5
436
100
AcDbEntity
  8
0
 62
7
100
AcDbLine
 10
65.729000
 20
83.201003
 30
0.0
 11
65.632000
 21
83.324004
 31
0.0
  0
LINE
  5
437
100
AcDbEntity
  8
0
 62
7
100
AcDbLine
 10
65.632000
 20
83.324004
 30
0.0
 11
65.544999
 21
83.455003
 31
0.0
  0
LINE
  5
438
100
AcDbEntity
  8
0
 62
7
100
AcDbLine
 10
65.544999
 20
83.455003
 30
0.0
 11
65.468000
 21
83.592002
 31
0.0
  0
LINE
  5
439
100
AcDbEntity
  8
0
 62
7
100
AcDbLine
 10
65.468000
 20
83.592002
 30
0.0
 11
65.402000
 21
83.735001
 31
0.0
  0
LINE
  5
43a
100
AcDbEntity
  8
0
 62
7
100
AcDbLine
 10
65.402000
 20
83.735001
 30
0.0
 11
65.348000
 21
83.882002
 31
0.0
  0
LINE
  5
43b
100
AcDbEntity
  8
0
 62
7
100
AcDbLine
 10
65.348000
 20
83.882002
 30
0.0
 11
65.305000
 21
84.033002
 31
0.0
  0
LINE
  5
43c
100
AcDbEntity
  8
0
 62
7
100
AcDbLine
 10
65.305000
 20
84.033002
 30
0.0
 11
65.275000
 21
84.187002
 31
0.0
  0
LINE
  5
43d
100
AcDbEntity
  8
0
 62
7
100
AcDbLine
 10
65.275000
 20
84.187002
 30
0.0
 11
65.256006
 21
84.343004
 31
0.0
  0
LINE
  5
43e
100
AcDbEntity
  8
0
 62
7
100
AcDbLine
 10
65.256006
 20
84.343004
 30
0.0
 11
65.249995
 21
84.500001
 31
0.0
  0
LINE
  5
43f
100
AcDbEntity
  8
0
 62
7
100
AcDbLine
 10
65.249995
 20
84.500001
 30
0.0
 11
65.256006
 21
84.657001
 31
0.0
  0
LINE
  5
440
100
AcDbEntity
  8
0
 62
7
100
AcDbLine
 10
65.256006
 20
84.657001
 30
0.0
 11
65.275000
 21
84.813002
 31
0.0
  0
LINE
  5
441
100
AcDbEntity
  8
0
 62
7
100
AcDbLine
 10
65.275000
 20
84.813002
 30
0.0
 11
65.305003
 21
84.967003
 31
0.0
  0
LINE
  5
442
100
AcDbEntity
  8
0
 62
7
100
AcDbLine
 10
65.305003
 20
84.967003
 30
0.0
 11
65.348002
 21
85.118003
 31
0.0
  0
LINE
  5
443
100
AcDbEntity
  8
0
 62
7
100
AcDbLine
 10
65.348002
 20
85.118003
 30
0.0
 11
65.402003
 21
85.265001
 31
0.0
  0
LINE
  5
444
100
AcDbEntity
  8
0
 62
7
100
AcDbLine
 10
65.402003
 20
85.265001
 30
0.0
 11
65.468003
 21
85.408003
 31
0.0
  0
LINE
  5
445
100
AcDbEntity
  8
0
 62
7
100
AcDbLine
 10
65.468003
 20
85.408003
 30
0.0
 11
65.545002
 21
85.545002
 31
0.0
  0
LINE
  5
446
100
AcDbEntity
  8
0
 62
7
100
AcDbLine
 10
65.545002
 20
85.545002
 30
0.0
 11
65.632003
 21
85.676001
 31
0.0
  0
LINE
  5
447
100
AcDbEntity
  8
0
 62
7
100
AcDbLine
 10
65.632003
 20
85.676001
 30
0.0
 11
65.729002
 21
85.799002
 31
0.0
  0
LINE
  5
448
100
AcDbEntity
  8
0
 62
7
100
AcDbLine
 10
65.729002
 20
85.799002
 30
0.0
 11
65.836001
 21
85.914002
 31
0.0
  0
LINE
  5
449
100
AcDbEntity
  8
0
 62
7
100
AcDbLine
 10
65.836001
 20
85.914002
 30
0.0
 11
65.951004
 21
86.021001
 31
0.0
  0
LINE
  5
44a
100
AcDbEntity
  8
0
 62
7
100
AcDbLine
 10
65.951004
 20
86.021001
 30
0.0
 11
66.074002
 21
86.118001
 31
0.0
  0
LINE
  5
44b
100
AcDbEntity
  8
0
 62
7
100
AcDbLine
 10
66.074002
 20
86.118001
 30
0.0
 11
66.205004
 21
86.205001
 31
0.0
  0
LINE
  5
44c
100
AcDbEntity
  8
0
 62
7
100
AcDbLine
 10
66.205004
 20
86.205001
 30
0.0
 11
66.342003
 21
86.282003
 31
0.0
  0
LINE
  5
44d
100
AcDbEntity
  8
0
 62
7
100
AcDbLine
 10
66.342003
 20
86.282003
 30
0.0
 11
66.485002
 21
86.348003
 31
0.0
  0
LINE
  5
44e
100
AcDbEntity
  8
0
 62
7
100
AcDbLine
 10
66.485002
 20
86.348003
 30
0.0
 11
66.632003
 21
86.402001
 31
0.0
  0
LINE
  5
44f
100
AcDbEntity
  8
0
 62
7
100
AcDbLine
 10
66.632003
 20
86.402001
 30
0.0
 11
66.783004
 21
86.445003
 31
0.0
  0
LINE
  5
450
100
AcDbEntity
  8
0
 62
7
100
AcDbLine
 10
66.783004
 20
86.445003
 30
0.0
 11
66.937004
 21
86.475003
 31
0.0
  0
LINE
  5
451
100
AcDbEntity
  8
0
 62
7
100
AcDbLine
 10
66.937004
 20
86.475003
 30
0.0
 11
67.093002
 21
86.493997
 31
0.0
  0
LINE
  5
452
100
AcDbEntity
  8
0
 62
7
100
AcDbLine
 10
67.093002
 20
86.493997
 30
0.0
 11
67.250002
 21
86.500008
 31
0.0
  0
LINE
  5
453
100
AcDbEntity
  8
0
 62
7
100
AcDbLine
 10
67.250002
 20
86.500008
 30
0.0
 11
67.407003
 21
86.493997
 31
0.0
  0
LINE
  5
454
100
AcDbEntity
  8
0
 62
7
100
AcDbLine
 10
67.407003
 20
86.493997
 30
0.0
 11
67.563004
 21
86.475003
 31
0.0
  0
LINE
  5
455
100
AcDbEntity
  8
0
 62
7
100
AcDbLine
 10
67.563004
 20
86.475003
 30
0.0
 11
67.717004
 21
86.445000
 31
0.0
  0
LINE
  5
456
100
AcDbEntity
  8
0
 62
7
100
AcDbLine
 10
67.717004
 20
86.445000
 30
0.0
 11
67.868004
 21
86.401998
 31
0.0
  0
LINE
  5
457
100
AcDbEntity
  8
0
 62
7
100
AcDbLine
 10
67.868004
 20
86.401998
 30
0.0
 11
68.015002
 21
86.348001
 31
0.0
  0
LINE
  5
458
100
AcDbEntity
  8
0
 62
7
100
AcDbLine
 10
68.015002
 20
86.348001
 30
0.0
 11
68.158002
 21
86.282000
 31
0.0
  0
LINE
  5
459
100
AcDbEntity
  8
0
 62
7
100
AcDbLine
 10
68.158002
 20
86.282000
 30
0.0
 11
68.295004
 21
86.204999
 31
0.0
  0
LINE
  5
45a
100
AcDbEntity
  8
0
 62
7
100
AcDbLine
 10
68.295004
 20
86.204999
 30
0.0
 11
68.426003
 21
86.117998
 31
0.0
  0
LINE
  5
45b
100
AcDbEntity
  8
0
 62
7
100
AcDbLine
 10
68.426003
 20
86.117998
 30
0.0
 11
68.549004
 21
86.020998
 31
0.0
  0
LINE
  5
45c
100
AcDbEntity
  8
0
 62
7
100
AcDbLine
 10
68.549004
 20
86.020998
 30
0.0
 11
68.664003
 21
85.913999
 31
0.0
  0
LINE
  5
45d
100
AcDbEntity
  8
0
 62
7
100
AcDbLine
 10
68.664003
 20
85.913999
 30
0.0
 11
68.771002
 21
85.798999
 31
0.0
  0
LINE
  5
45e
100
AcDbEntity
  8
0
 62
7
100
AcDbLine
 10
68.771002
 20
85.798999
 30
0.0
 11
68.868002
 21
85.675998
 31
0.0
  0
LINE
  5
45f
100
AcDbEntity
  8
0
 62
7
100
AcDbLine
 10
68.868002
 20
85.675998
 30
0.0
 11
68.955003
 21
85.544999
 31
0.0
  0
LINE
  5
460
100
AcDbEntity
  8
0
 62
7
100
AcDbLine
 10
68.955003
 20
85.544999
 30
0.0
 11
69.032001
 21
85.408000
 31
0.0
  0
LINE
  5
461
100
AcDbEntity
  8
0
 62
7
100
AcDbLine
 10
69.032001
 20
85.408000
 30
0.0
 11
69.098002
 21
85.264998
 31
0.0
  0
LINE
  5
462
100
AcDbEntity
  8
0
 62
7
100
AcDbLine
 10
69.098002
 20
85.264998
 30
0.0
 11
69.152002
 21
85.118000
 31
0.0
  0
LINE
  5
463
100
AcDbEntity
  8
0
 62
7
100
AcDbLine
 10
69.152002
 20
85.118000
 30
0.0
 11
69.195002
 21
84.967000
 31
0.0
  0
LINE
  5
464
100
AcDbEntity
  8
0
 62
7
100
AcDbLine
 10
69.195002
 20
84.967000
 30
0.0
 11
69.225002
 21
84.813000
 31
0.0
  0
LINE
  5
465
100
AcDbEntity
  8
0
 62
7
100
AcDbLine
 10
69.225002
 20
84.813000
 30
0.0
 11
69.243996
 21
84.656998
 31
0.0
  0
LINE
  5
466
100
AcDbEntity
  8
0
 62
7
100
AcDbLine
 10
69.243996
 20
84.656998
 30
0.0
 11
69.250007
 21
84.499998
 31
0.0
  0
LINE
  5
467
100
AcDbEntity
  8
0
 62
7
100
AcDbLine
 10
69.250007
 20
84.499998
 30
0.0
 11
69.243996
 21
84.343001
 31
0.0
  0
LINE
  5
468
100
AcDbEntity
  8
0
 62
7
100
AcDbLine
 10
69.243996
 20
84.343001
 30
0.0
 11
69.225002
 21
84.187000
 31
0.0
  0
LINE
  5
469
100
AcDbEntity
  8
0
 62
7
100
AcDbLine
 10
69.225002
 20
84.187000
 30
0.0
 11
69.194999
 21
84.032999
 31
0.0
  0
LINE
  5
46a
100
AcDbEntity
  8
0
 62
7
100
AcDbLine
 10
69.194999
 20
84.032999
 30
0.0
 11
69.152000
 21
83.881999
 31
0.0
  0
LINE
  5
46b
100
AcDbEntity
  8
0
 62
7
100
AcDbLine
 10
69.152000
 20
83.881999
 30
0.0
 11
69.097999
 21
83.734998
 31
0.0
  0
LINE
  5
46c
100
AcDbEntity
  8
0
 62
7
100
AcDbLine
 10
69.097999
 20
83.734998
 30
0.0
 11
69.031999
 21
83.591999
 31
0.0
  0
LINE
  5
46d
100
AcDbEntity
  8
0
 62
7
100
AcDbLine
 10
69.031999
 20
83.591999
 30
0.0
 11
68.955000
 21
83.455000
 31
0.0
  0
LINE
  5
46e
100
AcDbEntity
  8
0
 62
7
100
AcDbLine
 10
68.955000
 20
83.455000
 30
0.0
 11
68.867999
 21
83.324001
 31
0.0
  0
LINE
  5
46f
100
AcDbEntity
  8
0
 62
7
100
AcDbLine
 10
68.867999
 20
83.324001
 30
0.0
 11
68.771000
 21
83.201000
 31
0.0
  0
LINE
  5
470
100
AcDbEntity
  8
0
 62
7
100
AcDbLine
 10
68.771000
 20
83.201000
 30
0.0
 11
68.664001
 21
83.086000
 31
0.0
  0
LINE
  5
471
100
AcDbEntity
  8
0
 62
7
100
AcDbLine
 10
68.664001
 20
83.086000
 30
0.0
 11
68.549001
 21
82.978998
 31
0.0
  0
LINE
  5
472
100
AcDbEntity
  8
0
 62
7
100
AcDbLine
 10
68.549001
 20
82.978998
 30
0.0
 11
68.426000
 21
82.881998
 31
0.0
  0
LINE
  5
473
100
AcDbEntity
  8
0
 62
7
100
AcDbLine
 10
68.426000
 20
82.881998
 30
0.0
 11
68.295001
 21
82.795001
 31
0.0
  0
LINE
  5
474
100
AcDbEntity
  8
0
 62
7
100
AcDbLine
 10
68.295001
 20
82.795001
 30
0.0
 11
68.157999
 21
82.717999
 31
0.0
  0
LINE
  5
475
100
AcDbEntity
  8
0
 62
7
100
AcDbLine
 10
68.157999
 20
82.717999
 30
0.0
 11
68.015000
 21
82.651999
 31
0.0
  0
LINE
  5
476
100
AcDbEntity
  8
0
 62
7
100
AcDbLine
 10
68.015000
 20
82.651999
 30
0.0
 11
67.868001
 21
82.597998
 31
0.0
  0
LINE
  5
477
100
AcDbEntity
  8
0
 62
7
100
AcDbLine
 10
67.868001
 20
82.597998
 30
0.0
 11
67.717001
 21
82.554999
 31
0.0
  0
LINE
  5
478
100
AcDbEntity
  8
0
 62
7
100
AcDbLine
 10
67.717001
 20
82.554999
 30
0.0
 11
67.563001
 21
82.524999
 31
0.0
  0
LINE
  5
479
100
AcDbEntity
  8
0
 62
7
100
AcDbLine
 10
67.563001
 20
82.524999
 30
0.0
 11
67.407000
 21
82.506005
 31
0.0
  0
LINE
  5
47a
100
AcDbEntity
  8
0
 62
7
100
AcDbLine
 10
67.407000
 20
82.506005
 30
0.0
 11
67.250000
 21
82.499994
 31
0.0
  0
LINE
  5
47b
100
AcDbEntity
  8
0
 62
7
100
AcDbLine
 10
67.250000
 20
82.499994
 30
0.0
 11
67.092999
 21
82.506005
 31
0.0
  0
LINE
  5
47c
100
AcDbEntity
  8
0
 62
7
100
AcDbLine
 10
75.435000
 20
57.063000
 30
0.0
 11
74.521001
 21
57.674000
 31
0.0
  0
LINE
  5
47d
100
AcDbEntity
  8
0
 62
7
100
AcDbLine
 10
74.521001
 20
57.674000
 30
0.0
 11
73.657999
 21
58.354000
 31
0.0
  0
LINE
  5
47e
100
AcDbEntity
  8
0
 62
7
100
AcDbLine
 10
73.657999
 20
58.354000
 30
0.0
 11
72.850999
 21
59.101000
 31
0.0
  0
LINE
  5
47f
100
AcDbEntity
  8
0
 62
7
100
AcDbLine
 10
72.850999
 20
59.101000
 30
0.0
 11
72.103999
 21
59.908000
 31
0.0
  0
LINE
  5
480
100
AcDbEntity
  8
0
 62
7
100
AcDbLine
 10
72.103999
 20
59.908000
 30
0.0
 11
71.423998
 21
60.770999
 31
0.0
  0
LINE
  5
481
100
AcDbEntity
  8
0
 62
7
100
AcDbLine
 10
71.423998
 20
60.770999
 30
0.0
 11
70.812999
 21
61.684999
 31
0.0
  0
LINE
  5
482
100
AcDbEntity
  8
0
 62
7
100
AcDbLine
 10
70.812999
 20
61.684999
 30
0.0
 11
70.276000
 21
62.643998
 31
0.0
  0
LINE
  5
483
100
AcDbEntity
  8
0
 62
7
100
AcDbLine
 10
70.276000
 20
62.643998
 30
0.0
 11
69.816001
 21
63.642001
 31
0.0
  0
LINE
  5
484
100
AcDbEntity
  8
0
 62
7
100
AcDbLine
 10
69.816001
 20
63.642001
 30
0.0
 11
69.435001
 21
64.674000
 31
0.0
  0
LINE
  5
485
100
AcDbEntity
  8
0
 62
7
100
AcDbLine
 10
69.435001
 20
64.674000
 30
0.0
 11
69.136999
 21
65.732000
 31
0.0
  0
LINE
  5
486
100
AcDbEntity
  8
0
 62
7
100
AcDbLine
 10
69.136999
 20
65.732000
 30
0.0
 11
68.922000
 21
66.809999
 31
0.0
  0
LINE
  5
487
100
AcDbEntity
  8
0
 62
7
100
AcDbLine
 10
68.922000
 20
66.809999
 30
0.0
 11
68.792999
 21
67.901999
 31
0.0
  0
LINE
  5
488
100
AcDbEntity
  8
0
 62
7
100
AcDbLine
 10
68.792999
 20
67.901999
 30
0.0
 11
68.749999
 21
68.999998
 31
0.0
  0
LINE
  5
489
100
AcDbEntity
  8
0
 62
7
100
AcDbLine
 10
68.749999
 20
68.999998
 30
0.0
 11
68.792999
 21
70.097998
 31
0.0
  0
LINE
  5
48a
100
AcDbEntity
  8
0
 62
7
100
AcDbLine
 10
68.792999
 20
70.097998
 30
0.0
 11
68.922000
 21
71.190000
 31
0.0
  0
LINE
  5
48b
100
AcDbEntity
  8
0
 62
7
100
AcDbLine
 10
68.922000
 20
71.190000
 30
0.0
 11
69.136999
 21
72.267999
 31
0.0
  0
LINE
  5
48c
100
AcDbEntity
  8
0
 62
7
100
AcDbLine
 10
69.136999
 20
72.267999
 30
0.0
 11
69.435001
 21
73.325999
 31
0.0
  0
LINE
  5
48d
100
AcDbEntity
  8
0
 62
7
100
AcDbLine
 10
69.435001
 20
73.325999
 30
0.0
 11
69.816001
 21
74.357998
 31
0.0
  0
LINE
  5
48e
100
AcDbEntity
  8
0
 62
7
100
AcDbLine
 10
69.816001
 20
74.357998
 30
0.0
 11
70.276000
 21
75.355998
 31
0.0
  0
LINE
  5
48f
100
AcDbEntity
  8
0
 62
7
100
AcDbLine
 10
70.276000
 20
75.355998
 30
0.0
 11
70.812999
 21
76.315001
 31
0.0
  0
LINE
  5
490
100
AcDbEntity
  8
0
 62
7
100
AcDbLine
 10
70.812999
 20
76.315001
 30
0.0
 11
71.423998
 21
77.229000
 31
0.0
  0
LINE
  5
491
100
AcDbEntity
  8
0
 62
7
100
AcDbLine
 10
71.423998
 20
77.229000
 30
0.0
 11
72.103999
 21
78.091999
 31
0.0
  0
LINE
  5
492
100
AcDbEntity
  8
0
 62
7
100
AcDbLine
 10
72.103999
 20
78.091999
 30
0.0
 11
72.850999
 21
78.898999
 31
0.0
  0
LINE
  5
493
100
AcDbEntity
  8
0
 62
7
100
AcDbLine
 10
72.850999
 20
78.898999
 30
0.0
 11
73.657999
 21
79.645999
 31
0.0
  0
LINE
  5
494
100
AcDbEntity
  8
0
 62
7
100
AcDbLine
 10
73.657999
 20
79.645999
 30
0.0
 11
74.521001
 21
80.325999
 31
0.0
  0
LINE
  5
495
100
AcDbEntity
  8
0
 62
7
100
AcDbLine
 10
74.521001
 20
80.325999
 30
0.0
 11
75.435000
 21
80.936999
 31
0.0
  0
LINE
  5
496
100
AcDbEntity
  8
0
 62
7
100
AcDbLine
 10
75.435000
 20
80.936999
 30
0.0
 11
76.394000
 21
81.474000
 31
0.0
  0
LINE
  5
497
100
AcDbEntity
  8
0
 62
7
100
AcDbLine
 10
76.394000
 20
81.474000
 30
0.0
 11
77.391999
 21
81.934000
 31
0.0
  0
LINE
  5
498
100
AcDbEntity
  8
0
 62
7
100
AcDbLine
 10
77.391999
 20
81.934000
 30
0.0
 11
78.423999
 21
82.315000
 31
0.0
  0
LINE
  5
499
100
AcDbEntity
  8
0
 62
7
100
AcDbLine
 10
78.423999
 20
82.315000
 30
0.0
 11
79.481999
 21
82.612998
 31
0.0
  0
LINE
  5
49a
100
AcDbEntity
  8
0
 62
7
100
AcDbLine
 10
79.481999
 20
82.612998
 30
0.0
 11
80.560000
 21
82.828001
 31
0.0
  0
LINE
  5
49b
100
AcDbEntity
  8
0
 62
7
100
AcDbLine
 10
80.560000
 20
82.828001
 30
0.0
 11
81.652000
 21
82.956999
 31
0.0
  0
LINE
  5
49c
100
AcDbEntity
  8
0
 62
7
100
AcDbLine
 10
81.652000
 20
82.956999
 30
0.0
 11
82.750000
 21
82.999998
 31
0.0
  0
LINE
  5
49d
100
AcDbEntity
  8
0
 62
7
100
AcDbLine
 10
82.750000
 20
82.999998
 30
0.0
 11
83.847999
 21
82.956999
 31
0.0
  0
LINE
  5
49e
100
AcDbEntity
  8
0
 62
7
100
AcDbLine
 10
83.847999
 20
82.956999
 30
0.0
 11
84.939999
 21
82.828001
 31
0.0
  0
LINE
  5
49f
100
AcDbEntity
  8
0
 62
7
100
AcDbLine
 10
84.939999
 20
82.828001
 30
0.0
 11
86.018000
 21
82.612998
 31
0.0
  0
LINE
  5
4a0
100
AcDbEntity
  8
0
 62
7
100
AcDbLine
 10
86.018000
 20
82.612998
 30
0.0
 11
87.076001
 21
82.315000
 31
0.0
  0
LINE
  5
4a1
100
AcDbEntity
  8
0
 62
7
100
AcDbLine
 10
87.076001
 20
82.315000
 30
0.0
 11
88.108000
 21
81.934000
 31
0.0
  0
LINE
  5
4a2
100
AcDbEntity
  8
0
 62
7
100
AcDbLine
 10
88.108000
 20
81.934000
 30
0.0
 11
89.106000
 21
81.474000
 31
0.0
  0
LINE
  5
4a3
100
AcDbEntity
  8
0
 62
7
100
AcDbLine
 10
89.106000
 20
81.474000
 30
0.0
 11
90.064999
 21
80.936999
 31
0.0
  0
LINE
  5
4a4
100
AcDbEntity
  8
0
 62
7
100
AcDbLine
 10
90.064999
 20
80.936999
 30
0.0
 11
90.978998
 21
80.325999
 31
0.0
  0
LINE
  5
4a5
100
AcDbEntity
  8
0
 62
7
100
AcDbLine
 10
90.978998
 20
80.325999
 30
0.0
 11
91.842000
 21
79.645999
 31
0.0
  0
LINE
  5
4a6
100
AcDbEntity
  8
0
 62
7
100
AcDbLine
 10
91.842000
 20
79.645999
 30
0.0
 11
92.649000
 21
78.898999
 31
0.0
  0
LINE
  5
4a7
100
AcDbEntity
  8
0
 62
7
100
AcDbLine
 10
92.649000
 20
78.898999
 30
0.0
 11
93.396000
 21
78.091999
 31
0.0
  0
LINE
  5
4a8
100
AcDbEntity
  8
0
 62
7
100
AcDbLine
 10
93.396000
 20
78.091999
 30
0.0
 11
94.076001
 21
77.229000
 31
0.0
  0
LINE
  5
4a9
100
AcDbEntity
  8
0
 62
7
100
AcDbLine
 10
94.076001
 20
77.229000
 30
0.0
 11
94.687001
 21
76.315001
 31
0.0
  0
LINE
  5
4aa
100
AcDbEntity
  8
0
 62
7
100
AcDbLine
 10
94.687001
 20
76.315001
 30
0.0
 11
95.223999
 21
75.355998
 31
0.0
  0
LINE
  5
4ab
100
AcDbEntity
  8
0
 62
7
100
AcDbLine
 10
95.223999
 20
75.355998
 30
0.0
 11
95.684001
 21
74.357998
 31
0.0
  0
LINE
  5
4ac
100
AcDbEntity
  8
0
 62
7
100
AcDbLine
 10
95.684001
 20
74.357998
 30
0.0
 11
96.064999
 21
73.325999
 31
0.0
  0
LINE
  5
4ad
100
AcDbEntity
  8
0
 62
7
100
AcDbLine
 10
96.064999
 20
73.325999
 30
0.0
 11
96.363000
 21
72.267999
 31
0.0
  0
LINE
  5
4ae
100
AcDbEntity
  8
0
 62
7
100
AcDbLine
 10
96.363000
 20
72.267999
 30
0.0
 11
96.577999
 21
71.190000
 31
0.0
  0
LINE
  5
4af
100
AcDbEntity
  8
0
 62
7
100
AcDbLine
 10
96.577999
 20
71.190000
 30
0.0
 11
96.707000
 21
70.097998
 31
0.0
  0
LINE
  5
4b0
100
AcDbEntity
  8
0
 62
7
100
AcDbLine
 10
96.707000
 20
70.097998
 30
0.0
 11
96.750000
 21
68.999998
 31
0.0
  0
LINE
  5
4b1
100
AcDbEntity
  8
0
 62
7
100
AcDbLine
 10
96.750000
 20
68.999998
 30
0.0
 11
96.707000
 21
67.901999
 31
0.0
  0
LINE
  5
4b2
100
AcDbEntity
  8
0
 62
7
100
AcDbLine
 10
96.707000
 20
67.901999
 30
0.0
 11
96.577999
 21
66.809999
 31
0.0
  0
LINE
  5
4b3
100
AcDbEntity
  8
0
 62
7
100
AcDbLine
 10
96.577999
 20
66.809999
 30
0.0
 11
96.363000
 21
65.732000
 31
0.0
  0
LINE
  5
4b4
100
AcDbEntity
  8
0
 62
7
100
AcDbLine
 10
96.363000
 20
65.732000
 30
0.0
 11
96.064999
 21
64.674000
 31
0.0
  0
LINE
  5
4b5
100
AcDbEntity
  8
0
 62
7
100
AcDbLine
 10
96.064999
 20
64.674000
 30
0.0
 11
95.684001
 21
63.642001
 31
0.0
  0
LINE
  5
4b6
100
AcDbEntity
  8
0
 62
7
100
AcDbLine
 10
95.684001
 20
63.642001
 30
0.0
 11
95.223999
 21
62.643998
 31
0.0
  0
LINE
  5
4b7
100
AcDbEntity
  8
0
 62
7
100
AcDbLine
 10
95.223999
 20
62.643998
 30
0.0
 11
94.687001
 21
61.684999
 31
0.0
  0
LINE
  5
4b8
100
AcDbEntity
  8
0
 62
7
100
AcDbLine
 10
94.687001
 20
61.684999
 30
0.0
 11
94.076001
 21
60.770999
 31
0.0
  0
LINE
  5
4b9
100
AcDbEntity
  8
0
 62
7
100
AcDbLine
 10
94.076001
 20
60.770999
 30
0.0
 11
93.396000
 21
59.908000
 31
0.0
  0
LINE
  5
4ba
100
AcDbEntity
  8
0
 62
7
100
AcDbLine
 10
93.396000
 20
59.908000
 30
0.0
 11
92.649000
 21
59.101000
 31
0.0
  0
LINE
  5
4bb
100
AcDbEntity
  8
0
 62
7
100
AcDbLine
 10
92.649000
 20
59.101000
 30
0.0
 11
91.842000
 21
58.354000
 31
0.0
  0
LINE
  5
4bc
100
AcDbEntity
  8
0
 62
7
100
AcDbLine
 10
91.842000
 20
58.354000
 30
0.0
 11
90.978998
 21
57.674000
 31
0.0
  0
LINE
  5
4bd
100
AcDbEntity
  8
0
 62
7
100
AcDbLine
 10
90.978998
 20
57.674000
 30
0.0
 11
90.064999
 21
57.063000
 31
0.0
  0
LINE
  5
4be
100
AcDbEntity
  8
0
 62
7
100
AcDbLine
 10
90.064999
 20
57.063000
 30
0.0
 11
89.106000
 21
56.525999
 31
0.0
  0
LINE
  5
4bf
100
AcDbEntity
  8
0
 62
7
100
AcDbLine
 10
89.106000
 20
56.525999
 30
0.0
 11
88.108000
 21
56.065999
 31
0.0
  0
LINE
  5
4c0
100
AcDbEntity
  8
0
 62
7
100
AcDbLine
 10
88.108000
 20
56.065999
 30
0.0
 11
87.076001
 21
55.684999
 31
0.0
  0
LINE
  5
4c1
100
AcDbEntity
  8
0
 62
7
100
AcDbLine
 10
87.076001
 20
55.684999
 30
0.0
 11
86.018000
 21
55.387001
 31
0.0
  0
LINE
  5
4c2
100
AcDbEntity
  8
0
 62
7
100
AcDbLine
 10
86.018000
 20
55.387001
 30
0.0
 11
84.939999
 21
55.171998
 31
0.0
  0
LINE
  5
4c3
100
AcDbEntity
  8
0
 62
7
100
AcDbLine
 10
84.939999
 20
55.171998
 30
0.0
 11
83.847999
 21
55.043000
 31
0.0
  0
LINE
  5
4c4
100
AcDbEntity
  8
0
 62
7
100
AcDbLine
 10
83.847999
 20
55.043000
 30
0.0
 11
82.750000
 21
54.999998
 31
0.0
  0
LINE
  5
4c5
100
AcDbEntity
  8
0
 62
7
100
AcDbLine
 10
82.750000
 20
54.999998
 30
0.0
 11
81.652000
 21
55.043000
 31
0.0
  0
LINE
  5
4c6
100
AcDbEntity
  8
0
 62
7
100
AcDbLine
 10
81.652000
 20
55.043000
 30
0.0
 11
80.560000
 21
55.171998
 31
0.0
  0
LINE
  5
4c7
100
AcDbEntity
  8
0
 62
7
100
AcDbLine
 10
80.560000
 20
55.171998
 30
0.0
 11
79.481999
 21
55.387001
 31
0.0
  0
LINE
  5
4c8
100
AcDbEntity
  8
0
 62
7
100
AcDbLine
 10
79.481999
 20
55.387001
 30
0.0
 11
78.423999
 21
55.684999
 31
0.0
  0
LINE
  5
4c9
100
AcDbEntity
  8
0
 62
7
100
AcDbLine
 10
78.423999
 20
55.684999
 30
0.0
 11
77.391999
 21
56.065999
 31
0.0
  0
LINE
  5
4ca
100
AcDbEntity
  8
0
 62
7
100
AcDbLine
 10
77.391999
 20
56.065999
 30
0.0
 11
76.394000
 21
56.525999
 31
0.0
  0
LINE
  5
4cb
100
AcDbEntity
  8
0
 62
7
100
AcDbLine
 10
76.394000
 20
56.525999
 30
0.0
 11
75.435000
 21
57.063000
 31
0.0
  0
LINE
  5
4cc
100
AcDbEntity
  8
0
 62
7
100
AcDbLine
 10
96.274997
 20
53.813000
 30
0.0
 11
96.305000
 21
53.967000
 31
0.0
  0
LINE
  5
4cd
100
AcDbEntity
  8
0
 62
7
100
AcDbLine
 10
96.305000
 20
53.967000
 30
0.0
 11
96.348000
 21
54.118000
 31
0.0
  0
LINE
  5
4ce
100
AcDbEntity
  8
0
 62
7
100
AcDbLine
 10
96.348000
 20
54.118000
 30
0.0
 11
96.402000
 21
54.264998
 31
0.0
  0
LINE
  5
4cf
100
AcDbEntity
  8
0
 62
7
100
AcDbLine
 10
96.402000
 20
54.264998
 30
0.0
 11
96.468001
 21
54.408000
 31
0.0
  0
LINE
  5
4d0
100
AcDbEntity
  8
0
 62
7
100
AcDbLine
 10
96.468001
 20
54.408000
 30
0.0
 11
96.544999
 21
54.544999
 31
0.0
  0
LINE
  5
4d1
100
AcDbEntity
  8
0
 62
7
100
AcDbLine
 10
96.544999
 20
54.544999
 30
0.0
 11
96.632000
 21
54.675998
 31
0.0
  0
LINE
  5
4d2
100
AcDbEntity
  8
0
 62
7
100
AcDbLine
 10
96.632000
 20
54.675998
 30
0.0
 11
96.729000
 21
54.798999
 31
0.0
  0
LINE
  5
4d3
100
AcDbEntity
  8
0
 62
7
100
AcDbLine
 10
96.729000
 20
54.798999
 30
0.0
 11
96.835999
 21
54.913999
 31
0.0
  0
LINE
  5
4d4
100
AcDbEntity
  8
0
 62
7
100
AcDbLine
 10
96.835999
 20
54.913999
 30
0.0
 11
96.951001
 21
55.020998
 31
0.0
  0
LINE
  5
4d5
100
AcDbEntity
  8
0
 62
7
100
AcDbLine
 10
96.951001
 20
55.020998
 30
0.0
 11
97.073999
 21
55.118001
 31
0.0
  0
LINE
  5
4d6
100
AcDbEntity
  8
0
 62
7
100
AcDbLine
 10
97.073999
 20
55.118001
 30
0.0
 11
97.204998
 21
55.204999
 31
0.0
  0
LINE
  5
4d7
100
AcDbEntity
  8
0
 62
7
100
AcDbLine
 10
97.204998
 20
55.204999
 30
0.0
 11
97.342000
 21
55.282000
 31
0.0
  0
LINE
  5
4d8
100
AcDbEntity
  8
0
 62
7
100
AcDbLine
 10
97.342000
 20
55.282000
 30
0.0
 11
97.485000
 21
55.348001
 31
0.0
  0
LINE
  5
4d9
100
AcDbEntity
  8
0
 62
7
100
AcDbLine
 10
97.485000
 20
55.348001
 30
0.0
 11
97.632001
 21
55.401998
 31
0.0
  0
LINE
  5
4da
100
AcDbEntity
  8
0
 62
7
100
AcDbLine
 10
97.632001
 20
55.401998
 30
0.0
 11
97.783001
 21
55.445000
 31
0.0
  0
LINE
  5
4db
100
AcDbEntity
  8
0
 62
7
100
AcDbLine
 10
97.783001
 20
55.445000
 30
0.0
 11
97.937001
 21
55.475001
 31
0.0
  0
LINE
  5
4dc
100
AcDbEntity
  8
0
 62
7
100
AcDbLine
 10
97.937001
 20
55.475001
 30
0.0
 11
98.092999
 21
55.493994
 31
0.0
  0
LINE
  5
4dd
100
AcDbEntity
  8
0
 62
7
100
AcDbLine
 10
98.092999
 20
55.493994
 30
0.0
 11
98.250000
 21
55.500005
 31
0.0
  0
LINE
  5
4de
100
AcDbEntity
  8
0
 62
7
100
AcDbLine
 10
98.250000
 20
55.500005
 30
0.0
 11
98.407000
 21
55.493994
 31
0.0
  0
LINE
  5
4df
100
AcDbEntity
  8
0
 62
7
100
AcDbLine
 10
98.407000
 20
55.493994
 30
0.0
 11
98.563001
 21
55.475001
 31
0.0
  0
LINE
  5
4e0
100
AcDbEntity
  8
0
 62
7
100
AcDbLine
 10
98.563001
 20
55.475001
 30
0.0
 11
98.717001
 21
55.444997
 31
0.0
  0
LINE
  5
4e1
100
AcDbEntity
  8
0
 62
7
100
AcDbLine
 10
98.717001
 20
55.444997
 30
0.0
 11
98.867999
 21
55.401995
 31
0.0
  0
LINE
  5
4e2
100
AcDbEntity
  8
0
 62
7
100
AcDbLine
 10
98.867999
 20
55.401995
 30
0.0
 11
99.015000
 21
55.347998
 31
0.0
  0
LINE
  5
4e3
100
AcDbEntity
  8
0
 62
7
100
AcDbLine
 10
99.015000
 20
55.347998
 30
0.0
 11
99.157999
 21
55.281997
 31
0.0
  0
LINE
  5
4e4
100
AcDbEntity
  8
0
 62
7
100
AcDbLine
 10
99.157999
 20
55.281997
 30
0.0
 11
99.295001
 21
55.204996
 31
0.0
  0
LINE
  5
4e5
100
AcDbEntity
  8
0
 62
7
100
AcDbLine
 10
99.295001
 20
55.204996
 30
0.0
 11
99.426000
 21
55.117998
 31
0.0
  0
LINE
  5
4e6
100
AcDbEntity
  8
0
 62
7
100
AcDbLine
 10
99.426000
 20
55.117998
 30
0.0
 11
99.549001
 21
55.020995
 31
0.0
  0
LINE
  5
4e7
100
AcDbEntity
  8
0
 62
7
100
AcDbLine
 10
99.549001
 20
55.020995
 30
0.0
 11
99.664001
 21
54.913996
 31
0.0
  0
LINE
  5
4e8
100
AcDbEntity
  8
0
 62
7
100
AcDbLine
 10
99.664001
 20
54.913996
 30
0.0
 11
99.771000
 21
54.798996
 31
0.0
  0
LINE
  5
4e9
100
AcDbEntity
  8
0
 62
7
100
AcDbLine
 10
99.771000
 20
54.798996
 30
0.0
 11
99.867999
 21
54.675996
 31
0.0
  0
LINE
  5
4ea
100
AcDbEntity
  8
0
 62
7
100
AcDbLine
 10
99.867999
 20
54.675996
 30
0.0
 11
99.955000
 21
54.544996
 31
0.0
  0
LINE
  5
4eb
100
AcDbEntity
  8
0
 62
7
100
AcDbLine
 10
99.955000
 20
54.544996
 30
0.0
 11
100.031999
 21
54.407997
 31
0.0
  0
LINE
  5
4ec
100
AcDbEntity
  8
0
 62
7
100
AcDbLine
 10
100.031999
 20
54.407997
 30
0.0
 11
100.097999
 21
54.264995
 31
0.0
  0
LINE
  5
4ed
100
AcDbEntity
  8
0
 62
7
100
AcDbLine
 10
100.097999
 20
54.264995
 30
0.0
 11
100.152000
 21
54.117997
 31
0.0
  0
LINE
  5
4ee
100
AcDbEntity
  8
0
 62
7
100
AcDbLine
 10
100.152000
 20
54.117997
 30
0.0
 11
100.194999
 21
53.966997
 31
0.0
  0
LINE
  5
4ef
100
AcDbEntity
  8
0
 62
7
100
AcDbLine
 10
100.194999
 20
53.966997
 30
0.0
 11
100.224999
 21
53.812997
 31
0.0
  0
LINE
  5
4f0
100
AcDbEntity
  8
0
 62
7
100
AcDbLine
 10
100.224999
 20
53.812997
 30
0.0
 11
100.243993
 21
53.656996
 31
0.0
  0
LINE
  5
4f1
100
AcDbEntity
  8
0
 62
7
100
AcDbLine
 10
100.243993
 20
53.656996
 30
0.0
 11
100.250004
 21
53.499995
 31
0.0
  0
LINE
  5
4f2
100
AcDbEntity
  8
0
 62
7
100
AcDbLine
 10
100.250004
 20
53.499995
 30
0.0
 11
100.243993
 21
53.342995
 31
0.0
  0
LINE
  5
4f3
100
AcDbEntity
  8
0
 62
7
100
AcDbLine
 10
100.243993
 20
53.342995
 30
0.0
 11
100.224999
 21
53.186997
 31
0.0
  0
LINE
  5
4f4
100
AcDbEntity
  8
0
 62
7
100
AcDbLine
 10
100.224999
 20
53.186997
 30
0.0
 11
100.194993
 21
53.032997
 31
0.0
  0
LINE
  5
4f5
100
AcDbEntity
  8
0
 62
7
100
AcDbLine
 10
100.194993
 20
53.032997
 30
0.0
 11
100.151994
 21
52.881996
 31
0.0
  0
LINE
  5
4f6
100
AcDbEntity
  8
0
 62
7
100
AcDbLine
 10
100.151994
 20
52.881996
 30
0.0
 11
100.097994
 21
52.734995
 31
0.0
  0
LINE
  5
4f7
100
AcDbEntity
  8
0
 62
7
100
AcDbLine
 10
100.097994
 20
52.734995
 30
0.0
 11
100.031993
 21
52.591996
 31
0.0
  0
LINE
  5
4f8
100
AcDbEntity
  8
0
 62
7
100
AcDbLine
 10
100.031993
 20
52.591996
 30
0.0
 11
99.954994
 21
52.454997
 31
0.0
  0
LINE
  5
4f9
100
AcDbEntity
  8
0
 62
7
100
AcDbLine
 10
99.954994
 20
52.454997
 30
0.0
 11
99.867994
 21
52.323995
 31
0.0
  0
LINE
  5
4fa
100
AcDbEntity
  8
0
 62
7
100
AcDbLine
 10
99.867994
 20
52.323995
 30
0.0
 11
99.770994
 21
52.200997
 31
0.0
  0
LINE
  5
4fb
100
AcDbEntity
  8
0
 62
7
100
AcDbLine
 10
99.770994
 20
52.200997
 30
0.0
 11
99.663995
 21
52.085997
 31
0.0
  0
LINE
  5
4fc
100
AcDbEntity
  8
0
 62
7
100
AcDbLine
 10
99.663995
 20
52.085997
 30
0.0
 11
99.548995
 21
51.978995
 31
0.0
  0
LINE
  5
4fd
100
AcDbEntity
  8
0
 62
7
100
AcDbLine
 10
99.548995
 20
51.978995
 30
0.0
 11
99.425994
 21
51.881996
 31
0.0
  0
LINE
  5
4fe
100
AcDbEntity
  8
0
 62
7
100
AcDbLine
 10
99.425994
 20
51.881996
 30
0.0
 11
99.294995
 21
51.794998
 31
0.0
  0
LINE
  5
4ff
100
AcDbEntity
  8
0
 62
7
100
AcDbLine
 10
99.294995
 20
51.794998
 30
0.0
 11
99.157993
 21
51.717996
 31
0.0
  0
LINE
  5
500
100
AcDbEntity
  8
0
 62
7
100
AcDbLine
 10
99.157993
 20
51.717996
 30
0.0
 11
99.014994
 21
51.651996
 31
0.0
  0
LINE
  5
501
100
AcDbEntity
  8
0
 62
7
100
AcDbLine
 10
99.014994
 20
51.651996
 30
0.0
 11
98.867993
 21
51.597995
 31
0.0
  0
LINE
  5
502
100
AcDbEntity
  8
0
 62
7
100
AcDbLine
 10
98.867993
 20
51.597995
 30
0.0
 11
98.716996
 21
51.554996
 31
0.0
  0
LINE
  5
503
100
AcDbEntity
  8
0
 62
7
100
AcDbLine
 10
98.716996
 20
51.554996
 30
0.0
 11
98.562995
 21
51.524996
 31
0.0
  0
LINE
  5
504
100
AcDbEntity
  8
0
 62
7
100
AcDbLine
 10
98.562995
 20
51.524996
 30
0.0
 11
98.406994
 21
51.506002
 31
0.0
  0
LINE
  5
505
100
AcDbEntity
  8
0
 62
7
100
AcDbLine
 10
98.406994
 20
51.506002
 30
0.0
 11
98.249994
 21
51.499991
 31
0.0
  0
LINE
  5
506
100
AcDbEntity
  8
0
 62
7
100
AcDbLine
 10
98.249994
 20
51.499991
 30
0.0
 11
98.092994
 21
51.506002
 31
0.0
  0
LINE
  5
507
100
AcDbEntity
  8
0
 62
7
100
AcDbLine
 10
98.092994
 20
51.506002
 30
0.0
 11
97.936995
 21
51.524996
 31
0.0
  0
LINE
  5
508
100
AcDbEntity
  8
0
 62
7
100
AcDbLine
 10
97.936995
 20
51.524996
 30
0.0
 11
97.782995
 21
51.554999
 31
0.0
  0
LINE
  5
509
100
AcDbEntity
  8
0
 62
7
100
AcDbLine
 10
97.782995
 20
51.554999
 30
0.0
 11
97.631995
 21
51.597998
 31
0.0
  0
LINE
  5
50a
100
AcDbEntity
  8
0
 62
7
100
AcDbLine
 10
97.631995
 20
51.597998
 30
0.0
 11
97.484994
 21
51.651999
 31
0.0
  0
LINE
  5
50b
100
AcDbEntity
  8
0
 62
7
100
AcDbLine
 10
97.484994
 20
51.651999
 30
0.0
 11
97.341995
 21
51.717999
 31
0.0
  0
LINE
  5
50c
100
AcDbEntity
  8
0
 62
7
100
AcDbLine
 10
97.341995
 20
51.717999
 30
0.0
 11
97.204993
 21
51.795001
 31
0.0
  0
LINE
  5
50d
100
AcDbEntity
  8
0
 62
7
100
AcDbLine
 10
97.204993
 20
51.795001
 30
0.0
 11
97.073994
 21
51.881998
 31
0.0
  0
LINE
  5
50e
100
AcDbEntity
  8
0
 62
7
100
AcDbLine
 10
97.073994
 20
51.881998
 30
0.0
 11
96.950996
 21
51.978998
 31
0.0
  0
LINE
  5
50f
100
AcDbEntity
  8
0
 62
7
100
AcDbLine
 10
96.950996
 20
51.978998
 30
0.0
 11
96.835993
 21
52.086000
 31
0.0
  0
LINE
  5
510
100
AcDbEntity
  8
0
 62
7
100
AcDbLine
 10
96.835993
 20
52.086000
 30
0.0
 11
96.728994
 21
52.201000
 31
0.0
  0
LINE
  5
511
100
AcDbEntity
  8
0
 62
7
100
AcDbLine
 10
96.728994
 20
52.201000
 30
0.0
 11
96.631994
 21
52.323998
 31
0.0
  0
LINE
  5
512
100
AcDbEntity
  8
0
 62
7
100
AcDbLine
 10
96.631994
 20
52.323998
 30
0.0
 11
96.544994
 21
52.455000
 31
0.0
  0
LINE
  5
513
100
AcDbEntity
  8
0
 62
7
100
AcDbLine
 10
96.544994
 20
52.455000
 30
0.0
 11
96.467995
 21
52.591999
 31
0.0
  0
LINE
  5
514
100
AcDbEntity
  8
0
 62
7
100
AcDbLine
 10
96.467995
 20
52.591999
 30
0.0
 11
96.401994
 21
52.734998
 31
0.0
  0
LINE
  5
515
100
AcDbEntity
  8
0
 62
7
100
AcDbLine
 10
96.401994
 20
52.734998
 30
0.0
 11
96.347994
 21
52.881999
 31
0.0
  0
LINE
  5
516
100
AcDbEntity
  8
0
 62
7
100
AcDbLine
 10
96.347994
 20
52.881999
 30
0.0
 11
96.304995
 21
53.032999
 31
0.0
  0
LINE
  5
517
100
AcDbEntity
  8
0
 62
7
100
AcDbLine
 10
96.304995
 20
53.032999
 30
0.0
 11
96.274994
 21
53.187000
 31
0.0
  0
LINE
  5
518
100
AcDbEntity
  8
0
 62
7
100
AcDbLine
 10
96.274994
 20
53.187000
 30
0.0
 11
96.256001
 21
53.342998
 31
0.0
  0
LINE
  5
519
100
AcDbEntity
  8
0
 62
7
100
AcDbLine
 10
96.256001
 20
53.342998
 30
0.0
 11
96.249990
 21
53.499998
 31
0.0
  0
LINE
  5
51a
100
AcDbEntity
  8
0
 62
7
100
AcDbLine
 10
96.249990
 20
53.499998
 30
0.0
 11
96.256001
 21
53.656998
 31
0.0
  0
LINE
  5
51b
100
AcDbEntity
  8
0
 62
7
100
AcDbLine
 10
96.256001
 20
53.656998
 30
0.0
 11
96.274997
 21
53.813000
 31
0.0
  0
LINE
  5
51c
100
AcDbEntity
  8
0
 62
7
100
AcDbLine
 10
96.274997
 20
84.813000
 30
0.0
 11
96.305000
 21
84.967000
 31
0.0
  0
LINE
  5
51d
100
AcDbEntity
  8
0
 62
7
100
AcDbLine
 10
96.305000
 20
84.967000
 30
0.0
 11
96.348000
 21
85.118000
 31
0.0
  0
LINE
  5
51e
100
AcDbEntity
  8
0
 62
7
100
AcDbLine
 10
96.348000
 20
85.118000
 30
0.0
 11
96.402000
 21
85.264998
 31
0.0
  0
LINE
  5
51f
100
AcDbEntity
  8
0
 62
7
100
AcDbLine
 10
96.402000
 20
85.264998
 30
0.0
 11
96.468001
 21
85.408000
 31
0.0
  0
LINE
  5
520
100
AcDbEntity
  8
0
 62
7
100
AcDbLine
 10
96.468001
 20
85.408000
 30
0.0
 11
96.544999
 21
85.544999
 31
0.0
  0
LINE
  5
521
100
AcDbEntity
  8
0
 62
7
100
AcDbLine
 10
96.544999
 20
85.544999
 30
0.0
 11
96.632000
 21
85.675998
 31
0.0
  0
LINE
  5
522
100
AcDbEntity
  8
0
 62
7
100
AcDbLine
 10
96.632000
 20
85.675998
 30
0.0
 11
96.729000
 21
85.798999
 31
0.0
  0
LINE
  5
523
100
AcDbEntity
  8
0
 62
7
100
AcDbLine
 10
96.729000
 20
85.798999
 30
0.0
 11
96.835999
 21
85.913999
 31
0.0
  0
LINE
  5
524
100
AcDbEntity
  8
0
 62
7
100
AcDbLine
 10
96.835999
 20
85.913999
 30
0.0
 11
96.951001
 21
86.020998
 31
0.0
  0
LINE
  5
525
100
AcDbEntity
  8
0
 62
7
100
AcDbLine
 10
96.951001
 20
86.020998
 30
0.0
 11
97.073999
 21
86.117998
 31
0.0
  0
LINE
  5
526
100
AcDbEntity
  8
0
 62
7
100
AcDbLine
 10
97.073999
 20
86.117998
 30
0.0
 11
97.204998
 21
86.204999
 31
0.0
  0
LINE
  5
527
100
AcDbEntity
  8
0
 62
7
100
AcDbLine
 10
97.204998
 20
86.204999
 30
0.0
 11
97.342000
 21
86.282000
 31
0.0
  0
LINE
  5
528
100
AcDbEntity
  8
0
 62
7
100
AcDbLine
 10
97.342000
 20
86.282000
 30
0.0
 11
97.485000
 21
86.348001
 31
0.0
  0
LINE
  5
529
100
AcDbEntity
  8
0
 62
7
100
AcDbLine
 10
97.485000
 20
86.348001
 30
0.0
 11
97.632001
 21
86.401998
 31
0.0
  0
LINE
  5
52a
100
AcDbEntity
  8
0
 62
7
100
AcDbLine
 10
97.632001
 20
86.401998
 30
0.0
 11
97.783001
 21
86.445000
 31
0.0
  0
LINE
  5
52b
100
AcDbEntity
  8
0
 62
7
100
AcDbLine
 10
97.783001
 20
86.445000
 30
0.0
 11
97.937001
 21
86.475001
 31
0.0
  0
LINE
  5
52c
100
AcDbEntity
  8
0
 62
7
100
AcDbLine
 10
97.937001
 20
86.475001
 30
0.0
 11
98.092999
 21
86.493994
 31
0.0
  0
LINE
  5
52d
100
AcDbEntity
  8
0
 62
7
100
AcDbLine
 10
98.092999
 20
86.493994
 30
0.0
 11
98.250000
 21
86.500006
 31
0.0
  0
LINE
  5
52e
100
AcDbEntity
  8
0
 62
7
100
AcDbLine
 10
98.250000
 20
86.500006
 30
0.0
 11
98.407000
 21
86.493994
 31
0.0
  0
LINE
  5
52f
100
AcDbEntity
  8
0
 62
7
100
AcDbLine
 10
98.407000
 20
86.493994
 30
0.0
 11
98.563001
 21
86.475001
 31
0.0
  0
LINE
  5
530
100
AcDbEntity
  8
0
 62
7
100
AcDbLine
 10
98.563001
 20
86.475001
 30
0.0
 11
98.717001
 21
86.444998
 31
0.0
  0
LINE
  5
531
100
AcDbEntity
  8
0
 62
7
100
AcDbLine
 10
98.717001
 20
86.444998
 30
0.0
 11
98.867999
 21
86.401995
 31
0.0
  0
LINE
  5
532
100
AcDbEntity
  8
0
 62
7
100
AcDbLine
 10
98.867999
 20
86.401995
 30
0.0
 11
99.015000
 21
86.347998
 31
0.0
  0
LINE
  5
533
100
AcDbEntity
  8
0
 62
7
100
AcDbLine
 10
99.015000
 20
86.347998
 30
0.0
 11
99.157999
 21
86.281997
 31
0.0
  0
LINE
  5
534
100
AcDbEntity
  8
0
 62
7
100
AcDbLine
 10
99.157999
 20
86.281997
 30
0.0
 11
99.295001
 21
86.204996
 31
0.0
  0
LINE
  5
535
100
AcDbEntity
  8
0
 62
7
100
AcDbLine
 10
99.295001
 20
86.204996
 30
0.0
 11
99.426000
 21
86.117995
 31
0.0
  0
LINE
  5
536
100
AcDbEntity
  8
0
 62
7
100
AcDbLine
 10
99.426000
 20
86.117995
 30
0.0
 11
99.549001
 21
86.020995
 31
0.0
  0
LINE
  5
537
100
AcDbEntity
  8
0
 62
7
100
AcDbLine
 10
99.549001
 20
86.020995
 30
0.0
 11
99.664001
 21
85.913996
 31
0.0
  0
LINE
  5
538
100
AcDbEntity
  8
0
 62
7
100
AcDbLine
 10
99.664001
 20
85.913996
 30
0.0
 11
99.771000
 21
85.798997
 31
0.0
  0
LINE
  5
539
100
AcDbEntity
  8
0
 62
7
100
AcDbLine
 10
99.771000
 20
85.798997
 30
0.0
 11
99.867999
 21
85.675996
 31
0.0
  0
LINE
  5
53a
100
AcDbEntity
  8
0
 62
7
100
AcDbLine
 10
99.867999
 20
85.675996
 30
0.0
 11
99.955000
 21
85.544997
 31
0.0
  0
LINE
  5
53b
100
AcDbEntity
  8
0
 62
7
100
AcDbLine
 10
99.955000
 20
85.544997
 30
0.0
 11
100.031999
 21
85.407997
 31
0.0
  0
LINE
  5
53c
100
AcDbEntity
  8
0
 62
7
100
AcDbLine
 10
100.031999
 20
85.407997
 30
0.0
 11
100.097999
 21
85.264995
 31
0.0
  0
LINE
  5
53d
100
AcDbEntity
  8
0
 62
7
100
AcDbLine
 10
100.097999
 20
85.264995
 30
0.0
 11
100.152000
 21
85.117997
 31
0.0
  0
LINE
  5
53e
100
AcDbEntity
  8
0
 62
7
100
AcDbLine
 10
100.152000
 20
85.117997
 30
0.0
 11
100.194999
 21
84.966997
 31
0.0
  0
LINE
  5
53f
100
AcDbEntity
  8
0
 62
7
100
AcDbLine
 10
100.194999
 20
84.966997
 30
0.0
 11
100.224999
 21
84.812997
 31
0.0
  0
LINE
  5
540
100
AcDbEntity
  8
0
 62
7
100
AcDbLine
 10
100.224999
 20
84.812997
 30
0.0
 11
100.243993
 21
84.656996
 31
0.0
  0
LINE
  5
541
100
AcDbEntity
  8
0
 62
7
100
AcDbLine
 10
100.243993
 20
84.656996
 30
0.0
 11
100.250004
 21
84.499995
 31
0.0
  0
LINE
  5
542
100
AcDbEntity
  8
0
 62
7
100
AcDbLine
 10
100.250004
 20
84.499995
 30
0.0
 11
100.243993
 21
84.342998
 31
0.0
  0
LINE
  5
543
100
AcDbEntity
  8
0
 62
7
100
AcDbLine
 10
100.243993
 20
84.342998
 30
0.0
 11
100.224999
 21
84.186997
 31
0.0
  0
LINE
  5
544
100
AcDbEntity
  8
0
 62
7
100
AcDbLine
 10
100.224999
 20
84.186997
 30
0.0
 11
100.194993
 21
84.032997
 31
0.0
  0
LINE
  5
545
100
AcDbEntity
  8
0
 62
7
100
AcDbLine
 10
100.194993
 20
84.032997
 30
0.0
 11
100.151994
 21
83.881996
 31
0.0
  0
LINE
  5
546
100
AcDbEntity
  8
0
 62
7
100
AcDbLine
 10
100.151994
 20
83.881996
 30
0.0
 11
100.097994
 21
83.734995
 31
0.0
  0
LINE
  5
547
100
AcDbEntity
  8
0
 62
7
100
AcDbLine
 10
100.097994
 20
83.734995
 30
0.0
 11
100.031993
 21
83.591996
 31
0.0
  0
LINE
  5
548
100
AcDbEntity
  8
0
 62
7
100
AcDbLine
 10
100.031993
 20
83.591996
 30
0.0
 11
99.954994
 21
83.454997
 31
0.0
  0
LINE
  5
549
100
AcDbEntity
  8
0
 62
7
100
AcDbLine
 10
99.954994
 20
83.454997
 30
0.0
 11
99.867994
 21
83.323998
 31
0.0
  0
LINE
  5
54a
100
AcDbEntity
  8
0
 62
7
100
AcDbLine
 10
99.867994
 20
83.323998
 30
0.0
 11
99.770994
 21
83.200997
 31
0.0
  0
LINE
  5
54b
100
AcDbEntity
  8
0
 62
7
100
AcDbLine
 10
99.770994
 20
83.200997
 30
0.0
 11
99.663995
 21
83.085997
 31
0.0
  0
LINE
  5
54c
100
AcDbEntity
  8
0
 62
7
100
AcDbLine
 10
99.663995
 20
83.085997
 30
0.0
 11
99.548995
 21
82.978995
 31
0.0
  0
LINE
  5
54d
100
AcDbEntity
  8
0
 62
7
100
AcDbLine
 10
99.548995
 20
82.978995
 30
0.0
 11
99.425994
 21
82.881996
 31
0.0
  0
LINE
  5
54e
100
AcDbEntity
  8
0
 62
7
100
AcDbLine
 10
99.425994
 20
82.881996
 30
0.0
 11
99.294995
 21
82.794998
 31
0.0
  0
LINE
  5
54f
100
AcDbEntity
  8
0
 62
7
100
AcDbLine
 10
99.294995
 20
82.794998
 30
0.0
 11
99.157993
 21
82.717996
 31
0.0
  0
LINE
  5
550
100
AcDbEntity
  8
0
 62
7
100
AcDbLine
 10
99.157993
 20
82.717996
 30
0.0
 11
99.014994
 21
82.651996
 31
0.0
  0
LINE
  5
551
100
AcDbEntity
  8
0
 62
7
100
AcDbLine
 10
99.014994
 20
82.651996
 30
0.0
 11
98.867993
 21
82.597995
 31
0.0
  0
LINE
  5
552
100
AcDbEntity
  8
0
 62
7
100
AcDbLine
 10
98.867993
 20
82.597995
 30
0.0
 11
98.716996
 21
82.554996
 31
0.0
  0
LINE
  5
553
100
AcDbEntity
  8
0
 62
7
100
AcDbLine
 10
98.716996
 20
82.554996
 30
0.0
 11
98.562995
 21
82.524996
 31
0.0
  0
LINE
  5
554
100
AcDbEntity
  8
0
 62
7
100
AcDbLine
 10
98.562995
 20
82.524996
 30
0.0
 11
98.406994
 21
82.506002
 31
0.0
  0
LINE
  5
555
100
AcDbEntity
  8
0
 62
7
100
AcDbLine
 10
98.406994
 20
82.506002
 30
0.0
 11
98.249994
 21
82.499991
 31
0.0
  0
LINE
  5
556
100
AcDbEntity
  8
0
 62
7
100
AcDbLine
 10
98.249994
 20
82.499991
 30
0.0
 11
98.092994
 21
82.506002
 31
0.0
  0
LINE
  5
557
100
AcDbEntity
  8
0
 62
7
100
AcDbLine
 10
98.092994
 20
82.506002
 30
0.0
 11
97.936995
 21
82.524996
 31
0.0
  0
LINE
  5
558
100
AcDbEntity
  8
0
 62
7
100
AcDbLine
 10
97.936995
 20
82.524996
 30
0.0
 11
97.782995
 21
82.554999
 31
0.0
  0
LINE
  5
559
100
AcDbEntity
  8
0
 62
7
100
AcDbLine
 10
97.782995
 20
82.554999
 30
0.0
 11
97.631995
 21
82.597998
 31
0.0
  0
LINE
  5
55a
100
AcDbEntity
  8
0
 62
7
100
AcDbLine
 10
97.631995
 20
82.597998
 30
0.0
 11
97.484994
 21
82.651999
 31
0.0
  0
LINE
  5
55b
100
AcDbEntity
  8
0
 62
7
100
AcDbLine
 10
97.484994
 20
82.651999
 30
0.0
 11
97.341995
 21
82.717999
 31
0.0
  0
LINE
  5
55c
100
AcDbEntity
  8
0
 62
7
100
AcDbLine
 10
97.341995
 20
82.717999
 30
0.0
 11
97.204993
 21
82.795001
 31
0.0
  0
LINE
  5
55d
100
AcDbEntity
  8
0
 62
7
100
AcDbLine
 10
97.204993
 20
82.795001
 30
0.0
 11
97.073994
 21
82.881998
 31
0.0
  0
LINE
  5
55e
100
AcDbEntity
  8
0
 62
7
100
AcDbLine
 10
97.073994
 20
82.881998
 30
0.0
 11
96.950996
 21
82.978998
 31
0.0
  0
LINE
  5
55f
100
AcDbEntity
  8
0
 62
7
100
AcDbLine
 10
96.950996
 20
82.978998
 30
0.0
 11
96.835993
 21
83.086000
 31
0.0
  0
LINE
  5
560
100
AcDbEntity
  8
0
 62
7
100
AcDbLine
 10
96.835993
 20
83.086000
 30
0.0
 11
96.728994
 21
83.201000
 31
0.0
  0
LINE
  5
561
100
AcDbEntity
  8
0
 62
7
100
AcDbLine
 10
96.728994
 20
83.201000
 30
0.0
 11
96.631994
 21
83.324001
 31
0.0
  0
LINE
  5
562
100
AcDbEntity
  8
0
 62
7
100
AcDbLine
 10
96.631994
 20
83.324001
 30
0.0
 11
96.544994
 21
83.455000
 31
0.0
  0
LINE
  5
563
100
AcDbEntity
  8
0
 62
7
100
AcDbLine
 10
96.544994
 20
83.455000
 30
0.0
 11
96.467995
 21
83.591999
 31
0.0
  0
LINE
  5
564
100
AcDbEntity
  8
0
 62
7
100
AcDbLine
 10
96.467995
 20
83.591999
 30
0.0
 11
96.401994
 21
83.734998
 31
0.0
  0
LINE
  5
565
100
AcDbEntity
  8
0
 62
7
100
AcDbLine
 10
96.401994
 20
83.734998
 30
0.0
 11
96.347994
 21
83.881999
 31
0.0
  0
LINE
  5
566
100
AcDbEntity
  8
0
 62
7
100
AcDbLine
 10
96.347994
 20
83.881999
 30
0.0
 11
96.304995
 21
84.032999
 31
0.0
  0
LINE
  5
567
100
AcDbEntity
  8
0
 62
7
100
AcDbLine
 10
96.304995
 20
84.032999
 30
0.0
 11
96.274994
 21
84.187000
 31
0.0
  0
LINE
  5
568
100
AcDbEntity
  8
0
 62
7
100
AcDbLine
 10
96.274994
 20
84.187000
 30
0.0
 11
96.256001
 21
84.343001
 31
0.0
  0
LINE
  5
569
100
AcDbEntity
  8
0
 62
7
100
AcDbLine
 10
96.256001
 20
84.343001
 30
0.0
 11
96.249990
 21
84.499998
 31
0.0
  0
LINE
  5
56a
100
AcDbEntity
  8
0
 62
7
100
AcDbLine
 10
96.249990
 20
84.499998
 30
0.0
 11
96.256001
 21
84.656998
 31
0.0
  0
LINE
  5
56b
100
AcDbEntity
  8
0
 62
7
100
AcDbLine
 10
96.256001
 20
84.656998
 30
0.0
 11
96.274997
 21
84.813000
 31
0.0
  0
LINE
  5
56c
100
AcDbEntity
  8
0
 62
7
100
AcDbLine
 10
105.474000
 20
7.557996
 30
0.0
 11
105.528999
 21
7.832994
 31
0.0
  0
LINE
  5
56d
100
AcDbEntity
  8
0
 62
7
100
AcDbLine
 10
105.528999
 20
7.832994
 30
0.0
 11
105.604999
 21
8.102996
 31
0.0
  0
LINE
  5
56e
100
AcDbEntity
  8
0
 62
7
100
AcDbLine
 10
105.604999
 20
8.102996
 30
0.0
 11
105.702001
 21
8.365999
 31
0.0
  0
LINE
  5
56f
100
AcDbEntity
  8
0
 62
7
100
AcDbLine
 10
105.702001
 20
8.365999
 30
0.0
 11
105.818999
 21
8.620986
 31
0.0
  0
LINE
  5
570
100
AcDbEntity
  8
0
 62
7
100
AcDbLine
 10
105.818999
 20
8.620986
 30
0.0
 11
105.956001
 21
8.864996
 31
0.0
  0
LINE
  5
571
100
AcDbEntity
  8
0
 62
7
100
AcDbLine
 10
105.956001
 20
8.864996
 30
0.0
 11
106.112000
 21
9.097998
 31
0.0
  0
LINE
  5
572
100
AcDbEntity
  8
0
 62
7
100
AcDbLine
 10
106.112000
 20
9.097998
 30
0.0
 11
106.284999
 21
9.319007
 31
0.0
  0
LINE
  5
573
100
AcDbEntity
  8
0
 62
7
100
AcDbLine
 10
106.284999
 20
9.319007
 30
0.0
 11
106.476001
 21
9.524013
 31
0.0
  0
LINE
  5
574
100
AcDbEntity
  8
0
 62
7
100
AcDbLine
 10
106.476001
 20
9.524013
 30
0.0
 11
106.680999
 21
9.714993
 31
0.0
  0
LINE
  5
575
100
AcDbEntity
  8
0
 62
7
100
AcDbLine
 10
106.680999
 20
9.714993
 30
0.0
 11
106.901999
 21
9.887995
 31
0.0
  0
LINE
  5
576
100
AcDbEntity
  8
0
 62
7
100
AcDbLine
 10
106.901999
 20
9.887995
 30
0.0
 11
107.135001
 21
10.044007
 31
0.0
  0
LINE
  5
577
100
AcDbEntity
  8
0
 62
7
100
AcDbLine
 10
107.135001
 20
10.044007
 30
0.0
 11
107.379000
 21
10.180998
 31
0.0
  0
LINE
  5
578
100
AcDbEntity
  8
0
 62
7
100
AcDbLine
 10
107.379000
 20
10.180998
 30
0.0
 11
107.633999
 21
10.298007
 31
0.0
  0
LINE
  5
579
100
AcDbEntity
  8
0
 62
7
100
AcDbLine
 10
107.633999
 20
10.298007
 30
0.0
 11
107.896999
 21
10.395007
 31
0.0
  0
LINE
  5
57a
100
AcDbEntity
  8
0
 62
7
100
AcDbLine
 10
107.896999
 20
10.395007
 30
0.0
 11
108.167001
 21
10.471010
 31
0.0
  0
LINE
  5
57b
100
AcDbEntity
  8
0
 62
7
100
AcDbLine
 10
108.167001
 20
10.471010
 30
0.0
 11
108.442001
 21
10.525986
 31
0.0
  0
LINE
  5
57c
100
AcDbEntity
  8
0
 62
7
100
AcDbLine
 10
108.442001
 20
10.525986
 30
0.0
 11
108.720001
 21
10.559006
 31
0.0
  0
LINE
  5
57d
100
AcDbEntity
  8
0
 62
7
100
AcDbLine
 10
108.720001
 20
10.559006
 30
0.0
 11
108.999999
 21
10.570013
 31
0.0
  0
LINE
  5
57e
100
AcDbEntity
  8
0
 62
7
100
AcDbLine
 10
108.999999
 20
10.570013
 30
0.0
 11
109.280000
 21
10.559006
 31
0.0
  0
LINE
  5
57f
100
AcDbEntity
  8
0
 62
7
100
AcDbLine
 10
109.280000
 20
10.559006
 30
0.0
 11
109.558001
 21
10.525986
 31
0.0
  0
LINE
  5
580
100
AcDbEntity
  8
0
 62
7
100
AcDbLine
 10
109.558001
 20
10.525986
 30
0.0
 11
109.833001
 21
10.471010
 31
0.0
  0
LINE
  5
581
100
AcDbEntity
  8
0
 62
7
100
AcDbLine
 10
109.833001
 20
10.471010
 30
0.0
 11
110.103000
 21
10.395007
 31
0.0
  0
LINE
  5
582
100
AcDbEntity
  8
0
 62
7
100
AcDbLine
 10
110.103000
 20
10.395007
 30
0.0
 11
110.366000
 21
10.298007
 31
0.0
  0
LINE
  5
583
100
AcDbEntity
  8
0
 62
7
100
AcDbLine
 10
110.366000
 20
10.298007
 30
0.0
 11
110.620999
 21
10.180998
 31
0.0
  0
LINE
  5
584
100
AcDbEntity
  8
0
 62
7
100
AcDbLine
 10
110.620999
 20
10.180998
 30
0.0
 11
110.865000
 21
10.044007
 31
0.0
  0
LINE
  5
585
100
AcDbEntity
  8
0
 62
7
100
AcDbLine
 10
110.865000
 20
10.044007
 30
0.0
 11
111.098000
 21
9.887995
 31
0.0
  0
LINE
  5
586
100
AcDbEntity
  8
0
 62
7
100
AcDbLine
 10
111.098000
 20
9.887995
 30
0.0
 11
111.319000
 21
9.714993
 31
0.0
  0
LINE
  5
587
100
AcDbEntity
  8
0
 62
7
100
AcDbLine
 10
111.319000
 20
9.714993
 30
0.0
 11
111.524000
 21
9.524013
 31
0.0
  0
LINE
  5
588
100
AcDbEntity
  8
0
 62
7
100
AcDbLine
 10
111.524000
 20
9.524013
 30
0.0
 11
111.715000
 21
9.319007
 31
0.0
  0
LINE
  5
589
100
AcDbEntity
  8
0
 62
7
100
AcDbLine
 10
111.715000
 20
9.319007
 30
0.0
 11
111.887999
 21
9.097998
 31
0.0
  0
LINE
  5
58a
100
AcDbEntity
  8
0
 62
7
100
AcDbLine
 10
111.887999
 20
9.097998
 30
0.0
 11
112.044000
 21
8.864996
 31
0.0
  0
LINE
  5
58b
100
AcDbEntity
  8
0
 62
7
100
AcDbLine
 10
112.044000
 20
8.864996
 30
0.0
 11
112.180999
 21
8.620986
 31
0.0
  0
LINE
  5
58c
100
AcDbEntity
  8
0
 62
7
100
AcDbLine
 10
112.180999
 20
8.620986
 30
0.0
 11
112.298000
 21
8.365999
 31
0.0
  0
LINE
  5
58d
100
AcDbEntity
  8
0
 62
7
100
AcDbLine
 10
112.298000
 20
8.365999
 30
0.0
 11
112.395000
 21
8.102996
 31
0.0
  0
LINE
  5
58e
100
AcDbEntity
  8
0
 62
7
100
AcDbLine
 10
112.395000
 20
8.102996
 30
0.0
 11
112.471000
 21
7.832994
 31
0.0
  0
LINE
  5
58f
100
AcDbEntity
  8
0
 62
7
100
AcDbLine
 10
112.471000
 20
7.832994
 30
0.0
 11
112.525999
 21
7.557996
 31
0.0
  0
LINE
  5
590
100
AcDbEntity
  8
0
 62
7
100
AcDbLine
 10
112.525999
 20
7.557996
 30
0.0
 11
112.558999
 21
7.280008
 31
0.0
  0
LINE
  5
591
100
AcDbEntity
  8
0
 62
7
100
AcDbLine
 10
112.558999
 20
7.280008
 30
0.0
 11
112.570006
 21
6.999987
 31
0.0
  0
LINE
  5
592
100
AcDbEntity
  8
0
 62
7
100
AcDbLine
 10
112.570006
 20
6.999987
 30
0.0
 11
112.558999
 21
6.719994
 31
0.0
  0
LINE
  5
593
100
AcDbEntity
  8
0
 62
7
100
AcDbLine
 10
112.558999
 20
6.719994
 30
0.0
 11
112.526002
 21
6.442005
 31
0.0
  0
LINE
  5
594
100
AcDbEntity
  8
0
 62
7
100
AcDbLine
 10
112.526002
 20
6.442005
 30
0.0
 11
112.471002
 21
6.167008
 31
0.0
  0
LINE
  5
595
100
AcDbEntity
  8
0
 62
7
100
AcDbLine
 10
112.471002
 20
6.167008
 30
0.0
 11
112.395003
 21
5.897006
 31
0.0
  0
LINE
  5
596
100
AcDbEntity
  8
0
 62
7
100
AcDbLine
 10
112.395003
 20
5.897006
 30
0.0
 11
112.298003
 21
5.634003
 31
0.0
  0
LINE
  5
597
100
AcDbEntity
  8
0
 62
7
100
AcDbLine
 10
112.298003
 20
5.634003
 30
0.0
 11
112.181002
 21
5.378987
 31
0.0
  0
LINE
  5
598
100
AcDbEntity
  8
0
 62
7
100
AcDbLine
 10
112.181002
 20
5.378987
 30
0.0
 11
112.044003
 21
5.135006
 31
0.0
  0
LINE
  5
599
100
AcDbEntity
  8
0
 62
7
100
AcDbLine
 10
112.044003
 20
5.135006
 30
0.0
 11
111.888002
 21
4.902003
 31
0.0
  0
LINE
  5
59a
100
AcDbEntity
  8
0
 62
7
100
AcDbLine
 10
111.888002
 20
4.902003
 30
0.0
 11
111.715002
 21
4.680995
 31
0.0
  0
LINE
  5
59b
100
AcDbEntity
  8
0
 62
7
100
AcDbLine
 10
111.715002
 20
4.680995
 30
0.0
 11
111.524003
 21
4.475989
 31
0.0
  0
LINE
  5
59c
100
AcDbEntity
  8
0
 62
7
100
AcDbLine
 10
111.524003
 20
4.475989
 30
0.0
 11
111.319002
 21
4.285009
 31
0.0
  0
LINE
  5
59d
100
AcDbEntity
  8
0
 62
7
100
AcDbLine
 10
111.319002
 20
4.285009
 30
0.0
 11
111.098003
 21
4.112007
 31
0.0
  0
LINE
  5
59e
100
AcDbEntity
  8
0
 62
7
100
AcDbLine
 10
111.098003
 20
4.112007
 30
0.0
 11
110.865003
 21
3.955994
 31
0.0
  0
LINE
  5
59f
100
AcDbEntity
  8
0
 62
7
100
AcDbLine
 10
110.865003
 20
3.955994
 30
0.0
 11
110.621002
 21
3.819004
 31
0.0
  0
LINE
  5
5a0
100
AcDbEntity
  8
0
 62
7
100
AcDbLine
 10
110.621002
 20
3.819004
 30
0.0
 11
110.366003
 21
3.701994
 31
0.0
  0
LINE
  5
5a1
100
AcDbEntity
  8
0
 62
7
100
AcDbLine
 10
110.366003
 20
3.701994
 30
0.0
 11
110.103003
 21
3.604994
 31
0.0
  0
LINE
  5
5a2
100
AcDbEntity
  8
0
 62
7
100
AcDbLine
 10
110.103003
 20
3.604994
 30
0.0
 11
109.833004
 21
3.528992
 31
0.0
  0
LINE
  5
5a3
100
AcDbEntity
  8
0
 62
7
100
AcDbLine
 10
109.833004
 20
3.528992
 30
0.0
 11
109.558003
 21
3.473987
 31
0.0
  0
LINE
  5
5a4
100
AcDbEntity
  8
0
 62
7
100
AcDbLine
 10
109.558003
 20
3.473987
 30
0.0
 11
109.280003
 21
3.440995
 31
0.0
  0
LINE
  5
5a5
100
AcDbEntity
  8
0
 62
7
100
AcDbLine
 10
109.280003
 20
3.440995
 30
0.0
 11
109.000002
 21
3.429988
 31
0.0
  0
LINE
  5
5a6
100
AcDbEntity
  8
0
 62
7
100
AcDbLine
 10
109.000002
 20
3.429988
 30
0.0
 11
108.720004
 21
3.440995
 31
0.0
  0
LINE
  5
5a7
100
AcDbEntity
  8
0
 62
7
100
AcDbLine
 10
108.720004
 20
3.440995
 30
0.0
 11
108.442004
 21
3.473987
 31
0.0
  0
LINE
  5
5a8
100
AcDbEntity
  8
0
 62
7
100
AcDbLine
 10
108.442004
 20
3.473987
 30
0.0
 11
108.167003
 21
3.528992
 31
0.0
  0
LINE
  5
5a9
100
AcDbEntity
  8
0
 62
7
100
AcDbLine
 10
108.167003
 20
3.528992
 30
0.0
 11
107.897001
 21
3.604994
 31
0.0
  0
LINE
  5
5aa
100
AcDbEntity
  8
0
 62
7
100
AcDbLine
 10
107.897001
 20
3.604994
 30
0.0
 11
107.634001
 21
3.701994
 31
0.0
  0
LINE
  5
5ab
100
AcDbEntity
  8
0
 62
7
100
AcDbLine
 10
107.634001
 20
3.701994
 30
0.0
 11
107.379002
 21
3.819004
 31
0.0
  0
LINE
  5
5ac
100
AcDbEntity
  8
0
 62
7
100
AcDbLine
 10
107.379002
 20
3.819004
 30
0.0
 11
107.135004
 21
3.955994
 31
0.0
  0
LINE
  5
5ad
100
AcDbEntity
  8
0
 62
7
100
AcDbLine
 10
107.135004
 20
3.955994
 30
0.0
 11
106.902002
 21
4.112007
 31
0.0
  0
LINE
  5
5ae
100
AcDbEntity
  8
0
 62
7
100
AcDbLine
 10
106.902002
 20
4.112007
 30
0.0
 11
106.681002
 21
4.285009
 31
0.0
  0
LINE
  5
5af
100
AcDbEntity
  8
0
 62
7
100
AcDbLine
 10
106.681002
 20
4.285009
 30
0.0
 11
106.476004
 21
4.475989
 31
0.0
  0
LINE
  5
5b0
100
AcDbEntity
  8
0
 62
7
100
AcDbLine
 10
106.476004
 20
4.475989
 30
0.0
 11
106.285002
 21
4.680995
 31
0.0
  0
LINE
  5
5b1
100
AcDbEntity
  8
0
 62
7
100
AcDbLine
 10
106.285002
 20
4.680995
 30
0.0
 11
106.112002
 21
4.902003
 31
0.0
  0
LINE
  5
5b2
100
AcDbEntity
  8
0
 62
7
100
AcDbLine
 10
106.112002
 20
4.902003
 30
0.0
 11
105.956004
 21
5.135006
 31
0.0
  0
LINE
  5
5b3
100
AcDbEntity
  8
0
 62
7
100
AcDbLine
 10
105.956004
 20
5.135006
 30
0.0
 11
105.819002
 21
5.378987
 31
0.0
  0
LINE
  5
5b4
100
AcDbEntity
  8
0
 62
7
100
AcDbLine
 10
105.819002
 20
5.378987
 30
0.0
 11
105.702004
 21
5.634003
 31
0.0
  0
LINE
  5
5b5
100
AcDbEntity
  8
0
 62
7
100
AcDbLine
 10
105.702004
 20
5.634003
 30
0.0
 11
105.605001
 21
5.897006
 31
0.0
  0
LINE
  5
5b6
100
AcDbEntity
  8
0
 62
7
100
AcDbLine
 10
105.605001
 20
5.897006
 30
0.0
 11
105.529002
 21
6.167008
 31
0.0
  0
LINE
  5
5b7
100
AcDbEntity
  8
0
 62
7
100
AcDbLine
 10
105.529002
 20
6.167008
 30
0.0
 11
105.474002
 21
6.442005
 31
0.0
  0
LINE
  5
5b8
100
AcDbEntity
  8
0
 62
7
100
AcDbLine
 10
105.474002
 20
6.442005
 30
0.0
 11
105.441002
 21
6.719994
 31
0.0
  0
LINE
  5
5b9
100
AcDbEntity
  8
0
 62
7
100
AcDbLine
 10
105.441002
 20
6.719994
 30
0.0
 11
105.429995
 21
6.999987
 31
0.0
  0
LINE
  5
5ba
100
AcDbEntity
  8
0
 62
7
100
AcDbLine
 10
105.429995
 20
6.999987
 30
0.0
 11
105.441002
 21
7.280008
 31
0.0
  0
LINE
  5
5bb
100
AcDbEntity
  8
0
 62
7
100
AcDbLine
 10
105.441002
 20
7.280008
 30
0.0
 11
105.474000
 21
7.557996
 31
0.0
  0
LINE
  5
5bc
100
AcDbEntity
  8
0
 62
7
100
AcDbLine
 10
108.803999
 20
64.507994
 30
0.0
 11
108.609000
 21
64.530995
 31
0.0
  0
LINE
  5
5bd
100
AcDbEntity
  8
0
 62
7
100
AcDbLine
 10
108.609000
 20
64.530995
 30
0.0
 11
108.416000
 21
64.568996
 31
0.0
  0
LINE
  5
5be
100
AcDbEntity
  8
0
 62
7
100
AcDbLine
 10
108.416000
 20
64.568996
 30
0.0
 11
108.227001
 21
64.621998
 31
0.0
  0
LINE
  5
5bf
100
AcDbEntity
  8
0
 62
7
100
AcDbLine
 10
108.227001
 20
64.621998
 30
0.0
 11
108.043001
 21
64.689996
 31
0.0
  0
LINE
  5
5c0
100
AcDbEntity
  8
0
 62
7
100
AcDbLine
 10
108.043001
 20
64.689996
 30
0.0
 11
107.865000
 21
64.771996
 31
0.0
  0
LINE
  5
5c1
100
AcDbEntity
  8
0
 62
7
100
AcDbLine
 10
107.865000
 20
64.771996
 30
0.0
 11
107.693999
 21
64.867997
 31
0.0
  0
LINE
  5
5c2
100
AcDbEntity
  8
0
 62
7
100
AcDbLine
 10
107.693999
 20
64.867997
 30
0.0
 11
107.530999
 21
64.976997
 31
0.0
  0
LINE
  5
5c3
100
AcDbEntity
  8
0
 62
7
100
AcDbLine
 10
107.530999
 20
64.976997
 30
0.0
 11
107.376000
 21
65.098996
 31
0.0
  0
LINE
  5
5c4
100
AcDbEntity
  8
0
 62
7
100
AcDbLine
 10
107.376000
 20
65.098996
 30
0.0
 11
107.232001
 21
65.231996
 31
0.0
  0
LINE
  5
5c5
100
AcDbEntity
  8
0
 62
7
100
AcDbLine
 10
107.232001
 20
65.231996
 30
0.0
 11
107.099001
 21
65.375997
 31
0.0
  0
LINE
  5
5c6
100
AcDbEntity
  8
0
 62
7
100
AcDbLine
 10
107.099001
 20
65.375997
 30
0.0
 11
106.976999
 21
65.530996
 31
0.0
  0
LINE
  5
5c7
100
AcDbEntity
  8
0
 62
7
100
AcDbLine
 10
106.976999
 20
65.530996
 30
0.0
 11
106.868000
 21
65.693996
 31
0.0
  0
LINE
  5
5c8
100
AcDbEntity
  8
0
 62
7
100
AcDbLine
 10
106.868000
 20
65.693996
 30
0.0
 11
106.771999
 21
65.864998
 31
0.0
  0
LINE
  5
5c9
100
AcDbEntity
  8
0
 62
7
100
AcDbLine
 10
106.771999
 20
65.864998
 30
0.0
 11
106.689999
 21
66.042995
 31
0.0
  0
LINE
  5
5ca
100
AcDbEntity
  8
0
 62
7
100
AcDbLine
 10
106.689999
 20
66.042995
 30
0.0
 11
106.622001
 21
66.226996
 31
0.0
  0
LINE
  5
5cb
100
AcDbEntity
  8
0
 62
7
100
AcDbLine
 10
106.622001
 20
66.226996
 30
0.0
 11
106.568999
 21
66.415997
 31
0.0
  0
LINE
  5
5cc
100
AcDbEntity
  8
0
 62
7
100
AcDbLine
 10
106.568999
 20
66.415997
 30
0.0
 11
106.531001
 21
66.608997
 31
0.0
  0
LINE
  5
5cd
100
AcDbEntity
  8
0
 62
7
100
AcDbLine
 10
106.531001
 20
66.608997
 30
0.0
 11
106.508000
 21
66.803996
 31
0.0
  0
LINE
  5
5ce
100
AcDbEntity
  8
0
 62
7
100
AcDbLine
 10
106.508000
 20
66.803996
 30
0.0
 11
106.500013
 21
66.999997
 31
0.0
  0
LINE
  5
5cf
100
AcDbEntity
  8
0
 62
7
100
AcDbLine
 10
106.500013
 20
66.999997
 30
0.0
 11
106.508000
 21
67.195997
 31
0.0
  0
LINE
  5
5d0
100
AcDbEntity
  8
0
 62
7
100
AcDbLine
 10
106.508000
 20
67.195997
 30
0.0
 11
106.531001
 21
67.390996
 31
0.0
  0
LINE
  5
5d1
100
AcDbEntity
  8
0
 62
7
100
AcDbLine
 10
106.531001
 20
67.390996
 30
0.0
 11
106.568999
 21
67.583996
 31
0.0
  0
LINE
  5
5d2
100
AcDbEntity
  8
0
 62
7
100
AcDbLine
 10
106.568999
 20
67.583996
 30
0.0
 11
106.622001
 21
67.772998
 31
0.0
  0
LINE
  5
5d3
100
AcDbEntity
  8
0
 62
7
100
AcDbLine
 10
106.622001
 20
67.772998
 30
0.0
 11
106.689999
 21
67.956995
 31
0.0
  0
LINE
  5
5d4
100
AcDbEntity
  8
0
 62
7
100
AcDbLine
 10
106.689999
 20
67.956995
 30
0.0
 11
106.771999
 21
68.134996
 31
0.0
  0
LINE
  5
5d5
100
AcDbEntity
  8
0
 62
7
100
AcDbLine
 10
106.771999
 20
68.134996
 30
0.0
 11
106.868000
 21
68.305997
 31
0.0
  0
LINE
  5
5d6
100
AcDbEntity
  8
0
 62
7
100
AcDbLine
 10
106.868000
 20
68.305997
 30
0.0
 11
106.976999
 21
68.468997
 31
0.0
  0
LINE
  5
5d7
100
AcDbEntity
  8
0
 62
7
100
AcDbLine
 10
106.976999
 20
68.468997
 30
0.0
 11
107.099001
 21
68.623996
 31
0.0
  0
LINE
  5
5d8
100
AcDbEntity
  8
0
 62
7
100
AcDbLine
 10
107.099001
 20
68.623996
 30
0.0
 11
107.232001
 21
68.767997
 31
0.0
  0
LINE
  5
5d9
100
AcDbEntity
  8
0
 62
7
100
AcDbLine
 10
107.232001
 20
68.767997
 30
0.0
 11
107.376000
 21
68.900997
 31
0.0
  0
LINE
  5
5da
100
AcDbEntity
  8
0
 62
7
100
AcDbLine
 10
107.376000
 20
68.900997
 30
0.0
 11
107.530999
 21
69.022996
 31
0.0
  0
LINE
  5
5db
100
AcDbEntity
  8
0
 62
7
100
AcDbLine
 10
107.530999
 20
69.022996
 30
0.0
 11
107.693999
 21
69.131996
 31
0.0
  0
LINE
  5
5dc
100
AcDbEntity
  8
0
 62
7
100
AcDbLine
 10
107.693999
 20
69.131996
 30
0.0
 11
107.865000
 21
69.227997
 31
0.0
  0
LINE
  5
5dd
100
AcDbEntity
  8
0
 62
7
100
AcDbLine
 10
107.865000
 20
69.227997
 30
0.0
 11
108.043001
 21
69.309997
 31
0.0
  0
LINE
  5
5de
100
AcDbEntity
  8
0
 62
7
100
AcDbLine
 10
108.043001
 20
69.309997
 30
0.0
 11
108.227001
 21
69.377995
 31
0.0
  0
LINE
  5
5df
100
AcDbEntity
  8
0
 62
7
100
AcDbLine
 10
108.227001
 20
69.377995
 30
0.0
 11
108.416000
 21
69.430997
 31
0.0
  0
LINE
  5
5e0
100
AcDbEntity
  8
0
 62
7
100
AcDbLine
 10
108.416000
 20
69.430997
 30
0.0
 11
108.609000
 21
69.468995
 31
0.0
  0
LINE
  5
5e1
100
AcDbEntity
  8
0
 62
7
100
AcDbLine
 10
108.609000
 20
69.468995
 30
0.0
 11
108.803999
 21
69.491996
 31
0.0
  0
LINE
  5
5e2
100
AcDbEntity
  8
0
 62
7
100
AcDbLine
 10
108.803999
 20
69.491996
 30
0.0
 11
108.999999
 21
69.500011
 31
0.0
  0
LINE
  5
5e3
100
AcDbEntity
  8
0
 62
7
100
AcDbLine
 10
108.999999
 20
69.500011
 30
0.0
 11
109.196000
 21
69.491996
 31
0.0
  0
LINE
  5
5e4
100
AcDbEntity
  8
0
 62
7
100
AcDbLine
 10
109.196000
 20
69.491996
 30
0.0
 11
109.391001
 21
69.468995
 31
0.0
  0
LINE
  5
5e5
100
AcDbEntity
  8
0
 62
7
100
AcDbLine
 10
109.391001
 20
69.468995
 30
0.0
 11
109.583999
 21
69.430997
 31
0.0
  0
LINE
  5
5e6
100
AcDbEntity
  8
0
 62
7
100
AcDbLine
 10
109.583999
 20
69.430997
 30
0.0
 11
109.773000
 21
69.377995
 31
0.0
  0
LINE
  5
5e7
100
AcDbEntity
  8
0
 62
7
100
AcDbLine
 10
109.773000
 20
69.377995
 30
0.0
 11
109.957001
 21
69.309997
 31
0.0
  0
LINE
  5
5e8
100
AcDbEntity
  8
0
 62
7
100
AcDbLine
 10
109.957001
 20
69.309997
 30
0.0
 11
110.135001
 21
69.227997
 31
0.0
  0
LINE
  5
5e9
100
AcDbEntity
  8
0
 62
7
100
AcDbLine
 10
110.135001
 20
69.227997
 30
0.0
 11
110.306000
 21
69.131996
 31
0.0
  0
LINE
  5
5ea
100
AcDbEntity
  8
0
 62
7
100
AcDbLine
 10
110.306000
 20
69.131996
 30
0.0
 11
110.469000
 21
69.022996
 31
0.0
  0
LINE
  5
5eb
100
AcDbEntity
  8
0
 62
7
100
AcDbLine
 10
110.469000
 20
69.022996
 30
0.0
 11
110.623999
 21
68.900997
 31
0.0
  0
LINE
  5
5ec
100
AcDbEntity
  8
0
 62
7
100
AcDbLine
 10
110.623999
 20
68.900997
 30
0.0
 11
110.768000
 21
68.767997
 31
0.0
  0
LINE
  5
5ed
100
AcDbEntity
  8
0
 62
7
100
AcDbLine
 10
110.768000
 20
68.767997
 30
0.0
 11
110.901000
 21
68.623996
 31
0.0
  0
LINE
  5
5ee
100
AcDbEntity
  8
0
 62
7
100
AcDbLine
 10
110.901000
 20
68.623996
 30
0.0
 11
111.022999
 21
68.468997
 31
0.0
  0
LINE
  5
5ef
100
AcDbEntity
  8
0
 62
7
100
AcDbLine
 10
111.022999
 20
68.468997
 30
0.0
 11
111.131999
 21
68.305997
 31
0.0
  0
LINE
  5
5f0
100
AcDbEntity
  8
0
 62
7
100
AcDbLine
 10
111.131999
 20
68.305997
 30
0.0
 11
111.228000
 21
68.134996
 31
0.0
  0
LINE
  5
5f1
100
AcDbEntity
  8
0
 62
7
100
AcDbLine
 10
111.228000
 20
68.134996
 30
0.0
 11
111.309999
 21
67.956995
 31
0.0
  0
LINE
  5
5f2
100
AcDbEntity
  8
0
 62
7
100
AcDbLine
 10
111.309999
 20
67.956995
 30
0.0
 11
111.378001
 21
67.772998
 31
0.0
  0
LINE
  5
5f3
100
AcDbEntity
  8
0
 62
7
100
AcDbLine
 10
111.378001
 20
67.772998
 30
0.0
 11
111.430999
 21
67.583996
 31
0.0
  0
LINE
  5
5f4
100
AcDbEntity
  8
0
 62
7
100
AcDbLine
 10
111.430999
 20
67.583996
 30
0.0
 11
111.469001
 21
67.390996
 31
0.0
  0
LINE
  5
5f5
100
AcDbEntity
  8
0
 62
7
100
AcDbLine
 10
111.469001
 20
67.390996
 30
0.0
 11
111.492002
 21
67.195997
 31
0.0
  0
LINE
  5
5f6
100
AcDbEntity
  8
0
 62
7
100
AcDbLine
 10
111.492002
 20
67.195997
 30
0.0
 11
111.499989
 21
66.999997
 31
0.0
  0
LINE
  5
5f7
100
AcDbEntity
  8
0
 62
7
100
AcDbLine
 10
111.499989
 20
66.999997
 30
0.0
 11
111.492002
 21
66.803996
 31
0.0
  0
LINE
  5
5f8
100
AcDbEntity
  8
0
 62
7
100
AcDbLine
 10
111.492002
 20
66.803996
 30
0.0
 11
111.469001
 21
66.608997
 31
0.0
  0
LINE
  5
5f9
100
AcDbEntity
  8
0
 62
7
100
AcDbLine
 10
111.469001
 20
66.608997
 30
0.0
 11
111.431002
 21
66.415997
 31
0.0
  0
LINE
  5
5fa
100
AcDbEntity
  8
0
 62
7
100
AcDbLine
 10
111.431002
 20
66.415997
 30
0.0
 11
111.378004
 21
66.226996
 31
0.0
  0
LINE
  5
5fb
100
AcDbEntity
  8
0
 62
7
100
AcDbLine
 10
111.378004
 20
66.226996
 30
0.0
 11
111.310002
 21
66.042995
 31
0.0
  0
LINE
  5
5fc
100
AcDbEntity
  8
0
 62
7
100
AcDbLine
 10
111.310002
 20
66.042995
 30
0.0
 11
111.228003
 21
65.864998
 31
0.0
  0
LINE
  5
5fd
100
AcDbEntity
  8
0
 62
7
100
AcDbLine
 10
111.228003
 20
65.864998
 30
0.0
 11
111.132002
 21
65.693996
 31
0.0
  0
LINE
  5
5fe
100
AcDbEntity
  8
0
 62
7
100
AcDbLine
 10
111.132002
 20
65.693996
 30
0.0
 11
111.023002
 21
65.530996
 31
0.0
  0
LINE
  5
5ff
100
AcDbEntity
  8
0
 62
7
100
AcDbLine
 10
111.023002
 20
65.530996
 30
0.0
 11
110.901003
 21
65.375997
 31
0.0
  0
LINE
  5
600
100
AcDbEntity
  8
0
 62
7
100
AcDbLine
 10
110.901003
 20
65.375997
 30
0.0
 11
110.768003
 21
65.231996
 31
0.0
  0
LINE
  5
601
100
AcDbEntity
  8
0
 62
7
100
AcDbLine
 10
110.768003
 20
65.231996
 30
0.0
 11
110.624002
 21
65.098996
 31
0.0
  0
LINE
  5
602
100
AcDbEntity
  8
0
 62
7
100
AcDbLine
 10
110.624002
 20
65.098996
 30
0.0
 11
110.469003
 21
64.976997
 31
0.0
  0
LINE
  5
603
100
AcDbEntity
  8
0
 62
7
100
AcDbLine
 10
110.469003
 20
64.976997
 30
0.0
 11
110.306002
 21
64.867997
 31
0.0
  0
LINE
  5
604
100
AcDbEntity
  8
0
 62
7
100
AcDbLine
 10
110.306002
 20
64.867997
 30
0.0
 11
110.135004
 21
64.771996
 31
0.0
  0
LINE
  5
605
100
AcDbEntity
  8
0
 62
7
100
AcDbLine
 10
110.135004
 20
64.771996
 30
0.0
 11
109.957004
 21
64.689996
 31
0.0
  0
LINE
  5
606
100
AcDbEntity
  8
0
 62
7
100
AcDbLine
 10
109.957004
 20
64.689996
 30
0.0
 11
109.773003
 21
64.621998
 31
0.0
  0
LINE
  5
607
100
AcDbEntity
  8
0
 62
7
100
AcDbLine
 10
109.773003
 20
64.621998
 30
0.0
 11
109.584002
 21
64.568996
 31
0.0
  0
LINE
  5
608
100
AcDbEntity
  8
0
 62
7
100
AcDbLine
 10
109.584002
 20
64.568996
 30
0.0
 11
109.391004
 21
64.530995
 31
0.0
  0
LINE
  5
609
100
AcDbEntity
  8
0
 62
7
100
AcDbLine
 10
109.391004
 20
64.530995
 30
0.0
 11
109.196003
 21
64.507994
 31
0.0
  0
LINE
  5
60a
100
AcDbEntity
  8
0
 62
7
100
AcDbLine
 10
109.196003
 20
64.507994
 30
0.0
 11
109.000002
 21
64.500007
 31
0.0
  0
LINE
  5
60b
100
AcDbEntity
  8
0
 62
7
100
AcDbLine
 10
109.000002
 20
64.500007
 30
0.0
 11
108.803999
 21
64.507994
 31
0.0
  0
LINE
  5
60c
100
AcDbEntity
  8
0
 62
7
100
AcDbLine
 10
23.100000
 20
78.000000
 30
0.0
 11
42.900000
 21
78.000000
 31
0.0
  0
LINE
  5
60d
100
AcDbEntity
  8
0
 62
7
100
AcDbLine
 10
42.900000
 20
78.000000
 30
0.0
 11
42.900000
 21
-2.000001
 31
0.0
  0
LINE
  5
60e
100
AcDbEntity
  8
0
 62
7
100
AcDbLine
 10
42.900000
 20
-2.000001
 30
0.0
 11
23.100000
 21
-2.000001
 31
0.0
  0
LINE
  5
60f
100
AcDbEntity
  8
0
 62
7
100
AcDbLine
 10
23.100000
 20
-2.000001
 30
0.0
 11
23.100000
 21
78.000000
 31
0.0
  0
ENDSEC
  0
SECTION
  2
OBJECTS
  0
DICTIONARY
  5
C
330
0
100
AcDbDictionary
  3
ACAD_GROUP
350
D
  3
ACAD_MLINESTYLE
350
17
  0
DICTIONARY
  5
D
330
C
100
AcDbDictionary
  0
DICTIONARY
  5
1A
330
C
100
AcDbDictionary
  0
DICTIONARY
  5
17
330
C
100
AcDbDictionary
  3
STANDARD
350
18
  0
DICTIONARY
  5
19
330
C
100
AcDbDictionary
  0
ENDSEC
  0
EOF
