<?xml version="1.0" encoding="UTF-8" standalone="no"?>
<svg
   xmlns:dc="http://purl.org/dc/elements/1.1/"
   xmlns:cc="http://creativecommons.org/ns#"
   xmlns:rdf="http://www.w3.org/1999/02/22-rdf-syntax-ns#"
   xmlns:svg="http://www.w3.org/2000/svg"
   xmlns="http://www.w3.org/2000/svg"
   xmlns:sodipodi="http://sodipodi.sourceforge.net/DTD/sodipodi-0.dtd"
   xmlns:inkscape="http://www.inkscape.org/namespaces/inkscape"
   width="744.09448"
   height="1052.3622"
   id="svg2"
   version="1.1"
   inkscape:version="0.48.5 r10040"
   sodipodi:docname="20150915_HDPE_backplate.dxf">
  <metadata
     id="metadata998">
    <rdf:RDF>
      <cc:Work
         rdf:about="">
        <dc:format>image/svg+xml</dc:format>
        <dc:type
           rdf:resource="http://purl.org/dc/dcmitype/StillImage" />
        <dc:title></dc:title>
      </cc:Work>
    </rdf:RDF>
  </metadata>
  <sodipodi:namedview
     pagecolor="#ffffff"
     bordercolor="#666666"
     borderopacity="1"
     objecttolerance="10"
     gridtolerance="10"
     guidetolerance="10"
     inkscape:pageopacity="0"
     inkscape:pageshadow="2"
     inkscape:window-width="1920"
     inkscape:window-height="1018"
     id="namedview996"
     showgrid="true"
     inkscape:document-units="mm"
     units="mm"
     inkscape:zoom="0.31714785"
     inkscape:cx="819.23934"
     inkscape:cy="309.31103"
     inkscape:window-x="-8"
     inkscape:window-y="-8"
     inkscape:window-maximized="1"
     inkscape:current-layer="g18">
    <inkscape:grid
       type="xygrid"
       id="grid3975"
       empspacing="5"
       visible="true"
       enabled="true"
       snapvisiblegridlinesonly="true"
       units="mm"
       spacingx="1mm"
       spacingy="1mm" />
  </sodipodi:namedview>
  <desc
     id="desc4">C:\Users\Frank2014\Desktop\PROJECTS\20150706_OpenSampler_v5\20150602_backplate.dxf - scale = 1.000000</desc>
  <defs
     id="defs6">
    <marker
       refY="0"
       refX="0"
       style="overflow:visible"
       id="DistanceX"
       orient="auto">
      <path
         style="stroke:#000000;stroke-width:0.5"
         d="M 3,-3 -3,3 M 0,-5 0,5"
         id="path9"
         inkscape:connector-curvature="0" />
    </marker>
    <pattern
       height="8"
       width="8"
       patternUnits="userSpaceOnUse"
       y="0"
       x="0"
       id="Hatch">
      <path
         linecap="square"
         stroke="#000000"
         stroke-width="0.25"
         d="M8 4 l-4,4"
         id="path12" />
      <path
         linecap="square"
         stroke="#000000"
         stroke-width="0.25"
         d="M6 2 l-4,4"
         id="path14" />
      <path
         linecap="square"
         stroke="#000000"
         stroke-width="0.25"
         d="M4 0 l-4,4"
         id="path16" />
    </pattern>
  </defs>
  <g
     inkscape:label="0"
     inkscape:groupmode="layer"
     id="g18"
     transform="translate(0,-2.5390623e-6)">
    <path
       style="fill:#000000;stroke:none;fill-opacity:0.3548387"
       d="m 0,272.83465 0,779.52755 1559.0551,0 0,-779.52755 z"
       id="path24"
       inkscape:connector-curvature="0"
       sodipodi:nodetypes="ccccc" />
    <path
       style="fill:#000000;stroke:none;fill-opacity:0.3548387"
       d="m 44.357244,980.08264 0.11126,1.41342 -0.11126,1.41343 -0.330945,1.3787 -0.54248,1.30996 -0.740906,1.20898 -0.920905,1.07787 -1.077874,0.92091 -1.208977,0.7409 -1.30996,0.54248 -1.378701,0.33095 -1.413425,0.11126 -1.413461,-0.11126 -1.37863,-0.33095 -1.309925,-0.54248 -1.20887,-0.7409 -1.078122,-0.92091 -0.920799,-1.07787 -0.740835,-1.20898 -0.542551,-1.30996 -0.331016,-1.3787 -0.111224,-1.41343 0.111224,-1.41342 0.331016,-1.3787 0.542551,-1.30996 0.740835,-1.20898 0.920799,-1.07787 1.078122,-0.92091 1.20887,-0.7409 1.309925,-0.54249 1.37863,-0.33094 1.413461,-0.11126 1.413425,0.11126 1.378701,0.33094 1.30996,0.54249 1.208977,0.7409 1.077874,0.92091 0.920905,1.07787 0.740906,1.20898 0.54248,1.30996 z"
       id="path64"
       inkscape:connector-curvature="0"
       sodipodi:nodetypes="ccccccccccccccccccccccccccccccccccccccccc" />
    <path
       style="fill:#000000;stroke:none;fill-opacity:0.3548387"
       d="m 44.357244,413.15315 0.11126,1.41378 -0.11126,1.41378 -0.330945,1.37834 -0.54248,1.31103 -0.740906,1.20827 -0.920905,1.07716 -1.077874,0.92126 -1.208977,0.74055 -1.30996,0.54213 -1.378701,0.33307 -1.413425,0.10984 -1.413461,-0.10984 -1.37863,-0.33307 -1.309925,-0.54213 -1.20887,-0.74055 -1.078122,-0.92126 -0.920799,-1.07716 -0.740835,-1.20827 -0.542551,-1.31103 -0.331016,-1.37834 -0.111224,-1.41378 0.111224,-1.41378 0.331016,-1.37835 0.542551,-1.31102 0.740835,-1.20827 0.920799,-1.07716 1.078122,-0.92126 1.20887,-0.74056 1.309925,-0.54212 1.37863,-0.33307 1.413461,-0.10984 1.413425,0.10984 1.378701,0.33307 1.30996,0.54212 1.208977,0.74056 1.077874,0.92126 0.920905,1.07716 0.740906,1.20827 0.54248,1.31102 z"
       id="path144"
       inkscape:connector-curvature="0"
       sodipodi:nodetypes="ccccccccccccccccccccccccccccccccccccccccc" />
    <path
       style="fill:#000000;stroke:none;fill-opacity:0.3548387"
       d="m 152.42067,820.58244 -0.77067,-0.31925 -0.71114,-0.43583 -0.63425,-0.54142 -0.54142,-0.63425 -0.43583,-0.71114 -0.31925,-0.77067 -0.19453,-0.81071 -0.0656,-0.83161 0.0656,-0.83161 0.19451,-0.81071 0.31925,-0.77067 0.43583,-0.71115 0.54142,-0.63425 0.63425,-0.54141 0.71114,-0.43583 0.77067,-0.31925 0.81071,-0.19453 0.83161,-0.0656 0.83162,0.0656 0.81071,0.19451 0.77066,0.31925 0.71115,0.43583 0.63425,0.54141 0.54141,0.63425 0.43583,0.71115 0.31925,0.77067 0.19453,0.81071 0.0656,0.83161 -0.0656,0.83161 -0.1945,0.81071 -0.31925,0.77067 -0.43583,0.71114 -0.54141,0.63425 -0.63425,0.54142 -0.71115,0.43583 -0.77066,0.31925 -0.81071,0.19453 -0.83162,0.0656 -0.83161,-0.0656 z"
       id="path330"
       inkscape:connector-curvature="0"
       sodipodi:nodetypes="ccccccccccccccccccccccccccccccccccccccccc" />
    <path
       style="fill:#000000;stroke:none;fill-opacity:0.3548387"
       d="m 181.61787,646.17165 -0.31925,0.7689 -0.43583,0.71221 -0.54141,0.63425 -0.63425,0.54212 -0.71115,0.43583 -0.77066,0.3189 -0.81071,0.19488 -0.83162,0.0638 -0.83161,-0.0638 -0.81071,-0.19487 -0.77067,-0.3189 -0.71114,-0.43583 -0.63425,-0.54212 -0.54142,-0.63425 -0.43583,-0.71221 -0.31925,-0.7689 -0.19453,-0.81141 -0.0656,-0.83268 0.0656,-0.83268 0.19451,-0.81142 0.31925,-0.76889 0.43583,-0.71221 0.54142,-0.63425 0.63425,-0.54213 0.71114,-0.43582 0.77067,-0.3189 0.81071,-0.19488 0.83161,-0.0638 0.83162,0.0638 0.81071,0.19487 0.77066,0.3189 0.71115,0.43582 0.63425,0.54213 0.54141,0.63425 0.43583,0.71221 0.31925,0.76889 0.19453,0.81142 0.0656,0.83268 -0.0656,0.83268 z"
       id="path390"
       inkscape:connector-curvature="0"
       sodipodi:nodetypes="ccccccccccccccccccccccccccccccccccccccccc" />
    <path
       style="fill:#000000;stroke:none;fill-opacity:0.3548387"
       d="m 257.00811,795.88524 0.31925,-0.77067 0.43583,-0.71115 0.54142,-0.63425 0.63425,-0.54141 0.71114,-0.43583 0.77067,-0.31925 0.81071,-0.19453 0.83161,-0.0656 0.83162,0.0656 0.8107,0.19451 0.77067,0.31925 0.71115,0.43583 0.63425,0.54141 0.54141,0.63425 0.43583,0.71115 0.31925,0.77067 0.19453,0.81071 0.0655,0.83161 -0.0655,0.83161 -0.19456,0.81071 -0.31925,0.77067 -0.43583,0.71114 -0.54141,0.63425 -0.63425,0.54142 -0.71115,0.43583 -0.77067,0.31925 -0.8107,0.19453 -0.83162,0.0656 -0.83161,-0.0656 -0.81071,-0.19451 -0.77067,-0.31925 -0.71114,-0.43583 -0.63425,-0.54142 -0.54142,-0.63425 -0.43583,-0.71114 -0.31925,-0.77067 -0.19453,-0.81071 -0.0655,-0.83161 0.0655,-0.83161 z"
       id="path430"
       inkscape:connector-curvature="0"
       sodipodi:nodetypes="ccccccccccccccccccccccccccccccccccccccccc" />
    <path
       style="fill:#000000;stroke:none;fill-opacity:0.3548387"
       d="m 267.31243,699.35917 -0.19456,0.81071 -0.31925,0.77067 -0.43583,0.71114 -0.54141,0.63425 -0.63425,0.54142 -0.71115,0.43583 -0.77067,0.31925 -0.8107,0.19453 -0.83162,0.0656 -0.83161,-0.0656 -0.81071,-0.19451 -0.77067,-0.31925 -0.71114,-0.43583 -0.63425,-0.54142 -0.54142,-0.63425 -0.43583,-0.71114 -0.31925,-0.77067 -0.19453,-0.81071 -0.0655,-0.83161 0.0655,-0.83268 0.19456,-0.81142 0.31925,-0.76889 0.43583,-0.71221 0.54142,-0.63425 0.63425,-0.54213 0.71114,-0.43582 0.77067,-0.3189 0.81071,-0.19488 0.83161,-0.0638 0.83162,0.0638 0.8107,0.19487 0.77067,0.3189 0.71115,0.43582 0.63425,0.54213 0.54141,0.63425 0.43583,0.71221 0.31925,0.76889 0.19453,0.81142 0.0655,0.83268 z"
       id="path548"
       inkscape:connector-curvature="0"
       sodipodi:nodetypes="ccccccccccccccccccccccccccccccccccccccccc" />
    <path
       style="fill:#000000;stroke:none;fill-opacity:0.3548387"
       d="m 436.81182,643.69488 0.19487,-0.81142 0.3189,-0.76889 0.43583,-0.71221 0.54212,-0.63425 0.63425,-0.54213 0.71221,-0.43582 0.7689,-0.3189 0.81142,-0.19488 0.83267,-0.0638 0.83268,0.0638 0.81142,0.19487 0.76889,0.3189 0.71221,0.43582 0.63425,0.54213 0.54213,0.63425 0.43582,0.71221 0.3189,0.76889 0.19488,0.81142 0.0638,0.83268 -0.0638,0.83268 -0.19487,0.81141 -0.3189,0.7689 -0.43582,0.71221 -0.54213,0.63425 -0.63425,0.54212 -0.71221,0.43583 -0.76889,0.3189 -0.81142,0.19488 -0.83268,0.0638 -0.83267,-0.0638 -0.81142,-0.19487 -0.7689,-0.3189 -0.71221,-0.43583 -0.63425,-0.54212 -0.54212,-0.63425 -0.43583,-0.71221 -0.3189,-0.7689 -0.19488,-0.81141 -0.0638,-0.83268 z"
       id="path588"
       inkscape:connector-curvature="0"
       sodipodi:nodetypes="ccccccccccccccccccccccccccccccccccccccccc" />
    <path
       style="fill:#000000;stroke:none;fill-opacity:0.3548387"
       d="m 444.9189,820.58244 -0.7689,-0.31925 -0.71221,-0.43583 -0.63425,-0.54142 -0.54212,-0.63425 -0.43583,-0.71114 -0.3189,-0.77067 -0.19488,-0.81071 -0.0638,-0.83161 0.0638,-0.83161 0.19487,-0.81071 0.3189,-0.77067 0.43583,-0.71115 0.54212,-0.63425 0.63425,-0.54141 0.71221,-0.43583 0.7689,-0.31925 0.81142,-0.19453 0.83267,-0.0656 0.83268,0.0656 0.81142,0.19451 0.76889,0.31925 0.71221,0.43583 0.63425,0.54141 0.54213,0.63425 0.43582,0.71115 0.3189,0.77067 0.19488,0.81071 0.0638,0.83161 -0.0638,0.83161 -0.19487,0.81071 -0.3189,0.77067 -0.43582,0.71114 -0.54213,0.63425 -0.63425,0.54142 -0.71221,0.43583 -0.76889,0.31925 -0.81142,0.19453 -0.83268,0.0656 -0.83267,-0.0656 z"
       id="path730"
       inkscape:connector-curvature="0"
       sodipodi:nodetypes="ccccccccccccccccccccccccccccccccccccccccc" />
    <path
       style="fill:#000000;fill-opacity:0.35483871;stroke:none"
       d="m 705.11811,786.61415 0,-42.51968 779.52759,0 0,42.51968 z"
       id="path754"
       inkscape:connector-curvature="0"
       sodipodi:nodetypes="ccccc" />
    <path
       style="fill:#000000;stroke:none;fill-opacity:0.3548387"
       d="m 778.11378,299.34213 1.41378,-0.10985 1.41378,0.10985 1.37835,0.33307 1.31102,0.54212 1.20827,0.74055 1.07716,0.92126 0.92126,1.07717 0.74055,1.20827 0.54213,1.31102 0.33307,1.37835 0.10984,1.41378 -0.10984,1.41378 -0.33307,1.37834 -0.54213,1.31103 -0.74055,1.20826 -0.92126,1.07717 -1.07716,0.92126 -1.20827,0.74055 -1.31102,0.54213 -1.37835,0.33307 -1.41378,0.10984 -1.41378,-0.10984 -1.37835,-0.33307 -1.31102,-0.54213 -1.20827,-0.74055 -1.07716,-0.92126 -0.92126,-1.07717 -0.74055,-1.20826 -0.54213,-1.31103 -0.33307,-1.37834 -0.10984,-1.41378 0.10984,-1.41378 0.33307,-1.37835 0.54213,-1.31102 0.74055,-1.20827 0.92126,-1.07717 1.07716,-0.92126 1.20827,-0.74055 1.31102,-0.54212 z"
       id="path772"
       inkscape:connector-curvature="0"
       sodipodi:nodetypes="ccccccccccccccccccccccccccccccccccccccccc" />
    <path
       style="fill:#000000;stroke:none;fill-opacity:0.3548387"
       d="m 1527.7252,973.44532 1.2083,0.7409 1.0771,0.92091 0.9213,1.07787 0.7405,1.20898 0.5422,1.30996 0.333,1.3787 0.1099,1.41342 -0.1099,1.41343 -0.333,1.3787 -0.5422,1.30996 -0.7405,1.20898 -0.9213,1.07787 -1.0771,0.92091 -1.2083,0.7409 -1.311,0.54248 -1.3784,0.33095 -1.4138,0.11126 -1.4137,-0.11126 -1.3784,-0.33095 -1.311,-0.54248 -1.2083,-0.7409 -1.0771,-0.92091 -0.9213,-1.07787 -0.7405,-1.20898 -0.5422,-1.30996 -0.333,-1.3787 -0.1099,-1.41343 0.1099,-1.41342 0.333,-1.3787 0.5422,-1.30996 0.7405,-1.20898 0.9213,-1.07787 1.0771,-0.92091 1.2083,-0.7409 1.311,-0.54249 1.3784,-0.33094 1.4137,-0.11126 1.4138,0.11126 1.3784,0.33094 z"
       id="path860"
       inkscape:connector-curvature="0"
       sodipodi:nodetypes="ccccccccccccccccccccccccccccccccccccccccc" />
    <path
       style="fill:#000000;stroke:none;fill-opacity:0.3548387"
       d="m 1523.622,423.60236 -1.4137,-0.10984 -1.3784,-0.33307 -1.311,-0.54213 -1.2083,-0.74055 -1.0771,-0.92126 -0.9213,-1.07716 -0.7405,-1.20827 -0.5422,-1.31103 -0.333,-1.37834 -0.1099,-1.41378 0.1099,-1.41378 0.333,-1.37835 0.5422,-1.31102 0.7405,-1.20827 0.9213,-1.07716 1.0771,-0.92126 1.2083,-0.74056 1.311,-0.54212 1.3784,-0.33307 1.4137,-0.10984 1.4138,0.10984 1.3784,0.33307 1.311,0.54212 1.2083,0.74056 1.0771,0.92126 0.9213,1.07716 0.7405,1.20827 0.5422,1.31102 0.333,1.37835 0.1099,1.41378 -0.1099,1.41378 -0.333,1.37834 -0.5422,1.31103 -0.7405,1.20827 -0.9213,1.07716 -1.0771,0.92126 -1.2083,0.74055 -1.311,0.54213 -1.3784,0.33307 z"
       id="path974"
       inkscape:connector-curvature="0"
       sodipodi:nodetypes="ccccccccccccccccccccccccccccccccccccccccc" />
    <path
       style="fill:#000000;fill-opacity:0.3548387;stroke:none"
       d="m 124.04257,255.12941 0,159.4375 c 0,9.78457 7.93418,17.71875 17.71875,17.71875 9.78457,0 17.6875,-7.93418 17.6875,-17.71875 l 0,-159.4375 -35.40625,0 z"
       id="rect4751"
       inkscape:connector-curvature="0" />
    <path
       sodipodi:type="arc"
       style="fill:#000000;fill-opacity:0.35483871;stroke:none"
       id="path4756"
       sodipodi:cx="737.00787"
       sodipodi:cy="765.35431"
       sodipodi:rx="7.0866141"
       sodipodi:ry="7.0866141"
       d="m 744.09449,765.35431 a 7.0866141,7.0866141 0 1 1 -14.17323,0 7.0866141,7.0866141 0 1 1 14.17323,0 z"
       transform="translate(3.5433075,2.5390623e-6)" />
    <path
       transform="translate(712.20472,2.5390623e-6)"
       d="m 744.09449,765.35431 a 7.0866141,7.0866141 0 1 1 -14.17323,0 7.0866141,7.0866141 0 1 1 14.17323,0 z"
       sodipodi:ry="7.0866141"
       sodipodi:rx="7.0866141"
       sodipodi:cy="765.35431"
       sodipodi:cx="737.00787"
       id="path4758"
       style="fill:#000000;fill-opacity:0.35483871;stroke:none"
       sodipodi:type="arc" />
    <path
       sodipodi:type="arc"
       style="fill:#000000;fill-opacity:0.35483871;stroke:none"
       id="path4760"
       sodipodi:cx="737.00787"
       sodipodi:cy="765.35431"
       sodipodi:rx="7.0866141"
       sodipodi:ry="7.0866141"
       d="m 744.09449,765.35431 a 7.0866141,7.0866141 0 1 1 -14.17323,0 7.0866141,7.0866141 0 1 1 14.17323,0 z"
       transform="translate(357.87402,2.5390623e-6)" />
  </g>
</svg>
