  0
SECTION
  2
BLOCKS
  0
ENDSEC
  0
SECTION
  2
ENTITIES
  0
LINE
  8
0
 10
0
 20
-5
 11
0.0576439
 21
-5.58527
  0
LINE
  8
0
 10
0.0576439
 20
-5.58527
 11
0.228361
 21
-6.14805
  0
LINE
  8
0
 10
0.228361
 20
-6.14805
 11
0.50559
 21
-6.66671
  0
LINE
  8
0
 10
0.50559
 20
-6.66671
 11
0.878679
 21
-7.12132
  0
LINE
  8
0
 10
0.878679
 20
-7.12132
 11
1.33329
 21
-7.49441
  0
LINE
  8
0
 10
1.33329
 20
-7.49441
 11
1.85195
 21
-7.77164
  0
LINE
  8
0
 10
1.85195
 20
-7.77164
 11
2.41473
 21
-7.94236
  0
LINE
  8
0
 10
2.41473
 20
-7.94236
 11
3
 21
-8
  0
LINE
  8
0
 10
3
 20
-8
 11
3
 21
-8
  0
LINE
  8
0
 10
3
 20
-8
 11
3
 21
-8
  0
LINE
  8
0
 10
3
 20
-8
 11
25
 21
-8
  0
LINE
  8
0
 10
25
 20
-8
 11
25.5853
 21
-7.94236
  0
LINE
  8
0
 10
25.5853
 20
-7.94236
 11
26.148
 21
-7.77164
  0
LINE
  8
0
 10
26.148
 20
-7.77164
 11
26.6667
 21
-7.49441
  0
LINE
  8
0
 10
26.6667
 20
-7.49441
 11
27.1213
 21
-7.12132
  0
LINE
  8
0
 10
27.1213
 20
-7.12132
 11
27.4944
 21
-6.66671
  0
LINE
  8
0
 10
27.4944
 20
-6.66671
 11
27.7716
 21
-6.14805
  0
LINE
  8
0
 10
27.7716
 20
-6.14805
 11
27.9424
 21
-5.58527
  0
LINE
  8
0
 10
27.9424
 20
-5.58527
 11
28
 21
-5
  0
LINE
  8
0
 10
28
 20
-5
 11
28
 21
5
  0
LINE
  8
0
 10
28
 20
5
 11
27.9424
 21
5.58527
  0
LINE
  8
0
 10
27.9424
 20
5.58527
 11
27.7716
 21
6.14805
  0
LINE
  8
0
 10
27.7716
 20
6.14805
 11
27.4944
 21
6.66671
  0
LINE
  8
0
 10
27.4944
 20
6.66671
 11
27.1213
 21
7.12132
  0
LINE
  8
0
 10
27.1213
 20
7.12132
 11
26.6667
 21
7.49441
  0
LINE
  8
0
 10
26.6667
 20
7.49441
 11
26.148
 21
7.77164
  0
LINE
  8
0
 10
26.148
 20
7.77164
 11
25.5853
 21
7.94236
  0
LINE
  8
0
 10
25.5853
 20
7.94236
 11
25
 21
8
  0
LINE
  8
0
 10
25
 20
8
 11
3
 21
8
  0
LINE
  8
0
 10
3
 20
8
 11
2.41473
 21
7.94236
  0
LINE
  8
0
 10
2.41473
 20
7.94236
 11
1.85195
 21
7.77164
  0
LINE
  8
0
 10
1.85195
 20
7.77164
 11
1.33329
 21
7.49441
  0
LINE
  8
0
 10
1.33329
 20
7.49441
 11
0.878679
 21
7.12132
  0
LINE
  8
0
 10
0.878679
 20
7.12132
 11
0.50559
 21
6.66671
  0
LINE
  8
0
 10
0.50559
 20
6.66671
 11
0.228361
 21
6.14805
  0
LINE
  8
0
 10
0.228361
 20
6.14805
 11
0.0576439
 21
5.58527
  0
LINE
  8
0
 10
0.0576439
 20
5.58527
 11
0
 21
5
  0
LINE
  8
0
 10
0
 20
5
 11
0
 21
-5
  0
LINE
  8
0
 10
3.45
 20
-2
 11
3.45
 21
2
  0
LINE
  8
0
 10
3.45
 20
2
 11
3.499
 21
2.49748
  0
LINE
  8
0
 10
3.499
 20
2.49748
 11
3.64411
 21
2.97584
  0
LINE
  8
0
 10
3.64411
 20
2.97584
 11
3.87975
 21
3.4167
  0
LINE
  8
0
 10
3.87975
 20
3.4167
 11
4.19688
 21
3.80312
  0
LINE
  8
0
 10
4.19688
 20
3.80312
 11
4.5833
 21
4.12025
  0
LINE
  8
0
 10
4.5833
 20
4.12025
 11
5.02416
 21
4.35589
  0
LINE
  8
0
 10
5.02416
 20
4.35589
 11
5.50252
 21
4.501
  0
LINE
  8
0
 10
5.50252
 20
4.501
 11
6
 21
4.55
  0
LINE
  8
0
 10
6
 20
4.55
 11
6.49748
 21
4.501
  0
LINE
  8
0
 10
6.49748
 20
4.501
 11
6.97584
 21
4.35589
  0
LINE
  8
0
 10
6.97584
 20
4.35589
 11
7.4167
 21
4.12025
  0
LINE
  8
0
 10
7.4167
 20
4.12025
 11
7.80312
 21
3.80312
  0
LINE
  8
0
 10
7.80312
 20
3.80312
 11
8.12025
 21
3.4167
  0
LINE
  8
0
 10
8.12025
 20
3.4167
 11
8.35589
 21
2.97584
  0
LINE
  8
0
 10
8.35589
 20
2.97584
 11
8.501
 21
2.49748
  0
LINE
  8
0
 10
8.501
 20
2.49748
 11
8.55
 21
2
  0
LINE
  8
0
 10
8.55
 20
2
 11
8.55
 21
-2
  0
LINE
  8
0
 10
8.55
 20
-2
 11
8.501
 21
-2.49748
  0
LINE
  8
0
 10
8.501
 20
-2.49748
 11
8.35589
 21
-2.97584
  0
LINE
  8
0
 10
8.35589
 20
-2.97584
 11
8.12025
 21
-3.4167
  0
LINE
  8
0
 10
8.12025
 20
-3.4167
 11
7.80312
 21
-3.80312
  0
LINE
  8
0
 10
7.80312
 20
-3.80312
 11
7.4167
 21
-4.12025
  0
LINE
  8
0
 10
7.4167
 20
-4.12025
 11
6.97584
 21
-4.35589
  0
LINE
  8
0
 10
6.97584
 20
-4.35589
 11
6.49748
 21
-4.501
  0
LINE
  8
0
 10
6.49748
 20
-4.501
 11
6
 21
-4.55
  0
LINE
  8
0
 10
6
 20
-4.55
 11
5.50252
 21
-4.501
  0
LINE
  8
0
 10
5.50252
 20
-4.501
 11
5.02416
 21
-4.35589
  0
LINE
  8
0
 10
5.02416
 20
-4.35589
 11
4.5833
 21
-4.12025
  0
LINE
  8
0
 10
4.5833
 20
-4.12025
 11
4.19688
 21
-3.80312
  0
LINE
  8
0
 10
4.19688
 20
-3.80312
 11
3.87975
 21
-3.4167
  0
LINE
  8
0
 10
3.87975
 20
-3.4167
 11
3.64411
 21
-2.97584
  0
LINE
  8
0
 10
3.64411
 20
-2.97584
 11
3.499
 21
-2.49748
  0
LINE
  8
0
 10
3.499
 20
-2.49748
 11
3.45
 21
-2
  0
LINE
  8
0
 10
3.45
 20
-2
 11
3.45
 21
-2
  0
LINE
  8
0
 10
20.2
 20
-4.75
 11
20.2538
 21
-4.20375
  0
LINE
  8
0
 10
20.2538
 20
-4.20375
 11
20.4131
 21
-3.67849
  0
LINE
  8
0
 10
20.4131
 20
-3.67849
 11
20.6719
 21
-3.1944
  0
LINE
  8
0
 10
20.6719
 20
-3.1944
 11
21.0201
 21
-2.7701
  0
LINE
  8
0
 10
21.0201
 20
-2.7701
 11
21.4444
 21
-2.42188
  0
LINE
  8
0
 10
21.4444
 20
-2.42188
 11
21.9285
 21
-2.16314
  0
LINE
  8
0
 10
21.9285
 20
-2.16314
 11
22.4537
 21
-2.0038
  0
LINE
  8
0
 10
22.4537
 20
-2.0038
 11
23
 21
-1.95
  0
LINE
  8
0
 10
23
 20
-1.95
 11
23.5463
 21
-2.0038
  0
LINE
  8
0
 10
23.5463
 20
-2.0038
 11
24.0715
 21
-2.16314
  0
LINE
  8
0
 10
24.0715
 20
-2.16314
 11
24.5556
 21
-2.42188
  0
LINE
  8
0
 10
24.5556
 20
-2.42188
 11
24.9799
 21
-2.7701
  0
LINE
  8
0
 10
24.9799
 20
-2.7701
 11
25.3281
 21
-3.1944
  0
LINE
  8
0
 10
25.3281
 20
-3.1944
 11
25.5869
 21
-3.67849
  0
LINE
  8
0
 10
25.5869
 20
-3.67849
 11
25.7462
 21
-4.20375
  0
LINE
  8
0
 10
25.7462
 20
-4.20375
 11
25.8
 21
-4.75
  0
LINE
  8
0
 10
25.8
 20
-4.75
 11
25.7462
 21
-5.29625
  0
LINE
  8
0
 10
25.7462
 20
-5.29625
 11
25.5869
 21
-5.82151
  0
LINE
  8
0
 10
25.5869
 20
-5.82151
 11
25.3281
 21
-6.3056
  0
LINE
  8
0
 10
25.3281
 20
-6.3056
 11
24.9799
 21
-6.7299
  0
LINE
  8
0
 10
24.9799
 20
-6.7299
 11
24.5556
 21
-7.07811
  0
LINE
  8
0
 10
24.5556
 20
-7.07811
 11
24.0715
 21
-7.33686
  0
LINE
  8
0
 10
24.0715
 20
-7.33686
 11
23.5463
 21
-7.4962
  0
LINE
  8
0
 10
23.5463
 20
-7.4962
 11
23
 21
-7.55
  0
LINE
  8
0
 10
23
 20
-7.55
 11
22.4537
 21
-7.4962
  0
LINE
  8
0
 10
22.4537
 20
-7.4962
 11
21.9285
 21
-7.33686
  0
LINE
  8
0
 10
21.9285
 20
-7.33686
 11
21.4444
 21
-7.07811
  0
LINE
  8
0
 10
21.4444
 20
-7.07811
 11
21.0201
 21
-6.7299
  0
LINE
  8
0
 10
21.0201
 20
-6.7299
 11
20.6719
 21
-6.3056
  0
LINE
  8
0
 10
20.6719
 20
-6.3056
 11
20.4131
 21
-5.82151
  0
LINE
  8
0
 10
20.4131
 20
-5.82151
 11
20.2538
 21
-5.29625
  0
LINE
  8
0
 10
20.2538
 20
-5.29625
 11
20.2
 21
-4.75
  0
LINE
  8
0
 10
20.2
 20
4.75
 11
20.2538
 21
5.29625
  0
LINE
  8
0
 10
20.2538
 20
5.29625
 11
20.4131
 21
5.82151
  0
LINE
  8
0
 10
20.4131
 20
5.82151
 11
20.6719
 21
6.3056
  0
LINE
  8
0
 10
20.6719
 20
6.3056
 11
21.0201
 21
6.7299
  0
LINE
  8
0
 10
21.0201
 20
6.7299
 11
21.4444
 21
7.07811
  0
LINE
  8
0
 10
21.4444
 20
7.07811
 11
21.9285
 21
7.33686
  0
LINE
  8
0
 10
21.9285
 20
7.33686
 11
22.4537
 21
7.4962
  0
LINE
  8
0
 10
22.4537
 20
7.4962
 11
23
 21
7.55
  0
LINE
  8
0
 10
23
 20
7.55
 11
23.5463
 21
7.4962
  0
LINE
  8
0
 10
23.5463
 20
7.4962
 11
24.0715
 21
7.33686
  0
LINE
  8
0
 10
24.0715
 20
7.33686
 11
24.5556
 21
7.07811
  0
LINE
  8
0
 10
24.5556
 20
7.07811
 11
24.9799
 21
6.7299
  0
LINE
  8
0
 10
24.9799
 20
6.7299
 11
25.3281
 21
6.3056
  0
LINE
  8
0
 10
25.3281
 20
6.3056
 11
25.5869
 21
5.82151
  0
LINE
  8
0
 10
25.5869
 20
5.82151
 11
25.7462
 21
5.29625
  0
LINE
  8
0
 10
25.7462
 20
5.29625
 11
25.8
 21
4.75
  0
LINE
  8
0
 10
25.8
 20
4.75
 11
25.7462
 21
4.20375
  0
LINE
  8
0
 10
25.7462
 20
4.20375
 11
25.5869
 21
3.67849
  0
LINE
  8
0
 10
25.5869
 20
3.67849
 11
25.3281
 21
3.1944
  0
LINE
  8
0
 10
25.3281
 20
3.1944
 11
24.9799
 21
2.7701
  0
LINE
  8
0
 10
24.9799
 20
2.7701
 11
24.5556
 21
2.42188
  0
LINE
  8
0
 10
24.5556
 20
2.42188
 11
24.0715
 21
2.16314
  0
LINE
  8
0
 10
24.0715
 20
2.16314
 11
23.5463
 21
2.0038
  0
LINE
  8
0
 10
23.5463
 20
2.0038
 11
23
 21
1.95
  0
LINE
  8
0
 10
23
 20
1.95
 11
22.4537
 21
2.0038
  0
LINE
  8
0
 10
22.4537
 20
2.0038
 11
21.9285
 21
2.16314
  0
LINE
  8
0
 10
21.9285
 20
2.16314
 11
21.4444
 21
2.42188
  0
LINE
  8
0
 10
21.4444
 20
2.42188
 11
21.0201
 21
2.7701
  0
LINE
  8
0
 10
21.0201
 20
2.7701
 11
20.6719
 21
3.1944
  0
LINE
  8
0
 10
20.6719
 20
3.1944
 11
20.4131
 21
3.67849
  0
LINE
  8
0
 10
20.4131
 20
3.67849
 11
20.2538
 21
4.20375
  0
LINE
  8
0
 10
20.2538
 20
4.20375
 11
20.2
 21
4.75
  0
ENDSEC
  0
SECTION
  2
OBJECTS
  0
DICTIONARY
  0
ENDSEC
  0
EOF
